<?xml version="1.0" encoding="utf-8" ?>
<svg baseProfile="full" height="200mm" version="1.1" viewBox="0,0,200,200" width="200mm" xmlns="http://www.w3.org/2000/svg" xmlns:ev="http://www.w3.org/2001/xml-events" xmlns:xlink="http://www.w3.org/1999/xlink"><defs /><rect fill="#1a1a1a" height="200" width="200" x="0" y="0" /><text alignment-baseline="middle" fill="#e1ed5e" style="dominant-baseline: central; font-size:9.0px; font-family:Arial;" text-anchor="middle" x="100.0" y="100.0">2020</text><line stroke="#e1ed5e" stroke-width="0.3" x1="100.0" x2="100.0" y1="15.0" y2="10.0" /><path d="M 100.0 14.0 a86.0,86.0 0 0,1 42.35913384403234,11.155469271406648" fill="none" id="id85" stroke="none" /><text fill="#e1ed5e" style="font-size:6.75px; font-family:Arial;" text-anchor="middle"><textPath startOffset="22.145653131862478" xlink:href="#id85">January</textPath></text><path d="M 100.0 79.0 l 0.0 -14.702515157587648 a35.70251515758765,35.70251515758765 0 0,0 0.6128811482675878,0.005260847544782107 l -0.25238822341873296 14.7003487082373" fill="#ffa60f" stroke="none" /><path d="M 100.72087961077811 79.0123766808444 l 0.5047877342931117 -14.696344112213708 a35.7050107419645,35.7050107419645 0 0,0 0.612382146986954,0.026298324309824178 l -0.756995641880902 14.685513219478054" fill="#ffa60f" stroke="none" /><path d="M 101.08105385017728 79.02784411241856 l 0.6057038233859718 -11.750492358610632 a32.766093140521676,32.766093140521676 0 0,0 0.5614792226271671,0.03377719575734424 l -0.8073273981456013 11.738363185028597" fill="#ff7e0b" stroke="none" /><path d="M 101.44090949804482 79.04949213459386 l 0.8077705916867719 -11.744807121849606 a32.77255230008528,32.77255230008528 0 0,0 0.5609272103333756,0.043419313631417294 l -1.009266796795381 11.729210041223135" fill="#ff7e0b" stroke="none" /><path d="M 102.15924093988457 79.11130261209362 l 1.8137587669363442 -17.546470760794723 a38.63996476822056,38.63996476822056 0 0,0 0.659205339993501,0.07386533331703116 l -2.114700008530642 17.51274966697072" fill="#ffcd13" stroke="none" /><path d="M 102.51750503828377 79.15144685158666 l 1.4113779999346636 -11.688234500693923 a32.77313949640924,32.77313949640924 0 0,0 0.5579582960111026,0.07223887213288133 l -1.611814117836558 11.662284032360645" fill="#ff7e0b" stroke="none" /><path d="M 102.87502721639298 79.19773525538626 l 2.0122805589643944 -14.559859708227162 a35.69825798423891,35.69825798423891 0 0,0 0.6063177331675302,0.08910782707778118 l -2.2619233977396065 14.523170807850498" fill="#ffa60f" stroke="none" /><path d="M 103.23170211078529 79.25015418208739 l 1.8106004949676522 -11.625354014849373 a32.765505944197706,32.765505944197706 0 0,0 0.5550203613428318,0.0913283892489455 l -2.0098983593635547 11.592559627104759" fill="#ff7e0b" stroke="none" /><path d="M 103.94208987418118 79.37332000966035 l 2.7610924440424522 -14.447202393841469 a35.70868071898928,35.70868071898928 0 0,0 0.6011021014864603,0.12023725514347908 l -3.0086910310598696 14.39767574203513" fill="#ffa60f" stroke="none" /><path d="M 104.29559338865022 79.4440306129975 l 3.008721059115191 -14.39781943715012 a35.708827518070265,35.708827518070265 0 0,0 0.5989519576347254,0.1305387914436568 l -3.2554354333690503 14.344049187572745" fill="#ffa60f" stroke="none" /><path d="M 104.64783097203109 79.52079915486377 l 2.6077078487143672 -11.490041935824191 a32.7822410394307,32.7822410394307 0 0,0 0.5477254432897621,0.1292617132373222 l -2.8045654457440143 11.443584078940642" fill="#ff7e0b" stroke="none" /><path d="M 105.3480935250658 79.69241777938227 l 3.74266104414461 -14.211493595175021 a35.696055998024036,35.696055998024036 0 0,0 0.5912262947328323,0.1611413556959863 l -3.986068739812135 14.145151745334893" fill="#ffa60f" stroke="none" /><path d="M 105.69591212413111 79.78721728523813 l 3.989413358473051 -14.1570206170421 a35.7083871208273,35.7083871208273 0 0,0 0.5885762226607636,0.17132596041477038 l -4.2318495935154194 14.086450962324813" fill="#ffa60f" stroke="none" /><path d="M 106.38641147887787 79.99465700312896 l 4.470538631496135 -14.003898589941267 a35.70016637229179,35.70016637229179 0 0,0 0.5822140592715533,0.19138532552319734 l -4.7102754284154305 13.925092343016049" fill="#ffa60f" stroke="none" /><path d="M 106.72888874123014 80.10723608172694 l 5.649762247921924 -16.702518189019155 a38.63218441692803,38.63218441692803 0 0,0 0.6263826574883992,0.21788840360191572 l -5.9356506774553415 16.603071352848648" fill="#ffcd13" stroke="none" /><path d="M 107.06938296918511 80.22567764915836 l 4.948525249458154 -13.841905845333507 a35.69987277412981,35.69987277412981 0 0,0 0.5752963919682422,0.2112568038160836 l -5.18541079308052 13.7549181925087" fill="#ffa60f" stroke="none" /><path d="M 108.07796709384702 80.6158196554323 l 6.145747361057052 -14.747556385767188 a36.97687797967182,36.97687797967182 0 0,0 0.5838207508458129,0.24919836240831494 l -6.398003187073295 14.639883373699472" fill="#ffb711" stroke="none" /><path d="M 108.73861861582097 80.90454125486305 l 6.120462032456226 -13.374314108450779 a35.7082403217463,35.7082403217463 0 0,0 0.5551973082304175,0.2598603738073473 l -6.349148054558149 13.267277503072899" fill="#ffa60f" stroke="none" /><path d="M 109.06512990194946 81.05736502329252 l 5.286066723893655 -11.045846391203296 a33.24553893903877,33.24553893903877 0 0,0 0.5126774782460265,0.25077624520618763 l -5.474904451401749 10.953476395899887" fill="#ff840c" stroke="none" /><path d="M 109.3889696526874 81.21577127319529 l 5.258512589116226 -10.520547716166957 a32.76154236901095,32.76154236901095 0 0,0 0.500897115684126,0.2557616363015663 l -5.438336926513931 10.428728128192558" fill="#ff7d0b" stroke="none" /><path d="M 110.02825361518725 81.54914285379988 l 7.017894128151374 -12.912134753909468 a35.696055998024036,35.696055998024036 0 0,0 0.5358756720610655,0.2972412020433154 l -7.238513988368539 12.789760636433007" fill="#ffa60f" stroke="none" /><path d="M 110.34350942703115 81.72400993836675 l 5.791534246732026 -10.233086079882236 a32.75831278922914,32.75831278922914 0 0,0 0.4870186663324958,0.281180358107439 l -5.96634538092492 10.132158824498626" fill="#ff7d0b" stroke="none" /><line stroke="#e1ed5e" stroke-width="0.3" x1="143.13028292997686" x2="145.6673583964461" y1="26.7553504044142" y2="22.446841604673864" /><path d="M 143.63769802327073 25.89364864446614 a86.0,86.0 0 0,1 29.32050498858742,28.57503671076993" fill="none" id="id86" stroke="none" /><text fill="#e1ed5e" style="font-size:6.75px; font-family:Arial;" text-anchor="middle"><textPath startOffset="20.669276256404974" xlink:href="#id86">February</textPath></text><path d="M 110.65571695917076 81.90426304109057 l 7.4532017337507375 -12.657165969443785 a35.688569244893486,35.688569244893486 0 0,0 0.5252460818537315,0.3153951806074546 l -7.669380572161904 12.527356788300409" fill="#ffa60f" stroke="none" /><path d="M 111.8722381534696 82.67804972795209 l 5.063595690568328 -7.387937439929766 a29.956652328513044,29.956652328513044 0 0,0 0.4216825466814022,0.2943671671005757 l -5.189673328423492 7.299925457024064" fill="#ff5607" stroke="none" /><path d="M 112.16784306229584 82.88440491214696 l 5.124858763064324 -7.2087556538960005 a29.844791428797784,29.844791428797784 0 0,0 0.41501170660177106,0.30043647078949154 l -5.2478514800400635 7.119718411733434" fill="#ff5407" stroke="none" /><path d="M 112.45986205192187 83.09580414077388 l 6.986363961851152 -9.478344484299859 a32.774901085381146,32.774901085381146 0 0,0 0.4500259412721397,0.33770785610383175 l -7.148042892034058 9.357017600932013" fill="#ff7e0b" stroke="none" /><path d="M 112.7482090630111 83.31218511350987 l 6.771262583254461 -8.86380008192912 a32.15423457095056,32.15423457095056 0 0,0 0.43575120936946427,0.33884277602332236 l -6.922423737259151 8.746256254285008" fill="#ff750a" stroke="none" /><path d="M 113.86319453409587 84.22622945171908 l 2.0673751555082323 -2.352293424145492 a24.131664794784207,24.131664794784207 0 0,0 0.3088105853016012,0.2761403295972545 l -2.107450767633209 2.3164575646648506" fill="#ff0000" stroke="none" /><path d="M 114.65682725009322 84.96080404539774 l 8.218735673296155 -8.4331468318967 a32.775635080786095,32.775635080786095 0 0,0 0.39956320969300424,0.39614816004544373 l -8.362290803119121 8.290818661622597" fill="#ff7e0b" stroke="none" /><path d="M 114.91283532996326 85.21462403516908 l 8.777715766348773 -8.702693005476268 a33.36062941853583,33.36062941853583 0 0,0 0.3997130801723873,0.4101408330572986 l -8.925815647671973 8.550729480351228" fill="#ff860c" stroke="none" /><path d="M 115.16444852881244 85.47280134310134 l 7.604980230396729 -7.285399029107461 a31.5315128693861,31.5315128693861 0 0,0 0.3710871171018484,0.3940816587352594 l -7.728923181234837 7.153775910427707" fill="#ff6c0a" stroke="none" /><path d="M 115.6541949942343 86.00192230759917 l 10.961562263123023 -9.801896568031756 a35.704863942883506,35.704863942883506 0 0,0 0.4046363133938163,0.4604018465786166 l -11.12820964047543 9.612282443641842" fill="#ffa60f" stroke="none" /><path d="M 115.8921839302757 86.27271002978787 l 11.123543724483614 -9.608252136537589 a35.698698381481876,35.698698381481876 0 0,0 0.3966047813390275,0.4671994351688397 l -11.286843069329754 9.415885918919196" fill="#ffa60f" stroke="none" /><path d="M 116.1254893667686 86.54754324733833 l 9.039799987034895 -7.541322660812218 a32.772405501004286,32.772405501004286 0 0,0 0.3566779770693347,0.4350891369967466 l -9.167924783342857 7.385031242116977" fill="#ff7e0b" stroke="none" /><path d="M 116.57777611688842 87.10902102172516 l 11.624622866598273 -9.03937705196964 a35.72556261330326,35.72556261330326 0 0,0 0.3723080350393488,0.4873631691149909 l -11.778082878991928 8.838492969613766" fill="#ffa60f" stroke="none" /><path d="M 116.7966241395341 87.39550010848427 l 11.76622389671901 -8.829593768230753 a35.71073590612315,35.71073590612315 0 0,0 0.3637359185473857,0.4934776310153515 l -11.91606183485022 8.626309827946526" fill="#ffa60f" stroke="none" /><path d="M 117.01052211995028 87.68569379921539 l 9.52940105162221 -6.898551474920732 a32.76433155154977,32.76433155154977 0 0,0 0.32590353180367504,0.4584241314993169 l -9.646419681955846 6.733950116711911" fill="#ff7d0b" stroke="none" /><path d="M 117.42321728460499 88.27688183743584 l 14.115283327572083 -9.497392567870445 a38.01298589330736,38.01298589330736 0 0,0 0.3596310143167347,0.5445271924343031 l -14.27623878080954 9.253685497097084" fill="#ffc512" stroke="none" /><path d="M 117.62189284568427 88.57770195909679 l 12.336080524506313 -7.996098355688379 a35.70090036769675,35.70090036769675 0 0,0 0.32892821972267056,0.5171297949291678 l -12.471526435854873 7.783154886080539" fill="#ffa60f" stroke="none" /><path d="M 117.81537515405839 88.88188828441811 l 12.47227365891205 -7.783621208532597 a35.70178116218269,35.70178116218269 0 0,0 0.3200104257488295,0.5227129807435589 l -12.604052049116282 7.568371111664483" fill="#ffa60f" stroke="none" /><line stroke="#e1ed5e" stroke-width="0.3" x1="172.87174338648825" x2="177.1583165268699" y1="56.24261187166439" y2="53.66864786411523" /><path d="M 173.72905801456457 55.72781907015455 a86.0,86.0 0 0,1 12.242430191666344,42.057860355516425" fill="none" id="id87" stroke="none" /><text fill="#e1ed5e" style="font-size:6.75px; font-family:Arial;" text-anchor="middle"><textPath startOffset="22.145653131862474" xlink:href="#id87">March</textPath></text><path d="M 118.18653347947321 89.5 l 19.091372403258184 -11.022408996220507 a43.04481799244101,43.04481799244101 0 0,0 0.3639677849611943,0.6430962013068591 l -19.277773553240753 10.693056024814531" fill="#f9ff18" stroke="none" /><path d="M 118.36410011445183 89.81374322990088 l 12.85694116453167 -7.1315285346823565 a35.702368358506654,35.702368358506654 0 0,0 0.2926823210791912,0.5385025052888688 l -12.977468835226203 6.909771195918885" fill="#ffa60f" stroke="none" /><path d="M 118.53625476483649 90.13048839642627 l 10.389049941608652 -5.531583928341522 a32.76990991662744,32.76990991662744 0 0,0 0.26011807445332097,0.49881070561795815 l -10.482476085036918 5.352426979619066" fill="#ff7e0b" stroke="none" /><path d="M 118.8641267826498 90.77261029715802 l 17.162277122049634 -8.394929753068388 a40.10545999375522,40.10545999375522 0 0,0 0.29720197352796435,0.6210378185189214 l -17.30385835353751 8.099079432484363" fill="#ffe015" stroke="none" /><path d="M 119.0197475246899 91.09779779509293 l 15.3833051796891 -7.200163572708598 a37.984947268838056,37.984947268838056 0 0,0 0.27134915199939974,0.5929468678437788 l -15.504638796543551 6.935027722650135" fill="#ffc412" stroke="none" /><path d="M 119.16976305983485 91.42560881287824 l 13.418718004275505 -6.002021884109987 a35.69987277412981,35.69987277412981 0 0,0 0.24542152594710345,0.5615724800700738 l -13.51977341223958 5.770787334264064" fill="#ffa60f" stroke="none" /><path d="M 119.4528033332814 92.08871423366111 l 18.27251181827919 -7.4312714823928845 a40.72583291002381,40.72583291002381 0 0,0 0.25781648524603723,0.6498659610132993 l -18.397386978491355 7.11650450416602" fill="#ffe815" stroke="none" /><path d="M 119.58574465831526 92.42381321644754 l 13.713462336478694 -5.3046618304739575 a35.70368955023558,35.70368955023558 0 0,0 0.2162101802573791,0.5735231904473737 l -13.802503200550515 5.0684703598324266" fill="#ffa60f" stroke="none" /><path d="M 119.83427380445688 93.10060997987247 l 16.14539410921566 -5.616206173533688 a38.09431258417646,38.09431258417646 0 0,0 0.20954516469769977,0.6194830456930539 l -16.239424695485724 5.338221453366472" fill="#ffc612" stroke="none" /><path d="M 119.94978838288452 93.4421083053983 l 13.968496361210992 -4.591722203522168 a35.70383634931657,35.70383634931657 0 0,0 0.18640001171426754,0.5838953818271605 l -14.045261088702516 4.351257788003621" fill="#ffa60f" stroke="none" /><path d="M 120.05942366710727 93.78553927170692 l 14.03867055855497 -4.349216024917092 a35.69693679250999,35.69693679250999 0 0,0 0.17631512612938322,0.5868957114977368 l -14.11126200468798 4.107582709828631" fill="#ffa60f" stroke="none" /><path d="M 120.26092885502905 94.47779374421319 l 19.096472383964105 -5.204828466490139 a40.79306688911776,40.79306688911776 0 0,0 0.17834441193606038,0.6772027811414726 l -19.183006276704894 4.876245180975868" fill="#ffe915" stroke="none" /><path d="M 120.35273937422433 94.82641323984039 l 14.244091042897137 -3.6207922420197205 a35.697083591590975,35.697083591590975 0 0,0 0.14586928757853032,0.5951964713368346 l -14.304147856991959 3.3757399460747908" fill="#ffa60f" stroke="none" /><path d="M 120.43855184770803 95.1765574152323 l 14.307433966251233 -3.376515458912368 a35.70045997045377,35.70045997045377 0 0,0 0.13564328300178688,0.5976693327712242 l -14.363288110810688 3.1304117922021177" fill="#ffa60f" stroke="none" /><path d="M 120.592083275326 95.88100663000786 l 17.30033830275834 -3.4605521847839595 a38.64304754892137,38.64304754892137 0 0,0 0.12452944310249608,0.6515906674461296 l -17.357194038142996 3.1630589523045156" fill="#ffcd13" stroke="none" /><path d="M 120.65975698304385 96.23510406497455 l 14.461849144215384 -2.635430663617901 a35.7000195732108,35.7000195732108 0 0,0 0.10469486766414259,0.6038521751083661 l -14.50495882937176 2.3867854555889423" fill="#ffa60f" stroke="none" /><path d="M 120.7213421655516 96.59031103205396 l 11.608805091647849 -1.9102244601622231 a32.76491874787374,32.76491874787374 0 0,0 0.08655946677823884,0.5557738702880339 l -11.639886050564353 1.710662407942748" fill="#ff7e0b" stroke="none" /><path d="M 120.82617615685814 97.30363454192243 l 14.57484870554577 -1.8870059635694991 a35.696496395267005,35.696496395267005 0 0,0 0.0734632429544227,0.608381036740317 l -14.605094034759857 1.6365312499057691" fill="#ffa60f" stroke="none" /><path d="M 120.86939407059847 97.66154086499901 l 11.696417190942954 -1.3106079426367714 a32.76961631846546,32.76961631846546 0 0,0 0.05784244172472708,0.5595731532535795 l -11.717192025149346 1.1096302671002607" fill="#ff7e0b" stroke="none" /><path d="M 120.96210409425399 98.7389718711861 l 14.670122117906299 -0.8825181174863981 a35.696643194348,35.696643194348 0 0,0 0.03154633140109292,0.6119904015110401 l -14.683110038763965 0.6305559225986272" fill="#ffa60f" stroke="none" /><path d="M 120.98066250479742 99.09900007780936 l 14.689123258809007 -0.6308141561406547 a35.702661956668635,35.702661956668635 0 0,0 0.021039600798071278,0.6125450210177442 l -14.697787546603925 0.3785628705587906" fill="#ffa60f" stroke="none" /><path d="M 120.99303781780057 99.45929381324524 l 8.824542544455435 -0.2272889131377541 a29.82746913724083,29.82746913724083 0 0,0 0.008789968237832993,0.5119715828264737 l -8.827143944291933 0.07577041434221399" fill="#ff5407" stroke="none" /><line stroke="#e1ed5e" stroke-width="0.3" x1="184.99686870605535" x2="189.99668451229388" y1="99.2704041080226" y2="99.22748670261217" /><path d="M 185.99683186730306 99.26182062694052 a86.0,86.0 0 0,1 -10.086455211305974,41.156179273409016" fill="none" id="id88" stroke="none" /><text fill="#e1ed5e" style="font-size:6.75px; font-family:Arial;" text-anchor="middle"><textPath startOffset="21.40746469413373" xlink:href="#id88">April</textPath></text><path d="M 120.99922638620191 100.18025310272382 l 14.718414426660486 0.12633988599332013 a35.718956654658655,35.718956654658655 0 0,0 -0.01052615268959786,0.6130956230732755 l -14.714076842372219 -0.3789824250356667" fill="#ffa60f" stroke="none" /><path d="M 120.99303781780057 100.54070618675476 l 14.699548551551858 0.3786082277995297 a35.70442354564054,35.70442354564054 0 0,0 -0.021040638903547154,0.6125752443259023 l -14.690883225651467 -0.6308897366895427" fill="#ffa60f" stroke="none" /><path d="M 120.98066250479742 100.90099992219065 l 23.514623654184494 1.009819116909105 a44.53629665531109,44.53629665531109 0 0,0 -0.039358232257768216,0.7635391911644553 l -23.493823832470152 -1.413330101450291" fill="#e6ff1a" stroke="none" /><path d="M 120.93736805541906 101.62068470465957 l 17.58706131733719 1.3613497743113483 a38.63967117005858,38.63967117005858 0 0,0 -0.056867250286526554,0.6608836486005071 l -17.561100444352924 -1.6630544702875125" fill="#ffcd13" stroke="none" /><path d="M 120.9064616781168 101.97986365728391 l 14.633227353840395 1.3857818445178014 a35.698698381481876,35.698698381481876 0 0,0 -0.06301263526286442,0.6095900857135732 l -14.607282326095865 -1.636776452514306" fill="#ffa60f" stroke="none" /><path d="M 120.86939407059847 102.33845913500097 l 14.61049182005534 1.6371360830068291 a35.701927961263685,35.701927961263685 0 0,0 -0.07347442109493316,0.6084736077791063 l -14.580235312700745 -1.8877033677093442" fill="#ffa60f" stroke="none" /><path d="M 120.77682067341334 103.0534771498775 l 21.816344330200653 3.2062513294620905 a43.05068995568065,43.05068995568065 0 0,0 -0.11373276386472554,0.7302459303913545 l -21.75809007419766 -3.5802854417848957" fill="#f9ff18" stroke="none" /><path d="M 120.7213421655516 103.40968896794604 l 23.209353668188648 3.8190903139055457 a44.521469948130985,44.521469948130985 0 0,0 -0.13056489772712626,0.7530636338187044 l -23.140373952969288 -4.216946980644838" fill="#e6ff1a" stroke="none" /><path d="M 120.65975698304385 103.76489593502545 l 14.461704723580208 2.6354043453672658 a35.69987277412981,35.69987277412981 0 0,0 -0.11504489312764579,0.6019634941883988 l -14.414333538170403 -2.883270404588979" fill="#ffa60f" stroke="none" /><path d="M 120.51834098615036 104.47187691870673 l 23.005214134022737 5.0138793465457265 a44.545251399251555,44.545251399251555 0 0,0 -0.1692489157544543,0.7457419513348481 l -22.915754356710618 -5.408055631819591" fill="#e6ff1a" stroke="none" /><path d="M 120.43855184770803 104.8234425847677 l 22.89546620389249 5.4032676829962885 a44.52440592975081,44.52440592975081 0 0,0 -0.18194044777259147,0.7423791142422305 l -22.7993382296036 -5.795502621846619" fill="#e6ff1a" stroke="none" /><path d="M 120.35273937422433 105.17358676015961 l 14.247363355231574 3.621624051018854 a35.70045997045377,35.70045997045377 0 0,0 -0.15607989359034782,0.5926607785027868 l -14.183093980836496 -3.8656653338944444" fill="#ffa60f" stroke="none" /><path d="M 120.16314734710363 105.8691983318838 l 24.652705670721467 7.176043328364859 a46.67589326075711,46.67589326075711 0 0,0 -0.23054263886302423,0.7674014648453619 l -24.525886711854813 -7.5981823968009445" fill="#ccff1d" stroke="none" /><path d="M 120.05942366710727 106.21446072829308 l 14.047364449387903 4.351909414520596 a35.70603833553143,35.70603833553143 0 0,0 -0.18641150768496298,0.5839313927916221 l -13.970588225925685 -4.592409841003602" fill="#ffa60f" stroke="none" /><path d="M 119.94978838288452 106.5578916946017 l 22.34585671298066 7.345526946668642 a44.52220394353594,44.52220394353594 0 0,0 -0.2449030294860354,0.7240122902589263 l -22.21646826192226 -7.728040911401728" fill="#e6ff1a" stroke="none" /><path d="M 119.71291397450082 107.23885506374661 l 28.981370710590628 10.642360758741603 a51.87360832141076,51.87360832141076 0 0,0 -0.31413006182434994,0.8332673098855277 l -28.79440996495184 -11.13829634882129" fill="#90ff24" stroke="none" /><path d="M 119.58574465831526 107.57618678355244 l 20.57580693052618 7.959164139403642 a43.061553087674,43.061553087674 0 0,0 -0.2726028535948551,0.6871372684230316 l -20.436145401965202 -8.311202425040237" fill="#f8ff18" stroke="none" /><path d="M 119.4528033332814 107.91128576633889 l 13.618476283010903 5.538515746605957 a35.7016343631017,35.7016343631017 0 0,0 -0.23575685685572928,0.5657306321835426 l -13.521393581618689 -5.771478888230777" fill="#ffa60f" stroke="none" /><path d="M 119.16976305983485 108.57439118712176 l 21.484072926814147 9.609552553788504 a44.53526906174416,44.53526906174416 0 0,0 -0.3181420105296007,0.6951977084987158 l -21.31594645142949 -9.976939244501908" fill="#e6ff1a" stroke="none" /><path d="M 119.0197475246899 108.90220220490707 l 22.042818324148715 10.317151982846946 a45.33781963752277,45.33781963752277 0 0,0 -0.335976434974808,0.7020615299880784 l -21.862462631213994 -10.694026014900128" fill="#dcff1b" stroke="none" /><path d="M 118.8641267826498 109.22738970284198 l 13.200818409797387 6.457181785678223 a35.69546880170007,35.69546880170007 0 0,0 -0.2739713694955199,0.5481262651356735 l -13.088027127090134 -6.682839906977642" fill="#ffa60f" stroke="none" /><path d="M 118.5362547648365 109.86951160357373 l 20.790539221112144 11.06979110346355 a44.55391254503003,44.55391254503003 0 0,0 -0.3652458684504004,0.6720112594492141 l -20.597448003046402 -11.425057196387366" fill="#e6ff1a" stroke="none" /><line stroke="#e1ed5e" stroke-width="0.3" x1="174.33088141563837" x2="178.70328620479359" y1="141.23008692659167" y2="143.65538615756765" /><path d="M 175.20536237346943 141.71514677278685 a86.0,86.0 0 0,1 -30.301960400862466,31.631185727798858" fill="none" id="id89" stroke="none" /><text fill="#e1ed5e" style="font-size:6.75px; font-family:Arial;" text-anchor="middle"><textPath startOffset="22.145653131862474" xlink:href="#id89">May</textPath></text><path d="M 118.36410011445183 110.18625677009912 l 12.85758302953644 7.131884566380592 a35.70310235391161,35.70310235391161 0 0,0 -0.3018895115848282,0.5334098404760877 l -12.733260152930233 -7.351551176955802" fill="#ffa60f" stroke="none" /><path d="M 118.18653347947321 110.5 l 12.725505117193414 7.347073804985573 a35.694147609971154,35.694147609971154 0 0,0 -0.31092371392250123,0.528016440656911 l -12.597507693141146 -7.564441413936034" fill="#ffa60f" stroke="none" /><path d="M 117.81537515405839 111.11811171558189 l 12.465922262926025 7.779657467690098 a35.69429440905214,35.69429440905214 0 0,0 -0.3288673560975476,0.5170341072012951 l -12.330537215202588 -7.992505249570065" fill="#ffa60f" stroke="none" /><path d="M 117.62189284568427 111.42229804090321 l 12.3343559393896 7.99498050045157 a35.69884518056287,35.69884518056287 0 0,0 -0.3377375283871638,0.511377664303426 l -12.195293972081709 -8.205538043094057" fill="#ffa60f" stroke="none" /><path d="M 117.423217284605 111.72311816256416 l 19.520216569680468 13.134072867667554 a44.52748871045163,44.52748871045163 0 0,0 -0.43215043776333323,0.6305204036690034 l -19.291876395101813 -13.4672280064066" fill="#e6ff1a" stroke="none" /><path d="M 117.01052211995028 112.31430620078461 l 22.025153550526873 15.944512639173414 a48.19071297750479,48.19071297750479 0 0,0 -0.49085219908112765,0.6659352789479202 l -21.74819933186192 -16.320254227390212" fill="#baff1f" stroke="none" /><path d="M 116.79662413953412 112.60449989151573 l 11.752134016790801 8.819020459656883 a35.693120016404215,35.693120016404215 0 0,0 -0.3719699398878838,0.4869205917087258 l -11.599012099548613 -9.019461964606485" fill="#ffa60f" stroke="none" /><path d="M 116.57777611688842 112.89097897827486 l 11.602141016789973 9.021895029578454 a35.697083591590975,35.697083591590975 0 0,0 -0.3803159965539615,0.48051683770253284 l -11.44555858959445 -9.21973181119567" fill="#ffa60f" stroke="none" /><path d="M 116.1254893667686 113.45245675266167 l 18.06167683520731 15.067693201726833 a44.52146994813099,44.52146994813099 0 0,0 -0.49462385616921833,0.5826656588533433 l -17.80035841553098 -15.375525643029732" fill="#e6ff1a" stroke="none" /><path d="M 115.89218393027572 113.72728997021213 l 20.03399905675489 17.304891229651105 a47.47301227053906,47.47301227053906 0 0,0 -0.5380024609974573,0.6121480408655143 l -19.733985531798847 -17.646251548327914" fill="#c3ff1e" stroke="none" /><path d="M 115.6541949942343 113.99807769240083 l 17.537077036296623 15.681762424839786 a44.52587392056073,44.52587392056073 0 0,0 -0.5143847326263149,0.565398928098579 l -17.265294602828426 -15.980498928496036" fill="#e6ff1a" stroke="none" /><path d="M 115.16444852881244 114.52719865689866 l 16.993618304378792 16.27950192439691 a44.53306707552929,44.53306707552929 0 0,0 -0.5335765457828379,0.5474965415012873 l -16.71165495744515 -16.568821157965935" fill="#e6ff1a" stroke="none" /><path d="M 114.91283532996324 114.78537596483092 l 20.86736405008927 20.689011582905145 a50.385065640160505,50.385065640160505 0 0,0 -0.6142373289839607,0.6089874688292259 l -20.509134800975346 -21.044179061963035" fill="#a1ff22" stroke="none" /><path d="M 114.65682725009322 115.03919595460226 l 10.25518214585069 10.52272031388008 a35.6934136145662,35.6934136145662 0 0,0 -0.44247512558386876,0.4238811611170698 l -10.073034534401508 -10.697213605302732" fill="#ffa60f" stroke="none" /><path d="M 114.13192950727249 115.5334660781643 l 18.29559284515399 20.110061452956916 a48.187189799561,48.187189799561 0 0,0 -0.6166468170591344,0.551409386247246 l -17.947681001271476 -20.421166369087548" fill="#baff1f" stroke="none" /><path d="M 113.86319453409587 115.77377054828091 l 17.121331779360883 19.48093264538771 a46.935434035949456,46.935434035949456 0 0,0 -0.609759501487805,0.5266957345660327 l -16.784392798110222 -19.77197251241846" fill="#c9ff1d" stroke="none" /><path d="M 113.59037401385872 116.0094264158162 l 11.115018164634678 13.093463449624014 a38.17505207872159,38.17505207872159 0 0,0 -0.5032302004807827,0.41981253124336115 l -10.888613629992 -13.282338164779246" fill="#ffc712" stroke="none" /><path d="M 113.03279911837588 116.46651593811092 l 18.236559255503217 23.041296877939597 a50.384918841079504,50.384918841079504 0 0,0 -0.6828117544062965,0.5309585501763132 l -17.838337556461692 -23.350956479736706" fill="#a1ff22" stroke="none" /><path d="M 112.7482090630111 116.68781488649013 l 14.459167138151992 18.92751392934161 a44.818444488976084,44.818444488976084 0 0,0 -0.6153935480983329,0.4618027911923046 l -14.132120601142892 -19.172935747797933" fill="#e3ff1b" stroke="none" /><path d="M 112.45986205192187 116.90419585922612 l 8.722611848245046 11.833898198254715 a35.70119396585873,35.70119396585873 0 0,0 -0.49644888525490766,0.3593907078782234 l -8.518181952616171 -11.981889677506016" fill="#ffa60f" stroke="none" /><path d="M 111.8722381534696 117.32195027204791 l 16.69203078118804 24.354171757136893 a50.52540556158803,50.52540556158803 0 0,0 -0.7196350642321567,0.48420258750789213 l -16.27149942885888 -24.637124018701908" fill="#9fff22" stroke="none" /><path d="M 111.5731344415666 117.5232005979908 l 14.295244566044335 21.644822272903962 a46.93939761113622,46.93939761113622 0 0,0 -0.6761829614557002,0.43829362620481355 l -13.921575972331624 -21.88702974081267" fill="#c9ff1d" stroke="none" /><path d="M 111.27062007382361 117.71928675628689 l 7.885977950190091 12.398067163820953 a35.693560413647184,35.693560413647184 0 0,0 -0.519827197414511,0.3244106174399451 l -7.671986623985865 -12.531613578102444" fill="#ffa60f" stroke="none" /><line stroke="#e1ed5e" stroke-width="0.3" x1="143.1302829299769" x2="145.66735839644613" y1="173.24464959558577" y2="177.55315839532614" /><path d="M 143.63769802327073 174.10635135553383 a86.0,86.0 0 0,1 -40.68552437913181,11.842963189579606" fill="none" id="id90" stroke="none" /><text fill="#e1ed5e" style="font-size:6.75px; font-family:Arial;" text-anchor="middle"><textPath startOffset="21.407464694133747" xlink:href="#id90">June</textPath></text><path d="M 110.65571695917076 118.09573695890943 l 14.934857910003338 25.362653802991016 a50.43321573872559,50.43321573872559 0 0,0 -0.749791896364363,0.4328925532021667 l -14.497273545778576 -25.615293253469357" fill="#a0ff22" stroke="none" /><path d="M 110.34350942703117 118.27599006163325 l 15.221341861426593 26.89465258833341 a51.903261735770975,51.903261735770975 0 0,0 -0.7791811864693904,0.43219866948784474 l -14.757416486801107 -27.151984173254398" fill="#8fff24" stroke="none" /><path d="M 110.02825361518725 118.45085714620011 l 7.019856979370917 12.915746179072883 a35.70016637229179,35.70016637229179 0 0,0 -0.5409615341878107,0.2880315471754232 l -6.797106629396553 -13.034348193970875" fill="#ffa60f" stroke="none" /><path d="M 109.3889696526874 118.78422872680471 l 13.13656779501736 26.281935427936208 a50.38212965854068,50.38212965854068 0 0,0 -0.7769398242984721,0.38004020101547065 l -12.683467721456818 -26.5035693790489" fill="#a1ff22" stroke="none" /><path d="M 109.06512990194946 118.94263497670748 l 11.432053193681282 23.888594319606792 a47.48314140712745,47.48314140712745 0 0,0 -0.7382753128696343,0.34555012412887876 l -11.020289166940142 -24.081320675306205" fill="#c3ff1e" stroke="none" /><path d="M 108.73861861582097 119.09545874513695 l 7.338714548233526 16.036415714998483 a38.63585439395281,38.63585439395281 0 0,0 -0.6054543738224478,0.2708120403420492 l -7.06234677155545 -16.16003150625038" fill="#ffcd13" stroke="none" /><path d="M 108.07796709384702 119.3841803445677 l 11.570731003489284 27.76554223165352 a51.080012489572596,51.080012489572596 0 0,0 -0.8122829663442538,0.3303484109606152 l -11.092393575954588 -27.960077899193426" fill="#99ff23" stroke="none" /><path d="M 107.74402155503746 119.51999308798841 l 9.759829569699537 24.601146108193923 a47.46640631189445,47.46640631189445 0 0,0 -0.7599772572291014,0.2939755292671528 l -9.336080049976907 -24.765061525599116" fill="#c3ff1e" stroke="none" /><path d="M 107.407793817531 119.65005319985036 l 6.033472155210823 16.004501711310276 a38.10400132352187,38.10400132352187 0 0,0 -0.6140384482507287,0.22548342351640954 l -5.757844555305967 -16.105715983835406" fill="#ffc612" stroke="none" /><path d="M 106.72888874123015 119.89276391827305 l 9.584712925627631 28.335500672741684 a50.912661537242684,50.912661537242684 0 0,0 -0.8303061401115416,0.27293812023017316 l -9.096884047868356 -28.49585971437388" fill="#9bff22" stroke="none" /><path d="M 106.38641147887787 120.00534299687104 l 9.109607524570272 28.53571582392403 a50.95449927532516,50.95449927532516 0 0,0 -0.8355551963235357,0.25885713568074076 l -8.618411695375112 -28.687889547411416" fill="#9aff22" stroke="none" /><path d="M 106.0420521117495 120.11202640906438 l 4.22956881943663 14.078859007198101 a35.70045997045377,35.70045997045377 0 0,0 -0.5884455605782767,0.17128792658684522 l -3.987263246476747 -14.149390628087465" fill="#ffa60f" stroke="none" /><path d="M 105.3480935250658 120.30758222061773 l 8.797627432126642 33.406024331273365 a55.54505333699942,55.54505333699942 0 0,0 -0.9241498868314562,0.2349152873725317 l -8.222872252069788 -33.552124850481164" fill="#67ff28" stroke="none" /><path d="M 104.9986988182912 120.39639698878246 l 6.999725158676688 28.56126730946824 a50.4064983059852,50.4064983059852 0 0,0 -0.842191404673117,0.1987548783345521 l -6.508401600263692 -28.677218331449016" fill="#a0ff22" stroke="none" /><path d="M 104.64783097203109 120.47920084513623 l 3.25390838699672 14.337320739497299 a35.701927961263685,35.701927961263685 0 0,0 -0.5988362298625344,0.1305135691143442 l -3.00730974051505 -14.391065766745362" fill="#ffa60f" stroke="none" /><path d="M 103.94208987418118 120.62667999033965 l 5.818449258577743 30.4445851635082 a51.9955983577144,51.9955983577144 0 0,0 -0.8781444164624281,0.16002716520907012 l -5.294970108564258 -30.539980502648636" fill="#8eff24" stroke="none" /><path d="M 103.58742460773223 120.69131181640829 l 5.294017157890425 30.534484136398753 a51.990019992636746,51.990019992636746 0 0,0 -0.8806676061000684,0.1449135194504338 l -4.769072048737285 -30.62086365434486" fill="#8eff24" stroke="none" /><path d="M 103.2317021107853 120.74984581791261 l 2.2626914915775442 14.528102521283367 a35.7032491529926,35.7032491529926 0 0,0 -0.6064025057669584,0.08912028573059322 l -2.0129638802029 -14.564803880312843" fill="#ffa60f" stroke="none" /><path d="M 102.51750503828377 120.84855314841334 l 3.580246034049144 29.649573125047358 a50.864951835920564,50.864951835920564 0 0,0 -0.8677660052197548,0.09723499087155178 l -3.07074412722859 -29.70666387642588" fill="#9bff22" stroke="none" /><path d="M 102.15924093988457 120.88869738790638 l 3.1750438599233246 30.71566917715731 a51.87933348556941,51.87933348556941 0 0,0 -0.8866435923459647,0.08396607003503063 l -2.647300704192345 -30.765647002697524" fill="#90ff24" stroke="none" /><path d="M 101.80034050326958 120.92268563240118 l 1.2609951398280035 14.654674961037902 a35.708827518070265,35.708827518070265 0 0,0 -0.6111837985817961,0.04730949140672338 l -1.0092423464709717 -14.67416221943968" fill="#ffa60f" stroke="none" /><path d="M 101.08105385017728 120.97215588758144 l 1.59630249690101 30.96784198423922 a52.008957074084606,52.008957074084606 0 0,0 -0.8920136455286918,0.03830690403749049 l -1.0644630907714885 -30.990681456702543" fill="#8eff24" stroke="none" /><path d="M 100.72087961077811 120.9876233191556 l 1.0151740866772805 29.55568588152048 a50.573115262910164,50.573115262910164 0 0,0 -0.8678989241294512,0.02235399763614668 l -0.5076618484770854 -29.56875759650667" fill="#9fff22" stroke="none" /><line stroke="#e1ed5e" stroke-width="0.3" x1="101.45913802915013" x2="101.54496967792366" y1="184.9874750549273" y2="189.98673829345242" /><path d="M 101.47630435890484 185.9873277026323 a86.0,86.0 0 0,1 -42.54439059252881,-10.42667462771756" fill="none" id="id91" stroke="none" /><text fill="#e1ed5e" style="font-size:6.75px; font-family:Arial;" text-anchor="middle"><textPath startOffset="22.145653131862474" xlink:href="#id91">July</textPath></text><path d="M 100.36049292484886 120.99690560180557 l 0.2524083834301889 14.701522927835782 a35.70368955023558,35.70368955023558 0 0,0 -0.6129013082790393,0.00526102059423398 l -1.800682634335239e-15 -14.70368955023558" fill="#ffa60f" stroke="none" /><path d="M 99.63950707515114 120.99690560180557 l -0.5168346536894928 30.103027513813856 a51.10746391771795,51.10746391771795 0 0,0 -0.877069026074067,-0.02259018693364334 l 1.0335169938343036 -30.089719609530164" fill="#98ff23" stroke="none" /><path d="M 99.27912038922189 120.98762331915562 l -1.0251215863278167 29.845296480171886 a50.862896648786695,50.862896648786695 0 0,0 -0.8723573863864236,-0.0374627796942505 l 1.5373047333150789 -29.823301132051807" fill="#9bff22" stroke="none" /><path d="M 98.91894614982273 120.97215588758144 l -1.0283687289015186 19.95007860977521 a40.9765657403567,40.9765657403567 0 0,0 -0.7021737434230221,-0.04224102875310564 l 1.3706868244569872 -19.929485603197413" fill="#ffeb16" stroke="none" /><path d="M 98.19965949673042 120.92268563240118 l -2.5892579525641914 30.091102246663848 a51.202296124038234,51.202296124038234 0 0,0 -0.8750726873622411,-0.08287029330284745 l 3.105430203311448 -30.042220197855816" fill="#97ff23" stroke="none" /><path d="M 97.84075906011543 120.88869738790638 l -3.0804797752152964 29.800847439229315 a50.959637243159854,50.959637243159854 0 0,0 -0.8693813567462378,-0.09741599437939508 l 3.5915970335623335 -29.74357568434295" fill="#9aff23" stroke="none" /><path d="M 97.48249496171623 120.84855314841334 l -2.50888766449314 20.77718893156309 a41.92811738334133,41.92811738334133 0 0,0 -0.7138205643290788,-0.09241836323796458 l 2.8651860507130134 -20.73105897212473" fill="#fff717" stroke="none" /><path d="M 96.76829788921471 120.74984581791261 l -5.473978873003618 35.146871132171164 a56.5705917168036,56.5705917168036 0 0,0 -0.9582586732984313,-0.1576811000310625 l 6.0765150493551126 -35.047724033644435" fill="#5cff2a" stroke="none" /><path d="M 96.41257539226777 120.69131181640829 l -5.0213227992778755 28.961655541627426 a50.39372678593897,50.39372678593897 0 0,0 -0.8510906922804892,-0.15509707545614632 l 5.517748225109422 -28.871190292239913" fill="#a1ff22" stroke="none" /><path d="M 96.05791012581884 120.62667999033965 l -2.7634347816381983 14.45945849392008 a35.721158640873526,35.721158640873526 0 0,0 -0.6013121485930941,-0.12027927044751457 l 3.0112434157622507 -14.409889826809703" fill="#ffa60f" stroke="none" /><path d="M 95.35216902796893 120.47920084513623 l -7.808567870083433 34.405990813051254 a56.28095713000806,56.28095713000806 0 0,0 -0.940341819698268,-0.2219181090307627 l 8.398041843521588 -34.266876560374264" fill="#5fff29" stroke="none" /><path d="M 95.00130118170881 120.39639698878247 l -7.060281492605656 28.808357816798136 a50.66090111334287,50.66090111334287 0 0,0 -0.8428881280683104,-0.21425886606658157 l 7.553774913899344 -28.68291371889629" fill="#9eff22" stroke="none" /><path d="M 94.6519064749342 120.30758222061772 l -5.374761838702374 20.408846151272922 a42.10471667777369,42.10471667777369 0 0,0 -0.6973715985192772,-0.19007173025017848 l 5.724314838156347 -20.313573926878597" fill="#fffa17" stroke="none" /><path d="M 93.95794788825049 120.11202640906438 l -10.141968780003824 33.75931557205342 a56.249835724837936,56.249835724837936 0 0,0 -0.9223884681561793,-0.2857583052591031 l 10.719997881031636 -33.58024067898767" fill="#60ff29" stroke="none" /><path d="M 93.61358852112213 120.00534299687104 l -8.969158199292282 28.095760312889716 a50.49266936652701,50.49266936652701 0 0,0 -0.8234567225478959,-0.2706865806302849 l 9.450137659487922 -27.937652810857408" fill="#9fff22" stroke="none" /><path d="M 93.27111125876986 119.89276391827306 l -6.745508778758743 19.941898106039265 a42.051869008616876,42.051869008616876 0 0,0 -0.6818294605787084,-0.23717567994289984 l 7.086844011382473 -19.823163993527775" fill="#fff917" stroke="none" /><path d="M 92.59220618246901 119.65005319985036 l -12.34434949555518 32.744853633905905 a55.99440532391334,55.99440532391334 0 0,0 -0.8965177245276057,-0.3467923152415269 l 12.904639482576314 -32.52812143052634" fill="#63ff29" stroke="none" /><path d="M 92.25597844496254 119.51999308798841 l -10.87980912468047 27.42422621154089 a50.50353249852036,50.50353249852036 0 0,0 -0.8031156843811648,-0.32662015719337945 l 11.348979270252077 -27.23341879776822" fill="#9fff22" stroke="none" /><path d="M 91.92203290615298 119.3841803445677 l -8.073524906507746 19.373520712074956 a41.98845180562869,41.98845180562869 0 0,0 -0.6629475174592024,-0.2829728739071826 l 8.404907499137378 -19.23207318850837" fill="#fff817" stroke="none" /><path d="M 91.26138138417905 119.09545874513695 l -12.227484985863597 26.719261403812233 a50.38418484567455,50.38418484567455 0 0,0 -0.7833811902141802,-0.36666195225538817 l 12.684354889949269 -26.505423219986316" fill="#a1ff22" stroke="none" /><path d="M 90.93487009805054 118.94263497670748 l -12.686762918714487 26.510455073959328 a50.38976321075222,50.38976321075222 0 0,0 -0.7770575408530164,-0.38009778208115563 l 13.139980708829574 -26.28876354178095" fill="#a1ff22" stroke="none" /><path d="M 90.6110303473126 118.78422872680471 l -9.862730220657571 19.732067222368006 a43.05964469962112,43.05964469962112 0 0,0 -0.6583466550349224,-0.336156492966466 l 10.200004097406076 -19.559852777728704" fill="#f8ff18" stroke="none" /><path d="M 89.97174638481275 118.45085714620012 l -14.076517419108214 25.899206579959788 a50.47740226210392,50.47740226210392 0 0,0 -0.757775925233836,-0.4203255319086816 l 14.519037532498153 -25.65374813261796" fill="#a0ff22" stroke="none" /><line stroke="#e1ed5e" stroke-width="0.3" x1="58.13341422392154" x2="55.67067388415222" y1="173.97424548756322" y2="178.32567169271397" /><path d="M 57.64086615596768 174.84453072859336 a86.0,86.0 0 0,1 -31.369924170532247,-30.572349798747897" fill="none" id="id92" stroke="none" /><text fill="#e1ed5e" style="font-size:6.75px; font-family:Arial;" text-anchor="middle"><textPath startOffset="22.145653131862474" xlink:href="#id92">August</textPath></text><path d="M 89.65649057296885 118.27599006163327 l -14.472978862928779 25.572366876745352 a50.38389124751257,50.38389124751257 0 0,0 -0.7490585879036146,-0.43246917736495616 l 14.909829918692791 -25.320150802104223" fill="#a1ff22" stroke="none" /><path d="M 89.34428304082925 118.09573695890944 l -10.680620803698984 18.13802913141883 a42.04907982607804,42.04907982607804 0 0,0 -0.6188568186258399,-0.3716057383841729 l 10.99041037888225 -17.952009392498738" fill="#fff917" stroke="none" /><path d="M 88.72937992617639 117.7192867562869 l -15.85972407034723 24.93412046873566 a50.550655003518514,50.550655003518514 0 0,0 -0.7282047351134969,-0.472013511380559 l 16.285414437717737 -24.658193115651205" fill="#9fff22" stroke="none" /><path d="M 88.4268655584334 117.5232005979908 l -16.351348927368708 24.758026336660926 a50.670296254526306,50.670296254526306 0 0,0 -0.7216987472834862,-0.4855911255640787 l 16.7739439627492 -24.473685537039724" fill="#9dff22" stroke="none" /><path d="M 88.1277618465304 117.32195027204791 l -11.901147060842579 17.364129231858268 a42.05113501321192,42.05113501321192 0 0,0 -0.5919296157914377,-0.41321284339308256 l 12.197471767807782 -17.157271572660058" fill="#fff917" stroke="none" /><path d="M 87.54013794807813 116.9041958592261 l -18.405586353025615 24.970712783088448 a52.02099459872587,52.02099459872587 0 0,0 -0.7142903955443701,-0.5360168292364634 l 18.83152973748075 -24.65107692658797" fill="#8eff24" stroke="none" /><path d="M 87.2517909369889 116.68781488649013 l -17.883162649961257 23.409633966032462 a50.45875877881806,50.45875877881806 0 0,0 -0.6838124264048329,-0.5317366787748813 l 18.282385021001318 -23.099196235636786" fill="#a0ff22" stroke="none" /><path d="M 86.96720088162412 116.46651593811092 l -15.500770165757428 19.584716734224234 a45.97668923799626,45.97668923799626 0 0,0 -0.6146628611991892,-0.4951288912810949 l 15.834683797311879 -19.31573954914973" fill="#d5ff1c" stroke="none" /><path d="M 86.40962598614128 116.0094264158162 l -19.026263945652886 22.41289108711891 a50.39959874917862,50.39959874917862 0 0,0 -0.6547640357378044,-0.5655695793651231 l 19.40820746115355 -22.082977375289065" fill="#a0ff22" stroke="none" /><path d="M 86.13680546590413 115.77377054828092 l -19.546497638198982 22.240326211189103 a50.609081037752986,50.609081037752986 0 0,0 -0.6476395254844951,-0.5791232572317236 l 19.925402190506848 -21.901507424073998" fill="#9eff22" stroke="none" /><path d="M 85.86807049272751 115.53346607816431 l -15.026984419302961 16.517288217028273 a43.33004860680681,43.33004860680681 0 0,0 -0.5458971842323711,-0.5052742839537381 l 15.3083113748493 -16.256896186942157" fill="#f5ff19" stroke="none" /><path d="M 85.34317274990678 115.03919595460226 l -20.627575740916622 21.165709900420108 a50.55476537778627,50.55476537778627 0 0,0 -0.6163061148879673,-0.6110385729086778 l 20.987873775934553 -20.808491317282773" fill="#9fff22" stroke="none" /><path d="M 85.08716467003676 114.78537596483092 l -20.907707703983846 20.72901042131704 a50.44187688450408,50.44187688450408 0 0,0 -0.6043734285174815,-0.6201403800519949 l 21.260467933652137 -20.367047349197307" fill="#a0ff22" stroke="none" /><path d="M 84.83555147118756 114.52719865689866 l -15.232115725818382 14.592022300936433 a42.093706746699354,42.093706746699354 0 0,0 -0.495391145660175,-0.526088229441118 l 15.480362705214809 -14.328392611550823" fill="#fff917" stroke="none" /><path d="M 84.3458050057657 113.99807769240083 l -22.53297564426925 20.149125766328464 a51.227839164130685,51.227839164130685 0 0,0 -0.5805551875415146,-0.6605652323763818 l 22.875541895769356 -19.759348256140782" fill="#97ff23" stroke="none" /><path d="M 84.1078160697243 113.72728997021213 l -23.44889409657294 20.254596231499036 a51.985469221126024,51.985469221126024 0 0,0 -0.5775472660915425,-0.6803492272338917 l 23.79313592617159 -19.84908022181559" fill="#8eff24" stroke="none" /><path d="M 83.8745106332314 113.45245675266167 l -16.919217637903284 14.114613106366434 a43.03366126228568,43.03366126228568 0 0,0 -0.4683561981572738,-0.5713184080992906 l 17.15902065529919 -13.822092416568648" fill="#f9ff18" stroke="none" /><path d="M 83.4222238831116 112.89097897827486 l -23.36988287572456 18.172562275636306 a50.6039430699183,50.6039430699183 0 0,0 -0.5273606132822591,-0.6903319712895802 l 23.678395466361113 -17.768709391105855" fill="#9eff22" stroke="none" /><path d="M 83.20337586046588 112.60449989151573 l -23.50074556359955 17.635397592170285 a50.38183606037869,50.38183606037869 0 0,0 -0.5131701420463594,-0.6962138548653114 l 23.80001772522974 -17.229377428036095" fill="#a1ff22" stroke="none" /><path d="M 82.98947788004972 112.3143062007846 l -17.846981065833408 12.919837971729471 a43.032633668718745,43.032633668718745 0 0,0 -0.42804130685174346,-0.6020937031684245 l 18.06613747121511 -12.611567041851544" fill="#f9ff18" stroke="none" /><path d="M 82.576782715395 111.72311816256416 l -29.257427239776202 19.68570276441316 a56.263634838451104,56.263634838451104 0 0,0 -0.5322956771375534,-0.8059634989137859 l 29.59104735583448 -19.180559387160315" fill="#60ff29" stroke="none" /><path d="M 82.37810715431573 111.42229804090323 l -24.768861000199795 16.05487645144062 a50.517038013971536,50.517038013971536 0 0,0 -0.4654358631983753,-0.7317424837898973 l 25.04081455502406 -15.62732029297205" fill="#9fff22" stroke="none" /><path d="M 82.18462484594161 111.11811171558189 l -17.832976408294165 11.129096200008158 a42.02074760344675,42.02074760344675 0 0,0 -0.3766500407858313,-0.6152295352741831 l 18.0213944135354 -10.821329548609418" fill="#fff817" stroke="none" /><line stroke="#e1ed5e" stroke-width="0.3" x1="26.387840678322732" x2="22.057713659400548" y1="142.50000000000003" y2="145.00000000000006" /><path d="M 25.521815274538298 143.00000000000003 a86.0,86.0 0 0,1 -11.493303480769221,-40.785679425670985" fill="none" id="id93" stroke="none" /><text fill="#e1ed5e" style="font-size:6.75px; font-family:Arial;" text-anchor="middle"><textPath startOffset="21.40746469413373" xlink:href="#id93">September</textPath></text><path d="M 81.81346652052679 110.50000000000001 l -25.727394622777858 14.853718211008543 a50.70743642201706,50.70743642201706 0 0,0 -0.42875946923095093,-0.7575768991922417 l 25.978587457030187 -14.40988454171718" fill="#9dff22" stroke="none" /><path d="M 81.63589988554817 110.18625677009913 l -25.831086878934208 14.328068457462592 a50.53876427795824,50.53876427795824 0 0,0 -0.4143087283402461,-0.7622813955814512 l 26.073240956889787 -13.882532228406555" fill="#9fff22" stroke="none" /><path d="M 81.4637452351635 109.86951160357371 l -18.55366119946018 9.878779549589499 a42.01972000987981,42.01972000987981 0 0,0 -0.33354039378946815,-0.6396076840407132 l 18.720509662224597 -9.558825622444282" fill="#fff817" stroke="none" /><path d="M 81.1358732173502 109.22738970284198 l -26.681857177223876 13.051433390294038 a50.70288565050634,50.70288565050634 0 0,0 -0.37573431850026323,-0.7851402153698697 l 26.90197075368405 -12.591480672859063" fill="#9dff22" stroke="none" /><path d="M 80.9802524753101 108.90220220490708 l -26.628346770867854 12.463410832816246 a50.400773141826555,50.400773141826555 0 0,0 -0.36004280736142985,-0.7867585114661303 l 26.83837404308434 -12.004463339135427" fill="#a0ff22" stroke="none" /><path d="M 80.83023694016515 108.57439118712176 l -19.18629033494597 8.58178362706052 a42.01810521998891,42.01810521998891 0 0,0 -0.2888567016958272,-0.660960662395796 l 19.330780918658764 -8.251160894888875" fill="#fff817" stroke="none" /><path d="M 80.5471966667186 107.91128576633889 l -27.272444261411295 11.091465656748543 a50.441583286342095,50.441583286342095 0 0,0 -0.3193224247091862,-0.8049011071138314 l 27.458825361086603 -10.621663532421145" fill="#a0ff22" stroke="none" /><path d="M 80.41425534168474 107.57618678355246 l -27.468272345983234 10.625317829123512 a50.45171242293048,50.45171242293048 0 0,0 -0.30551951281975215,-0.8104268056560744 l 27.646622542617422 -10.152222743273294" fill="#a0ff22" stroke="none" /><path d="M 80.28708602549918 107.23885506374661 l -20.705684025929173 7.603413977929159 a43.05758951248724,43.05758951248724 0 0,0 -0.2488315115025307,-0.6960260239042314 l 20.833155707475647 -7.246852997644006" fill="#f8ff18" stroke="none" /><path d="M 80.05021161711548 106.5578916946017 l -28.00713991918815 9.206503183921749 a50.48151263637169,50.48151263637169 0 0,0 -0.2635502374229863,-0.8255673650204453 l 28.161054872388387 -8.724366785209911" fill="#a0ff22" stroke="none" /><path d="M 79.94057633289273 106.21446072829308 l -28.2736547810795 8.759250524752126 a50.59939229840758,50.59939229840758 0 0,0 -0.2499216749890873,-0.8319079734191092 l 28.419852776072215 -8.272604947742293" fill="#9eff22" stroke="none" /><path d="M 79.83685265289637 105.86919833188381 l -19.757542765463437 5.7511327495128555 a41.57756117793447,41.57756117793447 0 0,0 -0.19359602989714475,-0.6870040129610329 l 19.853357287435156 -5.411120812648827" fill="#fff316" stroke="none" /><path d="M 79.64726062577567 105.17358676015961 l -31.326272800894735 7.963016045550558 a53.322515250793415,53.322515250793415 0 0,0 -0.21789223457348778,-0.8890746729671949 l 31.458352561984515 -7.424085547975263" fill="#80ff26" stroke="none" /><path d="M 79.56144815229197 104.8234425847677 l -28.734882357623803 6.781353995371032 a50.524231168940105,50.524231168940105 0 0,0 -0.1919659464490966,-0.8458373801489065 l 28.84705916563057 -6.2870822812831" fill="#9fff22" stroke="none" /><path d="M 79.48165901384964 104.47187691870673 l -20.457286732380624 4.458570428264542 a41.93751252452476,41.93751252452476 0 0,0 -0.14726515123286876,-0.7047170592341381 l 20.53080959443786 -4.106736917744994" fill="#fff717" stroke="none" /><path d="M 79.34024301695615 103.76489593502545 l -28.915321891590786 5.269334868699101 a50.39152479972411,50.39152479972411 0 0,0 -0.1477795834112195,-0.8523533662198447 l 29.001516292494237 -4.772188469558664" fill="#a1ff22" stroke="none" /><path d="M 79.2786578344484 103.40968896794605 l -29.05482151283446 4.780959823280632 a50.445546861528854,50.445546861528854 0 0,0 -0.1332687461022249,-0.8556809505241634 l 29.132611751074954 -4.281490690825018" fill="#a0ff22" stroke="none" /><path d="M 79.22317932658666 103.0534771498775 l -20.590237021529102 3.0260557784114446 a41.81141211395337,41.81141211395337 0 0,0 -0.09826773611397197,-0.7110163865027296 l 20.63914927419829 -2.6721510837086293" fill="#fff617" stroke="none" /><path d="M 79.13060592940153 102.33845913500099 l -29.50662860250377 3.3062792798481806 a50.691288523108035,50.691288523108035 0 0,0 -0.08947641845586639,-0.8656031820970325 l 29.559037413441303 -2.7992715754682167" fill="#9dff22" stroke="none" /><path d="M 79.0935383218832 101.97986365728391 l -29.613841866318523 2.804461614135664 a50.74633817847972,50.74633817847972 0 0,0 -0.07468502259295881,-0.8679531712603239 l 29.65762051160922 -2.2956873954996784" fill="#9dff22" stroke="none" /><path d="M 79.06263194458094 101.62068470465958 l -20.954541109528517 1.622014007657632 a42.01722442550296,42.01722442550296 0 0,0 -0.04949236643454167,-0.7196081458768993 l 20.979297437128125 -1.2620624376263894" fill="#fff817" stroke="none" /><path d="M 79.01933749520258 100.90099992219065 l -29.400979422666353 1.2626045610377656 a50.42807777089091,50.42807777089091 0 0,0 -0.029717297455336182,-0.8651866909964455 l 29.418321407118537 -0.7577116054772003" fill="#a0ff22" stroke="none" /><path d="M 79.00696218219943 100.54070618675478 l -29.50666515533935 0.7599870270545194 a50.51645081764758,50.51645081764758 0 0,0 -0.014886881489411214,-0.8670862138818455 l 29.515363468427427 -0.2533538972036215" fill="#9fff22" stroke="none" /><line stroke="#e1ed5e" stroke-width="0.3" x1="15.003131293944662" x2="10.003315487706104" y1="100.72959589197737" y2="100.7725132973878" /><path d="M 14.003168132696942 100.73817937305945 a86.0,86.0 0 0,1 10.791469493833604,-42.45332614584628" fill="none" id="id94" stroke="none" /><text fill="#e1ed5e" style="font-size:6.75px; font-family:Arial;" text-anchor="middle"><textPath startOffset="22.145653131862435" xlink:href="#id94">October</textPath></text><path d="M 79.00077361379809 100.18025310272382 l -20.91207987560715 0.17950505474160713 a41.912850278918256,41.912850278918256 0 0,0 0.0,-0.7195163149308417 l 20.91207987560715 0.17950505474159945" fill="#fff717" stroke="none" /><path d="M 79.00696218219943 99.45929381324524 l -29.583562371398656 -0.7619676265669921 a50.593373536086936,50.593373536086936 0 0,0 0.029814706352111343,-0.8680226447437439 l 29.566122978049695 1.2696965358748744" fill="#9eff22" stroke="none" /><path d="M 79.01933749520258 99.09900007780938 l -38.16209436438883 -1.6388445333927517 a59.19726767297824,59.19726767297824 0 0,0 0.0523146284059251,-1.0148898151095762 l 38.12833814652633 2.29370614187904" fill="#41ff2d" stroke="none" /><path d="M 79.03789590574601 98.7389718711861 l -21.038643776878335 -1.2656325660557923 a42.07667805330438,42.07667805330438 0 0,0 0.0495623972557927,-0.7206263786482056 l 21.013817418457478 1.6266023688583229" fill="#fff917" stroke="none" /><path d="M 79.0935383218832 98.0201363427161 l -30.874051992079202 -2.9238048232807166 a52.0121866538664,52.0121866538664 0 0,0 0.09180796766933177,-0.8881588057263586 l 30.819311631928205 3.453368151289988" fill="#8eff24" stroke="none" /><path d="M 79.13060592940154 97.66154086499901 l -29.377081755412316 -3.2917632854227334 a50.5609309391879,50.5609309391879 0 0,0 0.10405418818860428,-0.8617179468463243 l 29.316245480964042 3.7955749091924944" fill="#9fff22" stroke="none" /><path d="M 79.17382384314186 97.30363454192245 l -20.773232117163815 -2.689510792162525 a41.946614067546214,41.946614067546214 0 0,0 0.09858549600837437,-0.7133155388066809 l 20.724002104600235 3.045714639169273" fill="#fff817" stroke="none" /><path d="M 79.2786578344484 96.59031103205396 l -29.20604610532139 -4.805843772426639 a50.59880510208361,50.59880510208361 0 0,0 0.1483874593755564,-0.8558594332453886 l 29.119243828453598 5.30649623859262" fill="#9eff22" stroke="none" /><path d="M 79.34024301695615 96.23510406497455 l -29.04934424103037 -5.2937582052863394 a50.527754346883896,50.527754346883896 0 0,0 0.16282859425285137,-0.8519880099456371 l 28.95418935449536 5.791648780265292" fill="#9fff22" stroke="none" /><path d="M 79.407916724674 95.88100663000787 l -27.866089697878063 -5.573998374933662 a49.4181000936718,49.4181000936718 0 0,0 0.17353351560085387,-0.8304206919898933 l 27.766298471452842 6.051535518208965" fill="#acff21" stroke="none" /><path d="M 79.48165901384962 95.52812308129327 l -10.22412525578997 -2.22830051299931 a31.464132091211162,31.464132091211162 0 0,0 0.11954742816160312,-0.5267480264608418 l 10.184366966070705 2.40348287339916" fill="#ff6b09" stroke="none" /><path d="M 79.56144815229197 95.17655741523228 l -31.564508178490648 -7.449137984423969 a53.431586967969835,53.431586967969835 0 0,0 0.21833793523242945,-0.8908932837514021 l 31.43198271674192 7.989887092783489" fill="#7eff26" stroke="none" /><path d="M 79.64726062577567 94.8264132398404 l -20.03651069819515 -5.093202667315599 a41.67371457598367,41.67371457598367 0 0,0 0.1821945415246064,-0.6918223503043791 l 19.94612667586582 5.4364055219927625" fill="#fff417" stroke="none" /><path d="M 79.83685265289637 94.1308016681162 l -59.52704145630942 -17.327454211533876 a82.99765587499243,82.99765587499243 0 0,0 0.40994391897269433,-1.3645699792263026 l 59.220821217333096 18.346761794350904" fill="#4cdbff" stroke="none" /><path d="M 80.05021161711548 93.44210830539832 l -11.582933840570885 -3.8075404196953015 a33.192691269881955,33.192691269881955 0 0,0 0.1825828447104312,-0.5397737375409906 l 11.515865574288089 4.0058158317104535" fill="#ff830c" stroke="none" /><path d="M 80.16572619554312 93.10060997987247 l -16.672680632675664 -5.799623797671262 a38.6525894891858,38.6525894891858 0 0,0 0.2233748422747074,-0.6248191893779426 l 16.570665620357012 6.084977943430126" fill="#ffcd13" stroke="none" /><path d="M 80.41425534168474 92.42381321644754 l -27.436097832204833 -10.612872036006738 a50.417214638897555,50.417214638897555 0 0,0 0.3191681580291427,-0.8045122543056682 l 27.24987099920956 11.08228530752599" fill="#a0ff22" stroke="none" /><path d="M 80.5471966667186 92.08871423366112 l -19.071414923310645 -7.756178420237962 a41.58827751084682,41.58827751084682 0 0,0 0.2746294886190117,-0.6590107973307057 l 18.935459590155155 8.082421727009931" fill="#fff316" stroke="none" /><path d="M 80.83023694016515 91.42560881287825 l -13.434932601208851 -6.009274467076912 a35.717635462929735,35.717635462929735 0 0,0 0.25515239038494114,-0.5575540206661116 l 13.329795745968864 6.239017469957695" fill="#ffa60f" stroke="none" /><path d="M 80.9802524753101 91.09779779509293 l -26.629410420946833 -12.463908674760038 a50.40194753447449,50.40194753447449 0 0,0 0.37350421312289794,-0.780480152846786 l 26.41152694986403 12.919201329671912" fill="#a0ff22" stroke="none" /><path d="M 81.29705330413844 90.45014215332179 l -13.215369528362645 -6.74786184441791 a35.83845110658545,35.83845110658545 0 0,0 0.2844752676144729,-0.5455188351207719 l 13.097586191773233 6.973726922643168" fill="#ffa80f" stroke="none" /><line stroke="#e1ed5e" stroke-width="0.3" x1="26.387840678322718" x2="22.05771365940052" y1="57.49999999999999" y2="54.99999999999999" /><path d="M 25.521815274538284 56.99999999999999 a86.0,86.0 0 0,1 29.574782752854787,-30.34633250058573" fill="none" id="id95" stroke="none" /><text fill="#e1ed5e" style="font-size:6.75px; font-family:Arial;" text-anchor="middle"><textPath startOffset="21.40746469413373" xlink:href="#id95">November</textPath></text><path d="M 81.81346652052679 89.5 l -54.55960043841963 -31.500000000000007 a84.0,84.0 0 0,0 0.7317051594808825,-1.2425953268257088 l 54.01082156880897 32.43194649511929" fill="#4dd2ff" stroke="none" /><path d="M 82.37810715431573 88.57770195909679 l -5.082352338956106 -3.2943193828724016 a27.05663648353287,27.05663648353287 0 0,0 0.2559758302039889,-0.38758003231962657 l 5.025052069831388 3.3810792935310894" fill="#ff2c04" stroke="none" /><path d="M 82.576782715395 88.27688183743585 l -10.153143406012997 -6.831488003958958 a33.237464989584254,33.237464989584254 0 0,0 0.3225779279580464,-0.47065083724896034 l 10.034375741239637 7.004773576277953" fill="#ff840c" stroke="none" /><path d="M 82.78059297857968 87.97951657250589 l -17.116168740260193 -11.948415089355384 a41.874095321536586,41.874095321536586 0 0,0 0.4165174416850342,-0.5858839436382752 l 16.908536200045187 12.240476259703179" fill="#fff717" stroke="none" /><path d="M 83.2033758604659 87.39550010848427 l -23.5090820758904 -17.64165346640984 a50.39225879512906,50.39225879512906 0 0,0 0.5251545806649542,-0.6874442037789328 l 23.20277551787114 18.042618583429658" fill="#a1ff22" stroke="none" /><path d="M 83.42222388311158 87.10902102172516 l -23.273813527832417 -18.097858169645107 a50.48224663177665,50.48224663177665 0 0,0 0.53783682038859,-0.6795392528182587 l 22.959710276802266 18.49471736637805" fill="#a0ff22" stroke="none" /><path d="M 83.64595745247003 86.82634096563983 l -16.04895569225633 -12.927902659717056 a41.60824218586161,41.60824218586161 0 0,0 0.4528426713080045,-0.5523944278073681 l 15.824666201709697 13.201499369222917" fill="#fff316" stroke="none" /><path d="M 84.10781606972428 86.27271002978789 l -27.989830195748677 -24.17694868117318 a57.98588165663928,57.98588165663928 0 0,0 0.6571427752803118,-0.747707848233565 l 27.570676356509775 24.653868807218043" fill="#4eff2c" stroke="none" /><path d="M 84.34580500576568 86.00192230759919 l -22.16791852427547 -19.822689438576102 a50.73811742994422,50.73811742994422 0 0,0 0.5861516163552317,-0.644283305024247 l 21.824369207078373 20.200310319158007" fill="#9dff22" stroke="none" /><path d="M 84.58840730492382 85.73525988315684 l -15.744417997407641 -14.57279824788791 a42.45351129420866,42.45351129420866 0 0,0 0.4996256025607131,-0.5305850759289149 l 15.491936561110656 14.840924783761336" fill="#fffe18" stroke="none" /><path d="M 85.08716467003674 85.21462403516908 l -27.18818256840883 -26.955806335948957 a59.2859343178969,59.2859343178969 0 0,0 0.7227465813345294,-0.7165692972453396 l 26.721444066944326 27.41855564342297" fill="#40ff2d" stroke="none" /><path d="M 85.34317274990677 84.96080404539775 l -20.813741128350323 -21.356731988202526 a50.82149930794719,50.82149930794719 0 0,0 0.6300111704493451,-0.6035364498612369 l 20.444057472035677 21.710880568369333" fill="#9cff22" stroke="none" /><path d="M 85.60350026404147 84.71141617570332 l -14.105690159506437 -14.979754131799206 a41.57579958896257,41.57579958896257 0 0,0 0.5237961335741464,-0.48481788141401055 l 13.846464254618338 15.219689759345583" fill="#fff316" stroke="none" /><path d="M 86.13680546590413 84.22622945171909 l -19.472264789133266 -22.155862855688436 a50.49663294171377,50.49663294171377 0 0,0 0.6560246509229919,-0.5666584687376489 l 19.089060658447426 22.486865456890797" fill="#9fff22" stroke="none" /><path d="M 86.40962598614128 83.9905735841838 l -20.971156993050688 -24.703970206589517 a53.404869535229444,53.404869535229444 0 0,0 0.7039923127660129,-0.5872954256636552 l 20.543990346122765 25.060327816165056" fill="#7fff26" stroke="none" /><path d="M 86.68645165197937 83.75963576809568 l -12.429531566962845 -15.162007498131798 a40.60560446269206,40.60560446269206 0 0,0 0.5428567701028761,-0.4372869871803897 l 12.167424026504724 15.373142779105587" fill="#ffe615" stroke="none" /><path d="M 87.25179093698888 83.31218511350988 l -25.284828238018687 -33.09865181745692 a62.651450048700006,62.651450048700006 0 0,0 0.8602551600928545,-0.6455515097551698 l 24.712920089015082 33.52782235447609" fill="#32ff45" stroke="none" /><path d="M 87.54013794807813 83.09580414077388 l -17.460901664762943 -23.689066571512537 a50.428811766295865,50.428811766295865 0 0,0 0.7012462219064324,-0.5076481860936726 l 17.051674432482542 23.98531552897929" fill="#a0ff22" stroke="none" /><path d="M 87.83215693770416 82.88440491214696 l -11.965091987543703 -16.83040031000143 a41.65007992394409,41.65007992394409 0 0,0 0.586284194215375,-0.40927190068746083 l 11.674412702154562 17.033317026494018" fill="#fff417" stroke="none" /><path d="M 88.4268655584334 82.4767994020092 l -17.823831928764132 -26.987553276044768 a53.342186327646225,53.342186327646225 0 0,0 0.7684179890921815,-0.4980792567667886 l 17.357928307414927 27.289546374515464" fill="#7fff26" stroke="none" /><path d="M 88.72937992617638 82.28071324371311 l -17.278196361268922 -27.164194512049693 a53.193625657683185,53.193625657683185 0 0,0 0.7746913736120086,-0.48346471306015837 l 16.809340858867213 27.456795021951386" fill="#81ff25" stroke="none" /><path d="M 89.03521579738668 82.08984904055464 l -13.05402018054242 -21.322760917213277 a46.001351483602775,46.001351483602775 0 0,0 0.6770243284604616,-0.40653365675155734 l 12.686063095524524 21.54370857450076" fill="#d4ff1c" stroke="none" /><line stroke="#e1ed5e" stroke-width="0.3" x1="56.869717070023135" x2="54.33264160355391" y1="26.7553504044142" y2="22.446841604673864" /><path d="M 56.362301976729285 25.89364864446614 a86.0,86.0 0 0,1 42.16139366436587,-11.88097634709845" fill="none" id="id96" stroke="none" /><text fill="#e1ed5e" style="font-size:6.75px; font-family:Arial;" text-anchor="middle"><textPath startOffset="22.145653131862474" xlink:href="#id96">December</textPath></text><path d="M 89.65649057296885 81.72400993836675 l -14.762852028240637 -26.084544984741147 a50.97240876320609,50.97240876320609 0 0,0 0.7652070526801679,-0.42444745303675274 l 14.312900787404367 26.334125353211046" fill="#9aff23" stroke="none" /><path d="M 89.97174638481275 81.54914285379989 l -14.052893102644468 -25.855740498528693 a50.427930971809914,50.427930971809914 0 0,0 0.764130077713007,-0.40685622658438114 l 13.6069742091449 26.09316719283565" fill="#a0ff22" stroke="none" /><path d="M 90.28995756902619 81.37971332152246 l -9.695539294137841 -18.592475001284278 a41.96863392969489,41.96863392969489 0 0,0 0.6416659950806073,-0.3276392291393896 l 9.374946077343651 18.7561721820965" fill="#fff817" stroke="none" /><path d="M 90.93487009805054 81.0573650232925 l -12.688854101589529 -26.51482484188325 a50.394607580424925,50.394607580424925 0 0,0 0.7835432445249744,-0.36673780185543914 l 12.231822143193032 26.728738875309233" fill="#a1ff22" stroke="none" /><path d="M 91.26138138417902 80.90454125486306 l -12.254240970515417 -26.7777280589628 a50.44848284314868,50.44848284314868 0 0,0 0.7905675976165951,-0.3536108308000235 l 11.792759970043202 26.98414264067267" fill="#a0ff22" stroke="none" /><path d="M 91.5904679813234 80.7573450057729 l -8.306322932180786 -19.00649240642822 a41.74226974680654,41.74226974680654 0 0,0 0.6590605967054999,-0.281313778568022 l 7.978827260304855 19.146280834655645" fill="#fff517" stroke="none" /><path d="M 92.25597844496254 80.48000691201159 l -13.091672657812397 -32.99956721123413 a56.501596148737754,56.501596148737754 0 0,0 0.9046382780283052,-0.34993351978495657 l 12.523262117290562 33.219440619157126" fill="#5dff2a" stroke="none" /><path d="M 92.592206182469 80.34994680014964 l -10.431926331066329 -27.67192398055906 a50.57296846382917,50.57296846382917 0 0,0 0.8149733886292148,-0.2992695168623206 l 9.955363790782986 27.846924346430104" fill="#9fff22" stroke="none" /><path d="M 92.93061703081487 80.22567764915836 l -7.026059817318081 -19.65313978455437 a41.87130613899776,41.87130613899776 0 0,0 0.6789018122507292,-0.23615729188111861 l 6.687652233022347 19.770855509004075" fill="#fff717" stroke="none" /><path d="M 93.61358852112211 79.99465700312896 l -8.96679207906353 -28.08834847497337 a50.48488901523449,50.48488901523449 0 0,0 0.8278544967063259,-0.25647143925467575 l 8.483296949485588 28.238136502034685" fill="#a0ff22" stroke="none" /><path d="M 93.95794788825049 79.88797359093562 l -8.4827478742444 -28.236308809133813 a50.482980627181604,50.482980627181604 0 0,0 0.8321037280586353,-0.2422132680282019 l 7.99678413380414 28.377765771464535" fill="#a0ff22" stroke="none" /><path d="M 94.30408787586887 79.78721728523814 l -5.667018335143779 -20.110248850846858 a41.89347280022742,41.89347280022742 0 0,0 0.6938728104455376,-0.18911812000226108 l 5.320964123763564 20.204567464993257" fill="#fff717" stroke="none" /><path d="M 94.6519064749342 79.69241777938228 l -1.205569780147151 -4.577744820333719 a25.733829964721615,25.733829964721615 0 0,0 0.4281554273672327,-0.10883543534797677 l 1.1268090595545401 4.597765487516958" fill="#ff1802" stroke="none" /><path d="M 95.00130118170881 79.60360301121753 l -7.004861789425405 -28.582226515802642 a50.42807777089091,50.42807777089091 0 0,0 0.8425519542147151,-0.19883996704464213 l 6.5131776814707845 28.698262626493516" fill="#a0ff22" stroke="none" /><path d="M 95.35216902796891 79.52079915486377 l -6.552945867848059 -28.873488593394615 a50.60775984602408,50.60775984602408 0 0,0 0.848855001356359,-0.18500399669040202 l 6.056328449872582 28.98172404821873" fill="#9eff22" stroke="none" /><path d="M 95.70440661134978 79.44403061299748 l -5.492161346479702 -26.28198022769339 a47.84969871236234,47.84969871236234 0 0,0 0.8054779362430469,-0.16111814597386753 l 5.0401869247056785 26.37238777033012" fill="#beff1f" stroke="none" /><path d="M 96.41257539226777 79.30868818359171 l -5.110624308475892 -29.476722915729017 a50.91647831334846,50.91647831334846 0 0,0 0.8624827048270658,-0.14192120086613372 l 4.603864100595755 29.56011011509082" fill="#9bff22" stroke="none" /><path d="M 96.76829788921471 79.25015418208739 l -4.590286912460506 -29.472934827644934 a50.82825206567277,50.82825206567277 0 0,0 0.8632934017938003,-0.12687440092268149 l 4.083668405059021 29.5473903018665" fill="#9cff22" stroke="none" /><path d="M 97.12497278360702 79.19773525538626 l -2.836627242480428 -20.524421662308093 a41.71951588925291,41.71951588925291 0 0,0 0.710269151923206,-0.09195856180027563 l 2.483880268666428 20.57009182030876" fill="#fff517" stroke="none" /><path d="M 97.84075906011542 79.11130261209362 l -3.113279097812365 -30.11815113220898 a51.278631646153634,51.278631646153634 0 0,0 0.8763772993725475,-0.08299384141662353 l 2.595802235054802 30.167156729130788" fill="#96ff23" stroke="none" /><path d="M 98.1996594967304 79.07731436759882 l -2.5805993634227944 -29.990476316015283 a51.10129835631632,51.10129835631632 0 0,0 0.8746376684048722,-0.06770248712974831 l 2.065392700242705 30.030356570140086" fill="#98ff23" stroke="none" /><path d="M 98.5590905019552 79.04949213459386 l -1.5157924188685932 -22.0392890996419 a43.091353301115205,43.091353301115205 0 0,0 0.7384127076028975,-0.0444210748488802 l 1.137235359133212 22.062062152315473" fill="#f8ff18" stroke="none" /><path d="M 99.27912038922189 79.0123766808444 l -1.01433756948276 -29.531331596122232 a50.54874661546563,50.54874661546563 0 0,0 0.8674807271726361,-0.022343226365985857 l 0.50724352823938 29.544392539838263" fill="#9fff22" stroke="none" /><path d="M 99.63950707515114 79.00309439819443 l -0.5095266495367557 -29.677372909365825 a50.681746582843616,50.681746582843616 0 0,0 0.8700195743856006,-0.007468071672226619 l 7.269931189156465e-15 29.681746582843616" fill="#9dff22" stroke="none" /></svg>