<?xml version="1.0" encoding="utf-8" ?>
<svg baseProfile="full" height="200mm" version="1.1" viewBox="0,0,200,200" width="200mm" xmlns="http://www.w3.org/2000/svg" xmlns:ev="http://www.w3.org/2001/xml-events" xmlns:xlink="http://www.w3.org/1999/xlink"><defs /><rect fill="#1a1a1a" height="200" width="200" x="0" y="0" /><text alignment-baseline="middle" fill="#e1ed5e" style="dominant-baseline: central; font-size:9.0px; font-family:Arial;" text-anchor="middle" x="100.0" y="100.0">2018</text><line stroke="#e1ed5e" stroke-width="0.3" x1="100.0" x2="100.0" y1="15.0" y2="10.0" /><path d="M 100.0 14.0 a86.0,86.0 0 0,1 42.46469731375804,11.215312516191453" fill="none" id="id61" stroke="none" /><text fill="#e1ed5e" style="font-size:6.75px; font-family:Arial;" text-anchor="middle"><textPath startOffset="22.20632615414155" xlink:href="#id61">January</textPath></text><path d="M 100.0 79.0 l 0.0 -6.0344720103868354 a27.034472010386835,27.034472010386835 0 0,0 0.4653539951997327,0.0040054487541836695 l -0.10387351592720434 6.03357793824121" fill="#ff3f05" stroke="none" /><path d="M 100.36148047927253 79.00311137660856 l 0.28253057534876863 -16.411019027194357 a37.41345085705447,37.41345085705447 0 0,0 0.6438202202469158,0.016627976834309628 l -0.5649774307905522 16.40372425821769" fill="#ffcb12" stroke="none" /><path d="M 100.72285384407766 79.0124445844662 l 0.5270181764203286 -15.301603876408082 a36.31067697225646,36.31067697225646 0 0,0 0.6244730414609528,0.026891122779245526 l -0.7903320502706129 15.290265027104642" fill="#ffbd11" stroke="none" /><path d="M 101.08401301168833 79.027996857942 l 0.4622502765816406 -8.942986982959402 a29.95492554383235,29.95492554383235 0 0,0 0.5147082838284971,0.03104860928788795 l -0.6161206092497497 8.93370510429121" fill="#ff6809" stroke="none" /><path d="M 101.44485096284872 79.0497635885617 l 1.0553012047831192 -15.301792568204771 a36.33813927545266,36.33813927545266 0 0,0 0.6236486616757508,0.04840713898999276 l -1.318540055821211 15.281360167026314" fill="#ffbd11" stroke="none" /><path d="M 101.80526077348638 79.07773832637324 l 2.04608264697796 -23.713292381170127 a44.80140100399818,44.80140100399818 0 0,0 0.7677570710710881,0.07290778496518029 l -2.4539648451392924 23.67455905168977" fill="#d8ff1c" stroke="none" /><path d="M 102.52436894288641 79.15227682838746 l 0.88926243289838 -7.344052096751826 a28.39769483517462,28.39769483517462 0 0,0 0.4847693020351862,0.0629369683762934 l -1.0155464634414124 7.3276568052113955" fill="#ff5207" stroke="none" /><path d="M 102.88285421437855 79.19881850522331 l 2.0323495906368843 -14.664381044598173 a35.80454377141464,35.80454377141464 0 0,0 0.6097531187741829,0.08986175946921786 l -2.284471689839723 14.627224800967985" fill="#ffb610" stroke="none" /><path d="M 103.2404852339499 79.25152402106235 l 4.848812236146896 -31.04641957755272 a52.42278072810961,52.42278072810961 0 0,0 0.8903654675572633,0.1469179310926607 l -5.382506909843034 30.958355383520434" fill="#81ff25" stroke="none" /><path d="M 103.59715602781102 79.31037775812273 l 1.29077080196622 -7.42407615545583 a28.53544929152976,28.53544929152976 0 0,0 0.4832069042661311,0.08830297317383193 l -1.418372827335252 7.400757700931259" fill="#ff5407" stroke="none" /><path d="M 104.307194497241 79.44645832069477 l 2.4382071771634624 -11.634903617821534 a32.88763376096219,32.88763376096219 0 0,0 0.5530717689551367,0.12088006694822953 l -2.638121670272127 11.591210052777434" fill="#ff900d" stroke="none" /><path d="M 104.66035177308747 79.52364482259891 l 0.9378611988995591 -4.120714476248212 a25.226094109596104,25.226094109596104 0 0,0 0.4225686846766724,0.10000835501633476 l -1.008653570538755 4.103960209091008" fill="#ff2503" stroke="none" /><path d="M 105.01212808612495 79.60689891045804 l 1.7668264234941162 -7.188776751682386 a28.402714826081453,28.402714826081453 0 0,0 0.47377231146620896,0.12077511117329283 l -1.8903076236453502 7.157298644340226" fill="#ff5207" stroke="none" /><path d="M 105.36241919743992 79.69619591428918 l 0.5609694669156963 -2.1240066721675825 a23.196836608904743,23.196836608904743 0 0,0 0.3851802804217991,0.1052843209086657 l -0.5974476365612063 2.1140358104326236" fill="#ff0701" stroke="none" /><path d="M 105.71112130821622 79.79150937346287 l 4.0266982921991294 -14.248251840970779 a35.80631553291117,35.80631553291117 0 0,0 0.5916734170096083,0.17272569517848027 l -4.271361926932165 14.176827816873596" fill="#ffb610" stroke="none" /><path d="M 106.0581310904928 79.89281104454417 l 2.1314642064133085 -7.074418316467447 a28.38854073410922,28.38854073410922 0 0,0 0.4666733099434337,0.14499766904869643 l -2.2529228890674604 7.03668051253623" fill="#ff5207" stroke="none" /><path d="M 106.74666289553966 80.11325718540242 l 5.912844590627271 -17.428945464909503 a39.40461548557045,39.40461548557045 0 0,0 0.6404525899139143,0.22344133300471195 l -6.211979184604459 17.324583278732586" fill="#ffe415" stroke="none" /><path d="M 107.08798089147638 80.2323363322302 l 3.1379582143724867 -8.75144890131191 a30.297023159453847,30.297023159453847 0 0,0 0.4893945586744915,0.1802481461303935 l -3.288135098819555 8.696137487375191" fill="#ff6c0a" stroke="none" /><path d="M 107.76421540070413 80.48803036053334 l 4.371895196639226 -10.986852108201232 a32.8247362278354,32.8247362278354 0 0,0 0.5231889853315684,0.21342192360982884 l -4.560368051559182 10.909969298407825" fill="#ff8f0d" stroke="none" /><path d="M 108.43124777332544 80.76684994638697 l 2.375997365210877 -5.420065342720433 a26.917978691990044,26.917978691990044 0 0,0 0.42276336701659556,0.18968159952398767 l -2.4689428506942526 5.378363412679914" fill="#ff3d05" stroke="none" /><path d="M 109.41281617654863 81.2277094730956 l 5.4640544849509975 -10.89714452321805 a33.19030968328591,33.19030968328591 0 0,0 0.5085063835370768,0.26047672014278145 l -5.65082135607683 10.801475277762767" fill="#ff940d" stroke="none" /><path d="M 109.73455568895987 81.39251694778311 l 3.4312566962060433 -6.558804825049156 a28.402124238915942,28.402124238915942 0 0,0 0.4312456191760318,0.23035647478226481 l -3.5436473619103865 6.498769623765138" fill="#ff5207" stroke="none" /><path d="M 110.05341064243156 81.56283822128135 l 4.953430076900267 -9.084199873615452 a31.34693949293873,31.34693949293873 0 0,0 0.47151157462551524,0.26239568078434905 l -5.109065740597817 8.997588795270923" fill="#ff7b0b" stroke="none" /><path d="M 110.36928655335952 81.73862282372117 l 15.552034316272593 -27.388727570256265 a52.49616118342418,52.49616118342418 0 0,0 0.7819509881524705,0.4529564837818247 l -16.02118203689039 27.11696692908439" fill="#81ff25" stroke="none" /><line stroke="#e1ed5e" stroke-width="0.3" x1="143.23703022742887" x2="145.7803849466894" y1="26.81831364943548" y2="22.513508569990506" /><path d="M 143.74570117128098 25.957352633546492 a86.0,86.0 0 0,1 28.547481713284135,27.462654790039103" fill="none" id="id62" stroke="none" /><text fill="#e1ed5e" style="font-size:6.75px; font-family:Arial;" text-anchor="middle"><textPath startOffset="19.985693538727396" xlink:href="#id62">February</textPath></text><path d="M 110.99172775467656 82.1063720568725 l 6.192033597489332 -10.080120967122674 a32.83005151232499,32.83005151232499 0 0,0 0.47897614333373295,0.29993481701422775 l -6.364628893195328 9.972041808785503" fill="#ff8f0d" stroke="none" /><path d="M 111.60114157652 82.49532879139004 l 14.003701907090266 -21.129834160728432 a46.34903467121637,46.34903467121637 0 0,0 0.6612358669659455,0.4464694090687142 l -14.365342468462751 20.885652839361047" fill="#c6ff1e" stroke="none" /><path d="M 111.90073688211348 82.69761687909136 l 4.18810307079997 -6.089048484867099 a28.390312495605748,28.390312495605748 0 0,0 0.40026130797323944,0.28040862525033666 l -4.292295518356861 6.016055016852827" fill="#ff5207" stroke="none" /><path d="M 112.19680574252982 82.90503203632743 l 4.3350864134633476 -6.076030472428997 a28.463988244503085,28.463988244503085 0 0,0 0.39640127035026795,0.28800238106481846 l -4.439033000167404 6.000508856547503" fill="#ff5307" stroke="none" /><path d="M 112.48926042617603 83.11751280151076 l 8.793242035819118 -11.886356040089945 a35.785349688535575,35.785349688535575 0 0,0 0.49205511246028094,0.3706057093327895 l -8.99654330203778 11.733233741251308" fill="#ffb610" stroke="none" /><path d="M 113.06298171725822 83.55741782278167 l 5.570474160277473 -7.0116441352302505 a29.955073190623725,29.955073190623725 0 0,0 0.4009652033160121,0.32421930915407177 l -5.690342762157976 6.914718728812049" fill="#ff6809" stroke="none" /><path d="M 113.34407831869373 83.78471172551755 l 23.474587194479113 -28.525551888413617 a57.9427036705461,57.9427036705461 0 0,0 0.7646849338334828,0.6404016409241259 l -23.962129665271714 28.117249090095672" fill="#48ff2c" stroke="none" /><path d="M 113.89432698308785 84.25364557470407 l 8.030558507771746 -9.100982051909877 a33.13745213197279,33.13745213197279 0 0,0 0.42445764393164365,0.3810822636538756 l -8.18602713929938 8.961400779486704" fill="#ff930d" stroke="none" /><path d="M 114.42810811169701 84.74124197986012 l 8.176561373503437 -8.647299456674018 a32.900921972186154,32.900921972186154 0 0,0 0.40815435592165983,0.3926441670163644 l -8.324198973037516 8.505272202895352" fill="#ff900d" stroke="none" /><path d="M 115.9244219780498 86.31012108654704 l 4.4917801891100915 -3.861485646356543 a26.92344162327101,26.92344162327101 0 0,0 0.299093008528967,0.3540317833071185 l -4.557583811126176 3.783594913420318" fill="#ff3d05" stroke="none" /><path d="M 116.15771136456269 86.58626213691792 l 6.264789113192629 -5.200875113796211 a29.142277604090985,29.142277604090985 0 0,0 0.31709782746965187,0.38872444240862813 l -6.35338543273869 5.0922665017794815" fill="#ff5c08" stroke="none" /><path d="M 116.38621287248628 86.86637796730983 l 5.765132472114112 -4.620779154179686 a28.388393087317844,28.388393087317844 0 0,0 0.30233087011776927,0.3839295028690121 l -5.843817422825845 4.520857257357635" fill="#ff5207" stroke="none" /><path d="M 116.60985879189232 87.15038557335679 l 5.848955768714303 -4.524832352166366 a28.39488954613845,28.39488954613845 0 0,0 0.29574502468663244,0.38916578564548265 l -5.925976733625049 4.42348179063985" fill="#ff5207" stroke="none" /><path d="M 117.04232023915458 87.72973835380427 l 9.597433522729194 -6.910034479066868 a32.82621269574918,32.82621269574918 0 0,0 0.32621030139221024,0.46140133725034316 l -9.714956443925287 6.743806641484731" fill="#ff8f0d" stroke="none" /><path d="M 117.65298651832404 88.62581576622439 l 7.457054019934272 -4.80473409844319 a29.87091451953859,29.87091451953859 0 0,0 0.274773160003374,0.4346251522082328 l -7.538654776183602 4.675661298520751" fill="#ff6709" stroke="none" /><line stroke="#e1ed5e" stroke-width="0.3" x1="172.23445277983987" x2="176.4835382374775" y1="55.19839476539836" y2="52.563006222186495" /><path d="M 173.08426987136738 54.67131705675599 a86.0,86.0 0 0,1 12.851231095245387,41.99856678651699" fill="none" id="id63" stroke="none" /><text fill="#e1ed5e" style="font-size:6.75px; font-family:Arial;" text-anchor="middle"><textPath startOffset="22.20632615414155" xlink:href="#id63">March</textPath></text><path d="M 117.84615892207809 88.93136811851018 l 14.011794816517016 -8.690463841556696 a37.48801248670007,37.48801248670007 0 0,0 0.33540025237617677,0.5513098273480151 l -14.159310867179418 8.4479862410016" fill="#ffcc13" stroke="none" /><path d="M 118.03404312379186 89.2402003453031 l 6.352112936313082 -3.7899134492236026 a28.39680895442636,28.39680895442636 0 0,0 0.2468363214545196,0.4219232865349657 l -6.416408932237929 3.6800107503347417" fill="#ff5207" stroke="none" /><path d="M 118.56541770881063 90.18545643968196 l 14.38972809767885 -7.607079757153992 a37.27672992823897,37.27672992823897 0 0,0 0.29500194651006145,0.5698498634237565 l -14.518539477349028 7.35825717146989" fill="#ffc912" stroke="none" /><path d="M 118.73160827565052 90.50648371742162 l 6.614146185461153 -3.352168355381037 a28.41511715655716,28.41511715655716 0 0,0 0.21736209771222537,0.4381887253728581 l -6.670868296126787 3.2378200415092286" fill="#ff5207" stroke="none" /><path d="M 118.89224826269711 90.83032412892265 l 8.074324837420951 -3.919011681798075 a29.975153154251053,29.975153154251053 0 0,0 0.22130485166214584,0.46612445737414576 l -8.140587882924853 3.779444808783389" fill="#ff6809" stroke="none" /><path d="M 119.04729006885535 91.15688171328212 l 23.43987922491451 -10.882473247531985 a46.84291318837387,46.84291318837387 0 0,0 0.33324869985857775,0.7342693363492645 l -23.623730241736435 10.477381902340658" fill="#c0ff1e" stroke="none" /><path d="M 119.34039704204932 91.81776055985345 l 10.886027218536062 -4.605493933777919 a32.8201591773027,32.8201591773027 0 0,0 0.21564143806717684,0.5221928468051062 l -10.963690343489437 4.41742651651951" fill="#ff8f0d" stroke="none" /><path d="M 119.97218684219823 93.5106431181261 l 12.654549907184503 -4.111712511806543 a34.305781192142376,34.305781192142376 0 0,0 0.17764597998539494,0.5631863026953697 l -12.723451370938104 3.8932760426847532" fill="#ffa30f" stroke="none" /><path d="M 120.08093135843002 93.85539295169968 l 28.72564208859883 -8.789820536409444 a51.04036382044275,51.04036382044275 0 0,0 0.24984040047689238,0.8423376280919558 l -28.872688386187424 8.294053521570959" fill="#90ff24" stroke="none" /><path d="M 120.37134235888165 94.90015583598534 l 10.686439903637341 -2.6752865479626675 a32.01622239825261,32.01622239825261 0 0,0 0.12923454852031932,0.535760637010613 l -10.73090725241848 2.490940679292648" fill="#ff840c" stroke="none" /><path d="M 120.45610955862082 95.25157060432595 l 8.861498411120362 -2.056999129013259 a30.097109403928812,30.097109403928812 0 0,0 0.11280054500490268,0.5056627252928171 l -8.895593343127302 1.9041582341704781" fill="#ff6a09" stroke="none" /><path d="M 120.53481517161879 95.60439243477599 l 14.452920881733073 -3.0937394778762917 a35.780329697628744,35.780329697628744 0 0,0 0.1237329873826355,0.603365989353789 l -14.504033165030705 2.844497832359091" fill="#ffb610" stroke="none" /><path d="M 120.6074358757038 95.95851677861258 l 2.1831535745178394 -0.42815508898554344 a23.224741852475077,23.224741852475077 0 0,0 0.07356080436656064,0.3929647583551012 l -2.1902001027942593 0.39051225316787946" fill="#ff0801" stroke="none" /><path d="M 120.67395015179393 96.31383870115 l 16.167769938532338 -2.8827102415624637 a37.422752604911246,37.422752604911246 0 0,0 0.10761382698094356,0.6351428985109936 l -16.214995627033506 2.603981554735632" fill="#ffcb12" stroke="none" /><path d="M 120.73433829027371 96.67025291283417 l 11.681123659071906 -1.875882747454927 a32.83078974628188,32.83078974628188 0 0,0 0.08480365987948833,0.5587501617233368 l -11.711683212390694 1.6745334733395079" fill="#ff8f0d" stroke="none" /><path d="M 120.83666639777658 97.38593545837742 l 10.412961589951308 -1.3063583754680717 a31.49458628431616,31.49458628431616 0 0,0 0.0628536663558905,0.5384918292500918 l -10.433905609310788 1.126922807893127" fill="#ff7d0b" stroke="none" /><path d="M 120.94382443527127 98.46500227214037 l 19.165709477029207 -1.4046775740973514 a40.21711577852044,40.21711577852044 0 0,0 0.04465901768867107,0.690855237094642 l -19.187049085722293 1.0745632727496741" fill="#ffef16" stroke="none" /><path d="M 120.96714384426684 98.82574320788733 l 31.11858799979611 -1.7427845008898533 a52.16735177902666,52.16735177902666 0 0,0 0.04249500747395404,0.897002444014163 l -31.143976615503558 1.2068709502526906" fill="#84ff25" stroke="none" /><line stroke="#e1ed5e" stroke-width="0.3" x1="184.98032266829074" x2="189.97916517819016" y1="98.17113171792111" y2="98.06355123074" /><path d="M 185.9800911702706 98.14961562048488 a86.0,86.0 0 0,1 -9.607161424134198,41.387399972396054" fill="none" id="id64" stroke="none" /><text fill="#e1ed5e" style="font-size:6.75px; font-family:Arial;" text-anchor="middle"><textPath startOffset="21.466115282336823" xlink:href="#id64">April</textPath></text><path d="M 120.99824983174949 100.27111621757518 l 7.479015441229061 0.09656435149878818 a28.479638804389094,28.479638804389094 0 0,0 -0.010548230732103219,0.4901348336440598 l -7.476245147811951 -0.22528900093296284" fill="#ff5307" stroke="none" /><path d="M 120.9904718944345 100.63252640178507 l 11.826012207694879 0.3563647824031486 a32.831380333447385,32.831380333447385 0 0,0 -0.02188425239139127,0.5647353137322896 l -11.818125822452284 -0.5598773431494443" fill="#ff8f0d" stroke="none" /><path d="M 120.9764740272857 100.99374915477107 l 31.211043058766176 1.4786063481797447 a52.24604751883082,52.24604751883082 0 0,0 -0.0502896796218627,0.897956012344263 l -31.180967028256784 -2.0156340768594307" fill="#83ff25" stroke="none" /><path d="M 120.89721153311464 102.0752229133903 l 8.873628322080876 0.8812064131001648 a29.917275612031105,29.917275612031105 0 0,0 -0.05530094212465509,0.5120180425785908 l -8.857145078455169 -1.033820777563547" fill="#ff6709" stroke="none" /><path d="M 120.8583938346157 102.4346265915055 l 8.812123164105117 1.0285657444700969 a29.871948047078234,29.871948047078234 0 0,0 -0.06400917037976586,0.5102160671112519 l -8.793112484478502 -1.1800995658687436" fill="#ff6709" stroke="none" /><path d="M 120.76222939487914 103.15116336523771 l 7.3107236512887726 1.1095766309662287 a28.394446605764315,28.394446605764315 0 0,0 -0.07750094596783234,0.482598464522122 l -7.290540950959652 -1.2352543251815555" fill="#ff5207" stroke="none" /><path d="M 120.70491114924044 103.5080841355445 l 7.290832095121266 1.2353036544545553 a28.39474189934707,28.39474189934707 0 0,0 -0.08579749487495589,0.48119791522606975 l -7.268488157907122 -1.3606203204138434" fill="#ff5207" stroke="none" /><path d="M 120.5718875245553 104.21870165774334 l 7.712902975910855 1.5816942675605081 a28.873412796992692,28.873412796992692 0 0,0 -0.10403497783763897,0.4860167814299645 l -7.684533959348773 -1.7142248684066417" fill="#ff5908" stroke="none" /><path d="M 120.49622156327973 104.57218783832717 l 8.567752438830613 1.911248538257452 a29.778339981344946,29.778339981344946 0 0,0 -0.11590784083822514,0.49932794474104314 l -8.533584032061835 -2.05844514034706" fill="#ff6509" stroke="none" /><path d="M 120.32669344350535 105.2749913415812 l 7.153219779943752 1.8563359804930284 a28.390164848814372,28.390164848814372 0 0,0 -0.1268255227353016,0.47196495035056846 l -7.120206180866673 -1.9791918640191453" fill="#ff5207" stroke="none" /><path d="M 120.23288151984713 105.62410040840565 l 5.70620803015014 1.586145150967974 a26.922555742522746,26.922555742522746 0 0,0 -0.12795568080705702,0.44543051109765314 l -5.678059712456983 -1.684133137570209" fill="#ff3d05" stroke="none" /><path d="M 119.9155931802556 106.66101706037122 l 2.1990540590862375 0.7355008947849988 a23.318792858582498,23.318792858582498 0 0,0 -0.13059542150022913,0.3795714252414182 l -2.186067806642778 -0.7732450231157174" fill="#ff0901" stroke="none" /><path d="M 119.79798401119884 107.00284435728193 l 59.393952033596506 21.00853307184577 a84.0,84.0 0 0,0 -0.49390295597909306,1.3590088119754755 l -59.02352481661219 -22.027789680827375" fill="#4dd2ff" stroke="none" /><path d="M 119.26925614724726 108.34839909993367 l 6.842194962623631 2.9643787923644345 a28.45675355172559,28.45675355172559 0 0,0 -0.19859956821954286,0.4477895975802543 l -6.790154309672815 -3.0817167264373766" fill="#ff5307" stroke="none" /><path d="M 119.12269723197855 108.67885076344098 l 8.292340158357561 3.7634849227086584 a30.106411151785586,30.106411151785586 0 0,0 -0.21823618919800644,0.470061336329682 l -8.226329352319723 -3.9056663263171707" fill="#ff6a09" stroke="none" /><path d="M 118.97047184881838 109.00673069616215 l 6.679549491125894 3.1712918854996834 a28.394151312181563,28.394151312181563 0 0,0 -0.21342496741985223,0.43971864727211957 l -6.623971267091328 -3.2857994887370783" fill="#ff5207" stroke="none" /><line stroke="#e1ed5e" stroke-width="0.3" x1="174.80103733775053" x2="179.2010983576182" y1="140.37084112569926" y2="142.7455964860345" /><path d="M 175.68104954172406 140.8457921977663 a86.0,86.0 0 0,1 -30.038265399797805,32.042727171017184" fill="none" id="id65" stroke="none" /><text fill="#e1ed5e" style="font-size:6.75px; font-family:Arial;" text-anchor="middle"><textPath startOffset="22.206326154141568" xlink:href="#id65">May</textPath></text><path d="M 118.48025628344425 109.97397251340804 l 10.468798782755345 5.650111649216861 a32.896197274862075,32.896197274862075 0 0,0 -0.2732320401939481,0.49599551856300556 l -10.369990333109888 -5.829477686177671" fill="#ff900d" stroke="none" /><path d="M 118.30583269289576 110.29060199501025 l 6.44655805744934 3.62392491616526 a28.395332486512583,28.395332486512583 0 0,0 -0.24318304125184653,0.42401013038214325 l -6.383223020045113 -3.734354892405718" fill="#ff5207" stroke="none" /><path d="M 118.12598468904814 110.60418214915192 l 7.922190461150064 4.634691693250061 a30.178315139186395,30.178315139186395 0 0,0 -0.2661714810944303,0.4461187124692528 l -7.841238104357407 -4.7703724996054175" fill="#ff6b09" stroke="none" /><path d="M 117.94076556474637 110.91462005526583 l 6.3808131836275646 3.881894074786689 a28.468860588618544,28.468860588618544 0 0,0 -0.25830117192833163,0.4164637340321045 l -6.31304737203127 -3.991154140184067" fill="#ff5307" stroke="none" /><path d="M 117.75023020441432 111.22182372390056 l 16.79198717133047 10.616015558142303 a40.86631872020698,40.86631872020698 0 0,0 -0.38102030748094917,0.5913519785617369 l -16.606762000472468 -10.903489136625494" fill="#fff717" stroke="none" /><path d="M 117.35343817320211 111.8261652097733 l 1.4078566120961105 0.9594378197648021 a22.703696325704136,22.703696325704136 0 0,0 -0.222862826887952,0.3210505240271572 l -1.3911328780460224 -0.9835296059789789" fill="#ff0000" stroke="none" /><path d="M 117.14729908036423 112.12312394758627 l 12.075935164429994 8.537674539603977 a35.78918850511139,35.78918850511139 0 0,0 -0.3599714203218246,0.4999688188368737 l -11.927183951732568 -8.744276963891982" fill="#ffb610" stroke="none" /><path d="M 116.93607887273984 112.41649034213515 l 5.972641613271506 4.378773118941135 a28.405815408700377,28.405815408700377 0 0,0 -0.29249702583192405,0.391847565282683 l -5.89638332074449 -4.480933563733133" fill="#ff5207" stroke="none" /><path d="M 116.71984013943494 112.70617746262583 l 24.82137685743095 18.862908771081717 a52.17547235255242,52.17547235255242 0 0,0 -0.5495647044196068,0.710386462530015 l -24.493005335793274 -19.287373227724984" fill="#84ff25" stroke="none" /><path d="M 116.0416608686014 113.55231037782055 l 18.058569993826328 15.2562348462905 a44.640318354605405,44.640318354605405 0 0,0 -0.500944066447991,0.5827111219865391 l -17.793283417807558 -15.564823067438567" fill="#daff1c" stroke="none" /><path d="M 115.56566222782051 114.09645910891815 l 5.4786283621536 4.961514617863517 a28.391346023145392,28.391346023145392 0 0,0 -0.33116962810503986,0.3594192245121103 l -5.392412326052838 -5.0550850971769625" fill="#ff5207" stroke="none" /><path d="M 115.07121518719521 114.62390073753431 l 10.631237043862543 10.315701376139467 a35.81340257889729,35.81340257889729 0 0,0 -0.4331023492176774,0.43873039315803364 l -10.452094069589329 -10.497172263278165" fill="#ffb610" stroke="none" /><path d="M 114.55890576462653 115.13401014063108 l 8.202985677082228 8.527019161154554 a32.83211856740428,32.83211856740428 0 0,0 -0.4106581442233008,0.3883029073521115 l -8.05499169846812 -8.666956705252588" fill="#ff8f0d" stroke="none" /><path d="M 114.0293411484842 115.62618273729858 l 4.944993084952862 5.50783994503548 a28.40197659212457,28.40197659212457 0 0,0 -0.36659871180302184,0.32348073946482614 l -4.849452020243252 -5.592143826272594" fill="#ff5207" stroke="none" /><path d="M 113.75828350139079 115.86535959552629 l 4.846163141287505 5.5883512567057725 a28.39695660121773,28.39695660121773 0 0,0 -0.3720468152923006,0.317066367375383 l -4.749250849418157 -5.670942014304103" fill="#ff5207" stroke="none" /><path d="M 113.48314897796784 116.09983520530334 l 1.124959776243943 1.343281679948638 a22.75212447327593,22.75212447327593 0 0,0 -0.3024189323600332,0.24887019275621575 l -1.1016707153392187 -1.362446991562032" fill="#ff0100" stroke="none" /><path d="M 113.20401910651253 116.32954008644616 l 5.8506355289549345 7.235538409220727 a30.304996086188225,30.304996086188225 0 0,0 -0.40845724168693226,0.32450313599957725 l -5.725220794550651 -7.33517545922543" fill="#ff6d0a" stroke="none" /><path d="M 112.92097659922987 116.55440617244103 l 4.555048964799027 5.835946696407959 a28.403157766455585,28.403157766455585 0 0,0 -0.3880023801553815,0.2975036798328846 l -4.453917856150151 -5.913489718068215" fill="#ff5207" stroke="none" /><path d="M 112.34349029814194 116.9893568818739 l 8.683060236141086 11.951207123386748 a35.77250441768574,35.77250441768574 0 0,0 -0.5012795459299982,0.35764964622362555 l -8.476053362362205 -12.098901031454592" fill="#ffb610" stroke="none" /><path d="M 111.7513745106137 117.40417183066458 l 4.140827298178117 6.132701306856301 a28.399761890253906,28.399761890253906 0 0,0 -0.40750318129971635,0.27007088809614593 l -4.034649418138436 -6.203070216043765" fill="#ff5207" stroke="none" /><path d="M 111.45004920935366 117.60387380957326 l 4.031912316094924 6.198862059546188 a28.39474189934707,28.39474189934707 0 0,0 -0.41201878966245514,0.26296988555690676 l -3.924611724385538 -6.2673463739269035" fill="#ff5207" stroke="none" /><path d="M 111.1453310114006 117.79835938074945 l 3.9253953302725253 6.268597740905166 a28.396218367260847,28.396218367260847 0 0,0 -0.41650599525621695,0.2558520006450283 l -3.8169101350839996 -6.335238208378573" fill="#ff5207" stroke="none" /><line stroke="#e1ed5e" stroke-width="0.3" x1="143.8653032363475" x2="146.44561519142675" y1="172.8068346515853" y2="177.08958963109032" /><path d="M 144.38136562736335 173.6633856474863 a86.0,86.0 0 0,1 -40.68145358897372,12.25698825130547" fill="none" id="id66" stroke="none" /><text fill="#e1ed5e" style="font-size:6.75px; font-family:Arial;" text-anchor="middle"><textPath startOffset="21.466115282336833" xlink:href="#id66">June</textPath></text><path d="M 110.21172684928248 118.3499491758327 l 5.74645666610877 10.326087773453322 a32.81735388826653,32.81735388826653 0 0,0 -0.49597521423664287,0.2704452321367794 l -5.567858640003479 -10.423473657349872" fill="#ff8f0d" stroke="none" /><path d="M 109.89434966115114 118.52300852407294 l 3.483824691913519 6.521996561134482 a28.394151312181563,28.394151312181563 0 0,0 -0.4330907133490951,0.2265725920930427 l -3.3710430760379286 -6.580998572172241" fill="#ff5207" stroke="none" /><path d="M 109.57404056367764 118.69057910512821 l 0.7951703645614222 1.5523429739031676 a22.74415154654155,22.74415154654155 0 0,0 -0.3499849378731429,0.17548971341772204 l -0.7683315190055188 -1.5658005282301917" fill="#ff0100" stroke="none" /><path d="M 109.2508944713604 118.85261126421891 l 6.516346247873103 13.279812352689964 a35.792436734521694,35.792436734521694 0 0,0 -0.5554429387230351,0.26664636479885573 l -6.286790641149834 -13.39001299398838" fill="#ffb610" stroke="none" /><path d="M 108.92500713936063 119.00905698771935 l 3.949983004742083 8.412929072798944 a30.2940702236263,30.2940702236263 0 0,0 -0.4739319812824042,0.21755892771096977 l -3.8045830276922596 -8.479675070843989" fill="#ff6c0a" stroke="none" /><path d="M 108.59647513512805 119.15986991738527 l 3.027383860870521 6.747449396700522 a28.39548013330396,28.39548013330396 0 0,0 -0.44767411453825856,0.19624717588407198 l -2.910789071674509 -6.798561125879048" fill="#ff5207" stroke="none" /><path d="M 107.59598834532513 119.57807347666477 l 2.6747262743248212 6.893900457459926 a28.394594252555695,28.394594252555695 0 0,0 -0.4571932326770584,0.17287136012864032 l -2.5556628208874876 -6.938920067695197" fill="#ff5207" stroke="none" /><path d="M 107.2578585660854 119.70592522655815 l 2.551529508416353 6.927697646404875 a28.382634862454125,28.382634862454125 0 0,0 -0.4599074029276998,0.16490643196823718 l -2.431902544858918 -6.970591619413073" fill="#ff5207" stroke="none" /><path d="M 106.91757812671514 119.82793768551818 l 2.4362311582442313 6.982998776209355 a28.395775426886715,28.395775426886715 0 0,0 -0.4628920659686027,0.1570381210852523 l -2.3156693593384015 -7.02389988419273" fill="#ff5207" stroke="none" /><path d="M 105.88484417918355 120.15858648285463 l 3.727653668526131 12.76911105325811 a34.302090022357945,34.302090022357945 0 0,0 -0.5682203803642055,0.16058475529089314 l -3.50730212005732 -12.831384601887523" fill="#ffa30f" stroke="none" /><path d="M 104.83641907484287 120.43548508189849 l 3.064192832038757 12.94723760248646 a34.30489531139411,34.30489531139411 0 0,0 -0.5757992559263668,0.13105003600741022 l -2.840873426719528 -12.998064372071553" fill="#ffa30f" stroke="none" /><path d="M 104.48393922423573 120.51570834832081 l 1.5788374827554374 7.22377528012291 a28.394298958972943,28.394298958972943 0 0,0 -0.47838787706721664,0.10025083091764007 l -1.454258144258843 -7.249882091767091" fill="#ff5207" stroke="none" /><path d="M 104.13013068566511 120.58985236759428 l 1.826352628405181 9.10487678284561 a30.286244943683293,30.286244943683293 0 0,0 -0.5120284660962636,0.09813147416536916 l -1.669356547737213 -9.134965455359447" fill="#ff6c0a" stroke="none" /><path d="M 102.70371172650421 120.8252237178851 l 2.096017516765176 16.144485107396605 a37.27997815764927,37.27997815764927 0 0,0 -0.6370838966678023,0.07714198761767214 l -1.8178061970459933 -16.17817262373963" fill="#ffc912" stroke="none" /><path d="M 101.98527174616119 120.90594882070398 l 1.3979264010382308 14.720895439995491 a35.78712145003211,35.78712145003211 0 0,0 -0.6137588162810773,0.05295769323114434 l -1.1443232670156118 -14.742777385505299" fill="#ffb610" stroke="none" /><path d="M 101.62511606390274 120.93702456842531 l 0.7078666363269648 9.119730882700392 a30.147161666205758,30.147161666205758 0 0,0 -0.5177232930310337,0.03570522946541544 l -0.5507805825170008 -9.130564456682091" fill="#ff6a09" stroke="none" /><path d="M 101.26447882468166 120.96189622390904 l 0.44559947632749203 7.3869247929530415 a28.400352477419414,28.400352477419414 0 0,0 -0.4882317193148192,0.025236003107153546 l -0.31837968859919324 -7.393500602822397" fill="#ff5207" stroke="none" /><line stroke="#e1ed5e" stroke-width="0.3" x1="102.19456741930631" x2="102.32365962044197" y1="184.97166512339345" y2="189.96999836594603" /><path d="M 102.22038585953345 185.97133177190398 a86.0,86.0 0 0,1 -42.740103519485714,-10.115201625700543" fill="none" id="id67" stroke="none" /><text fill="#e1ed5e" style="font-size:6.75px; font-family:Arial;" text-anchor="middle"><textPath startOffset="22.20632615414155" xlink:href="#id67">July</textPath></text><path d="M 100.18074693466247 120.99922214144158 l 0.1400187869174124 16.26741618575594 a37.2680187675477,37.2680187675477 0 0,0 -0.6415314431597245,0.0 l 0.14001878691740122 -16.26741618575594" fill="#ffc912" stroke="none" /><path d="M 99.81925306533755 120.99922214144158 l -0.06364143733843508 7.393877426282494 a28.394151312181563,28.394151312181563 0 0,0 -0.48870432645282924,-0.008413488175191825 l 0.19090545368393222 -7.391686460828142" fill="#ff5207" stroke="none" /><path d="M 99.09653310690486 120.98055641714683 l -0.3181256048127509 7.387600199324671 a28.394446605764315,28.394446605764315 0 0,0 -0.48813019121319184,-0.025230755263995364 l 0.44524386443943165 -7.381029637298474" fill="#ff5207" stroke="none" /><path d="M 98.37488393609728 120.93702456842531 l -0.9158402375153318 11.799138522797115 a32.83462856285769,32.83462856285769 0 0,0 -0.5631227643694797,-0.04858860160681705 l 1.1188073196263533 -11.781625668911634" fill="#ff8f0d" stroke="none" /><path d="M 97.65516085044442 120.86867818915974 l -0.8266292457676917 7.356862714844772 a28.403157766455585,28.403157766455585 0 0,0 -0.48538640100599334,-0.05877353348913506 l 0.9531430698250744 -7.341543652630289" fill="#ff5207" stroke="none" /><path d="M 97.2962882734958 120.8252237178851 l -1.9144030916617822 14.745607780314389 a35.869360712829334,35.869360712829334 0 0,0 -0.6116091677938349,-0.0847634576607925 l 2.1679408506424482 -14.710469757160991" fill="#ffb711" stroke="none" /><path d="M 96.93821686468263 120.77559828337769 l -1.0773939929281777 7.31061077834305 a28.38957426164886,28.38957426164886 0 0,0 -0.48284465588969927,-0.07541040504808635 l 1.2030745124263942 -7.290982065947858" fill="#ff5207" stroke="none" /><path d="M 96.58105272829116 120.7198165907248 l -1.2042764090801 7.298265909846784 a28.39695660121773,28.39695660121773 0 0,0 -0.48160025240891696,-0.08373237706784281 l 1.3297256329610667 -7.276454954257935" fill="#ff5207" stroke="none" /><path d="M 96.22490169976321 120.6578951692458 l -1.3291151678907447 7.273114399277842 a28.393560725016055,28.393560725016055 0 0,0 -0.4800301711907563,-0.09199892479014252 l 1.454112953653196 -7.249158276139232" fill="#ff5207" stroke="none" /><path d="M 95.16358092515715 120.4354850818985 l -1.703391028243972 7.197395719362987 a28.396218367260847,28.396218367260847 0 0,0 -0.4746856754067349,-0.11666618996987128 l 1.8270299883939174 -7.167008271079086" fill="#ff5207" stroke="none" /><path d="M 94.46302465271185 120.25689768951611 l -3.1183588443509125 11.408444521999202 a32.826950929706065,32.826950929706065 0 0,0 -0.5437844321240003,-0.15367891223412147 l 3.3142744445795267 -11.35307681642656" fill="#ff8f0d" stroke="none" /><path d="M 94.11515582081647 120.15858648285463 l -2.366493653573158 8.106445221681255 a29.44480587962334,29.44480587962334 0 0,0 -0.48531353274698225,-0.14622098632905148 l 2.505682160760386 -8.064508866246479" fill="#ff6108" stroke="none" /><path d="M 93.42475214034765 119.94407469862007 l -2.6365003540042746 7.997046062074939 a29.420444159046063,29.420444159046063 0 0,0 -0.4795956431462702,-0.16270488136962724 l 2.7737657300877707 -7.9504781938071885" fill="#ff6008" stroke="none" /><path d="M 92.7421414339146 119.70592522655815 l -2.556020020730671 6.939889906572142 a28.39562778009534,28.39562778009534 0 0,0 -0.45720987393603874,-0.17287765242885178 l 2.675100115426993 -6.8948640040366564" fill="#ff5207" stroke="none" /><path d="M 92.40401165467489 119.57807347666478 l -2.6742456214791623 6.89266161186128 a28.3932654314333,28.3932654314333 0 0,0 -0.45412854479846304,-0.18070712012034315 l 2.7924952423194833 -6.84560764733487" fill="#ff5207" stroke="none" /><path d="M 92.06813273071674 119.44442032107085 l -5.107342967954332 12.520295665732103 a34.52193609471893,34.52193609471893 0 0,0 -0.5482881409996896,-0.22918448740535594 l 5.322102568451484 -12.430526135306774" fill="#ffa50f" stroke="none" /><path d="M 91.7346041902142 119.30500536409082 l -3.6041855300430155 8.418086996908395 a30.157201648019424,30.157201648019424 0 0,0 -0.47544885599222203,-0.20842280631307528 l 3.748555060692981 -8.354799637300866" fill="#ff6b09" stroke="none" /><path d="M 91.40352486487194 119.15986991738527 l -3.0285322226536797 6.750008871605937 a28.39828542234013,28.39828542234013 0 0,0 -0.44427360126525134,-0.20394422009677443 l 3.1442738196863504 -6.696877581175087" fill="#ff5207" stroke="none" /><path d="M 90.42595943632237 118.69057910512821 l -5.426450430806658 10.593594247117915 a32.902546086891306,32.902546086891306 0 0,0 -0.5018564210320257,-0.2625475602846958 l 5.6079977543651784 -10.498617267888502" fill="#ff900d" stroke="none" /><path d="M 90.10565033884886 118.52300852407294 l -3.8277549889746285 7.165861397361497 a29.124117048751565,29.124117048751565 0 0,0 -0.4401585893210171,-0.2400095578347256 l 3.9505363901642863 -7.098911187767006" fill="#ff5c08" stroke="none" /><line stroke="#e1ed5e" stroke-width="0.3" x1="58.666819895761336" x2="56.23545636021788" y1="174.27360380694188" y2="178.64263932499728" /><path d="M 58.180547188652646 175.14741091055294 a86.0,86.0 0 0,1 -31.652253787137756,-30.449443065178592" fill="none" id="id68" stroke="none" /><text fill="#e1ed5e" style="font-size:6.75px; font-family:Arial;" text-anchor="middle"><textPath startOffset="22.20632615414155" xlink:href="#id68">August</textPath></text><path d="M 89.7882731507175 118.34994917583269 l -3.5957175685556795 6.461319971389703 a28.394446605764315,28.394446605764315 0 0,0 -0.4250394906243788,-0.24134851562582169 l 3.7064058261012653 -6.398468289969249" fill="#ff5207" stroke="none" /><path d="M 88.8546689885994 117.79835938074946 l -4.464046016987366 7.128787401762398 a29.41114241118928,29.41114241118928 0 0,0 -0.4267671578704238,-0.27238299194212306 l 4.586094976904713 -7.0508899809964705" fill="#ff6008" stroke="none" /><path d="M 88.54995079064634 117.60387380957326 l -4.028289681037336 6.193292440652338 a28.38809779373509,28.38809779373509 0 0,0 -0.40733581523317386,-0.2699599669934321 l 4.134300195010472 -6.123034452567588" fill="#ff5207" stroke="none" /><path d="M 87.65650970185807 116.9893568818739 l -4.3476484328302 5.98402469951232 a28.39666130763498,28.39666130763498 0 0,0 -0.3929760269491595,-0.29071427000704414 l 4.450009430197923 -5.908300480765509" fill="#ff5207" stroke="none" /><path d="M 87.36589467227662 116.77436683061367 l -8.893800910017303 11.808345356731257 a35.782987339873536,35.782987339873536 0 0,0 -0.48881481316623754,-0.3748023546029326 l 9.095744451677026 -11.653503660300958" fill="#ffb610" stroke="none" /><path d="M 87.07902340077011 116.55440617244103 l -4.555775723174776 5.836877822104918 a28.404338940786605,28.404338940786605 0 0,0 -0.38283977673839154,-0.304151072518397 l 4.655572992630526 -5.75759283558139" fill="#ff5207" stroke="none" /><path d="M 86.51685102203217 116.09983520530335 l -7.593644384953635 9.067349430404121 a32.82709857649744,32.82709857649744 0 0,0 -0.43008895820012416,-0.3665311407588342 l 7.748598819730815 -8.935293899422337" fill="#ff8f0d" stroke="none" /><path d="M 86.24171649860922 115.8653595955263 l -4.846743531691458 5.589020533688158 a28.397842481966,28.397842481966 0 0,0 -0.3665453507471929,-0.3234336545372407 l 4.942231235345238 -5.504763737378628" fill="#ff5207" stroke="none" /><path d="M 85.97065885151581 115.62618273729859 l -4.942231235345238 5.504763737378628 a28.397842481966,28.397842481966 0 0,0 -0.3609236644098105,-0.329695210020873 l 5.036254449221904 -5.418875760771179" fill="#ff5207" stroke="none" /><path d="M 85.70375840098266 115.38237550388516 l -10.077635112931587 10.84326719191057 a35.803214950292244,35.803214950292244 0 0,0 -0.4478200752878448,-0.42344183270442165 l 10.26279102261025 -10.668190722460219" fill="#ffb610" stroke="none" /><path d="M 85.44109423537348 115.13401014063109 l -6.474419714256999 6.730171566075855 a30.33880720141366,30.33880720141366 0 0,0 -0.37323963263556265,-0.3652935370633069 l 6.589309299268355 -6.617727926089978" fill="#ff6d0a" stroke="none" /><path d="M 85.18274418774928 114.88116024355367 l -5.220942354146702 5.2434594353279085 a28.399466596671154,28.399466596671154 0 0,0 -0.34344337074508896,-0.3479063213272493 l 5.310426349947324 -5.152812620019994" fill="#ff5207" stroke="none" /><path d="M 84.67929136418377 114.36230785411682 l -6.176698579743148 5.790309615115985 a29.46636231116444,29.46636231116444 0 0,0 -0.3437091091151906,-0.3730283545710491 l 6.275454096854068 -5.683130005743592" fill="#ff6108" stroke="none" /><path d="M 84.43433777217949 114.09645910891817 l -5.4833342413724 4.965776321156865 a28.39769483517462,28.39769483517462 0 0,0 -0.3250064116200624,-0.3651481488244572 l 5.567999502640801 -4.870654002591543" fill="#ff5207" stroke="none" /><path d="M 84.19399662182784 113.82643327865904 l -11.134332072650686 9.739849841961812 a35.79317496847858,35.79317496847858 0 0,0 -0.40166332321741344,-0.4672251882180119 l 11.300337905438878 -9.54674755458227" fill="#ffb610" stroke="none" /><path d="M 83.95833913139862 113.55231037782056 l -5.6509020597866515 4.773993120549693 a28.397547188383243,28.397547188383243 0 0,0 -0.3122432018576071,-0.37611705123950295 l 5.732241261537795 -4.676014812196429" fill="#ff5207" stroke="none" /><path d="M 83.72743513129214 113.27417163493432 l -5.734872671812938 4.6781613571274825 a28.400943064584926,28.400943064584926 0 0,0 -0.3057592622691608,-0.3814816923165701 l 5.814549846136959 -4.578751831232653" fill="#ff5207" stroke="none" /><path d="M 83.50135304334701 112.99209946851258 l -5.810373893648014 4.5754634167187405 a28.39562778009534,28.39562778009534 0 0,0 -0.2990913945604915,-0.38661594539515737 l 5.888272105426573 -4.474769477210331" fill="#ff5207" stroke="none" /><path d="M 83.28015986056508 112.70617746262583 l -9.420882707146955 7.159363159774666 a32.83256150777841,32.83256150777841 0 0,0 -0.3380795957903672,-0.4529128667391362 l 9.542723569632406 -6.996137413526222" fill="#ff8f0d" stroke="none" /><path d="M 82.85270091963577 112.12312394758628 l -6.045321694838342 4.274036620349242 a28.403600706829717,28.403600706829717 0 0,0 -0.27881392776356434,-0.4016522578687729 l 6.11799652976404 -4.169343100293457" fill="#ff5207" stroke="none" /><path d="M 82.6465618267979 111.8261652097733 l -6.111774093918917 4.165102583020904 a28.39607072046947,28.39607072046947 0 0,0 -0.27178676349293557,-0.4062843349096189 l 6.182563962822583 -4.059281333905464" fill="#ff5207" stroke="none" /><path d="M 82.44556493220864 111.52570212397912 l -6.179108154806309 4.057012356656159 a28.3919366103109,28.3919366103109 0 0,0 -0.2647144336955277,-0.4108426796320445 l 6.248027451878883 -3.950048077102666" fill="#ff5207" stroke="none" /><path d="M 82.24976979558568 111.22182372390057 l -6.24665467045532 3.9491801947727323 a28.390312495605748,28.390312495605748 0 0,0 -0.25758849625188457,-0.4153146739207937 l 6.31370780637516 -3.8410691894866744" fill="#ff5207" stroke="none" /><path d="M 82.05923443525364 110.91462005526583 l -6.315852151136988 3.8423737440921273 a28.392822491059167,28.392822491059167 0 0,0 -0.25042351039283456,-0.4197242077517971 l 6.381056537228054 -3.7330874424542193" fill="#ff5207" stroke="none" /><line stroke="#e1ed5e" stroke-width="0.3" x1="26.63291911575756" x2="22.317208475507996" y1="142.92168965132927" y2="145.44649492493687" /><path d="M 25.769776987707644 143.4266507060508 a86.0,86.0 0 0,1 -11.730757126820373,-40.83630448921669" fill="none" id="id69" stroke="none" /><text fill="#e1ed5e" style="font-size:6.75px; font-family:Arial;" text-anchor="middle"><textPath startOffset="21.46611528233685" xlink:href="#id69">September</textPath></text><path d="M 81.87401531095188 110.60418214915194 l -17.878580847351234 10.45944433508223 a41.71336836233929,41.71336836233929 0 0,0 -0.3572412397013001,-0.6228802133729322 l 18.055974083204912 -10.150144275850991" fill="#fdff18" stroke="none" /><path d="M 81.51974371655577 109.97397251340807 l -6.507722978616442 3.5122808427577366 a28.395037192929827,28.395037192929827 0 0,0 -0.2284414434574555,-0.4321251206157793 l 6.567216930298784 -3.399740707055831" fill="#ff5207" stroke="none" /><path d="M 81.35079622478065 109.6543875284942 l -8.117828027565754 4.202466690397329 a30.141108147759283,30.141108147759283 0 0,0 -0.23455714226775318,-0.46280349413613653 l 8.188963839619772 -4.062108984558507" fill="#ff6a09" stroke="none" /><path d="M 81.18737489456691 109.33194174019688 l -6.625955284044331 3.2867836539194095 a28.396366014052226,28.396366014052226 0 0,0 -0.21344161425212466,-0.43975294467723 l 6.681550154911175 -3.1722417532768947" fill="#ff5207" stroke="none" /><path d="M 81.02952815118164 109.00673069616217 l -8.682614072949546 4.122299504038711 a30.611510825087766,30.611510825087766 0 0,0 -0.22189756973622754,-0.47794762427729676 l 8.7522862595256 -3.972231812482587" fill="#ff710a" stroke="none" /><path d="M 80.87730276802145 108.67885076344099 l -6.740811948045023 3.0593226578764234 a28.402567179290074,28.402567179290074 0 0,0 -0.19822140174493832,-0.44693693201306495 l 6.7924744345212416 -2.9428373893706627" fill="#ff5207" stroke="none" /><path d="M 80.73074385275274 108.34839909993369 l -5.432001564755157 2.353412951050457 a26.91989810027795,26.91989810027795 0 0,0 -0.18055434446796376,-0.4267771354311289 l 5.471706890415427 -2.2595612899531696" fill="#ff3d05" stroke="none" /><path d="M 80.58989483394504 108.01547362559985 l -2.7382416449977693 1.13076686077841 a23.96253286898808,23.96253286898808 0 0,0 -0.1541559783986527,-0.382602496145679 l 2.75730023765381 -1.0834649967899257" fill="#ff1302" stroke="none" /><path d="M 80.45479744820244 107.68017299344265 l -6.880951647148728 2.7038296927117846 a28.393117784641923,28.393117784641923 0 0,0 -0.17482821665378442,-0.45642130610597387 l 6.926474143396021 -2.584984819772653" fill="#ff5207" stroke="none" /><path d="M 80.20201598880116 107.00284435728193 l -7.883067691410401 2.788359464763606 a29.361680736077844,29.361680736077844 0 0,0 -0.16443823207049196,-0.47793447422707397 l 7.929896754424123 -2.652252287447235" fill="#ff6008" stroke="none" /><path d="M 79.97269907076064 106.31721596034903 l -4.2402902795664845 1.3375157004547797 a25.446235475539847,25.446235475539847 0 0,0 -0.12816811684842153,-0.41886082161825433 l 4.262685168921036 -1.2643279062844777" fill="#ff2803" stroke="none" /><path d="M 79.86692584326677 105.97154293290107 l -2.8409408029569385 0.8426333625267145 a23.96327110294497,23.96327110294497 0 0,0 -0.11389099525563609,-0.39646949557976024 l 2.8550244350986786 -0.7936063914423583" fill="#ff1302" stroke="none" /><path d="M 79.76711848015287 105.62410040840567 l -60.603619331706476 16.845887220758442 a83.90137194335986,83.90137194335986 0 0,0 -0.3748070999795631,-1.394796650687542 l 60.88461450802781 -15.80019963689536" fill="#4dd3ff" stroke="none" /><path d="M 79.4281124754447 104.21870165774334 l -4.886699545139786 1.002121339005352 a25.988394493477763,25.988394493477763 0 0,0 -0.08609592127457472,-0.4390012477192375 l 4.903225399390027 -0.9178563642181596" fill="#ff3004" stroke="none" /><path d="M 79.35854240842038 103.8639653848113 l -7.274438321921061 1.3617341578297293 a28.400795417793546,28.400795417793546 0 0,0 -0.08581578617408894,-0.4813005025454661 l 7.296800550434339 -1.2363149045510495" fill="#ff5207" stroke="none" /><path d="M 79.18660465613746 102.79330883721812 l -11.71776002587189 1.5726085096596711 a32.8228168195475,32.8228168195475 0 0,0 -0.07033224853080028,-0.5606172213070625 l 11.743093783649538 -1.3706735340652" fill="#ff8f0d" stroke="none" /><path d="M 79.1416061653843 102.43462659150553 l -7.349570878069066 0.8578541971053587 a28.399466596671154,28.399466596671154 0 0,0 -0.052495330089549,-0.4860415595882801 l 7.363248509659667 -0.7312163156322965" fill="#ff5207" stroke="none" /><path d="M 79.10278846688536 102.07522291339032 l -14.717093876518259 1.4614988407745195 a35.78948379869414,35.78948379869414 0 0,0 -0.05560220752226037,-0.6135657267509264 l 14.740070680317595 -1.2079517254750272" fill="#ffb610" stroke="none" /><path d="M 79.0235259727143 100.99374915477108 l -14.77512759126374 0.699963708693567 a35.791698500564806,35.791698500564806 0 0,0 -0.02385749717337045,-0.615655993639001 l 14.784987221288311 -0.4455304680405692" fill="#ffb610" stroke="none" /><path d="M 79.0095281055655 100.63252640178507 l -7.397142374381224 0.2229053197608123 a28.400500124210794,28.400500124210794 0 0,0 -0.010518919508597596,-0.4887728562639758 l 7.399883356574829 -0.09554264770670763" fill="#ff5207" stroke="none" /><line stroke="#e1ed5e" stroke-width="0.3" x1="15.007084014347285" x2="10.007500721073583" y1="101.09737516637583" y2="101.16192664675087" /><path d="M 14.007167355692545 101.11028546245083 a86.0,86.0 0 0,1 10.666146001902534,-42.60595125391555" fill="none" id="id70" stroke="none" /><text fill="#e1ed5e" style="font-size:6.75px; font-family:Arial;" text-anchor="middle"><textPath startOffset="22.20632615414155" xlink:href="#id70">October</textPath></text><path d="M 79.00019446554 99.90962569577889 l -11.835257198195757 -0.05093395426018412 a32.83536679681458,32.83536679681458 0 0,0 0.007297258244187275,-0.5651806928730254 l 11.832626932833854 0.2546509051936815" fill="#ff8f0d" stroke="none" /><path d="M 79.01574976396665 99.18683210126434 l -11.835490104277294 -0.45864114802040507 a32.844373251088605,32.844373251088605 0 0,0 0.026754700769443533,-0.5647494471855441 l 11.825841795274354 0.6623017018289582" fill="#ff8f0d" stroke="none" /><path d="M 79.05617556472873 98.46500227214037 l -11.794724510591614 -0.8644493454594772 a32.82636034254055,32.82636034254055 0 0,0 0.04615310635431907,-0.5631847990542793 l 11.778096920417799 1.067348061721535" fill="#ff8f0d" stroke="none" /><path d="M 79.08570108090925 98.10471618934814 l -16.18883607102957 -1.4670555794108837 a37.255173496697864,37.255173496697864 0 0,0 0.06337437526234777,-0.6381713102197148 l 16.16118457008499 1.745502420335029" fill="#ffc912" stroke="none" /><path d="M 79.12142395522702 97.74499172005258 l -7.359911639719528 -0.7949134869953921 a28.402714826081453,28.402714826081453 0 0,0 0.05668322629051453,-0.4856272669941824 l 7.345138060425425 0.9214844923144363" fill="#ff5207" stroke="none" /><path d="M 79.16333360222342 97.38593545837743 l -14.679435237359858 -1.8416089412998358 a35.79450378960098,35.79450378960098 0 0,0 0.08195918828302586,-0.6106911506052891 l 14.645560050018998 2.0940184339697843" fill="#ffb610" stroke="none" /><path d="M 79.21141760316559 97.0276538004421 l -9.53842487040418 -1.3638015508759114 a30.63542960529091,30.63542960529091 0 0,0 0.07913292895438837,-0.5213871301514549 l 9.513536048010488 1.5277877934194584" fill="#ff710a" stroke="none" /><path d="M 79.26566170972629 96.67025291283419 l -7.307900123916117 -1.1735826246417016 a28.401533651750434,28.401533651750434 0 0,0 0.08167217843809291,-0.4820338203385769 l 7.286616083957801 1.2992022332961066" fill="#ff5207" stroke="none" /><path d="M 79.32604984820605 96.31383870115002 l -7.276586630341343 -1.2974139836632035 a28.391346023145392,28.391346023145392 0 0,0 0.08992522990257833,-0.48038417392235055 l 7.253175676528903 1.4224762350481268" fill="#ff5207" stroke="none" /><path d="M 79.3925641242962 95.95851677861259 l -11.60325550937491 -2.275603948858977 a32.82429328746127,32.82429328746127 0 0,0 0.11351063283943597,-0.5535181582058217 l 11.562365580620478 2.474997763228201" fill="#ff8f0d" stroke="none" /><path d="M 79.62865764111835 94.90015583598534 l -14.361783472597264 -3.5953869085919257 a35.80498671178877,35.80498671178877 0 0,0 0.15482019670311062,-0.5965853730300155 l 14.297766944023845 3.842068707170805" fill="#ffb610" stroke="none" /><path d="M 79.71946130924805 94.55025226153421 l -14.295057764364952 -3.841340701571729 a35.802181422752604,35.802181422752604 0 0,0 0.16505356210979638,-0.5937854810709072 l 14.226817431688795 4.086837486061579" fill="#ffb610" stroke="none" /><path d="M 79.81627453868168 94.20196356495316 l -9.223860456862967 -2.6496733273137885 a30.5968937927414,30.5968937927414 0 0,0 0.14977048802824927,-0.5049516307333998 l 9.176884071723011 2.808054344793727" fill="#ff710a" stroke="none" /><path d="M 79.91906864156998 93.8553929516997 l -7.0776042479957315 -2.1656912307036964 a28.401533651750434,28.401533651750434 0 0,0 0.1470719541524133,-0.46625828569883576 l 7.039276810075115 2.2871996828289465" fill="#ff5207" stroke="none" /><path d="M 80.2630227832202 92.82701384747504 l -1.778573195222806 -0.6463847407058385 a22.892388925084486,22.892388925084486 0 0,0 0.13778537706508748,-0.3691963079548505 l 1.7671832296560912 0.6769041856900304" fill="#ff0300" stroke="none" /><path d="M 80.38941819471856 92.48833698450439 l -13.82393110492152 -5.295136729784963 a35.80336259708363,35.80336259708363 0 0,0 0.2254016891075744,-0.5736227130412662 l 13.730735865932255 5.532308447721993" fill="#ffb610" stroke="none" /><path d="M 80.52162464483688 92.15188598940014 l -6.854548997243633 -2.7617951210366956 a28.390017202022996,28.390017202022996 0 0,0 0.18653365156223356,-0.4517060329744674 l 6.8059936587952 2.879375724464474" fill="#ff5207" stroke="none" /><path d="M 80.803312248108 91.48605970444005 l -6.767433715268673 -3.0014306296292266 a28.403157766455585,28.403157766455585 0 0,0 0.20206504577299278,-0.44522354362398003 l 6.714766352532329 3.1174761820952774" fill="#ff5207" stroke="none" /><path d="M 80.95270993114464 91.15688171328213 l -8.05956768701169 -3.7418294223697193 a29.88582684546771,29.88582684546771 0 0,0 0.22064536060257064,-0.464735401011489 l 7.993964132567368 3.8800072390217406" fill="#ff6709" stroke="none" /><path d="M 81.26839172434947 90.50648371742162 l -6.596893723386856 -3.3434244970210516 a28.395775426886715,28.395775426886715 0 0,0 0.22471952447868612,-0.43408659450477627 l 6.538364765748056 3.4564838137861633" fill="#ff5207" stroke="none" /><path d="M 81.43458229118936 90.18545643968196 l -6.534187814349521 -3.4542756829434733 a28.391050729562636,28.391050729562636 0 0,0 0.23211968880682865,-0.4300825304879214 l 6.4737600263242205 3.5662391967638674" fill="#ff5207" stroke="none" /><path d="M 81.6062741919709 89.86733742301443 l -12.968599636425404 -7.144090630869123 a35.806167886119795,35.806167886119795 0 0,0 0.30203757312507057,-0.537291140331424 l 12.843704422007901 7.366265281135332" fill="#ffb610" stroke="none" /><line stroke="#e1ed5e" stroke-width="0.3" x1="26.266209847984243" x2="21.928928074336255" y1="57.711370442889674" y2="55.22380399835377" /><path d="M 25.398753493254645 57.213857153982495 a86.0,86.0 0 0,1 29.58750427330803,-30.492523968695096" fill="none" id="id71" stroke="none" /><text fill="#e1ed5e" style="font-size:6.75px; font-family:Arial;" text-anchor="middle"><textPath startOffset="21.46611528233685" xlink:href="#id71">November</textPath></text><path d="M 81.78341655067845 89.55222093294921 l -6.421660095282796 -3.683022456206503 a28.40286247287283,28.40286247287283 0 0,0 0.24688894103679987,-0.4220132304579702 l 6.357311479775671 3.793015099018365" fill="#ff5207" stroke="none" /><path d="M 81.96595687620814 89.24020034530311 l -6.353507667485971 -3.7907455991685364 a28.398433069131507,28.398433069131507 0 0,0 0.25407699652933674,-0.417635777246178 l 6.287314872670417 3.899549149621789" fill="#ff5207" stroke="none" /><path d="M 82.34701348167596 88.62581576622439 l -9.959452794108147 -6.417081372049449 a32.84776912729028,32.84776912729028 0 0,0 0.3103384721828868,-0.47266678423329506 l 9.84751768656734 6.587566220260411" fill="#ff8f0d" stroke="none" /><path d="M 82.54541684631803 88.32363383020206 l -6.1507101646323115 -4.114560826472407 a28.40005718383666,28.40005718383666 0 0,0 0.27531222934466076,-0.40398672481851977 l 6.07897346961891 4.219825574561343" fill="#ff5207" stroke="none" /><path d="M 82.7489923806493 88.02491185347247 l -6.075213529923017 -4.21721554677181 a28.39548013330396,28.39548013330396 0 0,0 0.2821799218300107,-0.399123487890789 l 6.0017209882891285 4.321165534994385" fill="#ff5207" stroke="none" /><path d="M 83.17141714833178 87.43820079747576 l -9.49765407530299 -7.089582316027589 a32.85190323744885,32.85190323744885 0 0,0 0.34216674511712164,-0.4502513282391033 l 9.374211389961758 7.252018420147719" fill="#ff8f0d" stroke="none" /><path d="M 83.39014120810768 87.1503855733568 l -9.356577521117273 -7.238376617508661 a32.82960857195086,32.82960857195086 0 0,0 0.3496289520387618,-0.4439932637132508 l 9.230594488484542 7.39836227517496" fill="#ff8f0d" stroke="none" /><path d="M 83.6137871275137 86.86637796730984 l -6.505229812312374 -5.213970443051811 a29.336876075126437,29.336876075126437 0 0,0 0.319215258139733,-0.3913201620423251 l 6.414516062096248 5.3251747747022184" fill="#ff5f08" stroke="none" /><path d="M 83.84228863543731 86.58626213691792 l -9.101762629861886 -7.556061329126746 a32.82946092515948,32.82946092515948 0 0,0 0.3647030856561373,-0.43169342014206835 l 8.970348930718625 7.7116136988979305" fill="#ff8f0d" stroke="none" /><path d="M 84.07557802195018 86.31012108654704 l -5.605012583245578 -4.8185073014756385 a28.391493669936768,28.391493669936768 0 0,0 0.3217812618391953,-0.3678516077977336 l 5.521239457828539 4.914274465476315" fill="#ff5207" stroke="none" /><path d="M 84.80347519578584 85.50635884689758 l -8.63382735434952 -8.23448762555766 a32.931041917627155,32.931041917627155 0 0,0 0.3947580992455878,-0.40683292148915234 l 8.490804991400813 8.381884742596936" fill="#ff900d" stroke="none" /><path d="M 85.05521093208273 85.24692304244772 l -5.269031619379085 -5.201440356180896 a28.403896000412473,28.403896000412473 0 0,0 0.34647910909888163,-0.34499121769371277 l 5.17871671011289 5.291367424524718" fill="#ff5207" stroke="none" /><path d="M 85.31137513191541 84.99185889309783 l -8.277519677521006 -8.45757750988125 a32.83418562248356,32.83418562248356 0 0,0 0.4073264541427087,-0.3918477261609549 l 8.13070997976587 8.59880832280452" fill="#ff8f0d" stroke="none" /><path d="M 86.10567301691215 84.25364557470407 l -9.79676167810619 -11.102609128991 a35.80690612007668,35.80690612007668 0 0,0 0.4656708625078924,-0.40382518316996385 l 9.604197016951524 11.269599305580645" fill="#ffb610" stroke="none" /><path d="M 86.37877921826538 84.01681056812374 l -4.799704306638779 -5.631990287747948 a28.399761890253906,28.399761890253906 0 0,0 0.374799045716179,-0.3138834221437737 l 4.702047723963489 5.713774867285535" fill="#ff5207" stroke="none" /><path d="M 86.65592168130627 83.78471172551755 l -8.467307337392329 -10.289195409780652 a34.325270568604196,34.325270568604196 0 0,0 0.4594627095327912,-0.37152022428583786 l 8.288941229295038 10.433421731330624" fill="#ffa30f" stroke="none" /><path d="M 86.93701828274178 83.55741782278169 l -4.602630450243116 -5.793403914016497 a28.399171303088394,28.399171303088394 0 0,0 0.38537329913480306,-0.30078997266469415 l 4.502224595948888 5.871772275904412" fill="#ff5207" stroke="none" /><path d="M 87.51073957382395 83.11751280151077 l -7.036788865832209 -9.51205226667353 a32.831970920612896,32.831970920612896 0 0,0 0.4572316032890325,-0.33219820493755897 l 6.872011946189395 9.631769706427757" fill="#ff8f0d" stroke="none" /><path d="M 88.09926311788651 82.69761687909137 l -8.38055706979114 -12.184422748317585 a35.788302624363126,35.788302624363126 0 0,0 0.510571783877015,-0.34474034761709854 l 8.169580591507584 12.32687500823335" fill="#ffb610" stroke="none" /><path d="M 88.39885842347998 82.49532879139004 l -4.083077424423704 -6.1608529955786056 a28.391050729562636,28.391050729562636 0 0,0 0.4096868830327881,-0.2664717449065721 l 3.976423515606628 6.230223664644713" fill="#ff5207" stroke="none" /><path d="M 88.70189139769569 82.29822771554957 l -6.365582110043205 -9.973535300145205 a32.83182327382152,32.83182327382152 0 0,0 0.4790019925618182,-0.2999510037984846 l 6.192960965109144 10.08163064526662" fill="#ff8f0d" stroke="none" /><line stroke="#e1ed5e" stroke-width="0.3" x1="56.762969772571076" x2="54.21961505331055" y1="26.818313649435495" y2="22.513508569990535" /><path d="M 56.25429882871897 25.957352633546506 a86.0,86.0 0 0,1 42.265352541879196,-11.944610805530505" fill="none" id="id72" stroke="none" /><text fill="#e1ed5e" style="font-size:6.75px; font-family:Arial;" text-anchor="middle"><textPath startOffset="22.20632615414155" xlink:href="#id72">December</textPath></text><path d="M 89.94658935756843 81.56283822128135 l -7.0839725985961906 -12.991446732025487 a35.79730907863715,35.79730907863715 0 0,0 0.5435309200324153,-0.29033539381352214 l 6.85929663203547 13.111460852340759" fill="#ffb610" stroke="none" /><path d="M 90.26544431104013 81.39251694778311 l -6.861418325049841 -13.115516442351064 a35.80188612916985,35.80188612916985 0 0,0 0.5485181612667481,-0.28097230676179674 l 6.634639676194329 13.231681274425366" fill="#ffb610" stroke="none" /><path d="M 90.58718382345135 81.22770947309562 l -4.098504121082021 -8.173782281901238 a30.14376579000408,30.14376579000408 0 0,0 0.46583419616021376,-0.22858281696011426 l 3.957198657911381 8.243120258996182" fill="#ff6a09" stroke="none" /><path d="M 90.91171255644093 81.06846463323043 l -3.9409046863666144 -8.209178782069909 a30.106115858202834,30.106115858202834 0 0,0 0.46911319437820737,-0.22025493488175882 l 3.7990132806887984 8.275798699591675" fill="#ff6a09" stroke="none" /><path d="M 91.23893434514133 80.91482961587045 l -3.0867021403907002 -6.724094829918744 a28.398728362714266,28.398728362714266 0 0,0 0.44601944889656897,-0.20011592556501584 l 2.970500573027357 6.77623108600029" fill="#ff5207" stroke="none" /><path d="M 92.57280143429618 80.3572730644239 l -5.231627223515694 -13.836095005561086 a35.792141440938934,35.792141440938934 0 0,0 0.5781584273911685,-0.2129406280878485 l 4.9926864703519565 13.924098901455256" fill="#ffb610" stroke="none" /><path d="M 92.91201910852362 80.23233633223022 l -2.4975890895045163 -6.965524012767601 a28.399761890253906,28.399761890253906 0 0,0 0.46158808635530224,-0.16103901980970597 l 2.377318999085929 7.007483885749516" fill="#ff5207" stroke="none" /><path d="M 93.25333710446033 80.11325718540243 l -2.375895966044455 -7.0032892946530545 a28.395332486512583,28.395332486512583 0 0,0 0.46421930527418714,-0.15304580631281653 l 2.2549938385278585 7.043148825225105" fill="#ff5207" stroke="none" /><path d="M 94.28887869178378 79.79150937346287 l -2.602244034049476 -9.207898297379323 a30.568545608796935,30.568545608796935 0 0,0 0.5075864941499239,-0.13874256304207508 l 2.4433596506758293 9.251327401247693" fill="#ff700a" stroke="none" /><path d="M 95.33964822691252 79.52364482259891 l -1.6428544405416992 -7.218268634476085 a28.40286247287283,28.40286247287283 0 0,0 0.4776513112934266,-0.10439607611167581 l 1.5183604050947517 7.245478208683629" fill="#ff5207" stroke="none" /><path d="M 95.692805502759 79.44645832069477 l -1.8226139201227145 -8.697348400802433 a29.886269785841847,29.886269785841847 0 0,0 0.5044141860871315,-0.1011807404467878 l 1.6726333245684464 8.727433097326431" fill="#ff6709" stroke="none" /><path d="M 96.04723909329186 79.375362276772 l -1.3923881771097644 -7.265175506633581 a28.397399541591867,28.397399541591867 0 0,0 0.48086922976097757,-0.08787577810005581 l 1.2671238262458935 7.2880667660843725" fill="#ff5207" stroke="none" /><path d="M 96.40284397218896 79.31037775812273 l -2.026457301141241 -11.655495543077649 a32.830346805907745,32.830346805907745 0 0,0 0.5576012313332769,-0.09200898088170242 l 1.8255268636690782 11.688650786898979" fill="#ff8f0d" stroke="none" /><path d="M 97.11714578562143 79.19881850522333 l -1.2567042915993663 -9.067726673253972 a30.154396358983252,30.154396358983252 0 0,0 0.5147574745443703,-0.0668302938343015 l 1.1004320885471381 9.088015290252411" fill="#ff6a09" stroke="none" /><path d="M 97.47563105711357 79.15227682838746 l -1.7786313557895377 -14.688983650484746 a35.79627555109751,35.79627555109751 0 0,0 0.6123435270616783,-0.06880393009160846 l 1.5255211252181415 14.717423534046953" fill="#ffb610" stroke="none" /><path d="M 97.83486435360386 79.11191278185805 l -0.7621516572165233 -7.352837368822007 a28.392231903893656,28.392231903893656 0 0,0 0.4865548022875365,-0.046204241205442115 l 0.6354717278387505 7.36486715454263" fill="#ff5207" stroke="none" /><path d="M 98.19473922651362 79.07773832637324 l -0.7772080568533775 -9.007535409376704 a30.041003623205388,30.041003623205388 0 0,0 0.515574877485947,-0.040018533331172765 l 0.6220429900050963 9.019579204896338" fill="#ff6909" stroke="none" /><path d="M 98.55514903715128 79.0497635885617 l -1.0176133272490857 -14.755321018899396 a35.790369679442406,35.790369679442406 0 0,0 0.614977317447737,-0.037097111218651044 l 0.7634739609617256 14.770651399498353" fill="#ffb610" stroke="none" /><path d="M 98.91598698831166 79.02799685794201 l -0.3820265966538872 -7.390928797890221 a28.400795417793546,28.400795417793546 0 0,0 0.4884384586938769,-0.02103318748895179 l 0.2547473055706862 7.396409711903366" fill="#ff5207" stroke="none" /><path d="M 99.27714615592234 79.0124445844662 l -0.8009509399167881 -23.25504993070417 a44.268839027499794,44.268839027499794 0 0,0 0.7617894912087553,-0.019674775060003678 l 0.40053481351315384 23.265391497906535" fill="#deff1b" stroke="none" /></svg>