<?xml version="1.0" encoding="utf-8" ?>
<svg baseProfile="full" height="200mm" version="1.1" viewBox="0,0,200,200" width="200mm" xmlns="http://www.w3.org/2000/svg" xmlns:ev="http://www.w3.org/2001/xml-events" xmlns:xlink="http://www.w3.org/1999/xlink"><defs /><rect fill="#1a1a1a" height="200" width="200" x="0" y="0" /><text alignment-baseline="middle" fill="#e1ed5e" style="dominant-baseline: central; font-size:9.0px; font-family:Arial;" text-anchor="middle" x="100.0" y="100.0">2019</text><line stroke="#e1ed5e" stroke-width="0.3" x1="100.0" x2="100.0" y1="15.0" y2="10.0" /><path d="M 100.0 14.0 a86.0,86.0 0 0,1 42.46469731375804,11.215312516191453" fill="none" id="id73" stroke="none" /><text fill="#e1ed5e" style="font-size:6.75px; font-family:Arial;" text-anchor="middle"><textPath startOffset="22.20632615414155" xlink:href="#id73">January</textPath></text><path d="M 100.0 79.0 l 0.0 -7.4179747817196855 a28.417974781719685,28.417974781719685 0 0,0 0.4891687211452694,0.004210429618974212 l -0.127688241872741 7.41687572870927" fill="#ff5207" stroke="none" /><path d="M 100.36148047927253 79.00311137660856 l 0.12778509317099374 -7.422501415403434 a28.42360130204355,28.42360130204355 0 0,0 0.4891205924951912,0.012632541857841408 l -0.2555323208610527 7.419202081403233" fill="#ff5207" stroke="none" /><path d="M 100.72285384407766 79.0124445844662 l 0.2555119341350131 -7.41861016708196 a28.4230090367463,28.4230090367463 0 0,0 0.4888204897477048,0.02104963854975057 l -0.3831732562720495 7.413112802008015" fill="#ff5207" stroke="none" /><path d="M 101.08401301168833 79.027996857942 l 0.5537298001395777 -10.712807856698717 a31.727109063774282,31.727109063774282 0 0,0 0.5451592871816424,0.03288549696823274 l -0.7380511361608321 10.70168909035018" fill="#ff800b" stroke="none" /><path d="M 101.44485096284872 79.0497635885617 l 1.4259195219803396 -20.675731862526426 a41.72484341398639,41.72484341398639 0 0,0 0.7160972816057525,0.055582931177792484 l -1.7816069929484333 20.648123669160167" fill="#fdff18" stroke="none" /><path d="M 102.16513564639614 79.11191278185805 l 1.6823162746172027 -16.23010047023839 a37.31705700553486,37.31705700553486 0 0,0 0.6383585430197043,0.07172702025293576 l -1.9614415211466323 16.198737496514855" fill="#ffca12" stroke="none" /><path d="M 102.52436894288641 79.15227682838746 l 1.7846998009718056 -14.739100439315804 a35.846758405114166,35.846758405114166 0 0,0 0.6119302342367143,0.07944610691924238 l -2.038144763716366 14.706196009232425" fill="#ffb711" stroke="none" /><path d="M 102.88285421437855 79.19881850522331 l 2.0374943200941926 -14.701502745254848 a35.84202028273617,35.84202028273617 0 0,0 0.6103913455815112,0.08995581751022017 l -2.29025464610436 14.664252443583658" fill="#ffb710" stroke="none" /><path d="M 103.2404852339499 79.25152402106235 l 1.1444990047053503 -7.328103167469674 a28.4169383174495,28.4169383174495 0 0,0 0.4826424737517776,0.07964014360933702 l -1.270470684596003 7.307316760920712" fill="#ff5207" stroke="none" /><path d="M 103.59715602781102 79.31037775812273 l 1.525848176474889 -8.77616153584906 a29.9078181369496,29.9078181369496 0 0,0 0.5064460022222108,0.0925497697847296 l -1.6766892998000007 8.74859628471359" fill="#ff6709" stroke="none" /><path d="M 104.307194497241 79.44645832069477 l 2.43742150967881 -11.631154483808146 a32.88380318930162,32.88380318930162 0 0,0 0.5530073501812042,0.1208659874993356 l -2.637271584013542 11.58747499821294" fill="#ff900d" stroke="none" /><path d="M 105.01212808612495 79.60689891045804 l 4.956527431421472 -20.166875870926408 a41.767042316415385,41.767042316415385 0 0,0 0.6966963652074634,0.17760341608304778 l -5.302932685313961 20.07856945867449" fill="#fcff18" stroke="none" /><path d="M 105.36241919743992 79.69619591428918 l 3.7901100222731965 -14.350547490256364 a35.842612548033415,35.842612548033415 0 0,0 0.5951616500588552,0.1626801613226647 l -4.036569561555763 14.283180788107407" fill="#ffb710" stroke="none" /><path d="M 105.71112130821622 79.79150937346287 l 4.037093043537551 -14.285033100490773 a35.84453741024948,35.84453741024948 0 0,0 0.5923050058350068,0.17291007327592003 l -4.2823882670959845 14.21342469829615" fill="#ffb711" stroke="none" /><path d="M 106.40334571778207 80.00007090966166 l 7.810656585994199 -24.395462115229282 a46.61532603969588,46.61532603969588 0 0,0 0.7620877226760921,0.25124834032736304 l -8.229427130912708 24.257400050642683" fill="#c3ff1e" stroke="none" /><path d="M 107.08798089147638 80.2323363322302 l 5.013919589873797 -13.983315929795456 a35.85505011927565,35.85505011927565 0 0,0 0.5791746052746853,0.2133148949782261 l -5.253876520921059 13.894937767010905" fill="#ffb711" stroke="none" /><path d="M 107.76421540070413 80.48803036053334 l 8.766007852337582 -22.029538111297818 a44.70956437947284,44.70956437947284 0 0,0 0.7126196372136199,0.29069544283292525 l -9.143911359139588 21.875381782281313" fill="#d9ff1c" stroke="none" /><path d="M 108.09893153111575 80.62456947434976 l 2.8569012621012795 -6.834690688496293 a28.40775820534214,28.40775820534214 0 0,0 0.4495409264952685,0.1924699641416658 l -2.9741259463868635 6.784501196391837" fill="#ff5207" stroke="none" /><path d="M 108.43124777332544 80.76684994638697 l 2.9786439070489736 -6.794807454455513 a28.41901124598987,28.41901124598987 0 0,0 0.4463380040200537,0.20025885196326487 l -3.0951640295358076 6.742528271975717" fill="#ff5207" stroke="none" /><path d="M 108.76106565485865 80.91482961587045 l 8.689018535156782 -18.92822240435573 a41.82730531041047,41.82730531041047 0 0,0 0.6517526504852542,0.30600660845175287 l -9.013549396941634 18.775850813263972" fill="#fcff18" stroke="none" /><path d="M 109.41281617654863 81.2277094730956 l 14.011409983152816 -27.943418203642917 a52.25946625615474,52.25946625615474 0 0,0 0.8006635805774813,0.410130983913974 l -14.490334051319053 27.69809469441644" fill="#83ff25" stroke="none" /><path d="M 109.73455568895987 81.39251694778311 l 3.9446588097528794 -7.5401666285087074 a29.50966779087394,29.50966779087394 0 0,0 0.4480620833535288,0.23933924755484848 l -4.07386593963472 7.471148654452105" fill="#ff6109" stroke="none" /><path d="M 110.05341064243156 81.56283822128135 l 7.806281917005723 -14.316105022773652 a37.306100097535754,37.306100097535754 0 0,0 0.5611475405466165,0.31227799877264073 l -8.051553546624374 14.179611626440831" fill="#ffca12" stroke="none" /><path d="M 110.36928655335952 81.73862282372117 l 4.395757674659654 -7.74138012865263 a29.902339682950043,29.902339682950043 0 0,0 0.44540712189325965,0.2580085540410044 l -4.528361529018242 7.664567417221576" fill="#ff6709" stroke="none" /><line stroke="#e1ed5e" stroke-width="0.3" x1="143.23703022742887" x2="145.7803849466894" y1="26.81831364943548" y2="22.513508569990506" /><path d="M 143.74570117128098 25.957352633546492 a86.0,86.0 0 0,1 28.547481713284135,27.462654790039103" fill="none" id="id74" stroke="none" /><text fill="#e1ed5e" style="font-size:6.75px; font-family:Arial;" text-anchor="middle"><textPath startOffset="19.985693538727396" xlink:href="#id74">February</textPath></text><path d="M 111.2981086023043 82.29822771554956 l 6.382793412879174 -10.00050181058034 a32.86381423551947,32.86381423551947 0 0,0 0.4742294938982085,0.30845205438296697 l -6.553989932561662 9.889150832037846" fill="#ff8f0d" stroke="none" /><path d="M 111.60114157652 82.49532879139004 l 6.568222622087596 -9.91062617986654 a32.889577775949796,32.889577775949796 0 0,0 0.46921729069645185,0.3168176092190973 l -6.737844607190589 9.796096658348771" fill="#ff900d" stroke="none" /><path d="M 111.90073688211348 82.69761687909136 l 6.729957119263269 -9.784629104756762 a32.875659541464444,32.875659541464444 0 0,0 0.46349805027986907,0.3247100044301033 l -6.897386309126789 9.667334257562723" fill="#ff8f0d" stroke="none" /><path d="M 112.19680574252982 82.90503203632743 l 4.522150228357736 -6.338217965637253 a28.78606766395995,28.78606766395995 0 0,0 0.4008866815277067,0.29126122304081825 l -4.630582226239232 6.25943750777976" fill="#ff5708" stroke="none" /><path d="M 112.48926042617603 83.11751280151076 l 14.111806105994903 -19.075780134482034 a44.72822073633618,44.72822073633618 0 0,0 0.6150212272933869,0.4632212376701749 l -14.438073487046672 18.830042307306012" fill="#d9ff1c" stroke="none" /><path d="M 112.77801427241765 83.33499621200491 l 14.432577696097866 -18.82287473220183 a44.71918869055313,44.71918869055313 0 0,0 0.6068339493566774,0.4736435229134956 l -14.754444200613973 18.571652820065108" fill="#d9ff1c" stroke="none" /><path d="M 113.34407831869373 83.78471172551755 l 7.55097605940339 -9.175699559962375 a32.88321092400437,32.88321092400437 0 0,0 0.4339682889605443,0.3634359617445872 l -7.707801885323052 9.044362440823969" fill="#ff900d" stroke="none" /><path d="M 113.6212207817346 84.01681056812373 l 4.811901887215173 -5.646302972645077 a28.418567047016936,28.418567047016936 0 0,0 0.369585090195859,0.3205005482658938 l -4.908380776057796 5.562637430959512" fill="#ff5207" stroke="none" /><path d="M 113.89432698308785 84.25364557470407 l 9.82381509014477 -11.13326859273412 a35.847794869384344,35.847794869384344 0 0,0 0.4591744256560586,0.4122513330662482 l -10.014000503396819 10.962518250898574" fill="#ffb711" stroke="none" /><path d="M 114.16331599549186 84.49514656593476 l 6.177886746266787 -6.763051008931067 a30.15997508725337,30.15997508725337 0 0,0 0.38029160133564377,0.35343959776553086 l -6.293386231397277 6.6557068250908955" fill="#ff6a09" stroke="none" /><path d="M 114.42810811169701 84.74124197986012 l 5.100812734845645 -5.3944749113682064 a28.4241935673408,28.4241935673408 0 0,0 0.35261803386173296,0.339218269196085 l -5.192914012319797 5.3058735554098195" fill="#ff5207" stroke="none" /><path d="M 114.68862486808459 84.99185889309783 l 5.192810446096299 -5.3057677363484625 a28.424045501016487,28.424045501016487 0 0,0 0.3467248986559764,0.3452359517523377 l -5.283371144919598 5.215595933946006" fill="#ff5207" stroke="none" /><path d="M 114.94478906791727 85.2469230424477 l 15.817974858787505 -15.615061500285298 a43.22697627413422,43.22697627413422 0 0,0 0.5181797476313055,0.5340297792198159 l -16.08441887012192 15.340467525515367" fill="#ebff1a" stroke="none" /><path d="M 115.4437574822437 85.77008943001954 l 12.32019732409014 -11.351855682005 a37.75266813166151,37.75266813166151 0 0,0 0.4362345240885711,0.4817010570960201 l -12.513775488794746 11.138101837639432" fill="#ffcf13" stroke="none" /><path d="M 115.68641384162765 86.03803664274999 l 1.2779993086008254 -1.1375053404446016 a22.71090637742811,22.71090637742811 0 0,0 0.25739907158807745,0.29425163475378346 l -1.2973902437667513 1.1153381494878705" fill="#ff0000" stroke="none" /><path d="M 115.9244219780498 86.31012108654704 l 15.750800361409569 -13.540620189221771 a41.771040107171814,41.771040107171814 0 0,0 0.4640352533622445,0.5492713757275781 l -15.98154622825893 13.267489863865087" fill="#fcff18" stroke="none" /><path d="M 116.38621287248628 86.86637796730983 l 5.787059590138068 -4.638353836178134 a28.41649411847656,28.41649411847656 0 0,0 0.30263014063918586,0.38430954603981393 l -5.8660438113712186 4.538051896185282" fill="#ff5207" stroke="none" /><path d="M 116.60985879189232 87.15038557335679 l 12.057777251990842 -9.328061753665287 a36.244760684865504,36.244760684865504 0 0,0 0.37750481917139156,0.49675209141204135 l -12.216558011386347 9.11912488637221" fill="#ffbc11" stroke="none" /><path d="M 116.82858285166822 87.43820079747576 l 5.950290418079068 -4.441630889983331 a28.425230031610987,28.425230031610987 0 0,0 0.2893111621740829,0.3946201000710256 l -6.025864192766778 4.338548346240812" fill="#ff5207" stroke="none" /><path d="M 117.04232023915458 87.72973835380427 l 9.629751065014146 -6.933302713323335 a32.86603523038415,32.86603523038415 0 0,0 0.3266060376029598,0.4619610780557652 l -9.747669722420989 6.766515134935776" fill="#ff8f0d" stroke="none" /><path d="M 117.2510076193507 88.02491185347247 l 11.062522601125394 -7.679243218397916 a34.46663219619963,34.46663219619963 0 0,0 0.33412205075907514,0.4902828809933622 l -11.193069117553204 7.4876823141341475" fill="#ffa50f" stroke="none" /><path d="M 117.45458315368197 88.32363383020206 l 6.1646181986515405 -4.123864703653585 a28.41679025112519,28.41679025112519 0 0,0 0.2684755618167312,0.40890669969644616 l -6.234690395826196 4.017139939979465" fill="#ff5207" stroke="none" /><path d="M 117.65298651832404 88.62581576622439 l 8.923681458321036 -5.749712483217099 a31.615615121567153,31.615615121567153 0 0,0 0.29082211281884945,0.46001074139795983 l -9.021331167385842 5.5952540941049325" fill="#ff7e0b" stroke="none" /><line stroke="#e1ed5e" stroke-width="0.3" x1="172.23445277983987" x2="176.4835382374775" y1="55.19839476539836" y2="52.563006222186495" /><path d="M 173.08426987136738 54.67131705675599 a86.0,86.0 0 0,1 12.851231095245387,41.99856678651699" fill="none" id="id75" stroke="none" /><text fill="#e1ed5e" style="font-size:6.75px; font-family:Arial;" text-anchor="middle"><textPath startOffset="22.20632615414155" xlink:href="#id75">March</textPath></text><path d="M 117.84615892207809 88.93136811851018 l 6.307193315645657 -3.9118782546482986 a28.421824506151804,28.421824506151804 0 0,0 0.25428627659939856,0.4179797786548764 l -6.373595390531279 3.802730702786341" fill="#ff5207" stroke="none" /><path d="M 118.3937258080291 89.86733742301442 l 6.500844212039906 -3.5811592253591513 a28.421972572476115,28.421972572476115 0 0,0 0.23237249975852778,0.4305509507860919 l -6.561524811016899 3.468727291240601" fill="#ff5207" stroke="none" /><path d="M 118.56541770881063 90.18545643968196 l 6.5634883204165195 -3.4697652936618724 a28.4241935673408,28.4241935673408 0 0,0 0.22494442099633058,0.434521022993735 l -6.622242174572967 3.3562715484077925" fill="#ff5207" stroke="none" /><path d="M 118.73160827565052 90.50648371742162 l 18.52592752576782 -9.389273575850288 a41.76941137760438,41.76941137760438 0 0,0 0.3195160810781969,0.6441249223180975 l -18.684803619799425 9.068989065033241" fill="#fcff18" stroke="none" /><path d="M 118.89224826269711 90.83032412892265 l 13.341550006429488 -6.4755495203969415 a35.83002691046688,35.83002691046688 0 0,0 0.26453105175701264,0.557169858829357 l -13.451039252028258 6.244937245927044" fill="#ffb710" stroke="none" /><path d="M 119.04729006885535 91.15688171328212 l 6.731563045075425 -3.125274411578178 a28.42167643982749,28.42167643982749 0 0,0 0.20219679086322173,0.44551382646682314 l -6.784362152901993 3.008938576269292" fill="#ff5207" stroke="none" /><path d="M 119.196687751892 91.48605970444005 l 8.138013216088748 -3.6092975799655096 a29.902487749274357,29.902487749274357 0 0,0 0.20463168039934063,0.4723181316868064 l -8.19893560633077 3.4686803036921003" fill="#ff6709" stroke="none" /><path d="M 119.47837535516314 92.15188598940014 l 15.128845005398968 -6.095626472235155 a37.310690153589434,37.310690153589434 0 0,0 0.23489113793665964,0.5977723252476297 l -15.231529693217329 5.834305142091741" fill="#ffca12" stroke="none" /><path d="M 119.61058180528143 92.48833698450437 l 19.40050381929256 -7.43119446778037 a41.77503789792824,41.77503789792824 0 0,0 0.25143681454613526,0.6737256564643359 l -19.52554522234032 7.0961456742867" fill="#fcff18" stroke="none" /><path d="M 119.7369772167798 92.82701384747503 l 6.970297764908752 -2.5332070254486334 a28.41634605215225,28.41634605215225 0 0,0 0.16311918910615641,0.46115991346934226 l -7.012870034824718 2.4128494855526763" fill="#ff5207" stroke="none" /><path d="M 119.85752413597 93.16781622104841 l 15.083803055857114 -5.189736336588533 a36.95162931713221,36.95162931713221 0 0,0 0.2017606579545133,0.603238686702728 l -15.170901007583398 4.929324546963491" fill="#ffc512" stroke="none" /><path d="M 119.97218684219823 93.5106431181261 l 7.0653338926186215 -2.2956661421737006 a28.42893168971879,28.42893168971879 0 0,0 0.1472138296945325,0.46670806993834535 l -7.10380320608136 2.173707905808936" fill="#ff5207" stroke="none" /><path d="M 120.08093135843002 93.85539295169968 l 20.02609031294429 -6.127826119736148 a41.94264897704972,41.94264897704972 0 0,0 0.20530747496926685,0.6921947417833882 l -20.128603685025258 5.78220199120623" fill="#faff18" stroke="none" /><path d="M 120.18372546131832 94.20196356495316 l 8.555734571614444 -2.4577455172921465 a29.901747417652796,29.901747417652796 0 0,0 0.13785165396247048,0.4959257444566673 l -8.596772996143278 2.3101084694165275" fill="#ff6709" stroke="none" /><path d="M 120.28053869075195 94.5502522615342 l 11.457502213722158 -3.078838177319838 a32.86396230184378,32.86396230184378 0 0,0 0.1421032536325479,0.5475818038115698 l -11.508801799225008 2.881159947959418" fill="#ff8f0d" stroke="none" /><path d="M 120.37134235888165 94.90015583598534 l 7.191026159775853 -1.8002305468211097 a28.412940526693067,28.412940526693067 0 0,0 0.11468978118112616,0.4754631863363293 l -7.220948741217799 1.6761821288253744" fill="#ff5207" stroke="none" /><path d="M 120.45610955862082 95.25157060432595 l 7.227583389017581 -1.6777222142728125 a28.419751577611432,28.419751577611432 0 0,0 0.10651399853170082,0.4774813701213413 l -7.2553917745513195 1.5530626746015073" fill="#ff5207" stroke="none" /><path d="M 120.53481517161879 95.60439243477599 l 8.706296385769988 -1.8636380185815056 a29.903524213544543,29.903524213544543 0 0,0 0.10341023728621634,0.5042650424058566 l -8.737085918971202 1.7134973200122372" fill="#ff6709" stroke="none" /><path d="M 120.67395015179393 96.31383870115 l 30.972369745252163 -5.522367513240528 a52.46083645721941,52.46083645721941 0 0,0 0.15085772651159515,0.8903708414376956 l -31.06283933328398 4.988410883486995" fill="#81ff25" stroke="none" /><path d="M 120.78858239683441 97.02765380044208 l 7.354140883436829 -1.051493184510047 a28.42893168971879,28.42893168971879 0 0,0 0.06509413229300709,0.4850268942439453 l -7.371151014787672 0.9247479482014375" fill="#ff5207" stroke="none" /><path d="M 120.83666639777658 97.38593545837742 l 14.713066005180899 -1.84582809017857 a35.82839818089945,35.82839818089945 0 0,0 0.07150264381944538,0.6125909863163049 l -14.742659002003933 1.5922933655374123" fill="#ffb710" stroke="none" /><path d="M 120.91429891909075 98.10471618934814 l 6.124836872776489 -0.5550415155088324 a27.14993478030953,27.14993478030953 0 0,0 0.03817218279312816,0.46579731666963226 l -6.133483539389111 0.44953028163143144" fill="#ff4006" stroke="none" /><path d="M 120.94382443527127 98.46500227214037 l 15.902313118809063 -1.1654993852973534 a36.94496633253816,36.94496633253816 0 0,0 0.041025465725550304,0.6346457964733297 l -15.920019175539029 0.8915945245709884" fill="#ffc512" stroke="none" /><path d="M 120.96714384426684 98.82574320788733 l 5.070433267240898 -0.28396765659809614 a26.078378791261738,26.078378791261738 0 0,0 0.021243188773266666,0.44841013994299683 l -5.074570064247662 0.19664641003209954" fill="#ff3104" stroke="none" /><path d="M 120.98425023603335 99.18683210126433 l 8.349856014222892 -0.32356814246199594 a29.356123012562136,29.356123012562136 0 0,0 0.015220877950402185,0.5051068381096508 l -8.35418858662894 0.17979115692734596" fill="#ff5f08" stroke="none" /><line stroke="#e1ed5e" stroke-width="0.3" x1="184.98032266829074" x2="189.97916517819016" y1="98.17113171792111" y2="98.06355123074" /><path d="M 185.9800911702706 98.14961562048488 a86.0,86.0 0 0,1 -9.607161424134198,41.387399972396054" fill="none" id="id76" stroke="none" /><text fill="#e1ed5e" style="font-size:6.75px; font-family:Arial;" text-anchor="middle"><textPath startOffset="21.466115282336823" xlink:href="#id76">April</textPath></text><path d="M 120.99824983174949 100.27111621757518 l 11.857643599831846 0.15309844905646444 a32.85863191416854,32.85863191416854 0 0,0 -0.012170113299276971,0.5654973434754507 l -11.853251423847562 -0.35718560832202995" fill="#ff8f0d" stroke="none" /><path d="M 120.9904718944345 100.63252640178507 l 11.861243377610672 0.35742643767462556 a32.8666274956814,32.8666274956814 0 0,0 -0.021907746919692404,0.5653416031121521 l -11.853333497839776 -0.5615452878007838" fill="#ff8f0d" stroke="none" /><path d="M 120.9764740272857 100.99374915477107 l 7.420017571535281 0.35151933449388 a28.42833942442154,28.42833942442154 0 0,0 -0.027363832284546395,0.4885996074233565 l -7.412867388363205 -0.47919065825265983" fill="#ff5207" stroke="none" /><path d="M 120.95626037817324 101.35467743843564 l 14.789386326935958 0.9560316403720471 a35.82025453306227,35.82025453306227 0 0,0 -0.0450711616325173,0.6149601912710613 l -14.770738606639103 -1.2104649681398787" fill="#ffb610" stroke="none" /><path d="M 120.92983693683757 101.71520430193887 l 11.82388092334797 0.9689693945797018 a32.86351810287084,32.86351810287084 0 0,0 -0.05105645456484783,0.563403721657356 l -11.805449872506045 -1.1723545047856283" fill="#ff8f0d" stroke="none" /><path d="M 120.89721153311464 102.0752229133903 l 14.767163087029266 1.4664710243954269 a35.839799287871486,35.839799287871486 0 0,0 -0.06624850109616241,0.6133788422367545 l -14.739732284432051 -1.7204461885169728" fill="#ffb710" stroke="none" /><path d="M 120.8583938346157 102.4346265915055 l 7.367660123854492 0.8599656041081458 a28.41767864907106,28.41767864907106 0 0,0 -0.06089298332934598,0.48537699027561704 l -7.3517656312782975 -0.9866603486711577" fill="#ff5207" stroke="none" /><path d="M 120.81339534386255 102.79330883721812 l 16.16590115527848 2.1695813591485735 a37.31083821991375,37.31083821991375 0 0,0 -0.0909068783279975,0.635802495295359 l -16.126160225933884 -2.4475293264243416" fill="#ffca12" stroke="none" /><path d="M 120.70491114924044 103.5080841355445 l 8.772865769198361 1.4864082732040693 a29.897897693220678,29.897897693220678 0 0,0 -0.09033942739113406,0.5066714848339907 l -8.745979899468038 -1.6371985087712784" fill="#ff6709" stroke="none" /><path d="M 120.5718875245553 104.21870165774334 l 30.599863777079925 6.275150779868847 a52.23666404221066,52.23666404221066 0 0,0 -0.18821606659915183,0.8792828027962756 l -30.48731367175633 -6.800947402081292" fill="#83ff25" stroke="none" /><path d="M 120.41448212921028 104.9243191809786 l 7.204383182941115 1.7378193612912867 a28.41101566447701,28.41101566447701 0 0,0 -0.11876979641556547,0.4744262975226944 l -7.1734020722304885 -1.861573498211377" fill="#ff5207" stroke="none" /><path d="M 120.23288151984713 105.62410040840565 l 11.435999253724749 3.178845682969537 a32.86958882216764,32.86958882216764 0 0,0 -0.15622033271327115,0.5438234723571571 l -11.379586284125377 -3.3752266308312757" fill="#ff8f0d" stroke="none" /><path d="M 120.13307415673323 105.97154293290107 l 11.363829409748625 3.370553084650668 a32.85315346016898,32.85315346016898 0 0,0 -0.16547543213492322,0.5407832865613558 l -11.30412720510757 -3.565663343764081" fill="#ff8f0d" stroke="none" /><path d="M 120.02730092923936 106.31721596034902 l 8.49309875805279 2.678980019162735 a29.905597142084915,29.905597142084915 0 0,0 -0.15908033041701253,0.4895989140128427 l -8.44572617661953 -2.824777833153373" fill="#ff6709" stroke="none" /><path d="M 119.54520255179757 107.68017299344265 l 6.90119266288296 2.7117832814244047 a28.414865388909128,28.414865388909128 0 0,0 -0.18279876334617737,0.4536915394077423 l -6.85349128527939 -2.830174188674961" fill="#ff5207" stroke="none" /><path d="M 119.41010516605496 108.01547362559984 l 1.9793530983464955 0.8173810713448211 a23.14148324852815,23.14148324852815 0 0,0 -0.15521215282427664,0.366875680347846 l -1.96498996432991 -0.8513312773588306" fill="#ff0601" stroke="none" /><path d="M 119.26925614724726 108.34839909993367 l 8.165380409059502 3.537648466380814 a29.89878609116655,29.89878609116655 0 0,0 -0.20866350749395596,0.4704811238416799 l -8.103275816834273 -3.6776779267151816" fill="#ff6709" stroke="none" /><path d="M 119.12269723197855 108.67885076344098 l 13.50199906112481 6.12789259998644 a35.82750978295357,35.82750978295357 0 0,0 -0.2597074478278475,0.5593867379619931 l -13.39451699645713 -6.359399405227264" fill="#ffb710" stroke="none" /><path d="M 118.97047184881838 109.00673069616215 l 6.680472048292421 3.171729893790512 a28.395172567775596,28.395172567775596 0 0,0 -0.21343264369936088,0.4397344626815463 l -6.624886147978345 -3.2862533124373337" fill="#ff5207" stroke="none" /><path d="M 118.81262510543309 109.33194174019688 l 6.64624177256188 3.2968467008306157 a28.41901124598987,28.41901124598987 0 0,0 -0.22115583910374498,0.43636145161158096 l -6.588507263671866 -3.4107623641448908" fill="#ff5207" stroke="none" /><path d="M 118.64920377521936 109.65438752849418 l 9.72076351098611 5.03228015196063 a31.94609915743211,31.94609915743211 0 0,0 -0.25701015831652435,0.48616636272784747 l -9.632700844444692 -5.198861529774612" fill="#ff830c" stroke="none" /><line stroke="#e1ed5e" stroke-width="0.3" x1="174.80103733775053" x2="179.2010983576182" y1="140.37084112569926" y2="142.7455964860345" /><path d="M 175.68104954172406 140.8457921977663 a86.0,86.0 0 0,1 -30.038265399797805,32.042727171017184" fill="none" id="id77" stroke="none" /><text fill="#e1ed5e" style="font-size:6.75px; font-family:Arial;" text-anchor="middle"><textPath startOffset="22.206326154141568" xlink:href="#id77">May</textPath></text><path d="M 118.30583269289576 110.29060199501025 l 17.87301678424908 10.04729504865537 a41.50348425913957,41.50348425913957 0 0,0 -0.3554437522251137,0.6197461424475228 l -17.69742103587159 -10.353461036961209" fill="#fffe18" stroke="none" /><path d="M 118.12598468904814 110.60418214915192 l 6.41465215116423 3.7527417683131032 a28.431744949880724,28.431744949880724 0 0,0 -0.25076680485658376,0.42029958901930026 l -6.349104470609419 -3.8626034512185075" fill="#ff5207" stroke="none" /><path d="M 117.94076556474637 110.91462005526583 l 16.346869471786615 9.944941799371716 a40.13431495822414,40.13431495822414 0 0,0 -0.3641431505830811,0.5871147044432398 l -16.17326168153557 -10.22485283518023" fill="#ffed16" stroke="none" /><path d="M 117.35343817320211 111.8261652097733 l 6.135135881739895 4.18102336826294 a28.42434163366511,28.42434163366511 0 0,0 -0.2790175237560595,0.4019455530808639 l -6.0622574508217 -4.2860101835308235" fill="#ff5207" stroke="none" /><path d="M 117.14729908036423 112.12312394758627 l 6.061894745457881 4.285753751187665 a28.423897434692172,28.423897434692172 0 0,0 -0.28589054845953576,0.39707696711630874 l -5.987224404622743 -4.389464323755105" fill="#ff5207" stroke="none" /><path d="M 116.93607887273984 112.41649034213515 l 8.36842949153278 6.135217292103111 a31.376488007802863,31.376488007802863 0 0,0 -0.32308628677923457,0.4328268791471867 l -8.261581938058454 -6.278357050759613" fill="#ff7b0b" stroke="none" /><path d="M 116.71984013943494 112.70617746262583 l 7.651630098053965 5.814826523067971 a30.61039284581125,30.61039284581125 0 0,0 -0.3224195342747742,0.4167707106407473 l -7.5504037465611225 -5.945675227821971" fill="#ff710a" stroke="none" /><path d="M 116.498646956653 112.99209946851258 l 5.837120746848425 4.596525615222796 a28.42967202134035,28.42967202134035 0 0,0 -0.30606855286572987,0.38186757989139414 l -5.757134281927842 -4.696321028692441" fill="#ff5207" stroke="none" /><path d="M 116.0416608686014 113.55231037782055 l 5.667750633692959 4.788227126920488 a28.41960351128712,28.41960351128712 0 0,0 -0.31891868773635274,0.370974483580631 l -5.5844894363858275 -4.885078709662648" fill="#ff5207" stroke="none" /><path d="M 115.56566222782051 114.09645910891815 l 5.501987934745745 4.982669340035147 a28.422860970421986,28.422860970421986 0 0,0 -0.3315372328449078,0.3598181868544191 l -5.415404293905115 -5.0766387816909" fill="#ff5207" stroke="none" /><path d="M 115.32070863581623 114.36230785411682 l 5.416484522959196 5.07765143603976 a28.42434163366511,28.42434163366511 0 0,0 -0.33769938185550413,0.3540764517711594 l -5.328278589724727 -5.170135004393426" fill="#ff5207" stroke="none" /><path d="M 114.81725581225074 114.88116024355365 l 10.460167364466294 10.505280376972081 a35.82484458911595,35.82484458911595 0 0,0 -0.44073096693942265,0.4313480127225153 l -10.277786445151078 -10.683778492617169" fill="#ffb610" stroke="none" /><path d="M 114.55890576462653 115.13401014063108 l 8.223830521127345 8.548687416053571 a32.86218550595203,32.86218550595203 0 0,0 -0.4110342160007326,0.38865850669089 l -8.075460470735806 -8.688980559490382" fill="#ff8f0d" stroke="none" /><path d="M 114.29624159901734 115.38237550388516 l 5.047641592387927 5.431128023779121 a28.414569256260503,28.414569256260503 0 0,0 -0.36113625410480593,0.32988940566680036 l -4.953405788816257 -5.517210196032504" fill="#ff5207" stroke="none" /><path d="M 114.0293411484842 115.62618273729858 l 9.90770183747953 11.035411982682554 a35.83047110943981,35.83047110943981 0 0,0 -0.46248205681777343,0.40808664327498034 l -9.71627742775517 -11.204321767729823" fill="#ffb710" stroke="none" /><path d="M 113.75828350139079 115.86535959552629 l 1.386321230020159 1.5986358201558184 a23.116015840746442,23.116015840746442 0 0,0 -0.3028578096086285,0.25810199570833536 l -1.3585979438344833 -1.6222622060871006" fill="#ff0601" stroke="none" /><path d="M 113.48314897796784 116.09983520530334 l 7.613985579710838 9.091638258185009 a32.85877998049285,32.85877998049285 0 0,0 -0.43675557295872597,0.3594201023770112 l -7.456359878207421 -9.221353479419198" fill="#ff8f0d" stroke="none" /><path d="M 113.20401910651253 116.32954008644616 l 4.670849801470134 5.776485815084599 a28.428635557070166,28.428635557070166 0 0,0 -0.3831672517475145,0.3044112384710987 l -4.570725057005268 -5.856030967560824" fill="#ff5207" stroke="none" /><path d="M 112.92097659922987 116.55440617244103 l 7.29907557836609 9.351604414701834 a32.86292583757359,32.86292583757359 0 0,0 -0.4489252057356549,0.3442167046052842 l -7.137021644136942 -9.475860461134488" fill="#ff8f0d" stroke="none" /><path d="M 112.63410532772338 116.77436683061366 l 3.9013592272322613 5.179854775469566 a27.48471273957954,27.48471273957954 0 0,0 -0.3803557431357224,0.28137808575023465 l -3.8116185136779746 -5.246242809959569" fill="#ff4506" stroke="none" /><path d="M 112.34349029814194 116.9893568818739 l 11.781848942578222 16.21632387428707 a41.04447865377158,41.04447865377158 0 0,0 -0.5751556385949894,0.41035827680818077 l -11.500965976134347 -16.41672641293947" fill="#fff917" stroke="none" /><path d="M 112.04921762599082 117.19931262002967 l 6.806278036402609 9.715427786316866 a32.86233357227634,32.86233357227634 0 0,0 -0.46608665760613327,0.3205786531065475 l -6.638034494173592 -9.831147228788508" fill="#ff8f0d" stroke="none" /><path d="M 111.7513745106137 117.40417183066458 l 6.643420155312224 9.839123569921524 a32.87195788335664,32.87195788335664 0 0,0 -0.4716739339147453,0.312599763805198 l -6.473071522657515 -9.95202135481804" fill="#ff8f0d" stroke="none" /><path d="M 111.45004920935366 117.60387380957326 l 4.04603299452515 6.220571891237409 a28.420639975557304,28.420639975557304 0 0,0 -0.4123945808583234,0.2632097332780549 l -3.938356611619896 -6.289296053339273" fill="#ff5207" stroke="none" /><path d="M 111.1453310114006 117.79835938074945 l 3.9385923613621974 6.289672530146746 a28.421084174530243,28.421084174530243 0 0,0 -0.416870718391905,0.2560760433839327 l -3.8297424430379836 -6.356537040359057" fill="#ff5207" stroke="none" /><line stroke="#e1ed5e" stroke-width="0.3" x1="143.8653032363475" x2="146.44561519142675" y1="172.8068346515853" y2="177.08958963109032" /><path d="M 144.38136562736335 173.6633856474863 a86.0,86.0 0 0,1 -40.68145358897372,12.25698825130547" fill="none" id="id78" stroke="none" /><text fill="#e1ed5e" style="font-size:6.75px; font-family:Arial;" text-anchor="middle"><textPath startOffset="21.466115282336833" xlink:href="#id78">June</textPath></text><path d="M 110.8373102113329 117.98757091392108 l 10.728551231339745 17.807054731676242 a41.789252265062224,41.789252265062224 0 0,0 -0.6193408547898724,0.3659174937750621 l -10.42044250552149 -17.989090797745053" fill="#fcff18" stroke="none" /><path d="M 110.21172684928248 118.3499491758327 l 4.662615654882091 8.378481089076516 a30.588479029813037,30.588479029813037 0 0,0 -0.46228978398556503,0.2520772497409225 l -4.517703059027878 -8.457498990577209" fill="#ff700a" stroke="none" /><path d="M 109.89434966115114 118.52300852407294 l 3.4936540889628627 6.540397973209735 a28.41501345523344,28.41501345523344 0 0,0 -0.43340891974015744,0.22673906263748372 l -3.3805542666962096 -6.599566454791935" fill="#ff5207" stroke="none" /><path d="M 109.57404056367764 118.69057910512821 l 5.404877063670709 10.55147841082741 a32.855226388709355,32.855226388709355 0 0,0 -0.5055732390337941,0.2535049175798214 l -5.222449916954154 -10.642951169316534" fill="#ff8f0d" stroke="none" /><path d="M 109.2508944713604 118.85261126421891 l 3.2677572331857845 6.659437853692397 a28.417974781719685,28.417974781719685 0 0,0 -0.4410027610691094,0.21170812500682826 l -3.1526418041164423 -6.714700255198785" fill="#ff5207" stroke="none" /><path d="M 108.59647513512805 119.15986991738527 l 4.8590081367099325 10.829783412790873 a32.86988495481627,32.86988495481627 0 0,0 -0.5182161588056104,0.22717073505129273 l -4.671871303246569 -10.911818701136621" fill="#ff8f0d" stroke="none" /><path d="M 108.2653958097858 119.30500536409082 l 4.669481927159037 10.906237974060971 a32.86381423551947,32.86381423551947 0 0,0 -0.5219533332056843,0.21817653561164474 l -4.481057134455892 -10.984999552692589" fill="#ff8f0d" stroke="none" /><path d="M 107.93186726928326 119.44442032107085 l 5.040371360998085 12.356119434458309 a34.344625544966334,34.344625544966334 0 0,0 -0.5493159938946821,0.21858417056079457 l -4.826934291061536 -12.441050449425173" fill="#ffa30f" stroke="none" /><path d="M 107.59598834532513 119.57807347666477 l 5.366045319774955 13.83056750137371 a35.8350611654935,35.8350611654935 0 0,0 -0.5769953009966842,0.2181702513116314 l -5.127179798017996 -13.920886002791974" fill="#ffb710" stroke="none" /><path d="M 107.2578585660854 119.70592522655815 l 2.5643575021806106 6.962527132764177 a28.419751577611432,28.419751577611432 0 0,0 -0.46050883588682884,0.1651220844294211 l -2.4441291056640466 -7.005636758233559" fill="#ff5207" stroke="none" /><path d="M 106.91757812671514 119.82793768551818 l 2.445543560455694 7.009691027076502 a28.424045501016487,28.424045501016487 0 0,0 -0.4633529089222565,0.15719446403618564 l -2.324520918596211 -7.05074847801081" fill="#ff5207" stroke="none" /><path d="M 106.57524785965236 119.94407469862006 l 2.3236864276401925 7.0482172958687235 a28.421380307178865,28.421380307178865 0 0,0 -0.46594640870544646,0.1491813259648667 l -2.202018673843806 -7.087171468493296" fill="#ff5207" stroke="none" /><path d="M 106.2309692047433 120.05430185196036 l 4.398369967915739 14.156102541163694 a35.823660058521455,35.823660058521455 0 0,0 -0.5904507263523658,0.1778979603088034 l -4.154044267123128 -14.229715870578223" fill="#ffb610" stroke="none" /><path d="M 105.53697534728816 120.25689768951611 l 2.536856963527258 9.281033188684301 a30.62149782013467,30.62149782013467 0 0,0 -0.5096431496935222,0.13460138790856555 l -2.3767233710222384 -9.32332592589645" fill="#ff710a" stroke="none" /><path d="M 105.18746579009965 120.34920634021253 l 1.8345988453102358 7.196699113849278 a28.42685876117842,28.42685876117842 0 0,0 -0.4751978758657312,0.1167920763809175 l -1.7104476847012935 -7.2272124485442255" fill="#ff5207" stroke="none" /><path d="M 104.83641907484287 120.43548508189849 l 1.7083334528296161 7.218279113114698 a28.41767864907106,28.41767864907106 0 0,0 -0.47698376784886765,0.10855995263657986 l -1.5838295355878864 -7.246615799328962" fill="#ff5207" stroke="none" /><path d="M 104.13013068566511 120.58985236759428 l 1.4612150666554895 7.284564288525884 a28.42967202134035,28.42967202134035 0 0,0 -0.4806406797466924,0.0921159302079127 l -1.3356067723370928 -7.308637417082265" fill="#ff5207" stroke="none" /><path d="M 103.7750983002368 120.6578951692458 l 4.388513511545017 24.01459375630797 a45.4122871546588,45.4122871546588 0 0,0 -0.7701729894256355,0.13390444634422496 l -3.9744915506473313 -24.086576781173203" fill="#d1ff1d" stroke="none" /><path d="M 101.98527174616119 120.90594882070398 l 0.7008512948179936 7.380330339521917 a28.413532791990317,28.413532791990317 0 0,0 -0.4872997756224929,0.04204627509122931 l -0.5737072014539589 -7.391300866891809" fill="#ff5207" stroke="none" /><path d="M 101.62511606390274 120.93702456842531 l 0.5741540763836902 7.397058136535878 a28.419307378638496,28.419307378638496 0 0,0 -0.488050502552722,0.03365882010510913 l -0.44674081305203783 -7.405845301157272" fill="#ff5207" stroke="none" /><path d="M 101.26447882468166 120.96189622390904 l 0.4471598443087922 7.412791791321605 a28.426266495881173,28.426266495881173 0 0,0 -0.48867720835577383,0.02525902980201375 l -0.3194945675395387 -7.419390627885821" fill="#ff5207" stroke="none" /><line stroke="#e1ed5e" stroke-width="0.3" x1="102.19456741930631" x2="102.32365962044197" y1="184.97166512339345" y2="189.96999836594603" /><path d="M 102.22038585953345 185.97133177190398 a86.0,86.0 0 0,1 -42.740103519485714,-10.115201625700543" fill="none" id="id79" stroke="none" /><text fill="#e1ed5e" style="font-size:6.75px; font-family:Arial;" text-anchor="middle"><textPath startOffset="22.20632615414155" xlink:href="#id79">July</textPath></text><path d="M 100.54218724476979 120.99299961872073 l 0.19161610954680788 7.41920241293177 a28.42167643982749,28.42167643982749 0 0,0 -0.48917807362769056,0.008421644162438055 l -0.06387834602644941 -7.421401534373367" fill="#ff5207" stroke="none" /><path d="M 100.18074693466247 120.99922214144158 l 0.06392167584380039 7.42643560292673 a28.42671069485411,28.42671069485411 0 0,0 -0.48933722101250654,0.0 l 0.06392167584379527 -7.42643560292673" fill="#ff5207" stroke="none" /><path d="M 99.81925306533755 120.99922214144158 l -0.06388599246480037 7.422289899412197 a28.422564837773365,28.422564837773365 0 0,0 -0.48919336423859794,-0.008421907404171548 l 0.19163904659606626 -7.420090514728866" fill="#ff5207" stroke="none" /><path d="M 99.45781275523022 120.99299961872073 l -0.5297120385314964 20.5099709190785 a41.51681022832767,41.51681022832767 0 0,0 -0.7142465999467049,-0.024600097065556787 l 0.8826789901528445 -20.497814023586848" fill="#ffff18" stroke="none" /><path d="M 99.09653310690486 120.98055641714683 l -0.19287521714608902 4.479001284640152 a25.48315216752647,25.48315216752647 0 0,0 -0.43808199937674847,-0.022643835416869408 l 0.2699452849363264 -4.475017642461081" fill="#ff2803" stroke="none" /><path d="M 98.73552117531835 120.96189622390904 l -1.260713487076629 20.899476344205418 a41.93746665569879,41.93746665569879 0 0,0 -0.7202005806969948,-0.04966924869144376 l 1.6202768285525537 -20.87467875099769" fill="#faff18" stroke="none" /><path d="M 98.01472825383883 120.90594882070398 l -0.8413602983407863 8.85996356463368 a29.899822555436735,29.899822555436735 0 0,0 -0.5119524551529476,-0.05306596522389605 l 0.9937453500993272 -8.844168230954024" fill="#ff6709" stroke="none" /><path d="M 97.65516085044442 120.86867818915974 l -1.3241726641739806 11.784916334566706 a32.85907611314148,32.85907611314148 0 0,0 -0.5615343486130295,-0.06799398947952812 l 1.5268344358383994 -11.760376816361829" fill="#ff8f0d" stroke="none" /><path d="M 97.2962882734958 120.8252237178851 l -2.634315071474868 20.290698956206004 a41.46098922406195,41.46098922406195 0 0,0 -0.7069521343927371,-0.09797712406430951 l 2.9831957970544365 -20.24234726664909" fill="#fffe18" stroke="none" /><path d="M 96.58105272829116 120.7198165907248 l -3.3329763987990777 20.198808052928726 a41.47194613206106,41.47194613206106 0 0,0 -0.703346489047109,-0.12228580266654669 l 3.6801718593182366 -20.13844367174117" fill="#fffe18" stroke="none" /><path d="M 96.22490169976321 120.6578951692458 l -0.8002248396417195 4.378948449662427 a25.451465974123646,25.451465974123646 0 0,0 -0.4302902227352598,-0.0824661452865718 l 0.8754826769486743 -4.364525106027386" fill="#ff2803" stroke="none" /><path d="M 95.86986931433489 120.58985236759428 l -2.915295578499493 14.533560833206087 a35.823067793224205,35.823067793224205 0 0,0 -0.6035479649065075,-0.12647934423310653 l 3.1650350048353872 -14.481225508246439" fill="#ffb610" stroke="none" /><path d="M 95.51606077576429 120.51570834832081 l -2.6513186920069245 12.130780169737218 a33.41713808947436,33.41713808947436 0 0,0 -0.5608984686426668,-0.12765866533443496 l 2.859737310042454 -12.083344770825097" fill="#ff970d" stroke="none" /><path d="M 95.16358092515715 120.4354850818985 l -3.413768361964179 14.424310911527623 a35.822771660575576,35.822771660575576 0 0,0 -0.5988317296590029,-0.14717826964658517 l 3.6615533763663923 -14.363411383567007" fill="#ffb610" stroke="none" /><path d="M 94.81253420990036 120.34920634021253 l -1.8308315516826281 7.181920908368183 a28.41160792977426,28.41160792977426 0 0,0 -0.4728632622166182,-0.1248874853387201 l 1.9541852567107356 -7.149342073725881" fill="#ff5207" stroke="none" /><path d="M 94.46302465271185 120.25689768951611 l -3.283730827722018 12.01345414146618 a33.45415467055243,33.45415467055243 0 0,0 -0.5541741765377451,-0.15661515778579763 l 3.490036172364377 -11.955150190341861" fill="#ff970d" stroke="none" /><path d="M 94.11515582081647 120.15858648285463 l -3.323650340958857 11.385194033512029 a32.860408710060284,32.860408710060284 0 0,0 -0.541609990698742,-0.16318264730303034 l 3.5191353060978448 -11.326296017103274" fill="#ff8f0d" stroke="none" /><path d="M 93.76903079525671 120.05430185196036 l -2.2014475425489612 7.085333289069286 a28.419455444962807,28.419455444962807 0 0,0 -0.46591485208760697,-0.14917122253235962 l 2.3230837397275086 -7.04638921987722" fill="#ff5207" stroke="none" /><path d="M 93.42475214034765 119.94407469862007 l -8.550797023270897 25.93632030380519 a48.3095009224767,48.3095009224767 0 0,0 -0.7875144929743231,-0.26716767340851494 l 8.995981249182446 -25.78528964349855" fill="#afff20" stroke="none" /><path d="M 93.08242187328487 119.8279376855182 l -2.4421293592344706 6.999904860903879 a28.413680858314628,28.413680858314628 0 0,0 -0.46041046698066795,-0.16508681283946905 l 2.5622593868448655 -6.956830507024452" fill="#ff5207" stroke="none" /><path d="M 92.7421414339146 119.70592522655815 l -4.383781713082992 11.902474243743752 a33.68410167220936,33.68410167220936 0 0,0 -0.542361802967254,-0.20507482582752612 l 4.588013736810528 -11.825251167809592" fill="#ff9a0e" stroke="none" /><path d="M 92.40401165467489 119.57807347666478 l -5.3671700298487535 13.833466354750513 a35.83817055830405,35.83817055830405 0 0,0 -0.573204103035787,-0.22808974218242548 l 5.604495208926399 -13.739029768162021" fill="#ffb710" stroke="none" /><path d="M 92.06813273071674 119.44442032107085 l -7.277069008866146 17.839227978737714 a40.266390119510675,40.266390119510675 0 0,0 -0.6395233489460096,-0.2673208117263123 l 7.583063817309618 -17.711322123991426" fill="#ffef16" stroke="none" /><path d="M 91.7346041902142 119.30500536409082 l -8.752342886096127 20.44233939340247 a43.237192850511775,43.237192850511775 0 0,0 -0.6816638399352611,-0.2988213951739497 l 9.102927400689131 -20.28865344493407" fill="#ebff1a" stroke="none" /><path d="M 91.40352486487194 119.15986991738527 l -6.073851088635655 13.537431903953802 a35.83757829300681,35.83757829300681 0 0,0 -0.5606567344496928,-0.25737000830953993 l 6.305975818852767 -13.43087482531019" fill="#ffb710" stroke="none" /><path d="M 91.07499286063937 119.00905698771935 l -3.150376387542296 6.709875224575674 a28.41264439404444,28.41264439404444 0 0,0 -0.4409200417444296,-0.2116684147041398 l 3.265409097286968 -6.654652533371972" fill="#ff5207" stroke="none" /><path d="M 90.7491055286396 118.85261126421891 l -5.479114215893972 11.166013265451781 a33.43786737487808,33.43786737487808 0 0,0 -0.514538865600665,-0.2580004688638049 l 5.670506989177397 -11.070044955678673" fill="#ff970d" stroke="none" /><path d="M 90.10565033884886 118.52300852407294 l -10.479706535472195 19.618843090668612 a43.2423751718627,43.2423751718627 0 0,0 -0.6535306400079569,-0.35635701255248775 l 10.815859987348793 -19.435545426356356" fill="#eaff1a" stroke="none" /><line stroke="#e1ed5e" stroke-width="0.3" x1="58.666819895761336" x2="56.23545636021788" y1="174.27360380694188" y2="178.64263932499728" /><path d="M 58.180547188652646 175.14741091055294 a86.0,86.0 0 0,1 -31.652253787137756,-30.449443065178592" fill="none" id="id80" stroke="none" /><text fill="#e1ed5e" style="font-size:6.75px; font-family:Arial;" text-anchor="middle"><textPath startOffset="22.20632615414155" xlink:href="#id80">August</textPath></text><path d="M 89.7882731507175 118.34994917583269 l -5.76602503922176 10.361251135867612 a32.857595449898355,32.857595449898355 0 0,0 -0.4918488402704609,-0.27928460797178684 l 5.943522646413428 -10.260463362101191" fill="#ff8f0d" stroke="none" /><path d="M 89.4739219176387 118.17145234162733 l -10.123203288722841 17.475958725205125 a41.19624663619164,41.19624663619164 0 0,0 -0.6105521688677036,-0.3607249832191304 l 10.422523328618928 -17.299115169692243" fill="#fffb17" stroke="none" /><path d="M 89.1626897886671 117.98757091392108 l -16.152389581134678 26.809443243223868 a52.299296097394745,52.299296097394745 0 0,0 -0.7671081441379339,-0.47122047611355616 l 16.61147692520492 -26.527434300281932" fill="#83ff25" stroke="none" /><path d="M 88.8546689885994 117.79835938074946 l -6.292789287972105 10.049169929550901 a32.85685511827679,32.85685511827679 0 0,0 -0.4767657943831725,-0.3042944873681702 l 6.4648368844022 -9.939361013358926" fill="#ff8f0d" stroke="none" /><path d="M 88.54995079064634 117.60387380957326 l -12.12849190561092 18.646945275343263 a43.244300034078755,43.244300034078755 0 0,0 -0.6205048445499172,-0.41123677587268065 l 12.447671448900799 -18.435410478379268" fill="#eaff1a" stroke="none" /><path d="M 88.24862548938628 117.40417183066458 l -6.637951637848384 9.831024515847997 a32.86218550595203,32.86218550595203 0 0,0 -0.46608455758063105,-0.3205772086898546 l 6.806193080051905 -9.71530651779304" fill="#ff8f0d" stroke="none" /><path d="M 87.95078237400918 117.19931262002967 l -7.562304601289918 10.794596379844098 a34.179975792331106,34.179975792331106 0 0,0 -0.47896346716522065,-0.3417277165535997 l 7.746995396304026 -10.66282440144628" fill="#ffa10e" stroke="none" /><path d="M 87.65650970185807 116.9893568818739 l -8.71330282979947 11.99283248252631 a35.823956191170076,35.823956191170076 0 0,0 -0.4957609565819499,-0.3667521037087622 l 8.918448756799984 -11.841070430077782" fill="#ffb610" stroke="none" /><path d="M 87.36589467227662 116.77436683061367 l -7.140584854683322 9.480591354161682 a32.868848490546085,32.868848490546085 0 0,0 -0.44900611235418547,-0.34427874035033706 l 7.302719695530994 -9.356273271983978" fill="#ff8f0d" stroke="none" /><path d="M 87.07902340077011 116.55440617244103 l -7.296798005138029 9.34868637890049 a32.859224179465784,32.859224179465784 0 0,0 -0.4428836761484956,-0.35185357762211633 l 7.456639174003882 -9.221698887273243" fill="#ff8f0d" stroke="none" /><path d="M 86.79598089348748 116.32954008644616 l -13.986854191135684 17.29767992268173 a43.24504036570032,43.24504036570032 0 0,0 -0.5748086932551274,-0.4730284217723626 l 14.2825330129355 -17.054356382052188" fill="#eaff1a" stroke="none" /><path d="M 86.51685102203217 116.09983520530335 l -7.615126379887594 9.09300045442552 a32.8605567763846,32.8605567763846 0 0,0 -0.43052731562300717,-0.3669047184645763 l 7.770519172087658 -8.960571345737991" fill="#ff8f0d" stroke="none" /><path d="M 86.24171649860922 115.8653595955263 l -14.568062209747902 16.799155617362004 a43.236008319917275,43.236008319917275 0 0,0 -0.558069080233713,-0.49243107772690453 l 14.855073642888202 -16.54590139786281" fill="#ebff1a" stroke="none" /><path d="M 85.97065885151581 115.62618273729859 l -7.922818049669257 8.824605612493484 a32.8593722457901,32.8593722457901 0 0,0 -0.41762767888751,-0.38149298280704447 l 8.073545278023621 -8.686919863099863" fill="#ff8f0d" stroke="none" /><path d="M 85.70375840098266 115.38237550388516 l -13.132174028602503 14.129869776698298 a40.290080731400636,40.290080731400636 0 0,0 -0.503940973220951,-0.47650764459000444 l 13.37345083621427 -13.901727495362364" fill="#ffef16" stroke="none" /><path d="M 85.44109423537348 115.13401014063109 l -8.225062340363099 8.549967894484224 a32.86396230184378,32.86396230184378 0 0,0 -0.4043050583714973,-0.3956975945513214 l 8.37101735111039 -8.407120197010332" fill="#ff8f0d" stroke="none" /><path d="M 85.18274418774928 114.88116024355367 l -14.663332006029245 14.726572588814937 a41.781848948846616,41.781848948846616 0 0,0 -0.5052805830034862,-0.5118465629121317 l 14.914653214088265 -14.47198553192214" fill="#fcff18" stroke="none" /><path d="M 84.9287848128048 114.62390073753433 l -8.511303935275647 8.258687992339679 a32.85952031211441,32.85952031211441 0 0,0 -0.3903921448906009,-0.40932460315056735 l 8.652202631545206 -8.110956272606611" fill="#ff8f0d" stroke="none" /><path d="M 84.67929136418377 114.36230785411682 l -14.069119246126036 13.189012770385919 a40.28445421107678,40.28445421107678 0 0,0 -0.4698962743302304,-0.5099796001441652 l 14.294061928451995 -12.944881915440408" fill="#ffef16" stroke="none" /><path d="M 84.43433777217949 114.09645910891817 l -8.790976493519786 7.961218665459499 a32.860112577411655,32.860112577411655 0 0,0 -0.3760779646447726,-0.4225275800535359 l 8.926713307812896 -7.808716915665099" fill="#ff8f0d" stroke="none" /><path d="M 84.19399662182784 113.82643327865904 l -14.509865408871711 12.692625780096941 a40.277939292807034,40.277939292807034 0 0,0 -0.45199038540016323,-0.5257669313685736 l 14.726198303842654 -12.440981749566838" fill="#ffef16" stroke="none" /><path d="M 83.95833913139862 113.55231037782056 l -6.805711901415662 5.749599170902673 a29.909298800192722,29.909298800192722 0 0,0 -0.3288655587306644,-0.3961397508997379 l 6.903673460039863 -5.631598162889174" fill="#ff6709" stroke="none" /><path d="M 83.72743513129214 113.27417163493432 l -14.939544319220062 12.186774306390108 a40.27971608869878,40.27971608869878 0 0,0 -0.4336439197700205,-0.5410374657138998 l 15.147106151044943 -11.927809007097947" fill="#ffef16" stroke="none" /><path d="M 83.50135304334701 112.99209946851258 l -9.315220177077228 7.335405589903866 a32.856707051952476,32.856707051952476 0 0,0 -0.3460799813597573,-0.44735502795845183 l 9.440106975655054 -7.173972567832161" fill="#ff8f0d" stroke="none" /><path d="M 83.28015986056508 112.70617746262583 l -9.446119257031206 7.178541577672182 a32.8642584344924,32.8642584344924 0 0,0 -0.33840598166095254,-0.4533501139500019 l 9.568286505387245 -7.014878584212872" fill="#ff8f0d" stroke="none" /><path d="M 83.06392112726016 112.41649034213515 l -5.979223765696763 4.383598747862258 a28.413976990963253,28.413976990963253 0 0,0 -0.28579076759361766,-0.39693838022062894 l 6.053794325665988 -4.280026762190491" fill="#ff5207" stroke="none" /><path d="M 82.85270091963577 112.12312394758628 l -9.681210669190447 6.844606626106479 a32.856410919303855,32.856410919303855 0 0,0 -0.32252336861016456,-0.4646189674124443 l 9.797594944962746 -6.676946396507022" fill="#ff8f0d" stroke="none" /><path d="M 82.6465618267979 111.8261652097733 l -15.928326038466379 10.854967953089986 a40.275422165293726,40.275422165293726 0 0,0 -0.38548737064266075,-0.5762513154974968 l 16.11281651451977 -10.57917972338667" fill="#ffef16" stroke="none" /><path d="M 82.24976979558568 111.22182372390057 l -10.02136984729004 6.3355823898179 a32.856114786655226,32.856114786655226 0 0,0 -0.2981072223803027,-0.48064376188307023 l 10.1289417093383 -6.162142296569566" fill="#ff8f0d" stroke="none" /><path d="M 82.05923443525364 110.91462005526583 l -10.541446285339601 6.413097625196112 a33.33895907023749,33.33895907023749 0 0,0 -0.2940482287677085,-0.49284174503719863 l 10.650275389805541 -6.230693786272802" fill="#ff960d" stroke="none" /><line stroke="#e1ed5e" stroke-width="0.3" x1="26.63291911575756" x2="22.317208475507996" y1="142.92168965132927" y2="145.44649492493687" /><path d="M 25.769776987707644 143.4266507060508 a86.0,86.0 0 0,1 -11.730757126820373,-40.83630448921669" fill="none" id="id81" stroke="none" /><text fill="#e1ed5e" style="font-size:6.75px; font-family:Arial;" text-anchor="middle"><textPath startOffset="21.46611528233685" xlink:href="#id81">September</textPath></text><path d="M 81.87401531095188 110.60418214915194 l -10.238240831801212 5.989642633478704 a32.861593240654784,32.861593240654784 0 0,0 -0.2814329498849665,-0.4907020701783879 l 10.339825777838556 -5.812520717442009" fill="#ff8f0d" stroke="none" /><path d="M 81.51974371655577 109.97397251340807 l -10.433265103622903 5.6309337799529775 a32.855818654006605,32.855818654006605 0 0,0 -0.26432895961011504,-0.5000107766130322 l 10.528646571457905 -5.450507988253819" fill="#ff8f0d" stroke="none" /><path d="M 81.35079622478065 109.6543875284942 l -12.940593019738209 6.699133183749565 a35.571799240866305,35.571799240866305 0 0,0 -0.27681860714467804,-0.5461893736845223 l 13.053990296669154 -6.475389598362357" fill="#ffb310" stroke="none" /><path d="M 81.18737489456691 109.33194174019688 l -10.626346562956076 5.271164788587042 a32.861889373303406,32.861889373303406 0 0,0 -0.2470067723363484,-0.5089071120021579 l 10.715506591907143 -5.087468720619599" fill="#ff8f0d" stroke="none" /><path d="M 81.02952815118164 109.00673069616217 l -12.492863936540436 5.9313158890786735 a34.82939469076466,34.82939469076466 0 0,0 -0.25247228343040745,-0.5438028375203378 l 12.59311083681067 -5.715392984279508" fill="#ffa90f" stroke="none" /><path d="M 80.87730276802145 108.67885076344099 l -8.104624115639073 3.6782898531588994 a29.900266754409675,29.900266754409675 0 0,0 -0.20867384103674555,-0.47050442325270564 l 8.166739041407098 -3.5382370934134983" fill="#ff6709" stroke="none" /><path d="M 80.73074385275274 108.34839909993369 l -6.8056611555841675 2.9485505320790044 a28.4169383174495,28.4169383174495 0 0,0 -0.19059513712054799,-0.4505106032596372 l 6.855407273897023 -2.830965403153208" fill="#ff5207" stroke="none" /><path d="M 80.58989483394504 108.01547362559985 l -9.599513543339434 3.96415408195671 a31.385816186234536,31.385816186234536 0 0,0 -0.2019115102932595,-0.5011278099054263 l 9.666327667890082 -3.7983269042084786" fill="#ff7b0b" stroke="none" /><path d="M 80.45479744820244 107.68017299344265 l -8.279694803679682 3.2534576327181557 a29.89597283100462,29.89597283100462 0 0,0 -0.18408191924599676,-0.48057980354016 l 8.334471002519187 -3.1104542623448377" fill="#ff6709" stroke="none" /><path d="M 80.32549172779594 107.34259656027581 l -13.907431473470163 5.1903029588618965 a35.844389343925165,35.844389343925165 0 0,0 -0.2107577363360771,-0.5799147735509064 l 13.994713470811465 -4.950140388304873" fill="#ffb711" stroke="none" /><path d="M 80.20201598880116 107.00284435728193 l -6.9933783868553565 2.4736629925059685 a28.417974781719685,28.417974781719685 0 0,0 -0.15915306668354004,-0.4625733096815128 l 7.034922284482125 -2.352916979735159" fill="#ff5207" stroke="none" /><path d="M 79.97269907076064 106.31721596034903 l -12.0035306259275 3.786276319438496 a33.586525964487585,33.586525964487585 0 0,0 -0.16916929769383354,-0.5528550529335083 l 12.066926696127464 -3.5790942939529398" fill="#ff990e" stroke="none" /><path d="M 79.86692584326677 105.97154293290107 l -14.210287472835322 4.2148228865745825 a35.822179395278326,35.822179395278326 0 0,0 -0.1702532031636031,-0.5926737353344165 l 14.28073331288503 -3.96959167573557" fill="#ffb610" stroke="none" /><path d="M 79.76711848015287 105.62410040840567 l -11.601909975895323 3.2249636103346173 a33.0417899573428,33.0417899573428 0 0,0 -0.14760542271473104,-0.5492946884865616 l 11.65570347495183 -3.0247779886725166" fill="#ff920d" stroke="none" /><path d="M 79.67330655649465 105.27499134158121 l -10.04709113461148 2.607326119737718 a31.37989353326204,31.37989353326204 0 0,0 -0.1311809338498127,-0.5240026221328006 l 10.090483382756352 -2.4339956582075253" fill="#ff7b0b" stroke="none" /><path d="M 79.50377843672027 104.57218783832718 l -11.132225151033978 2.4833174393599236 a32.40584509442166,32.40584509442166 0 0,0 -0.11676282952458479,-0.5454770671913598 l 11.173322019283003 -2.2913265527524" fill="#ff890c" stroke="none" /><path d="M 79.4281124754447 104.21870165774334 l -11.614702470325147 2.381840971435877 a32.856410919303855,32.856410919303855 0 0,0 -0.10884870046833399,-0.5550171786398858 l 11.653981103769148 -2.1815600657280365" fill="#ff8f0d" stroke="none" /><path d="M 79.35854240842038 103.8639653848113 l -7.294962832910704 1.3655762314649025 a28.42167643982749,28.42167643982749 0 0,0 -0.08587888022816739,-0.48165436750772356 l 7.31738815547806 -1.2398031132239653" fill="#ff5207" stroke="none" /><path d="M 79.29508885075956 103.50808413554451 l -8.042353233686187 1.3626357335310086 a29.156973806362153,29.156973806362153 0 0,0 -0.07958221841497509,-0.49555855003721766 l 8.064617206462453 -1.2239979538005772" fill="#ff5d08" stroke="none" /><path d="M 79.23777060512086 103.15116336523772 l -11.730365608477815 1.780362679905501 a32.86470263346534,32.86470263346534 0 0,0 -0.08007398563326341,-0.5600372690192013 l 11.759273645127678 -1.5781799389058992" fill="#ff8f0d" stroke="none" /><path d="M 79.18660465613746 102.79330883721812 l -11.757952889579807 1.5780026839178147 a32.86337003654653,32.86337003654653 0 0,0 -0.07041914536699749,-0.561309874590114 l 11.783373544193653 -1.3753750550402921" fill="#ff8f0d" stroke="none" /><path d="M 79.1416061653843 102.43462659150553 l -11.793374160765948 1.3765423437218374 a32.873438546599765,32.873438546599765 0 0,0 -0.06076529648217185,-0.5626111774258352 l 11.815321758749171 -1.1733348444112202" fill="#ff8f0d" stroke="none" /><path d="M 79.10278846688536 102.07522291339032 l -11.798966842734435 1.1717106996583868 a32.8570031846011,32.8570031846011 0 0,0 -0.051046333048715815,-0.5632920315702584 l 11.817387772060227 -0.9684372795395624" fill="#ff8f0d" stroke="none" /><path d="M 79.07016306316243 101.71520430193888 l -11.834210936760277 0.969815941234483 a32.8738827455727,32.8738827455727 0 0,0 -0.041363862485864704,-0.5643770398778374 l 11.849151357910477 -0.765965764859885" fill="#ff8f0d" stroke="none" /><path d="M 79.04373962182676 101.35467743843564 l -8.880990140875253 0.5740946503672812 a29.899526422788114,29.899526422788114 0 0,0 -0.028779930273295975,-0.5138849882933403 l 8.889556422036081 -0.4211379457385033" fill="#ff6709" stroke="none" /><path d="M 79.0235259727143 100.99374915477108 l -7.410699843316528 0.3510779121399792 a28.41901124598987,28.41901124598987 0 0,0 -0.018943121139123564,-0.48883778473412604 l 7.415645097306852 -0.22346288039185636" fill="#ff5207" stroke="none" /><path d="M 79.0095281055655 100.63252640178507 l -11.861539375898198 0.35743535728028025 a32.86692362833003,32.86692362833003 0 0,0 -0.012173184367514203,-0.565640043948882 l 11.86593462295072 -0.1532054975412694" fill="#ff8f0d" stroke="none" /><line stroke="#e1ed5e" stroke-width="0.3" x1="15.007084014347285" x2="10.007500721073583" y1="101.09737516637583" y2="101.16192664675087" /><path d="M 14.007167355692545 101.11028546245083 a86.0,86.0 0 0,1 10.666146001902534,-42.60595125391555" fill="none" id="id82" stroke="none" /><text fill="#e1ed5e" style="font-size:6.75px; font-family:Arial;" text-anchor="middle"><textPath startOffset="22.20632615414155" xlink:href="#id82">October</textPath></text><path d="M 79.00175016825051 100.2711162175752 l -8.897008076472652 0.11487258208453942 a29.897749626896363,29.897749626896363 0 0,0 -0.002214857625348712,-0.5146549101506017 l 8.897667231387505 0.03829180626973767" fill="#ff6709" stroke="none" /><path d="M 79.00019446554 99.90962569577889 l -11.856893385623614 -0.05102706728361577 a32.8570031846011,32.8570031846011 0 0,0 0.007302066666463371,-0.5655531104773762 l 11.854258311839434 0.255116435821464" fill="#ff8f0d" stroke="none" /><path d="M 79.00486145842228 99.54816195383935 l -11.873502477982111 -0.25553059105138437 a32.876251806761694,32.876251806761694 0 0,0 0.017046032134532017,-0.5656748199312364 l 11.867344751391935 0.4598755584076152" fill="#ff8f0d" stroke="none" /><path d="M 79.01574976396665 99.18683210126434 l -8.893591654380048 -0.34463862927952915 a29.900266754409675,29.900266754409675 0 0,0 0.024356460810658242,-0.5141263920965058 l 8.886341585335892 0.49767612799904404" fill="#ff6709" stroke="none" /><path d="M 79.03285615573316 98.82574320788736 l -5.9284656505596365 -0.3320214287974988 a26.937755737570065,26.937755737570065 0 0,0 0.02991297826036247,-0.4627405338902298 l 5.921872081294861 0.4340210269407404" fill="#ff3d05" stroke="none" /><path d="M 79.05617556472873 98.46500227214037 l -11.835622299229511 -0.8674467928849784 a32.86736782730296,32.86736782730296 0 0,0 0.046210761933122596,-0.5638883431519083 l 11.81893705347689 1.071049053244665" fill="#ff8f0d" stroke="none" /><path d="M 79.08570108090925 98.10471618934814 l -11.80890963305198 -1.0701403540017473 a32.857299317249726,32.857299317249726 0 0,0 0.05589319875864312,-0.5628368837801592 l 11.788739308611108 1.2732527684863368" fill="#ff8f0d" stroke="none" /><path d="M 79.12142395522702 97.74499172005258 l -11.798749601601772 -1.2743339386547543 a32.86736782730296,32.86736782730296 0 0,0 0.06559332301635551,-0.5619635344368148 l 11.775065925581828 1.4772412114164308" fill="#ff8f0d" stroke="none" /><path d="M 79.21141760316559 97.0276538004421 l -11.762697185653753 -1.6818274382024405 a32.8823225260585,32.8823225260585 0 0,0 0.08493677176508335,-0.5596272027344197 l 11.732004520449367 1.8840537533289523" fill="#ff900d" stroke="none" /><path d="M 79.26566170972629 96.67025291283419 l -16.54673145972014 -2.657255327311952 a37.75873885095832,37.75873885095832 0 0,0 0.1085799976454003,-0.6408452924644205 l 16.498539600554516 2.9416864080922003" fill="#ffcf13" stroke="none" /><path d="M 79.32604984820605 96.31383870115002 l -8.76412032569744 -1.5626409527860416 a29.902339682950043,29.902339682950043 0 0,0 0.09471107035299238,-0.5059503249768101 l 8.735923531434587 1.7132693552254246" fill="#ff6709" stroke="none" /><path d="M 79.3925641242962 95.95851677861259 l -14.538126218893469 -2.851184084155918 a35.815072211711346,35.815072211711346 0 0,0 0.12385313146999002,-0.6039518545920304 l 14.486893791508484 3.101011594911351" fill="#ffb610" stroke="none" /><path d="M 79.46518482838121 95.60439243477599 l -14.497463199413772 -3.1032740437797797 a35.825881053386134,35.825881053386134 0 0,0 0.1342713299761354,-0.6019120443210062 l 14.4418974824356 3.3523642576507453" fill="#ffb710" stroke="none" /><path d="M 79.54389044137918 95.25157060432595 l -26.72450556899042 -6.203497662397375 a48.4350611654935,48.4350611654935 0 0,0 0.19550973829500196,-0.810514085668326 l 26.6137630304346 6.662596979725097" fill="#aeff20" stroke="none" /><path d="M 79.62865764111835 94.90015583598534 l -10.130922762957562 -2.5362161421938176 a31.443562052716313,31.443562052716313 0 0,0 0.13596146540239284,-0.5239149883676926 l 10.085764965684861 2.710227556110374" fill="#ff7c0b" stroke="none" /><path d="M 79.81627453868168 94.20196356495316 l -14.24973816351174 -4.093421763006985 a35.82602911971045,35.82602911971045 0 0,0 0.1753668820671666,-0.5912499467835426 l 14.177165384332866 4.338101096537067" fill="#ffb710" stroke="none" /><path d="M 79.91906864156998 93.8553929516997 l -14.172634626702374 -4.336714720338994 a35.821290997332454,35.821290997332454 0 0,0 0.18549376001444345,-0.5880659099867305 l 14.095885382919727 4.580030796752139" fill="#ffb610" stroke="none" /><path d="M 80.14247586403 93.16781622104843 l -21.022228819653954 -7.232912308482612 a43.23171439651222,43.23171439651222 0 0,0 0.2481642848480834,-0.7015938514275339 l 20.894611453996063 7.593703786336757" fill="#ebff1a" stroke="none" /><path d="M 80.2630227832202 92.82701384747504 l -11.186320386807724 -4.065431111916281 a32.90216341351634,32.90216341351634 0 0,0 0.1980324992303853,-0.5306286423732234 l 11.114683299075711 4.257382891318846" fill="#ff900d" stroke="none" /><path d="M 80.52162464483688 92.15188598940014 l -29.018492054374295 -11.691962492038556 a52.285377862909385,52.285377862909385 0 0,0 0.34353563038294627,-0.8318987779740727 l 28.812934737105152 12.18973584046594" fill="#83ff25" stroke="none" /><path d="M 80.65960295795068 91.81776055985345 l -13.65271075210362 -5.775980096887304 a35.8242523238187,35.8242523238187 0 0,0 0.2451560891367943,-0.5658540543026748 l 13.551263953124144 6.010133295776578" fill="#ffb610" stroke="none" /><path d="M 80.803312248108 91.48605970444005 l -13.556813367541773 -6.012594521569156 a35.830323043115506,35.830323043115506 0 0,0 0.2549032021474328,-0.5616454172320199 l 13.45130784843099 6.245061947643246" fill="#ffb710" stroke="none" /><path d="M 80.95270993114464 91.15688171328213 l -13.445801622175136 -6.242505562461002 a35.8242523238187,35.8242523238187 0 0,0 0.26448841831208003,-0.5570800619214421 l 13.336355010021304 6.473028040022976" fill="#ffb610" stroke="none" /><path d="M 81.26839172434947 90.50648371742162 l -7.945739688212415 -4.0270439140685115 a29.907966203273908,29.907966203273908 0 0,0 0.2366867550642973,-0.4572034749031863 l 7.875243499988003 4.163220111232033" fill="#ff6709" stroke="none" /><path d="M 81.43458229118936 90.18545643968196 l -8.375938396890605 -4.427910728656033 a30.47431989376829,30.47431989376829 0 0,0 0.24915209083740075,-0.4616409846770111 l 8.298478206834734 4.571432696665516" fill="#ff6f0a" stroke="none" /><line stroke="#e1ed5e" stroke-width="0.3" x1="26.266209847984243" x2="21.928928074336255" y1="57.711370442889674" y2="55.22380399835377" /><path d="M 25.398753493254645 57.213857153982495 a86.0,86.0 0 0,1 29.58750427330803,-30.492523968695096" fill="none" id="id83" stroke="none" /><text fill="#e1ed5e" style="font-size:6.75px; font-family:Arial;" text-anchor="middle"><textPath startOffset="21.46611528233685" xlink:href="#id83">November</textPath></text><path d="M 81.78341655067845 89.55222093294921 l -10.79894017416788 -6.193529176965783 a33.4489723492015,33.4489723492015 0 0,0 0.2907517286312543,-0.49698895278839406 l 10.6907287710663 6.378497542108069" fill="#ff970d" stroke="none" /><path d="M 82.15384107792192 88.93136811851018 l -53.53847676623425 -33.20589564446946 a84.0,84.0 0 0,0 0.7726896150161493,-1.222209409143138 l 52.95895955497213 34.12255270132681" fill="#4dd2ff" stroke="none" /><path d="M 82.54541684631803 88.32363383020206 l -12.320006268838904 -8.24155484794972 a35.822475527926954,35.822475527926954 0 0,0 0.34726569507934296,-0.5095695571928331 l 12.176316108090822 8.452402428412968" fill="#ffb610" stroke="none" /><path d="M 83.17141714833178 87.43820079747576 l -9.513725088170615 -7.101578622454799 a32.87195788335664,32.87195788335664 0 0,0 0.3423756229061845,-0.45052618692513086 l 9.390073525040322 7.264289585260956" fill="#ff8f0d" stroke="none" /><path d="M 83.39014120810768 87.1503855733568 l -13.588904980431568 -10.512563150992568 a38.18057980892393,38.18057980892393 0 0,0 0.40661575594390753,-0.5163607175722423 l 13.40593514389369 10.744916262517858" fill="#ffd513" stroke="none" /><path d="M 83.6137871275137 86.86637796730984 l -9.597652722401326 -7.692561071795277 a33.30001762694337,33.30001762694337 0 0,0 0.3623382972209176,-0.44418390903032107 l 9.463815933104016 7.85662915043368" fill="#ff950d" stroke="none" /><path d="M 83.84228863543731 86.58626213691792 l -9.136738908102009 -7.585097782195725 a32.874919209842886,32.874919209842886 0 0,0 0.365208082577362,-0.43229117721257 l 9.004820212037522 7.741247909037411" fill="#ff8f0d" stroke="none" /><path d="M 84.07557802195018 86.31012108654704 l -8.999543073010521 -7.7367112674947105 a32.867960092600214,32.867960092600214 0 0,0 0.37251628236369455,-0.42585050669233293 l 8.865034927068983 7.890477330389987" fill="#ff8f0d" stroke="none" /><path d="M 84.5562425177563 85.77008943001954 l -8.71777306388073 -8.03257440496823 a32.85418992443917,32.85418992443917 0 0,0 0.3867918742623981,-0.4126026031796015 l 8.578213867647875 8.181446425025882" fill="#ff8f0d" stroke="none" /><path d="M 84.80347519578584 85.50635884689758 l -10.724160249627035 -10.228136519959909 a35.81966226776502,35.81966226776502 0 0,0 0.4293851930895931,-0.44251918550288094 l 10.546510792834324 10.411219901012913" fill="#ffb610" stroke="none" /><path d="M 85.31137513191541 84.99185889309783 l -8.297518694063491 -8.478011557653895 a32.862777771249284,32.862777771249284 0 0,0 0.4076811557548324,-0.3921889488307882 l 8.150354294696232 8.619583593246997" fill="#ff8f0d" stroke="none" /><path d="M 85.57189188830299 84.74124197986013 l -6.121667041584167 -6.474101479158631 a29.910039131814283,29.910039131814283 0 0,0 0.3771401217853223,-0.3505106409841584 l 6.009319036003989 6.578516706217437" fill="#ff6709" stroke="none" /><path d="M 86.10567301691215 84.25364557470407 l -9.809316150862562 -11.116837034947523 a35.825881053386134,35.825881053386134 0 0,0 0.46591763260108643,-0.40403917976306886 l 9.616504719614701 11.284041208130272" fill="#ffb710" stroke="none" /><path d="M 86.37877921826538 84.01681056812374 l -7.6950285393956745 -9.029374150794187 a32.86351810287084,32.86351810287084 0 0,0 0.4337083976770709,-0.36321831026875323 l 7.538462604759493 9.160493618456753" fill="#ff8f0d" stroke="none" /><path d="M 86.65592168130627 83.78471172551755 l -7.542037877514892 -9.164838173172644 a32.86914462319471,32.86914462319471 0 0,0 0.43997165931771215,-0.3557598171902629 l 7.3831628196326795 9.29330408762704" fill="#ff8f0d" stroke="none" /><path d="M 86.93701828274178 83.55741782278169 l -9.863528268326034 -12.415379399559228 a36.85657073692374,36.85657073692374 0 0,0 0.500139180404145,-0.3903665633816594 l 9.648356532762463 12.583324352164109" fill="#ffc412" stroke="none" /><path d="M 87.22198572758235 83.33499621200491 l -7.215523041113448 -9.410438605635575 a32.85833578151991,32.85833578151991 0 0,0 0.4518081351434378,-0.34029252042508423 l 7.05246875221162 9.533247715566512" fill="#ff8f0d" stroke="none" /><path d="M 87.51073957382395 83.11751280151077 l -4.783628758695333 -6.4663197439406614 a29.04340693561465,29.04340693561465 0 0,0 0.40447049463636026,-0.29386501567668083 l 4.671612947705191 6.54770399443401" fill="#ff5b08" stroke="none" /><path d="M 87.80319425747018 82.90503203632743 l -5.170223331351062 -7.246553243550007 a29.901895483977107,29.901895483977107 0 0,0 0.4215723866775999,-0.2953383977840603 l 5.044719805089802 7.33447648409801" fill="#ff6709" stroke="none" /><path d="M 88.39885842347998 82.49532879139004 l -10.652431936567936 -16.073187055928702 a40.28267741518502,40.28267741518502 0 0,0 0.5812847403093162,-0.37808376458416043 l 10.374180170474332 16.2541697446724" fill="#ffef16" stroke="none" /><path d="M 88.70189139769569 82.29822771554957 l -3.991625738939784 -6.254042367857213 a28.419307378638496,28.419307378638496 0 0,0 0.4146253087457644,-0.2596383302987999 l 3.883381277821777 6.321825039478943" fill="#ff5207" stroke="none" /><line stroke="#e1ed5e" stroke-width="0.3" x1="56.762969772571076" x2="54.21961505331055" y1="26.818313649435495" y2="22.513508569990535" /><path d="M 56.25429882871897 25.957352633546506 a86.0,86.0 0 0,1 42.265352541879196,-11.944610805530505" fill="none" id="id84" stroke="none" /><text fill="#e1ed5e" style="font-size:6.75px; font-family:Arial;" text-anchor="middle"><textPath startOffset="22.20632615414155" xlink:href="#id84">December</textPath></text><path d="M 89.3179101791058 81.91981866633112 l -9.051074280265949 -15.31957388446824 a38.79357439157667,38.79357439157667 0 0,0 0.5778455632873744,-0.33472544760636297 l 8.786031984513254 15.47310348946465" fill="#ffdd14" stroke="none" /><path d="M 89.63071344664047 81.73862282372117 l -5.86025474706182 -10.320509683523248 a32.868256225248835,32.868256225248835 0 0,0 0.4943947797982802,-0.275130159687874 l 5.681735878191494 10.419855240771307" fill="#ff8f0d" stroke="none" /><path d="M 89.94658935756843 81.56283822128135 l -7.0977927385075255 -13.016791778041451 a35.82617718603476,35.82617718603476 0 0,0 0.5439692409391335,-0.2905695296618767 l 6.872678451040087 13.137040034205077" fill="#ffb710" stroke="none" /><path d="M 90.58718382345135 81.22770947309562 l -15.272196630667285 -30.457846701518996 a55.072282219114655,55.072282219114655 0 0,0 0.8510732367339774,-0.4176179410948753 l 14.745652126922883 30.7162198027487" fill="#65ff29" stroke="none" /><path d="M 90.91171255644093 81.06846463323043 l -5.135907143474966 -10.69845208252615 a32.86736782730296,32.86736782730296 0 0,0 0.5121389947773226,-0.24045612508214026 l 4.950989937398035 10.785273190248297" fill="#ff8f0d" stroke="none" /><path d="M 91.23893434514133 80.91482961587045 l -4.954449187500898 -10.792808846322036 a32.875659541464444,32.875659541464444 0 0,0 0.5163323992368275,-0.2316632968093824 l 4.767934669797295 10.876492473647946" fill="#ff8f0d" stroke="none" /><path d="M 91.56875222667455 80.76684994638697 l -4.763892283941724 -10.867271084854133 a32.86559103141121,32.86559103141121 0 0,0 0.5200842718837677,-0.22267294313005756 l 4.576124254267648 10.947663555946976" fill="#ff8f0d" stroke="none" /><path d="M 92.23578459929587 80.48803036053334 l -4.387219195232478 -11.025362296272474 a32.86618329670846,32.86618329670846 0 0,0 0.5274503368189137,-0.20464253625310094 l 4.196785693413888 11.099247536416126" fill="#ff8f0d" stroke="none" /><path d="M 92.57280143429618 80.3572730644239 l -3.1505873107755042 -8.33236457660128 a29.908114269598222,29.908114269598222 0 0,0 0.4831124268124446,-0.17793438394850958 l 3.0066925581904904 8.385362228356113" fill="#ff6709" stroke="none" /><path d="M 92.91201910852362 80.23233633223022 l -4.008007188376895 -11.177927718895864 a32.87477114351857,32.87477114351857 0 0,0 0.5343214763611379,-0.18641427142519276 l 3.8150037079524717 11.245262843493267" fill="#ff8f0d" stroke="none" /><path d="M 93.59665428221793 80.00007090966166 l -3.6173933200944957 -11.298407595398816 a32.86337003654653,32.86337003654653 0 0,0 0.5402340970778959,-0.16785336368693535 l 3.4223738503058714 11.359001093968276" fill="#ff8f0d" stroke="none" /><path d="M 93.94186890950719 79.89281104454417 l -3.360736778515459 -11.154425090141658 a32.64971033056394,32.64971033056394 0 0,0 0.5395128034858264,-0.15749858175269282 l 3.1682337573062114 11.21062200081305" fill="#ff8c0c" stroke="none" /><path d="M 94.28887869178378 79.79150937346287 l -4.029361617345019 -14.257675871444187 a35.816108675981525,35.816108675981525 0 0,0 0.5947215569098716,-0.16255986724043392 l 3.7833421712114252 14.324922279510917" fill="#ffb610" stroke="none" /><path d="M 94.63758080256005 79.69619591428918 l -3.0291615838957653 -11.469357593815722 a32.86262970492497,32.86262970492497 0 0,0 0.548166051431977,-0.1397397319362817 l 2.831286643778789 11.519800321920867" fill="#ff8f0d" stroke="none" /><path d="M 94.98787191387505 79.60689891045804 l -4.245286683606501 -17.27301437737349 a38.78705947330693,38.78705947330693 0 0,0 0.649731846432611,-0.15377053605656943 l 3.9473311502113564 17.343530825570927" fill="#ffdd14" stroke="none" /><path d="M 95.33964822691252 79.52364482259891 l -2.634347123871793 -11.574625692520929 a32.87062528643783,32.87062528643783 0 0,0 0.5527857372156559,-0.12081755148864932 l 2.434718662502616 11.618256742105446" fill="#ff8f0d" stroke="none" /><path d="M 95.692805502759 79.44645832069477 l -2.4331698399634485 -11.610865901354462 a32.863073903897906,32.863073903897906 0 0,0 0.5546560609383516,-0.11125878789092371 l 2.2329473695579605 11.651028645322596" fill="#ff8f0d" stroke="none" /><path d="M 96.40284397218896 79.31037775812273 l -2.110560928265122 -12.139231099976382 a33.32133917764433,33.32133917764433 0 0,0 0.5659404046193264,-0.09338501592669453 l 1.90129131750691 12.173762378842703" fill="#ff950d" stroke="none" /><path d="M 96.75951476605007 79.25152402106235 l -1.8382081554851997 -11.769847724898284 a32.91252805621819,32.91252805621819 0 0,0 0.5605019507340959,-0.08260341756045532 l 1.6353372243224549 11.799745626619707" fill="#ff900d" stroke="none" /><path d="M 97.11714578562143 79.19881850522333 l -2.2397822865900476 -16.161107842280714 a37.315576342291735,37.315576342291735 0 0,0 0.637004024569153,-0.08270140452699656 l 1.9612635335130368 16.197267569971846" fill="#ffca12" stroke="none" /><path d="M 97.47563105711357 79.15227682838746 l -1.4842922729646948 -12.258158420040315 a33.347694983371916,33.347694983371916 0 0,0 0.5704572571061493,-0.0640975196170054 l 1.2730683123488278 12.28189189312792" fill="#ff960d" stroke="none" /><path d="M 98.19473922651362 79.07773832637324 l -1.2751148484645893 -14.7780791093029 a35.83298823695312,35.83298823695312 0 0,0 0.6149790716696182,-0.047734211949175334 l 1.020545587432637 14.797838583440535" fill="#ffb710" stroke="none" /><path d="M 98.55514903715128 79.0497635885617 l -0.8167685766576662 -11.843086390498366 a32.87121755173508,32.87121755173508 0 0,0 0.5648182282626243,-0.03407137798047434 l 0.612788299555419 11.855391037859146" fill="#ff8f0d" stroke="none" /><path d="M 99.27714615592234 79.0124445844662 l -0.5101778191393865 -14.812655889831134 a35.82143906365677,35.82143906365677 0 0,0 0.6164244745997738,-0.01592042554956698 l 0.25512670934473375 14.819243107523063" fill="#ffb610" stroke="none" /><path d="M 99.63851952072746 79.00311137660856 l -0.20429761879066752 -11.866793903793466 a32.86855235789746,32.86855235789746 0 0,0 0.5657780980632003,-0.00486983071255022 l 2.9069569311223782e-15 11.868552357897457" fill="#ff8f0d" stroke="none" /></svg>