<?xml version="1.0" encoding="utf-8" ?>
<svg baseProfile="full" height="200mm" version="1.1" viewBox="0,0,200,200" width="200mm" xmlns="http://www.w3.org/2000/svg" xmlns:ev="http://www.w3.org/2001/xml-events" xmlns:xlink="http://www.w3.org/1999/xlink"><defs /><rect fill="#1a1a1a" height="200" width="200" x="0" y="0" /><text alignment-baseline="middle" fill="#e1ed5e" style="dominant-baseline: central; font-size:9.0px; font-family:Arial;" text-anchor="middle" x="100.0" y="100.0">2024</text><line stroke="#e1ed5e" stroke-width="0.3" x1="100.0" x2="100.0" y1="15.0" y2="10.0" /><path d="M 100.0 14.0 a86.0,86.0 0 0,1 42.35913384403234,11.155469271406648" fill="none" id="id133" stroke="none" /><text fill="#e1ed5e" style="font-size:6.75px; font-family:Arial;" text-anchor="middle"><textPath startOffset="22.145653131862478" xlink:href="#id133">January</textPath></text><path d="M 100.0 79.0 l 0.0 -42.45677713250573 a63.45677713250573,63.45677713250573 0 0,0 1.0893199614275673,0.00935050174207068 l -0.7288270365787125 42.45052102895809" fill="#32ff48" stroke="none" /><path d="M 100.36049292484886 79.00309439819443 l 0.30293606823779395 -17.644507255830256 a38.6471075976344,38.6471075976344 0 0,0 0.6632334775172826,0.01708254172973628 l -0.6057828598258179 17.636706996750473" fill="#ffbe11" stroke="none" /><path d="M 100.72087961077811 79.0123766808444 l 1.697681277420538 -49.426138059343955 a70.45528531088496,70.45528531088496 0 0,0 1.2083894665951935,0.05189344307546061 l -2.545896504616568 49.389712047842664" fill="#3bff9d" stroke="none" /><path d="M 101.08105385017728 79.02784411241856 l 2.484284815642116 -48.19446174143332 a69.25844810591934,69.25844810591934 0 0,0 1.186811605402659,0.07139563906782753 l -3.311240773177237 48.144714124540805" fill="#3aff8f" stroke="none" /><path d="M 101.44090949804482 79.04949213459386 l 3.0388966715035197 -44.18489065751919 a65.28927020619105,65.28927020619105 0 0,0 1.1174756200286975,0.08649968039997852 l -3.7969412863074505 44.12621321012416" fill="#34ff5f" stroke="none" /><path d="M 101.80034050326958 79.07731436759882 l 4.68909614269985 -54.49440498374618 a75.69577494805264,75.69577494805264 0 0,0 1.2936784132745665,0.12251269076947638 l -5.62387411935943 54.405880537471525" fill="#42ffd7" stroke="none" /><path d="M 102.15924093988457 79.11130261209362 l 1.6013114418716121 -15.491235607470609 a36.57377857104801,36.57377857104801 0 0,0 0.6239558002289819,0.06991554886291279 l -1.8670031437013905 15.461464298100724" fill="#ffa10e" stroke="none" /><path d="M 102.51750503828377 79.15144685158666 l 7.547761846973741 -62.50629556851793 a83.9603501784858,83.9603501784858 0 0,0 1.4294136795535286,0.18506621867703896 l -8.61965334841806 62.36751775364049" fill="#4dd2ff" stroke="none" /><path d="M 102.87502721639298 79.19773525538626 l 8.133834790903471 -58.85237668170864 a80.4117960466727,80.4117960466727 0 0,0 1.3657556601354095,0.20071904966075016 l -9.142915556646562 58.70407655874901" fill="#48f5ff" stroke="none" /><path d="M 103.23170211078529 79.25015418208739 l 6.874910751667827 -44.14185875391611 a65.67402032606958,65.67402032606958 0 0,0 1.1124631664253748,0.18305539069341253 l -7.631651421146272 44.01733736472703" fill="#35ff64" stroke="none" /><path d="M 103.58742460773223 79.30868818359171 l 6.201574650138093 -35.76903457766502 a57.302663301188126,57.302663301188126 0 0,0 0.9677744927595308,0.1763607508453281 l -6.814683876448677 35.657305652888326" fill="#5cff2a" stroke="none" /><path d="M 103.94208987418118 79.37332000966035 l 2.7615921109304717 -14.449816862138716 a35.71134250626032,35.71134250626032 0 0,0 0.6011469086843214,0.12024621783795006 l -3.00923550514575 14.400281247637906" fill="#ff950d" stroke="none" /><path d="M 104.29559338865022 79.4440306129975 l 12.88678016595065 -61.66790816100754 a84.0,84.0 0 0,0 1.4089503335234634,0.30707416746512495 l -13.943492916093248 61.4376025354087" fill="#4dd2ff" stroke="none" /><path d="M 104.64783097203109 79.52079915486377 l 9.802103167178744 -43.18987516400091 a65.28822126911396,65.28822126911396 0 0,0 1.0908351229927546,0.25743411883623946 l -10.542070443911383 43.01524490151844" fill="#34ff5f" stroke="none" /><path d="M 104.9986988182912 79.60360301121754 l 10.546315036719552 -43.03256428864662 a65.30605319942458,65.30605319942458 0 0,0 1.0865518718199878,0.2761972368885986 l -11.283472201764935 42.84518181992276" fill="#34ff5f" stroke="none" /><path d="M 105.3480935250658 79.69241777938227 l 11.849689386803902 -44.9952006978675 a67.52938022803559,67.52938022803559 0 0,0 1.118474972698276,0.3048453274461961 l -12.620345760436871 44.78515487627717" fill="#37ff7a" stroke="none" /><path d="M 105.69591212413111 79.78721728523813 l 10.474420958196243 -37.170024796206825 a59.61766743033726,59.61766743033726 0 0,0 0.9826694602940267,0.28604075831342857 l -11.110950430871874 36.98474034359088" fill="#43ff2d" stroke="none" /><path d="M 106.04205211174951 79.88797359093562 l 4.411665400871497 -14.684999303091358 a36.33336219297778,36.33336219297778 0 0,0 0.5957968385914127,0.18457938358113563 l -4.66310287233454 14.607103331703577" fill="#ff9e0e" stroke="none" /><path d="M 106.38641147887787 79.99465700312896 l 14.713432540946664 -46.08961787327239 a69.38117374393947,69.38117374393947 0 0,0 1.1314987829814631,0.3719461243875695 l -15.50245406157587 45.8302508274828" fill="#3aff90" stroke="none" /><path d="M 106.72888874123014 80.10723608172694 l 14.18438919625899 -41.93362625795162 a65.26766210240291,65.26766210240291 0 0,0 1.058250581808776,0.36811448580915274 l -14.902145550112785 41.68395333957388" fill="#34ff5f" stroke="none" /><path d="M 107.06938296918511 80.22567764915836 l 20.03603116214171 -56.04434510885866 a80.51815826629016,80.51815826629016 0 0,0 1.2975342021972718,0.4764725317682495 l -20.995154515993107 55.69214172808169" fill="#48f4ff" stroke="none" /><path d="M 107.40779381753099 80.34994680014964 l 15.722296427988438 -41.70525919642305 a65.57038534285257,65.57038534285257 0 0,0 1.0498372529169044,0.4060996025011116 l -16.43590594339887 41.4292197057839" fill="#35ff62" stroke="none" /><path d="M 107.74402155503746 80.48000691201159 l 4.652694712988137 -11.727830041868893 a33.61703473813203,33.61703473813203 0 0,0 0.5345837513716765,0.21741055778356658 l -4.853332925550254 11.646232227506033" fill="#ff780b" stroke="none" /><path d="M 108.07796709384702 80.6158196554323 l 15.511911170481874 -37.222939896173465 a61.3257565666791,61.3257565666791 0 0,0 0.9682604698165459,0.4132928182381673 l -16.148606715468848 36.951172428275896" fill="#31ff2f" stroke="none" /><path d="M 108.4095320186766 80.7573450057729 l 10.928885599022706 -25.00742902058251 a48.29124487186318,48.29124487186318 0 0,0 0.7567619736546135,0.33849000519200356 l -11.35656097553295 24.816135264480653" fill="#c4ff1e" stroke="none" /><path d="M 108.73861861582097 80.90454125486305 l 9.617590304208358 -21.01617051339714 a44.11227955671586,44.11227955671586 0 0,0 0.685864625339191,0.3210192759938777 l -9.976943643419053 20.847975005832726" fill="#f8ff18" stroke="none" /><path d="M 109.06512990194946 81.05736502329252 l 1.9909513116144864 -4.160322506156237 a25.61217632798764,25.61217632798764 0 0,0 0.3949638475195954,0.1931966097126308 l -2.0620754083961486 4.125532146346385" fill="#ff0000" stroke="none" /><path d="M 109.3889696526874 81.21577127319529 l 20.994994742569656 -42.00405347455877 a67.95881506739838,67.95881506739838 0 0,0 1.039034550606795,0.5305384449541127 l -21.71295651489003 41.63745707793183" fill="#38ff7f" stroke="none" /><path d="M 109.71004243097381 81.37971332152246 l 10.284650708055821 -19.722173814723558 a43.24271071980393,43.24271071980393 0 0,0 0.6552530565118116,0.3488853453173549 l -10.621692580354193 19.54271800168363" fill="#fffb17" stroke="none" /><path d="M 110.02825361518725 81.54914285379988 l 11.061186712398653 -20.351337703389703 a44.16304811124727,44.16304811124727 0 0,0 0.6629836945624982,0.36774587946664367 l -11.40891459511725 20.158458908489912" fill="#f7ff18" stroke="none" /><path d="M 110.34350942703115 81.72400993836675 l 19.079749141028238 -33.71208854594469 a59.736826682295266,59.736826682295266 0 0,0 0.8881089160157415,0.5127499217313951 l -19.655650524904377 33.37959172693712" fill="#42ff2d" stroke="none" /><line stroke="#e1ed5e" stroke-width="0.3" x1="143.13028292997686" x2="145.6673583964461" y1="26.7553504044142" y2="22.446841604673864" /><path d="M 143.63769802327073 25.89364864446614 a86.0,86.0 0 0,1 29.32050498858742,28.57503671076993" fill="none" id="id134" stroke="none" /><text fill="#e1ed5e" style="font-size:6.75px; font-family:Arial;" text-anchor="middle"><textPath startOffset="20.669276256404974" xlink:href="#id134">February</textPath></text><line stroke="#e1ed5e" stroke-width="0.3" x1="172.87174338648825" x2="177.1583165268699" y1="56.24261187166439" y2="53.66864786411523" /><path d="M 173.72905801456457 55.72781907015455 a86.0,86.0 0 0,1 12.242430191666344,42.057860355516425" fill="none" id="id135" stroke="none" /><text fill="#e1ed5e" style="font-size:6.75px; font-family:Arial;" text-anchor="middle"><textPath startOffset="22.145653131862474" xlink:href="#id135">March</textPath></text><line stroke="#e1ed5e" stroke-width="0.3" x1="184.99686870605535" x2="189.99668451229388" y1="99.2704041080226" y2="99.22748670261217" /><path d="M 185.99683186730306 99.26182062694052 a86.0,86.0 0 0,1 -10.086455211305974,41.156179273409016" fill="none" id="id136" stroke="none" /><text fill="#e1ed5e" style="font-size:6.75px; font-family:Arial;" text-anchor="middle"><textPath startOffset="21.40746469413373" xlink:href="#id136">April</textPath></text><line stroke="#e1ed5e" stroke-width="0.3" x1="174.33088141563837" x2="178.70328620479359" y1="141.23008692659167" y2="143.65538615756765" /><path d="M 175.20536237346943 141.71514677278685 a86.0,86.0 0 0,1 -30.301960400862466,31.631185727798858" fill="none" id="id137" stroke="none" /><text fill="#e1ed5e" style="font-size:6.75px; font-family:Arial;" text-anchor="middle"><textPath startOffset="22.145653131862474" xlink:href="#id137">May</textPath></text><line stroke="#e1ed5e" stroke-width="0.3" x1="143.1302829299769" x2="145.66735839644613" y1="173.24464959558577" y2="177.55315839532614" /><path d="M 143.63769802327073 174.10635135553383 a86.0,86.0 0 0,1 -40.68552437913181,11.842963189579606" fill="none" id="id138" stroke="none" /><text fill="#e1ed5e" style="font-size:6.75px; font-family:Arial;" text-anchor="middle"><textPath startOffset="21.407464694133747" xlink:href="#id138">June</textPath></text><line stroke="#e1ed5e" stroke-width="0.3" x1="101.45913802915013" x2="101.54496967792366" y1="184.9874750549273" y2="189.98673829345242" /><path d="M 101.47630435890484 185.9873277026323 a86.0,86.0 0 0,1 -42.54439059252881,-10.42667462771756" fill="none" id="id139" stroke="none" /><text fill="#e1ed5e" style="font-size:6.75px; font-family:Arial;" text-anchor="middle"><textPath startOffset="22.145653131862474" xlink:href="#id139">July</textPath></text><line stroke="#e1ed5e" stroke-width="0.3" x1="58.13341422392154" x2="55.67067388415222" y1="173.97424548756322" y2="178.32567169271397" /><path d="M 57.64086615596768 174.84453072859336 a86.0,86.0 0 0,1 -31.369924170532247,-30.572349798747897" fill="none" id="id140" stroke="none" /><text fill="#e1ed5e" style="font-size:6.75px; font-family:Arial;" text-anchor="middle"><textPath startOffset="22.145653131862474" xlink:href="#id140">August</textPath></text><line stroke="#e1ed5e" stroke-width="0.3" x1="26.387840678322732" x2="22.057713659400548" y1="142.50000000000003" y2="145.00000000000006" /><path d="M 25.521815274538298 143.00000000000003 a86.0,86.0 0 0,1 -11.493303480769221,-40.785679425670985" fill="none" id="id141" stroke="none" /><text fill="#e1ed5e" style="font-size:6.75px; font-family:Arial;" text-anchor="middle"><textPath startOffset="21.40746469413373" xlink:href="#id141">September</textPath></text><line stroke="#e1ed5e" stroke-width="0.3" x1="15.003131293944662" x2="10.003315487706104" y1="100.72959589197737" y2="100.7725132973878" /><path d="M 14.003168132696942 100.73817937305945 a86.0,86.0 0 0,1 10.791469493833604,-42.45332614584628" fill="none" id="id142" stroke="none" /><text fill="#e1ed5e" style="font-size:6.75px; font-family:Arial;" text-anchor="middle"><textPath startOffset="22.145653131862435" xlink:href="#id142">October</textPath></text><line stroke="#e1ed5e" stroke-width="0.3" x1="26.387840678322718" x2="22.05771365940052" y1="57.49999999999999" y2="54.99999999999999" /><path d="M 25.521815274538284 56.99999999999999 a86.0,86.0 0 0,1 29.574782752854787,-30.34633250058573" fill="none" id="id143" stroke="none" /><text fill="#e1ed5e" style="font-size:6.75px; font-family:Arial;" text-anchor="middle"><textPath startOffset="21.40746469413373" xlink:href="#id143">November</textPath></text><line stroke="#e1ed5e" stroke-width="0.3" x1="56.869717070023135" x2="54.33264160355391" y1="26.7553504044142" y2="22.446841604673864" /><path d="M 56.362301976729285 25.89364864446614 a86.0,86.0 0 0,1 42.16139366436587,-11.88097634709845" fill="none" id="id144" stroke="none" /><text fill="#e1ed5e" style="font-size:6.75px; font-family:Arial;" text-anchor="middle"><textPath startOffset="22.145653131862474" xlink:href="#id144">December</textPath></text></svg>