<?xml version="1.0" encoding="utf-8" ?>
<svg baseProfile="full" height="200mm" version="1.1" viewBox="0,0,200,200" width="200mm" xmlns="http://www.w3.org/2000/svg" xmlns:ev="http://www.w3.org/2001/xml-events" xmlns:xlink="http://www.w3.org/1999/xlink"><defs /><rect fill="#1a1a1a" height="200" width="200" x="0" y="0" /><text alignment-baseline="middle" fill="#e1ed5e" style="dominant-baseline: central; font-size:9.0px; font-family:Arial;" text-anchor="middle" x="100.0" y="100.0">2024</text><line stroke="#e1ed5e" stroke-width="0.3" x1="100.0" x2="100.0" y1="15.0" y2="10.0" /><path d="M 100.0 14.0 a86.0,86.0 0 0,1 42.35913384403234,11.155469271406648" fill="none" id="id133" stroke="none" /><text fill="#e1ed5e" style="font-size:6.75px; font-family:Arial;" text-anchor="middle"><textPath startOffset="22.145653131862478" xlink:href="#id133">January</textPath></text><path d="M 100.0 79.0 l 0.0 -42.45677713250573 a63.45677713250573,63.45677713250573 0 0,0 1.0893199614275673,0.00935050174207068 l -0.7288270365787125 42.45052102895809" fill="#48ff2c" stroke="none" /><path d="M 100.36049292484886 79.00309439819443 l 0.30293606823779395 -17.644507255830256 a38.6471075976344,38.6471075976344 0 0,0 0.6632334775172826,0.01708254172973628 l -0.6057828598258179 17.636706996750473" fill="#ff3605" stroke="none" /><path d="M 100.72087961077811 79.0123766808444 l 1.697681277420538 -49.426138059343955 a70.45528531088496,70.45528531088496 0 0,0 1.2083894665951935,0.05189344307546061 l -2.545896504616568 49.389712047842664" fill="#37ff7b" stroke="none" /><path d="M 101.08105385017728 79.02784411241856 l 2.484284815642116 -48.19446174143332 a69.25844810591934,69.25844810591934 0 0,0 1.186811605402659,0.07139563906782753 l -3.311240773177237 48.144714124540805" fill="#35ff6a" stroke="none" /><path d="M 101.44090949804482 79.04949213459386 l 3.0388966715035197 -44.18489065751919 a65.28927020619105,65.28927020619105 0 0,0 1.1174756200286975,0.08649968039997852 l -3.7969412863074505 44.12621321012416" fill="#31ff2f" stroke="none" /><path d="M 101.80034050326958 79.07731436759882 l 4.68909614269985 -54.49440498374618 a75.69577494805264,75.69577494805264 0 0,0 1.2936784132745665,0.12251269076947638 l -5.62387411935943 54.405880537471525" fill="#40ffc4" stroke="none" /><path d="M 102.15924093988457 79.11130261209362 l 1.6013114418716121 -15.491235607470609 a36.57377857104801,36.57377857104801 0 0,0 0.6239558002289819,0.06991554886291279 l -1.8670031437013905 15.461464298100724" fill="#ff1001" stroke="none" /><path d="M 102.51750503828377 79.15144685158666 l 7.547761846973741 -62.50629556851793 a83.9603501784858,83.9603501784858 0 0,0 1.4294136795535286,0.18506621867703896 l -8.61965334841806 62.36751775364049" fill="#4dd2ff" stroke="none" /><path d="M 102.87502721639298 79.19773525538626 l 8.133834790903471 -58.85237668170864 a80.4117960466727,80.4117960466727 0 0,0 1.3657556601354095,0.20071904966075016 l -9.142915556646562 58.70407655874901" fill="#47fdff" stroke="none" /><path d="M 103.23170211078529 79.25015418208739 l 6.874910751667827 -44.14185875391611 a65.67402032606958,65.67402032606958 0 0,0 1.1124631664253748,0.18305539069341253 l -7.631651421146272 44.01733736472703" fill="#30ff34" stroke="none" /><path d="M 103.58742460773223 79.30868818359171 l 6.201574650138093 -35.76903457766502 a57.302663301188126,57.302663301188126 0 0,0 0.9677744927595308,0.1763607508453281 l -6.814683876448677 35.657305652888326" fill="#9bff22" stroke="none" /><path d="M 103.94208987418118 79.37332000966035 l 2.7615921109304717 -14.449816862138716 a35.71134250626032,35.71134250626032 0 0,0 0.6011469086843214,0.12024621783795006 l -3.00923550514575 14.400281247637906" fill="#ff0000" stroke="none" /><path d="M 104.29559338865022 79.4440306129975 l 12.88678016595065 -61.66790816100754 a84.0,84.0 0 0,0 1.4089503335234634,0.30707416746512495 l -13.943492916093248 61.4376025354087" fill="#4dd2ff" stroke="none" /><path d="M 104.64783097203109 79.52079915486377 l 9.802103167178744 -43.18987516400091 a65.28822126911396,65.28822126911396 0 0,0 1.0908351229927546,0.25743411883623946 l -10.542070443911383 43.01524490151844" fill="#31ff2f" stroke="none" /><line stroke="#e1ed5e" stroke-width="0.3" x1="143.13028292997686" x2="145.6673583964461" y1="26.7553504044142" y2="22.446841604673864" /><path d="M 143.63769802327073 25.89364864446614 a86.0,86.0 0 0,1 29.32050498858742,28.57503671076993" fill="none" id="id134" stroke="none" /><text fill="#e1ed5e" style="font-size:6.75px; font-family:Arial;" text-anchor="middle"><textPath startOffset="20.669276256404974" xlink:href="#id134">February</textPath></text><line stroke="#e1ed5e" stroke-width="0.3" x1="172.87174338648825" x2="177.1583165268699" y1="56.24261187166439" y2="53.66864786411523" /><path d="M 173.72905801456457 55.72781907015455 a86.0,86.0 0 0,1 12.242430191666344,42.057860355516425" fill="none" id="id135" stroke="none" /><text fill="#e1ed5e" style="font-size:6.75px; font-family:Arial;" text-anchor="middle"><textPath startOffset="22.145653131862474" xlink:href="#id135">March</textPath></text><line stroke="#e1ed5e" stroke-width="0.3" x1="184.99686870605535" x2="189.99668451229388" y1="99.2704041080226" y2="99.22748670261217" /><path d="M 185.99683186730306 99.26182062694052 a86.0,86.0 0 0,1 -10.086455211305974,41.156179273409016" fill="none" id="id136" stroke="none" /><text fill="#e1ed5e" style="font-size:6.75px; font-family:Arial;" text-anchor="middle"><textPath startOffset="21.40746469413373" xlink:href="#id136">April</textPath></text><line stroke="#e1ed5e" stroke-width="0.3" x1="174.33088141563837" x2="178.70328620479359" y1="141.23008692659167" y2="143.65538615756765" /><path d="M 175.20536237346943 141.71514677278685 a86.0,86.0 0 0,1 -30.301960400862466,31.631185727798858" fill="none" id="id137" stroke="none" /><text fill="#e1ed5e" style="font-size:6.75px; font-family:Arial;" text-anchor="middle"><textPath startOffset="22.145653131862474" xlink:href="#id137">May</textPath></text><line stroke="#e1ed5e" stroke-width="0.3" x1="143.1302829299769" x2="145.66735839644613" y1="173.24464959558577" y2="177.55315839532614" /><path d="M 143.63769802327073 174.10635135553383 a86.0,86.0 0 0,1 -40.68552437913181,11.842963189579606" fill="none" id="id138" stroke="none" /><text fill="#e1ed5e" style="font-size:6.75px; font-family:Arial;" text-anchor="middle"><textPath startOffset="21.407464694133747" xlink:href="#id138">June</textPath></text><line stroke="#e1ed5e" stroke-width="0.3" x1="101.45913802915013" x2="101.54496967792366" y1="184.9874750549273" y2="189.98673829345242" /><path d="M 101.47630435890484 185.9873277026323 a86.0,86.0 0 0,1 -42.54439059252881,-10.42667462771756" fill="none" id="id139" stroke="none" /><text fill="#e1ed5e" style="font-size:6.75px; font-family:Arial;" text-anchor="middle"><textPath startOffset="22.145653131862474" xlink:href="#id139">July</textPath></text><line stroke="#e1ed5e" stroke-width="0.3" x1="58.13341422392154" x2="55.67067388415222" y1="173.97424548756322" y2="178.32567169271397" /><path d="M 57.64086615596768 174.84453072859336 a86.0,86.0 0 0,1 -31.369924170532247,-30.572349798747897" fill="none" id="id140" stroke="none" /><text fill="#e1ed5e" style="font-size:6.75px; font-family:Arial;" text-anchor="middle"><textPath startOffset="22.145653131862474" xlink:href="#id140">August</textPath></text><line stroke="#e1ed5e" stroke-width="0.3" x1="26.387840678322732" x2="22.057713659400548" y1="142.50000000000003" y2="145.00000000000006" /><path d="M 25.521815274538298 143.00000000000003 a86.0,86.0 0 0,1 -11.493303480769221,-40.785679425670985" fill="none" id="id141" stroke="none" /><text fill="#e1ed5e" style="font-size:6.75px; font-family:Arial;" text-anchor="middle"><textPath startOffset="21.40746469413373" xlink:href="#id141">September</textPath></text><line stroke="#e1ed5e" stroke-width="0.3" x1="15.003131293944662" x2="10.003315487706104" y1="100.72959589197737" y2="100.7725132973878" /><path d="M 14.003168132696942 100.73817937305945 a86.0,86.0 0 0,1 10.791469493833604,-42.45332614584628" fill="none" id="id142" stroke="none" /><text fill="#e1ed5e" style="font-size:6.75px; font-family:Arial;" text-anchor="middle"><textPath startOffset="22.145653131862435" xlink:href="#id142">October</textPath></text><line stroke="#e1ed5e" stroke-width="0.3" x1="26.387840678322718" x2="22.05771365940052" y1="57.49999999999999" y2="54.99999999999999" /><path d="M 25.521815274538284 56.99999999999999 a86.0,86.0 0 0,1 29.574782752854787,-30.34633250058573" fill="none" id="id143" stroke="none" /><text fill="#e1ed5e" style="font-size:6.75px; font-family:Arial;" text-anchor="middle"><textPath startOffset="21.40746469413373" xlink:href="#id143">November</textPath></text><line stroke="#e1ed5e" stroke-width="0.3" x1="56.869717070023135" x2="54.33264160355391" y1="26.7553504044142" y2="22.446841604673864" /><path d="M 56.362301976729285 25.89364864446614 a86.0,86.0 0 0,1 42.16139366436587,-11.88097634709845" fill="none" id="id144" stroke="none" /><text fill="#e1ed5e" style="font-size:6.75px; font-family:Arial;" text-anchor="middle"><textPath startOffset="22.145653131862474" xlink:href="#id144">December</textPath></text></svg>