<?xml version="1.0" encoding="utf-8" ?>
<svg baseProfile="full" height="200mm" version="1.1" viewBox="0,0,200,200" width="200mm" xmlns="http://www.w3.org/2000/svg" xmlns:ev="http://www.w3.org/2001/xml-events" xmlns:xlink="http://www.w3.org/1999/xlink"><defs /><rect fill="#1a1a1a" height="200" width="200" x="0" y="0" /><text alignment-baseline="middle" fill="#e1ed5e" style="dominant-baseline: central; font-size:9.0px; font-family:Arial;" text-anchor="middle" x="100.0" y="100.0">2024</text><line stroke="#e1ed5e" stroke-width="0.3" x1="100.0" x2="100.0" y1="15.0" y2="10.0" /><path d="M 100.0 14.0 a86.0,86.0 0 0,1 42.35913384403234,11.155469271406648" fill="none" id="id133" stroke="none" /><text fill="#e1ed5e" style="font-size:6.75px; font-family:Arial;" text-anchor="middle"><textPath startOffset="22.145653131862478" xlink:href="#id133">January</textPath></text><path d="M 100.0 79.0 l 0.0 -42.48351465271646 a63.48351465271646,63.48351465271646 0 0,0 1.089778946516328,0.00935444157703562 l -0.7292860216674731 42.477254609333855" fill="#4cff2c" stroke="none" /><path d="M 100.36049292484886 79.00309439819443 l 0.3031268448297567 -17.65561903588573 a38.658221015277476,38.658221015277476 0 0,0 0.6634241978865081,0.017087454009915806 l -0.6061643567870062 17.647813864525773" fill="#ff2703" stroke="none" /><path d="M 100.72087961077811 79.0123766808444 l 1.6987504067923875 -49.457264594482886 a70.486430201756,70.486430201756 0 0,0 1.2089236374228431,0.0519163826691955 l -2.547499804816067 49.420815643387854" fill="#37ff78" stroke="none" /><path d="M 101.08105385017728 79.02784411241856 l 2.485849315351082 -48.22481261782781 a69.28883927827667,69.28883927827667 0 0,0 1.1873323880225686,0.07142696805702396 l -3.313326055506113 48.175033671946096" fill="#35ff66" stroke="none" /><path d="M 101.44090949804482 79.04949213459386 l 3.04081044279424 -44.2127164720712 a65.31716175466072,65.31716175466072 0 0,0 1.1179530051383988,0.08653663302666385 l -3.7993324427078723 44.15400207204948" fill="#35ff2f" stroke="none" /><path d="M 101.80034050326958 79.07731436759882 l 4.692049141286959 -54.52872330353002 a75.73022008230178,75.73022008230178 0 0,0 1.2942670977374844,0.12256843980016764 l -5.627415802409456 54.44014310822467" fill="#40ffc3" stroke="none" /><path d="M 102.15924093988457 79.11130261209362 l 1.6023198815114625 -15.500991346203467 a36.583586291921435,36.583586291921435 0 0,0 0.6241231218611756,0.06993429760079962 l -1.8681789049734348 15.471201288095696" fill="#ff0000" stroke="none" /><path d="M 102.51750503828377 79.15144685158666 l 7.552515114851315 -62.54565944524002 a84.0,84.0 0 0,0 1.430088712436833,0.1851536151984119 l -8.62508164917894 62.40679423384121" fill="#4dd2ff" stroke="none" /><path d="M 102.87502721639298 79.19773525538626 l 8.13895714325334 -58.88943947161532 a80.4492111357313,80.4492111357313 0 0,0 1.3663911374182027,0.20081244293745865 l -9.148673386279224 58.74104595537898" fill="#47fdff" stroke="none" /><path d="M 103.23170211078529 79.25015418208739 l 6.879240285786634 -44.16965746875706 a65.70215417423321,65.70215417423321 0 0,0 1.1129397303643032,0.18313380910820934 l -7.636457519204007 44.04505766115318" fill="#30ff2f" stroke="none" /><path d="M 103.58742460773223 79.30868818359171 l 6.205480145061293 -35.79156043453715 a57.325525215334125,57.325525215334125 0 0,0 0.9681606035629652,0.17643111309574144 l -6.818975482175312 35.67976114751005" fill="#a1ff22" stroke="none" /><line stroke="#e1ed5e" stroke-width="0.3" x1="143.13028292997686" x2="145.6673583964461" y1="26.7553504044142" y2="22.446841604673864" /><path d="M 143.63769802327073 25.89364864446614 a86.0,86.0 0 0,1 29.32050498858742,28.57503671076993" fill="none" id="id134" stroke="none" /><text fill="#e1ed5e" style="font-size:6.75px; font-family:Arial;" text-anchor="middle"><textPath startOffset="20.669276256404974" xlink:href="#id134">February</textPath></text><line stroke="#e1ed5e" stroke-width="0.3" x1="172.87174338648825" x2="177.1583165268699" y1="56.24261187166439" y2="53.66864786411523" /><path d="M 173.72905801456457 55.72781907015455 a86.0,86.0 0 0,1 12.242430191666344,42.057860355516425" fill="none" id="id135" stroke="none" /><text fill="#e1ed5e" style="font-size:6.75px; font-family:Arial;" text-anchor="middle"><textPath startOffset="22.145653131862474" xlink:href="#id135">March</textPath></text><line stroke="#e1ed5e" stroke-width="0.3" x1="184.99686870605535" x2="189.99668451229388" y1="99.2704041080226" y2="99.22748670261217" /><path d="M 185.99683186730306 99.26182062694052 a86.0,86.0 0 0,1 -10.086455211305974,41.156179273409016" fill="none" id="id136" stroke="none" /><text fill="#e1ed5e" style="font-size:6.75px; font-family:Arial;" text-anchor="middle"><textPath startOffset="21.40746469413373" xlink:href="#id136">April</textPath></text><line stroke="#e1ed5e" stroke-width="0.3" x1="174.33088141563837" x2="178.70328620479359" y1="141.23008692659167" y2="143.65538615756765" /><path d="M 175.20536237346943 141.71514677278685 a86.0,86.0 0 0,1 -30.301960400862466,31.631185727798858" fill="none" id="id137" stroke="none" /><text fill="#e1ed5e" style="font-size:6.75px; font-family:Arial;" text-anchor="middle"><textPath startOffset="22.145653131862474" xlink:href="#id137">May</textPath></text><line stroke="#e1ed5e" stroke-width="0.3" x1="143.1302829299769" x2="145.66735839644613" y1="173.24464959558577" y2="177.55315839532614" /><path d="M 143.63769802327073 174.10635135553383 a86.0,86.0 0 0,1 -40.68552437913181,11.842963189579606" fill="none" id="id138" stroke="none" /><text fill="#e1ed5e" style="font-size:6.75px; font-family:Arial;" text-anchor="middle"><textPath startOffset="21.407464694133747" xlink:href="#id138">June</textPath></text><line stroke="#e1ed5e" stroke-width="0.3" x1="101.45913802915013" x2="101.54496967792366" y1="184.9874750549273" y2="189.98673829345242" /><path d="M 101.47630435890484 185.9873277026323 a86.0,86.0 0 0,1 -42.54439059252881,-10.42667462771756" fill="none" id="id139" stroke="none" /><text fill="#e1ed5e" style="font-size:6.75px; font-family:Arial;" text-anchor="middle"><textPath startOffset="22.145653131862474" xlink:href="#id139">July</textPath></text><line stroke="#e1ed5e" stroke-width="0.3" x1="58.13341422392154" x2="55.67067388415222" y1="173.97424548756322" y2="178.32567169271397" /><path d="M 57.64086615596768 174.84453072859336 a86.0,86.0 0 0,1 -31.369924170532247,-30.572349798747897" fill="none" id="id140" stroke="none" /><text fill="#e1ed5e" style="font-size:6.75px; font-family:Arial;" text-anchor="middle"><textPath startOffset="22.145653131862474" xlink:href="#id140">August</textPath></text><line stroke="#e1ed5e" stroke-width="0.3" x1="26.387840678322732" x2="22.057713659400548" y1="142.50000000000003" y2="145.00000000000006" /><path d="M 25.521815274538298 143.00000000000003 a86.0,86.0 0 0,1 -11.493303480769221,-40.785679425670985" fill="none" id="id141" stroke="none" /><text fill="#e1ed5e" style="font-size:6.75px; font-family:Arial;" text-anchor="middle"><textPath startOffset="21.40746469413373" xlink:href="#id141">September</textPath></text><line stroke="#e1ed5e" stroke-width="0.3" x1="15.003131293944662" x2="10.003315487706104" y1="100.72959589197737" y2="100.7725132973878" /><path d="M 14.003168132696942 100.73817937305945 a86.0,86.0 0 0,1 10.791469493833604,-42.45332614584628" fill="none" id="id142" stroke="none" /><text fill="#e1ed5e" style="font-size:6.75px; font-family:Arial;" text-anchor="middle"><textPath startOffset="22.145653131862435" xlink:href="#id142">October</textPath></text><line stroke="#e1ed5e" stroke-width="0.3" x1="26.387840678322718" x2="22.05771365940052" y1="57.49999999999999" y2="54.99999999999999" /><path d="M 25.521815274538284 56.99999999999999 a86.0,86.0 0 0,1 29.574782752854787,-30.34633250058573" fill="none" id="id143" stroke="none" /><text fill="#e1ed5e" style="font-size:6.75px; font-family:Arial;" text-anchor="middle"><textPath startOffset="21.40746469413373" xlink:href="#id143">November</textPath></text><line stroke="#e1ed5e" stroke-width="0.3" x1="56.869717070023135" x2="54.33264160355391" y1="26.7553504044142" y2="22.446841604673864" /><path d="M 56.362301976729285 25.89364864446614 a86.0,86.0 0 0,1 42.16139366436587,-11.88097634709845" fill="none" id="id144" stroke="none" /><text fill="#e1ed5e" style="font-size:6.75px; font-family:Arial;" text-anchor="middle"><textPath startOffset="22.145653131862474" xlink:href="#id144">December</textPath></text></svg>