<?xml version="1.0" encoding="utf-8" ?>
<svg baseProfile="full" height="200mm" version="1.1" viewBox="0,0,200,200" width="200mm" xmlns="http://www.w3.org/2000/svg" xmlns:ev="http://www.w3.org/2001/xml-events" xmlns:xlink="http://www.w3.org/1999/xlink"><defs /><rect fill="#1a1a1a" height="200" width="200" x="0" y="0" /><text alignment-baseline="middle" fill="#e1ed5e" style="dominant-baseline: central; font-size:9.0px; font-family:Arial;" text-anchor="middle" x="100.0" y="100.0">2013</text><line stroke="#e1ed5e" stroke-width="0.3" x1="100.0" x2="100.0" y1="15.0" y2="10.0" /><path d="M 100.0 14.0 a86.0,86.0 0 0,1 42.46469731375804,11.215312516191453" fill="none" id="id1" stroke="none" /><text fill="#e1ed5e" style="font-size:6.75px; font-family:Arial;" text-anchor="middle"><textPath startOffset="22.20632615414155" xlink:href="#id1">January</textPath></text><line stroke="#e1ed5e" stroke-width="0.3" x1="143.23703022742887" x2="145.7803849466894" y1="26.81831364943548" y2="22.513508569990506" /><path d="M 143.74570117128098 25.957352633546492 a86.0,86.0 0 0,1 28.547481713284135,27.462654790039103" fill="none" id="id2" stroke="none" /><text fill="#e1ed5e" style="font-size:6.75px; font-family:Arial;" text-anchor="middle"><textPath startOffset="19.985693538727396" xlink:href="#id2">February</textPath></text><line stroke="#e1ed5e" stroke-width="0.3" x1="172.23445277983987" x2="176.4835382374775" y1="55.19839476539836" y2="52.563006222186495" /><path d="M 173.08426987136738 54.67131705675599 a86.0,86.0 0 0,1 12.851231095245387,41.99856678651699" fill="none" id="id3" stroke="none" /><text fill="#e1ed5e" style="font-size:6.75px; font-family:Arial;" text-anchor="middle"><textPath startOffset="22.20632615414155" xlink:href="#id3">March</textPath></text><path d="M 118.3937258080291 89.86733742301442 l 19.199390698555938 -10.576484050189729 a42.91982249151927,42.91982249151927 0 0,0 0.35090409070357276,0.6501719869784539 l -19.378602888477978 10.244431079878815" fill="#ff930d" stroke="none" /><path d="M 118.56541770881063 90.18545643968196 l 23.353426696545114 -12.345707874224821 a47.41588615561861,47.41588615561861 0 0,0 0.37524157130560226,0.724847278769126 l -23.562477701010835 11.94188787319535" fill="#ffdb14" stroke="none" /><path d="M 118.73160827565052 90.50648371742162 l 27.041758741479644 -13.705250138906079 a51.316507008598066,51.316507008598066 0 0,0 0.3925468105303588,0.7913504164981391 l -27.27366556496341 13.23774013390899" fill="#e7ff1a" stroke="none" /><path d="M 118.89224826269711 90.83032412892265 l 13.379876279154075 -6.494151832485169 a35.87262913101918,35.87262913101918 0 0,0 0.2648455815294308,0.5578323387451621 l -13.48968005452526 6.262877078099467" fill="#ff1902" stroke="none" /><path d="M 119.04729006885535 91.15688171328212 l 51.38757378927197 -23.857797715225544 a77.6557786264428,77.6557786264428 0 0,0 0.5524568286284665,1.217265390955139 l -51.79063293486378 22.96971031542834" fill="#43ffe0" stroke="none" /><path d="M 119.34039704204932 91.81776055985345 l 44.97629530384106 -19.027883269751733 a69.83571931471485,69.83571931471485 0 0,0 0.4588483212444456,1.111137605415793 l -45.2971653119717 18.250871093882637" fill="#37ff77" stroke="none" /><path d="M 119.7369772167798 92.82701384747503 l 13.351546513034437 -4.852336667408613 a35.205948240916555,35.205948240916555 0 0,0 0.20209374274341885,0.5713462249717198 l -13.433093336587666 4.621792816010279" fill="#ff0d01" stroke="none" /><path d="M 119.85752413597 93.16781622104841 l 12.784888435304694 -4.39877130629647 a34.52044974504491,34.52044974504491 0 0,0 0.1884861041896409,0.5635494605628544 l -12.858711833266106 4.178048742811302" fill="#ff0000" stroke="none" /><path d="M 120.67395015179393 96.31383870115 l 62.02185045538181 -11.058483896549978 a84.0,84.0 0 0,0 0.2415525539191079,1.4256568467366484 l -62.20301487082114 9.98924126149749" fill="#4dd2ff" stroke="none" /><line stroke="#e1ed5e" stroke-width="0.3" x1="184.98032266829074" x2="189.97916517819016" y1="98.17113171792111" y2="98.06355123074" /><path d="M 185.9800911702706 98.14961562048488 a86.0,86.0 0 0,1 -9.607161424134198,41.387399972396054" fill="none" id="id4" stroke="none" /><text fill="#e1ed5e" style="font-size:6.75px; font-family:Arial;" text-anchor="middle"><textPath startOffset="21.466115282336823" xlink:href="#id4">April</textPath></text><line stroke="#e1ed5e" stroke-width="0.3" x1="174.80103733775053" x2="179.2010983576182" y1="140.37084112569926" y2="142.7455964860345" /><path d="M 175.68104954172406 140.8457921977663 a86.0,86.0 0 0,1 -30.038265399797805,32.042727171017184" fill="none" id="id5" stroke="none" /><text fill="#e1ed5e" style="font-size:6.75px; font-family:Arial;" text-anchor="middle"><textPath startOffset="22.206326154141568" xlink:href="#id5">May</textPath></text><path d="M 118.48025628344425 109.97397251340804 l 43.918750344837 23.70337305089549 a70.90697872885153,70.90697872885153 0 0,0 -0.5889452297538914,1.069106662709244 l -43.5042287056316 -24.45585023200254" fill="#39ff86" stroke="none" /><path d="M 114.81725581225074 114.88116024355365 l 29.565911754405715 29.693424756850828 a62.9027757035267,62.9027757035267 0 0,0 -0.7738540523190884,0.7573790648819649 l -29.050407749710832 -30.197953924655366" fill="#48ff2c" stroke="none" /><line stroke="#e1ed5e" stroke-width="0.3" x1="143.8653032363475" x2="146.44561519142675" y1="172.8068346515853" y2="177.08958963109032" /><path d="M 144.38136562736335 173.6633856474863 a86.0,86.0 0 0,1 -40.68145358897372,12.25698825130547" fill="none" id="id6" stroke="none" /><text fill="#e1ed5e" style="font-size:6.75px; font-family:Arial;" text-anchor="middle"><textPath startOffset="21.466115282336833" xlink:href="#id6">June</textPath></text><line stroke="#e1ed5e" stroke-width="0.3" x1="102.19456741930631" x2="102.32365962044197" y1="184.97166512339345" y2="189.96999836594603" /><path d="M 102.22038585953345 185.97133177190398 a86.0,86.0 0 0,1 -42.740103519485714,-10.115201625700543" fill="none" id="id7" stroke="none" /><text fill="#e1ed5e" style="font-size:6.75px; font-family:Arial;" text-anchor="middle"><textPath startOffset="22.20632615414155" xlink:href="#id7">July</textPath></text><path d="M 95.86986931433489 120.58985236759428 l -4.066774581400349 20.274004533063323 a41.67786051076359,41.67786051076359 0 0,0 -0.7021896627649112,-0.14715067109459923 l 4.415155705594647 -20.200997881242184" fill="#ff7e0b" stroke="none" /><line stroke="#e1ed5e" stroke-width="0.3" x1="58.666819895761336" x2="56.23545636021788" y1="174.27360380694188" y2="178.64263932499728" /><path d="M 58.180547188652646 175.14741091055294 a86.0,86.0 0 0,1 -31.652253787137756,-30.449443065178592" fill="none" id="id8" stroke="none" /><text fill="#e1ed5e" style="font-size:6.75px; font-family:Arial;" text-anchor="middle"><textPath startOffset="22.20632615414155" xlink:href="#id8">August</textPath></text><line stroke="#e1ed5e" stroke-width="0.3" x1="26.63291911575756" x2="22.317208475507996" y1="142.92168965132927" y2="145.44649492493687" /><path d="M 25.769776987707644 143.4266507060508 a86.0,86.0 0 0,1 -11.730757126820373,-40.83630448921669" fill="none" id="id9" stroke="none" /><text fill="#e1ed5e" style="font-size:6.75px; font-family:Arial;" text-anchor="middle"><textPath startOffset="21.46611528233685" xlink:href="#id9">September</textPath></text><line stroke="#e1ed5e" stroke-width="0.3" x1="15.007084014347285" x2="10.007500721073583" y1="101.09737516637583" y2="101.16192664675087" /><path d="M 14.007167355692545 101.11028546245083 a86.0,86.0 0 0,1 10.666146001902534,-42.60595125391555" fill="none" id="id10" stroke="none" /><text fill="#e1ed5e" style="font-size:6.75px; font-family:Arial;" text-anchor="middle"><textPath startOffset="22.20632615414155" xlink:href="#id10">October</textPath></text><line stroke="#e1ed5e" stroke-width="0.3" x1="26.266209847984243" x2="21.928928074336255" y1="57.711370442889674" y2="55.22380399835377" /><path d="M 25.398753493254645 57.213857153982495 a86.0,86.0 0 0,1 29.58750427330803,-30.492523968695096" fill="none" id="id11" stroke="none" /><text fill="#e1ed5e" style="font-size:6.75px; font-family:Arial;" text-anchor="middle"><textPath startOffset="21.46611528233685" xlink:href="#id11">November</textPath></text><path d="M 83.39014120810768 87.1503855733568 l -19.940973396739412 -15.426610343317614 a46.21155938640097,46.21155938640097 0 0,0 0.49214412791228346,-0.6249730644299194 l 19.672475188233157 15.76757580170058" fill="#ffc812" stroke="none" /><path d="M 87.80319425747018 82.90503203632743 l -19.414287854599277 -27.210946531239344 a54.426788419278445,54.426788419278445 0 0,0 0.767337010638905,-0.5375686132303937 l 18.943019704376713 27.541099987233682" fill="#baff1f" stroke="none" /><line stroke="#e1ed5e" stroke-width="0.3" x1="56.762969772571076" x2="54.21961505331055" y1="26.818313649435495" y2="22.513508569990535" /><path d="M 56.25429882871897 25.957352633546506 a86.0,86.0 0 0,1 42.265352541879196,-11.944610805530505" fill="none" id="id12" stroke="none" /><text fill="#e1ed5e" style="font-size:6.75px; font-family:Arial;" text-anchor="middle"><textPath startOffset="22.20632615414155" xlink:href="#id12">December</textPath></text></svg>