<?xml version="1.0" encoding="utf-8" ?>
<svg baseProfile="full" height="200mm" version="1.1" viewBox="0,0,200,200" width="200mm" xmlns="http://www.w3.org/2000/svg" xmlns:ev="http://www.w3.org/2001/xml-events" xmlns:xlink="http://www.w3.org/1999/xlink"><defs /><rect fill="#1a1a1a" height="200" width="200" x="0" y="0" /><text alignment-baseline="middle" fill="#e1ed5e" style="dominant-baseline: central; font-size:9.0px; font-family:Arial;" text-anchor="middle" x="100.0" y="100.0">2015</text><line stroke="#e1ed5e" stroke-width="0.3" x1="100.0" x2="100.0" y1="15.0" y2="10.0" /><path d="M 100.0 14.0 a86.0,86.0 0 0,1 42.46469731375804,11.215312516191453" fill="none" id="id25" stroke="none" /><text fill="#e1ed5e" style="font-size:6.75px; font-family:Arial;" text-anchor="middle"><textPath startOffset="22.20632615414155" xlink:href="#id25">January</textPath></text><path d="M 100.0 79.0 l 0.0 -5.554101621581982 a26.55410162158198,26.55410162158198 0 0,0 0.457085208610518,0.0039342766974612055 l -0.09560472933798961 5.553278721493079" fill="#ff3b05" stroke="none" /><path d="M 101.08401301168833 79.027996857942 l 0.403251826796737 -7.801565560038975 a28.81198036501636,28.81198036501636 0 0,0 0.49506933160884925,0.029863934058346628 l -0.5374832072451982 7.793468356600324" fill="#ff5b08" stroke="none" /><path d="M 101.80526077348638 79.07773832637324 l 0.588350920106528 -6.818755543341867 a27.84409117159069,27.84409117159069 0 0,0 0.4771613700792311,0.045312221631373585 l -0.7056374172760033 6.807617777195315" fill="#ff4e07" stroke="none" /><path d="M 102.16513564639614 79.11191278185805 l 0.6905139573888095 -6.661714609562566 a27.697406293828088,27.697406293828088 0 0,0 0.47380145557915937,0.05323711411370241 l -0.8050821164776941 6.648841541978262" fill="#ff4c07" stroke="none" /><path d="M 102.88285421437855 79.19881850522331 l 1.6904736722574996 -12.197581651332285 a33.31416661319449,33.31416661319449 0 0,0 0.5673418748593514,0.08361144457599244 l -1.9001845275455067 12.166675722595324" fill="#ff980e" stroke="none" /><path d="M 103.59715602781102 79.31037775812273 l 1.4120579255572472 -8.12167858095564 a29.243516880402602,29.243516880402602 0 0,0 0.49519701327527815,0.0904940889564055 l -1.5516500599354264 8.096169010648495" fill="#ff6109" stroke="none" /><path d="M 103.95276090670814 79.375362276772 l 1.1678002386354174 -6.093325000781073 a27.204221704815247,27.204221704815247 0 0,0 0.4591471417376204,0.0921005972005194 l -1.272513789840163 6.072320447503346" fill="#ff4506" stroke="none" /><path d="M 104.66035177308747 79.52364482259891 l 1.6068646505478204 -7.060138999942842 a28.240688966092527,28.240688966092527 0 0,0 0.4730669258157225,0.1119596571612128 l -1.7281552633260664 7.03143343064076" fill="#ff5307" stroke="none" /><path d="M 105.36241919743992 79.69619591428918 l 2.2630194517580673 -8.568502740812303 a29.862307614743653,29.862307614743653 0 0,0 0.49585950942437923,0.13553713512716808 l -2.4101768504061574 8.528279064858841" fill="#ff6a09" stroke="none" /><path d="M 105.71112130821622 79.79150937346287 l 4.329554622386715 -15.319892413721078 a36.9199292333923,36.9199292333923 0 0,0 0.6100750764259971,0.17809764416885002 l -4.592619916536139 15.243096440633524" fill="#ffc712" stroke="none" /><path d="M 106.0581310904928 79.89281104454417 l 1.401259698842293 -4.650839197669991 a25.857348452209624,25.857348452209624 0 0,0 0.4250635670770777,0.13206931939427 l -1.481108638630089 4.6260297433932" fill="#ff3104" stroke="none" /><path d="M 106.40334571778207 80.00007090966166 l 2.2170405466071186 -6.924607178308909 a28.27086331594724,28.27086331594724 0 0,0 0.46218442887625605,0.15237493955753562 l -2.3359077977257923 6.885418514492137" fill="#ff5407" stroke="none" /><path d="M 107.08798089147638 80.2323363322302 l 2.5354129519175452 -7.071010949350051 a28.51182499014584,28.51182499014584 0 0,0 0.46055785529221926,0.16962734491175188 l -2.6567531329823413 7.026320336631974" fill="#ff5708" stroke="none" /><path d="M 107.4271985657038 80.35727306442388 l 2.563565078634989 -6.779865702491032 a28.24834083471597,28.24834083471597 0 0,0 0.4533412581965067,0.1758893651012245 l -2.6798895018311626 6.7347336334992605" fill="#ff5307" stroke="none" /><path d="M 108.09893153111575 80.62456947434976 l 2.3512039152938233 -5.624888658138384 a27.096518044568295,27.096518044568295 0 0,0 0.42879109778751673,0.18358597037837776 l -2.4476787708716556 5.583583159797215" fill="#ff4306" stroke="none" /><line stroke="#e1ed5e" stroke-width="0.3" x1="143.23703022742887" x2="145.7803849466894" y1="26.81831364943548" y2="22.513508569990506" /><path d="M 143.74570117128098 25.957352633546492 a86.0,86.0 0 0,1 28.547481713284135,27.462654790039103" fill="none" id="id26" stroke="none" /><text fill="#e1ed5e" style="font-size:6.75px; font-family:Arial;" text-anchor="middle"><textPath startOffset="19.985693538727396" xlink:href="#id26">February</textPath></text><path d="M 112.77801427241765 83.33499621200491 l 3.695358716822984 -4.819463001132175 a27.073129314058903,27.073129314058903 0 0,0 0.3673790706888424,0.2867451919429015 l -3.7777703426712566 4.755139419966049" fill="#ff4306" stroke="none" /><path d="M 113.34407831869373 83.78471172551755 l 4.395560755357265 -5.341341910161775 a27.917433610471992,27.917433610471992 0 0,0 0.36843363393269185,0.30855257283454457 l -4.4868519262490745 5.264888179933411" fill="#ff4f07" stroke="none" /><path d="M 113.6212207817346 84.01681056812373 l 5.3480188394831965 -6.275384531709916 a29.245105004079164,29.245105004079164 0 0,0 0.38033426361145567,0.32982212552778545 l -5.4552469017414165 6.18239741276246" fill="#ff6109" stroke="none" /><path d="M 113.89432698308785 84.25364557470407 l 4.686092336737267 -5.3107193240625445 a28.082598472834604,28.082598472834604 0 0,0 0.3597100204260066,0.32295120797730337 l -4.776813344759264 5.229269107315944" fill="#ff5107" stroke="none" /><path d="M 114.68862486808459 84.99185889309783 l 21.321503529893228 -21.78530233168643 a51.48287897260086,51.48287897260086 0 0,0 0.6280033570047083,0.6253065110109204 l -21.693342687065257 21.41505997002539" fill="#8aff24" stroke="none" /><path d="M 115.19652480421416 85.50635884689758 l 1.9650894783423762 -1.8741983512528764 a23.715547112044074,23.715547112044074 0 0,0 0.2792027725450624,0.29783405090073084 l -1.9970595728579015 1.840094883474091" fill="#ff1302" stroke="none" /><path d="M 115.4437574822437 85.77008943001954 l 5.359433040520401 -4.938192856245501 a28.287610801990997,28.287610801990997 0 0,0 0.32686517394674475,0.3609326890093945 l -5.443641855083182 4.845207379966557" fill="#ff5407" stroke="none" /><path d="M 115.9244219780498 86.31012108654704 l 6.160019114892276 -5.295634334713759 a29.12339698050252,29.12339698050252 0 0,0 0.32353235308345596,0.3829602586935463 l -6.250262081462849 5.1888151263911055" fill="#ff5f08" stroke="none" /><path d="M 116.38621287248628 86.86637796730983 l 6.912630794946176 -5.540504131055048 a29.85898699251084,29.85898699251084 0 0,0 0.3179924094510931,0.4038180673681129 l -7.006977284991232 5.420693669733897" fill="#ff6a09" stroke="none" /><path d="M 116.60985879189232 87.15038557335679 l 9.311385648791093 -7.203415565648732 a32.77247206460662,32.77247206460662 0 0,0 0.3413394351839328,0.4491626853432057 l -9.43400102419914 7.042068104424493" fill="#ff910d" stroke="none" /><path d="M 116.82858285166822 87.43820079747576 l 9.304305347813917 -6.945255968872316 a32.610627824476815,32.610627824476815 0 0,0 0.3319100188330532,0.4527248926803031 l -9.422477979160597 6.78406863252052" fill="#ff8f0d" stroke="none" /><path d="M 117.2510076193507 88.02491185347247 l 7.834635618382961 -5.438549109492043 a30.537260177283184,30.537260177283184 0 0,0 0.29603043131444445,0.43438812971733004 l -7.92709051536614 5.302882956504306" fill="#ff730a" stroke="none" /><path d="M 117.45458315368197 88.32363383020206 l 15.699980826184143 -10.5026126015884 a39.888998634167805,39.888998634167805 0 0,0 0.3768624543439062,0.5739873730126069 l -15.878439915885975 10.230807164598119" fill="#ffed16" stroke="none" /><line stroke="#e1ed5e" stroke-width="0.3" x1="172.23445277983987" x2="176.4835382374775" y1="55.19839476539836" y2="52.563006222186495" /><path d="M 173.08426987136738 54.67131705675599 a86.0,86.0 0 0,1 12.851231095245387,41.99856678651699" fill="none" id="id27" stroke="none" /><text fill="#e1ed5e" style="font-size:6.75px; font-family:Arial;" text-anchor="middle"><textPath startOffset="22.20632615414155" xlink:href="#id27">March</textPath></text><path d="M 117.84615892207809 88.93136811851018 l 9.876725347833135 -6.125790852086312 a32.622177814851824,32.622177814851824 0 0,0 0.29186627794801384,0.47975141987596354 l -9.980707424067374 5.954871659003267" fill="#ff8f0d" stroke="none" /><path d="M 118.03404312379186 89.2402003453031 l 12.411412629643033 -7.4051233220437505 a35.452647331127224,35.452647331127224 0 0,0 0.3081684659386974,0.526759802565163 l -12.537040770052059 7.190384107124692" fill="#ffb410" stroke="none" /><path d="M 118.21658344932153 89.55222093294921 l 12.591895411251627 -7.221844955622975 a35.51588352843039,35.51588352843039 0 0,0 0.29958892284806604,0.5329352647163644 l -12.714341975392125 7.004026180971817" fill="#ffb510" stroke="none" /><path d="M 118.3937258080291 89.86733742301442 l 6.348129329388267 -3.497032257688602 a28.24761896031753,28.24761896031753 0 0,0 0.2309470186594976,0.427909750802648 l -6.40738444726623 3.3872415235534956" fill="#ff5307" stroke="none" /><path d="M 118.56541770881063 90.18545643968196 l 8.336747461307592 -4.407192576741437 a30.4299896416753,30.4299896416753 0 0,0 0.24081796321341933,0.46518365411013934 l -8.411374857681128 4.263036200370953" fill="#ff710a" stroke="none" /><path d="M 119.04729006885535 91.15688171328212 l 10.570546715160797 -4.907605996418867 a32.65422903814247,32.65422903814247 0 0,0 0.2323079123641276,0.5118596913136628 l -10.653456944488271 4.724924296263142" fill="#ff8f0d" stroke="none" /><path d="M 119.196687751892 91.48605970444005 l 15.070599117316965 -6.683975004516543 a37.48631188640676,37.48631188640676 0 0,0 0.25653006056244737,0.5921067485245011 l -15.183419887722094 6.423569111405439" fill="#ffcf13" stroke="none" /><path d="M 119.34039704204932 91.81776055985345 l 13.32829054938984 -5.6387293583397105 a35.47199356500536,35.47199356500536 0 0,0 0.23306503975633813,0.5643854803230993 l -13.423377276032374 5.4084693075633075" fill="#ffb510" stroke="none" /><path d="M 119.47837535516314 92.15188598940014 l 8.797060026707355 -3.544460397175239 a30.484274596437835,30.484274596437835 0 0,0 0.1919151299441193,0.4884030725238891 l -8.856768706533176 3.3925083197555654" fill="#ff720a" stroke="none" /><path d="M 119.61058180528143 92.48833698450437 l 10.853222323508508 -4.15723253577792 a32.622177814851824,32.622177814851824 0 0,0 0.19634731375625467,0.5261131831240617 l -10.923174225766388 3.969796215624525" fill="#ff8f0d" stroke="none" /><path d="M 119.85752413597 93.16781622104841 l 3.776835888535326 -1.2994589212998469 a24.99413104655746,24.99413104655746 0 0,0 0.1364711764581571,0.40803144723068335 l -3.798644358765253 1.2342543711468494" fill="#ff2503" stroke="none" /><path d="M 119.97218684219823 93.5106431181261 l 4.1508410976133625 -1.3486900285475976 a25.364452612956157,25.364452612956157 0 0,0 0.13134500613715125,0.4163995627143625 l -4.17344158751872 1.2770402994068157" fill="#ff2a04" stroke="none" /><path d="M 120.28053869075195 94.5502522615342 l 7.330736834915335 -1.9699016429768461 a28.590798049334957,28.590798049334957 0 0,0 0.12362615893500041,0.47638202066063123 l -7.363559325720638 1.8434231967673644" fill="#ff5808" stroke="none" /><path d="M 120.6074358757038 95.95851677861258 l 14.227670983731546 -2.790298313045607 a35.498702917747565,35.498702917747565 0 0,0 0.11243669174823548,0.6006413032533046 l -14.273593399389641 2.54497893232974" fill="#ffb510" stroke="none" /><path d="M 120.73433829027371 96.67025291283417 l 2.9855348824707755 -0.47944988353943807 a24.0237874801771,24.0237874801771 0 0,0 0.06205470895553999,0.4088629985294895 l -2.9933454848656154 0.42798777261786647" fill="#ff1702" stroke="none" /><path d="M 120.98425023603335 99.18683210126433 l 4.741610347148537 -0.183743773508437 a25.745169170692357,25.745169170692357 0 0,0 0.013348631820076447,0.44297610385546327 l -4.744070673424258 0.1020975222279747" fill="#ff3004" stroke="none" /><line stroke="#e1ed5e" stroke-width="0.3" x1="184.98032266829074" x2="189.97916517819016" y1="98.17113171792111" y2="98.06355123074" /><path d="M 185.9800911702706 98.14961562048488 a86.0,86.0 0 0,1 -9.607161424134198,41.387399972396054" fill="none" id="id28" stroke="none" /><text fill="#e1ed5e" style="font-size:6.75px; font-family:Arial;" text-anchor="middle"><textPath startOffset="21.466115282336823" xlink:href="#id28">April</textPath></text><path d="M 120.99513854157772 99.54816195383933 l 6.13451193052396 -0.13202131909480405 a27.13593238672301,27.13593238672301 0 0,0 0.0060306287287137305,0.4670788410249132 l -6.135875566370389 0.02640622000942809" fill="#ff4406" stroke="none" /><path d="M 120.9764740272857 100.99374915477107 l 7.6835318199926315 0.3640031800312183 a28.692149214875652,28.692149214875652 0 0,0 -0.027617763643435624,0.49313372241776193 l -7.676127705461666 -0.49620861878440353" fill="#ff5908" stroke="none" /><path d="M 120.95626037817324 101.35467743843564 l 5.918999127676605 0.38262239692035627 a26.931353182205683,26.931353182205683 0 0,0 -0.03388662051904832,0.4623560139370638 l -5.911535948493219 -0.4844515473541904" fill="#ff4106" stroke="none" /><path d="M 120.89721153311464 102.0752229133903 l 12.142837072573698 1.2058591495156437 a33.20256483119597,33.20256483119597 0 0,0 -0.061373673857578255,0.5682439963424049 l -12.120281097215068 -1.41469946774284" fill="#ff970d" stroke="none" /><path d="M 120.81339534386255 102.79330883721812 l 4.819766951677881 0.6468477342128435 a25.86297907251744,25.86297907251744 0 0,0 -0.06301446989443497,0.4407230556750609 l -4.807918430766845 -0.7297162618683137" fill="#ff3204" stroke="none" /><path d="M 120.64145759157962 103.86396538481128 l 7.394499299147773 1.3842089010988172 a28.522941855881786,28.522941855881786 0 0,0 -0.09449252269737766,0.4818153374768199 l -7.36957684347473 -1.511287965643582" fill="#ff5708" stroke="none" /><path d="M 120.5718875245553 104.21870165774334 l 7.094350932610515 1.4548470578741388 a28.24198834000972,28.24198834000972 0 0,0 -0.10175986647999549,0.47538821859062497 l -7.0682570274060765 -1.5767490958809327" fill="#ff5307" stroke="none" /><path d="M 120.41448212921028 104.9243191809786 l 7.032630124371872 1.6963896117952615 a28.234336471386275,28.234336471386275 0 0,0 -0.11803120431304905,0.47147598921913947 l -7.002387605763762 -1.8171934404117969" fill="#ff5307" stroke="none" /><path d="M 120.23288151984713 105.62410040840565 l 8.363583390900683 2.3248113581033176 a29.680684016096656,29.680684016096656 0 0,0 -0.14106432414588116,0.491063418252544 l -8.322326429868703 -2.4684322518604436" fill="#ff6709" stroke="none" /><path d="M 120.02730092923936 106.31721596034902 l 8.656968851406132 2.730669598942517 a30.077426185478178,30.077426185478178 0 0,0 -0.15999436068594078,0.492412009924003 l -8.608682239703946 -2.879280508844315" fill="#ff6d0a" stroke="none" /><path d="M 119.79798401119884 107.00284435728193 l 6.840667977432818 2.4196470266218686 a28.255992703339416,28.255992703339416 0 0,0 -0.16613950381313122,0.4571445604161072 l -6.79800421261446 -2.537039384044107" fill="#ff5307" stroke="none" /><path d="M 119.41010516605496 108.01547362559984 l 2.764566843679776 1.1416379474582121 a23.991014382488014,23.991014382488014 0 0,0 -0.16091003980831625,0.3803438020495103 l -2.7445058226791508 -1.189056275173886" fill="#ff1702" stroke="none" /><path d="M 119.26925614724726 108.34839909993367 l 13.269196153739042 5.748875015216582 a35.4610210741491,35.4610210741491 0 0,0 -0.2474823229975602,0.5580073049343062 l -13.16827274601021 -5.976430656643576" fill="#ffb410" stroke="none" /><path d="M 118.81262510543309 109.33194174019688 l 6.518051820132316 3.2332584901982875 a28.275916436736303,28.275916436736303 0 0,0 -0.22004227986208313,0.4341642935843895 l -6.461430870483963 -3.3449769954853714" fill="#ff5407" stroke="none" /><path d="M 118.64920377521936 109.65438752849418 l 1.29623513970539 0.6710397139526367 a22.459630033641638,22.459630033641638 0 0,0 -0.1806903885895531,0.3417981202605889 l -1.2844922428909438 -0.69325284929936" fill="#ff0000" stroke="none" /><line stroke="#e1ed5e" stroke-width="0.3" x1="174.80103733775053" x2="179.2010983576182" y1="140.37084112569926" y2="142.7455964860345" /><path d="M 175.68104954172406 140.8457921977663 a86.0,86.0 0 0,1 -30.038265399797805,32.042727171017184" fill="none" id="id29" stroke="none" /><text fill="#e1ed5e" style="font-size:6.75px; font-family:Arial;" text-anchor="middle"><textPath startOffset="22.206326154141568" xlink:href="#id29">May</textPath></text><path d="M 118.30583269289576 110.29060199501025 l 30.22372835200179 16.990232812324347 a55.67191610673658,55.67191610673658 0 0,0 -0.47678490391279826,0.8313146682911146 l -29.926791451936612 -17.507967326473775" fill="#5eff2a" stroke="none" /><path d="M 117.94076556474637 110.91462005526583 l 2.053531954199674 1.2493068353493 a23.403697371918856,23.403697371918856 0 0,0 -0.21234437675526233,0.34236674725097044 l -2.0317229377764487 -1.284469913965544" fill="#ff0e01" stroke="none" /><path d="M 117.75023020441432 111.22182372390056 l 6.128483748881812 3.87447168474681 a28.250506457911285,28.250506457911285 0 0,0 -0.2633957986473458,0.40879612875422583 l -6.060883086857416 -3.979389413422489" fill="#ff5307" stroke="none" /><path d="M 117.55443506779139 111.5257021239791 l 6.547853681351036 4.299119327463901 a28.83305909745075,28.83305909745075 0 0,0 -0.27596930190936947,0.4125366623479231 l -6.472881274030945 -4.41119290401763" fill="#ff5b08" stroke="none" /><path d="M 117.35343817320211 111.8261652097733 l 6.523824418515533 4.445910061330608 a28.894707171077357,28.894707171077357 0 0,0 -0.2836347011457907,0.4085969414761336 l -6.446328810207605 -4.557548264993761" fill="#ff5c08" stroke="none" /><path d="M 116.93607887273984 112.41649034213515 l 18.6642525625183 13.683480894665257 a44.14286008928326,44.14286008928326 0 0,0 -0.45454267381725655,0.6089341918803644 l -18.42594862200595 -14.002727966054936" fill="#deff1b" stroke="none" /><path d="M 116.498646956653 112.99209946851258 l 3.443677216296384 2.711773701753869 a25.383221347315544,25.383221347315544 0 0,0 -0.27327103242737627,0.34094763029524283 l -3.396488271814154 -2.7706491656273617" fill="#ff2b04" stroke="none" /><path d="M 116.27256486870786 113.27417163493432 l 5.607449988410436 4.574217659049416 a28.23650209458159,28.23650209458159 0 0,0 -0.3104724420311062,0.37398405695672904 l -5.527881546485787 -4.670062973119916" fill="#ff5307" stroke="none" /><path d="M 116.0416608686014 113.55231037782055 l 5.5393513244486865 4.679752866965144 a28.251517082069096,28.251517082069096 0 0,0 -0.3170324579227942,0.3687803721725917 l -5.457976356955113 -4.774410338299264" fill="#ff5307" stroke="none" /><path d="M 115.80600337817218 113.82643327865902 l 5.512526780655344 4.8221287763868705 a28.323993271672272,28.323993271672272 0 0,0 -0.32416291073649717,0.364200466639877 l -5.428705020270509 -4.916303412767614" fill="#ff5407" stroke="none" /><path d="M 115.32070863581623 114.36230785411682 l 12.74911706703026 11.951584521149549 a38.47513543738714,38.47513543738714 0 0,0 -0.45710924887786336,0.4792772199497458 l -12.541501266773434 -12.169268857681802" fill="#ffdb14" stroke="none" /><path d="M 114.81725581225074 114.88116024355365 l 3.078365676754303 3.0916421707561645 a25.36286448927959,25.36286448927959 0 0,0 -0.31202367850912666,0.3053808417001475 l -3.0246920458693825 -3.144173115378884" fill="#ff2a04" stroke="none" /><path d="M 114.55890576462653 115.13401014063108 l 5.022235947368944 5.220623787592273 a28.24415396320503,28.24415396320503 0 0,0 -0.3532727206706101,0.3340414075655019 l -4.931627392307527 -5.306299831903696" fill="#ff5307" stroke="none" /><path d="M 114.29624159901734 115.38237550388516 l 9.896967081242158 10.648873197814549 a35.53782851014291,35.53782851014291 0 0,0 -0.45166964001554616,0.41258950717039994 l -9.712197891759748 -10.817655471571532" fill="#ffb510" stroke="none" /><path d="M 114.0293411484842 115.62618273729858 l 4.859908785660642 5.413071217499129 a28.274617062819114,28.274617062819114 0 0,0 -0.3649548177864284,0.3220301941274624 l -4.766011614967627 -5.49592455339888" fill="#ff5407" stroke="none" /><path d="M 113.75828350139079 115.86535959552629 l 4.7926854648777395 5.526683493682256 a28.315330778891017,28.315330778891017 0 0,0 -0.37097738282921167,0.3161549738294968 l -4.69684260547148 -5.6083628577347" fill="#ff5407" stroke="none" /><path d="M 113.20401910651253 116.32954008644616 l 10.256048244037908 12.683755573099667 a37.31147390710508,37.31147390710508 0 0,0 -0.5028920535751502,0.3995278619138376 l -10.036198697745407 -12.85841734901863" fill="#ffcc13" stroke="none" /><path d="M 112.63410532772338 116.77436683061366 l 5.238229941051601 6.954824919932568 a29.70681586932011,29.70681586932011 0 0,0 -0.4111070082206061,0.304127136501113 l -5.117737962412431 -7.04396200517345" fill="#ff6709" stroke="none" /><path d="M 112.34349029814194 116.9893568818739 l 4.274639704224036 5.883536805422206 a28.2724514396238,28.2724514396238 0 0,0 -0.3961814206381307,0.28266492435617524 l -4.172730955737021 -5.956245991622601" fill="#ff5407" stroke="none" /><path d="M 111.1453310114006 117.79835938074945 l 2.5960240624770994 4.14567940402823 a25.891420923815897,25.891420923815897 0 0,0 -0.37976648513538735,0.23328359280890554 l -2.5242783774094035 -4.189751463665513" fill="#ff3204" stroke="none" /><line stroke="#e1ed5e" stroke-width="0.3" x1="143.8653032363475" x2="146.44561519142675" y1="172.8068346515853" y2="177.08958963109032" /><path d="M 144.38136562736335 173.6633856474863 a86.0,86.0 0 0,1 -40.68145358897372,12.25698825130547" fill="none" id="id30" stroke="none" /><text fill="#e1ed5e" style="font-size:6.75px; font-family:Arial;" text-anchor="middle"><textPath startOffset="21.466115282336833" xlink:href="#id30">June</textPath></text><path d="M 110.5260780823613 118.17145234162733 l 3.6275268997982715 6.262297473178948 a28.237079594100337,28.237079594100337 0 0,0 -0.4226838470928423,0.2400109197500956 l -3.51919428578423 -6.323811558723672" fill="#ff5307" stroke="none" /><path d="M 110.21172684928248 118.3499491758327 l 3.5245299086166297 6.33339939917818 a28.248052084956598,28.248052084956598 0 0,0 -0.4269184448053086,0.23278997537517357 l -3.4149886519426724 -6.393130026313124" fill="#ff5307" stroke="none" /><path d="M 109.89434966115114 118.52300852407294 l 3.4151246991371402 6.393384717468087 a28.24834083471597,28.24834083471597 0 0,0 -0.43086669323294347,0.22540908988195427 l -3.304567103377701 -6.451223226294758" fill="#ff5307" stroke="none" /><path d="M 109.57404056367764 118.69057910512821 l 3.30357978126734 6.449295761930761 a28.246175211520658,28.246175211520658 0 0,0 -0.43464957821480843,0.21794232169413535 l -3.1920762953697714 -6.5052059245341995" fill="#ff5307" stroke="none" /><path d="M 108.92500713936063 119.00905698771935 l 7.620220526696954 16.230038137689174 a38.92991630840308,38.92991630840308 0 0,0 -0.609034449019347,0.27957784429140786 l -7.3397180819101875 -16.358803052314656" fill="#ffe115" stroke="none" /><path d="M 108.59647513512805 119.15986991738527 l 2.961773346942966 6.601216331135327 a28.235202720664397,28.235202720664397 0 0,0 -0.4451472317932916,0.19513946474691712 l -2.8477054404919206 -6.651220349176699" fill="#ff5307" stroke="none" /><path d="M 108.2653958097858 119.30500536409082 l 2.853274246278093 6.664227085701809 a28.249351458873782,28.249351458873782 0 0,0 -0.44866499820102096,0.18754200563583553 l -2.7381377885796105 -6.712354134357617" fill="#ff5307" stroke="none" /><path d="M 107.93186726928326 119.44442032107085 l 2.7361746530664095 6.707541644338561 a28.24415396320503,28.24415396320503 0 0,0 -0.45174362101281734,0.17975810972681844 l -2.620309956011726 -6.753646598471448" fill="#ff5307" stroke="none" /><path d="M 107.2578585660854 119.70592522655815 l 3.015020803713031 8.186130106215563 a29.723707730243557,29.723707730243557 0 0,0 -0.4816379202933631,0.17269822236078866 l -2.873663322789933 -8.236815869616311" fill="#ff6809" stroke="none" /><path d="M 106.91757812671514 119.82793768551818 l 10.21005578004033 29.265206126184594 a51.99512104573246,51.99512104573246 0 0,0 -0.8475954130260382,0.2875503835296147 l -9.704790634077064 -29.436619496612334" fill="#85ff25" stroke="none" /><path d="M 106.57524785965236 119.94407469862006 l 1.295795344461974 3.9304129206530134 a25.13850592624506,25.13850592624506 0 0,0 -0.412126238414813,0.13194980702276615 l -1.2279477609562208 -3.952135574335486" fill="#ff2703" stroke="none" /><path d="M 105.88484417918355 120.15858648285463 l 4.06969738097602 13.940784856062923 a35.52266914777571,35.52266914777571 0 0,0 -0.5884394962972997,0.1662988794168758 l -3.8291267165741147 -14.008772528818318" fill="#ffb510" stroke="none" /><path d="M 105.53697534728816 120.25689768951611 l 3.8263097827136283 13.998466840706856 a35.51198540667883,35.51198540667883 0 0,0 -0.591037061636804,0.15609825983054 l -3.584782278265327 -14.06225644984098" fill="#ffb510" stroke="none" /><path d="M 105.18746579009965 120.34920634021253 l 1.791178570014701 7.026371601902313 a28.251083957430033,28.251083957430033 0 0,0 -0.4722595345571227,0.1160699035767504 l -1.669965750714367 -7.056162763793094" fill="#ff5307" stroke="none" /><path d="M 104.48393922423573 120.51570834832081 l 0.9955597889378555 4.555060461740798 a25.66258673951105,25.66258673951105 0 0,0 -0.43236391953562986,0.09060606313433885 l -0.9170044079728475 -4.571522505601678" fill="#ff2f04" stroke="none" /><path d="M 104.13013068566511 120.58985236759428 l 2.276311886482715 11.348049069718833 a32.57410097991585,32.57410097991585 0 0,0 -0.5507076559086527,0.10554443295016114 l -2.0806366160023577 -11.385550701017463" fill="#ff8e0d" stroke="none" /><path d="M 103.7750983002368 120.6578951692458 l 1.3079926096357712 7.157528642448605 a28.27606081161599,28.27606081161599 0 0,0 -0.47954991146551895,0.0833758990134159 l -1.1845937266982023 -7.178983119983027" fill="#ff5407" stroke="none" /><path d="M 103.06178313531738 120.77559828337769 l 2.125013505306762 14.419188094596795 a35.574932854222624,35.574932854222624 0 0,0 -0.6065888726450193,0.08406769049820409 l -1.876496041474912 -14.4536303505876" fill="#ffb610" stroke="none" /><path d="M 102.70371172650421 120.8252237178851 l 0.9387684848110877 7.23082402751878 a28.291508923742562,28.291508923742562 0 0,0 -0.48347841491563637,0.05854250294491663 l -0.814162646844071 -7.245912059189048" fill="#ff5407" stroke="none" /><path d="M 102.34483914955558 120.86867818915974 l 0.8100518541356669 7.209326688226486 a28.254693329422224,28.254693329422224 0 0,0 -0.483784129245969,0.050146203070306504 l -0.6858351282840953 -7.222202259752551" fill="#ff5307" stroke="none" /><path d="M 101.98527174616119 120.90594882070398 l 0.6849070145161933 7.212428736823477 a28.24487583760347,28.24487583760347 0 0,0 -0.48440726321892963,0.041796696949992426 l -0.560655433555722 -7.223149686052133" fill="#ff5307" stroke="none" /><path d="M 101.26447882468166 120.96189622390904 l 0.4392195149339749 7.281160990481204 a28.294396421336316,28.294396421336316 0 0,0 -0.4864102240543502,0.025141852608047563 l -0.3138212224661451 -7.287642649851453" fill="#ff5407" stroke="none" /><path d="M 100.90346689309514 120.98055641714683 l 0.6238783791256541 14.48787512937178 a35.50130166558195,35.50130166558195 0 0,0 -0.6107570371825489,0.02103570727432803 l -0.3744009902684529 -14.4964676350722" fill="#ffb510" stroke="none" /><line stroke="#e1ed5e" stroke-width="0.3" x1="102.19456741930631" x2="102.32365962044197" y1="184.97166512339345" y2="189.96999836594603" /><path d="M 102.22038585953345 185.97133177190398 a86.0,86.0 0 0,1 -42.740103519485714,-10.115201625700543" fill="none" id="id31" stroke="none" /><text fill="#e1ed5e" style="font-size:6.75px; font-family:Arial;" text-anchor="middle"><textPath startOffset="22.20632615414155" xlink:href="#id31">July</textPath></text><path d="M 100.54218724476979 120.99299961872073 l 0.1873943269127051 7.2557388086456305 a28.258158326534726,28.258158326534726 0 0,0 -0.4863636908859428,0.008373192011236475 l -0.06247094613409435 -7.257889477936026" fill="#ff5307" stroke="none" /><path d="M 100.18074693466247 120.99922214144158 l 0.06250698252416237 7.262076194361549 a28.26234519804567,28.26234519804567 0 0,0 -0.48650783437323064,0.0 l 0.06250698252415737 -7.262076194361549" fill="#ff5307" stroke="none" /><path d="M 99.09653310690486 120.98055641714683 l -1.3435230397805347 31.199661160006517 a52.22857522618732,52.22857522618732 0 0,0 -0.8978637536389182,-0.04640930029788239 l 1.8803748618329417 -31.171912052946432" fill="#82ff25" stroke="none" /><path d="M 97.65516085044442 120.86867818915974 l -0.16133652323806927 1.4358682062482981 a22.444903795913504,22.444903795913504 0 0,0 -0.3835647840287206,-0.04644435367913513 l 0.1860287303181792 -1.4328783238438143" fill="#ff0000" stroke="none" /><path d="M 97.2962882734958 120.8252237178851 l -0.9316492798039027 7.175988656012771 a28.236213344822215,28.236213344822215 0 0,0 -0.48145622342522343,-0.06672544552763382 l 1.055034094415957 -7.1588886449925315" fill="#ff5307" stroke="none" /><path d="M 96.58105272829116 120.7198165907248 l -0.8587405443020801 5.20421789601484 a26.274591854506788,26.274591854506788 0 0,0 -0.44560585300641387,-0.07747428935292631 l 0.948195368780544 -5.188665028140908" fill="#ff3705" stroke="none" /><path d="M 96.22490169976321 120.6578951692458 l -2.6193073030073375 14.333236217497037 a35.570601607831996,35.570601607831996 0 0,0 -0.601367406664214,-0.11525349475368443 l 2.8656423242432467 -14.286025524394883" fill="#ffb610" stroke="none" /><path d="M 95.86986931433489 120.58985236759428 l -1.4238200660594644 7.098139790087956 a28.239533967055024,28.239533967055024 0 0,0 -0.47578039251423476,-0.09970440717746774 l 1.545791920003086 -7.072579402183947" fill="#ff5307" stroke="none" /><path d="M 95.51606077576429 120.51570834832081 l -3.190353728959785 14.597068193419378 a35.94164504862913,35.94164504862913 0 0,0 -0.6032716989197883,-0.13730267459011383 l 3.4411455772724358 -14.539988785251579" fill="#ffbb11" stroke="none" /><path d="M 94.81253420990036 120.34920634021253 l -1.788218474814967 7.0147598457108975 a28.239100842415965,28.239100842415965 0 0,0 -0.46999217289688117,-0.1241292045544528 l 1.9087010905233375 -6.982939291852863" fill="#ff5307" stroke="none" /><path d="M 94.46302465271185 120.25689768951611 l -3.0004532948313756 10.977089765324475 a32.37977239185634,32.37977239185634 0 0,0 -0.5363768380473113,-0.15158545215559185 l 3.188961300983301 -10.923815519830363" fill="#ff8c0c" stroke="none" /><path d="M 94.11515582081647 120.15858648285463 l -2.0271616191848403 6.944060296381679 a28.233903346747212,28.233903346747212 0 0,0 -0.46535526274021466,-0.14020772329619774 l 2.1463918563653004 -6.908137203979756" fill="#ff5307" stroke="none" /><path d="M 93.08242187328487 119.8279376855182 l -2.445495857956787 7.009554296828091 a28.423900688416094,28.423900688416094 0 0,0 -0.46057606737482115,-0.16514619124903257 l 2.565791485961335 -6.9664205645391" fill="#ff5607" stroke="none" /><path d="M 92.40401165467489 119.57807347666478 l -2.106337327921253 5.428921833202079 a26.82321639731967,26.82321639731967 0 0,0 -0.42901681241086276,-0.1707146435562244 l 2.199475216373974 -5.391860345239788" fill="#ff3f05" stroke="none" /><path d="M 91.40352486487194 119.15986991738527 l -2.963369066310161 6.604772879024955 a28.239100842415965,28.239100842415965 0 0,0 -0.44178325702308907,-0.20280102519886953 l 3.0766203191006696 -6.552784783492011" fill="#ff5307" stroke="none" /><path d="M 91.07499286063937 119.00905698771935 l -3.880182667257714 8.264263803148806 a30.129834266804778,30.129834266804778 0 0,0 -0.4675681572763758,-0.22446112956278813 l 4.021863492534332 -8.196248397086455" fill="#ff6d0a" stroke="none" /><path d="M 90.7491055286396 118.85261126421891 l -3.1911858975188987 6.503391362212152 a28.24415396320503,28.24415396320503 0 0,0 -0.43461847542934184,-0.21792672611181918 l 3.3026582806310008 -6.447496795191031" fill="#ff5307" stroke="none" /><path d="M 90.42595943632237 118.69057910512821 l -3.3087138562412144 6.459318576623541 a28.25743645213629,28.25743645213629 0 0,0 -0.4310054269951752,-0.22548166882939136 l 3.419410185762885 -6.401407488849433" fill="#ff5307" stroke="none" /><path d="M 90.10565033884886 118.52300852407294 l -4.297186684471492 8.04467482067312 a30.120449899625083,30.120449899625083 0 0,0 -0.45521636639973795,-0.24822025849198778 l 4.435025862739871 -7.969513910421365" fill="#ff6d0a" stroke="none" /><line stroke="#e1ed5e" stroke-width="0.3" x1="58.666819895761336" x2="56.23545636021788" y1="174.27360380694188" y2="178.64263932499728" /><path d="M 58.180547188652646 175.14741091055294 a86.0,86.0 0 0,1 -31.652253787137756,-30.449443065178592" fill="none" id="id32" stroke="none" /><text fill="#e1ed5e" style="font-size:6.75px; font-family:Arial;" text-anchor="middle"><textPath startOffset="22.20632615414155" xlink:href="#id32">August</textPath></text><path d="M 89.4739219176387 118.17145234162733 l -15.29673391636361 26.40716410887585 a51.51767331860556,51.51767331860556 0 0,0 -0.763521673648282,-0.45110206294901894 l 15.749023461040276 -26.139943473633082" fill="#8aff24" stroke="none" /><path d="M 88.8546689885994 117.79835938074946 l -3.949665180768729 6.307355093271522 a28.441947548377044,28.441947548377044 0 0,0 -0.41270376205797027,-0.26340706734807195 l 4.057650744873623 -6.238433597099647" fill="#ff5608" stroke="none" /><path d="M 88.54995079064634 117.60387380957326 l -4.004357966495484 6.156498635216347 a28.344205754828536,28.344205754828536 0 0,0 -0.4067060160976294,-0.26954257046829044 l 4.109738681333075 -6.086658043656738" fill="#ff5507" stroke="none" /><path d="M 88.24862548938628 117.40417183066458 l -4.253222844537533 6.299162804621853 a28.600615541153715,28.600615541153715 0 0,0 -0.4056426873562002,-0.27900473921109387 l 4.361022416516624 -6.225017276045658" fill="#ff5808" stroke="none" /><path d="M 87.95078237400918 117.19931262002967 l -4.213156047184642 6.013949637376429 a28.342906380911348,28.342906380911348 0 0,0 -0.3971687046304579,-0.28336932527068714 l 4.3160520796639865 -5.940536050261523" fill="#ff5507" stroke="none" /><path d="M 87.36589467227662 116.77436683061367 l -7.307915765837736 9.702757468262833 a33.14698050251625,33.14698050251625 0 0,0 -0.4528055449218305,-0.34719198322709116 l 7.473850039253053 -9.575526143208375" fill="#ff960d" stroke="none" /><path d="M 87.07902340077011 116.55440617244103 l -7.206822129132474 9.23340893174484 a32.71298961417532,32.71298961417532 0 0,0 -0.4409126952908194,-0.35028771122525787 l 7.364692317140652 -9.10798730651445" fill="#ff900d" stroke="none" /><path d="M 86.79598089348748 116.32954008644616 l -4.842891819536005 5.989251868200512 a28.702255456453784,28.702255456453784 0 0,0 -0.3815074702874976,-0.31395467515026443 l 4.945269418368191 -5.905002074193067" fill="#ff5a08" stroke="none" /><path d="M 86.51685102203217 116.09983520530335 l -7.497762224309945 8.952859337027991 a32.677762143531545,32.677762143531545 0 0,0 -0.42813240542327874,-0.3648637240359005 l 7.65076010631028 -8.822471222769138" fill="#ff900d" stroke="none" /><path d="M 85.97065885151581 115.62618273729859 l -7.79531799801295 8.682593305207641 a32.66852215123154,32.66852215123154 0 0,0 -0.415202060972178,-0.37927723835223437 l 7.943619608451983 -8.547123300268831" fill="#ff900d" stroke="none" /><path d="M 85.70375840098266 115.38237550388516 l -29.57590594619378 31.82288771359417 a64.44456692119422,64.44456692119422 0 0,0 -0.8060608761143161,-0.7621808701492179 l 30.119302656698913 -31.30907220669902" fill="#35ff61" stroke="none" /><path d="M 84.9287848128048 114.62390073753433 l -13.61339345617173 13.209347231217153 a39.96869356775536,39.96869356775536 0 0,0 -0.4748536759569983,-0.49788218080093355 l 13.838753683507685 -12.973057933833719" fill="#ffee16" stroke="none" /><path d="M 84.67929136418377 114.36230785411682 l -8.46967326897695 7.939845199356876 a32.60932845055962,32.60932845055962 0 0,0 -0.3803701017529357,-0.4128166214453383 l 8.605089778725613 -7.7928773231101935" fill="#ff8f0d" stroke="none" /><path d="M 84.19399662182784 113.82643327865904 l -9.04146106285649 7.9090934713969006 a33.012567489527086,33.012567489527086 0 0,0 -0.3704599432003452,-0.43092860782642484 l 9.176263515627614 -7.752287764408945" fill="#ff940d" stroke="none" /><path d="M 83.95833913139862 113.55231037782056 l -12.20406432518053 10.310233395437303 a36.97623543647047,36.97623543647047 0 0,0 -0.40656955576949527,-0.4897392209983568 l 12.379729880843561 -10.098632917325185" fill="#ffc812" stroke="none" /><path d="M 83.72743513129214 113.27417163493432 l -10.084750947773879 8.226528273593969 a34.014529154559035,34.014529154559035 0 0,0 -0.3661940843682625,-0.4568834251639008 l 10.224862944197003 -8.051717014851809" fill="#ffa20e" stroke="none" /><path d="M 83.50135304334701 112.99209946851258 l -5.7395754552639415 4.519712156865865 a28.305513287072262,28.305513287072262 0 0,0 -0.29814221782113176,-0.38538900650922286 l 5.8165244903031414 -4.420245156243389" fill="#ff5407" stroke="none" /><path d="M 83.06392112726016 112.41649034213515 l -13.25582613202381 9.718355611240112 a37.43664692779423,37.43664692779423 0 0,0 -0.3765417303261797,-0.5229835301526532 l 13.421147654725596 -9.488738475636321" fill="#ffce13" stroke="none" /><path d="M 82.85270091963577 112.12312394758628 l -5.973128052295065 4.22299578454892 a28.315186404011328,28.315186404011328 0 0,0 -0.2779460399456179,-0.40040200073688886 l 6.044934999402817 -4.119552521625018" fill="#ff5407" stroke="none" /><path d="M 82.6465618267979 111.8261652097733 l -7.7072086108869815 5.252372551699257 a30.326761602698667,30.326761602698667 0 0,0 -0.29026594786150156,-0.4339082082519651 l 7.796477664159214 -5.118927429241472" fill="#ff700a" stroke="none" /><path d="M 82.44556493220864 111.52570212397912 l -38.86761532566262 25.519280727805025 a67.49650750291042,67.49650750291042 0 0,0 -0.6293089480049813,-0.9767014624225895 l 39.30112913704465 -24.84645766546099" fill="#38ff84" stroke="none" /><path d="M 82.24976979558568 111.22182372390057 l -3.6807512312579274 2.326997510062394 a25.3546351211374,25.3546351211374 0 0,0 -0.23004545423301975,-0.3709065202908823 l 3.7202613251589027 -2.2632946584062474" fill="#ff2a04" stroke="none" /><line stroke="#e1ed5e" stroke-width="0.3" x1="26.63291911575756" x2="22.317208475507996" y1="142.92168965132927" y2="145.44649492493687" /><path d="M 25.769776987707644 143.4266507060508 a86.0,86.0 0 0,1 -11.730757126820373,-40.83630448921669" fill="none" id="id33" stroke="none" /><text fill="#e1ed5e" style="font-size:6.75px; font-family:Arial;" text-anchor="middle"><textPath startOffset="21.46611528233685" xlink:href="#id33">September</textPath></text><path d="M 81.87401531095188 110.60418214915194 l -14.140556007968291 8.272600588114862 a37.38265072279106,37.38265072279106 0 0,0 -0.32015214814413645,-0.5582122559941854 l 14.280860152264806 -8.02796848626237" fill="#ffcd13" stroke="none" /><path d="M 81.69416730710424 110.29060199501025 l -6.361969469011467 3.5763735421558356 a28.29829454308788,28.29829454308788 0 0,0 -0.23504238764780686,-0.42667020625731633 l 6.4225882661107905 -3.466332817500697" fill="#ff5407" stroke="none" /><path d="M 81.35079622478065 109.6543875284942 l -32.0897048176087 16.612314912653023 a57.134722387731344,57.134722387731344 0 0,0 -0.44462058733311544,-0.8772785999742994 l 32.37090407472808 -16.05748210097604" fill="#4fff2b" stroke="none" /><path d="M 81.02952815118164 109.00673069616217 l -8.267834573283835 3.9253720221315787 a30.15235674803604,30.15235674803604 0 0,0 -0.21856924091200114,-0.4707787000919457 l 8.334178431035664 -3.7824732547608058" fill="#ff6e0a" stroke="none" /><path d="M 80.73074385275274 108.34839909993369 l -6.778533278700909 2.9367973880435163 a28.38737384385513,28.38737384385513 0 0,0 -0.19039684535400833,-0.45004190009797834 l 6.8280811052472234 -2.8196809622793793" fill="#ff5507" stroke="none" /><path d="M 80.58989483394504 108.01547362559985 l -6.8713170784746325 2.8375354149016916 a28.43415130487391,28.43415130487391 0 0,0 -0.18292283367135004,-0.453999471779883 l 6.91914252640337 -2.718836575279003" fill="#ff5607" stroke="none" /><path d="M 80.45479744820244 107.68017299344265 l -6.785172490304089 2.6661938333860267 a28.290209549825374,28.290209549825374 0 0,0 -0.17419456791860757,-0.4547670492082183 l 6.830061337816206 -2.54900321734465" fill="#ff5407" stroke="none" /><path d="M 80.20201598880116 107.00284435728193 l -5.959212968840056 2.1078631485446837 a27.321020982482516,27.321020982482516 0 0,0 -0.1530096464539233,-0.444717654822981 l 5.994613446237208 -2.0049727906324057" fill="#ff4606" stroke="none" /><path d="M 80.0844068197444 106.66101706037122 l -29.08911436450778 9.729214957311612 a51.673020689149425,51.673020689149425 0 0,0 -0.27487032497026953,-0.8459638740190141 l 29.252276940494298 -9.227052183314795" fill="#88ff25" stroke="none" /><path d="M 79.86692584326677 105.97154293290107 l -2.8044216444727694 0.8318016474560828 a23.92517943735047,23.92517943735047 0 0,0 -0.11370995579375022,-0.39583927346278935 l 2.818324237152624 -0.7834048984886974" fill="#ff1602" stroke="none" /><path d="M 79.67330655649465 105.27499134158121 l -4.805023058924346 1.2469541641079123 a25.964185863178447,25.964185863178447 0 0,0 -0.10854103582510748,-0.4335674835680229 l 4.825775409044511 -1.1640588411424975" fill="#ff3304" stroke="none" /><path d="M 79.58551787078972 104.9243191809786 l -2.579482498918947 0.622214909299615 a23.653465913778405,23.653465913778405 0 0,0 -0.09206766274157861,-0.39662508145612013 l 2.5898107275910807 -0.5777211704949206" fill="#ff1202" stroke="none" /><path d="M 79.4281124754447 104.21870165774334 l -61.715662573665874 12.656104973230022 a84.0,84.0 0 0,0 -0.2782802680973342,-1.4189450917281805 l 61.92437277473888 -11.591896154433886" fill="#4dd2ff" stroke="none" /><path d="M 79.23777060512086 103.15116336523772 l -3.0450768602425264 0.46216302034963685 a24.079949308375575,24.079949308375575 0 0,0 -0.058670164658820315,-0.4103389949754581 l 3.0525810759179457 -0.4096785533937782" fill="#ff1802" stroke="none" /><path d="M 79.1416061653843 102.43462659150553 l -4.712454773032201 0.5500455975977955 a25.74444729629392,25.74444729629392 0 0,0 -0.047587628246171305,-0.4406023356824482 l 4.721224702779424 -0.4688469400305652" fill="#ff3004" stroke="none" /><path d="M 79.10278846688536 102.07522291339032 l -6.332607341279028 0.6288672455318376 a27.363755946870043,27.363755946870043 0 0,0 -0.04251207548296265,-0.4691172104803842 l 6.342494013039065 -0.5197686465028872" fill="#ff4706" stroke="none" /><path d="M 79.07016306316243 101.71520430193888 l -7.6599738257208045 0.6277363793260742 a28.68565234528971,28.68565234528971 0 0,0 -0.03609398342481114,-0.4924737270281734 l 7.669644367809951 -0.49578951580114017" fill="#ff5908" stroke="none" /><path d="M 79.0235259727143 100.99374915477108 l -7.355446929313692 0.3484603351097531 a28.363696363586364,28.363696363586364 0 0,0 -0.018906250168874244,-0.48788630882446454 l 7.360355312333768 -0.22179677927129182" fill="#ff5507" stroke="none" /><line stroke="#e1ed5e" stroke-width="0.3" x1="15.007084014347285" x2="10.007500721073583" y1="101.09737516637583" y2="101.16192664675087" /><path d="M 14.007167355692545 101.11028546245083 a86.0,86.0 0 0,1 10.666146001902534,-42.60595125391555" fill="none" id="id34" stroke="none" /><text fill="#e1ed5e" style="font-size:6.75px; font-family:Arial;" text-anchor="middle"><textPath startOffset="22.20632615414155" xlink:href="#id34">October</textPath></text><path d="M 79.00175016825051 100.2711162175752 l -8.735828978114537 0.11279153876668337 a29.736557094535755,29.736557094535755 0 0,0 -0.002202916308229413,-0.5118801685966633 l 8.736476191712269 0.03759810803365527" fill="#ff6809" stroke="none" /><path d="M 79.00486145842228 99.54816195383935 l -6.09250856648202 -0.13111736135699645 a27.09391929673392,27.09391929673392 0 0,0 0.014047946271282532,-0.46618294596037935 l 6.089348925755092 0.2359704547423702" fill="#ff4306" stroke="none" /><path d="M 79.01574976396665 99.18683210126434 l -5.392108447227424 -0.208951449132906 a26.396155503203747,26.396155503203747 0 0,0 0.021502046531775704,-0.4538742180980386 l 5.38771279246215 0.30173677385395364" fill="#ff3905" stroke="none" /><path d="M 79.03285615573316 98.82574320788736 l -5.9461459944633885 -0.33301160962852056 a26.95546378711351,26.95546378711351 0 0,0 0.02993264212940141,-0.4630447252408277 l 5.939532761329573 0.43531539912236" fill="#ff4106" stroke="none" /><path d="M 79.05617556472873 98.46500227214037 l -7.224775656544794 -0.5295123749421464 a28.24415396320503,28.24415396320503 0 0,0 0.03971062975453456,-0.4845702663420734 l 7.214590542970762 0.6537965584919982" fill="#ff5307" stroke="none" /><path d="M 79.08570108090925 98.10471618934814 l -3.463365800552788 -0.31385518384081545 a24.477557727035226,24.477557727035226 0 0,0 0.04163851039470818,-0.4192941172861628 l 3.4574501644758513 0.3734248318314085" fill="#ff1e03" stroke="none" /><path d="M 79.12142395522702 97.74499172005258 l -7.4175777265518406 -0.8011417615194867 a28.46071628273643,28.46071628273643 0 0,0 0.056798979651166336,-0.48661897109886093 l 7.402688393897085 0.9287044709432094" fill="#ff5608" stroke="none" /><path d="M 79.16333360222342 97.38593545837743 l -12.229276753204589 -1.5342242429745114 a33.32513910405075,33.32513910405075 0 0,0 0.07630504857509494,-0.5685612423392931 l 12.20105570557166 1.7445038273784639" fill="#ff980e" stroke="none" /><path d="M 79.26566170972629 96.67025291283419 l -15.099730399898878 -2.4248800522193372 a36.29319788066844,36.29319788066844 0 0,0 0.10436565045198828,-0.6159719767683859 l 15.055752887926666 2.684437817303551" fill="#ffbf11" stroke="none" /><path d="M 79.46518482838121 95.60439243477599 l -6.0406702081053325 -1.2930438109065245 a27.17751235207304,27.17751235207304 0 0,0 0.10185822711569543,-0.45661045976842873 l 6.0175175939876 1.3968324402249124" fill="#ff4406" stroke="none" /><path d="M 79.62865764111835 94.90015583598534 l -7.195635944174735 -1.8013845788750547 a28.417692568589526,28.417692568589526 0 0,0 0.12287765357189698,-0.47349772416204594 l 7.16356195873253 1.9249787285859645" fill="#ff5607" stroke="none" /><path d="M 79.81627453868168 94.20196356495316 l -14.799073620529635 -4.2512254846715996 a36.397580918682564,36.397580918682564 0 0,0 0.17816460370666798,-0.6006824733300132 l 14.72370311971126 4.505337344748152" fill="#ffc111" stroke="none" /><path d="M 80.02781315780177 93.51064311812611 l -15.756032587166246 -5.119445322057826 a37.56687306927244,37.56687306927244 0 0,0 0.20511996812643338,-0.6132825965356976 l 15.66557532526804 5.389901021515846" fill="#ffd013" stroke="none" /><path d="M 80.14247586403 93.16781622104843 l -6.857690957994095 -2.359458540926579 a28.252238956467536,28.252238956467536 0 0,0 0.16217716030605916,-0.4584966711965096 l 6.8160607168782255 2.4771528385496997" fill="#ff5307" stroke="none" /><path d="M 80.2630227832202 92.82701384747504 l -15.457173524893818 -5.6175821876602665 a37.4463200447333,37.4463200447333 0 0,0 0.22538300148351506,-0.6039143905974078 l 15.358185934908676 5.882819715287016" fill="#ffce13" stroke="none" /><path d="M 80.38941819471856 92.48833698450439 l -7.192113600590825 -2.75487664125556 a28.701677956935036,28.701677956935036 0 0,0 0.1806927121488237,-0.45984324332248216 l 7.14362733856031 2.8782688894738055" fill="#ff5a08" stroke="none" /><path d="M 80.52162464483688 92.15188598940014 l -28.29650447365541 -11.401063444022364 a51.50698957750869,51.50698957750869 0 0,0 0.3384213112130829,-0.819514048440091 l 28.09606147555613 11.886452062915767" fill="#8aff24" stroke="none" /><path d="M 80.65960295795068 91.81776055985345 l -4.008100542910517 -1.6956858885043957 a25.352036373303022,25.352036373303022 0 0,0 0.17349157863094838,-0.4004424834045839 l 3.978318254436888 1.764427516495579" fill="#ff2a04" stroke="none" /><path d="M 80.803312248108 91.48605970444005 l -8.594085990327137 -3.8115708273340996 a30.401403415497153,30.401403415497153 0 0,0 0.21628091577798678,-0.47654632879500747 l 8.5272027575858 3.958939164971178" fill="#ff710a" stroke="none" /><path d="M 80.95270993114464 91.15688171328213 l -14.949646002860465 -6.940697992730192 a37.48226938977551,37.48226938977551 0 0,0 0.2767294640524202,-0.5828628261064721 l 14.827958344966293 7.197003234477196" fill="#ffce13" stroke="none" /><path d="M 81.10775173730289 90.83032412892265 l -6.539404594766807 -3.174011885194484 a28.2689864425113,28.2689864425113 0 0,0 0.21624426742596023,-0.4359352477266732 l 6.483800314387433 3.286106721420119" fill="#ff5407" stroke="none" /><path d="M 81.26839172434947 90.50648371742162 l -6.486247128679426 -3.2873468109511217 a28.27172956522536,28.27172956522536 0 0,0 0.22373784580898884,-0.432190303776966 l 6.428699849710323 3.3985098369884232" fill="#ff5407" stroke="none" /><path d="M 81.43458229118936 90.18545643968196 l -7.94592253745243 -4.200584338790822 a29.987913760071866,29.987913760071866 0 0,0 0.24517532923520394,-0.4542726493935558 l 7.872439108998754 4.33673797151685" fill="#ff6b09" stroke="none" /><path d="M 81.6062741919709 89.86733742301443 l -10.209486482234306 -5.624161341125276 a32.65610591157841,32.65610591157841 0 0,0 0.2754656965419618,-0.490022736859739 l 10.111163144399914 5.7990675879198" fill="#ff8f0d" stroke="none" /><line stroke="#e1ed5e" stroke-width="0.3" x1="26.266209847984243" x2="21.928928074336255" y1="57.711370442889674" y2="55.22380399835377" /><path d="M 25.398753493254645 57.213857153982495 a86.0,86.0 0 0,1 29.58750427330803,-30.492523968695096" fill="none" id="id35" stroke="none" /><text fill="#e1ed5e" style="font-size:6.75px; font-family:Arial;" text-anchor="middle"><textPath startOffset="21.46611528233685" xlink:href="#id35">November</textPath></text><path d="M 81.96595687620814 89.24020034530311 l -14.34729791808264 -8.560146503207436 a37.706916702569416,37.706916702569416 0 0,0 0.337358759226208,-0.5545290976547557 l 14.197823360570215 8.805843374069267" fill="#ffd113" stroke="none" /><path d="M 82.54541684631803 88.32363383020206 l -6.157088167440034 -4.118827436311168 a28.40773070189108,28.40773070189108 0 0,0 0.2753866169893336,-0.4040958795081239 l 6.08527708478196 4.224201339089707" fill="#ff5507" stroke="none" /><path d="M 82.7489923806493 88.02491185347247 l -7.3187231016938545 -5.080419428051352 a29.909229450642123,29.909229450642123 0 0,0 0.29722279703519977,-0.42040056806312587 l 7.230187684854777 5.205646496446263" fill="#ff6a09" stroke="none" /><path d="M 83.17141714833178 87.43820079747576 l -24.559455579547375 -18.332556712165747 a51.64717758568534,51.64717758568534 0 0,0 0.5379276360717861,-0.7078497139017356 l 24.24025200325148 18.752591201948512" fill="#88ff25" stroke="none" /><path d="M 83.6137871275137 86.86637796730984 l -5.701813569280342 -4.5700287737339504 a28.307245785628513,28.307245785628513 0 0,0 0.30801182605620464,-0.3775860790166403 l 5.622303251147745 4.667499022358673" fill="#ff5407" stroke="none" /><path d="M 83.84228863543731 86.58626213691792 l -6.878331995951006 -5.710223449794499 a29.939692550256208,29.939692550256208 0 0,0 0.3326005955920661,-0.3936941975528135 l 6.779020786871817 5.827776596976428" fill="#ff6b09" stroke="none" /><path d="M 85.05521093208273 85.24692304244772 l -11.699098050378126 -11.54902174174559 a37.4392456756286,37.4392456756286 0 0,0 0.4566949719446085,-0.45473377859789427 l 11.498567278266204 11.748691370993594" fill="#ffce13" stroke="none" /><path d="M 85.31137513191541 84.99185889309783 l -10.304933894617971 -10.529093320625668 a35.73273459772117,35.73273459772117 0 0,0 0.44328457686934797,-0.4264394117343982 l 10.122166074136194 10.70491581912238" fill="#ffb811" stroke="none" /><path d="M 85.57189188830299 84.74124197986013 l -5.055379430333198 -5.346425936807997 a28.358065743278548,28.358065743278548 0 0,0 0.35757105903082487,-0.3323233298673568 l 4.962600487507517 5.4326538527500015" fill="#ff5507" stroke="none" /><path d="M 85.83668400450813 84.49514656593479 l -10.901265083457599 -11.933823789478536 a37.1633452805456,37.1633452805456 0 0,0 0.4760253116497085,-0.42738022489053845 l 10.694228784211917 12.119703023138355" fill="#ffca12" stroke="none" /><path d="M 86.10567301691215 84.25364557470407 l -4.8886019837577335 -5.540222248558797 a28.38867321777232,28.38867321777232 0 0,0 0.369196319236375,-0.32016340992084025 l 4.7925118658745856 5.6235506518993175" fill="#ff5507" stroke="none" /><path d="M 86.93701828274178 83.55741782278169 l -7.595145980032123 -9.560130652227475 a33.20992795006004,33.20992795006004 0 0,0 0.4506546814889611,-0.351743127068243 l 7.429458743383735 9.68945216851894" fill="#ff970d" stroke="none" /><path d="M 87.51073957382395 83.11751280151077 l -9.761145079121182 -13.194729008570736 a37.412825072645774,37.412825072645774 0 0,0 0.5210264724253297,-0.37854789043361564 l 9.532573290342071 13.360796133821019" fill="#ffce13" stroke="none" /><path d="M 87.80319425747018 82.90503203632743 l -8.573882288877625 -12.0171007185576 a35.76218707317744,35.76218707317744 0 0,0 0.5041938082262667,-0.35321998356611417 l 8.365757341067699 12.162905544887657" fill="#ffb811" stroke="none" /><path d="M 88.39885842347998 82.49532879139004 l -8.070689947805464 -12.17766139919362 a35.60929407558827,35.60929407558827 0 0,0 0.5138471568308322,-0.3342204843913306 l 7.859875765190345 12.314780807744485" fill="#ffb610" stroke="none" /><line stroke="#e1ed5e" stroke-width="0.3" x1="56.762969772571076" x2="54.21961505331055" y1="26.818313649435495" y2="22.513508569990535" /><path d="M 56.25429882871897 25.957352633546506 a86.0,86.0 0 0,1 42.265352541879196,-11.944610805530505" fill="none" id="id36" stroke="none" /><text fill="#e1ed5e" style="font-size:6.75px; font-family:Arial;" text-anchor="middle"><textPath startOffset="22.20632615414155" xlink:href="#id36">December</textPath></text><path d="M 89.63071344664047 81.73862282372117 l -7.220484654258964 -12.716014066004995 a35.62300968915859,35.62300968915859 0 0,0 0.5358309826456341,-0.2981893617104017 l 7.000529582541284 12.838418825275582" fill="#ffb710" stroke="none" /><path d="M 89.94658935756843 81.56283822128135 l -7.042207218304449 -12.914852320379898 a35.71006774161021,35.71006774161021 0 0,0 0.5422062851534376,-0.2896278197361832 l 6.818855886622706 13.03415886661783" fill="#ffb811" stroke="none" /><path d="M 90.26544431104013 81.39251694778311 l -3.3967121905391107 -6.492773428826962 a28.327602643664463,28.327602643664463 0 0,0 0.4340051934453263,-0.22231431693586387 l 3.2844465095050204 6.550280271075331" fill="#ff5407" stroke="none" /><path d="M 90.58718382345135 81.22770947309562 l -9.72824918878079 -19.401369012698183 a42.70373128855726,42.70373128855726 0 0,0 0.6599327528096531,-0.3238261357472174 l 9.392845168960712 19.565950308580227" fill="#efff19" stroke="none" /><path d="M 90.91171255644093 81.06846463323043 l -1.7470570799334157 -3.639241507481669 a25.03686601094499,25.03686601094499 0 0,0 0.39012419426445033,-0.18316854020149226 l 1.684154674369357 3.6687750303231685" fill="#ff2603" stroke="none" /><path d="M 92.23578459929587 80.48803036053334 l -6.14151352720216 -15.43401609804317 a37.61105178245685,37.61105178245685 0 0,0 0.6035979825122327,-0.23418663975745294 l 5.874932379690251 15.537445441691174" fill="#ffd013" stroke="none" /><path d="M 92.57280143429618 80.3572730644239 l -2.599104194155956 -6.873856072552453 a28.34882575097854,28.34882575097854 0 0,0 0.45792489230122063,-0.168657602421678 l 2.4803969760821656 6.917576942780454" fill="#ff5507" stroke="none" /><path d="M 92.91201910852362 80.23233633223022 l -3.915198032323954 -10.919092345291752 a32.59979970850024,32.59979970850024 0 0,0 0.5298523002115999,-0.18485506362119297 l 3.726663728049069 10.984868262085156" fill="#ff8f0d" stroke="none" /><path d="M 93.59665428221793 80.00007090966166 l -2.2301593902140566 -6.965581998887052 a28.31388703009414,28.31388703009414 0 0,0 0.46544609324783237,-0.14461636684758644 l 2.1099279242554956 7.002938500617164" fill="#ff5407" stroke="none" /><path d="M 94.28887869178378 79.79150937346287 l -1.9861657105727184 -7.0279388194950565 a28.30320328899726,28.30320328899726 0 0,0 0.46997079660016305,-0.1284607719605184 l 1.8648970247488328 7.06108613228187" fill="#ff5407" stroke="none" /><path d="M 94.98787191387505 79.60689891045804 l -1.3931511663796623 -5.668385181065679 a26.837076385769677,26.837076385769677 0 0,0 0.4495546563662333,-0.10639506263347741 l 1.295372823050895 5.691526155840027" fill="#ff3f05" stroke="none" /><path d="M 96.75951476605007 79.25152402106235 l -0.9330382117891709 -5.974142613555799 a27.046564336196386,27.046564336196386 0 0,0 0.4606043037836219,-0.06788110119108433 l 0.8300649275769002 5.989318198907852" fill="#ff4206" stroke="none" /><path d="M 97.11714578562143 79.19881850522333 l -0.39827498673999706 -2.873745832407377 a23.90121320732233,23.90121320732233 0 0,0 0.4080110907437391,-0.052971549575250645 l 0.34874916748840024 2.880175705146764" fill="#ff1502" stroke="none" /><path d="M 97.83486435360386 79.11191278185805 l -1.7904777288692026 -17.273585156205854 a38.366132403223,38.366132403223 0 0,0 0.6574765248880496,-0.06243531828279208 l 1.4928760768909166 17.301846019003825" fill="#ffda14" stroke="none" /><path d="M 98.55514903715128 79.0497635885617 l -0.3485907740275317 -5.054541481790003 a26.066547652876956,26.066547652876956 0 0,0 0.4478952213756407,-0.02701826290217042 l 0.261533503812268 5.059793014072479" fill="#ff3405" stroke="none" /></svg>