<?xml version="1.0" encoding="utf-8" ?>
<svg baseProfile="full" height="200mm" version="1.1" viewBox="0,0,200,200" width="200mm" xmlns="http://www.w3.org/2000/svg" xmlns:ev="http://www.w3.org/2001/xml-events" xmlns:xlink="http://www.w3.org/1999/xlink"><defs /><rect fill="#1a1a1a" height="200" width="200" x="0" y="0" /><text alignment-baseline="middle" fill="#e1ed5e" style="dominant-baseline: central; font-size:9.0px; font-family:Arial;" text-anchor="middle" x="100.0" y="100.0">2024</text><line stroke="#e1ed5e" stroke-width="0.3" x1="100.0" x2="100.0" y1="15.0" y2="10.0" /><path d="M 100.0 14.0 a86.0,86.0 0 0,1 42.35913384403234,11.155469271406648" fill="none" id="id133" stroke="none" /><text fill="#e1ed5e" style="font-size:6.75px; font-family:Arial;" text-anchor="middle"><textPath startOffset="22.145653131862478" xlink:href="#id133">January</textPath></text><path d="M 100.0 79.0 l 0.0 -12.694844375410717 a33.69484437541072,33.69484437541072 0 0,0 0.5784168095818473,0.004965012647477916 l -0.2179238847329925 12.692973760957674" fill="#ffa60f" stroke="none" /><path d="M 100.36049292484886 79.00309439819443 l 0.09057979671832495 -5.275819052268005 a26.276596570882372,26.276596570882372 0 0,0 0.4509397883657343,0.011614609354750753 l -0.18113289915480058 5.27348672556321" fill="#ff4206" stroke="none" /><path d="M 100.72087961077811 79.0123766808444 l 0.507617418737178 -14.778727287346147 a35.78744249955194,35.78744249955194 0 0,0 0.6137959467770204,0.026359038956015716 l -0.7612391261150346 14.7678356799643" fill="#ffc111" stroke="none" /><path d="M 101.08105385017728 79.02784411241856 l 0.7428168421815221 -14.410448293206874 a35.42958062010873,35.42958062010873 0 0,0 0.6071206994154468,0.036522873663142164 l -0.9900818937294313 14.39557344171904" fill="#ffbc11" stroke="none" /><path d="M 101.44090949804482 79.04949213459386 l 0.9086492881287148 -13.211561228284895 a34.24277137224446,34.24277137224446 0 0,0 0.5860911302860802,0.04536716018350914 l -1.1353094131900285 13.19401630110633" fill="#ffad10" stroke="none" /><path d="M 101.80034050326958 79.07731436759882 l 1.4020693470710477 -16.294171091700935 a37.35438198219727,37.35438198219727 0 0,0 0.6384049525187431,0.0604576127506515 l -1.6815738629748038 16.2677017234451" fill="#ffd513" stroke="none" /><path d="M 102.15924093988457 79.11130261209362 l 0.4788022295635067 -4.631977236658751 a25.65665810382938,25.65665810382938 0 0,0 0.43770759445262125,0.04904604892909017 l -0.5582457256169246 4.62307542722269" fill="#ff3905" stroke="none" /><path d="M 102.51750503828377 79.15144685158666 l 2.2568284382715036 -18.68977695243464 a39.82554214708166,39.82554214708166 0 0,0 0.678024503466891,0.08778384649724873 l -2.5773307636291864 18.648281509736996" fill="#fff316" stroke="none" /><path d="M 102.87502721639298 79.19773525538626 l 2.4320679481524947 -17.597232139538242 a38.764502061055026,38.764502061055026 0 0,0 0.658396413276076,0.09676159962589358 l -2.7337894670362526 17.552889466613465" fill="#ffe615" stroke="none" /><path d="M 103.23170211078529 79.25015418208739 l 2.0556417133329905 -13.19869441746423 a34.357814086863016,34.357814086863016 0 0,0 0.5819927341246334,0.09576668292599935 l -2.281911950510694 13.161461736042563" fill="#ffae10" stroke="none" /><path d="M 103.58742460773223 79.30868818359171 l 1.8543099684719022 -10.695167134447617 a31.854725491367468,31.854725491367468 0 0,0 0.5379887954311374,0.09803947987724501 l -2.0376334974540935 10.661759480639006" fill="#ff8e0d" stroke="none" /><path d="M 103.94208987418118 79.37332000966035 l 0.8257334740036882 -4.320586457741108 a25.398784276241113,25.398784276241113 0 0,0 0.4275504526139192,0.08552206477156644 l -0.8997804121485644 4.305774996306682" fill="#ff3605" stroke="none" /><path d="M 104.29559338865022 79.4440306129975 l 3.853228618750268 -18.439093825181917 a39.837397694008004,39.837397694008004 0 0,0 0.6682013662818981,0.14563137774838805 l -4.1691924016513 18.370230989299813" fill="#fff316" stroke="none" /><path d="M 104.64783097203109 79.52079915486377 l 2.9308907237752617 -12.914045314584834 a34.242457733436886,34.242457733436886 0 0,0 0.5721227331230486,0.13501940720760167 l -3.152145610638195 12.861829763731006" fill="#ffad10" stroke="none" /><path d="M 104.9986988182912 79.60360301121754 l 3.153414770682268 -12.86700836981275 a34.24778959316566,34.24778959316566 0 0,0 0.5698093525039288,0.1448433091843591 l -3.373829416411591 12.810979828793123" fill="#ffad10" stroke="none" /><path d="M 105.3480935250658 79.69241777938227 l 3.5431319290427137 -13.453849045514868 a34.912578409701894,34.912578409701894 0 0,0 0.5782497196295335,0.15760453244731593 l -3.77356304960694 13.391044018923411" fill="#ffb610" stroke="none" /><path d="M 105.69591212413111 79.78721728523813 l 3.1319179873649996 -11.11407205368709 a32.54692633968576,32.54692633968576 0 0,0 0.5364663181064601,0.15615752665689878 l -3.3222443178530643 11.058670832727676" fill="#ff970d" stroke="none" /><path d="M 106.04205211174951 79.88797359093562 l 1.3191158039541526 -4.390907492199401 a25.58477208913316,25.58477208913316 0 0,0 0.4195407583208322,0.12997479936466638 l -1.394297195146615 4.3676161050280875" fill="#ff3805" stroke="none" /><path d="M 106.38641147887787 79.99465700312896 l 4.3994092098058895 -13.781086689582406 a35.46627636059502,35.46627636059502 0 0,0 0.5783996778002463,0.19013146257033578 l -4.635331625253879 13.703534305610047" fill="#ffbd11" stroke="none" /><path d="M 106.72888874123014 80.10723608172694 l 4.24122191010351 -12.538418961475102 a34.236310412808415,34.236310412808415 0 0,0 0.5551079086683953,0.19309534611244364 l -4.455835590816924 12.463765182794068" fill="#ffad10" stroke="none" /><path d="M 107.06938296918511 80.22567764915836 l 5.990899796996838 -16.757612973266713 a38.79630503614314,38.79630503614314 0 0,0 0.625194785712693,0.2295801851638169 l -6.277683734363656 16.652301939094176" fill="#ffe615" stroke="none" /><path d="M 107.40779381753099 80.34994680014964 l 4.701065880588883 -12.470135768487392 a34.32682657267459,34.32682657267459 0 0,0 0.5496014873479759,0.21259766209086756 l -4.914439630430385 12.387598218258486" fill="#ffae10" stroke="none" /><path d="M 107.74402155503746 80.48000691201159 l 1.3911850897994602 -3.506695215657443 a24.772573033036622,24.772573033036622 0 0,0 0.3939376309150761,0.16021100500983393 l -1.4511771819049761 3.4822969540683157" fill="#ff2d04" stroke="none" /><path d="M 108.07796709384702 80.6158196554323 l 4.638159360515749 -11.12989400260915 a33.05765577394109,33.05765577394109 0 0,0 0.5219409119870753,0.22278553880218666 l -4.828535347673254 11.048633814147562" fill="#ff9e0e" stroke="none" /><path d="M 108.4095320186766 80.7573450057729 l 3.267805783827105 -7.477379139133172 a29.160254495489575,29.160254495489575 0 0,0 0.4569642344659255,0.20439428972619875 l -3.395683421148662 7.42018109849712" fill="#ff6a09" stroke="none" /><path d="M 108.73861861582097 80.90454125486305 l 2.875720212990608 -6.283967650253117 a27.910717486110283,27.910717486110283 0 0,0 0.43396020300756866,0.20311528694274178 l -2.9831691298696814 6.233676131739841" fill="#ff5908" stroke="none" /><path d="M 109.06512990194946 81.05736502329252 l 0.5953070102585547 -1.2439626918063034 a22.37906983690782,22.37906983690782 0 0,0 0.34510630465385816,0.1688087871036648 l -0.61657356417448 1.2335601546054176" fill="#ff0b01" stroke="none" /><path d="M 109.3889696526874 81.21577127319529 l 6.277635961101457 -12.559477143819722 a35.04098213752315,35.04098213752315 0 0,0 0.5357478804180674,0.27355668509624687 l -6.492311063233104 12.449862507050641" fill="#ffb711" stroke="none" /><path d="M 109.71004243097381 81.37971332152246 l 3.075175484628707 -5.897054468861884 a27.650710914630505,27.650710914630505 0 0,0 0.41898883164228934,0.22308795320972324 l -3.1759531320575562 5.843396047929588" fill="#ff5507" stroke="none" /><path d="M 110.02825361518725 81.54914285379988 l 3.307364651890959 -6.085178443235102 a27.92589760439692,27.92589760439692 0 0,0 0.4192286438449412,0.23253906180920858 l -3.4113374838920003 6.027506465992747" fill="#ff5908" stroke="none" /><path d="M 110.34350942703115 81.72400993836675 l 5.704965436054865 -10.080127286278922 a32.582555708226295,32.582555708226295 0 0,0 0.4844056813555454,0.27967175052760823 l -5.877163585270808 9.980708638475141" fill="#ff970e" stroke="none" /><line stroke="#e1ed5e" stroke-width="0.3" x1="143.13028292997686" x2="145.6673583964461" y1="26.7553504044142" y2="22.446841604673864" /><path d="M 143.63769802327073 25.89364864446614 a86.0,86.0 0 0,1 29.32050498858742,28.57503671076993" fill="none" id="id134" stroke="none" /><text fill="#e1ed5e" style="font-size:6.75px; font-family:Arial;" text-anchor="middle"><textPath startOffset="20.669276256404974" xlink:href="#id134">February</textPath></text><path d="M 110.65571695917076 81.90426304109057 l 6.718404397836922 -11.409319451020627 a34.240450445068404,34.240450445068404 0 0,0 0.5039334111090031,0.30259753418801366 l -6.9132705655033595 11.292307916296693" fill="#ffad10" stroke="none" /><path d="M 110.96478420261332 82.08984904055464 l 6.090600604331121 -9.948538360769632 a32.66485453133401,32.66485453133401 0 0,0 0.475718297311802,0.29688340149570963 l -6.260483030432636 9.842519162432376" fill="#ff980e" stroke="none" /><path d="M 111.27062007382361 82.28071324371311 l 9.434052367009286 -14.83189727538685 a38.578012426070856,38.578012426070856 0 0,0 0.5557334779930543,0.3602197262536975 l -9.687271477259348 14.667763707429257" fill="#ffe415" stroke="none" /><path d="M 111.5731344415666 82.4767994020092 l 1.5664073953529656 -2.371740442966004 a23.842320329768803,23.842320329768803 0 0,0 0.3395869767149612,0.22848927321907397 l -1.6068906601649278 2.344501495689811" fill="#ff2003" stroke="none" /><path d="M 111.8722381534696 82.67804972795209 l 7.698088587025549 -11.231741308634925 a34.616628830874006,34.616628830874006 0 0,0 0.48727835282963217,0.34015813421907465 l -7.889762031028942 11.097938358610724" fill="#ffb210" stroke="none" /><path d="M 112.16784306229584 82.88440491214696 l 7.670487889219902 -10.789501817703211 a34.23819224565386,34.23819224565386 0 0,0 0.4761048717236995,0.34466321096721914 l -7.854573771317569 10.656237835362917" fill="#ffad10" stroke="none" /><path d="M 112.45986205192187 83.09580414077388 l 7.860082044164467 -10.663710865374165 a34.24747595435809,34.24747595435809 0 0,0 0.4702455870852169,0.35288105527410774 l -8.04198062016045 10.527210782836043" fill="#ffad10" stroke="none" /><path d="M 112.7482090630111 83.31218511350987 l 9.00592160893237 -11.789040480059926 a35.83536650934943,35.83536650934943 0 0,0 0.4856375685196534,0.3776347106334552 l -9.20696912208725 11.63270471780568" fill="#ffc112" stroke="none" /><path d="M 113.03279911837588 83.53348406188908 l 1.7345402877064215 -2.191534990556396 a23.794898142063445,23.794898142063445 0 0,0 0.31811425346949423,0.25625032446855756 l -1.7719053115311754 2.1614363722944305" fill="#ff1f03" stroke="none" /><path d="M 113.31354834802062 83.75963576809568 l 8.394359656924653 -10.239753877660135 a34.24076408387597,34.24076408387597 0 0,0 0.4513677293487865,0.37654701327234236 l -8.568901720435333 10.094144680475923" fill="#ffad10" stroke="none" /><path d="M 113.59037401385872 83.9905735841838 l 8.56756208741527 -10.092566596146748 a34.23869406774598,34.23869406774598 0 0,0 0.44481039656203475,0.38421662637189163 l -8.739551963740166 9.944005837310137" fill="#ffad10" stroke="none" /><path d="M 113.86319453409587 84.22622945171908 l 9.874886226663 -11.235807818080248 a35.95850110520342,35.95850110520342 0 0,0 0.4601574680942124,0.4114756454415977 l -10.066308721580588 11.064636642755264" fill="#ffc312" stroke="none" /><path d="M 114.13192950727249 84.46653392183569 l 7.662597442732937 -8.422536879062962 a32.386594181253365,32.386594181253365 0 0,0 0.4080251728045722,0.37766200848578263 l -7.806052386851474 8.289757124444805" fill="#ff950d" stroke="none" /><path d="M 114.39649973595853 84.71141617570332 l 3.614476957425134 -3.8384492729547315 a26.272393810860866,26.272393810860866 0 0,0 0.32568699862614137,0.31200077734587867 l -3.6798364419165877 3.7758363653032725" fill="#ff4206" stroke="none" /><path d="M 114.91283532996326 85.21462403516908 l 9.39769660541952 -9.317374894857457 a34.23367584682478,34.23367584682478 0 0,0 0.410173556580275,0.42087420336946596 l -9.556256963150608 9.154677999420247" fill="#ffad10" stroke="none" /><path d="M 115.16444852881244 85.47280134310134 l 9.707955804547924 -9.300002057912254 a34.4437511201386,34.4437511201386 0 0,0 0.4053605787420198,0.430478887286988 l -9.866172217026202 9.13198171068077" fill="#ffb010" stroke="none" /><path d="M 115.41159269507618 85.73525988315684 l 5.086175455270601 -4.707688069207887 a27.930476730987515,27.930476730987515 0 0,0 0.32266656531047677,0.35466707813881737 l -5.166239721422955 4.619683415511397" fill="#ff5908" stroke="none" /><path d="M 115.6541949942343 86.00192230759917 l 5.6192471923117235 -5.024765489362819 a28.538183284545074,28.538183284545074 0 0,0 0.3234177084020775,0.3679899831916979 l -5.704675964672391 4.927563228359824" fill="#ff6109" stroke="none" /><path d="M 115.8921839302757 86.27271002978787 l 2.4679928386852086 -2.1317934331540958 a24.26121632116614,24.26121632116614 0 0,0 0.26953684112657333,0.31751372110635867 l -2.504224243318894 2.089112929598185" fill="#ff2603" stroke="none" /><path d="M 116.1254893667686 86.54754324733833 l 5.788182705734658 -4.8287078769754705 a28.537869645737498,28.537869645737498 0 0,0 0.31059147046127267,0.37887109249606604 l -5.870220995434558 4.72863450278091" fill="#ff6109" stroke="none" /><path d="M 116.35404254752997 86.82634096563983 l 5.38093821224542 -4.3345029271546744 a27.909588386403012,27.909588386403012 0 0,0 0.2973481823340395,0.3756897147803166 l -5.454552825221019 4.2414932684596796" fill="#ff5908" stroke="none" /><path d="M 116.57777611688842 87.10902102172516 l 2.5790182678767617 -2.005460204153506 a24.26698727522552,24.26698727522552 0 0,0 0.25289438955958593,0.33104687395246407 l -2.6130646347906543 1.9608924169601598" fill="#ff2603" stroke="none" /><path d="M 116.7966241395341 87.39550010848427 l 1.5959753087955673 -1.197649625273659 a22.99537009379294,22.99537009379294 0 0,0 0.23422205818975242,0.31776720558313853 l -1.6162993865691455 1.1700761104216455" fill="#ff1402" stroke="none" /><path d="M 117.01052211995028 87.68569379921539 l 21.65582041665921 -15.677143932412339 a47.734760140988115,47.734760140988115 0 0,0 0.47481288898791735,0.667883790808655 l -21.921748404177087 15.30308291489418" fill="#afff20" stroke="none" /><path d="M 117.21940702142032 87.97951657250589 l 3.604049973089557 -2.515906785842979 a25.395334249357788,25.395334249357788 0 0,0 0.24646808366782863,0.35960429985928305 l -3.646707793572711 2.453667750913647" fill="#ff3605" stroke="none" /><path d="M 117.42321728460499 88.27688183743584 l 3.6506110772107565 -2.4562940543433385 a25.400038831471413,25.400038831471413 0 0,0 0.2403031888703796,0.36384965578456496 l -3.6922387050018606 2.3932645202197147" fill="#ff3605" stroke="none" /><path d="M 117.62189284568427 88.57770195909679 l 6.328206056474996 -4.101866710590558 a28.541319672620823,28.541319672620823 0 0,0 0.2629638292524798,0.41342281671599324 l -6.397687577353366 3.9926302191958936" fill="#ff6109" stroke="none" /><line stroke="#e1ed5e" stroke-width="0.3" x1="172.87174338648825" x2="177.1583165268699" y1="56.24261187166439" y2="53.66864786411523" /><path d="M 173.72905801456457 55.72781907015455 a86.0,86.0 0 0,1 12.242430191666344,42.057860355516425" fill="none" id="id135" stroke="none" /><text fill="#e1ed5e" style="font-size:6.75px; font-family:Arial;" text-anchor="middle"><textPath startOffset="22.145653131862474" xlink:href="#id135">March</textPath></text><path d="M 118.00360718960297 89.18935116829356 l 5.386293364309233 -3.2343144044891754 a27.28274986558337,27.28274986558337 0 0,0 0.23765391477946401,0.4035883034039335 l -5.441020989218464 3.1413749327916856" fill="#ff5007" stroke="none" /><path d="M 118.18653347947321 89.5 l 8.384340693057815 -4.840701356114464 a30.681402712228927,30.681402712228927 0 0,0 0.2594282588587866,0.45838487546782775 l -8.466202316937977 4.696059710547519" fill="#ff7e0b" stroke="none" /><path d="M 118.36410011445183 89.81374322990088 l 7.807512687407128 -4.330695676568935 a29.928167751956508,29.928167751956508 0 0,0 0.24534634552340429,0.45140964182826054 l -7.880704382545874 4.196031201266071" fill="#ff740a" stroke="none" /><path d="M 118.53625476483649 90.13048839642627 l 9.14244096651473 -4.867834864633768 a31.357607981360893,31.357607981360893 0 0,0 0.2489076298447494,0.47731319992849436 l -9.224656665334425 4.710175421600776" fill="#ff870c" stroke="none" /><path d="M 118.70294669586156 90.45014215332178 l 4.013720070984447 -2.0494340671324363 a25.506676026046957,25.506676026046957 0 0,0 0.1957699169313503,0.3916709749310442 l -4.048309901127534 1.9802312360376415" fill="#ff3705" stroke="none" /><path d="M 118.8641267826498 90.77261029715802 l 10.537044352576363 -5.154196410871165 a32.730091403309636,32.730091403309636 0 0,0 0.2425467195820453,0.5068293586010821 l -10.62397033011832 4.97255455020498" fill="#ff990e" stroke="none" /><path d="M 119.0197475246899 91.09779779509293 l 11.98747454360944 -5.610743369482623 a34.23555767967023,34.23555767967023 0 0,0 0.24456502410959446,0.5344187146390753 l -12.082024032574086 5.404135672628864" fill="#ffad10" stroke="none" /><path d="M 119.16976305983485 91.42560881287824 l 12.264571390943027 -5.485786784118631 a34.43553378338013,34.43553378338013 0 0,0 0.23672973014190762,0.5416839502936004 l -12.356935003101905 5.274440764049182" fill="#ffaf10" stroke="none" /><path d="M 119.31412917781788 91.75594674310238 l 6.9882324729944445 -2.982860896732205 a28.598213752314955,28.598213752314955 0 0,0 0.18884919713654325,0.4531693249914184 l -7.038407514667471 2.862459062299509" fill="#ff6209" stroke="none" /><path d="M 119.4528033332814 92.08871423366111 l 4.201719522769913 -1.7088027512089476 a25.53590716291296,25.53590716291296 0 0,0 0.16165606353236586,0.40747888165814117 l -4.230434261268403 1.6364228523372413" fill="#ff3805" stroke="none" /><path d="M 119.58574465831526 92.42381321644754 l 12.345606609643115 -4.775545850446182 a34.23706314594659,34.23706314594659 0 0,0 0.2073287575462783,0.549964161529685 l -12.425766051003833 4.5629134087223395" fill="#ffad10" stroke="none" /><path d="M 119.71291397450082 92.76114493625339 l 5.896562534818427 -2.1652994386868554 a27.281558038114582,27.281558038114582 0 0,0 0.15766120211627996,0.4410064423526246 l -5.93286390697865 2.063758039953314" fill="#ff5007" stroke="none" /><path d="M 119.83427380445688 93.10060997987247 l 7.755379979541834 -2.6977237362289666 a29.211189437839774,29.211189437839774 0 0,0 0.16068182063246886,0.4750272514114447 l -7.800547221746667 2.56419481034336" fill="#ff6a09" stroke="none" /><path d="M 119.94978838288452 93.4421083053983 l 5.96777438136195 -1.9617259742146511 a27.281934404683675,27.281934404683675 0 0,0 0.1424315539335105,0.4461648140651766 l -6.000570651072718 1.8589921264580875" fill="#ff5007" stroke="none" /><path d="M 120.05942366710727 93.78553927170692 l 1.2040567494788224 -0.3730198588178782 a22.260514367644422,22.260514367644422 0 0,0 0.10994964137258124,0.3659865969464783 l -1.210282710855031 0.3522956582806764" fill="#ff0901" stroke="none" /><path d="M 120.16314734710363 94.1308016681162 l 12.708841770736106 -3.699358618816729 a34.236310412808415,34.236310412808415 0 0,0 0.15941324085557596,0.5657013537162514 l -12.770473503666265 3.4806493411974646" fill="#ffad10" stroke="none" /><path d="M 120.26092885502905 94.47779374421319 l 4.885487430020373 -1.3315613238496637 a26.063698548300376,26.063698548300376 0 0,0 0.11394865218421216,0.43268159248037613 l -4.907625563009315 1.247499226996489" fill="#ff3f05" stroke="none" /><path d="M 120.35273937422433 94.82641323984039 l 3.076499121908782 -0.7820340462329801 a24.17433837146783,24.17433837146783 0 0,0 0.09878379859465654,0.4030716083201187 l -3.089470447019729 0.7291066133047666" fill="#ff2403" stroke="none" /><path d="M 120.43855184770803 95.1765574152323 l 3.0601661131679485 -0.7221908703073104 a24.14422904594062,24.14422904594062 0 0,0 0.09173558256809372,0.4042039031459439 l -3.0721125572937087 0.6695526332223403" fill="#ff2403" stroke="none" /><path d="M 120.51834098615036 95.52812308129327 l 2.0373085988428965 -0.4440219268018717 a23.08513352052094,23.08513352052094 0 0,0 0.08106431389182658,0.3879220875843664 l -2.04463062355909 0.4089833879321009" fill="#ff1502" stroke="none" /><path d="M 120.592083275326 95.88100663000786 l 8.006419474329661 -1.6015081277208807 a29.165021805364717,29.165021805364717 0 0,0 0.0939859600590844,0.49177425771557604 l -8.032731726670903 1.46383130497199" fill="#ff6a09" stroke="none" /><path d="M 120.7213421655516 96.59031103205396 l 8.049806306651577 -1.3245925644489598 a29.15805902383655,29.15805902383655 0 0,0 0.07703074318032588,0.4945926293443411 l -8.071358541970168 1.1862117531731775" fill="#ff6a09" stroke="none" /><path d="M 120.77682067341334 96.94652285012252 l 6.540310791169322 -0.9612004583303627 a27.61056514726089,27.61056514726089 0 0,0 0.06489203766794574,0.4695264586328613 l -6.555847345392481 0.8487856914974158" fill="#ff5507" stroke="none" /><path d="M 120.82617615685814 97.30363454192243 l 4.365484532551286 -0.5651993727838985 a25.401920664316865,25.401920664316865 0 0,0 0.052277048386157786,0.4329289535261345 l -4.374543667197107 0.49017674233435105" fill="#ff3605" stroke="none" /><path d="M 120.86939407059847 97.66154086499901 l 13.154799820025218 -1.474022758120505 a34.23712587370811,34.23712587370811 0 0,0 0.06043277830678133,0.5846323099210367 l -13.178164990813665 1.247985925916537" fill="#ffad10" stroke="none" /><path d="M 120.9064616781168 98.02013634271609 l 7.622384270175218 -0.7218477153486392 a28.656487842762413,28.656487842762413 0 0,0 0.042174677401239,0.4901336804407371 l -7.633652570274197 0.5908929875322402" fill="#ff6309" stroke="none" /><path d="M 120.93736805541906 98.37931529534042 l 6.42430348703255 -0.49728172003118803 a27.44352111834638,27.44352111834638 0 0,0 0.03232590495955929,0.47001156355107987 l -6.431893353157176 0.386926732325774" fill="#ff5207" stroke="none" /><path d="M 120.96210409425399 98.7389718711861 l 10.069361281789403 -0.605747770282601 a31.087564968038713,31.087564968038713 0 0,0 0.027473133022491984,0.5329714411298739 l -10.078276004268467 0.4328045357759964" fill="#ff840c" stroke="none" /><path d="M 120.98066250479742 99.09900007780936 l 1.2690048242417182 -0.05449652734463911 a22.270174442917735,22.270174442917735 0 0,0 0.013123827588852392,0.3820859208975 l -1.2697533388274187 0.03270434188301917" fill="#ff0901" stroke="none" /><path d="M 120.99303781780057 99.45929381324524 l 13.233677940942208 -0.34085260067126144 a34.23806679013083,34.23806679013083 0 0,0 0.010089743726674557,0.5876769888457022 l -13.237579116267549 0.11362869585649288" fill="#ffad10" stroke="none" /><line stroke="#e1ed5e" stroke-width="0.3" x1="184.99686870605535" x2="189.99668451229388" y1="99.2704041080226" y2="99.22748670261217" /><path d="M 185.99683186730306 99.26182062694052 a86.0,86.0 0 0,1 -10.086455211305974,41.156179273409016" fill="none" id="id136" stroke="none" /><text fill="#e1ed5e" style="font-size:6.75px; font-family:Arial;" text-anchor="middle"><textPath startOffset="21.40746469413373" xlink:href="#id136">April</textPath></text><path d="M 120.99922638620191 99.81974689727618 l 13.242095348718133 -0.11366746228040146 a34.24258318895991,34.24258318895991 0 0,0 0.0,0.5878411300084551 l -13.242095348718133 -0.11366746228039985" fill="#ffad10" stroke="none" /><path d="M 120.99922638620191 100.18025310272382 l 0.636726050081651 0.005465527348555916 a21.636749507139015,21.636749507139015 0 0,0 -0.006376214490828974,0.3713825280120448 l -0.6365384039921536 -0.01639497132967173" fill="#ff0000" stroke="none" /><path d="M 120.99303781780057 100.54070618675476 l 1.820383200462246 0.046886613900144945 a22.82098691678117,22.82098691678117 0 0,0 -0.01344842172076447,0.39153612488479267 l -1.8193100917446356 -0.0781290033490483" fill="#ff1101" stroke="none" /><path d="M 120.98066250479742 100.90099992219065 l 2.0379030507527425 0.08751632555647106 a23.039781348945578,23.039781348945578 0 0,0 -0.020361034338311042,0.3949986266691965 l -2.0361004269578586 -0.12248674560239818" fill="#ff1402" stroke="none" /><path d="M 120.96210409425399 101.26102812881392 l 6.268970254844106 0.37712568330500323 a27.280303482884282,27.280303482884282 0 0,0 -0.03213364982768612,0.46721621612783326 l -6.261572643851354 -0.48468532358718" fill="#ff5007" stroke="none" /><path d="M 120.93736805541906 101.62068470465957 l 7.505819425207954 0.5809978936307972 a28.5282722982257,28.5282722982257 0 0,0 -0.041985978449073945,0.48794071258375027 l -7.494739824061139 -0.7097596535902049" fill="#ff6109" stroke="none" /><path d="M 120.9064616781168 101.97986365728391 l 9.38043047712409 0.8883365189804462 a30.42239978493339,30.42239978493339 0 0,0 -0.05369931309494084,0.5194921421037064 l -9.363798771547485 -1.049233183367084" fill="#ff7b0b" stroke="none" /><path d="M 120.86939407059847 102.33845913500097 l 9.60298828420919 1.0760348671624085 a30.663086205866538,30.663086205866538 0 0,0 -0.0631045054598875,0.5225958303867735 l -9.583101692489638 -1.2407243744725904" fill="#ff7e0b" stroke="none" /><path d="M 120.77682067341334 103.0534771498775 l 9.488213837907876 1.3944406895842634 a30.590133819224565,30.590133819224565 0 0,0 -0.0808140466467285,0.5188841515574382 l -9.46287829912288 -1.557113023073152" fill="#ff7d0b" stroke="none" /><path d="M 120.7213421655516 103.40968896794604 l 9.66310991960666 1.5900610600266902 a30.793058127725672,30.793058127725672 0 0,0 -0.09030457641753442,0.5208527992690225 l -9.634390525696892 -1.7557068922163008" fill="#ff800b" stroke="none" /><path d="M 120.65975698304385 103.76489593502545 l 8.64170024900998 1.57480565555097 a29.78401935599498,29.78401935599498 0 0,0 -0.09598071526476744,0.5022116598550445 l -8.613393241463054 -1.7229198804393289" fill="#ff720a" stroke="none" /><path d="M 120.592083275326 104.11899336999214 l 8.29698940500844 1.6596302517421564 a29.461347750761696,29.461347750761696 0 0,0 -0.10345462977812515,0.49506785448587703 l -8.267277064405949 -1.8018145575134425" fill="#ff6e0a" stroke="none" /><path d="M 120.51834098615036 104.47187691870673 l 4.327005417355325 0.9430506913814887 a25.42857996296075,25.42857996296075 0 0,0 -0.09661545176460404,0.4257055072220602 l -4.3101791040330575 -1.0171905325425659" fill="#ff3605" stroke="none" /><path d="M 120.43855184770803 104.8234425847677 l 13.17901364288408 3.110211335126964 a34.5410418782484,34.5410418782484 0 0,0 -0.14114534477508117,0.5759211726493516 l -13.123680771592703 -3.3359883323844155" fill="#ffb110" stroke="none" /><path d="M 120.35273937422433 105.17358676015961 l 12.835211483311758 3.2626605673537763 a34.24339864985961,34.24339864985961 0 0,0 -0.1497097242406766,0.5684722078988137 l -12.77731227826635 -3.482513279625393" fill="#ffad10" stroke="none" /><path d="M 120.26092885502905 105.52220625578681 l 10.774761723023932 2.9367092208473005 a32.16779974908895,32.16779974908895 0 0,0 -0.14978171267185114,0.5315224580194599 l -10.722761518277501 -3.121239602769769" fill="#ff920d" stroke="none" /><path d="M 120.16314734710363 105.8691983318838 l 9.644137329737932 2.80726782152326 a31.044408268116378,31.044408268116378 0 0,0 -0.15333525089898936,0.5104031806551342 l -9.594525758835314 -2.9724086057691177" fill="#ff830c" stroke="none" /><path d="M 120.05942366710727 106.21446072829308 l 3.844473210254307 1.1910276278413894 a25.024738634327022,25.024738634327022 0 0,0 -0.13064734917973117,0.4092509605146427 l -3.823461145297321 -1.2568476220474156" fill="#ff3104" stroke="none" /><path d="M 119.94978838288452 106.5578916946017 l 13.191006501091218 4.336145843589911 a34.88541728896589,34.88541728896589 0 0,0 -0.19189401292414404,0.5673005518786678 l -13.114627066594709 -4.561948069942739" fill="#ffb510" stroke="none" /><path d="M 119.83427380445688 106.89939002012753 l 12.513875718314665 4.352975566196716 a34.249357787203536,34.249357787203536 0 0,0 -0.19792839224567474,0.5536409397694512 l -12.437307156025046 -4.567151462347089" fill="#ffad10" stroke="none" /><path d="M 119.71291397450082 107.23885506374661 l 10.041939032234216 3.6875391079853825 a31.697592448772326,31.697592448772326 0 0,0 -0.19195053125899653,0.5091715892594767 l -9.977157817160778 -3.859378977439018" fill="#ff8c0c" stroke="none" /><path d="M 119.58574465831526 107.57618678355244 l 6.453794796529211 2.49646647060036 a27.91981301152996,27.91981301152996 0 0,0 -0.17674747316432537,0.4455190923691041 l -6.409988648398761 -2.606886580183028" fill="#ff5908" stroke="none" /><path d="M 119.4528033332814 107.91128576633889 l 8.825406480291866 3.5892159846305485 a30.527343329948025,30.527343329948025 0 0,0 -0.2015882645154902,0.48373844920625475 l -8.76249237123989 -3.740186943278081" fill="#ff7c0b" stroke="none" /><path d="M 119.31412917781788 108.2440532568976 l 1.342146786524747 0.5728826541862291 a22.459298643885536,22.459298643885536 0 0,0 -0.15439817894473248,0.3532932489670155 l -1.3321147255630488 -0.5958379729290892" fill="#ff0c01" stroke="none" /><path d="M 119.16976305983485 108.57439118712176 l 14.320920429131654 6.405565553196585 a36.6882131549077,36.6882131549077 0 0,0 -0.26208580618786903,0.5727047854778444 l -14.208850158088728 -6.6504593208891185" fill="#ffcc13" stroke="none" /><path d="M 119.0197475246899 108.90220220490707 l 11.988042670365065 5.611009281490655 a34.23618495728538,34.23618495728538 0 0,0 -0.25370764322259287,0.5301513964331416 l -11.88995576918256 -5.815973179988901" fill="#ffad10" stroke="none" /><path d="M 118.8641267826498 109.22738970284198 l 10.151906929315084 4.965806397671676 a32.30134715335444,32.30134715335444 0 0,0 -0.24792066369312532,0.4960074028548896 l -10.065166352410227 -5.139345656690311" fill="#ff940d" stroke="none" /><path d="M 118.70294669586154 109.54985784667822 l 7.268774701590733 3.711488154702502 a29.161509050719875,29.161509050719875 0 0,0 -0.23147563120328526,0.4438850440383167 l -7.203991001412499 -3.8357194418453218" fill="#ff6a09" stroke="none" /><path d="M 118.5362547648365 109.86951160357373 l 3.8813294074169242 2.0665892927012295 a25.397216082203236,25.397216082203236 0 0,0 -0.2082023264464471,0.3830688303447118 l -3.845281731355138 -2.1329129565205447" fill="#ff3605" stroke="none" /><line stroke="#e1ed5e" stroke-width="0.3" x1="174.33088141563837" x2="178.70328620479359" y1="141.23008692659167" y2="143.65538615756765" /><path d="M 175.20536237346943 141.71514677278685 a86.0,86.0 0 0,1 -30.301960400862466,31.631185727798858" fill="none" id="id137" stroke="none" /><text fill="#e1ed5e" style="font-size:6.75px; font-family:Arial;" text-anchor="middle"><textPath startOffset="22.145653131862474" xlink:href="#id137">May</textPath></text><path d="M 118.36410011445183 110.18625677009912 l 9.291155126607736 5.153647127852975 a31.624765517653387,31.624765517653387 0 0,0 -0.2674049140456029,0.47247886087459345 l -9.201316847540756 -5.312382758826691" fill="#ff8b0c" stroke="none" /><path d="M 118.18653347947321 110.5 l 23.368592747272686 13.491863313220614 a47.98372662644124,47.98372662644124 0 0,0 -0.41797548028202314,0.7098137436869368 l -23.133543556860896 -13.891028225201099" fill="#acff21" stroke="none" /><path d="M 118.00360718960297 110.81064883170644 l 0.8555988720550307 0.5137625393167138 a21.997998685704044,21.997998685704044 0 0,0 -0.19717752716749548,0.3220746721616557 l -0.8466533804321306 -0.5283743276029265" fill="#ff0500" stroke="none" /><path d="M 117.81537515405839 111.11811171558189 l 10.656604192233592 6.650509174992089 a33.56154788219129,33.56154788219129 0 0,0 -0.30921741699307603,0.4861411391609318 l -10.540869083614627 -6.832463988831693" fill="#ffa40f" stroke="none" /><path d="M 117.62189284568427 111.42229804090321 l 1.0586926662442426 0.6862317954975992 a22.261643467351693,22.261643467351693 0 0,0 -0.21061164316299225,0.3188928712486278 l -1.0467565841605238 -0.704304545085288" fill="#ff0901" stroke="none" /><path d="M 117.423217284605 111.72311816256416 l 13.33647931556979 8.973378471676558 a37.07430252703268,37.07430252703268 0 0,0 -0.359815397877284,0.5249814187164004 l -13.180474180877185 -9.200994625463002" fill="#ffd113" stroke="none" /><path d="M 117.21940702142032 112.02048342749411 l 10.856332578422146 7.578563285016294 a34.23988589521477,34.23988589521477 0 0,0 -0.34058072340796797,0.4790694395658162 l -10.724636756484216 -7.7638099512916146" fill="#ffad10" stroke="none" /><path d="M 117.01052211995028 112.31430620078461 l 8.227883557577124 5.956353179399167 a31.157569149889483,31.157569149889483 0 0,0 -0.31735910075421825,0.4305585707531713 l -8.124422437239078 -6.096718059421215" fill="#ff850c" stroke="none" /><path d="M 116.57777611688842 112.89097897827486 l 9.5797837080982 7.449297754220906 a33.13525001493518,33.13525001493518 0 0,0 -0.35302227416312837,0.4460321110772801 l -9.45049500329351 -7.6126498092128685" fill="#ff9f0e" stroke="none" /><path d="M 116.35404254752997 113.17365903436017 l 7.3374831435844206 5.910557027292655 a30.421960690602784,30.421960690602784 0 0,0 -0.3310969467064145,0.4038844393713428 l -7.234939377639379 -6.0356437483624905" fill="#ff7b0b" stroke="none" /><path d="M 116.1254893667686 113.45245675266167 l 10.16539713373244 8.480335833837083 a34.23825497341538,34.23825497341538 0 0,0 -0.3803795724441611,0.4480861798883913 l -10.018322997781166 -8.653588796175033" fill="#ffad10" stroke="none" /><path d="M 115.89218393027572 113.72728997021213 l 7.254921052822863 6.266628012866715 a30.58668379234124,30.58668379234124 0 0,0 -0.3466329682273556,0.3944046873063963 l -7.146277020636922 -6.390244977984404" fill="#ff7d0b" stroke="none" /><path d="M 115.6541949942343 113.99807769240083 l 5.629721353488343 5.034131548873835 a28.55223430312444,28.55223430312444 0 0,0 -0.32984941371615883,0.3625622867865035 l -5.542474238930303 -5.13003141121801" fill="#ff6109" stroke="none" /><path d="M 115.41159269507618 114.26474011684316 l 6.687180206896621 6.189554165699823 a30.112022820957044,30.112022820957044 0 0,0 -0.3543814654571496,0.37634083560506526 l -6.579942907703212 -6.303436461249386" fill="#ff770a" stroke="none" /><path d="M 114.91283532996324 114.78537596483092 l 9.398810234917244 9.318479006211541 a34.23524404086265,34.23524404086265 0 0,0 -0.41735709956111006,0.41378996629862036 l -9.237461215226169 -9.478448982738822" fill="#ffad10" stroke="none" /><path d="M 114.65682725009322 115.03919595460226 l 8.760210262799905 8.988747462035322 a33.55144871258737,33.55144871258737 0 0,0 -0.415922154236445,0.39844401521875 l -8.604615622698148 -9.137803607559652" fill="#ffa40f" stroke="none" /><path d="M 114.39649973595853 115.28858382429668 l 9.072744830314027 9.634940603531017 a34.23430312443993,34.23430312443993 0 0,0 -0.4313036860257161,0.3992082527952462 l -8.906011372974344 -9.789266602458643" fill="#ffad10" stroke="none" /><path d="M 114.13192950727249 115.5334660781643 l 5.533310184814783 6.082077186384888 a29.22248043491248,29.22248043491248 0 0,0 -0.37395726170621757,0.3343948893526065 l -5.428087896285188 -6.176167605620882" fill="#ff6b09" stroke="none" /><path d="M 113.59037401385872 116.0094264158162 l 4.2516298512260775 5.008409274173122 a27.56966664675309,27.56966664675309 0 0,0 -0.36342815840104853,0.3031846955085196 l -4.165027358663133 -5.0806561535935115" fill="#ff5407" stroke="none" /><path d="M 113.31354834802062 116.24036423190432 l 8.394359656924655 10.239753877660133 a34.24076408387597,34.24076408387597 0 0,0 -0.4577651494759865,0.3687432009231475 l -8.217343737093415 -10.382345372376685" fill="#ffad10" stroke="none" /><path d="M 113.03279911837588 116.46651593811092 l 8.216292642117024 10.381017348210579 a34.23907043431507,34.23907043431507 0 0,0 -0.4640047119304744,0.3608128705045484 l -8.03687798555132 -10.520531270335919" fill="#ffad10" stroke="none" /><path d="M 112.7482090630111 116.68781488649013 l 5.334728325116616 6.983330624657491 a29.7878457494474,29.7878457494474 0 0,0 -0.40901125184001386,0.30692966852261466 l -5.214064084365837 -7.07387932044412" fill="#ff720a" stroke="none" /><path d="M 112.45986205192187 116.90419585922612 l 0.3911618082492947 0.530686117690622 a21.65926877352291,21.65926877352291 0 0,0 -0.3011865611087061,0.21803584339742585 l -0.3819942367666207 -0.5373227324611249" fill="#ff0000" stroke="none" /><path d="M 112.16784306229584 117.11559508785304 l 7.670233468700649 10.789143943380926 a34.23775315132326,34.23775315132326 0 0,0 -0.481945138033918,0.3364351360933369 l -7.483893239492972 -10.919223895279385" fill="#ffad10" stroke="none" /><path d="M 111.8722381534696 117.32195027204791 l 7.486730263963602 10.923363198767538 a34.24277137224446,34.24277137224446 0 0,0 -0.4877209534897138,0.32816042380246085 l -7.298113022376885 -11.05027329662712" fill="#ffad10" stroke="none" /><path d="M 111.5731344415666 117.5232005979908 l 5.2238469793118245 7.909570131918231 a30.47891749805843,30.47891749805843 0 0,0 -0.43906240268647195,0.2845949448199152 l -5.087298944368343 -7.998078918442041" fill="#ff7b0b" stroke="none" /><path d="M 111.27062007382361 117.71928675628689 l 6.062191757851178 9.530772346629373 a32.29538801601051,32.29538801601051 0 0,0 -0.470337529997656,0.2935254047318513 l -5.897690099063807 -9.633433548202772" fill="#ff940d" stroke="none" /><path d="M 110.96478420261333 117.91015095944535 l 0.6584831423428551 1.0755827260877262 a22.261141645259574,22.261141645259574 0 0,0 -0.3276280801992775,0.19673124864032748 l -0.6399223055861409 -1.086727975263977" fill="#ff0901" stroke="none" /><line stroke="#e1ed5e" stroke-width="0.3" x1="143.1302829299769" x2="145.66735839644613" y1="173.24464959558577" y2="177.55315839532614" /><path d="M 143.63769802327073 174.10635135553383 a86.0,86.0 0 0,1 -40.68552437913181,11.842963189579606" fill="none" id="id138" stroke="none" /><text fill="#e1ed5e" style="font-size:6.75px; font-family:Arial;" text-anchor="middle"><textPath startOffset="21.407464694133747" xlink:href="#id138">June</textPath></text><path d="M 110.65571695917076 118.09573695890943 l 6.716558315085174 11.406184398915908 a34.23681223490053,34.23681223490053 0 0,0 -0.5089995550564385,0.29387103012923566 l -6.519766292168337 -11.519802326321315" fill="#ffad10" stroke="none" /><path d="M 110.34350942703117 118.27599006163325 l 6.51961180997963 11.519529371096068 a34.23649859609296,34.23649859609296 0 0,0 -0.5139645314097151,0.28508746167981164 l -6.32090309041382 -11.629749748209024" fill="#ffad10" stroke="none" /><path d="M 110.02825361518725 118.45085714620011 l 4.8004894792481 8.832359951418056 a31.05262560487484,31.05262560487484 0 0,0 -0.47053775079352417,0.2505348491533399 l -4.648162912668021 -8.913465268293965" fill="#ff830c" stroke="none" /><path d="M 109.71004243097381 118.62028667847754 l 3.9399371641779144 7.555349012498923 a29.520939124200968,29.520939124200968 0 0,0 -0.45135094963006717,0.23046301088395305 l -3.8096589928342652 -7.621869975055713" fill="#ff6f0a" stroke="none" /><path d="M 109.3889696526874 118.78422872680471 l 4.059149028171821 8.121017172479855 a30.078965290638628,30.078965290638628 0 0,0 -0.463845934389299,0.22689029012599254 l -3.9191428445204526 -8.189501212703071" fill="#ff760a" stroke="none" /><path d="M 109.06512990194946 118.94263497670748 l 0.5908120835493019 1.2345700237671922 a22.368657028496326,22.368657028496326 0 0,0 -0.34779137977816704,0.16278392675243233 l -0.5695319898996286 -1.2445301820901582" fill="#ff0b01" stroke="none" /><path d="M 108.73861861582097 119.09545874513695 l 13.052720986720692 28.522550997071082 a52.36733078439572,52.36733078439572 0 0,0 -0.8206374613985981,0.36706069839648464 l -12.561170122466466 -28.742415446377414" fill="#7cff26" stroke="none" /><path d="M 108.4095320186766 119.2426549942271 l 3.017238002339862 6.904031019271128 a28.534545074377203,28.534545074377203 0 0,0 -0.45052639488722956,0.19230292802194116 l -2.8982765322822015 -6.954808596952472" fill="#ff6109" stroke="none" /><path d="M 108.07796709384702 119.3841803445677 l 3.3796536860018027 8.109938526679832 a29.785963916601947,29.785963916601947 0 0,0 -0.47366141757579633,0.19263397499733084 l -3.2399378072355653 -8.166759758256454" fill="#ff720a" stroke="none" /><path d="M 107.74402155503746 119.51999308798841 l 3.704884438624098 9.338728994974797 a31.046791923053945,31.046791923053945 0 0,0 -0.4970853621486949,0.1922832966889226 l -3.544026813981874 -9.40095217980176" fill="#ff830c" stroke="none" /><path d="M 107.407793817531 119.65005319985036 l 0.44447205452161165 1.1790149310753164 a22.260012545552303,22.260012545552303 0 0,0 -0.3587157014157205,0.13172537429004685 l -0.4241672014517642 -1.1864711543740851" fill="#ff0901" stroke="none" /><path d="M 107.06938296918513 119.77432235084164 l 4.275669584803763 11.959808798609284 a33.70111715156222,33.70111715156222 0 0,0 -0.5464302793210215,0.19007681617240904 l -4.06973353343772 -12.031444047350284" fill="#ffa60f" stroke="none" /><path d="M 106.72888874123015 119.89276391827305 l 6.031800147755791 17.831945356191845 a39.82447577513591,39.82447577513591 0 0,0 -0.649475116099175,0.21349537087678128 l -5.724802294008882 -17.932861648470645" fill="#fff316" stroke="none" /><path d="M 106.38641147887787 120.00534299687104 l 2.9049797670559836 9.099807745105794 a30.55224625126949,30.55224625126949 0 0,0 -0.5009977230208309,0.1552103752503375 l -2.7483414111635285 -9.148334708162777" fill="#ff7c0b" stroke="none" /><path d="M 106.0420521117495 120.11202640906438 l 3.808091868030184 12.675899313915364 a34.23555767967023,34.23555767967023 0 0,0 -0.5642997862547543,0.16425944358555342 l -3.589932069393823 -12.739402451803436" fill="#ffad10" stroke="none" /><path d="M 105.69591212413111 120.21278271476187 l 0.34206438035622205 1.2138658118175745 a22.261141645259574,22.261141645259574 0 0,0 -0.3687066238404048,0.10049262989323182 l -0.32117635558112206 -1.2195589358549483" fill="#ff0901" stroke="none" /><path d="M 105.3480935250658 120.30758222061773 l 4.794002408759851 18.20360800076551 a39.824287591851366,39.824287591851366 0 0,0 -0.6625902516982074,0.16842785094265775 l -4.4808068638362455 -18.283221083543438" fill="#fff316" stroke="none" /><path d="M 104.9986988182912 120.39639698878246 l 2.5396639046632137 10.362695393458417 a31.66936495609057,31.66936495609057 0 0,0 -0.5291315178366307,0.1248735974590188 l -2.361400233086704 -10.404765134563661" fill="#ff8b0c" stroke="none" /><path d="M 104.64783097203109 120.47920084513623 l 2.3401311099337323 10.311049453535077 a31.57326602544955,31.57326602544955 0 0,0 -0.5295852821069281,0.11542064736809327 l -2.1627834112076685 -10.34970155903689" fill="#ff8a0c" stroke="none" /><path d="M 104.29559338865022 120.5559693870025 l 1.6718529534648348 8.000421599911187 a29.173239142123187,29.173239142123187 0 0,0 -0.49108774119934984,0.09823130195419791 l -1.5342687267345263 -8.027942298528245" fill="#ff6a09" stroke="none" /><path d="M 103.58742460773223 120.69131181640829 l 2.7045525322466637 15.59914029913163 a36.831859728777104,36.831859728777104 0 0,0 -0.623901005234266,0.10266267298911833 l -2.4363740239593255 -15.643268970616418" fill="#ffce13" stroke="none" /><path d="M 103.2317021107853 120.74984581791261 l 1.738929500677654 11.16517481820533 a32.29977895931657,32.29977895931657 0 0,0 -0.5485962023433019,0.08062474979670073 l -1.5470081927266666 -11.193380641300912" fill="#ff940d" stroke="none" /><path d="M 102.875027216393 120.80226474461374 l 1.2310626425411773 8.907356028258498 a29.992024613178806,29.992024613178806 0 0,0 -0.5106101888385315,0.06610871171726293 l -1.0779746318118704 -8.927176336176155" fill="#ff750a" stroke="none" /><path d="M 102.51750503828377 120.84855314841334 l 0.7745776001056842 6.414613682117113 a27.461210347093612,27.461210347093612 0 0,0 -0.46849360790249023,0.052495685949627426 l -0.6643480906023946 -6.426965128573712" fill="#ff5207" stroke="none" /><path d="M 102.15924093988457 120.88869738790638 l 1.1254909567230311 10.888104043205798 a31.946119839894855,31.946119839894855 0 0,0 -0.5459750646996614,0.051704406275192766 l -0.9384163286383544 -10.905820204986174" fill="#ff8f0d" stroke="none" /><path d="M 101.80034050326958 120.92268563240118 l 0.06345127426392787 0.7373999873848543 a21.740124858115777,21.740124858115777 0 0,0 -0.3720988062602113,0.028802800921863016 l -0.050783473228480744 -0.738380555301771" fill="#ff0200" stroke="none" /><path d="M 101.44090949804482 120.95050786540614 l 0.30978392114754666 4.504190225260191 a25.51483063504391,25.51483063504391 0 0,0 -0.4372217099240073,0.026302172351745954 l -0.2324178590910743 -4.508844375436629" fill="#ff3705" stroke="none" /><path d="M 100.72087961077811 120.9876233191556 l 2.162638832334333 62.96286995746683 a84.0,84.0 0 0,0 -1.4415467437170246,0.03712913059981959 l -1.0814787745465644 -62.990716805416696" fill="#4dd2ff" stroke="none" /><line stroke="#e1ed5e" stroke-width="0.3" x1="101.45913802915013" x2="101.54496967792366" y1="184.9874750549273" y2="189.98673829345242" /><path d="M 101.47630435890484 185.9873277026323 a86.0,86.0 0 0,1 -42.54439059252881,-10.42667462771756" fill="none" id="id139" stroke="none" /><text fill="#e1ed5e" style="font-size:6.75px; font-family:Arial;" text-anchor="middle"><textPath startOffset="22.145653131862474" xlink:href="#id139">July</textPath></text><path d="M 100.0 121.0 l 1.7220594217880723e-16 1.4061682298823115 a22.40616822988231,22.40616822988231 0 0,0 -0.3846316723736049,-0.0033016003102263186 l 0.02413874752475257 -1.40596102776652" fill="#ff0b01" stroke="none" /><path d="M 99.63950707515114 120.99690560180557 l -0.04343079376882925 2.529626004055273 a23.529998805185496,23.529998805185496 0 0,0 -0.40380468044381695,-0.010400576174417997 l 0.08684878828339014 -2.5285077105308074" fill="#ff1b02" stroke="none" /><path d="M 99.27912038922189 120.98762331915562 l -0.15074131415413494 4.388668888396825 a25.39125694485931,25.39125694485931 0 0,0 -0.4354893646430178,-0.01870178711318171 l 0.22605643939799147 -4.385434532857814" fill="#ff3605" stroke="none" /><path d="M 98.91894614982273 120.97215588758144 l -0.2907879212088926 5.641207986834925 a26.648697652189497,26.648697652189497 0 0,0 -0.45665163611691467,-0.027471028462746825 l 0.3875839094582536 -5.635384980547487" fill="#ff4706" stroke="none" /><path d="M 98.19965949673042 120.92268563240118 l -0.5386824428356363 6.260306529056775 a27.283439870960034,27.283439870960034 0 0,0 -0.4662875467641066,-0.04415791547589566 l 0.6460695529847581 -6.250136858075695" fill="#ff5007" stroke="none" /><path d="M 97.84075906011543 120.88869738790638 l -0.7740967130800707 7.488683495120745 a28.528585937033277,28.528585937033277 0 0,0 -0.4867032437778735,-0.05453611363112986 l 0.9025358584587435 -7.474291620982645" fill="#ff6109" stroke="none" /><path d="M 97.48249496171623 120.84855314841334 l -1.058595904039432 8.766692670893095 a29.830375171754582,29.830375171754582 0 0,0 -0.5078581288200228,-0.06575240244970605 l 1.2089318547502488 -8.747228672242992" fill="#ff730a" stroke="none" /><path d="M 97.12497278360702 120.80226474461374 l -1.227112249687533 8.878772953455574 a29.963169842881893,29.963169842881893 0 0,0 -0.5089100209223285,-0.07479224779653157 l 1.3793473762175466 -8.85639963236016" fill="#ff750a" stroke="none" /><path d="M 96.76829788921471 120.74984581791261 l -0.19405850867171504 1.2459948338535687 a22.261016189736544,22.261016189736544 0 0,0 -0.3770830601709172,-0.06204887405418999 l 0.21541907189569576 -1.2424799613037103" fill="#ff0901" stroke="none" /><path d="M 96.41257539226777 120.69131181640829 l -2.2742073137553334 13.117023438665184 a34.31271282633371,34.31271282633371 0 0,0 -0.5795013065303668,-0.10560444225402804 l 2.499043353836757 -13.07605082247979" fill="#ffae10" stroke="none" /><path d="M 96.05791012581884 120.62667999033965 l -2.4855607894483907 13.005504348410435 a34.24088953939901,34.24088953939901 0 0,0 -0.5763940376535144,-0.1152949503872009 l 2.7084513126328633 -12.960920001360373" fill="#ffad10" stroke="none" /><path d="M 95.70440661134978 120.55596938700252 l -3.058034447449087 14.63380185197536 a35.94990740187586,35.94990740187586 0 0,0 -0.6029956431429797,-0.13142009387951623 l 3.3087925072112028 -14.579150299962125" fill="#ffc312" stroke="none" /><path d="M 95.35216902796893 120.47920084513623 l -2.3610392688556456 10.403174659559262 a31.66773403429118,31.66773403429118 0 0,0 -0.5291042684071332,-0.12486716666785333 l 2.539275691002667 -10.361111349245181" fill="#ff8b0c" stroke="none" /><path d="M 95.00130118170881 120.39639698878247 l -0.48474448036269596 1.9779228993393345 a23.03645677758528,23.03645677758528 0 0,0 -0.38327695528241174,-0.09742750323991527 l 0.5186267288704863 -1.9693101642641562" fill="#ff1402" stroke="none" /><path d="M 94.6519064749342 120.30758222061772 l -2.5811204824824 9.80093488897744 a31.1351126112671,31.1351126112671 0 0,0 -0.515684345247211,-0.1405520614435495 l 2.748986228664306 -9.755182333389747" fill="#ff840c" stroke="none" /><path d="M 94.30408787586889 120.21278271476187 l -3.589761930433192 12.738798688654066 a34.234930402055085,34.234930402055085 0 0,0 -0.5642894469278048,-0.1642564339581692 l 3.807911389742604 -12.675298560393381" fill="#ffad10" stroke="none" /><path d="M 93.95794788825049 120.11202640906438 l -3.8078211505988095 12.674998183632379 a34.2346167632475,34.2346167632475 0 0,0 -0.5613814744035271,-0.17391741578261602 l 4.02484325787397 -12.607764180043114" fill="#ffad10" stroke="none" /><path d="M 93.61358852112213 120.00534299687104 l -2.765702659082723 8.663524188082809 a30.094270864448294,30.094270864448294 0 0,0 -0.49079064276873935,-0.16133263261893224 l 2.9140160394992063 -8.614770634061854" fill="#ff760a" stroke="none" /><path d="M 93.27111125876986 119.89276391827306 l -1.4326274054861694 4.2353083631123365 a25.47104665750642,25.47104665750642 0 0,0 -0.41298782699299413,-0.1436586042968393 l 1.5051210045241854 -4.210091326246907" fill="#ff3705" stroke="none" /><path d="M 92.93061703081489 119.77432235084164 l -6.164392987972471 17.24290430618539 a39.31167632475058,39.31167632475058 0 0,0 -0.633499892140835,-0.23262993528194162 l 6.4594820317674255 -17.134543521894727" fill="#ffed16" stroke="none" /><path d="M 92.59220618246901 119.65005319985036 l -4.668538677913182 12.383853498925946 a34.2346167632475,34.2346167632475 0 0,0 -0.548125130414659,-0.21202657551329912 l 4.88043607082137 -12.301887035274607" fill="#ffad10" stroke="none" /><path d="M 92.25597844496254 119.51999308798841 l -4.710973432933195 11.87473048660802 a33.77507318238844,33.77507318238844 0 0,0 -0.5370969053440475,-0.2184326356254943 l 4.914124799467683 -11.792110594403233" fill="#ffa70f" stroke="none" /><path d="M 91.92203290615298 119.3841803445677 l -4.589563190711672 11.013280885893817 a32.93132206224983,32.93132206224983 0 0,0 -0.5199462535289613,-0.22193413771613854 l 4.777944519411065 -10.932872098518274" fill="#ff9c0e" stroke="none" /><path d="M 91.59046798132341 119.24265499422711 l -1.760756756225389 4.028956036263663 a25.396902443395664,25.396902443395664 0 0,0 -0.39798953348116595,-0.1780156561036277 l 1.82965969256219 -3.9981366292501805" fill="#ff3605" stroke="none" /><path d="M 91.26138138417905 119.09545874513695 l -6.266444145708037 13.693311371482853 a36.059053706912,36.059053706912 0 0,0 -0.5606518096390884,-0.26241335588052694 l 6.5005846692186156 -13.5837217840318" fill="#ffc412" stroke="none" /><path d="M 90.93487009805054 118.94263497670748 l -5.965390534228377 12.4653718816642 a34.819239500567534,34.819239500567534 0 0,0 -0.5369454209880046,-0.26264691208340996 l 6.178496204478452 -12.36113121948357" fill="#ffb410" stroke="none" /><path d="M 90.6110303473126 118.78422872680471 l -4.21014434632126 8.423108956532415 a30.41669155863552,30.41669155863552 0 0,0 -0.4650462697624826,-0.2374559389265837 l 4.354117837797325 -8.349595065932995" fill="#ff7b0b" stroke="none" /><path d="M 90.28995756902619 118.62028667847754 l -4.357511334913115 8.356102544101889 a30.42403070673278,30.42403070673278 0 0,0 -0.4610127066540687,-0.24546329964932415 l 4.500312857353745 -8.28006877672999" fill="#ff7b0b" stroke="none" /><path d="M 89.97174638481275 118.45085714620012 l -4.453853028937607 8.194587925323829 a30.32673994862298,30.32673994862298 0 0,0 -0.45527052490866154,-0.25253088567775106 l 4.593867742002371 -8.116924124212929" fill="#ff790b" stroke="none" /><line stroke="#e1ed5e" stroke-width="0.3" x1="58.13341422392154" x2="55.67067388415222" y1="173.97424548756322" y2="178.32567169271397" /><path d="M 57.64086615596768 174.84453072859336 a86.0,86.0 0 0,1 -31.369924170532247,-30.572349798747897" fill="none" id="id140" stroke="none" /><text fill="#e1ed5e" style="font-size:6.75px; font-family:Arial;" text-anchor="middle"><textPath startOffset="22.145653131862474" xlink:href="#id140">August</textPath></text><path d="M 89.65649057296885 118.27599006163327 l -2.165840285664864 3.826832257961919 a25.397216082203236,25.397216082203236 0 0,0 -0.3775810550590876,-0.2179965237792688 l 2.2312138085843514 -3.789088836906479" fill="#ff3605" stroke="none" /><path d="M 89.34428304082925 118.09573695890944 l -7.642527960154153 12.978683292543352 a36.06168827289564,36.06168827289564 0 0,0 -0.5307374565899622,-0.3186925933565465 l 7.864198173301543 -12.845576698650886" fill="#ffc412" stroke="none" /><path d="M 89.03521579738668 117.91015095944536 l -7.243871353307825 11.832319457561526 a34.873624469801065,34.873624469801065 0 0,0 -0.5078859677134289,-0.31695840693693733 l 7.4459214498109665 -11.706225253783042" fill="#ffb510" stroke="none" /><path d="M 88.72937992617639 117.7192867562869 l -6.775131363871138 10.651631823413792 a33.62377382161419,33.62377382161419 0 0,0 -0.48436546089423466,-0.31395983981416586 l 6.956982457022383 -10.533758141895733" fill="#ffa50f" stroke="none" /><path d="M 88.4268655584334 117.5232005979908 l -5.691847140820659 8.618182025387371 a31.32812593344883,31.32812593344883 0 0,0 -0.4462075596980479,-0.30022835977553014 l 5.8389509886157125 -8.51920399155472" fill="#ff870c" stroke="none" /><path d="M 88.1277618465304 117.32195027204791 l -1.1438173409463168 1.6688636838360507 a23.023221219905608,23.023221219905608 0 0,0 -0.32408462902840124,-0.22623624074251827 l 1.1722970611484835 -1.6489826272884032" fill="#ff1402" stroke="none" /><path d="M 87.83215693770417 117.11559508785305 l -5.460663950550958 7.68110770413172 a30.424344345540355,30.424344345540355 0 0,0 -0.4230707759914097,-0.30627061552987955 l 5.5917157369163215 -7.586236317228775" fill="#ff7b0b" stroke="none" /><path d="M 87.54013794807813 116.9041958592261 l -11.027078404712253 14.960349667719365 a39.58516936495609,39.58516936495609 0 0,0 -0.5435364414212469,-0.4078798787194246 l 11.282267835044266 -14.768850761735925" fill="#fff016" stroke="none" /><path d="M 87.2517909369889 116.68781488649013 l -6.58849134381439 8.624546662466459 a31.853157297329588,31.853157297329588 0 0,0 -0.4316710380376099,-0.335670010116976 l 6.735572326487229 -8.51017560072869" fill="#ff8e0d" stroke="none" /><path d="M 86.96720088162412 116.46651593811092 l -7.280584536467699 9.198780723894806 a32.73134595853993,32.73134595853993 0 0,0 -0.4375857220521666,-0.35248808261723624 l 7.437421028875127 -9.07244434748416" fill="#ff990e" stroke="none" /><path d="M 86.68645165197938 116.24036423190432 l -2.7851555007874556 3.3974368510108737 a25.393138777704763,25.393138777704763 0 0,0 -0.33473678808845636,-0.27924933394980667 l 2.8430666230378043 -3.3491253331491966" fill="#ff3605" stroke="none" /><path d="M 86.40962598614128 116.0094264158162 l -10.218842461875308 12.037770725175235 a36.79027122289265,36.79027122289265 0 0,0 -0.4779590921283314,-0.412849680089949 l 10.423981033766502 -11.860576912620564" fill="#ffcd13" stroke="none" /><path d="M 86.13680546590413 115.77377054828092 l -8.967927368052065 10.203855125122343 a34.584637672501344,34.584637672501344 0 0,0 -0.4425762703449088,-0.3957544300031262 l 9.141768665220345 -10.048405165235835" fill="#ffb110" stroke="none" /><path d="M 85.86807049272751 115.53346607816431 l -9.449540629010068 10.3867004671532 a35.04198578170739,35.04198578170739 0 0,0 -0.4414793424704301,-0.4086266884867474 l 9.626449742794465 -10.222956032534075" fill="#ffb711" stroke="none" /><path d="M 85.60350026404147 115.28858382429668 l -6.548777571210692 6.954574839747502 a30.55262261783858,30.55262261783858 0 0,0 -0.3787470617331946,-0.36283111753524955 l 6.667197118809201 -6.841131591906669" fill="#ff7c0b" stroke="none" /><path d="M 85.34317274990678 115.03919595460226 l -1.5766662278439776 1.6177984464815443 a23.259014875440588,23.259014875440588 0 0,0 -0.28354741609191353,-0.28112394846551375 l 1.6042055640658537 -1.5904944877873712" fill="#ff1702" stroke="none" /><path d="M 85.08716467003676 114.78537596483092 l -9.91575704776217 9.831007496778076 a34.96319971324452,34.96319971324452 0 0,0 -0.4189144058025026,-0.42984308469826327 l 10.083058254715482 -9.659341720012074" fill="#ffb610" stroke="none" /><path d="M 84.83555147118756 114.52719865689866 l -11.55085438987182 11.065457214599997 a36.995830097377386,36.995830097377386 0 0,0 -0.43539540879293204,-0.46237483597615997 l 11.739105632401005 -10.865540918679347" fill="#ffd013" stroke="none" /><path d="M 84.58840730492382 114.26474011684316 l -8.292972597092115 7.6758516289763685 a32.30009259812414,32.30009259812414 0 0,0 -0.3731465108250045,-0.4101533810441623 l 8.423516808759 -7.532360672374533" fill="#ff940d" stroke="none" /><path d="M 84.3458050057657 113.99807769240083 l -7.501229509439218 6.707645682217077 a31.062850230001793,31.062850230001793 0 0,0 -0.3520292703167484,-0.4005446884986151 l 7.615269843714559 -6.577888715907162" fill="#ff830c" stroke="none" /><path d="M 84.1078160697243 113.72728997021213 l -7.726920529550056 6.674329919115054 a31.210385925085127,31.210385925085127 0 0,0 -0.3467406053030223,-0.40845956118010895 l 7.84035569836019 -6.54070357548539" fill="#ff850c" stroke="none" /><path d="M 83.8745106332314 113.45245675266167 l -3.3771142555794254 2.817308823235007 a25.397968815341418,25.397968815341418 0 0,0 -0.2764184075059223,-0.33718551215285525 l 3.4249794823239776 -2.7589210293836564" fill="#ff3605" stroke="none" /><path d="M 83.64595745247003 113.17365903436017 l -14.66387731035335 11.81218155981024 a39.82968217934166,39.82968217934166 0 0,0 -0.4243446171617283,-0.5361455615388928 l 14.86448835815664 -11.558716054356667" fill="#fff316" stroke="none" /><path d="M 83.4222238831116 112.89097897827486 l -11.153330490063558 8.672897249389795 a35.128550092598125,35.128550092598125 0 0,0 -0.36608636791312826,-0.47921880712856435 l 11.300568835330981 -8.48015752902036" fill="#ffb811" stroke="none" /><path d="M 83.20337586046588 112.60449989151573 l -12.87863269536075 9.664366069219428 a37.1015263755302,37.1015263755302 0 0,0 -0.37790197914681706,-0.5126966128891959 l 13.042636694091398 -9.441863147061353" fill="#ffd113" stroke="none" /><path d="M 82.98947788004972 112.3143062007846 l -8.13586475251341 5.88973866082093 a31.04396917378577,31.04396917378577 0 0,0 -0.3087912591478657,-0.43435357698030486 l 8.235771110191235 -5.749207857131121" fill="#ff830c" stroke="none" /><path d="M 82.78059297857968 112.02048342749411 l -3.087899816389777 2.15559389022525 a24.765861162554515,24.765861162554515 0 0,0 -0.24035888959692175,-0.35069080313435036 l 3.1244484428020236 -2.1022683520208485" fill="#ff2d04" stroke="none" /><path d="M 82.576782715395 111.72311816256416 l -9.641631023794499 6.487319645130046 a32.620945098273495,32.620945098273495 0 0,0 -0.3086183128731265,-0.4672874606265449 l 9.751573775588351 -6.32085230616444" fill="#ff980e" stroke="none" /><path d="M 82.37810715431573 111.42229804090323 l -13.7751638619857 8.928894788530894 a37.415855188481984,37.415855188481984 0 0,0 -0.34472885865042463,-0.5419710237399658 l 13.926410412262014 -8.691110090112256" fill="#ffd513" stroke="none" /><path d="M 82.18462484594161 111.11811171558189 l -9.054987172066031 5.650981699324881 a31.673630443873588,31.673630443873588 0 0,0 -0.2839043776922662,-0.46373646471801905 l 9.150659514213702 -5.494708118482305" fill="#ff8b0c" stroke="none" /><path d="M 81.99639281039703 110.81064883170644 l -9.181689089900427 5.513340487130059 a31.70982436226776,31.70982436226776 0 0,0 -0.2762171677631558,-0.46907713770261555 l 9.274979967793351 -5.3549121811338845" fill="#ff8c0c" stroke="none" /><line stroke="#e1ed5e" stroke-width="0.3" x1="26.387840678322732" x2="22.057713659400548" y1="142.50000000000003" y2="145.00000000000006" /><path d="M 25.521815274538298 143.00000000000003 a86.0,86.0 0 0,1 -11.493303480769221,-40.785679425670985" fill="none" id="id141" stroke="none" /><text fill="#e1ed5e" style="font-size:6.75px; font-family:Arial;" text-anchor="middle"><textPath startOffset="21.40746469413373" xlink:href="#id141">September</textPath></text><path d="M 81.81346652052679 110.50000000000001 l -3.807666242437529 2.1983571300555607 a25.396714260111118,25.396714260111118 0 0,0 -0.2147432900324527,-0.3794308171827124 l 3.84484289749136 -2.132669542773727" fill="#ff3605" stroke="none" /><path d="M 81.63589988554817 110.18625677009913 l -16.466692195941498 9.133796582281075 a39.830246729195295,39.830246729195295 0 0,0 -0.3265220095428465,-0.6007637206184405 l 16.621059555099674 -8.849778028188048" fill="#fff316" stroke="none" /><path d="M 81.4637452351635 109.86951160357371 l -8.86698285236496 4.721168934088992 a31.045537367823645,31.045537367823645 0 0,0 -0.2464305035025188,-0.47256298354592247 l 8.946721424842426 -4.568259707438568" fill="#ff830c" stroke="none" /><path d="M 81.29705330413844 109.54985784667822 l -9.485887858206901 4.843561930027405 a31.650922994205146,31.650922994205146 0 0,0 -0.24292850072069594,-0.4860197327926348 l 9.567636272139335 -4.680010341071018" fill="#ff8b0c" stroke="none" /><path d="M 81.1358732173502 109.22738970284198 l -14.665987999524944 7.173869652598413 a37.32653085608459,37.32653085608459 0 0,0 -0.2766086871241012,-0.5780057702704673 l 14.786975944608958 -6.921051380262841" fill="#ffd413" stroke="none" /><path d="M 80.9802524753101 108.90220220490708 l -4.439058405047031 2.0777034747607814 a25.90123364597646,25.90123364597646 0 0,0 -0.18502797268168503,-0.4043195125420328 l 4.474070842583772 -2.0011949800040596" fill="#ff3d05" stroke="none" /><path d="M 80.83023694016515 108.57439118712176 l -17.18825385771529 7.688087324793226 a39.82930581277257,39.82930581277257 0 0,0 -0.27380963153090415,-0.6265300211645725 l 17.31769737126316 -7.391895233852805" fill="#fff316" stroke="none" /><path d="M 80.68587082218212 108.24405325689762 l -13.281391678964718 5.669036347383099 a35.440683433896886,35.440683433896886 0 0,0 -0.23403365924978184,-0.5615955852373248 l 13.376751182750986 -5.440208252704493" fill="#ffbc11" stroke="none" /><path d="M 80.5471966667186 107.91128576633889 l -12.260704842998505 4.9863219222365105 a34.235871318477805,34.235871318477805 0 0,0 -0.21673152841750934,-0.5463050311251993 l 12.34449504638214 -4.775115873897746" fill="#ffad10" stroke="none" /><path d="M 80.41425534168474 107.57618678355246 l -8.83499731484795 3.4175667587422858 a30.4729583607145,30.4729583607145 0 0,0 -0.1845345369944395,-0.4894997833996206 l 8.892362535656826 -3.2653986951485203" fill="#ff7b0b" stroke="none" /><path d="M 80.28708602549918 107.23885506374661 l -7.683078485551312 2.82133284162034 a29.184718322480435,29.184718322480435 0 0,0 -0.16865964061579236,-0.4717710323024448 l 7.7303782962110485 -2.6890268529369736" fill="#ff6a09" stroke="none" /><path d="M 80.16572619554312 106.89939002012753 l -4.158336847443754 1.4464854135035277 a25.40273612521656,25.40273612521656 0 0,0 -0.13973268354346602,-0.4130948500255323 l 4.182554952559587 -1.3748888890038338" fill="#ff3605" stroke="none" /><path d="M 80.05021161711548 106.5578916946017 l -17.88830627727036 5.880241580248828 a39.82999581814923,39.82999581814923 0 0,0 -0.207941567243502,-0.6513739977092771 l 17.986612560291118 -5.57229854884816" fill="#fff316" stroke="none" /><path d="M 79.94057633289273 106.21446072829308 l -17.872468339949883 5.536936377609143 a39.71049943246311,39.71049943246311 0 0,0 -0.19613900645851662,-0.6528829617457823 l 17.964883666412028 -5.229315812272637" fill="#fff216" stroke="none" /><path d="M 79.83685265289637 105.86919833188381 l -12.709022454892986 3.6994112133414823 a34.23649859609296,34.23649859609296 0 0,0 -0.1594141170863173,-0.5657044631500223 l 12.770655064053878 -3.480698826288464" fill="#ffad10" stroke="none" /><path d="M 79.73907114497094 105.5222062557868 l -9.68957528626091 2.6409368318978013 a31.043028257363044,31.043028257363044 0 0,0 -0.13571793055723133,-0.5153430882772733 l 9.733482697622874 -2.4742132392477254" fill="#ff830c" stroke="none" /><path d="M 79.64726062577567 105.17358676015961 l -2.0896241046981254 0.5311742760027657 a23.15607861879443,23.15607861879443 0 0,0 -0.0946228753553295,-0.38609362158513294 l 2.0984345065697485 -0.4952248298095331" fill="#ff1602" stroke="none" /><path d="M 79.56144815229197 104.8234425847677 l -14.822803619882526 3.4981412938905394 a36.229986857040444,36.229986857040444 0 0,0 -0.13765521129049174,-0.6065342600369403 l 14.880669692730685 -3.2431726999145725" fill="#ffc612" stroke="none" /><path d="M 79.48165901384964 104.47187691870673 l -18.43402370239088 4.0176096678214375 a39.86675428639704,39.86675428639704 0 0,0 -0.13999360586101928,-0.6699200823007817 l 18.500275019076266 -3.700573134235247" fill="#fff417" stroke="none" /><path d="M 79.407916724674 104.11899336999214 l -10.46433108100278 2.093159286884768 a31.671623155505106,31.671623155505106 0 0,0 -0.10206362706549162,-0.534040024790278 l 10.498721000350429 -1.9132166970611753" fill="#ff8b0c" stroke="none" /><path d="M 79.34024301695615 103.76489593502545 l -14.034169586163747 2.5574932013852343 a35.26529661270088,35.26529661270088 0 0,0 -0.10341998705160355,-0.5964990025215798 l 14.076004390707585 -2.316201165943062" fill="#ffba11" stroke="none" /><path d="M 79.2786578344484 103.40968896794605 l -4.482155424214169 0.7375369693942677 a25.54243085011052,25.54243085011052 0 0,0 -0.06747885479645784,-0.433262653857528 l 4.494155771148895 -0.6604861336052897" fill="#ff3805" stroke="none" /><path d="M 79.22317932658666 103.0534771498775 l -21.74491203396229 3.195753241821279 a42.97849035187288,42.97849035187288 0 0,0 -0.10101067471637236,-0.7308629238363629 l 21.796567225233876 -2.82200200978483" fill="#e5ff1a" stroke="none" /><path d="M 79.17382384314188 102.69636545807758 l -15.62025420307752 2.0223546349721926 a36.75062727761515,36.75062727761515 0 0,0 -0.07563263998034805,-0.6263467561757078 l 15.65266892931753 -1.7539142018730853" fill="#ffcd13" stroke="none" /><path d="M 79.13060592940153 102.33845913500099 l -16.229292070344584 1.818526027545943 a37.330859071629135,37.330859071629135 0 0,0 -0.06589360154235165,-0.6374608210656864 l 16.258118064368603 -1.539660684197325" fill="#ffd413" stroke="none" /><path d="M 79.0935383218832 101.97986365728391 l -14.29642775821326 1.353886572642693 a35.360391899157655,35.360391899157655 0 0,0 -0.052041029218624586,-0.6047956441297891 l 14.317562410129625 -1.1082698811372418" fill="#ffbb11" stroke="none" /><path d="M 79.06263194458094 101.62068470465958 l -4.392857196405505 0.3400349293723895 a25.405997968815342,25.405997968815342 0 0,0 -0.029925892971279452,-0.4351159159717064 l 4.398047050541851 -0.2645755892463398" fill="#ff3605" stroke="none" /><path d="M 79.03789590574601 101.26102812881392 l -18.239935877820237 1.09726924865326 a39.27291056813429,39.27291056813429 0 0,0 -0.03470679988374962,-0.6733026457486393 l 18.256084267160556 -0.7839948095278899" fill="#ffec16" stroke="none" /><path d="M 79.01933749520258 100.90099992219065 l -15.846610788093873 0.6805216510104641 a36.86121632116614,36.86121632116614 0 0,0 -0.021722337602443863,-0.6324221581458561 l 15.855957812693164 -0.4083932283004881" fill="#ffce13" stroke="none" /><path d="M 79.00696218219943 100.54070618675478 l -10.912266088337583 0.2810612659629157 a31.915885058844616,31.915885058844616 0 0,0 -0.009405411322655849,-0.5478180570970373 l 10.915482931258905 -0.09369629289682599" fill="#ff8f0d" stroke="none" /><line stroke="#e1ed5e" stroke-width="0.3" x1="15.003131293944662" x2="10.003315487706104" y1="100.72959589197737" y2="100.7725132973878" /><path d="M 14.003168132696942 100.73817937305945 a86.0,86.0 0 0,1 10.791469493833604,-42.45332614584628" fill="none" id="id142" stroke="none" /><text fill="#e1ed5e" style="font-size:6.75px; font-family:Arial;" text-anchor="middle"><textPath startOffset="22.145653131862435" xlink:href="#id142">October</textPath></text><path d="M 79.00077361379809 100.18025310272382 l -10.296069105571158 0.08837937017325308 a31.296448413883745,31.296448413883745 0 0,0 0.0,-0.5372649457941374 l 10.296069105571158 0.08837937017324929" fill="#ff860c" stroke="none" /><path d="M 79.00077361379809 99.81974689727619 l -14.711439031425524 -0.12628001061453817 a35.71198100244937,35.71198100244937 0 0,0 0.010524097008609394,-0.6129758899613089 l 14.70710350281825 0.3788028165448995" fill="#ffc011" stroke="none" /><path d="M 79.00696218219943 99.45929381324524 l -3.37677007733007 -0.08697361896392823 a24.377889957584085,24.377889957584085 0 0,0 0.014365905646735181,-0.4182476683267783 l 3.374779484686484 0.14492755185484507" fill="#ff2703" stroke="none" /><path d="M 79.01933749520258 99.09900007780938 l -10.876629130645835 -0.4670892541247128 a31.886653921978613,31.886653921978613 0 0,0 0.028179314968587648,-0.5466711822260664 l 10.867008226220676 0.6537322297274911" fill="#ff8e0d" stroke="none" /><path d="M 79.03789590574601 98.7389718711861 l -11.289468696750367 -0.6791464025726651 a32.30987812892048,32.30987812892048 0 0,0 0.03805801905471592,-0.553355244468505 l 11.276146716530588 0.8728450711954951" fill="#ff940d" stroke="none" /><path d="M 79.06263194458094 98.37931529534042 l -18.87039865990081 -1.4606882010183908 a39.926847481928434,39.926847481928434 0 0,0 0.05876162917934023,-0.6828992028642855 l 18.842543408023726 1.7844084512583571" fill="#fff417" stroke="none" /><path d="M 79.0935383218832 98.0201363427161 l -5.63034406147025 -0.5331994364678799 a26.655534978194634,26.655534978194634 0 0,0 0.04705032898871442,-0.45516925234810635 l 5.620361339999872 0.629773211098899" fill="#ff4706" stroke="none" /><path d="M 79.13060592940154 97.66154086499901 l -2.042367996699377 -0.22885159400214322 a23.055149650516757,23.055149650516757 0 0,0 0.047447403279355774,-0.3929325637807798 l 2.038138507160353 0.2638778347063593" fill="#ff1402" stroke="none" /><path d="M 79.17382384314186 97.30363454192245 l -9.964564480570932 -1.2901123695407821 a31.047732839476673,31.047732839476673 0 0,0 0.07297027924557713,-0.5279765905170406 l 9.940949684770146 1.4609772682578896" fill="#ff830c" stroke="none" /><path d="M 79.2786578344484 96.59031103205396 l -4.352794037255562 -0.7162506023980083 a25.41132982854412,25.41132982854412 0 0,0 0.07452197072647236,-0.4298229237072206 l 4.339857249036855 0.7908665590258216" fill="#ff3605" stroke="none" /><path d="M 79.34024301695615 96.23510406497455 l -10.772164405547478 -1.9630471943671572 a31.949569866778184,31.949569866778184 0 0,0 0.10295932632738473,-0.5387267018150029 l 10.736878786937934 2.147676461215475" fill="#ff8f0d" stroke="none" /><path d="M 79.407916724674 95.88100663000787 l -4.317829803934928 -0.8636868886633244 a25.40336340283171,25.40336340283171 0 0,0 0.08920486524215777,-0.4268775727084581 l 4.3023672278684035 0.9376809126571917" fill="#ff3605" stroke="none" /><path d="M 79.48165901384962 95.52812308129327 l -7.416095035564154 -1.6163033960133548 a28.59018459884103,28.59018459884103 0 0,0 0.10862791414518734,-0.4786346329189646 l 7.387256259861305 1.7433723628713276" fill="#ff6209" stroke="none" /><path d="M 79.64726062577567 94.8264132398404 l -3.21243533446857 -0.8165884998912518 a24.314597646215425,24.314597646215425 0 0,0 0.1063017063772969,-0.40364489370487144 l 3.1979441472865475 0.8716138979689079" fill="#ff2603" stroke="none" /><path d="M 79.73907114497095 94.47779374421319 l -6.05588620870311 -1.6505587155118333 a27.27679072823944,27.27679072823944 0 0,0 0.12700789184634817,-0.4507062020978498 l 6.02665982478218 1.7542728415126962" fill="#ff5007" stroke="none" /><path d="M 80.05021161711548 93.44210830539832 l -12.736031191026925 -4.186586422213826 a34.40649082979867,34.40649082979867 0 0,0 0.18925958492278494,-0.5595123335998267 l 12.662286184531775 4.404600430287814" fill="#ffaf10" stroke="none" /><path d="M 80.28708602549916 92.7611449362534 l -12.427120364348163 -4.563410731341565 a34.23850588446144,34.23850588446144 0 0,0 0.2073374943115415,-0.5499873368375365 l 12.346952186222184 4.776066348373246" fill="#ffad10" stroke="none" /><path d="M 80.41425534168474 92.42381321644754 l -8.462565119093021 -3.2735019846694735 a30.07363343090985,30.07363343090985 0 0,0 0.19038231794704774,-0.47988780816140386 l 8.405124126179842 3.4182908100444602" fill="#ff760a" stroke="none" /><path d="M 80.5471966667186 92.08871423366112 l -12.261285905288174 -4.9865582352111755 a34.23649859609296,34.23649859609296 0 0,0 0.22608178708767757,-0.5425139868256927 l 12.173878273664018 5.196304731478133" fill="#ffad10" stroke="none" /><path d="M 80.68587082218212 91.75594674310238 l -4.136170551629353 -1.765485256586466 a25.497204134058187,25.497204134058187 0 0,0 0.17528249429784085,-0.4010806495308092 l 4.105254175314535 1.8362279758931421" fill="#ff3705" stroke="none" /><path d="M 80.83023694016515 91.42560881287825 l -13.205423224493858 -5.906617842113714 a35.4662136328335,35.4662136328335 0 0,0 0.25335633417594067,-0.553629313712907 l 13.102082425462871 6.1324361380412915" fill="#ffbd11" stroke="none" /><path d="M 80.9802524753101 91.09779779509293 l -10.2334968109798 -4.78979322708434 a32.29896349841687,32.29896349841687 0 0,0 0.23935184127378933,-0.5001532917114885 l 10.149765711746104 4.9647590208609165" fill="#ff940d" stroke="none" /><path d="M 81.1358732173502 90.77261029715801 l -11.89085733447475 -5.816414180751336 a34.23718860146962,34.23718860146962 0 0,0 0.2627787157224173,-0.5257334599279443 l 11.78925870554059 6.01967949684305" fill="#ffad10" stroke="none" /><path d="M 81.29705330413844 90.45014215332179 l -7.52157007108346 -3.8405672716038044 a29.445352171575365,29.445352171575365 0 0,0 0.2337286958663259,-0.4482055926074062 l 7.454533306242194 3.9691191073156973" fill="#ff6e0a" stroke="none" /><path d="M 81.46374523516351 90.13048839642627 l -9.651609372086854 -5.1389383615764315 a31.93445247625306,31.93445247625306 0 0,0 0.26179354767974033,-0.48167064130893433 l 9.561970474791764 5.3038638363599855" fill="#ff8f0d" stroke="none" /><path d="M 81.63589988554816 89.8137432299009 l -1.781939758103733 -0.988411945685732 a23.03771133281558,23.03771133281558 0 0,0 0.19479661328462547,-0.34418695062295274 l 1.7647097797977387 1.01885566640779" fill="#ff1402" stroke="none" /><line stroke="#e1ed5e" stroke-width="0.3" x1="26.387840678322718" x2="22.05771365940052" y1="57.49999999999999" y2="54.99999999999999" /><path d="M 25.521815274538284 56.99999999999999 a86.0,86.0 0 0,1 29.574782752854787,-30.34633250058573" fill="none" id="id143" stroke="none" /><text fill="#e1ed5e" style="font-size:6.75px; font-family:Arial;" text-anchor="middle"><textPath startOffset="21.40746469413373" xlink:href="#id143">November</textPath></text><path d="M 81.81346652052679 89.5 l -1.7387973105053411 -1.0038950952864563 a23.007790190572912,23.007790190572912 0 0,0 0.20041569988923616,-0.3403496734689558 l 1.7213079004863256 1.033595937048985" fill="#ff1402" stroke="none" /><path d="M 81.99639281039701 89.18935116829357 l -11.348112758080003 -6.814215653464039 a34.23681223490053,34.23681223490053 0 0,0 0.3068792789301825,-0.5012642392592879 l 11.229465514694427 7.00801700884787" fill="#ffad10" stroke="none" /><path d="M 82.18462484594161 88.88188828441811 l -13.927421500522748 -8.691741083966711 a37.41704701595077,37.41704701595077 0 0,0 0.34473983948517917,-0.541988287436068 l 13.776163969411678 8.92954304608145" fill="#ffd513" stroke="none" /><path d="M 82.37810715431573 88.57770195909679 l -10.008180286200425 -6.487181546111273 a32.926742935659234,32.926742935659234 0 0,0 0.3115113870121438,-0.4716679436096892 l 9.895344460267552 6.658029368060023" fill="#ff9c0e" stroke="none" /><path d="M 82.576782715395 88.27688183743585 l -3.645406699026696 -2.4527923164370815 a25.39376605531991,25.39376605531991 0 0,0 0.24645286395167207,-0.35958209383856027 l 3.6027640982597107 2.5150091453456764" fill="#ff3605" stroke="none" /><path d="M 82.78059297857968 87.97951657250589 l -7.075191923766332 -4.9390334498846435 a29.62857996296075,29.62857996296075 0 0,0 0.29471252410761395,-0.4145500730178983 l 6.989364301128746 5.059760749612062" fill="#ff700a" stroke="none" /><path d="M 82.98947788004972 87.6856937992154 l -10.723315669277344 -7.762853586033169 a34.23825497341538,34.23825497341538 0 0,0 0.34873779008513445,-0.4731297892823383 l 10.58847585960839 7.945789684584371" fill="#ffad10" stroke="none" /><path d="M 83.2033758604659 87.39550010848427 l -8.03707276692744 -6.031169238371186 a31.04836011709182,31.04836011709182 0 0,0 0.3235653437150929,-0.42355742151012454 l 7.9323554458580405 6.168247573122195" fill="#ff830c" stroke="none" /><path d="M 83.42222388311158 87.10902102172516 l -7.975040322531552 -6.2014395914006855 a31.102431447517773,31.102431447517773 0 0,0 0.3313646668323472,-0.41866843171305024 l 7.867409225057642 6.337427967028418" fill="#ff840c" stroke="none" /><path d="M 83.64595745247003 86.82634096563983 l -1.6003787200538548 -1.2891518120098975 a23.055024194993727,23.055024194993727 0 0,0 0.25091900534743633,-0.3060803876642996 l 1.5780128954677886 1.31643448137269" fill="#ff1402" stroke="none" /><path d="M 83.8745106332314 86.54754324733833 l -7.770127597826265 -6.482116796271037 a31.118928848796223,31.118928848796223 0 0,0 0.3457245370599738,-0.40726263534466567 l 7.657708497259177 6.6145462140652596" fill="#ff840c" stroke="none" /><path d="M 84.10781606972428 86.27271002978789 l -7.120579453794605 -6.150586939278982 a30.40916422725372,30.40916422725372 0 0,0 0.344621173350121,-0.39211563403619665 l 7.013947216485891 6.271914851126479" fill="#ff7b0b" stroke="none" /><path d="M 84.34580500576568 86.00192230759919 l -5.700421941430522 -5.097352450573185 a28.647078678535156,28.647078678535156 0 0,0 0.3309451024560282,-0.363766640648034 l 5.6120791381326285 5.194456666778877" fill="#ff6309" stroke="none" /><path d="M 84.58840730492382 85.73525988315684 l -1.2157839867284848 -1.1253115075148699 a22.656640181611806,22.656640181611806 0 0,0 0.2666407832391303,-0.28316327164896954 l 1.1962873697530827 1.1460162391083506" fill="#ff0f01" stroke="none" /><path d="M 84.83555147118756 85.47280134310135 l -1.6054982784372671 -1.5380310329025497 a23.223322779138538,23.223322779138538 0 0,0 0.27825212058888016,-0.2855111883981021 l 1.5788593566975846 1.565364913368382" fill="#ff1702" stroke="none" /><path d="M 85.08716467003674 85.21462403516908 l -1.24436960076027 -1.2337340270552348 a22.752300017922217,22.752300017922217 0 0,0 0.2773701257245223,-0.2749994551344367 l 1.2230075549057713 1.254913492418345" fill="#ff1001" stroke="none" /><path d="M 85.34317274990677 84.96080404539775 l -18.57312203473565 -19.057659410385252 a47.611186450803515,47.611186450803515 0 0,0 0.5902143720829223,-0.5654120172662033 l 18.243235176787426 19.373683557957026" fill="#b0ff20" stroke="none" /><path d="M 85.60350026404147 84.71141617570332 l -3.011705773964562 -3.1983271645098816 a25.393138777704763,25.393138777704763 0 0,0 0.31991754921304144,-0.2961109074599033 l 2.956358453437567 3.249555818102151" fill="#ff3605" stroke="none" /><path d="M 85.86807049272753 84.46653392183569 l -2.7575371738532017 -3.0310164034771603 a25.097691020968995,25.097691020968995 0 0,0 0.32117272968166194,-0.28719463533067047 l 2.705099417348148 3.0779065686912315" fill="#ff3204" stroke="none" /><path d="M 86.13680546590413 84.22622945171909 l -5.470657237288387 -6.224603701336375 a29.286964573749927,29.286964573749927 0 0,0 0.3804802338655942,-0.32864976400487256 l 5.362997523659944 6.317597597805958" fill="#ff6b09" stroke="none" /><path d="M 86.40962598614128 83.9905735841838 l -1.3033411437031734 -1.5353325900776487 a23.013937511201387,23.013937511201387 0 0,0 0.3033737416711687,-0.2530851651631081 l 1.2767930678700958 1.5574799391526386" fill="#ff1402" stroke="none" /><line stroke="#e1ed5e" stroke-width="0.3" x1="56.869717070023135" x2="54.33264160355391" y1="26.7553504044142" y2="22.446841604673864" /><path d="M 56.362301976729285 25.89364864446614 a86.0,86.0 0 0,1 42.16139366436587,-11.88097634709845" fill="none" id="id144" stroke="none" /><text fill="#e1ed5e" style="font-size:6.75px; font-family:Arial;" text-anchor="middle"><textPath startOffset="22.145653131862474" xlink:href="#id144">December</textPath></text></svg>