<?xml version="1.0" encoding="utf-8" ?>
<svg baseProfile="full" height="200mm" version="1.1" viewBox="0,0,200,200" width="200mm" xmlns="http://www.w3.org/2000/svg" xmlns:ev="http://www.w3.org/2001/xml-events" xmlns:xlink="http://www.w3.org/1999/xlink"><defs /><rect fill="#1a1a1a" height="200" width="200" x="0" y="0" /><text alignment-baseline="middle" fill="#e1ed5e" style="dominant-baseline: central; font-size:9.0px; font-family:Arial;" text-anchor="middle" x="100.0" y="100.0">2026</text><line stroke="#e1ed5e" stroke-width="0.3" x1="100.0" x2="100.0" y1="15.0" y2="10.0" /><path d="M 100.0 14.0 a86.0,86.0 0 0,1 42.46469731375804,11.215312516191453" fill="none" id="id157" stroke="none" /><text fill="#e1ed5e" style="font-size:6.75px; font-family:Arial;" text-anchor="middle"><textPath startOffset="22.20632615414155" xlink:href="#id157">January</textPath></text><path d="M 100.0 79.0 l 0.0 -25.531886219094574 a46.531886219094574,46.531886219094574 0 0,0 0.8009699300920508,0.006894201063533984 l -0.43948945081952234 25.528103394639597" fill="#c4ff1e" stroke="none" /><path d="M 100.36148047927253 79.00311137660856 l 0.08562426868328829 -4.973555519845687 a25.97429251495879,25.97429251495879 0 0,0 0.4469722611696866,0.011543974809393454 l -0.17122316504784266 4.971344752893934" fill="#ff2f04" stroke="none" /><path d="M 100.72285384407766 79.0124445844662 l 1.0594618229790822 -30.760732480834747 a51.77897207692018,51.77897207692018 0 0,0 0.8904976407160256,0.038346701620778356 l -1.5888002960844392 30.737938052689774" fill="#89ff24" stroke="none" /><path d="M 101.08401301168833 79.027996857942 l 2.5029276273010095 -48.42322508873412 a69.48786832499152,69.48786832499152 0 0,0 1.193993335090132,0.07202493862699957 l -3.336083011230753 48.37296688072682" fill="#3bff99" stroke="none" /><path d="M 101.44485096284872 79.0497635885617 l 0.5104595433558166 -7.401627148238219 a28.419208407029693,28.419208407029693 0 0,0 0.48774102478332065,0.037858090666573356 l -0.6377907575014784 7.3917437953831815" fill="#ff5107" stroke="none" /><path d="M 101.80526077348638 79.07773832637324 l 1.967508695899307 -22.80265122098833 a43.88737628419824,43.88737628419824 0 0,0 0.752093522029451,0.07142034224618839 l -2.3597273450190026 22.765405334226966" fill="#e3ff1b" stroke="none" /><path d="M 102.16513564639614 79.11191278185805 l 2.533261871188049 -24.43957495219592 a45.57051565498814,45.57051565498814 0 0,0 0.7795450743572886,0.08759097210793595 l -2.9535736490550626 24.392348026617384" fill="#cfff1d" stroke="none" /><path d="M 102.88285421437855 79.19881850522331 l 1.4489060054094178 -10.45455459976843 a31.554479640988973,31.554479640988973 0 0,0 0.5373743202881005,0.07919500602431082 l -1.6286493061261742 10.42806510958315" fill="#ff7d0b" stroke="none" /><path d="M 103.2404852339499 79.25152402106235 l 5.270811178015971 -33.748433096014246 a55.157549486320704,55.157549486320704 0 0,0 0.936813664891442,0.15458228163631235 l -5.850954049046289 33.65270455143831" fill="#65ff29" stroke="none" /><path d="M 103.59715602781102 79.31037775812273 l 2.5401961713722185 -14.610347396561433 a35.82952621081549,35.82952621081549 0 0,0 0.6067216347208324,0.11087450067814007 l -2.7913129271959516 14.564457414532555" fill="#ffb610" stroke="none" /><path d="M 103.95276090670814 79.375362276772 l 5.885966375936498 -30.711679006128016 a52.27062243630752,52.27062243630752 0 0,0 0.8822125899756529,0.17696354612397044 l -6.413745375379277 30.605811503926837" fill="#83ff25" stroke="none" /><path d="M 104.307194497241 79.44645832069477 l 3.6514730454315565 -17.424498354604417 a38.80298846573589,38.80298846573589 0 0,0 0.6525503667267316,0.1426222353855446 l -3.9508661363118165 17.359062621123" fill="#ffdc14" stroke="none" /><path d="M 104.66035177308747 79.52364482259891 l 5.388307033018338 -23.674798381126582 a45.280237459074996,45.280237459074996 0 0,0 0.7585007136578492,0.1795126127476267 l -5.7950314336387105 23.578539856238088" fill="#d3ff1c" stroke="none" /><path d="M 105.01212808612495 79.60689891045804 l 0.9792775564351022 -3.98443652275865 a25.10301339705716,25.10301339705716 0 0,0 0.41873154572427895,0.10674399445190356 l -1.047717990844406 3.9669895321378785" fill="#ff2203" stroke="none" /><path d="M 105.36241919743992 79.69619591428918 l 7.5758448481349925 -28.684529112104677 a50.6680912015956,50.6680912015956 0 0,0 0.8413366833810434,0.2299690972453768 l -8.068479420739747 28.549873474033006" fill="#95ff23" stroke="none" /><path d="M 105.71112130821622 79.79150937346287 l 8.534886944504196 -30.20023100690148 a52.38308856734279,52.38308856734279 0 0,0 0.8655925789870502,0.25269020991768487 l -9.053469741214673 30.04884246806509" fill="#82ff25" stroke="none" /><path d="M 106.0581310904928 79.89281104454417 l 4.280622582616386 -14.207564318100232 a35.838416814059386,35.838416814059386 0 0,0 0.5891402715763543,0.18304875016666744 l -4.524548226903459 14.131775433051045" fill="#ffb610" stroke="none" /><path d="M 106.40334571778207 80.00007090966166 l 6.33694290461245 -19.79252945687745 a41.78222961276484,41.78222961276484 0 0,0 0.6830741500511293,0.225198807714967 l -6.676699876905997 19.680516924903248" fill="#fdff18" stroke="none" /><path d="M 107.08798089147638 80.2323363322302 l 7.709059448921794 -21.499789109813314 a43.84010791028487,43.84010791028487 0 0,0 0.7081590211050527,0.2608209438728136 l -8.078000795799422 21.363904898134177" fill="#e4ff1a" stroke="none" /><path d="M 107.4271985657038 80.35727306442388 l 5.2432771269145295 -13.86690552843387 a35.825080909193545,35.825080909193545 0 0,0 0.5749359705546314,0.22306622440897805 l -5.481196262468829 13.774596600134345" fill="#ffb610" stroke="none" /><path d="M 107.76421540070413 80.48803036053334 l 2.3809374269554744 -5.983447958439164 a27.439760282994015,27.439760282994015 0 0,0 0.43735858958790524,0.1784095501130962 l -2.483579886131767 5.941577522142489" fill="#ff4306" stroke="none" /><path d="M 108.09893153111575 80.62456947434976 l 5.085452693669257 -12.166152409007363 a34.18624637790238,34.18624637790238 0 0,0 0.5409830919789983,0.23162072722991822 l -5.294119543438571 12.076812153814656" fill="#ffa00e" stroke="none" /><path d="M 108.43124777332544 80.76684994638697 l 12.620457578885926 -28.789469943928996 a52.43420953599518,52.43420953599518 0 0,0 0.8235114242395658,0.3694855712744529 l -13.114151121592272 28.567964042138012" fill="#82ff25" stroke="none" /><path d="M 108.76106565485865 80.91482961587045 l 1.9176061459026699 -4.177327446908275 a25.59644187709329,25.59644187709329 0 0,0 0.3988434997803973,0.18726237105435162 l -1.9892278569826651 4.14370009321392" fill="#ff2904" stroke="none" /><path d="M 109.08828744355905 81.06846463323043 l 7.704057609746178 -16.048088268808534 a38.801506698528584,38.801506698528584 0 0,0 0.5996287527123678,0.2942352247968776 l -7.979157629468977 15.913097883876825" fill="#ffdc14" stroke="none" /><path d="M 109.41281617654863 81.2277094730956 l 8.657476023217503 -17.265890684496398 a40.314835547360104,40.314835547360104 0 0,0 0.6176607396165307,0.3163898209048692 l -8.953397250422789 17.11430833827903" fill="#ffef16" stroke="none" /><path d="M 109.73455568895987 81.39251694778311 l 12.603718259064667 -24.091851892782294 a48.18953919391864,48.18953919391864 0 0,0 0.7316892036904312,0.39084303260961223 l -13.01655250928341 23.871330133670927" fill="#b1ff20" stroke="none" /><path d="M 110.05341064243156 81.56283822128135 l 7.173241666164819 -13.155159157503446 a35.98377817709705,35.98377817709705 0 0,0 0.5412575576343026,0.3012092448163657 l -7.398623312871156 13.0297345151269" fill="#ffb811" stroke="none" /><path d="M 110.36928655335952 81.73862282372117 l 9.969751187769598 -17.5577544179767 a41.19085632032514,41.19085632032514 0 0,0 0.6135540214070898,0.3554100913707961 l -10.270501941642017 17.383540169215852" fill="#fffa17" stroke="none" /><line stroke="#e1ed5e" stroke-width="0.3" x1="143.23703022742887" x2="145.7803849466894" y1="26.81831364943548" y2="22.513508569990506" /><path d="M 143.74570117128098 25.957352633546492 a86.0,86.0 0 0,1 28.547481713284135,27.462654790039103" fill="none" id="id158" stroke="none" /><text fill="#e1ed5e" style="font-size:6.75px; font-family:Arial;" text-anchor="middle"><textPath startOffset="19.985693538727396" xlink:href="#id158">February</textPath></text><path d="M 110.68208982089419 81.91981866633111 l 2.059421735711239 -3.4857147850720294 a25.048632540548677,25.048632540548677 0 0,0 0.36933365828234005,0.22251939661260156 l -2.119117460211217 3.4497487790008132" fill="#ff2103" stroke="none" /><path d="M 110.99172775467656 82.1063720568725 l 14.554768507690133 -23.693964978722303 a48.80728794264855,48.80728794264855 0 0,0 0.7120770595371276,0.4459025893560743 l -14.960464719599525 23.439918048043285" fill="#aaff21" stroke="none" /><path d="M 111.60114157652 82.49532879139004 l 16.652711178718334 -25.12685773143106 a51.14418300530614,51.14418300530614 0 0,0 0.7296455779429735,0.492659951294773 l -17.08276145106785 24.836485867837617" fill="#90ff24" stroke="none" /><path d="M 111.90073688211348 82.69761687909136 l 2.662752369876036 -3.8713536914632303 a25.698683814398073,25.698683814398073 0 0,0 0.36231333481566247,0.25382364495825144 l -2.728996844275349 3.824945203741043" fill="#ff2b04" stroke="none" /><path d="M 112.19680574252982 82.90503203632743 l 6.178324927484305 -8.659502244609572 a31.637606781319384,31.637606781319384 0 0,0 0.44059839440733284,0.3201134713078047 l -6.3264686382454265 8.551869538485091" fill="#ff7e0b" stroke="none" /><path d="M 113.34407831869373 83.78471172551755 l 9.421276835757823 -11.448427996072471 a35.826562676400854,35.826562676400854 0 0,0 0.4728124677345852,0.395966844369068 l -9.616946840451524 11.284559994309584" fill="#ffb610" stroke="none" /><path d="M 113.6212207817346 84.01681056812373 l 9.618676852875353 -11.286589997106882 a35.829229857374024,35.829229857374024 0 0,0 0.4659611839885409,0.40407694709710895 l -9.811531835510658 11.119348056590102" fill="#ffb610" stroke="none" /><path d="M 113.89432698308785 84.25364557470407 l 12.83122639441035 -14.541549134659522 a40.393221032627096,40.393221032627096 0 0,0 0.5173967920658689,0.46452394849430034 l -13.07963417407221 14.318526177395924" fill="#fff016" stroke="none" /><path d="M 114.16331599549186 84.49514656593476 l 16.58851669522419 -18.159767114555812 a45.59585387423324,45.59585387423324 0 0,0 0.5749248875018644,0.5343300253552208 l -16.8986494665209 17.87153250312595" fill="#cfff1d" stroke="none" /><path d="M 114.42810811169701 84.74124197986012 l 15.465639105109078 -16.356021378877497 a43.51011835321567,43.51011835321567 0 0,0 0.5397673763533113,0.5192557883947536 l -15.744889725074808 16.08738250372044" fill="#e8ff1a" stroke="none" /><path d="M 114.68862486808459 84.99185889309783 l 2.0873789055847825 -2.1327848889827776 a23.984279155533812,23.984279155533812 0 0,0 0.2925673180209945,0.29131094097982485 l -2.1237820237730998 2.096538097352834" fill="#ff1202" stroke="none" /><path d="M 114.94478906791727 85.2469230424477 l 14.7686156898446 -14.579163535772553 a41.752446091897795,41.752446091897795 0 0,0 0.5005039409114351,0.5158133066477139 l -15.017383894459144 14.322786033574724" fill="#fdff18" stroke="none" /><path d="M 115.19652480421416 85.50635884689758 l 16.508270891207204 -15.744715152836303 a43.812695216949535,43.812695216949535 0 0,0 0.5158061890561106,0.550226078938579 l -16.776844402233777 15.458219657019669" fill="#e4ff1a" stroke="none" /><path d="M 115.4437574822437 85.77008943001954 l 13.938458979483233 -12.842925368999772 a39.95313617205434,39.95313617205434 0 0,0 0.46166107473726115,0.5097776893877201 l -14.15746369483653 12.601094892342504" fill="#ffeb16" stroke="none" /><path d="M 115.68641384162765 86.03803664274999 l 3.3360119754073034 -2.9692750318992633 a25.466046362849507,25.466046362849507 0 0,0 0.28862505889818707,0.32994833620694536 l -3.3866288978833388 2.9114111394893705" fill="#ff2703" stroke="none" /><path d="M 115.9244219780498 86.31012108654704 l 15.44657845361721 -13.279087237743989 a41.369853798968876,41.369853798968876 0 0,0 0.45957846728043344,0.5439959467494077 l -15.67286753438476 13.011232341365474" fill="#fffc17" stroke="none" /><path d="M 116.15771136456269 86.58626213691792 l 4.021110336347933 -3.338227720084092 a26.22619294020246,26.22619294020246 0 0,0 0.28536783971101437,0.3498272292125226 l -4.077976668135356 3.2685163212634687" fill="#ff3204" stroke="none" /><path d="M 116.38621287248628 86.86637796730983 l 49.158638617458855 -39.400866098070516 a84.0,84.0 0 0,0 0.8945836776241438,1.1360304241878465 l -49.829576375676965 38.54884327992963" fill="#4dd2ff" stroke="none" /><path d="M 116.60985879189232 87.15038557335679 l 8.598944461209259 -6.652261297765675 a31.871726000075263,31.871726000075263 0 0,0 0.3319577763238637,0.4368175219890453 l -8.712178177757236 6.503258999895596" fill="#ff810b" stroke="none" /><path d="M 117.04232023915458 87.72973835380427 l 8.47338031083093 -6.100729946544916 a31.44112444962932,31.44112444962932 0 0,0 0.3124459948482489,0.4419327017762243 l -8.57713892548306 5.953970744436898" fill="#ff7b0b" stroke="none" /><path d="M 117.2510076193507 88.02491185347247 l 12.540462656944918 -8.705181113403539 a36.265758476649225,36.265758476649225 0 0,0 0.35156291237202514,0.5158751933210796 l -12.688450034985676 8.488027896812053" fill="#ffbb11" stroke="none" /><path d="M 117.45458315368197 88.32363383020206 l 12.58561131993663 -8.419233215050152 a36.142030914838365,36.142030914838365 0 0,0 0.3414619304048489,0.5200699463630769 l -12.728669885699404 8.201345204709401" fill="#ffba11" stroke="none" /><path d="M 117.65298651832404 88.62581576622439 l 9.087903344397427 -5.8555240401178015 a31.81097354457532,31.81097354457532 0 0,0 0.29261915358866314,0.4628532283355307 l -9.187350094232045 5.6982231640680645" fill="#ff800b" stroke="none" /><line stroke="#e1ed5e" stroke-width="0.3" x1="172.23445277983987" x2="176.4835382374775" y1="55.19839476539836" y2="52.563006222186495" /><path d="M 173.08426987136738 54.67131705675599 a86.0,86.0 0 0,1 12.851231095245387,41.99856678651699" fill="none" id="id159" stroke="none" /><text fill="#e1ed5e" style="font-size:6.75px; font-family:Arial;" text-anchor="middle"><textPath startOffset="22.20632615414155" xlink:href="#id159">March</textPath></text><path d="M 118.03404312379186 89.2402003453031 l 27.320323204084822 -16.300349409151845 a52.813541941067996,52.813541941067996 0 0,0 0.45907624468083685,0.7847101139106777 l -27.596859123235987 15.827659882887271" fill="#7eff26" stroke="none" /><path d="M 118.21658344932153 89.55222093294921 l 21.858074916085926 -12.536288058056027 a46.197895890565604,46.197895890565604 0 0,0 0.3896954402562575,0.6932247048301353 l -22.070627997634617 12.158179843291096" fill="#c8ff1d" stroke="none" /><path d="M 118.3937258080291 89.86733742301442 l 17.6247825138209 -9.709070150830883 a41.122102321905686,41.122102321905686 0 0,0 0.3362062815133699,0.6229391787593644 l -17.789296894552734 9.40424998873906" fill="#fff917" stroke="none" /><path d="M 118.56541770881063 90.18545643968196 l 12.446141312474822 -6.5796093567659195 a35.07827023670643,35.07827023670643 0 0,0 0.27760369592385054,0.536241981043135 l -12.55755444155879 6.36439465346244" fill="#ffac0f" stroke="none" /><path d="M 118.73160827565052 90.50648371742162 l 9.487225111199766 -4.808296476429154 a31.636125014112068,31.636125014112068 0 0,0 0.242001272022444,0.48785979727946277 l -9.568586396175618 4.644277090650742" fill="#ff7e0b" stroke="none" /><path d="M 118.89224826269711 90.83032412892265 l 27.187022704664656 -13.195686539522804 a51.22019766304143,51.22019766304143 0 0,0 0.3781558074981049,0.7964925723455643 l -27.41013670600452 12.7257515515367" fill="#8fff24" stroke="none" /><path d="M 119.04729006885535 91.15688171328212 l 8.113627329362494 -3.7669277859751333 a29.94542863056486,29.94542863056486 0 0,0 0.2130370311878973,0.469398859093939 l -8.177266677513739 3.6267069180391314" fill="#ff6709" stroke="none" /><path d="M 119.196687751892 91.48605970444005 l 14.930927710159677 -6.622029212778757 a37.333519926240925,37.333519926240925 0 0,0 0.255484459413058,0.5896933569108203 l -15.042702879415415 6.364036711281334" fill="#ffc912" stroke="none" /><path d="M 119.34039704204932 91.81776055985345 l 15.024962233726182 -6.35653127018121 a37.31425695254582,37.31425695254582 0 0,0 0.24516943949558345,0.5936972444040568 l -15.132153360107962 6.096959455323851" fill="#ffc912" stroke="none" /><path d="M 119.47837535516314 92.15188598940014 l 9.23020122941081 -3.718979138062116 a30.95125221089075,30.95125221089075 0 0,0 0.19485500864371605,0.49588474314646414 l -9.292849787936225 3.5595453900198675" fill="#ff740a" stroke="none" /><path d="M 119.61058180528143 92.48833698450437 l 4.161427745352664 -1.5939987501035997 a25.456266699281226,25.456266699281226 0 0,0 0.1532169192699059,0.4105451689836769 l -4.188249253124195 1.5221304440905896" fill="#ff2703" stroke="none" /><path d="M 119.7369772167798 92.82701384747503 l 2.872197000612933 -1.0438391394202402 a24.05599668836789,24.05599668836789 0 0,0 0.13808934708724635,0.39039717952710845 l -2.889739428509989 0.9942443334665171" fill="#ff1302" stroke="none" /><path d="M 119.85752413597 93.16781622104841 l 5.9731183008815405 -2.0551122932349517 a27.316773604786814,27.316773604786814 0 0,0 0.14915310414041602,0.4459487968144142 l -6.007608698793726 1.9519903934982235" fill="#ff4206" stroke="none" /><path d="M 119.97218684219823 93.5106431181261 l 30.347090781710932 -9.86036751834595 a52.908819572498395,52.908819572498395 0 0,0 0.27397828518126677,0.8685860353425447 l -30.512324550660406 9.336531316576986" fill="#7dff26" stroke="none" /><path d="M 120.18372546131832 94.20196356495316 l 3.426554453293652 -0.9843221265045373 a24.565131900801564,24.565131900801564 0 0,0 0.11324903575142166,0.4074170367177001 l -3.442990259611437 0.9251937863678854" fill="#ff1a02" stroke="none" /><path d="M 120.37134235888165 94.90015583598534 l 14.377826347158036 -3.5994031466365946 a35.821524667895986,35.821524667895986 0 0,0 0.14459477792788203,0.5994387044178827 l -14.437653925346739 3.3513792105593057" fill="#ffb610" stroke="none" /><path d="M 120.45610955862082 95.25157060432595 l 14.559476050724063 -3.379657498741498 a35.94658582019343,35.94658582019343 0 0,0 0.13472371772200892,0.6039400098814266 l -14.61549415544811 3.1285393193101076" fill="#ffb711" stroke="none" /><path d="M 120.53481517161879 95.60439243477599 l 19.333109642780666 -4.138374867019216 a40.7710716704926,40.7710716704926 0 0,0 0.14099161576244268,0.6875251906108429 l -19.401480554458107 3.804974020244962" fill="#fff517" stroke="none" /><path d="M 120.6074358757038 95.95851677861258 l 61.799333356693374 -12.119944002760354 a83.97658807812441,83.97658807812441 0 0,0 0.26598295069220884,1.4208915582882664 l -61.99880203129545 11.054374367009524" fill="#4dd2ff" stroke="none" /><path d="M 120.73433829027371 96.67025291283417 l 19.73792275583351 -3.1697317697266714 a40.99081774733752,40.99081774733752 0 0,0 0.10588144218556257,0.6976264117463249 l -19.789560091458373 2.8295062455882647" fill="#fff717" stroke="none" /><path d="M 120.78858239683441 97.02765380044208 l 8.801537106912484 -1.2584415267287763 a29.891047774056375,29.891047774056375 0 0,0 0.06844196044428524,0.5099721025672972 l -8.821895066414605 1.1067510820968147" fill="#ff6609" stroke="none" /><path d="M 120.91429891909075 98.10471618934814 l 10.33299220765487 -0.9363905968123911 a31.375333985624508,31.375333985624508 0 0,0 0.04411299672672918,0.538290294189458 l -10.347579688201094 0.7583863854151643" fill="#ff7a0b" stroke="none" /><path d="M 120.94382443527127 98.46500227214037 l 10.579594828310714 -0.7753910501552643 a31.60797143717307,31.60797143717307 0 0,0 0.03509901016496149,0.5429661520623403 l -10.59137442948009 0.5931658338398887" fill="#ff7d0b" stroke="none" /><path d="M 120.96714384426684 98.82574320788733 l 4.460538330057616 -0.249810726222554 a25.467528130056824,25.467528130056824 0 0,0 0.020745595881771474,0.437906740453802 l -4.464177534172883 0.17299287914575223" fill="#ff2703" stroke="none" /><path d="M 120.98425023603335 99.18683210126433 l 12.166993715276561 -0.47148735847575113 a33.17612567267527,33.17612567267527 0 0,0 0.017201513957238394,0.5708345046817838 l -12.173306923689445 0.2619827063689683" fill="#ff930d" stroke="none" /><line stroke="#e1ed5e" stroke-width="0.3" x1="184.98032266829074" x2="189.97916517819016" y1="98.17113171792111" y2="98.06355123074" /><path d="M 185.9800911702706 98.14961562048488 a86.0,86.0 0 0,1 -9.607161424134198,41.387399972396054" fill="none" id="id160" stroke="none" /><text fill="#e1ed5e" style="font-size:6.75px; font-family:Arial;" text-anchor="middle"><textPath startOffset="21.466115282336823" xlink:href="#id160">April</textPath></text><path d="M 120.99513854157772 99.54816195383933 l 5.9464366630997345 -0.1279737363081595 a26.947813570165206,26.947813570165206 0 0,0 0.0059888216250042516,0.4638408347695694 l -5.947758491842454 0.02559664347812743" fill="#ff3c05" stroke="none" /><path d="M 120.99980553446 99.90962569577887 l 2.9932902165846893 -0.012881858368252423 a23.99331793549844,23.99331793549844 0 0,0 -0.00177745094028909,0.4130170009584867 l -2.993068468354897 -0.038644620793919005" fill="#ff1202" stroke="none" /><path d="M 120.99824983174949 100.27111621757518 l 14.830660928095229 0.19148418211910873 a35.83189703834719,35.83189703834719 0 0,0 -0.01327134519245388,0.6166672623437475 l -14.825167520217768 -0.44674126025297106" fill="#ffb610" stroke="none" /><path d="M 120.9904718944345 100.63252640178507 l 7.418804358692734 0.2235580815024708 a28.422171941444322,28.422171941444322 0 0,0 -0.01894522794840942,0.48889215212046605 l -7.413856997893121 -0.35122748063694303" fill="#ff5107" stroke="none" /><path d="M 120.9764740272857 100.99374915477107 l 22.212412881709213 1.0523010920668388 a43.23732501034885,43.23732501034885 0 0,0 -0.0416182912533831,0.7431225479158421 l -22.191008239568298 -1.4344953563181042" fill="#ebff1a" stroke="none" /><path d="M 120.95626037817324 101.35467743843564 l 2.9736273393463097 0.19222446153243483 a23.979833853911867,23.979833853911867 0 0,0 -0.03017284443227474,0.4116844898418767 l -2.969877936249697 -0.24338208787108181" fill="#ff1202" stroke="none" /><path d="M 120.92983693683757 101.71520430193887 l 22.161108061344077 1.8161072156108662 a43.23539871297934,43.23539871297934 0 0,0 -0.06717011133964611,0.7412165814378925 l -22.126563353727356 -2.197305185597329" fill="#ebff1a" stroke="none" /><path d="M 120.89721153311464 102.0752229133903 l 18.892953235459725 1.876187614491442 a39.98588322733602,39.98588322733602 0 0,0 -0.07391237901585124,0.6843368335518949 l -18.85785855494282 -2.2011207699281283" fill="#ffeb16" stroke="none" /><path d="M 120.8583938346157 102.4346265915055 l 4.427100486479979 0.5167385683246551 a25.457155759605612,25.457155759605612 0 0,0 -0.054549218478579055,0.43481094272909143 l -4.417549758754552 -0.5928672653411415" fill="#ff2703" stroke="none" /><path d="M 120.76222939487914 103.15116336523771 l 11.728710194704385 1.7801114313936885 a32.863028261769465,32.863028261769465 0 0,0 -0.08969767268285823,0.558547493419273 l -11.696330767660239 -1.9817381545061665" fill="#ff8e0d" stroke="none" /><path d="M 120.64145759157962 103.86396538481128 l 15.39093780393863 2.881097454012266 a36.65827860986715,36.65827860986715 0 0,0 -0.1214437571373922,0.61923910124615 l -15.339064113825573 -3.145600282326361" fill="#ffc111" stroke="none" /><path d="M 120.5718875245553 104.21870165774334 l 20.324590180592427 4.167988094698313 a41.74755626011365,41.74755626011365 0 0,0 -0.15042233215842346,0.7027230576712464 l -20.24983380970956 -4.517224971785729" fill="#fdff18" stroke="none" /><path d="M 120.49622156327973 104.57218783832717 l 14.031664457819657 3.1301089026315476 a35.37654997553908,35.37654997553908 0 0,0 -0.13769805592047996,0.5931996210124842 l -13.975705835968624 -3.371177180992597" fill="#ffb010" stroke="none" /><path d="M 120.41448212921028 104.9243191809786 l 1.7360337933798564 0.41876078234359654 a22.785825838256876,22.785825838256876 0 0,0 -0.09525417633534354,0.38049308465791337 l -1.7285683027494518 -0.4485817063989058" fill="#ff0000" stroke="none" /><path d="M 120.23288151984713 105.62410040840565 l 19.682574248614312 5.47113241193649 a41.42882813382004,41.42882813382004 0 0,0 -0.19690009966359798,0.6854350777952968 l -19.585481512064614 -5.809124965236369" fill="#fffd17" stroke="none" /><path d="M 120.02730092923936 106.31721596034902 l 59.91402256034486 18.898693383806705 a83.82396605577088,83.82396605577088 0 0,0 -0.4458945980466994,1.3723224637237135 l -59.57983571128191 -19.927214747508213" fill="#4dd4ff" stroke="none" /><path d="M 119.41010516605496 108.01547362559984 l 8.351721293884049 3.448873727719944 a30.035816430211113,30.035816430211113 0 0,0 -0.20145310825157914,0.476175639620575 l -8.29111720444016 -3.5921238930066828" fill="#ff6809" stroke="none" /><path d="M 119.26925614724726 108.34839909993367 l 11.124618066042867 4.819737240501915 a33.123819290257025,33.123819290257025 0 0,0 -0.2311710011779718,0.521229580294335 l -11.040005980133623 -5.010515157288938" fill="#ff920d" stroke="none" /><path d="M 119.12269723197855 108.67885076344098 l 23.45225420932566 10.643823508780134 a46.75459583035412,46.75459583035412 0 0,0 -0.33891601260830856,0.7299949397743798 l -23.26556357987752 -11.045938515833345" fill="#c1ff1e" stroke="none" /><path d="M 118.97047184881838 109.00673069616215 l 2.6929210522983467 1.278535130668748 a23.981019267677716,23.981019267677716 0 0,0 -0.18025360926012937,0.37137582443134837 l -2.670514186423503 -1.3246999110653719" fill="#ff1202" stroke="none" /><path d="M 118.81262510543309 109.33194174019688 l 14.827605907738262 7.355185876619161 a37.551636059157794,37.551636059157794 0 0,0 -0.2922256341185463,0.5765888995689841 l -14.698801603833447 -7.609328987890839" fill="#ffcc13" stroke="none" /><line stroke="#e1ed5e" stroke-width="0.3" x1="174.80103733775053" x2="179.2010983576182" y1="140.37084112569926" y2="142.7455964860345" /><path d="M 175.68104954172406 140.8457921977663 a86.0,86.0 0 0,1 -30.038265399797805,32.042727171017184" fill="none" id="id161" stroke="none" /><text fill="#e1ed5e" style="font-size:6.75px; font-family:Arial;" text-anchor="middle"><textPath startOffset="22.206326154141568" xlink:href="#id161">May</textPath></text><path d="M 118.30583269289576 110.29060199501025 l 19.393716716743732 10.902154700312437 a43.24799373424152,43.24799373424152 0 0,0 -0.37038406397703494,0.6457958353096227 l -19.203180656614318 -11.234370381480375" fill="#ebff1a" stroke="none" /><path d="M 118.12598468904814 110.60418214915192 l 15.358323905479482 8.985027130569167 a38.79350515560907,38.79350515560907 0 0,0 -0.3421570977865819,0.573474976729805 l -15.201385931994672 -9.248064201185075" fill="#ffdc14" stroke="none" /><path d="M 117.75023020441432 111.22182372390056 l 25.31213854816401 16.002516789433194 a50.946367083129495,50.946367083129495 0 0,0 -0.4750024239754422,0.7372143104302735 l -25.032931260811516 -16.435852699784924" fill="#92ff23" stroke="none" /><path d="M 117.55443506779139 111.5257021239791 l 17.940562614441138 11.779221594549442 a42.461916230760544,42.461916230760544 0 0,0 -0.4064149190806176,0.6075351609251831 l -17.735144589949797 -12.086293669680432" fill="#f5ff19" stroke="none" /><path d="M 117.14729908036423 112.12312394758627 l 21.946726330678242 15.516314394681682 a47.87777537349942,47.87777537349942 0 0,0 -0.48155969785641894,0.6688443019211497 l -21.67638684044622 -15.891792302053965" fill="#b5ff20" stroke="none" /><path d="M 116.93607887273984 112.41649034213515 l 12.137772817598115 8.89866775522146 a36.050309524705526,36.050309524705526 0 0,0 -0.3712130127081991,0.49730049328618375 l -11.982798538194825 -9.10628112801696" fill="#ffb911" stroke="none" /><path d="M 116.71984013943494 112.70617746262583 l 24.891942789906498 18.916535076917935 a52.26410266059534,52.26410266059534 0 0,0 -0.5504982482256524,0.7115931937423003 l -24.56263772446278 -19.342206264773488" fill="#84ff25" stroke="none" /><path d="M 116.27256486870786 113.27417163493432 l 2.3113220948454893 1.885436404041893 a23.982797388326496,23.982797388326496 0 0,0 -0.26370113574796517,0.3176450055468705 l -2.278524959203981 -1.9249426667025338" fill="#ff1202" stroke="none" /><path d="M 116.0416608686014 113.55231037782055 l 14.162736138622936 11.964957838341835 a39.54031582809618,39.54031582809618 0 0,0 -0.443712933277522,0.5161383845174798 l -13.954680695774636 -12.206973322020843" fill="#ffe515" stroke="none" /><path d="M 115.80600337817218 113.82643327865902 l 15.631722755366905 13.673979850342796 a41.7684491777368,41.7684491777368 0 0,0 -0.4780322439896276,0.5370742937073715 l -15.394031661728938 -13.941028313791033" fill="#fdff18" stroke="none" /><path d="M 115.56566222782051 114.09645910891815 l 17.757613007051475 16.08151725009799 a44.957212207880175,44.957212207880175 0 0,0 -0.5244014579437537,0.5691342120521455 l -17.478165141112 -16.38480271695147" fill="#d7ff1c" stroke="none" /><path d="M 115.32070863581623 114.36230785411682 l 25.27718014569132 23.695943286049364 a55.64727354833854,55.64727354833854 0 0,0 -0.6611252468539576,0.6931871781824694 l -24.8655483474584 -24.12753758081434" fill="#60ff29" stroke="none" /><path d="M 114.81725581225074 114.88116024355365 l 8.378722392986589 8.41485846948775 a32.87488239942799,32.87488239942799 0 0,0 -0.4044394015967802,0.39582907767275793 l -8.232633039014013 -8.557837650083082" fill="#ff8f0d" stroke="none" /><path d="M 114.29624159901734 115.38237550388516 l 10.241815537963086 11.019920960016696 a36.04438245587626,36.04438245587626 0 0,0 -0.4581077103172399,0.41847053174582366 l -10.050608278178983 -11.194584258349103" fill="#ffb911" stroke="none" /><path d="M 114.0293411484842 115.62618273729858 l 11.780979919098606 13.121909510352875 a38.63451153426411,38.63451153426411 0 0,0 -0.4986752282419489,0.44002290894893137 l -11.55336233795007 -13.322755561074096" fill="#ffda14" stroke="none" /><path d="M 113.75828350139079 115.86535959552629 l 11.659081282459159 13.444665323329442 a38.795875983140775,38.795875983140775 0 0,0 -0.5082897547332103,0.4331755560943745 l -11.4259260511489 -13.643365269646763" fill="#ffdc14" stroke="none" /><path d="M 113.48314897796784 116.09983520530334 l 6.048846187995298 7.2227509291846 a30.421075904113195,30.421075904113195 0 0,0 -0.4043538574593957,0.3327556964186227 l -5.92362220199121 -7.325801744460401" fill="#ff6d0a" stroke="none" /><path d="M 113.20401910651253 116.32954008644616 l 39.599106965871705 48.97260442979334 a83.97940343581831,83.97940343581831 0 0,0 -1.1318924242178625,0.8992437978474732 l -38.75025704893649 -49.64698214164594" fill="#4dd2ff" stroke="none" /><line stroke="#e1ed5e" stroke-width="0.3" x1="143.8653032363475" x2="146.44561519142675" y1="172.8068346515853" y2="177.08958963109032" /><path d="M 144.38136562736335 173.6633856474863 a86.0,86.0 0 0,1 -40.68145358897372,12.25698825130547" fill="none" id="id162" stroke="none" /><text fill="#e1ed5e" style="font-size:6.75px; font-family:Arial;" text-anchor="middle"><textPath startOffset="21.466115282336833" xlink:href="#id162">June</textPath></text><path d="M 110.5260780823613 118.17145234162733 l 5.201293945742115 8.979133948115766 a31.37681575283182,31.37681575283182 0 0,0 -0.469682891523287,0.2666982037774148 l -5.045962287297629 -9.06733531768781" fill="#ff7a0b" stroke="none" /><path d="M 110.21172684928248 118.3499491758327 l 5.766505238503915 10.362114029338217 a32.858582960147515,32.858582960147515 0 0,0 -0.49659831742249294,0.2707849976752686 l -5.587284109212773 -10.459839678773257" fill="#ff8e0d" stroke="none" /><path d="M 109.89434966115114 118.52300852407294 l 7.478429329134747 14.000213753727772 a36.87239397132427,36.87239397132427 0 0,0 -0.5624077730782077,0.2942251658416252 l -7.236330653530044 -14.126868338514114" fill="#ffc312" stroke="none" /><path d="M 109.57404056367764 118.69057910512821 l 4.7314001970904735 9.236707226543174 a31.378001166597674,31.378001166597674 0 0,0 -0.4828418315100867,0.2421069179511552 l -4.571704457897626 -9.316781985403631" fill="#ff7a0b" stroke="none" /><path d="M 109.2508944713604 118.85261126421891 l 4.577056977466256 9.327690008516845 a31.390151657697665,31.390151657697665 0 0,0 -0.4871263226092935,0.2338502374703355 l -4.415817986856729 -9.40509452248674" fill="#ff7a0b" stroke="none" /><path d="M 108.59647513512805 119.15986991738527 l 12.795599126147275 28.51890000474464 a52.25787923832461,52.25787923832461 0 0,0 -0.823881114382909,0.3611652689113663 l -12.302797337106611 -28.734929826950463" fill="#84ff25" stroke="none" /><path d="M 108.2653958097858 119.30500536409082 l 10.6166229990624 24.796630271810418 a47.97379388853347,47.97379388853347 0 0,0 -0.7619347360958185,0.3184887814827889 l -10.188216803469121 -24.975704096313184" fill="#b3ff20" stroke="none" /><path d="M 107.93186726928326 119.44442032107085 l 1.6952564133701733 4.1558030580281375 a25.488272870959243,25.488272870959243 0 0,0 -0.4076654126404325,0.16221848094489946 l -1.6234699246878745 -4.184368383379105" fill="#ff2803" stroke="none" /><path d="M 107.59598834532513 119.57807347666477 l 6.975400128048159 17.97855526201685 a40.28431114288939,40.28431114288939 0 0,0 -0.6486345349318854,0.24525807966035035 l -6.664895372355999 -18.09596159178383" fill="#ffef16" stroke="none" /><path d="M 107.2578585660854 119.70592522655815 l 1.0314036205991044 2.8003800901964473 a23.984279155533812,23.984279155533812 0 0,0 -0.38863719281067327,0.1393514702928909 l -0.9830468671586964 -2.8177191015292986" fill="#ff1202" stroke="none" /><path d="M 106.91757812671514 119.82793768551818 l 10.029274525109177 28.747030632995504 a51.4463153388778,51.4463153388778 0 0,0 -0.8386490890168417,0.28451530469307357 l -9.532955703155107 -28.9154089245867" fill="#8cff24" stroke="none" /><path d="M 106.57524785965236 119.94407469862006 l 2.320222679937447 7.037711039010387 a28.410317803785798,28.410317803785798 0 0,0 -0.46576504757268017,0.14912325985735073 l -2.1987362872738263 -7.076607145527444" fill="#ff5107" stroke="none" /><path d="M 106.2309692047433 120.05430185196036 l 3.974696167060647 12.792513345016255 a34.39576826101682,34.39576826101682 0 0,0 -0.5669160080234203,0.17080714273453038 l -3.753905184596981 -12.859035856856512" fill="#ffa30f" stroke="none" /><path d="M 105.88484417918355 120.15858648285463 l 5.816551595592849 19.924649625644292 a41.75629868663681,41.75629868663681 0 0,0 -0.6917007070664539,0.19548152902859417 l -5.4727197204217894 -20.021819948011405" fill="#fdff18" stroke="none" /><path d="M 105.53697534728816 120.25689768951611 l 3.6920288237971635 13.50720302322333 a35.00270010913333,35.00270010913333 0 0,0 -0.5825608674069115,0.15385961989549485 l -3.4589775135787546 -13.568753992422408" fill="#ffab0f" stroke="none" /><path d="M 105.18746579009965 120.34920634021253 l 5.545308299784844 21.75293821267728 a43.44862501411207,43.44862501411207 0 0,0 -0.7263093854108569,0.1785091759144358 l -5.170045629630776 -21.845168646905744" fill="#e9ff1a" stroke="none" /><path d="M 104.83641907484287 120.43548508189849 l 0.6835425577825888 2.8881954864224975 a23.96797971625334,23.96797971625334 0 0,0 -0.40229666236856615,0.09156141058960227 l -0.6337257460211606 -2.8995336305897843" fill="#ff1101" stroke="none" /><path d="M 104.48393922423573 120.51570834832081 l 6.463401471663747 29.572492600713694 a51.27057774809016,51.27057774809016 0 0,0 -0.8638080087963443,0.18101936689122694 l -5.9534020014380244 -29.67936794833146" fill="#8eff24" stroke="none" /><path d="M 104.13013068566511 120.58985236759428 l 6.14926769456419 30.655813008373148 a52.26647348812704,52.26647348812704 0 0,0 -0.8836328933530722,0.1693503470751275 l -5.620667186639413 -30.757120553796742" fill="#84ff25" stroke="none" /><path d="M 103.7750983002368 120.6578951692458 l 2.664334973125351 14.579634275252179 a35.82108013773379,35.82108013773379 0 0,0 -0.6075102159064767,0.1056234381448299 l -2.4129757857468244 -14.623336291918013" fill="#ffb610" stroke="none" /><path d="M 103.41894727170886 120.7198165907248 l 4.125239788475721 25.000155023524396 a46.33821924509841,46.33821924509841 0 0,0 -0.7881119075521317,0.12308687161964324 l -3.694292017315072 -25.067460202491148" fill="#c6ff1e" stroke="none" /><path d="M 103.06178313531738 120.77559828337769 l 2.9366596971090937 19.926578554297215 a41.14180982576299,41.14180982576299 0 0,0 -0.7015098002587836,0.09722286614400959 l -2.5932213056634796 -19.974175985933826" fill="#fff917" stroke="none" /><path d="M 102.34483914955558 120.86867818915974 l 2.992757262228555 26.635041561616447 a47.80264977608851,47.80264977608851 0 0,0 -0.818489269302853,0.08483975936395323 l -2.5338353963200992 -26.68261068943616" fill="#b5ff1f" stroke="none" /><path d="M 101.98527174616119 120.90594882070398 l 1.9087499162584478 20.100133968048805 a41.19055996688368,41.19055996688368 0 0,0 -0.7064292489276635,0.06095368809673637 l -1.5624763495892426 -20.130011908424205" fill="#fffa17" stroke="none" /><path d="M 101.62511606390274 120.93702456842531 l 1.6542113473634528 21.311870819824417 a42.375973732736234,42.375973732736234 0 0,0 -0.7277311512513601,0.05018860092702691 l -1.2871174353331625 -21.33718776526773" fill="#f6ff19" stroke="none" /><path d="M 100.90346689309514 120.98055641714683 l 0.5563624470420079 12.920001604660317 a33.93197512512701,33.93197512512701 0 0,0 -0.5837586685804921,0.020105828870606045 l -0.33388342678686356 -12.927664231957017" fill="#ff9d0e" stroke="none" /><line stroke="#e1ed5e" stroke-width="0.3" x1="102.19456741930631" x2="102.32365962044197" y1="184.97166512339345" y2="189.96999836594603" /><path d="M 102.22038585953345 185.97133177190398 a86.0,86.0 0 0,1 -42.740103519485714,-10.115201625700543" fill="none" id="id163" stroke="none" /><text fill="#e1ed5e" style="font-size:6.75px; font-family:Arial;" text-anchor="middle"><textPath startOffset="22.20632615414155" xlink:href="#id163">July</textPath></text><path d="M 100.54218724476979 120.99299961872073 l 0.5100909657374805 19.75026073102556 a40.75684670530237,40.75684670530237 0 0,0 -0.7014841577219755,0.01207668593588337 l -0.17004711812283707 -19.7561148942406" fill="#fff517" stroke="none" /><path d="M 100.18074693466247 120.99922214144158 l 0.08947008975775983 10.394656447958578 a31.395041489481805,31.395041489481805 0 0,0 -0.5404340488404233,0.0 l 0.08947008975775267 -10.394656447958578" fill="#ff7b0b" stroke="none" /><path d="M 99.81925306533755 120.99922214144158 l -0.237943276069504 27.644306779405472 a48.64533078688895,48.64533078688895 0 0,0 -0.8372563545184233,-0.014414127432581456 l 0.7137593204805952 -27.636115174693728" fill="#acff21" stroke="none" /><path d="M 99.45781275523022 120.99299961872073 l -0.49810124761351243 19.286029691965208 a40.29246086252964,40.29246086252964 0 0,0 -0.693183147170377,-0.023874629162913493 l 0.8300047464585325 -19.274598264376202" fill="#ffef16" stroke="none" /><path d="M 98.73552117531835 120.96189622390904 l -1.296985395152075 21.50077385752051 a42.53985718586535,42.53985718586535 0 0,0 -0.7305455548747178,-0.050382698678727335 l 1.666893710805723 -21.475262814325497" fill="#f4ff19" stroke="none" /><path d="M 98.37488393609728 120.93702456842531 l -1.836695191685785 23.662883659327296 a44.73405806645843,44.73405806645843 0 0,0 -0.767201200148325,-0.06619734776308972 l 2.243740709575652 -23.627762059285544" fill="#d9ff1c" stroke="none" /><path d="M 98.01472825383883 120.90594882070398 l -1.8270824275472437 19.24013263945842 a40.32668968501862,40.32668968501862 0 0,0 -0.6904839570254356,-0.07157148536424777 l 2.1579989811782725 -19.205831785638413" fill="#ffef16" stroke="none" /><path d="M 97.65516085044442 120.86867818915974 l -0.33189802623963954 2.9538371971165134 a23.97242501787529,23.97242501787529 0 0,0 -0.409668854374869,-0.04960519306299983 l 0.38269430366589785 -2.947686475328165" fill="#ff1101" stroke="none" /><path d="M 97.2962882734958 120.8252237178851 l -3.818739719082888 29.41367905116842 a50.66053418883829,50.66053418883829 0 0,0 -0.8638137546773828,-0.11971671530942117 l 4.324482064947102 -29.34358777036639" fill="#95ff23" stroke="none" /><path d="M 96.93821686468263 120.77559828337769 l -1.24190863517752 8.426917834738033 a29.51793879125428,29.51793879125428 0 0,0 -0.5020356722111898,-0.0784076471143186 l 1.386780170997227 -8.40429188027661" fill="#ff6108" stroke="none" /><path d="M 96.58105272829116 120.7198165907248 l -7.23943396563552 43.87307907023063 a65.46635212433674,65.46635212433674 0 0,0 -1.1102813639550226,-0.19303664678967988 l 7.993564301062593 -43.741963844919944" fill="#36ff6c" stroke="none" /><path d="M 96.22490169976321 120.6578951692458 l -2.1325760869841415 11.669771153401614 a32.863028261769465,32.863028261769465 0 0,0 -0.5555923483892293,-0.10648059588972694 l 2.333136049945066 -11.631333359163419" fill="#ff8e0d" stroke="none" /><path d="M 95.86986931433489 120.58985236759428 l -4.224474166875303 21.060180911120774 a42.47969743724833,42.47969743724833 0 0,0 -0.7156990318664123,-0.14998169073895426 l 4.586364660171102 -20.984343239655278" fill="#f4ff19" stroke="none" /><line stroke="#e1ed5e" stroke-width="0.3" x1="58.666819895761336" x2="56.23545636021788" y1="174.27360380694188" y2="178.64263932499728" /><path d="M 58.180547188652646 175.14741091055294 a86.0,86.0 0 0,1 -31.652253787137756,-30.449443065178592" fill="none" id="id164" stroke="none" /><text fill="#e1ed5e" style="font-size:6.75px; font-family:Arial;" text-anchor="middle"><textPath startOffset="22.20632615414155" xlink:href="#id164">August</textPath></text><line stroke="#e1ed5e" stroke-width="0.3" x1="26.63291911575756" x2="22.317208475507996" y1="142.92168965132927" y2="145.44649492493687" /><path d="M 25.769776987707644 143.4266507060508 a86.0,86.0 0 0,1 -11.730757126820373,-40.83630448921669" fill="none" id="id165" stroke="none" /><text fill="#e1ed5e" style="font-size:6.75px; font-family:Arial;" text-anchor="middle"><textPath startOffset="21.46611528233685" xlink:href="#id165">September</textPath></text><line stroke="#e1ed5e" stroke-width="0.3" x1="15.007084014347285" x2="10.007500721073583" y1="101.09737516637583" y2="101.16192664675087" /><path d="M 14.007167355692545 101.11028546245083 a86.0,86.0 0 0,1 10.666146001902534,-42.60595125391555" fill="none" id="id166" stroke="none" /><text fill="#e1ed5e" style="font-size:6.75px; font-family:Arial;" text-anchor="middle"><textPath startOffset="22.20632615414155" xlink:href="#id166">October</textPath></text><line stroke="#e1ed5e" stroke-width="0.3" x1="26.266209847984243" x2="21.928928074336255" y1="57.711370442889674" y2="55.22380399835377" /><path d="M 25.398753493254645 57.213857153982495 a86.0,86.0 0 0,1 29.58750427330803,-30.492523968695096" fill="none" id="id167" stroke="none" /><text fill="#e1ed5e" style="font-size:6.75px; font-family:Arial;" text-anchor="middle"><textPath startOffset="21.46611528233685" xlink:href="#id167">November</textPath></text><line stroke="#e1ed5e" stroke-width="0.3" x1="56.762969772571076" x2="54.21961505331055" y1="26.818313649435495" y2="22.513508569990535" /><path d="M 56.25429882871897 25.957352633546506 a86.0,86.0 0 0,1 42.265352541879196,-11.944610805530505" fill="none" id="id168" stroke="none" /><text fill="#e1ed5e" style="font-size:6.75px; font-family:Arial;" text-anchor="middle"><textPath startOffset="22.20632615414155" xlink:href="#id168">December</textPath></text></svg>