<?xml version="1.0" encoding="utf-8" ?>
<svg baseProfile="full" height="200mm" version="1.1" viewBox="0,0,200,200" width="200mm" xmlns="http://www.w3.org/2000/svg" xmlns:ev="http://www.w3.org/2001/xml-events" xmlns:xlink="http://www.w3.org/1999/xlink"><defs /><rect fill="#1a1a1a" height="200" width="200" x="0" y="0" /><text alignment-baseline="middle" fill="#e1ed5e" style="dominant-baseline: central; font-size:9.0px; font-family:Arial;" text-anchor="middle" x="100.0" y="100.0">2022</text><line stroke="#e1ed5e" stroke-width="0.3" x1="100.0" x2="100.0" y1="15.0" y2="10.0" /><path d="M 100.0 14.0 a86.0,86.0 0 0,1 42.46469731375804,11.215312516191453" fill="none" id="id109" stroke="none" /><text fill="#e1ed5e" style="font-size:6.75px; font-family:Arial;" text-anchor="middle"><textPath startOffset="22.20632615414155" xlink:href="#id109">January</textPath></text><path d="M 100.0 79.0 l 0.0 -3.3263606929312495 a24.32636069293125,24.32636069293125 0 0,0 0.41873831058272304,0.0036042128395882005 l -0.05725783131019465 3.3258678567002202" fill="#ff0a01" stroke="none" /><path d="M 100.36148047927253 79.00311137660856 l 0.7699244600388025 -44.7216905554438 a65.72831753834518,65.72831753834518 0 0,0 1.1310696796100943,0.029212192843731607 l -1.5396207748437647 44.70181157045771" fill="#36ff6c" stroke="none" /><path d="M 100.72285384407766 79.0124445844662 l 1.0362385667849567 -30.08646149189748 a51.104301278566865,51.104301278566865 0 0,0 0.8788946148139062,0.03784705091781976 l -1.5539740139881943 30.064166714455467" fill="#95ff23" stroke="none" /><path d="M 101.08401301168833 79.027996857942 l 1.1594069069946789 -22.430621251073248 a43.46056531089736,43.46056531089736 0 0,0 0.7467724449074494,0.04504735322390494 l -1.54534140074174 22.40734062846904" fill="#efff19" stroke="none" /><path d="M 101.44485096284872 79.0497635885617 l 1.641768376706302 -23.80552493594572 a44.86207075839577,44.86207075839577 0 0,0 0.7699395441355557,0.05976212700707972 l -2.0512981102041987 23.773737546750176" fill="#deff1b" stroke="none" /><path d="M 101.80526077348638 79.07773832637324 l 0.29659897362985244 -3.437465339940113 a24.45023751565713,24.45023751565713 0 0,0 0.4190012437409739,0.03978921683676877 l -0.35572534446107057 3.431850578588166" fill="#ff0c01" stroke="none" /><path d="M 102.16513564639614 79.11191278185805 l 3.3844181771318613 -32.651082247094074 a53.82601800864982,53.82601800864982 0 0,0 0.9207665660091509,0.1034588521615914 l -3.9459514466507373 32.58798744146188" fill="#77ff27" stroke="none" /><path d="M 102.52436894288641 79.15227682838746 l 3.7769243843061684 -31.192062565187154 a52.419896958381585,52.419896958381585 0 0,0 0.8948457615579122,0.11617666209553568 l -4.313284874371927 31.122427579927482" fill="#87ff25" stroke="none" /><path d="M 102.88285421437855 79.19881850522331 l 3.4811726777309486 -25.118337348789147 a46.35841939829366,46.35841939829366 0 0,0 0.7894861331013211,0.11634973370805765 l -3.9130277912609257 25.05469313092012" fill="#ccff1d" stroke="none" /><path d="M 103.2404852339499 79.25152402106235 l 3.4567881785477375 -22.133440305620027 a43.40175359818495,43.40175359818495 0 0,0 0.737149424325217,0.12163597115365601 l -3.8372668090118296 22.070658071526747" fill="#f0ff19" stroke="none" /><path d="M 103.59715602781102 79.31037775812273 l 0.5316289372040808 -3.057749455003888 a24.10362063668376,24.10362063668376 0 0,0 0.40816024273759755,0.07458867546568093 l -0.5841843010445792 3.0481452981874684" fill="#ff0701" stroke="none" /><path d="M 103.95276090670814 79.375362276772 l 5.917146594850052 -30.87437053602339 a52.4362749036939,52.4362749036939 0 0,0 0.8850084375373855,0.17752436684288572 l -6.447721441854562 30.767942213103296" fill="#87ff25" stroke="none" /><path d="M 104.307194497241 79.44645832069477 l 6.445095165815784 -30.755409861926918 a52.4234703282679,52.4234703282679 0 0,0 0.8816061891214024,0.19268496630066306 l -6.973544079090714 30.639911397530383" fill="#87ff25" stroke="none" /><path d="M 104.66035177308747 79.52364482259891 l 6.975460514248982 -30.648331707602633 a52.43210597215986,52.43210597215986 0 0,0 0.8783034725560308,0.20786605510692774 l -7.501987673767537 30.52371974035484" fill="#87ff25" stroke="none" /><path d="M 105.01212808612495 79.60689891045804 l 5.371030713878833 -21.853386509890388 a43.5037435303571,43.5037435303571 0 0,0 0.7256654603624019,0.1849882834618518 l -5.74640506292626 21.75769523025967" fill="#efff19" stroke="none" /><path d="M 105.36241919743992 79.69619591428918 l 0.8172705532685132 -3.0944431212140944 a24.200548294850282,24.200548294850282 0 0,0 0.40184677487418186,0.10983990342297723 l -0.8704152173664059 3.0799166769648236" fill="#ff0801" stroke="none" /><path d="M 105.71112130821622 79.79150937346287 l 8.55105206495256 -30.257430402156423 a52.442528300994965,52.442528300994965 0 0,0 0.8665747775124416,0.2529769406009036 l -9.070617060188429 30.105755132636816" fill="#87ff25" stroke="none" /><path d="M 106.0581310904928 79.89281104454417 l 9.894613374607262 -32.84063315774587 a55.29884196346276,55.29884196346276 0 0,0 0.9090461484736043,0.28244506334065844 l -10.458444895791585 32.66544795952269" fill="#67ff28" stroke="none" /><path d="M 106.40334571778207 80.00007090966166 l 8.185637768027497 -25.566661888193416 a47.84509016141611,47.84509016141611 0 0,0 0.7821924439892599,0.25787655085008326 l -8.624513034259174 25.421971613084096" fill="#bbff1f" stroke="none" /><path d="M 106.74666289553966 80.11325718540242 l 7.238428019790436 -21.336290050406475 a43.53069269491645,43.53069269491645 0 0,0 0.7075147043983989,0.24683798794921294 l -7.604624728252108 21.208531209285056" fill="#efff19" stroke="none" /><path d="M 107.08798089147638 80.2323363322302 l 1.1103101870556036 -3.09654310312934 a24.289584761184507,24.289584761184507 0 0,0 0.3923550690780418,0.14450768316208024 l -1.1634475819062218 3.076972152160935" fill="#ff0a01" stroke="none" /><path d="M 107.4271985657038 80.35727306442388 l 11.115468877482252 -29.397102822790742 a52.428383711861606,52.428383711861606 0 0,0 0.8413927591787909,0.32644731874056765 l -11.61984480166071 29.201412800159627" fill="#87ff25" stroke="none" /><path d="M 107.76421540070413 80.48803036053334 l 12.392229456168398 -31.14246481262404 a54.51746508165339,54.51746508165339 0 0,0 0.8689464262848204,0.3544650652269816 l -12.926459752041607 30.92453886121348" fill="#70ff27" stroke="none" /><path d="M 108.09893153111575 80.62456947434976 l 13.263237338811587 -31.730226711516735 a55.39070734762366,55.39070734762366 0 0,0 0.8765348437666033,0.37528647561403833 l -13.807455940368504 31.497220707939906" fill="#67ff29" stroke="none" /><path d="M 108.43124777332544 80.76684994638697 l 15.189337310935217 -34.6495336835458 a58.832607000212704,58.832607000212704 0 0,0 0.9240021812326967,0.4145728447020136 l -15.783521610634693 34.38294050832725" fill="#43ff2d" stroke="none" /><path d="M 108.76106565485865 80.91482961587045 l 1.373076995017965 -2.9911211070440573 a24.291222555715738,24.291222555715738 0 0,0 0.3785055854476598,0.17771344757347332 l -1.424360791765223 2.967042676830581" fill="#ff0a01" stroke="none" /><path d="M 109.08828744355905 81.06846463323043 l 14.194572017967392 -29.56828157594806 a53.79891995367854,53.79891995367854 0 0,0 0.8313950156559283,0.4079619234734539 l -14.701438300633752 29.319564492339776" fill="#78ff26" stroke="none" /><path d="M 109.41281617654863 81.2277094730956 l 16.77716080817889 -33.459246520971455 a58.429858435941675,58.429858435941675 0 0,0 0.895199722068472,0.4585560673893159 l -17.35062101783612 33.16549792826964" fill="#47ff2c" stroke="none" /><path d="M 109.73455568895987 81.39251694778311 l 13.828760778456424 -26.43350554870409 a50.83227849597051,50.83227849597051 0 0,0 0.7718154187948861,0.4122770670595808 l -14.28172124377962 26.191549755142756" fill="#99ff23" stroke="none" /><path d="M 110.05341064243156 81.56283822128135 l 10.787559333000631 -19.78353254373325 a43.53352161274313,43.53352161274313 0 0,0 0.6548186093013088,0.36440584711911267 l -11.126502031373976 19.59491129905396" fill="#eeff19" stroke="none" /><path d="M 110.36928655335952 81.73862282372117 l 1.5962324792371752 -2.8111291181294122 a24.232708623827193,24.232708623827193 0 0,0 0.36095573517851254,0.2090888598959896 l -1.6443849468810159 2.783236100843373" fill="#ff0901" stroke="none" /><line stroke="#e1ed5e" stroke-width="0.3" x1="143.23703022742887" x2="145.7803849466894" y1="26.81831364943548" y2="22.513508569990506" /><path d="M 143.74570117128098 25.957352633546492 a86.0,86.0 0 0,1 28.547481713284135,27.462654790039103" fill="none" id="id110" stroke="none" /><text fill="#e1ed5e" style="font-size:6.75px; font-family:Arial;" text-anchor="middle"><textPath startOffset="19.985693538727396" xlink:href="#id110">February</textPath></text><path d="M 110.68208982089419 81.91981866633111 l 17.44129557006398 -29.52060803533623 a55.287972963391866,55.287972963391866 0 0,0 0.8152025576857037,0.49115041964196193 l -17.94686019396732 29.216011006235654" fill="#68ff28" stroke="none" /><path d="M 110.99172775467656 82.1063720568725 l 16.758170027053502 -27.28092126774023 a53.01694751022145,53.01694751022145 0 0,0 0.7734941579436607,0.48436197074383 l -17.225283337369426 26.988414955673456" fill="#80ff25" stroke="none" /><path d="M 111.2981086023043 82.29822771554956 l 16.91576220930497 -26.50346010888558 a52.44163495852338,52.44163495852338 0 0,0 0.7567402197245908,0.49220488900753634 l -17.369469454813842 26.208356295718517" fill="#87ff25" stroke="none" /><path d="M 111.60114157652 82.49532879139004 l 12.363264168637157 -18.654618850199387 a43.379568926807366,43.379568926807366 0 0,0 0.6188721528161588,0.41786524016723303 l -12.682541015859856 18.439041697733487" fill="#f0ff19" stroke="none" /><path d="M 111.90073688211348 82.69761687909136 l 2.1733688035082275 -3.159842963829306 a24.835119230496538,24.835119230496538 0 0,0 0.35013835470844124,0.24529429334142125 l -2.2274382978003198 3.121963827723949" fill="#ff1202" stroke="none" /><path d="M 112.19680574252982 82.90503203632743 l 18.29451680905902 -25.64148231624332 a52.49880887670456,52.49880887670456 0 0,0 0.7311201210399781,0.531189861015968 l -18.733182246452785 25.322773220410674" fill="#86ff25" stroke="none" /><path d="M 112.48926042617603 83.11751280151076 l 18.696965663977146 -25.273817079762303 a52.437912698225134,52.437912698225134 0 0,0 0.721030903833078,0.5430655282287922 l -19.12924272156861 24.948234962027666" fill="#87ff25" stroke="none" /><path d="M 112.77801427241765 83.33499621200491 l 18.179249166439654 -23.709259495474242 a50.87664783872569,50.87664783872569 0 0,0 0.6903899207931025,0.538860283962483 l -18.584671642392184 23.392820822288535" fill="#98ff23" stroke="none" /><path d="M 113.06298171725822 83.55741782278167 l 14.355788708943765 -18.06985883274545 a44.07831162999551,44.07831162999551 0 0,0 0.5900125522003334,0.4770824512566468 l -14.664704659708589 17.820070284224673" fill="#e8ff1a" stroke="none" /><path d="M 113.34407831869373 83.78471172551755 l 1.971856972927101 -2.396136210267034 a24.103173965447972,24.103173965447972 0 0,0 0.31809585713748234,0.266396132405519 l -2.0128103670237008 2.3618389204676955" fill="#ff0701" stroke="none" /><path d="M 113.6212207817346 84.01681056812373 l 20.616095743194045 -24.191000857355345 a52.784082905962705,52.784082905962705 0 0,0 0.6864600178267497,0.5952913629700141 l -21.029449559667558 23.83254450096566" fill="#83ff25" stroke="none" /><path d="M 113.89432698308785 84.25364557470407 l 27.647224934161507 -31.332428207504055 a62.78624299860562,62.78624299860562 0 0,0 0.8042290236549101,0.7220447580864294 l -28.182464945412406 30.851884440648327" fill="#32ff48" stroke="none" /><path d="M 114.16331599549186 84.49514656593476 l 18.112328193161943 -19.82791276238211 a47.85521470942737,47.85521470942737 0 0,0 0.6034135035410119,0.5608070891620706 l -18.450949580497802 19.513201087145397" fill="#bbff1f" stroke="none" /><path d="M 114.42810811169701 84.74124197986012 l 15.383514632580987 -16.269168865426902 a43.39058681729019,43.39058681729019 0 0,0 0.5382845207330574,0.5178292824629344 l -15.661282396926461 16.001956496201664" fill="#f0ff19" stroke="none" /><path d="M 114.68862486808459 84.99185889309783 l 2.3234222636563255 -2.3739628111572384 a24.321745090161414,24.321745090161414 0 0,0 0.2966838271216929,0.29540977248222255 l -2.363941890945341 2.3336171880248973" fill="#ff0a01" stroke="none" /><path d="M 114.94478906791727 85.2469230424477 l 24.403806036359732 -24.090753430872546 a55.29154633327819,55.29154633327819 0 0,0 0.6628027679619736,0.6830765143929597 l -24.814873068024813 23.667112720929474" fill="#68ff28" stroke="none" /><path d="M 115.19652480421416 85.50635884689758 l 23.224576661883432 -22.15037216776762 a53.09392385318933,53.09392385318933 0 0,0 0.6250739514914436,0.6667853094301799 l -23.60241793534534 21.747317441459387" fill="#7fff26" stroke="none" /><path d="M 115.4437574822437 85.77008943001954 l 15.821922044608751 -14.578352191741077 a42.51421785266939,42.51421785266939 0 0,0 0.4912545393421665,0.5424555321446639 l -16.070520224566952 14.303843872326864" fill="#fbff18" stroke="none" /><path d="M 115.68641384162765 86.03803664274999 l 18.949594233393196 -16.866413381195052 a46.368543946304925,46.368543946304925 0 0,0 0.5255281301556516,0.6007694994909308 l -19.237114227126696 16.537728325501174" fill="#ccff1d" stroke="none" /><path d="M 115.9244219780498 86.31012108654704 l 3.5557002908424553 -3.0567581354763846 a25.68900574291589,25.68900574291589 0 0,0 0.2853796376138462,0.33779947756346224 l -3.6077905419434186 2.9950997082838158" fill="#ff1e03" stroke="none" /><path d="M 116.15771136456269 86.58626213691792 l 31.393379625094166 -26.06201803126664 a61.801630704511616,61.801630704511616 0 0,0 0.6724650384818007,0.8243626240175125 l -31.837343155652377 25.51777123764103" fill="#31ff3c" stroke="none" /><path d="M 116.38621287248628 86.86637796730983 l 30.40892762897817 -24.372889880432183 a59.971023089830545,59.971023089830545 0 0,0 0.6386797426974173,0.811058414282373 l -30.82396145226955 23.84583907219677" fill="#37ff2e" stroke="none" /><path d="M 116.60985879189232 87.15038557335679 l 29.891033264601187 -23.12411303891243 a58.791513246519976,58.791513246519976 0 0,0 0.6123389741736504,0.8057663124447776 l -30.28464817899895 22.60616195058662" fill="#43ff2d" stroke="none" /><path d="M 116.82858285166822 87.43820079747576 l 29.09889588268426 -21.721049854010964 a57.31184033275825,57.31184033275825 0 0,0 0.5833182392742822,0.7956454228238985 l -29.46847673447217 21.216941987515572" fill="#52ff2b" stroke="none" /><path d="M 117.04232023915458 87.72973835380427 l 2.5901201284228303 -1.8648547395447146 a24.191614870134472,24.191614870134472 0 0,0 0.24040403476008537,0.3400344582782393 l -2.6218367829867986 1.819993780934682" fill="#ff0801" stroke="none" /><path d="M 117.2510076193507 88.02491185347247 l 36.76185524374237 -25.518883690010778 a65.75094888095856,65.75094888095856 0 0,0 0.6373945024394732,0.9352977819793523 l -37.19567421185057 24.88230788476102" fill="#36ff6c" stroke="none" /><path d="M 117.45458315368197 88.32363383020206 l 26.121235595420472 -17.473984278756646 a52.427043698154236,52.427043698154236 0 0,0 0.49531913656909043,0.7544050268873969 l -26.418151367347487 17.021761187891574" fill="#87ff25" stroke="none" /><path d="M 117.65298651832404 88.62581576622439 l 20.534754274726836 -13.230966787042496 a45.42815210455416,45.42815210455416 0 0,0 0.4178793019114797,0.6609847016925409 l -20.759461172884272 12.875534437635748" fill="#d7ff1c" stroke="none" /><line stroke="#e1ed5e" stroke-width="0.3" x1="172.23445277983987" x2="176.4835382374775" y1="55.19839476539836" y2="52.563006222186495" /><path d="M 173.08426987136738 54.67131705675599 a86.0,86.0 0 0,1 12.851231095245387,41.99856678651699" fill="none" id="id111" stroke="none" /><text fill="#e1ed5e" style="font-size:6.75px; font-family:Arial;" text-anchor="middle"><textPath startOffset="22.20632615414155" xlink:href="#id111">March</textPath></text><path d="M 117.84615892207809 88.93136811851018 l 19.02195647467349 -11.797890784408954 a43.383588967929484,43.383588967929484 0 0,0 0.38814718955800065,0.638011923201636 l -19.222219462517717 11.468711088000237" fill="#f0ff19" stroke="none" /><path d="M 118.03404312379186 89.2402003453031 l 2.7739600045186905 -1.655050600349651 a24.23017748682438,24.23017748682438 0 0,0 0.21061830886126998,0.36001496277182665 l -2.8020379878502877 1.607056225223929" fill="#ff0901" stroke="none" /><path d="M 118.21658344932153 89.55222093294921 l 28.50342307161465 -16.347602597126933 a53.858625008862525,53.858625008862525 0 0,0 0.4543163748007745,0.8081781367871852 l -28.78059708770786 15.854540950404955" fill="#77ff27" stroke="none" /><path d="M 118.3937258080291 89.86733742301442 l 27.526295656788587 -15.16357636269824 a52.426597026918444,52.426597026918444 0 0,0 0.42862962357424805,0.794185594925178 l -27.7832333795813 14.687509784440604" fill="#87ff25" stroke="none" /><path d="M 118.56541770881063 90.18545643968196 l 28.304879802997387 -14.96327635355322 a53.016649729397585,53.016649729397585 0 0,0 0.4195650985942928,0.8104662255954921 l -28.558254334751798 14.473837405697383" fill="#80ff25" stroke="none" /><path d="M 118.73160827565052 90.50648371742162 l 19.960298719936386 -10.1162387187634 a43.37748446104034,43.37748446104034 0 0,0 0.3318170734254886,0.66892297227351 l -20.131475806315283 9.77115615799094" fill="#f0ff19" stroke="none" /><path d="M 118.89224826269711 90.83032412892265 l 2.9146738983028095 -1.4146868358753315 a24.23985536359984,24.23985536359984 0 0,0 0.17896147412319585,0.3769385053695169 l -2.9385935662677616 1.3643059148652743" fill="#ff0901" stroke="none" /><path d="M 119.04729006885535 91.15688171328212 l 28.516646747876795 -13.2394728814658 a52.44014605440408,52.44014605440408 0 0,0 0.3730683961253167,0.8220067587722649 l -28.74031746096546 12.746644113851472" fill="#87ff25" stroke="none" /><path d="M 119.196687751892 91.48605970444005 l 28.83504646629704 -12.78865746042848 a52.54377378110746,52.54377378110746 0 0,0 0.3595727824890341,0.8299435576114942 l -29.050909958628754 12.290414758230384" fill="#85ff25" stroke="none" /><path d="M 119.34039704204932 91.81776055985345 l 28.954923302545986 -12.24980619153857 a52.43955049275637,52.43955049275637 0 0,0 0.344548605592219,0.8343517777918058 l -29.161493595024403 11.74957984329346" fill="#87ff25" stroke="none" /><path d="M 119.47837535516314 92.15188598940014 l 19.64929967556991 -7.9169818463036705 a42.1842766998322,42.1842766998322 0 0,0 0.2655730225377578,0.6758543749242915 l -19.78266624798937 7.577578466483594" fill="#ffff18" stroke="none" /><path d="M 119.61058180528143 92.48833698450437 l 3.024385239253764 -1.1584644949287055 a24.2386642403044,24.2386642403044 0 0,0 0.14588837813448643,0.39090832226217015 l -3.0438782058898757 1.106233035637202" fill="#ff0901" stroke="none" /><path d="M 119.7369772167798 92.82701384747503 l 42.02306715995528 -15.272393311003986 a65.71223737385674,65.71223737385674 0 0,0 0.3772098937387105,1.0664231652299097 l -42.2797301345038 14.546772519347462" fill="#36ff6b" stroke="none" /><path d="M 119.85752413597 93.16781622104841 l 29.70899236458661 -10.221681934388346 a52.41825916385035,52.41825916385035 0 0,0 0.2862104500714188,0.8557328161598474 l -29.8805401084298 9.708776015306185" fill="#87ff25" stroke="none" /><path d="M 119.97218684219823 93.5106431181261 l 29.98277761628838 -9.741994995303205 a52.52575804126391,52.52575804126391 0 0,0 0.27199467370978564,0.8622974449072338 l -30.14602777376637 9.224447383969553" fill="#86ff25" stroke="none" /><path d="M 120.08093135843002 93.85539295169968 l 21.606565797915394 -6.611439186843339 a43.59546002410606,43.59546002410606 0 0,0 0.21339791443717276,0.7194716816962656 l -21.717169609464268 6.238538118400544" fill="#eeff19" stroke="none" /><path d="M 120.18372546131832 94.20196356495316 l 3.116640442573571 -0.8952953148126009 a24.242684281426513,24.242684281426513 0 0,0 0.1117625026392842,0.40206918619066206 l -3.1315897157792185 0.841514825202987" fill="#ff0901" stroke="none" /><path d="M 120.28053869075195 94.5502522615342 l 30.355815219582986 -8.15715686179706 a52.432701533807574,52.432701533807574 0 0,0 0.22671817281996828,0.8736376040385497 l -30.49172972427326 7.633422832209658" fill="#87ff25" stroke="none" /><path d="M 120.37134235888165 94.90015583598534 l 30.483208164474807 -7.631289510495221 a52.4239169995037,52.4239169995037 0 0,0 0.21161088778129306,0.8772637451374816 l -30.610051852516918 7.105440533698333" fill="#87ff25" stroke="none" /><path d="M 120.45610955862082 95.25157060432595 l 30.619043974034895 -7.107527854067002 a52.433148205043366,52.433148205043366 0 0,0 0.19651347956623574,0.8809313964743536 l -30.73685184060317 6.579418288042684" fill="#87ff25" stroke="none" /><path d="M 120.53481517161879 95.60439243477599 l 22.444500084064618 -4.804387745526917 a43.95294590315034,43.95294590315034 0 0,0 0.1519949465760395,0.7411813394113415 l -22.523874326555653 4.417330749952163" fill="#e9ff1a" stroke="none" /><path d="M 120.6074358757038 95.95851677861258 l 4.421639911420303 -0.86716191285549 a25.50587053624182,25.50587053624182 0 0,0 0.0807859292746178,0.43156166452040085 l -4.43591156460478 0.7909221708725264" fill="#ff1c02" stroke="none" /><path d="M 120.67395015179393 96.31383870115 l 32.3340912619138 -5.76516219532473 a53.84403374849337,53.84403374849337 0 0,0 0.15483528411018108,0.9138466115411755 l -32.4285384075442 5.207729795467716" fill="#77ff27" stroke="none" /><path d="M 120.73433829027371 96.67025291283417 l 31.02594590669929 -4.982486133056759 a52.4234703282679,52.4234703282679 0 0,0 0.13541258622706023,0.892199753657633 l -31.10711438636565 4.447687267007044" fill="#87ff25" stroke="none" /><path d="M 120.78858239683441 97.02765380044208 l 31.1911275168423 -4.459699442937004 a52.50833786306808,52.50833786306808 0 0,0 0.1202290936799629,0.895846397381371 l -31.2632726095801 3.9221347034909684" fill="#86ff25" stroke="none" /><path d="M 120.83666639777658 97.38593545837742 l 22.195607257354116 -2.7845505035978957 a43.369593269208046,43.369593269208046 0 0,0 0.08655258782335407,0.7415297156958796 l -22.24025019818106 2.4020770495771635" fill="#f1ff19" stroke="none" /><path d="M 120.87857604477298 97.74499172005257 l 2.975097166458401 -0.32132788795677547 a23.99239949897195,23.99239949897195 0 0,0 0.04081321294683498,0.41098348461404116 l -2.980187505087465 0.2700688726382993" fill="#ff0500" stroke="none" /><path d="M 120.91429891909075 98.10471618934814 l 31.319845967860424 -2.838249431388379 a52.44818613664832,52.44818613664832 0 0,0 0.07374094135313149,0.8998262634633729 l -31.36406139303305 2.2987092507172373" fill="#86ff25" stroke="none" /><path d="M 120.94382443527127 98.46500227214037 l 31.36331893240268 -2.2986548348972344 a52.44744168458867,52.44744168458867 0 0,0 0.05824015921023762,0.9009494852777563 l -31.398239682617334 1.7584462853664429" fill="#86ff25" stroke="none" /><path d="M 120.96714384426684 98.82574320788733 l 26.77870907764539 -1.4997312582005515 a47.820672133859574,47.820672133859574 0 0,0 0.03895424533615809,0.8222625514933193 l -26.800556931215045 1.0385576000842325" fill="#bbff1f" stroke="none" /><path d="M 120.98425023603335 99.18683210126433 l 22.376769703756228 -0.8671298996067925 a43.393564625528796,43.393564625528796 0 0,0 0.02249916144292712,0.7466376337545759 l -22.388380559654802 0.4818221184272175" fill="#f0ff19" stroke="none" /><line stroke="#e1ed5e" stroke-width="0.3" x1="184.98032266829074" x2="189.97916517819016" y1="98.17113171792111" y2="98.06355123074" /><path d="M 185.9800911702706 98.14961562048488 a86.0,86.0 0 0,1 -9.607161424134198,41.387399972396054" fill="none" id="id112" stroke="none" /><text fill="#e1ed5e" style="font-size:6.75px; font-family:Arial;" text-anchor="middle"><textPath startOffset="21.466115282336823" xlink:href="#id112">April</textPath></text><path d="M 120.99513854157772 99.54816195383933 l 3.9201212877303604 -0.08436524197509876 a24.92102899818023,24.92102899818023 0 0,0 0.005538393569224356,0.42895468546028304 l -3.9209926884173005 0.016874298454352996" fill="#ff1302" stroke="none" /><path d="M 120.99980553446 99.90962569577887 l 31.435537128395598 -0.1352852906725409 a52.435828232458114,52.435828232458114 0 0,0 -0.0038845028623042625,0.9026216623130117 l -31.433208328243794 -0.40584584984415545" fill="#87ff25" stroke="none" /><path d="M 120.99824983174949 100.27111621757518 l 44.71372172595641 0.5773155003480914 a65.71744853827428,65.71744853827428 0 0,0 -0.024340295011045038,1.1309978658105408 l -44.69715936826036 -1.346903181948747" fill="#36ff6c" stroke="none" /><path d="M 120.9904718944345 100.63252640178507 l 22.373581924185945 0.6742050079065213 a43.383737858341405,43.383737858341405 0 0,0 -0.028918085664728067,0.7462472963815603 l -22.358661705670013 -1.0592295513020877" fill="#f0ff19" stroke="none" /><path d="M 120.9764740272857 100.99374915477107 l 22.366841504347736 1.059617064857112 a43.39192683099757,43.39192683099757 0 0,0 -0.04176710396551369,0.7457796988576594 l -22.34528804949469 -1.4444684800501946" fill="#f0ff19" stroke="none" /><path d="M 120.95626037817324 101.35467743843564 l 3.2537599273623883 0.2103330978018725 a24.26055113085813,24.26055113085813 0 0,0 -0.03052605950366981,0.4165038288603817 l -3.249657309194381 -0.2663100631590244" fill="#ff0901" stroke="none" /><path d="M 120.92983693683757 101.71520430193887 l 38.66348749239588 3.16848049390189 a59.79309904757403,59.79309904757403 0 0,0 -0.09289399982247261,1.0250775473088283 l -38.60321889629633 -3.8335394297592886" fill="#39ff2e" stroke="none" /><path d="M 120.89721153311464 102.0752229133903 l 31.481237038342833 3.126282391328369 a52.63608583650415,52.63608583650415 0 0,0 -0.09729579572219864,0.9008382310108298 l -31.422758941119586 -3.6677169442239905" fill="#84ff25" stroke="none" /><path d="M 120.8583938346157 102.4346265915055 l 32.08188872147703 3.7446516738697726 a53.29969040247678,53.29969040247678 0 0,0 -0.11420979170103376,0.9103644118736645 l -32.012677420529144 -4.296333840030832" fill="#7dff26" stroke="none" /><path d="M 120.81339534386255 102.79330883721812 l 20.793719693028187 2.790668221958295 a41.980147945075984,41.980147945075984 0 0,0 -0.10228352895587076,0.715370763289417 l -20.742602113055714 -3.1481844572281212" fill="#fffc17" stroke="none" /><path d="M 120.76222939487914 103.15116336523771 l 4.985673060585365 0.756694765324386 a26.0427693616619,26.0427693616619 0 0,0 -0.07108218339924041,0.4426288238803127 l -4.971909122824837 -0.8424028188979036" fill="#ff2403" stroke="none" /><path d="M 120.70491114924044 103.5080841355445 l 31.181704821443482 5.283193113695164 a52.62611017890483,52.62611017890483 0 0,0 -0.1590149484143498,0.8918402778342831 l -31.086143430689944 -5.8191521422626655" fill="#84ff25" stroke="none" /><path d="M 120.64145759157962 103.86396538481128 l 30.89808581479048 5.783948808633645 a52.4347859995746,52.4347859995746 0 0,0 -0.17370912268557684,0.8857390741656664 l -30.79394675912924 -6.314951609867256" fill="#87ff25" stroke="none" /><path d="M 120.5718875245553 104.21870165774334 l 28.01336539807149 5.744734453887635 a49.596339186538415,49.596339186538415 0 0,0 -0.17870260382371436,0.8348390719042691 l -27.91032875552333 -6.226087345208073" fill="#a7ff21" stroke="none" /><path d="M 120.49622156327973 104.57218783832717 l 24.749939561482204 5.521084572245113 a46.35827050788174,46.35827050788174 0 0,0 -0.1804427997977427,0.7773428589018487 l -24.65123619575391 -5.946296088495527" fill="#ccff1d" stroke="none" /><path d="M 120.41448212921028 104.9243191809786 l 3.508330529600323 0.8462688012743627 a24.608954694774656,24.608954694774656 0 0,0 -0.10287560901079328,0.41093691966610596 l -3.493243606294469 -0.9065335603378646" fill="#ff0e01" stroke="none" /><path d="M 120.32669344350535 105.2749913415812 l 43.28068155086991 11.231793359461463 a65.71432183962375,65.71432183962375 0 0,0 -0.2935612830319364,1.092450741639654 l -43.080932191496196 -11.975135034276665" fill="#36ff6b" stroke="none" /><path d="M 120.23288151984713 105.62410040840565 l 28.730184896121347 7.986081688332202 a50.81947392054451,50.81947392054451 0 0,0 -0.2415313184211994,0.8408022053563354 l -28.58846094081405 -8.47944136919312" fill="#99ff23" stroke="none" /><path d="M 120.13307415673323 105.97154293290107 l 29.025970965797296 8.60920843195876 a51.275823033110385,51.275823033110385 0 0,0 -0.2582671092674508,0.8440318563209632 l -28.873477084023712 -9.107567260831779" fill="#94ff23" stroke="none" /><path d="M 120.02730092923936 106.31721596034902 l 19.961226408176753 6.296374059560496 a41.93071632831517,41.93071632831517 0 0,0 -0.22304694925297072,0.6864679237330371 l -19.849887207907535 -6.639040883271329" fill="#fffc17" stroke="none" /><path d="M 119.9155931802556 106.66101706037122 l 3.22025158747129 1.0770530693557017 a24.395594734478763,24.395594734478763 0 0,0 -0.13662598216036864,0.3970990573626558 l -3.2012347743676908 -1.132324829807658" fill="#ff0b01" stroke="none" /><path d="M 119.79798401119884 107.00284435728193 l 29.703152212977866 10.506451149292682 a52.50655117812493,52.50655117812493 0 0,0 -0.3087278670850409,0.8494864968751555 l -29.517900084887597 -11.016185443173967" fill="#86ff25" stroke="none" /><path d="M 119.67450827220406 107.3425965602758 l 29.584996049335377 11.041225896076096 a52.578167466263324,52.578167466263324 0 0,0 -0.3237456105656393,0.8451976302719434 l -29.39055615917623 -11.548847093181182" fill="#85ff25" stroke="none" /><path d="M 119.54520255179757 107.68017299344265 l 34.82439315344102 13.684041549392324 a58.416458298867965,58.416458298867965 0 0,0 -0.3758052762151959,0.932717875999731 l -34.58368526296844 -14.281458793234869" fill="#47ff2c" stroke="none" /><path d="M 119.41010516605496 108.01547362559984 l 19.624192942412055 8.103881952616765 a42.23162385082598,42.23162385082598 0 0,0 -0.2832515610497297,0.6695230191630669 l -19.481790400170016 -8.440479497445995" fill="#ffff18" stroke="none" /><path d="M 119.26925614724726 108.34839909993367 l 3.535710177184974 1.5318453102329077 a24.853283860752015,24.853283860752015 0 0,0 -0.17345096778559893,0.3910861426383305 l -3.5088181246681023 -1.592479789363926" fill="#ff1202" stroke="none" /><path d="M 119.12269723197855 108.67885076344098 l 28.63740622529062 12.997108716740254 a52.44878169829603,52.44878169829603 0 0,0 -0.38019218525272164,0.8189001435497429 l -28.409439423198066 -13.488128927568829" fill="#86ff25" stroke="none" /><path d="M 118.97047184881838 109.00673069616215 l 28.516905736202627 13.539151387518965 a52.56774513742822,52.56774513742822 0 0,0 -0.3951260655738444,0.8140767275568737 l -28.279626414014068 -14.028017071041115" fill="#85ff25" stroke="none" /><path d="M 118.81262510543309 109.33194174019688 l 33.51113055140893 16.623087750978733 a58.40752487415215,58.40752487415215 0 0,0 -0.4545254956869297,0.896821923835261 l -33.22002638593573 -17.19746388651669" fill="#47ff2c" stroke="none" /><path d="M 118.64920377521936 109.65438752849418 l 10.655208230752146 5.516026887602182 a32.998333845390306,32.998333845390306 0 0,0 -0.26547551123506247,0.5021796201981792 l -10.558680211292192 -5.698621522886496" fill="#ff860c" stroke="none" /><line stroke="#e1ed5e" stroke-width="0.3" x1="174.80103733775053" x2="179.2010983576182" y1="140.37084112569926" y2="142.7455964860345" /><path d="M 175.68104954172406 140.8457921977663 a86.0,86.0 0 0,1 -30.038265399797805,32.042727171017184" fill="none" id="id113" stroke="none" /><text fill="#e1ed5e" style="font-size:6.75px; font-family:Arial;" text-anchor="middle"><textPath startOffset="22.206326154141568" xlink:href="#id113">May</textPath></text><path d="M 118.48025628344425 109.97397251340804 l 2.629679367632118 1.4192633115881608 a23.988230567437903,23.988230567437903 0 0,0 -0.19924349078464623,0.3616848099581805 l -2.604859467395962 -1.4643186399441463" fill="#ff0500" stroke="none" /><path d="M 118.30583269289576 110.29060199501025 l 27.403718625084746 15.404967710834429 a52.43687046534161,52.43687046534161 0 0,0 -0.44907935624799683,0.7830077106299708 l -27.134487272684368 -15.874395267322715" fill="#87ff25" stroke="none" /><path d="M 118.12598468904814 110.60418214915192 l 27.127804566160403 15.870485706631523 a52.42912816392126,52.42912816392126 0 0,0 -0.46242272411556706,0.7750470841230859 l -26.850600966346608 -16.335094884640714" fill="#87ff25" stroke="none" /><path d="M 117.94076556474637 110.91462005526583 l 26.882528261670156 16.354518487083496 a52.46649965731572,52.46649965731572 0 0,0 -0.47603444845558823,0.7675191035785719 l -26.597029173546606 -16.81483392202734" fill="#86ff25" stroke="none" /><path d="M 117.75023020441432 111.22182372390056 l 18.91794558259616 11.960061818997794 a43.38150450216246,43.38150450216246 0 0,0 -0.40447083813857165,0.627747722910353 l -18.709269881080537 -12.2839311418296" fill="#f0ff19" stroke="none" /><path d="M 117.55443506779139 111.5257021239791 l 3.490765771840888 2.291929436375879 a25.17592938340463,25.17592938340463 0 0,0 -0.24096588687920525,0.36021130620354536 l -3.450796779550962 -2.351677656785231" fill="#ff1702" stroke="none" /><path d="M 117.35343817320211 111.8261652097733 l 36.94949848661416 25.180651186215986 a65.71387516838797,65.71387516838797 0 0,0 -0.6450570768605772,0.9292528298478214 l -36.510580502591445 -25.812945278250826" fill="#36ff6b" stroke="none" /><path d="M 117.14729908036423 112.12312394758627 l 24.332200972813975 17.202842670936672 a50.799224824522014,50.799224824522014 0 0,0 -0.5109439435520939,0.7096564491736865 l -24.03247723688628 -17.619132725561492" fill="#99ff23" stroke="none" /><path d="M 116.93607887273984 112.41649034213515 l 19.257970337319612 14.11875821429561 a44.8790442653558,44.8790442653558 0 0,0 -0.46212322304168724,0.6190895763621387 l -19.01208584758283 -14.448160670167065" fill="#deff1b" stroke="none" /><path d="M 116.71984013943494 112.70617746262583 l 19.322196937352604 14.683828386298481 a45.26854158296504,45.26854158296504 0 0,0 -0.47681394250629794,0.6163462958556665 l -19.06657617762824 -15.0142526762674" fill="#d9ff1c" stroke="none" /><path d="M 116.498646956653 112.99209946851258 l 2.450758530868791 1.9298854439402102 a24.119403020348358,24.119403020348358 0 0,0 -0.25966499975384855,0.323972012511855 l -2.4171756190600884 -1.9717852900303154" fill="#ff0701" stroke="none" /><path d="M 116.27256486870786 113.27417163493432 l 24.391079891227722 19.89676387526126 a52.47707087656275,52.47707087656275 0 0,0 -0.5770078847270655,0.6950431678075586 l -24.04497600660711 -20.31366830018259" fill="#86ff25" stroke="none" /><path d="M 116.0416608686014 113.55231037782055 l 24.014836048696925 20.288205471382064 a52.43761491740126,52.43761491740126 0 0,0 -0.5884436540727941,0.6844929102004175 l -23.66204988505335 -20.698575480744008" fill="#87ff25" stroke="none" /><path d="M 115.80600337817218 113.82643327865902 l 29.537275034114636 25.837977679833585 a60.243492543662704,60.243492543662704 0 0,0 -0.6894757285307451,0.7746332900863067 l -29.08814045593555 -26.34258513966076" fill="#34ff2f" stroke="none" /><path d="M 115.56566222782051 114.09645910891815 l 15.543001466512315 14.075937239017431 a41.96942783541701,41.96942783541701 0 0,0 -0.48955057631665366,0.5313104631786448 l -15.29840448219994 -14.341398956997411" fill="#fffc17" stroke="none" /><path d="M 115.32070863581623 114.36230785411682 l 2.3367221717227236 2.1905464034062407 a24.202930541441162,24.202930541441162 0 0,0 -0.2875463146437877,0.301491161308995 l -2.2986693056999714 -2.230444681297743" fill="#ff0801" stroke="none" /><path d="M 115.07121518719521 114.62390073753431 l 22.546129020768742 21.87695874022779 a52.41543024602368,52.41543024602368 0 0,0 -0.6338757096535881,0.642112747280142 l -22.16621268605962 -22.261811981488595" fill="#87ff25" stroke="none" /><path d="M 114.81725581225074 114.88116024355365 l 22.16799861484374 22.26360561269513 a52.417961383026494,52.417961383026494 0 0,0 -0.6448658485556511,0.6311369590812783 l -21.781482813912294 -22.64189267469898" fill="#87ff25" stroke="none" /><path d="M 114.55890576462653 115.13401014063108 l 21.78034736171029 22.6407123699826 a52.41632358849526,52.41632358849526 0 0,0 -0.6556138047463588,0.6199237737380929 l -21.387397722573123 -23.012270780466615" fill="#87ff25" stroke="none" /><path d="M 114.29624159901734 115.38237550388516 l 15.32461279829248 16.48887554692572 a43.510592489305886,43.510592489305886 0 0,0 -0.5529998446837822,0.50515224661887 l -15.038513404141833 -16.75022056013117" fill="#efff19" stroke="none" /><path d="M 114.0293411484842 115.62618273729858 l 2.074411478635205 2.310524243043711 a24.105109540803063,24.105109540803063 0 0,0 -0.3111368702409068,0.27454211272400486 l -2.0343322554877106 -2.345889497540005" fill="#ff0701" stroke="none" /><path d="M 113.75828350139079 115.86535959552629 l 23.431059462822823 27.019517663250983 a56.76407250726727,56.76407250726727 0 0,0 -0.743702668420615,0.633799548312874 l -22.96249131782516 -27.418841601786806" fill="#58ff2a" stroke="none" /><path d="M 113.48314897796784 116.09983520530334 l 20.170042674651064 24.08446006763336 a52.41483468437596,52.41483468437596 0 0,0 -0.6966926698952918,0.5733306367283441 l -19.75247987621108 -24.42808582321888" fill="#87ff25" stroke="none" /><path d="M 113.20401910651253 116.32954008644616 l 20.639498624828807 25.52507061975241 a53.82557133741403,53.82557133741403 0 0,0 -0.7254726032029881,0.5763593120515319 l -20.197068528908467 -25.876563845809066" fill="#77ff27" stroke="none" /><path d="M 112.92097659922987 116.55440617244103 l 13.767147425133645 17.638523571439784 a43.37525110486139,43.37525110486139 0 0,0 -0.5925292112555037,0.45432613244896886 l -13.461489485384648 -17.872889045716125" fill="#f0ff19" stroke="none" /><path d="M 112.63410532772338 116.77436683061366 l 1.9565201845872475 2.597681943948175 a24.25206437737811,24.25206437737811 0 0,0 -0.33561973364012493,0.24828345541233054 l -1.9115154805285584 -2.6309753481002742" fill="#ff0901" stroke="none" /><path d="M 112.34349029814194 116.9893568818739 l 20.17024273831608 27.761957436533223 a55.31566658001087,55.31566658001087 0 0,0 -0.7751375722057119,0.5530400765897729 l -19.689377838261485 -28.105041774967216" fill="#67ff28" stroke="none" /><path d="M 112.04921762599082 117.19931262002967 l 21.47527504104553 30.65426988681265 a58.428220641410434,58.428220641410434 0 0,0 -0.8286877743704401,0.5699790075905454 l -20.944430382052207 -31.01938968376829" fill="#47ff2c" stroke="none" /><path d="M 111.7513745106137 117.40417183066458 l 15.014225725085504 22.23656170499547 a47.83079668187082,47.83079668187082 0 0,0 -0.68631567712725,0.454852607149924 l -14.62923534921829 -22.491712333236713" fill="#bbff1f" stroke="none" /><path d="M 111.45004920935366 117.60387380957326 l 13.555128565802141 20.840327266889748 a45.860827641623146,45.860827641623146 0 0,0 -0.6654585121710346,0.4247271075473301 l -13.194388251584177 -21.070568803260887" fill="#d2ff1c" stroke="none" /><path d="M 111.1453310114006 117.79835938074945 l 1.7228074590118099 2.7512100150244554 a24.246108760900903,24.246108760900903 0 0,0 -0.35563361043147407,0.2184592100998073 l -1.6751946486480271 -2.780457691952641" fill="#ff0901" stroke="none" /><line stroke="#e1ed5e" stroke-width="0.3" x1="143.8653032363475" x2="146.44561519142675" y1="172.8068346515853" y2="177.08958963109032" /><path d="M 144.38136562736335 173.6633856474863 a86.0,86.0 0 0,1 -40.68145358897372,12.25698825130547" fill="none" id="id114" stroke="none" /><text fill="#e1ed5e" style="font-size:6.75px; font-family:Arial;" text-anchor="middle"><textPath startOffset="21.466115282336833" xlink:href="#id114">June</textPath></text><path d="M 110.8373102113329 117.98757091392108 l 23.06854137117238 38.28874653424264 a65.70107059296197,65.70107059296197 0 0,0 -0.9737278131601005,0.5752955553553808 l -22.406045686983898 -38.68016066189177" fill="#36ff6b" stroke="none" /><path d="M 110.5260780823613 118.17145234162733 l 15.920167579283387 27.483414446871762 a52.761451563349326,52.761451563349326 0 0,0 -0.7897917789507757,0.44846438438751934 l -15.44472703341141 -27.75338199705391" fill="#83ff25" stroke="none" /><path d="M 110.21172684928248 118.3499491758327 l 13.770083954282745 24.74413431121024 a49.31761633540519,49.31761633540519 0 0,0 -0.7453469713272237,0.406422597131758 l -13.342114171086871 -24.977497560101767" fill="#aaff21" stroke="none" /><path d="M 109.89434966115114 118.52300852407294 l 12.809877523632284 23.981108277809277 a48.18798478009123,48.18798478009123 0 0,0 -0.7350023768560946,0.3845185052134777 l -12.395184244249695 -24.19805620196747" fill="#b7ff1f" stroke="none" /><path d="M 109.57404056367764 118.69057910512821 l 1.6978858267147352 3.3146370275558703 a24.724195873608583,24.724195873608583 0 0,0 -0.380453680106792,0.19076737329438678 l -1.6405782389251826 -3.343372241759559" fill="#ff1001" stroke="none" /><path d="M 109.2508944713604 118.85261126421891 l 13.838300073546947 28.201390973799256 a52.41364356108052,52.41364356108052 0 0,0 -0.8133782124051101,0.3904709708670199 l -13.350809193141602 -28.435416221165834" fill="#87ff25" stroke="none" /><path d="M 108.92500713936063 119.00905698771935 l 13.351631813325554 28.437168290795785 a52.41557913643561,52.41557913643561 0 0,0 -0.820009298414506,0.3764260499858106 l -12.860154519143627 -28.66278141111567" fill="#87ff25" stroke="none" /><path d="M 108.59647513512805 119.15986991738527 l 10.980908534400855 24.474307874641724 a47.82484106539361,47.82484106539361 0 0,0 -0.7539912435490794,0.33052760341179127 l -10.557996616194021 -24.65970003134797" fill="#bbff1f" stroke="none" /><path d="M 108.2653958097858 119.30500536409082 l 9.384964016819248 21.91991585835381 a44.844501689788004,44.844501689788004 0 0,0 -0.7122343427694586,0.29771401304154926 l -9.006258214552329 -22.078214914415334" fill="#dfff1b" stroke="none" /><path d="M 107.93186726928326 119.44442032107085 l 1.226193609099702 3.005928253827161 a24.246406541724767,24.246406541724767 0 0,0 -0.38780271138504613,0.1543147021959452 l -1.1742698216727898 -3.0265898004291754" fill="#ff0901" stroke="none" /><path d="M 107.59598834532513 119.57807347666477 l 13.48638442184163 34.76011456861459 a58.28469028430979,58.28469028430979 0 0,0 -0.9384661647090202,0.354847602135336 l -12.886048036372335 -34.98711042085656" fill="#48ff2c" stroke="none" /><path d="M 107.2578585660854 119.70592522655815 l 11.908750870817345 32.33363561238545 a55.45696358093257,55.45696358093257 0 0,0 -0.8986152349266919,0.3222114520460458 l -11.350416075260918 -32.53383460547146" fill="#66ff29" stroke="none" /><path d="M 106.91757812671514 119.82793768551818 l 3.926554869047482 11.254731617929949 a32.92001748871505,32.92001748871505 0 0,0 -0.53664373231538,0.1820586905905199 l -3.732241403794875 -11.320653295418591" fill="#ff850c" stroke="none" /><path d="M 106.57524785965236 119.94407469862006 l 10.337775837498864 31.356593381951622 a54.016746626332335,54.016746626332335 0 0,0 -0.8855625176703419,0.28352915301545295 l -9.796491974737581 -31.52989538162678" fill="#75ff27" stroke="none" /><path d="M 106.2309692047433 120.05430185196036 l 6.196186633756603 19.942354552136827 a41.88277361567367,41.88277361567367 0 0,0 -0.6903179089637356,0.2079871232066183 l -5.851993750352621 -20.04605704444917" fill="#fffb17" stroke="none" /><path d="M 105.88484417918355 120.15858648285463 l 0.8456134307152391 2.896656386321094 a24.01756197858814,24.01756197858814 0 0,0 -0.39785529668889,0.11243788091342412 l -0.7956269659217433 -2.910783060573037" fill="#ff0600" stroke="none" /><path d="M 105.53697534728816 120.25689768951611 l 9.097360546790696 33.28248552365984 a55.50341738945478,55.50341738945478 0 0,0 -0.9237607063922368,0.24397359848859831 l -8.523109397586962 -33.43415047145202" fill="#65ff29" stroke="none" /><path d="M 105.18746579009965 120.34920634021253 l 7.762330938000939 30.449795782723047 a52.42361921867984,52.42361921867984 0 0,0 -0.876339968028106,0.21538304289581586 l -7.237037685229621 -30.578900083932893" fill="#87ff25" stroke="none" /><path d="M 104.83641907484287 120.43548508189849 l 7.240741038289552 30.59454798686233 a52.43969938316829,52.43969938316829 0 0,0 -0.8801874954505896,0.20032780832009753 l -6.713033393446101 -30.714652528760116" fill="#87ff25" stroke="none" /><path d="M 104.48393922423573 120.51570834832081 l 6.058833728877368 27.72144302062967 a49.37583248646988,49.37583248646988 0 0,0 -0.8318852920355119,0.1743296512152332 l -5.580756975412478 -27.821628652571444" fill="#a9ff21" stroke="none" /><path d="M 104.13013068566511 120.58985236759428 l 0.6856253152045195 3.418033252202767 a24.48612010493229,24.48612010493229 0 0,0 -0.4139697919398981,0.07933829588169021 l -0.6266879086929171 -3.429328746432925" fill="#ff0d01" stroke="none" /><path d="M 103.7750983002368 120.6578951692458 l 5.64891673808224 30.911706269418374 a52.42361921867984,52.42361921867984 0 0,0 -0.8890821858995445,0.1545783343378169 l -5.115985580710645 -31.004363182277196" fill="#87ff25" stroke="none" /><path d="M 103.41894727170886 120.7198165907248 l 5.117124879662057 31.011267665862135 a52.43061706804056,52.43061706804056 0 0,0 -0.891730288837107,0.13926993175671568 l -4.582558727216433 -31.094755904965957" fill="#87ff25" stroke="none" /><path d="M 103.06178313531738 120.77559828337769 l 3.713605092704916 25.198508248085137 a46.47068276888899,46.47068276888899 0 0,0 -0.7923725165507601,0.10981561067912109 l -3.2793039849673256 -25.258698424256863" fill="#cbff1d" stroke="none" /><path d="M 102.70371172650421 120.8252237178851 l 2.888344700619348 22.247351289383896 a43.434062817573796,43.434062817573796 0 0,0 -0.7422520976519492,0.0898763921451221 l -2.504965179916018 -22.29377321025437" fill="#f0ff19" stroke="none" /><path d="M 102.34483914955558 120.86867818915974 l 0.3582511674930165 3.1883757684272194 a24.20843948668258,24.20843948668258 0 0,0 -0.4145031298312787,0.04296494420805788 l -0.30331544105613517 -3.1940700810910356" fill="#ff0801" stroke="none" /><path d="M 101.98527174616119 120.90594882070398 l 2.9940382747455367 31.528787462014726 a52.670628412071935,52.670628412071935 0 0,0 -0.9033155290824527,0.07794186480275289 l -2.4508784279215425 -31.57565357909614" fill="#84ff25" stroke="none" /><path d="M 101.62511606390274 120.93702456842531 l 2.4314636813825867 31.325525582514974 a52.41974806796965,52.41974806796965 0 0,0 -0.9002149154236464,0.06208409116617465 l -1.89188600518001 -31.362738018197433" fill="#87ff25" stroke="none" /><path d="M 101.26447882468166 120.96189622390904 l 1.3488740377080024 22.36095776825573 a43.40160470777303,43.40160470777303 0 0,0 -0.7461189118813218,0.03856582527036061 l -0.9637670574132008 -22.38086340028829" fill="#f0ff19" stroke="none" /><path d="M 100.90346689309514 120.98055641714683 l 1.0105983843487893 23.46839334119836 a44.490142509394275,44.490142509394275 0 0,0 -0.7653991923685032,0.02636189577600984 l -0.6064788403056339 -23.482312035400465" fill="#e3ff1b" stroke="none" /><line stroke="#e1ed5e" stroke-width="0.3" x1="102.19456741930631" x2="102.32365962044197" y1="184.97166512339345" y2="189.96999836594603" /><path d="M 102.22038585953345 185.97133177190398 a86.0,86.0 0 0,1 -42.740103519485714,-10.115201625700543" fill="none" id="id115" stroke="none" /><text fill="#e1ed5e" style="font-size:6.75px; font-family:Arial;" text-anchor="middle"><textPath startOffset="22.20632615414155" xlink:href="#id115">July</textPath></text><path d="M 100.54218724476979 120.99299961872073 l 0.0792042114095208 3.0667154123611313 a24.067738047408596,24.067738047408596 0 0,0 -0.4142405096874951,0.0071315260399635 l -0.02640401182935773 -3.0676244156802546" fill="#ff0601" stroke="none" /><path d="M 100.18074693466247 120.99922214144158 l 0.3083735870004611 35.82691716497857 a56.82824427480916,56.82824427480916 0 0,0 -0.9782410433258084,0.0 l 0.3083735870004364 -35.82691716497857" fill="#57ff2a" stroke="none" /><path d="M 99.81925306533755 120.99922214144158 l -0.2704296738643759 31.418584252734497 a52.41974806796965,52.41974806796965 0 0,0 -0.9022195236873891,-0.015532527303507983 l 0.8112088874444329 -31.40927424815183" fill="#87ff25" stroke="none" /><path d="M 99.45781275523022 120.99299961872073 l -0.6934443263625748 26.849536980743405 a47.858490298489826,47.858490298489826 0 0,0 -0.8233475497343291,-0.028357754371759233 l 1.155512227771547 -26.833622427945553" fill="#bbff1f" stroke="none" /><path d="M 99.09653310690486 120.98055641714683 l -1.1568445921543404 26.86456295970719 a47.8894595041713,47.8894595041713 0 0,0 -0.8232698227730896,-0.04255364611435922 l 1.619102483340919 -26.840669506830626" fill="#baff1f" stroke="none" /><path d="M 98.37488393609728 120.93702456842531 l -2.438365422140331 31.41444348753107 a52.508933424715806,52.508933424715806 0 0,0 -0.9005424162972613,-0.07770258896299652 l 2.9787521561791337 -31.367816646289413" fill="#86ff25" stroke="none" /><path d="M 98.01472825383883 120.90594882070398 l -2.971714348367725 31.293704852677394 a52.434488218750744,52.434488218750744 0 0,0 -0.8977967989109911,-0.09306030907675303 l 3.509943743884309 -31.23791517514488" fill="#87ff25" stroke="none" /><path d="M 97.65516085044442 120.86867818915974 l -2.717648236472611 24.186617017646327 a45.338817857396066,45.338817857396066 0 0,0 -0.7748027809660673,-0.09381782658146998 l 3.1335784404900675 -24.13625366233951" fill="#d9ff1c" stroke="none" /><path d="M 97.2962882734958 120.8252237178851 l -4.659575243128215 35.89017864486943 a57.19138798950677,57.19138798950677 0 0,0 -0.9751714699706305,-0.13514987995525193 l 5.276675304285676 -35.80465419942157" fill="#54ff2b" stroke="none" /><path d="M 96.93821686468263 120.77559828337769 l -0.47998785412286216 3.2569370191933755 a24.29211589818732,24.29211589818732 0 0,0 -0.4131558378998993,-0.06452644490100813 l 0.5359795556312786 -3.2481922669452614" fill="#ff0a01" stroke="none" /><path d="M 96.58105272829116 120.7198165907248 l -5.120276132080834 31.030365173650242 a52.44997282159147,52.44997282159147 0 0,0 -0.8895291317463252,-0.15465604160226365 l 5.653654235299209 -30.937630553526972" fill="#86ff25" stroke="none" /><path d="M 96.22490169976321 120.6578951692458 l -5.649478814023215 30.91478203193973 a52.426745917330365,52.426745917330365 0 0,0 -0.8863425077749261,-0.169869651128008 l 6.1807889363698365 -30.812955182463252" fill="#87ff25" stroke="none" /><path d="M 95.86986931433489 120.58985236759428 l -6.1838343379578316 30.82813735800905 a52.44223052017111,52.44223052017111 0 0,0 -0.8835480447488071,-0.18515608335384462 l 6.713573844136025 -30.717125293928664" fill="#87ff25" stroke="none" /><path d="M 95.51606077576429 120.51570834832081 l -4.48202115414003 20.506932456252077 a41.99101694514688,41.99101694514688 0 0,0 -0.7048089228412927,-0.16041221617782803 l 4.834350226374186 -20.42674350649656" fill="#fffc17" stroke="none" /><path d="M 95.16358092515715 120.4354850818985 l -0.7565470237155804 3.1966637252990338 a24.284969158414672,24.284969158414672 0 0,0 -0.4059599358654242,-0.0997750752795528 l 0.8114602443242152 -3.183167391705451" fill="#ff0a01" stroke="none" /><path d="M 94.81253420990036 120.34920634021253 l -9.217207105554424 36.15693227883386 a58.31327724340038,58.31327724340038 0 0,0 -0.9705260813119869,-0.2563247590487832 l 9.8382236296779 -35.99291617048149" fill="#48ff2c" stroke="none" /><path d="M 94.46302465271185 120.25689768951611 l -8.297611568167419 30.356622173879703 a52.47022191761397,52.47022191761397 0 0,0 -0.869178800370098,-0.24563861097696155 l 8.818921536642131 -30.20929476956422" fill="#86ff25" stroke="none" /><path d="M 94.11515582081647 120.15858648285463 l -8.091386065611312 27.71711549249899 a49.87401980478812,49.87401980478812 0 0,0 -0.8220307799857131,-0.24767113078838388 l 8.567291820037271 -27.57372899260488" fill="#a3ff21" stroke="none" /><path d="M 93.76903079525671 120.05430185196036 l -9.333907342051146 30.041072126183703 a52.45771512301184,52.45771512301184 0 0,0 -0.8600034096263405,-0.2753459337497931 l 9.849632096768428 -29.875953345774203" fill="#86ff25" stroke="none" /><path d="M 93.42475214034765 119.94407469862007 l -1.0332554550232886 3.1340756147298596 a24.300007090019616,24.300007090019616 0 0,0 -0.39612513889303436,-0.13438715437091958 l 1.0870503268535487 -3.115825473460817" fill="#ff0a01" stroke="none" /><path d="M 93.08242187328487 119.8279376855182 l -10.355767968935778 29.682862732082846 a52.43746602698934,52.43746602698934 0 0,0 -0.8496878085298912,-0.3046678176946021 l 10.865175338095396 -29.500207373348285" fill="#87ff25" stroke="none" /><path d="M 92.7421414339146 119.70592522655815 l -10.862705336834516 29.493501034320982 a52.4303192872167,52.4303192872167 0 0,0 -0.8442024898121172,-0.31920514611136164 l 11.368778047406916 -29.302147638102987" fill="#87ff25" stroke="none" /><path d="M 92.40401165467489 119.57807347666478 l -10.803723976181871 27.84576439713331 a50.868161085245674,50.868161085245674 0 0,0 -0.8135972956686545,-0.32374715468112425 l 11.281442347892384 -27.65567039804612" fill="#98ff23" stroke="none" /><path d="M 92.06813273071674 119.44442032107085 l -8.603038246782885 21.08974923931257 a43.77695743624891,43.77695743624891 0 0,0 -0.6952792724454196,-0.2906267922710051 l 8.964788978725768 -20.938537404021595" fill="#ecff1a" stroke="none" /><path d="M 91.7346041902142 119.30500536409082 l -1.2774610398046973 2.983691621476726 a24.245662089665114,24.245662089665114 0 0,0 -0.382249402243936,-0.16756690466930055 l 1.3286311167063765 -2.961260163512973" fill="#ff0901" stroke="none" /><path d="M 91.40352486487194 119.15986991738527 l -14.652304129475958 32.657134080868204 a56.79355280882944,56.79355280882944 0 0,0 -0.8884999872273163,-0.40786676596362037 l 15.212272112470695 -32.40008024457051" fill="#58ff2a" stroke="none" /><path d="M 91.07499286063937 119.00905698771935 l -13.362072761814165 28.459406097637466 a52.44014605440408,52.44014605440408 0 0,0 -0.8137894898736847,-0.3906684090452317 l 13.84997491968809 -28.225183412092672" fill="#87ff25" stroke="none" /><path d="M 90.7491055286396 118.85261126421891 l -13.843022483222015 28.21101488142357 a52.424363670739496,52.424363670739496 0 0,0 -0.8067013458293963,-0.40449680164408885 l 14.326577736734171 -27.968550238870176" fill="#87ff25" stroke="none" /><path d="M 90.42595943632237 118.69057910512821 l -11.593519845197156 22.633035480925024 a46.42958901519628,46.42958901519628 0 0,0 -0.7081818930249169,-0.37048729568735406 l 11.981392640748567 -22.430118766292953" fill="#ccff1d" stroke="none" /><path d="M 90.10565033884886 118.52300852407294 l -2.8215487277278366 5.282163348238631 a26.988521258242148,26.988521258242148 0 0,0 -0.407882904226872,-0.22241028090090909 l 2.912054443823349 -5.232812415577956" fill="#ff3104" stroke="none" /><line stroke="#e1ed5e" stroke-width="0.3" x1="58.666819895761336" x2="56.23545636021788" y1="174.27360380694188" y2="178.64263932499728" /><path d="M 58.180547188652646 175.14741091055294 a86.0,86.0 0 0,1 -31.652253787137756,-30.449443065178592" fill="none" id="id116" stroke="none" /><text fill="#e1ed5e" style="font-size:6.75px; font-family:Arial;" text-anchor="middle"><textPath startOffset="22.20632615414155" xlink:href="#id116">August</textPath></text><path d="M 89.7882731507175 118.34994917583269 l -17.419618484747023 31.302160601755922 a56.82273532956774,56.82273532956774 0 0,0 -0.8505855675123571,-0.4829846841532046 l 17.95585281918059 -30.997672751808082" fill="#57ff2a" stroke="none" /><path d="M 89.4739219176387 118.17145234162733 l -15.751205032701014 27.191729848038474 a52.424363670739496,52.424363670739496 0 0,0 -0.7769593483441235,-0.459041278017489 l 16.21693225207352 -26.916569997727237" fill="#87ff25" stroke="none" /><path d="M 89.1626897886671 117.98757091392108 l -13.856661211931781 22.999034937576727 a47.85074799706946,47.85074799706946 0 0,0 -0.7018583658045149,-0.4311387329492584 l 14.250498777668605 -22.757107737799092" fill="#bbff1f" stroke="none" /><path d="M 88.8546689885994 117.79835938074946 l -13.464954839037448 21.502645818738536 a46.37062841207194,46.37062841207194 0 0,0 -0.6728559203656329,-0.42944848345337827 l 13.833092561450005 -21.267682906461353" fill="#ccff1d" stroke="none" /><path d="M 88.54995079064634 117.60387380957326 l -1.8195114002498805 2.797407111483225 a24.337080802590222,24.337080802590222 0 0,0 -0.34920848593478054,-0.23143634272084532 l 1.867394584924623 -2.7656727476710614" fill="#ff0a01" stroke="none" /><path d="M 88.24862548938628 117.40417183066458 l -17.583486726081386 26.041721680006955 a52.42213031456054,52.42213031456054 0 0,0 -0.7435033622663588,-0.511388392192413 l 18.029146972970636 -25.73519249844944" fill="#87ff25" stroke="none" /><path d="M 87.95078237400918 117.19931262002967 l -20.61320909159354 29.423738393072774 a56.9257674946234,56.9257674946234 0 0,0 -0.7976998911855143,-0.5691376921151431 l 21.116636310627943 -29.064556439113414" fill="#56ff2a" stroke="none" /><path d="M 87.65650970185807 116.9893568818739 l -15.802252208663994 21.7499342427308 a47.884397230165675,47.884397230165675 0 0,0 -0.6626631198825627,-0.4902223340513663 l 16.17430029896512 -21.474701959939665" fill="#baff1f" stroke="none" /><path d="M 87.36589467227662 116.77436683061367 l -18.9019807376093 25.096257352081675 a52.41825916385035,52.41825916385035 0 0,0 -0.7160615550710329,-0.5490454659973422 l 19.33117102117382 -24.767172544256965" fill="#87ff25" stroke="none" /><path d="M 87.07902340077011 116.55440617244103 l -3.872720190644795 4.96174438021723 a27.294193273934724,27.294193273934724 0 0,0 -0.3678769951672145,-0.2922637338998662 l 3.9575546785293674 -4.894346732312233" fill="#ff3605" stroke="none" /><path d="M 86.79598089348748 116.32954008644616 l -22.845858294213762 28.253697288322563 a57.33462056578356,57.33462056578356 0 0,0 -0.7620859651650574,-0.627144866782474 l 23.32881438792351 -27.856257302682906" fill="#52ff2b" stroke="none" /><path d="M 86.51685102203217 116.09983520530335 l -22.008540922075802 26.27975723872778 a55.2782950866164,55.2782950866164 0 0,0 -0.7242365416328114,-0.6172100927557146 l 22.45764294028567 -25.897022755749113" fill="#68ff28" stroke="none" /><path d="M 86.24171649860922 115.8653595955263 l -16.644359278535973 19.193436824035064 a46.405170987639735,46.405170987639735 0 0,0 -0.5989750695655764,-0.5285258572544479 l 16.972276701008138 -18.904087825008325" fill="#ccff1d" stroke="none" /><path d="M 85.97065885151581 115.62618273729859 l -18.2144368805908 20.287632622281393 a48.26451445182332,48.26451445182332 0 0,0 -0.6134200310454833,-0.5603446543114888 l 18.560956461103135 -19.971095201383328" fill="#b6ff1f" stroke="none" /><path d="M 85.70375840098266 115.38237550388516 l -2.837895013040583 3.05349951096195 a25.16863375322005,25.16863375322005 0 0,0 -0.31480467544346025,-0.29766746974891073 l 2.8900355228748604 -3.0041974044671083" fill="#ff1702" stroke="none" /><path d="M 85.44109423537348 115.13401014063109 l -21.78488917051828 22.64543358884813 a52.42287476662019,52.42287476662019 0 0,0 -0.6449262948835286,-0.6311961185353778 l 22.171465417777604 -22.267087367390186" fill="#87ff25" stroke="none" /><path d="M 85.18274418774928 114.88116024355367 l -27.654056675757946 27.773324156017168 a60.19316758443032,60.19316758443032 0 0,0 -0.7279342483652125,-0.7373935504052197 l 28.128031549178694 -27.293190111631283" fill="#35ff2f" stroke="none" /><path d="M 84.9287848128048 114.62390073753433 l -22.8793035696332 22.200244651174547 a52.87967055042186,52.87967055042186 0 0,0 -0.6282443508366348,-0.6587116901643955 l 23.25805447184879 -21.80312584442765" fill="#82ff25" stroke="none" /><path d="M 84.67929136418377 114.36230785411682 l -16.349994633950022 15.327205935956874 a43.410835913312695,43.410835913312695 0 0,0 -0.5063638185178073,-0.5495579169323298 l 16.611404860463555 -15.0434967642232" fill="#f0ff19" stroke="none" /><path d="M 84.43433777217949 114.09645910891817 l -2.4230828341693593 2.1943742315274783 a24.269037884338147,24.269037884338147 0 0,0 -0.2777546896690423,-0.31206033830042046 l 2.46049637348674 -2.152339723486194" fill="#ff0901" stroke="none" /><path d="M 84.19399662182784 113.82643327865904 l -28.078638634164562 24.562023323808084 a58.30553494198001,58.30553494198001 0 0,0 -0.6542921925028704,-0.7610896368206816 l 28.497273336238212 -24.075056587825873" fill="#48ff2c" stroke="none" /><path d="M 83.95833913139862 113.55231037782056 l -23.993340003243993 20.27004518970926 a52.40947462954648,52.40947462954648 0 0,0 -0.5762646350209764,-0.6941478756566803 l 24.338700638158507 -19.85403605693882" fill="#87ff25" stroke="none" /><path d="M 83.72743513129214 113.27417163493432 l -21.04515319902394 17.167359780174205 a48.15910004017678,48.15910004017678 0 0,0 -0.5184718995543808,-0.646873413393047 l 21.33754301063318 -16.802558533202898" fill="#b7ff1f" stroke="none" /><path d="M 83.50135304334701 112.99209946851258 l -17.62052219650084 13.875536440384217 a43.42795831068466,43.42795831068466 0 0,0 -0.4574270628791131,-0.591286140559857 l 17.85675607659802 -13.570172305711107" fill="#f0ff19" stroke="none" /><path d="M 83.28015986056508 112.70617746262583 l -2.478399294272439 1.8834499010548875 a24.112851842223428,24.112851842223428 0 0,0 -0.24829202565387995,-0.33262774366630393 l 2.510452586621404 -1.8405092778792755" fill="#ff0701" stroke="none" /><path d="M 83.06392112726016 112.41649034213515 l -32.360066455203956 23.724408443717312 a61.12507267270106,61.12507267270106 0 0,0 -0.6148024067135238,-0.8539067707870224 l 32.763648654293085 -23.16386806747915" fill="#30ff34" stroke="none" /><path d="M 82.85270091963577 112.12312394758628 l -25.649097980626028 18.133887588103438 a52.41200576654929,52.41200576654929 0 0,0 -0.514483967739499,-0.7411525275562617 l 25.95744285552766 -17.68969379836016" fill="#87ff25" stroke="none" /><path d="M 82.6465618267979 111.8261652097733 l -18.561489776326052 12.64943825214581 a43.46190532460473,43.46190532460473 0 0,0 -0.41598609538944725,-0.6218427708726286 l 18.77647897712623 -12.32805856706736" fill="#efff19" stroke="none" /><path d="M 82.44556493220864 111.52570212397912 l -18.7559428644456 12.314575187133606 a43.43733840663626,43.43733840663626 0 0,0 -0.4049914098983261,-0.6285556618418692 l 18.96513913772097 -11.989897925370288" fill="#f0ff19" stroke="none" /><path d="M 82.24976979558568 111.22182372390057 l -2.2363452655149176 1.4138336273039938 a23.64578261999858,23.64578261999858 0 0,0 -0.214540843420696,-0.345908150885859 l 2.2603507486035697 -1.3751291450528706" fill="#ff0000" stroke="none" /><path d="M 82.05923443525364 110.91462005526583 l -26.84182414014212 16.32975532859071 a52.41885472549808,52.41885472549808 0 0,0 -0.4623321128170645,-0.7748952143748454 l 27.118937128657418 -15.865298020329753" fill="#87ff25" stroke="none" /><line stroke="#e1ed5e" stroke-width="0.3" x1="26.63291911575756" x2="22.317208475507996" y1="142.92168965132927" y2="145.44649492493687" /><path d="M 25.769776987707644 143.4266507060508 a86.0,86.0 0 0,1 -11.730757126820373,-40.83630448921669" fill="none" id="id117" stroke="none" /><text fill="#e1ed5e" style="font-size:6.75px; font-family:Arial;" text-anchor="middle"><textPath startOffset="21.46611528233685" xlink:href="#id117">September</textPath></text><path d="M 81.87401531095188 110.60418214915194 l -27.119579696592414 15.865673939626983 a52.41959917755773,52.41959917755773 0 0,0 -0.4489314416464879,-0.7827498090544913 l 27.38866313439128 -15.396504284714185" fill="#87ff25" stroke="none" /><path d="M 81.69416730710424 110.29060199501025 l -23.400515565176374 13.154571889686594 a47.844494599768396,47.844494599768396 0 0,0 -0.3973908826699586,-0.7213798820306118 l 23.623482857297848 -12.74982148925816" fill="#bbff1f" stroke="none" /><path d="M 81.51974371655577 109.97397251340807 l -19.755875703647384 10.66243661474598 a43.44954742041453,43.44954742041453 0 0,0 -0.3495567645449003,-0.6612296646127536 l 19.93648497641717 -10.320791935047101" fill="#f0ff19" stroke="none" /><path d="M 81.35079622478065 109.6543875284942 l -2.755531916968105 1.426493768537937 a24.10287618462411,24.10287618462411 0 0,0 -0.18756781371753262,-0.37008909102779536 l 2.7796784004719046 -1.3788504658074567" fill="#ff0701" stroke="none" /><path d="M 81.18737489456691 109.33194174019688 l -28.164917996336232 13.971116332049062 a52.43969938316829,52.43969938316829 0 0,0 -0.39416360817791646,-0.8120937802507987 l 28.401234861128867 -13.484233595832977" fill="#87ff25" stroke="none" /><path d="M 81.02952815118164 109.00673069616217 l -28.420737508670374 13.49349299094283 a52.46128849289816,52.46128849289816 0 0,0 -0.38028284485275304,-0.8190954162627376 l 28.648794970362953 -13.002277507401264" fill="#86ff25" stroke="none" /><path d="M 80.87730276802145 108.67885076344099 l -28.61679801992162 12.987755666972753 a52.42615035568265,52.42615035568265 0 0,0 -0.36588189180207975,-0.8249670760152085 l 28.83612099645498 -12.49324025446485" fill="#87ff25" stroke="none" /><path d="M 80.73074385275274 108.34839909993369 l -20.089336890044105 8.703698821039746 a42.89373951267932,42.89373951267932 0 0,0 -0.2876924344454129,-0.6800199320576661 l 20.236180305681824 -8.35660436331592" fill="#f6ff19" stroke="none" /><path d="M 80.58989483394504 108.01547362559985 l -3.0969560654425408 1.278899287243866 a24.350629830075864,24.350629830075864 0 0,0 -0.1566526872013961,-0.38879912264048944 l 3.1185113669013247 -1.2254007967605711" fill="#ff0b01" stroke="none" /><path d="M 80.45479744820244 107.68017299344265 l -29.21913780862268 11.481489255214923 a52.39399002670574,52.39399002670574 0 0,0 -0.3226115535892231,-0.8422369653616393 l 29.412443641805414 -10.976828723020127" fill="#87ff25" stroke="none" /><path d="M 80.32549172779594 107.34259656027581 l -29.520271459930438 11.017070448785919 a52.509082315127735,52.509082315127735 0 0,0 -0.30874274965704285,-0.8495274473215135 l 29.705538470592703 -10.507295204458288" fill="#86ff25" stroke="none" /><path d="M 80.20201598880116 107.00284435728193 l -25.527622491276745 9.029503560399922 a48.07750809443907,48.07750809443907 0 0,0 -0.26925503701462794,-0.7825811730535503 l 25.6792683592346 -8.588749684257074" fill="#b8ff1f" stroke="none" /><path d="M 80.0844068197444 106.66101706037122 l -19.87276192320923 6.646691615413557 a41.95483657504786,41.95483657504786 0 0,0 -0.22317525489427278,-0.6868628078929971 l 19.98422942911975 -6.303629907542756" fill="#fffc17" stroke="none" /><path d="M 79.97269907076064 106.31721596034903 l -2.876513569526134 0.90733931126191 a24.01622196488077,24.01622196488077 0 0,0 -0.12096539568736203,-0.3953219121172544 l 2.8917057377196262 -0.8576904265926077" fill="#ff0600" stroke="none" /><path d="M 79.86692584326677 105.97154293290107 l -40.08662408026778 11.889838326072436 a62.8127454919292,62.8127454919292 0 0,0 -0.29853211892827175,-1.0392294697239615 l 40.28534883608216 -11.198051380843877" fill="#32ff49" stroke="none" /><path d="M 79.76711848015287 105.62410040840567 l -30.27071084305235 8.414299122353933 a52.41840805426229,52.41840805426229 0 0,0 -0.2341653187939117,-0.87141626286892 l 30.411064238188036 -7.8919919263094735" fill="#87ff25" stroke="none" /><path d="M 79.67330655649465 105.27499134158121 l -26.00354457106878 6.748194084987104 a47.86489258620283,47.86489258620283 0 0,0 -0.20009504816909254,-0.7992802523912146 l 26.115850933532933 -6.299585993198497" fill="#bbff1f" stroke="none" /><path d="M 79.58551787078972 104.9243191809786 l -25.109335379968808 6.056797377989044 a46.82950866164063,46.82950866164063 0 0,0 -0.18227702551203193,-0.7852446552728614 l 25.209872971411396 -5.623684065367608" fill="#c7ff1e" stroke="none" /><path d="M 79.50377843672027 104.57218783832718 l -3.1099636353537896 0.6937541081561691 a24.18640370571692,24.18640370571692 0 0,0 -0.08714702315199138,-0.4071218794282198 l 3.1214446972302214 -0.6401184093117854" fill="#ff0801" stroke="none" /><path d="M 79.4281124754447 104.21870165774334 l -30.944469207965355 6.34581942905374 a52.58844090468651,52.58844090468651 0 0,0 -0.17421815992591638,-0.8883346440874096 l 31.049117300866936 -5.812221057898375" fill="#85ff25" stroke="none" /><path d="M 79.35854240842038 103.8639653848113 l -30.971113636061936 5.7976192082296825 a52.509082315127735,52.509082315127735 0 0,0 -0.15866133725710685,-0.889857038674294 l 31.066321415658233 -5.263643418822174" fill="#86ff25" stroke="none" /><path d="M 79.29508885075956 103.50808413554451 l -26.467426585581865 4.484441331059513 a47.84464349018032,47.84464349018032 0 0,0 -0.13058909657460127,-0.8131784290270823 l 26.540697436517757 -4.028183672339217" fill="#bbff1f" stroke="none" /><path d="M 79.23777060512086 103.15116336523772 l -24.125658544552735 3.661643936300009 a45.40194739205445,45.40194739205445 0 0,0 -0.11062065352423399,-0.7736805931025871 l 24.18511324909357 -3.2458178712170214" fill="#d8ff1c" stroke="none" /><path d="M 79.18660465613746 102.79330883721812 l -3.1399387384021966 0.42140258623822857 a24.16809018504951,24.16809018504951 0 0,0 -0.05178702774825195,-0.4127935648646665 l 3.146727275397297 -0.36729126708615345" fill="#ff0801" stroke="none" /><path d="M 79.1416061653843 102.43462659150553 l -38.48670174761583 4.4922321554110365 a59.7479852527592,59.7479852527592 0 0,0 -0.11044187035529547,-1.0225545552293074 l 38.55832591947218 -3.8290812782969468" fill="#39ff2e" stroke="none" /><path d="M 79.10278846688536 102.07522291339032 l -38.70026477028912 3.8431766878710345 a59.890622267388274,59.890622267388274 0 0,0 -0.09304551098527257,-1.0267494603651166 l 38.76068487755147 -3.1764458389573518" fill="#38ff2e" stroke="none" /><path d="M 79.07016306316243 101.71520430193888 l -31.37219967618208 2.570958006422172 a52.47736865738662,52.47736865738662 0 0,0 -0.06603012724611916,-0.9009286250928951 l 31.411806362092538 -2.0305562448325163" fill="#86ff25" stroke="none" /><path d="M 79.04373962182676 101.35467743843564 l -31.350591279665327 2.0265991127125846 a52.416025807671396,52.416025807671396 0 0,0 -0.05045329302601695,-0.9008774395847735 l 31.380830923578877 -1.4866499567923737" fill="#87ff25" stroke="none" /><path d="M 79.0235259727143 100.99374915477108 l -3.2622524362856233 0.15454745144449894 a24.265911185687614,24.265911185687614 0 0,0 -0.01617480957246734,-0.41739996391466333 l 3.2644293787092913 -0.09837024051583886" fill="#ff0901" stroke="none" /><path d="M 79.0095281055655 100.63252640178507 l -36.61339939594529 1.103307343136844 a57.63001914305296,57.63001914305296 0 0,0 -0.02134488935030887,-0.9918131349766273 l 36.626966347980606 -0.47290439237008797" fill="#4fff2b" stroke="none" /><line stroke="#e1ed5e" stroke-width="0.3" x1="15.007084014347285" x2="10.007500721073583" y1="101.09737516637583" y2="101.16192664675087" /><path d="M 14.007167355692545 101.11028546245083 a86.0,86.0 0 0,1 10.666146001902534,-42.60595125391555" fill="none" id="id118" stroke="none" /><text fill="#e1ed5e" style="font-size:6.75px; font-family:Arial;" text-anchor="middle"><textPath startOffset="22.20632615414155" xlink:href="#id118">October</textPath></text><path d="M 79.00175016825051 100.2711162175752 l -31.402539459583984 0.40544987266822985 a52.4051568076005,52.4051568076005 0 0,0 -0.003882230689981129,-0.9020936894856055 l 31.40486598756347 0.13515329502105108" fill="#87ff25" stroke="none" /><path d="M 79.00019446554 99.90962569577889 l -26.873279374133865 -0.1156512578934023 a47.87352823009478,47.87352823009478 0 0,0 0.010639305499985522,-0.8240259358998899 l 26.867307061516165 0.5782134518537642" fill="#baff1f" stroke="none" /><path d="M 79.00486145842228 99.54816195383935 l -23.820523597788608 -0.5126433826399327 a44.82603927870867,44.82603927870867 0 0,0 0.023241886286182657,-0.7712850554332007 l 23.80817001704678 0.9225985854981278" fill="#dfff1b" stroke="none" /><path d="M 79.03285615573316 98.82574320788736 l -31.34799346075151 -1.7556322651191965 a52.39711672535628,52.39711672535628 0 0,0 0.0581842759575279,-0.9000849960928186 l 31.313128593789568 2.294976325465027" fill="#87ff25" stroke="none" /><path d="M 79.05617556472873 98.46500227214037 l -20.792015985047986 -1.5238715065296742 a41.84778436887009,41.84778436887009 0 0,0 0.05883702069053671,-0.7179606811330365 l 20.762704480537952 1.881546104870489" fill="#fffb17" stroke="none" /><path d="M 79.08570108090925 98.10471618934814 l -22.415167887677704 -2.0312947125270315 a43.50701911941957,43.50701911941957 0 0,0 0.07400932266399521,-0.7452637792078766 l 22.37688143933148 2.4168340224393385" fill="#efff19" stroke="none" /><path d="M 79.12142395522702 97.74499172005258 l -22.730671977088246 -2.4550454689622105 a43.862867203932595,43.862867203932595 0 0,0 0.0875370133698701,-0.7499636725998601 l 22.685044610714787 2.8459528798869322" fill="#eaff1a" stroke="none" /><path d="M 79.16333360222342 97.38593545837743 l -3.2880794366883452 -0.41250609389237364 a24.313853898329118,24.313853898329118 0 0,0 0.05567177970261653,-0.4148194231186191 l 3.280491657927895 0.46904385907565216" fill="#ff0a01" stroke="none" /><path d="M 79.21141760316559 97.0276538004421 l -44.2374823311249 -6.325063920902635 a65.6873726750644,65.6873726750644 0 0,0 0.16967394490849813,-1.1179392999380693 l 44.1220524927771 7.085602333232797" fill="#36ff6b" stroke="none" /><path d="M 79.26566170972629 96.67025291283419 l -17.73152705947069 -2.8475227784322446 a38.958714815777654,38.958714815777654 0 0,0 0.11203067929949143,-0.6612114109187556 l 17.679884518650976 3.1523199776668283" fill="#ffd614" stroke="none" /><path d="M 79.32604984820605 96.31383870115002 l -17.62902170554858 -3.1432511479641305 a38.9070498428379,38.9070498428379 0 0,0 0.12323210738568072,-0.6583108452579367 l 17.57230387425304 3.44624007068464" fill="#ffd513" stroke="none" /><path d="M 79.3925641242962 95.95851677861259 l -16.0989596299031 -3.157291165115638 a37.40563892893437,37.40563892893437 0 0,0 0.12935351598898584,-0.6307736829284558 l 16.04222681799912 3.433940504207496" fill="#ffc212" stroke="none" /><path d="M 79.54389044137918 95.25157060432595 l -20.653307750404952 -4.794204555802034 a42.20244133008768,42.20244133008768 0 0,0 0.17035156065279944,-0.7062171973057457 l 20.567723389491338 5.149006984767176" fill="#ffff18" stroke="none" /><path d="M 79.62865764111835 94.90015583598534 l -26.040731278356002 -6.519141895364443 a47.84434570935646,47.84434570935646 0 0,0 0.20687819474641372,-0.7971860752847479 l 25.92465675173928 6.966424396198055" fill="#bbff1f" stroke="none" /><path d="M 79.71946130924805 94.55025226153421 l -20.134400713137264 -5.410477819399349 a41.848677711341665,41.848677711341665 0 0,0 0.19292883984583548,-0.6940676863678066 l 20.03828510272507 5.756256809186098" fill="#fffb17" stroke="none" /><path d="M 79.81627453868168 94.20196356495316 l -28.7180550372426 -8.249633090220282 a50.87947675655236,50.87947675655236 0 0,0 0.2490528651721694,-0.8396824505492169 l 28.571796274958725 8.742744927516037" fill="#98ff23" stroke="none" /><path d="M 79.91906864156998 93.8553929516997 l -3.160707178577362 -0.9671515359742876 a24.3053671448491,24.3053671448491 0 0,0 0.12586073295251465,-0.39901291800626765 l 3.1435909618566438 1.0214146204069698" fill="#ff0a01" stroke="none" /><path d="M 80.02781315780177 93.51064311812611 l -29.908719144529325 -9.717931939155772 a52.447888355824446,52.447888355824446 0 0,0 0.28637222927784656,-0.8562165153954173 l 29.737009621479707 10.23132155747351" fill="#86ff25" stroke="none" /><path d="M 80.14247586403 93.16781622104843 l -25.39053346668804 -8.735872090710629 a47.851343558717176,47.851343558717176 0 0,0 0.27468247833879617,-0.7765643554041195 l 25.236397907539438 9.171634072541359" fill="#bbff1f" stroke="none" /><path d="M 80.2630227832202 92.82701384747504 l -18.67090150886616 -6.785543526107645 a40.865703211778886,40.865703211778886 0 0,0 0.2459636844582453,-0.6590603888978686 l 18.551333235906284 7.105927052034855" fill="#ffee16" stroke="none" /><path d="M 80.38941819471856 92.48833698450439 l -20.885387806122957 -7.99996638066524 a43.36512655685014,43.36512655685014 0 0,0 0.27300711623868384,-0.6947733325177804 l 20.74458714000258 8.358288718078784" fill="#f1ff19" stroke="none" /><path d="M 80.52162464483688 92.15188598940014 l -3.023192268805398 -1.2180870924257892 a24.259360007562687,24.259360007562687 0 0,0 0.15939359862208993,-0.3859842420502212 l 3.001776983297108 1.2699459049293216" fill="#ff0901" stroke="none" /><path d="M 80.65960295795068 91.81776055985345 l -30.167783264049017 -12.762924437808712 a53.75648618627845,53.75648618627845 0 0,0 0.36787173672294354,-0.8490986881908201 l 29.943620817483396 13.280322270586131" fill="#78ff26" stroke="none" /><path d="M 80.803312248108 91.48605970444005 l -24.71038769248459 -10.95932632822128 a48.03164984756458,48.03164984756458 0 0,0 0.34170558093589204,-0.7529029528010647 l 24.518079794585347 11.383051289864415" fill="#b9ff1f" stroke="none" /><path d="M 80.95270993114464 91.15688171328213 l -20.319645264176412 -9.433836832729927 a43.40279583106847,43.40279583106847 0 0,0 0.32044037418888344,-0.6749291505257571 l 20.154246696145776 9.782208398896216" fill="#f0ff19" stroke="none" /><path d="M 81.10775173730289 90.83032412892265 l -13.45009489081701 -6.528233636837566 a35.95068182355304,35.95068182355304 0 0,0 0.2750055744024542,-0.5543944569277296 l 13.335729303461143 6.7587876822642565" fill="#ffae10" stroke="none" /><path d="M 81.26839172434947 90.50648371742162 l -2.6783282496753524 -1.3574249724960987 a24.002672937395126,24.002672937395126 0 0,0 0.18995322957800415,-0.36692917864607016 l 2.654565586937234 1.4033268734025044" fill="#ff0500" stroke="none" /><path d="M 81.43458229118936 90.18545643968196 l -23.77104447416979 -12.566480061220396 a47.88826838087585,47.88826838087585 0 0,0 0.39152513444993,-0.7254366117730888 l 23.55121124050139 12.973797656325958" fill="#baff1f" stroke="none" /><path d="M 81.6062741919709 89.86733742301443 l -14.422771101173433 -7.945158828533611 a37.46638621700187,37.46638621700187 0 0,0 0.31604209651087983,-0.5622036247680663 l 14.283871363370123 8.192245963236463" fill="#ffc212" stroke="none" /><line stroke="#e1ed5e" stroke-width="0.3" x1="26.266209847984243" x2="21.928928074336255" y1="57.711370442889674" y2="55.22380399835377" /><path d="M 25.398753493254645 57.213857153982495 a86.0,86.0 0 0,1 29.58750427330803,-30.492523968695096" fill="none" id="id119" stroke="none" /><text fill="#e1ed5e" style="font-size:6.75px; font-family:Arial;" text-anchor="middle"><textPath startOffset="21.46611528233685" xlink:href="#id119">November</textPath></text><path d="M 81.78341655067845 89.55222093294921 l -14.28787519732372 -8.194542286950771 a37.4710018197717,37.4710018197717 0 0,0 0.3257128033382939,-0.5567487622615979 l 14.144702719515102 8.43927046156626" fill="#ffc212" stroke="none" /><path d="M 81.96595687620814 89.24020034530311 l -10.26473884133489 -6.124335662413914 a32.95292226975161,32.95292226975161 0 0,0 0.29482540451374406,-0.48461544590007505 l 10.157797638534928 6.300118881521064" fill="#ff860c" stroke="none" /><path d="M 82.15384107792192 88.93136811851018 l -2.5636165664468886 -1.5900187924576268 a24.01666863611656,24.01666863611656 0 0,0 0.22092179098108727,-0.34944521884922086 l 2.5358671792198386 1.6339116590210632" fill="#ff0600" stroke="none" /><path d="M 82.34701348167596 88.62581576622439 l -5.838965285275352 -3.7621660686368212 a27.946035497364875,27.946035497364875 0 0,0 0.26402797481353274,-0.4021327195591695 l 5.773340675103898 3.8621168521736577" fill="#ff3f05" stroke="none" /><path d="M 82.54541684631803 88.32363383020206 l -3.716931475108155 -2.4864674538076788 a25.471923522321745,25.471923522321745 0 0,0 0.24692668769055381,-0.3623344450329879 l 3.6735803217488607 2.5500799221110824" fill="#ff1b02" stroke="none" /><path d="M 82.7489923806493 88.02491185347247 l -51.75302285805211 -35.92526443958256 a84.0,84.0 0 0,0 0.834749520784487,-1.1806939986728553 l 51.12696071746375 36.810784938587204" fill="#4dd2ff" stroke="none" /><path d="M 83.17141714833178 87.43820079747576 l -11.944384270423761 -8.915959122961947 a35.90512135750242,35.90512135750242 0 0,0 0.3739673290504279,-0.49209716907278567 l 11.789141001149224 9.120241067915758" fill="#ffae10" stroke="none" /><path d="M 83.39014120810768 87.1503855733568 l -7.750887973714773 -5.99619317504107 a30.799520242006004,30.799520242006004 0 0,0 0.3280089057994301,-0.4165380005393702 l 7.646524987321372 6.128723569533489" fill="#ff6809" stroke="none" /><path d="M 83.84228863543731 86.58626213691792 l -19.479067494042834 -16.171046708720894 a46.31673008295323,46.31673008295323 0 0,0 0.5145334069683151,-0.6090452616595919 l 19.197823473587395 16.503950920009604" fill="#cdff1d" stroke="none" /><path d="M 84.07557802195018 86.31012108654704 l -13.55101960141915 -11.649516557207843 a38.870125020679225,38.870125020679225 0 0,0 0.44054314374609993,-0.5036169688844557 l 13.348484594095206 11.881049082295242" fill="#ffd513" stroke="none" /><path d="M 84.31358615837235 86.03803664274999 l -2.265378703047153 -2.016339410751961 a24.032748800605017,24.032748800605017 0 0,0 0.27769996809256786,-0.3066432407320493 l 2.23033509433854 2.0550354387535665" fill="#ff0600" stroke="none" /><path d="M 84.5562425177563 85.77008943001954 l -20.882085808891095 -19.240797708512567 a49.39489045919694,49.39489045919694 0 0,0 0.5815252880572969,-0.6203306316213736 l 20.547793198863342 19.59739775701199" fill="#a9ff21" stroke="none" /><path d="M 84.80347519578584 85.50635884689758 l -18.32644218223618 -17.47879071198909 a46.32521683643324,46.32521683643324 0 0,0 0.555319646163439,-0.5723057093464292 l 18.02285827236962 17.791660616885643" fill="#cdff1d" stroke="none" /><path d="M 85.05521093208273 85.24692304244772 l -22.355197676003975 -22.068424667390982 a52.41289910902087,52.41289910902087 0 0,0 0.6393480171987463,-0.6366024536287642 l 21.972013858637915 22.449962971669855" fill="#87ff25" stroke="none" /><path d="M 85.31137513191541 84.99185889309783 l -14.917808101084127 -15.242309678234319 a42.327658166520926,42.327658166520926 0 0,0 0.5250982957630463,-0.5051441444892106 l 14.653226561708653 15.496836909485843" fill="#fdff18" stroke="none" /><path d="M 85.57189188830299 84.74124197986013 l -2.044274661481009 -2.1619669151878265 a23.97542599201191,23.97542599201191 0 0,0 0.3023097040640307,-0.2809639230257536 l 2.006757073622122 2.1968354242882273" fill="#ff0500" stroke="none" /><path d="M 85.83668400450813 84.49514656593479 l -21.235434265355796 -23.246836828174118 a52.485855410866634,52.485855410866634 0 0,0 0.6722913529595075,-0.6035898146341241 l 20.83213192480032 23.608925651577522" fill="#86ff25" stroke="none" /><path d="M 86.10567301691215 84.25364557470407 l -4.026146648539221 -4.5628069767814505 a27.08515113558481,27.08515113558481 0 0,0 0.3522439399865522,-0.30546247368691304 l 3.947008909905896 4.631434443888044" fill="#ff3304" stroke="none" /><path d="M 86.37877921826538 84.01681056812374 l -9.681809083334617 -11.36066958328026 a35.92656157682036,35.92656157682036 0 0,0 0.47413217923762774,-0.397072064799997 l 9.484819367137879 11.525642805474067" fill="#ffae10" stroke="none" /><path d="M 86.65592168130627 83.78471172551755 l -14.220133317429324 -17.279841704815553 a43.37867558433578,43.37867558433578 0 0,0 0.580647537215708,-0.46950992709888995 l 13.920582381649115 17.522057729178577" fill="#f0ff19" stroke="none" /><path d="M 86.93701828274178 83.55741782278169 l -3.7204167200311713 -4.682947505912082 a26.980927847233712,26.980927847233712 0 0,0 0.36612790800257566,-0.28576863962065496 l 3.63925625686917 4.746294534755958" fill="#ff3104" stroke="none" /><path d="M 87.22198572758235 83.33499621200491 l -19.11936771703791 -24.93535604481859 a52.421683643324755,52.421683643324755 0 0,0 0.7208077513557581,-0.5428974544093066 l 18.68731381192376 25.260770088733754" fill="#87ff25" stroke="none" /><path d="M 87.51073957382395 83.11751280151077 l -13.30574217388687 -17.9861748615824 a43.37286885827051,43.37286885827051 0 0,0 0.6040285067035436,-0.4388523982476969 l 12.994168350829545 18.212546494646762" fill="#f0ff19" stroke="none" /><path d="M 87.80319425747018 82.90503203632743 l -18.25032778156559 -25.579547246906913 a52.422725876208254,52.422725876208254 0 0,0 0.7390827004803401,-0.5177746633503081 l 17.80731394150159 25.88990675302116" fill="#87ff25" stroke="none" /><path d="M 88.09926311788651 82.69761687909137 l -10.188204166364173 -14.812545941202616 a38.97807056932858,38.97807056932858 0 0,0 0.556078426841022,-0.37546663608367364 l 9.931721045116612 14.985724489584955" fill="#ffd614" stroke="none" /><path d="M 88.39885842347998 82.49532879139004 l -3.4515541604862086 -5.207963400800461 a27.24788835582445,27.24788835582445 0 0,0 0.3931908880744368,-0.25574229091970846 l 3.3613962466274847 5.266604615879705" fill="#ff3505" stroke="none" /><path d="M 88.70189139769569 82.29822771554957 l -16.895255633532617 -26.471330595226743 a52.40351901306927,52.40351901306927 0 0,0 0.7645445035191182,-0.4787576979642264 l 16.43709197764126 26.7582326345139" fill="#87ff25" stroke="none" /><path d="M 89.00827224532344 82.1063720568725 l -16.466939767186133 -26.80682237881625 a52.46054404083851,52.46054404083851 0 0,0 0.7735130696144407,-0.46603296954589774 l 16.003064631354043 27.086301957820766" fill="#86ff25" stroke="none" /><line stroke="#e1ed5e" stroke-width="0.3" x1="56.762969772571076" x2="54.21961505331055" y1="26.818313649435495" y2="22.513508569990535" /><path d="M 56.25429882871897 25.957352633546506 a86.0,86.0 0 0,1 42.265352541879196,-11.944610805530505" fill="none" id="id120" stroke="none" /><text fill="#e1ed5e" style="font-size:6.75px; font-family:Arial;" text-anchor="middle"><textPath startOffset="22.20632615414155" xlink:href="#id120">December</textPath></text><path d="M 89.3179101791058 81.91981866633112 l -13.771496721449422 -23.309217778042306 a48.07348805331695,48.07348805331695 0 0,0 0.7160735307079494,-0.4147960083342983 l 13.368226458276151 23.542817943766654" fill="#b8ff1f" stroke="none" /><path d="M 89.63071344664047 81.73862282372117 l -9.633710004342346 -16.965951426927127 a40.510301798501644,40.510301798501644 0 0,0 0.6093442134556217,-0.33909939506507386 l 9.340241701814678 17.129266219552388" fill="#ffea16" stroke="none" /><path d="M 89.94658935756843 81.56283822128135 l -1.441045089863912 -2.6427629783779554 a24.010117457991633,24.010117457991633 0 0,0 0.36455928023418316,-0.19473494201370062 l 1.3953407631014234 2.6671766468934055" fill="#ff0500" stroke="none" /><path d="M 90.26544431104013 81.39251694778311 l -14.60107433334118 -27.90977337670711 a52.49836220546877,52.49836220546877 0 0,0 0.8043236884940951,-0.41200583334822516 l 14.118490157258321 28.156971735367843" fill="#86ff25" stroke="none" /><path d="M 90.58718382345135 81.22770947309562 l -14.113351404305842 -28.146723350446628 a52.486897643750154,52.486897643750154 0 0,0 0.8111193519466522,-0.39801274334755143 l 13.626760785348765 28.385491253929008" fill="#86ff25" stroke="none" /><path d="M 90.91171255644093 81.06846463323043 l -9.742292747765644 -20.293873939744216 a43.511188050953606,43.511188050953606 0 0,0 0.6779908944053401,-0.31832581578867386 l 9.391523642060696 20.458564738172896" fill="#efff19" stroke="none" /><path d="M 91.23893434514133 80.91482961587045 l -9.318350844045263 -20.299164572414117 a43.335795145699905,43.335795145699905 0 0,0 0.680615245214885,-0.3053722210697182 l 8.967553480363604 20.456557124000362" fill="#f1ff19" stroke="none" /><path d="M 91.56875222667455 80.76684994638697 l -1.1940000214430724 -2.723722774354451 a23.973937087892608,23.973937087892608 0 0,0 0.3793775563819063,-0.1624296707359918 l 1.146938707270858 2.743871973053229" fill="#ff0500" stroke="none" /><path d="M 91.90106846888425 80.62456947434976 l -12.12175368196583 -28.99940509580004 a52.43091484886441,52.43091484886441 0 0,0 0.8356891872453819,-0.34089860238325154 l 11.620780625132067 29.20376458436687" fill="#87ff25" stroke="none" /><path d="M 92.23578459929587 80.48803036053334 l -9.35834481046372 -23.51811875297387 a46.311667808947604,46.311667808947604 0 0,0 0.7432291289789473,-0.28836135528652274 l 8.952132516485097 23.675722812150944" fill="#cdff1d" stroke="none" /><path d="M 92.57280143429618 80.3572730644239 l -8.106587218093306 -21.439507466480258 a43.92093446458535,43.92093446458535 0 0,0 0.70946463042724,-0.261301810804665 l 7.736340261893496 21.575872545091247" fill="#eaff1a" stroke="none" /><path d="M 92.91201910852362 80.23233633223022 l -7.543314941513277 -21.03754439902807 a43.349046392361686,43.349046392361686 0 0,0 0.7045623638289792,-0.24580797429527268 l 7.180070573621013 21.164273226495556" fill="#f1ff19" stroke="none" /><path d="M 95.692805502759 79.44645832069477 l -1.2204854437884387 -5.824045896687396 a26.950554203199964,26.950554203199964 0 0,0 0.45486579490908197,-0.09124179930353427 l 1.1200532394122205 5.844191652068141" fill="#ff3104" stroke="none" /><path d="M 96.04723909329186 79.375362276772 l -1.9632740237647912 -10.24393239238306 a31.430368917354002,31.430368917354002 0 0,0 0.5322282158355741,-0.09726130452681107 l 1.7866506868263237 10.276209178260606" fill="#ff710a" stroke="none" /><path d="M 96.40284397218896 79.31037775812273 l -0.5283644371339388 -3.0389731570791816 a24.084562663956703,24.084562663956703 0 0,0 0.4090600040548187,-0.06749840563040879 l 0.4759752269402345 3.0476178256492177" fill="#ff0701" stroke="none" /><path d="M 96.75951476605007 79.25152402106235 l -2.986694578199049 -19.12348189800268 a40.355306879682374,40.355306879682374 0 0,0 0.6872528354521701,-0.10128320313981229 l 2.65707276231823 19.17205958530346" fill="#ffe815" stroke="none" /><path d="M 97.11714578562143 79.19881850522333 l -2.045380057425827 -14.758402137751771 a35.89946352184908,35.89946352184908 0 0,0 0.6128299489072535,-0.07956291570546489 l 1.7910353800107157 14.791423376621372" fill="#ffae10" stroke="none" /><path d="M 97.47563105711357 79.15227682838746 l -1.7887802540200957 -14.772799220076411 a35.88070332994588,35.88070332994588 0 0,0 0.6137877779812523,-0.0689662085103613 l 1.5342257725291253 14.80140138205737" fill="#ffad10" stroke="none" /><path d="M 97.83486435360386 79.11191278185805 l -2.3093671555421937 -22.279556776948372 a43.39892468035828,43.39892468035828 0 0,0 0.7437229763697305,-0.07062545807513983 l 1.925519052082227 22.316007779538694" fill="#f0ff19" stroke="none" /><path d="M 98.19473922651362 79.07773832637324 l -0.2505981661717899 -2.9043340909976 a23.915125375180203,23.915125375180203 0 0,0 0.4104402765640349,-0.031858064861939095 l 0.20056770024542084 2.908217418048001" fill="#ff0400" stroke="none" /><path d="M 98.55514903715128 79.0497635885617 l -2.1612632035537267 -31.33816305352324 a52.412601328197006,52.412601328197006 0 0,0 0.900593127535822,-0.05432623686610755 l 1.6215080271782818 31.370722559769654" fill="#87ff25" stroke="none" /><path d="M 98.91598698831166 79.02799685794201 l -1.1586537109900648 -22.41604944353475 a43.44597405052821,43.44597405052821 0 0,0 0.7471862773392282,-0.03217541285031684 l 0.7726266012615124 22.43267258290926" fill="#f0ff19" stroke="none" /><path d="M 99.27714615592234 79.0124445844662 l -0.7687981904549563 -22.32151735476138 a43.33475291281639,43.33475291281639 0 0,0 0.7457154987191894,-0.0192596312568953 l 0.384456056540888 22.331443778160637" fill="#f1ff19" stroke="none" /><path d="M 99.63851952072746 79.00311137660856 l -0.14157223686244808 -8.22333890767036 a29.224557464608985,29.224557464608985 0 0,0 0.5030527161349818,-0.004329933547184232 l 2.014435594687373e-15 8.224557464608985" fill="#ff5207" stroke="none" /></svg>