<?xml version="1.0" encoding="utf-8" ?>
<svg baseProfile="full" height="200mm" version="1.1" viewBox="0,0,200,200" width="200mm" xmlns="http://www.w3.org/2000/svg" xmlns:ev="http://www.w3.org/2001/xml-events" xmlns:xlink="http://www.w3.org/1999/xlink"><defs /><rect fill="#1a1a1a" height="200" width="200" x="0" y="0" /><text alignment-baseline="middle" fill="#e1ed5e" style="dominant-baseline: central; font-size:9.0px; font-family:Arial;" text-anchor="middle" x="100.0" y="100.0">2024</text><line stroke="#e1ed5e" stroke-width="0.3" x1="100.0" x2="100.0" y1="15.0" y2="10.0" /><path d="M 100.0 14.0 a86.0,86.0 0 0,1 42.35913384403234,11.155469271406648" fill="none" id="id133" stroke="none" /><text fill="#e1ed5e" style="font-size:6.75px; font-family:Arial;" text-anchor="middle"><textPath startOffset="22.145653131862478" xlink:href="#id133">January</textPath></text><path d="M 100.0 79.0 l 0.0 -25.49707532171461 a46.49707532171461,46.49707532171461 0 0,0 0.7981841276020193,0.006851450758191321 l -0.43769120275316453 25.493318269150855" fill="#c1ff1e" stroke="none" /><path d="M 100.36049292484886 79.00309439819443 l 0.18192581423259932 -10.596266624580991 a31.597828238893722,31.597828238893722 0 0,0 0.5422588857893739,0.013966665373244673 l -0.36379801409271456 10.5915822418577" fill="#ff830c" stroke="none" /><path d="M 100.72087961077811 79.0123766808444 l 1.0195288085000596 -29.682468855972303 a50.69997300296967,50.69997300296967 0 0,0 0.8695630578048922,0.037342779201697755 l -1.528917626905788 29.660593508344775" fill="#92ff23" stroke="none" /><path d="M 101.08105385017728 79.02784411241856 l 1.4919172236585772 -28.942795570086073 a49.98122206557279,49.98122206557279 0 0,0 0.856477383219903,0.05152355255354886 l -1.9885389590109426 28.91292003970783" fill="#9aff23" stroke="none" /><path d="M 101.44090949804482 79.04949213459386 l 1.8249849037389747 -26.534879971234453 a47.59756426793052,47.59756426793052 0 0,0 0.8146685890986998,0.06306050112048912 l -2.280222487612908 26.49964170311891" fill="#b4ff20" stroke="none" /><path d="M 101.80034050326958 79.07731436759882 l 2.81599889619609 -32.726175709149814 a53.84710681824999,53.84710681824999 0 0,0 0.9202738165487508,0.08715088723224622 l -3.3773722761298535 32.67301306641239" fill="#70ff27" stroke="none" /><path d="M 102.15924093988457 79.11130261209362 l 0.9616546804647741 -9.30313669069573 a30.35270720220776,30.35270720220776 0 0,0 0.5178231085606652,0.05802315938986757 l -1.121213690626236 9.285257770798893" fill="#ff720a" stroke="none" /><path d="M 102.51750503828377 79.15144685158666 l 4.532747545157237 -37.537652027093436 a58.810330863605,58.810330863605 0 0,0 1.001237980270441,0.12963030202870485 l -5.17646334731847 37.454310128864336" fill="#3dff2e" stroke="none" /><path d="M 102.87502721639298 79.19773525538626 l 4.884708928112858 -35.34332048879389 a56.67927527971923,56.67927527971923 0 0,0 0.9626702154584275,0.1414793703028604 l -5.490704249178968 35.25426004519215" fill="#53ff2b" stroke="none" /><path d="M 103.23170211078529 79.25015418208739 l 4.128672242791005 -26.509037508346136 a47.828622851486344,47.828622851486344 0 0,0 0.8101770069649378,0.133314318187572 l -4.5831267528090125 26.434257191662898" fill="#b2ff20" stroke="none" /><path d="M 103.58742460773223 79.30868818359171 l 3.724305673846017 -21.480805431024823 a42.80127186009539,42.80127186009539 0 0,0 0.7228630708864058,0.13172973135133362 l -4.092503478283477 21.413707525742122" fill="#ecff1a" stroke="none" /><path d="M 103.94208987418118 79.37332000966035 l 1.6584518848543952 -8.677721056619182 a29.834778174400817,29.834778174400817 0 0,0 0.5022237589549995,0.10045881738769731 l -1.8071721293403515 8.647972842568626" fill="#ff6b09" stroke="none" /><path d="M 104.29559338865022 79.4440306129975 l 7.7390519661950075 -37.0341652265915 a58.834142244353124,58.834142244353124 0 0,0 0.986837908782717,0.21507672914535086 l -8.373652291596859 36.895857039312425" fill="#3dff2e" stroke="none" /><path d="M 104.64783097203109 79.52079915486377 l 5.886574055886744 -25.937331436042296 a47.596934337222905,47.596934337222905 0 0,0 0.7952492304516913,0.18767665303520706 l -6.33095544007832 25.832458639360862" fill="#b4ff20" stroke="none" /><path d="M 104.9986988182912 79.60360301121754 l 6.333504496079488 -25.842859657713124 a47.60764315925248,47.60764315925248 0 0,0 0.7920885010408133,0.20134579952658638 l -6.776198290345696 25.73032862635127" fill="#b4ff20" stroke="none" /><path d="M 105.3480935250658 79.69241777938227 l 7.116235457329211 -27.02150513517993 a48.94284428712841,48.94284428712841 0 0,0 0.810630073058118,0.22094083112380825 l -7.579046931322021 26.89536380991198" fill="#a5ff21" stroke="none" /><path d="M 105.69591212413111 79.78721728523813 l 6.290329086660797 -22.322158815330504 a44.1915289318175,44.1915289318175 0 0,0 0.7284026322522513,0.21202739039492455 l -6.672591731294652 22.210887730633065" fill="#dcff1b" stroke="none" /><path d="M 106.04205211174951 79.88797359093562 l 2.6493901001756095 -8.818957976053731 a30.20832708402076,30.20832708402076 0 0,0 0.49535811412667535,0.15346320999886787 l -2.800388847173915 8.772178178248216" fill="#ff700a" stroke="none" /><path d="M 106.38641147887787 79.99465700312896 l 8.836033327886827 -27.678748549289967 a50.05492395836458,50.05492395836458 0 0,0 0.816317777357673,0.2683398675487886 l -9.309873842892243 27.522987760339156" fill="#99ff23" stroke="none" /><path d="M 106.72888874123014 80.10723608172694 l 8.518320611119496 -25.18290128039496 a47.58458769535351,47.58458769535351 0 0,0 0.7715370214231198,0.268380626295954 l -8.949363404587633 25.032962221530415" fill="#b4ff20" stroke="none" /><path d="M 107.06938296918511 80.22567764915836 l 12.032477031758118 -33.65697975936786 a56.74315025347212,56.74315025347212 0 0,0 0.9144046483378557,0.3357820526937861 l -12.608470831750099 33.44546685766535" fill="#52ff2b" stroke="none" /><path d="M 107.40779381753099 80.34994680014964 l 9.441898404196818 -25.045757282144226 a47.76638569757327,47.76638569757327 0 0,0 0.764780180569365,0.2958334031937138 l -9.87045084725971 24.879983990812473" fill="#b2ff20" stroke="none" /><path d="M 107.74402155503746 80.48000691201159 l 2.794138310964173 -7.043053809867705 a28.577058523562407,28.577058523562407 0 0,0 0.45443720029730406,0.18481565318948054 l -2.9146299724519165 6.994050900098931" fill="#ff5a08" stroke="none" /><path d="M 108.07796709384702 80.6158196554323 l 9.315553233425103 -22.353936552140222 a45.217308096109434,45.217308096109434 0 0,0 0.7139273028515253,0.304733112845746 l -9.697915611447058 22.190728789635074" fill="#d0ff1d" stroke="none" /><path d="M 108.4095320186766 80.7573450057729 l 6.5632541638998 -15.018009948099728 a37.3895371509134,37.3895371509134 0 0,0 0.5859235976093825,0.26207617256338894 l -6.820091164364814 14.903130024626487" fill="#ffcf13" stroke="none" /><path d="M 108.73861861582097 80.90454125486305 l 5.7757663431322275 -12.621091819610267 a34.879893211746705,34.879893211746705 0 0,0 0.5423180377424751,0.2538322249064998 l -5.991573094746207 12.520083363133235" fill="#ffaf10" stroke="none" /><path d="M 109.06512990194946 81.05736502329252 l 1.1956497638921249 -2.4984481504809315 a23.769805321414644,23.769805321414644 0 0,0 0.3665527538274338,0.17929932008973384 l -1.2383627669816257 2.4775550802939765" fill="#ff1602" stroke="none" /><path d="M 109.3889696526874 81.21577127319529 l 12.608374881108352 -25.225195777712244 a49.20073791882893,49.20073791882893 0 0,0 0.7522389341590703,0.3840985596962326 l -13.039541036981001 25.00503926634318" fill="#a2ff22" stroke="none" /><path d="M 109.71004243097381 81.37971332152246 l 6.1763640924138254 -11.843992531335042 a34.357680655127936,34.357680655127936 0 0,0 0.5206189641950226,0.2772002744540725 l -6.378771872395408 11.736221789158396" fill="#ffa80f" stroke="none" /><path d="M 110.02825361518725 81.54914285379988 l 6.6427065312418945 -12.221831833855761 a34.910381857995624,34.910381857995624 0 0,0 0.5240809892582361,0.29069889031539453 l -6.851531708656231 12.106000028107221" fill="#ffaf10" stroke="none" /><path d="M 110.34350942703115 81.72400993836675 l 11.458189571241853 -20.245523069865065 a44.26308906020338,44.26308906020338 0 0,0 0.6580604666838828,0.37993138758299055 l -11.804042505786134 20.0458447850059" fill="#dbff1b" stroke="none" /><line stroke="#e1ed5e" stroke-width="0.3" x1="143.13028292997686" x2="145.6673583964461" y1="26.7553504044142" y2="22.446841604673864" /><path d="M 143.63769802327073 25.89364864446614 a86.0,86.0 0 0,1 29.32050498858742,28.57503671076993" fill="none" id="id134" stroke="none" /><text fill="#e1ed5e" style="font-size:6.75px; font-family:Arial;" text-anchor="middle"><textPath startOffset="20.669276256404974" xlink:href="#id134">February</textPath></text><path d="M 110.65571695917076 81.90426304109057 l 13.49364024542007 -22.915151128252 a47.59290278069412,47.59290278069412 0 0,0 0.7004479652313883,0.42059887761675524 l -13.885020967208892 22.680138250099322" fill="#b4ff20" stroke="none" /><path d="M 110.96478420261332 82.08984904055464 l 12.232722022485367 -19.981232098979863 a44.428382877883436,44.428382877883436 0 0,0 0.647037770662938,0.4037994236002834 l -12.573923921938018 19.768296878538035" fill="#d9ff1c" stroke="none" /><path d="M 111.27062007382361 82.28071324371311 l 18.947908038679955 -29.78925860067798 a56.3047184809671,56.3047184809671 0 0,0 0.8110945862960456,0.5257417114703125 l -19.45648825723301 29.459603047503773" fill="#56ff2a" stroke="none" /><path d="M 111.5731344415666 82.4767994020092 l 3.146065139732225 -4.7635436031806035 a26.708684044755078,26.708684044755078 0 0,0 0.38041269227764996,0.2559586366434471 l -3.2273741201068757 4.708835292480038" fill="#ff4006" stroke="none" /><path d="M 111.8722381534696 82.67804972795209 l 15.461295840444029 -22.558492697632058 a48.34844167141614,48.34844167141614 0 0,0 0.6805731758176055,0.47509293269715075 l -15.846264107435395 22.289754949129783" fill="#acff21" stroke="none" /><path d="M 112.16784306229584 82.88440491214696 l 15.405860968611686 -21.67027278117816 a47.58836727959925,47.58836727959925 0 0,0 0.6617479490924333,0.4790544825962901 l -15.775589928078087 21.402617527208793" fill="#b4ff20" stroke="none" /><path d="M 112.45986205192187 83.09580414077388 l 15.78665306863473 -21.417626802111542 a47.60701322854486,47.60701322854486 0 0,0 0.6536828557779294,0.4905358014974975 l -16.151988913323425 21.14347197335003" fill="#b4ff20" stroke="none" /><path d="M 112.7482090630111 83.31218511350987 l 18.088024934687454 -23.677805272906745 a50.79622641509434,50.79622641509434 0 0,0 0.6883857565615854,0.5352929279663134 l -18.491820635884267 23.363811293319642" fill="#91ff24" stroke="none" /><path d="M 113.03279911837588 83.53348406188908 l 3.483753172261186 -4.401608327914751 a26.613438521762607,26.613438521762607 0 0,0 0.3557953506277387,0.2866035490343261 l -3.558799293244184 4.341156485087017" fill="#ff3e05" stroke="none" /><path d="M 113.31354834802062 83.75963576809568 l 16.859727785615 -20.566126545058406 a47.59353271140174,47.59353271140174 0 0,0 0.627386256305787,0.5233879287757184 l -17.21028837608268 20.27367643237082" fill="#b4ff20" stroke="none" /><path d="M 113.59037401385872 83.9905735841838 l 17.207597777993726 -20.270506914587443 a47.589375168731436,47.589375168731436 0 0,0 0.6182551472044634,0.5340340709928247 l -17.553032404961048 19.972128711129898" fill="#b4ff20" stroke="none" /><path d="M 113.86319453409587 84.22622945171908 l 19.83330480224519 -22.56666011540874 a51.043537210906806,51.043537210906806 0 0,0 0.6531992192006224,0.5840947696354563 l -20.21776904826919 22.2228698158899" fill="#8eff24" stroke="none" /><path d="M 114.13192950727249 84.46653392183569 l 15.390013329802516 -16.91632058297206 a43.869508354081056,43.869508354081056 0 0,0 0.5526936122658643,0.5115649562767608 l -15.678136713382344 16.649637880562924" fill="#e0ff1b" stroke="none" /><path d="M 114.39649973595853 84.71141617570332 l 7.259529026647787 -7.709368255090649 a31.589387167411587,31.589387167411587 0 0,0 0.3915993635395461,0.3751433319349057 l -7.390800876052645 7.583612792850163" fill="#ff830c" stroke="none" /><path d="M 114.91283532996326 85.21462403516908 l 18.874888979586327 -18.713566111530003 a47.57929627740948,47.57929627740948 0 0,0 0.5700751873977272,0.5849473631529946 l -19.193350968134865 18.38679605630927" fill="#b5ff20" stroke="none" /><path d="M 115.16444852881244 85.47280134310134 l 19.498031881972306 -18.67867347960443 a48.00122386537481,48.00122386537481 0 0,0 0.5649153548498665,0.5999205303135117 l -19.81580307055843 18.341211489346424" fill="#b0ff20" stroke="none" /><path d="M 115.41159269507618 85.73525988315684 l 10.215375222218503 -9.455198798988604 a34.9195788463269,34.9195788463269 0 0,0 0.40340810065486876,0.44341616931745576 l -10.37618102371525 9.278445054113478" fill="#ffaf10" stroke="none" /><path d="M 115.6541949942343 86.00192230759917 l 11.286027987174121 -10.092035819233189 a36.1401325854156,36.1401325854156 0 0,0 0.40956912868564493,0.4660144848763039 l -11.457608179818356 9.896809056545587" fill="#ffbf11" stroke="none" /><path d="M 115.8921839302757 86.27271002978787 l 4.956862600324169 -4.281619855123906 a27.550019497855235,27.550019497855235 0 0,0 0.30607472973022315,0.36055526200824434 l -5.029631893561505 4.19589781066611" fill="#ff4c07" stroke="none" /><path d="M 116.1254893667686 86.54754324733833 l 11.625328051269456 -9.698262129488848 a36.13950265470798,36.13950265470798 0 0,0 0.3933237277555987,0.4797909943182743 l -11.79009859826368 9.497268853472077" fill="#ffbf11" stroke="none" /><path d="M 116.35404254752997 86.82634096563983 l 10.807394154816103 -8.705671715828313 a34.87762546119927,34.87762546119927 0 0,0 0.37158550643718785,0.4694861486426027 l -10.95524609189485 8.518865623271031" fill="#ffaf10" stroke="none" /><path d="M 116.57777611688842 87.10902102172516 l 5.179852630529336 -4.027884735558153 a27.561610222875483,27.561610222875483 0 0,0 0.28722875705750595,0.3759916631552448 l -5.248233364941148 3.9383721591620264" fill="#ff4c07" stroke="none" /><path d="M 116.7966241395341 87.39550010848427 l 3.2054510836522794 -2.4054302519669775 a25.007619161892194,25.007619161892194 0 0,0 0.2547180587497886,0.34557396671370944 l -3.2462711619858937 2.350049975984393" fill="#ff2803" stroke="none" /><path d="M 117.01052211995028 87.68569379921539 l 43.49482892335345 -31.486901914947374 a74.69567147613763,74.69567147613763 0 0,0 0.7429903798348304,1.0451090164721217 l -44.028934401718246 30.73561567176575" fill="#41ffd2" stroke="none" /><path d="M 117.21940702142032 87.97951657250589 l 7.238586855391439 -5.05309580204885 a29.827848936616974,29.827848936616974 0 0,0 0.28948674961926824,0.42236981911084154 l -7.324263341826033 4.92809124786796" fill="#ff6b09" stroke="none" /><path d="M 117.42321728460499 88.27688183743584 l 7.3321029272497045 -4.933366070810588 a29.837297897231302,29.837297897231302 0 0,0 0.2822829476581867,0.4274123611180414 l -7.415710313828615 4.806773831353488" fill="#ff6b09" stroke="none" /><path d="M 117.62189284568427 88.57770195909679 l 12.709942847806941 -8.2384313967754 a36.146431892491826,36.146431892491826 0 0,0 0.33303309914508905,0.5235833471835594 l -12.84949363857792 8.01903437491317" fill="#ffbf11" stroke="none" /><line stroke="#e1ed5e" stroke-width="0.3" x1="172.87174338648825" x2="177.1583165268699" y1="56.24261187166439" y2="53.66864786411523" /><path d="M 173.72905801456457 55.72781907015455 a86.0,86.0 0 0,1 12.242430191666344,42.057860355516425" fill="none" id="id135" stroke="none" /><text fill="#e1ed5e" style="font-size:6.75px; font-family:Arial;" text-anchor="middle"><textPath startOffset="22.145653131862474" xlink:href="#id135">March</textPath></text><path d="M 118.00360718960297 89.18935116829356 l 10.818149758547225 -6.495988099318389 a33.61864594894561,33.61864594894561 0 0,0 0.2928444844715017,0.49731395655202454 l -10.928067953148494 6.309322974472808" fill="#ff9e0e" stroke="none" /><path d="M 118.18653347947321 89.5 l 16.83960510676963 -9.722350541440443 a40.44470108288088,40.44470108288088 0 0,0 0.3419823559049271,0.6042500547675593 l -17.00402082769593 9.431843716573766" fill="#fff517" stroke="none" /><path d="M 118.36410011445183 89.81374322990088 l 15.68106966727755 -8.698025008859513 a38.9318594954555,38.9318594954555 0 0,0 0.3191571742983237,0.5872132532872094 l -15.828072191191215 8.4275569220977" fill="#ffe215" stroke="none" /><path d="M 118.53625476483649 90.13048839642627 l 18.362218476586385 -9.77684708271346 a41.80283168851426,41.80283168851426 0 0,0 0.3318187969749438,0.6363062951478056 l -18.52734534253627 9.460194544461157" fill="#f8ff18" stroke="none" /><path d="M 118.70294669586156 90.45014215332178 l 8.061392479012346 -4.1162044394792385 a30.05147433782284,30.05147433782284 0 0,0 0.23065234485169256,0.4614591975838294 l -8.130864737075775 3.977213385731658" fill="#ff6e0a" stroke="none" /><path d="M 118.8641267826498 90.77261029715802 l 21.163222295680562 -10.351992527410678 a44.55940846506884,44.55940846506884 0 0,0 0.33020801000959016,0.6900077403911802 l -21.337809563650065 9.987172284954394" fill="#d7ff1c" stroke="none" /><path d="M 119.0197475246899 91.09779779509293 l 24.076351967540983 -11.268948407087578 a47.58307586165522,47.58307586165522 0 0,0 0.33991431377280446,0.7427741203602424 l -24.26625074616884 10.853985304512651" fill="#b4ff20" stroke="none" /><path d="M 119.16976305983485 91.42560881287824 l 24.63288964369863 -11.017978219919222 a47.984719680835106,47.984719680835106 0 0,0 0.32987465251552606,0.7548177610358636 l -24.818398178231128 10.593498389107507" fill="#b0ff20" stroke="none" /><path d="M 119.31412917781788 91.75594674310238 l 14.03557889017656 -5.990954021105724 a36.26070132285449,36.26070132285449 0 0,0 0.23944867297436537,0.5745896469097916 l -14.136353407687407 5.749131864754654" fill="#ffc011" stroke="none" /><path d="M 119.4528033332814 92.08871423366111 l 8.438981683012333 -3.4320603836561854 a30.110183879773224,30.110183879773224 0 0,0 0.1906137019995568,0.4804710471249767 l -8.496654059978015 3.2866883193176433" fill="#ff6f0a" stroke="none" /><path d="M 119.58574465831526 92.42381321644754 l 24.79564556364593 -9.59148837515297 a47.58609952905181,47.58609952905181 0 0,0 0.2881662731927375,0.7643952758565251 l -24.95664252065311 9.164424819102289" fill="#b4ff20" stroke="none" /><path d="M 119.71291397450082 92.76114493625339 l 11.843004501943867 -4.3489152958189745 a33.616252212256654,33.616252212256654 0 0,0 0.19426965010663735,0.5434067868354194 l -11.915914322094448 4.144973552602638" fill="#ff9e0e" stroke="none" /><path d="M 119.83427380445688 93.10060997987247 l 15.576363257347785 -5.418267705040847 a37.49183789783124,37.49183789783124 0 0,0 0.2062311356783431,0.6096857077616922 l -15.667079814598493 5.150080322804993" fill="#ffd013" stroke="none" /><path d="M 119.94978838288452 93.4421083053983 l 11.98603058099021 -3.9400463247897575 a33.6170081291058,33.6170081291058 0 0,0 0.17550524956917954,0.5497676945801573 l -12.051900546336647 3.733709596518213" fill="#ff9e0e" stroke="none" /><path d="M 120.05942366710727 93.78553927170692 l 2.4182986986862667 -0.7491951185472558 a23.531691513933467,23.531691513933467 0 0,0 0.11622826858879015,0.386886104936405 l -2.4308032872786844 0.7075714100201274" fill="#ff1202" stroke="none" /><path d="M 120.16314734710363 94.1308016681162 l 25.525188517305292 -7.430010369304163 a47.58458769535351,47.58458769535351 0 0,0 0.2215663208981407,0.7862607083157072 l -25.648973330278018 6.990741737085442" fill="#b4ff20" stroke="none" /><path d="M 120.26092885502905 94.47779374421319 l 9.812301537764167 -2.6743864174844187 a31.170231274559796,31.170231274559796 0 0,0 0.13627405317876043,0.5174547764533456 l -9.856765071747658 2.5055511366582746" fill="#ff7d0b" stroke="none" /><path d="M 120.35273937422433 94.82641323984039 l 6.179022563713723 -1.5706833728162528 a27.375528691843897,27.375528691843897 0 0,0 0.11186484904625542,0.45644675808205326 l -6.20507493927627 1.4643807901261046" fill="#ff4906" stroke="none" /><path d="M 120.43855184770803 95.1765574152323 l 6.146218384175933 -1.450490803380516 a27.31505534391217,27.31505534391217 0 0,0 0.10378308249501964,0.4572874107368972 l -6.170212328228619 1.3447690587045924" fill="#ff4806" stroke="none" /><path d="M 120.51834098615036 95.52812308129327 l 4.091850932721148 -0.8917998659431295 a25.187905330413656,25.187905330413656 0 0,0 0.08844827612399221,0.42325701988969755 l -4.106556919669507 0.8214263947680275" fill="#ff2a04" stroke="none" /><path d="M 120.592083275326 95.88100663000786 l 16.08056580745769 -3.2165635240027393 a37.39911209766926,37.39911209766926 0 0,0 0.12052078957164376,0.6306156982769628 l -16.13341288931149 2.940045260692462" fill="#ffcf13" stroke="none" /><path d="M 120.7213421655516 96.59031103205396 l 16.167706484331614 -2.6603899494628958 a37.385127635960046,37.385127635960046 0 0,0 0.09876529035540803,0.6341440135204975 l -16.210993266825284 2.382457754010957" fill="#ffcf13" stroke="none" /><path d="M 120.77682067341334 96.94652285012252 l 13.13594652588814 -1.9305317781434363 a34.2770495245523,34.2770495245523 0 0,0 0.08056001668310481,0.5828921497915391 l -13.167151059126459 1.7047513201518116" fill="#ffa70f" stroke="none" /><path d="M 120.82617615685814 97.30363454192243 l 8.767897002174875 -1.135179806344863 a29.841077481477036,29.841077481477036 0 0,0 0.061412814881579424,0.5085862056209041 l -8.78609190331612 0.984499923800546" fill="#ff6b09" stroke="none" /><path d="M 120.86939407059847 97.66154086499901 l 26.420877006017594 -2.960514377200004 a47.586225515193334,47.586225515193334 0 0,0 0.0839955966988626,0.8125812033987101 l -26.467804995198122 2.5065286515183627" fill="#b4ff20" stroke="none" /><path d="M 120.9064616781168 98.02013634271609 l 15.309246818665502 -1.4498015906915285 a36.377742448330686,36.377742448330686 0 0,0 0.05353829683392946,0.6221961634013969 l -15.33187873819717 1.1867843799144695" fill="#ffc212" stroke="none" /><path d="M 120.93736805541906 98.37931529534042 l 12.902950603766126 -0.9987699806943701 a33.941548429672736,33.941548429672736 0 0,0 0.039979974289246434,0.5813000517674254 l -12.918194539220439 0.7771265047726105" fill="#ffa20f" stroke="none" /><path d="M 120.96210409425399 98.7389718711861 l 20.223899990505785 -1.216619603054919 a41.260461349251585,41.260461349251585 0 0,0 0.03646326575860126,0.7073776144771319 l -20.241804845720957 0.8692701952010564" fill="#ffff18" stroke="none" /><path d="M 120.98066250479742 99.09900007780936 l 2.5487442484905234 -0.10945404460172362 a23.55109337972823,23.55109337972823 0 0,0 0.013878673911456885,0.404062447970548 l -2.5502476093988284 0.06568533206705564" fill="#ff1302" stroke="none" /><path d="M 120.99303781780057 99.45929381324524 l 26.57930048335863 -0.6845884971816596 a47.588115307316194,47.588115307316194 0 0,0 0.01402391936523307,0.8168229964638953 l -26.587135834322527 0.22821858474869777" fill="#b4ff20" stroke="none" /><line stroke="#e1ed5e" stroke-width="0.3" x1="184.99686870605535" x2="189.99668451229388" y1="99.2704041080226" y2="99.22748670261217" /><path d="M 185.99683186730306 99.26182062694052 a86.0,86.0 0 0,1 -10.086455211305974,41.156179273409016" fill="none" id="id136" stroke="none" /><text fill="#e1ed5e" style="font-size:6.75px; font-family:Arial;" text-anchor="middle"><textPath startOffset="21.40746469413373" xlink:href="#id136">April</textPath></text><path d="M 120.99922638620191 99.81974689727618 l 26.596206502347886 -0.22829644552438919 a47.59718630950596,47.59718630950596 0 0,0 0.0,0.8170990964964289 l -26.596206502347886 -0.22829644552438597" fill="#b4ff20" stroke="none" /><path d="M 120.99922638620191 100.18025310272382 l 1.2788382100749063 0.010977287972820321 a22.278885322614514,22.278885322614514 0 0,0 -0.0065654478916392115,0.382404424919419 l -1.2784613305845989 -0.03292862886131037" fill="#ff0000" stroke="none" /><path d="M 120.99303781780057 100.54070618675476 l 3.6561651489381193 0.09416984492600125 a24.657377688454268,24.657377688454268 0 0,0 -0.014530607939600586,0.4230427958774639 l -3.6540098540016728 -0.15691890536757583" fill="#ff2303" stroke="none" /><path d="M 120.98066250479742 100.90099992219065 l 4.093044865050861 0.17577295779341495 a25.09681735009149,25.09681735009149 0 0,0 -0.02217890665316228,0.43026486392881863 l -4.089424368941127 -0.24600961509896418" fill="#ff2904" stroke="none" /><path d="M 120.96210409425399 101.26102812881392 l 12.590970164782133 0.7574414989762065 a33.61373248942616,33.61373248942616 0 0,0 -0.0395938377259774,0.5756857108828052 l -12.57611236589109 -0.9734706340133552" fill="#ff9e0e" stroke="none" /><path d="M 120.93736805541906 101.62068470465957 l 15.075131098605867 1.1669104888245392 a36.120226775054746,36.120226775054746 0 0,0 -0.05315930271204796,0.6177916772199001 l -15.052878173196078 -1.4255232134200966" fill="#ffbf11" stroke="none" /><path d="M 120.9064616781168 101.97986365728391 l 18.840210667616184 1.7841875383164283 a39.92450430452651,39.92450430452651 0 0,0 -0.07047170742496296,0.6817498425570878 l -18.806806567709557 -2.1073419031564478" fill="#ffef16" stroke="none" /><path d="M 120.86939407059847 102.33845913500097 l 19.287208913744806 2.161171988053101 a40.40791312955575,40.40791312955575 0 0,0 -0.08315931924095928,0.688678457685601 l -19.247267508244185 -2.491944122662111" fill="#fff517" stroke="none" /><path d="M 120.77682067341334 103.0534771498775 l 19.056689136123815 2.800677049878631 a40.26139124696283,40.26139124696283 0 0,0 -0.1063639005151864,0.6829325416214196 l -19.00580374347036 -3.127397773431501" fill="#fff316" stroke="none" /><path d="M 120.7213421655516 103.40968896794604 l 19.407960757632164 3.1935725570731335 a40.66895641479437,40.66895641479437 0 0,0 -0.11926690967645139,0.6878998410659003 l -19.35027903046348 -3.5262654310596218" fill="#fff817" stroke="none" /><path d="M 120.65975698304385 103.76489593502545 l 17.35650124104485 3.162932701594946 a38.64234334223235,38.64234334223235 0 0,0 -0.12452717375593723,0.6515787932660215 l -17.299647775006754 -3.460414059894282" fill="#ffdf14" stroke="none" /><path d="M 120.592083275326 104.11899336999214 l 16.66416362005414 3.333299431132009 a37.99427063023067,37.99427063023067 0 0,0 -0.13341830913484887,0.6384549071818265 l -16.604487600094927 -3.618870789599245" fill="#ffd714" stroke="none" /><path d="M 120.51834098615036 104.47187691870673 l 8.690613274273122 1.8940787141056166 a29.89462159162492,29.89462159162492 0 0,0 -0.11358410004073359,0.5004725024524124 l -8.656818312674725 -2.042985550497046" fill="#ff6c0a" stroke="none" /><path d="M 120.43855184770803 104.8234425847677 l 26.4695094781458 6.246732164104779 a48.1966283708792,48.1966283708792 0 0,0 -0.19694628067047684,0.8036080332186367 l -26.358375670959028 -6.700196021931516" fill="#aeff20" stroke="none" /><path d="M 120.35273937422433 105.17358676015961 l 25.778996912638277 6.552920207209391 a47.59882412934577,47.59882412934577 0 0,0 -0.2080987026856937,0.7901846695438175 l -25.66270872914785 -6.994485381126012" fill="#b4ff20" stroke="none" /><path d="M 120.26092885502905 105.52220625578681 l 21.640667904334236 5.8982602691019554 a43.430068692443825,43.430068692443825 0 0,0 -0.20222179076436872,0.7176137952679065 l -21.53622762149529 -6.26888198827287" fill="#e5ff1a" stroke="none" /><path d="M 120.16314734710363 105.8691983318838 l 19.369855087438374 5.638282516660509 a41.17378288388278,41.17378288388278 0 0,0 -0.20336648952799463,0.676940902272601 l -19.270212277906747 -5.969961022523834" fill="#fffe18" stroke="none" /><path d="M 120.05942366710727 106.21446072829308 l 4.33837611782234 1.344040011128567 a25.541800401955783,25.541800401955783 0 0,0 -0.1333467879347166,0.4177069139669278 l -4.3146646141103675 -1.4183159587868783" fill="#ff2f04" stroke="none" /><path d="M 119.94978838288452 106.5578916946017 l 26.493596642981178 8.708971446243094 a48.88829228784834,48.88829228784834 0 0,0 -0.26891954636560955,0.795012854958001 l -26.340191675043204 -9.162485975675255" fill="#a6ff21" stroke="none" /><path d="M 119.83427380445688 106.89939002012753 l 25.13360718107438 8.742773255249944 a47.61079281279059,47.61079281279059 0 0,0 -0.275144653325396,0.769628564711089 l -24.979822357705043 -9.172936776341952" fill="#b4ff20" stroke="none" /><path d="M 119.71291397450082 107.23885506374661 l 20.16882352468052 7.406271365577867 a42.48567657557669,42.48567657557669 0 0,0 -0.2572797351331869,0.6824650641120963 l -20.03871310573289 -7.751404709884122" fill="#f0ff19" stroke="none" /><path d="M 119.58574465831526 107.57618678355244 l 12.962182691796198 5.014050724585826 a34.89816120226775,34.89816120226775 0 0,0 -0.22092418054644108,0.5568732533331897 l -12.874199836283632 -5.23582499513258" fill="#ffaf10" stroke="none" /><path d="M 119.4528033332814 107.91128576633889 l 17.725467687387052 7.20879339673405 a40.135279119296875,40.135279119296875 0 0,0 -0.2650345683886153,0.635986481685824 l -17.599107274461954 -7.5120123878611516" fill="#fff116" stroke="none" /><path d="M 119.31412917781788 108.2440532568976 l 2.695646885999071 1.1506113625609138 a23.930941596424393,23.930941596424393 0 0,0 -0.16451510180735754,0.3764427483465703 l -2.675497902174748 -1.1967161806833289" fill="#ff1802" stroke="none" /><path d="M 119.16976305983485 108.57439118712176 l 28.762982519511024 12.86531623060955 a52.50913399526052,52.50913399526052 0 0,0 -0.375104087442694,0.8196701265719825 l -28.53789396721327 -13.35717533939622" fill="#7eff26" stroke="none" /><path d="M 119.0197475246899 108.90220220490707 l 24.077493026875946 11.2694824804718 a47.58433572307047,47.58433572307047 0 0,0 -0.3526242683194712,0.7368490987942571 l -23.88048950059656 -11.68114408133116" fill="#b4ff20" stroke="none" /><path d="M 118.8641267826498 109.22738970284198 l 20.389689544926675 9.973618896796491 a43.69829318774934,43.69829318774934 0 0,0 -0.33539498516669547,0.6710146425269506 l -20.215474646548248 -10.322165395487188" fill="#e2ff1b" stroke="none" /><path d="M 118.70294669586154 109.54985784667822 l 14.599036473579183 7.4543720456628 a37.39205687374389,37.39205687374389 0 0,0 -0.2968073412039472,0.5691672122734444 l -14.468921063400286 -7.703885501040747" fill="#ffcf13" stroke="none" /><path d="M 118.5362547648365 109.86951160357373 l 7.795491250052724 4.150660007862242 a29.831628520862704,29.831628520862704 0 0,0 -0.24455493230543818,0.44995353064592525 l -7.723090968131946 -4.283868371982771" fill="#ff6b09" stroke="none" /><line stroke="#e1ed5e" stroke-width="0.3" x1="174.33088141563837" x2="178.70328620479359" y1="141.23008692659167" y2="143.65538615756765" /><path d="M 175.20536237346943 141.71514677278685 a86.0,86.0 0 0,1 -30.301960400862466,31.631185727798858" fill="none" id="id137" stroke="none" /><text fill="#e1ed5e" style="font-size:6.75px; font-family:Arial;" text-anchor="middle"><textPath startOffset="22.145653131862474" xlink:href="#id137">May</textPath></text><path d="M 118.36410011445183 110.18625677009912 l 18.660904780188602 10.350889314951067 a42.33940666526682,42.33940666526682 0 0,0 -0.3580031413591836,0.6325572475832164 l -18.480468273808043 -10.669703332633405" fill="#f2ff19" stroke="none" /><path d="M 118.18653347947321 110.5 l 46.934862044766774 27.097855235924033 a75.19571047184809,75.19571047184809 0 0,0 -0.6550129681319772,1.1123552194007673 l -46.46277536650503 -27.89956162361835" fill="#42ffd7" stroke="none" /><path d="M 118.00360718960297 110.81064883170644 l 1.7184353144349125 1.0318710316612145 a23.004439511653718,23.004439511653718 0 0,0 -0.2061986893257665,0.3368100625805352 l -1.7004686606537414 -1.0612182103663068" fill="#ff0b01" stroke="none" /><path d="M 117.81537515405839 111.11811171558189 l 21.40335333998837 13.35727546932148 a46.22935477097519,46.22935477097519 0 0,0 -0.4259315369397123,0.6696351214170928 l -21.170904111422768 -13.722724265417245" fill="#c4ff1e" stroke="none" /><path d="M 117.62189284568427 111.42229804090321 l 2.126340887333879 1.3782684734480384 a23.533959264480906,23.533959264480906 0 0,0 -0.22264869339464316,0.3371184994811775 l -2.102367755018509 -1.414566851268277" fill="#ff1202" stroke="none" /><path d="M 117.423217284605 111.72311816256416 l 26.785772836586702 18.02266337551596 a53.2845786963434,53.2845786963434 0 0,0 -0.5171401908469773,0.754522993367583 l -26.472442908924403 -18.479821103953586" fill="#76ff27" stroke="none" /><path d="M 117.21940702142032 112.02048342749411 l 21.804499628665845 15.221234163588536 a47.59176890542041,47.59176890542041 0 0,0 -0.47339056945683927,0.665883120266239 l -21.539993960679045 -15.593294510564279" fill="#b4ff20" stroke="none" /><path d="M 117.01052211995028 112.31430620078461 l 16.525367354025075 11.96309156432344 a41.40106188319285,41.40106188319285 0 0,0 -0.42169540589999555,0.572110807051016 l -16.31756992854125 -12.245008680643334" fill="#fdff18" stroke="none" /><path d="M 116.57777611688842 112.89097897827486 l 19.24060347240073 14.9616096358885 a45.37315295317515,45.37315295317515 0 0,0 -0.4834046411076307,0.6107659724557725 l -18.980932400651536 -15.289695552258957" fill="#ceff1d" stroke="none" /><path d="M 116.35404254752997 113.17365903436017 l 14.737034567052778 11.87111186727681 a39.92362240153583,39.92362240153583 0 0,0 -0.43450813749461886,0.5300292777085298 l -14.531079610319532 -12.122343426683832" fill="#ffef16" stroke="none" /><path d="M 116.1254893667686 113.45245675266167 l 20.416784068338156 17.0324074178959 a47.588493265740766,47.588493265740766 0 0,0 -0.5286978187334472,0.6228047010762447 l -20.121391686097596 -17.3803789014217" fill="#b4ff20" stroke="none" /><path d="M 115.89218393027572 113.72728997021213 l 14.571211987065652 12.586265867639673 a40.254462009178994,40.254462009178994 0 0,0 -0.45619602783257374,0.5190673369236865 l -14.353004895274493 -12.834545482374653" fill="#fff316" stroke="none" /><path d="M 115.6541949942343 113.99807769240083 l 11.307064911184735 10.110847166403593 a36.16835348111708,36.16835348111708 0 0,0 -0.4178345576801239,0.4592733727315144 l -11.131832652662732 -10.303458114692779" fill="#ffbf11" stroke="none" /><path d="M 115.41159269507618 114.26474011684316 l 13.430927735938157 12.431466200275896 a39.301124876263614,39.301124876263614 0 0,0 -0.46252589241768116,0.49118646940776917 l -13.215546009784216 -12.660194129628163" fill="#ffe715" stroke="none" /><path d="M 114.91283532996324 114.78537596483092 l 18.877125658851103 18.715783673992863 a47.5824459309476,47.5824459309476 0 0,0 -0.5800709818238887,0.5751131399756368 l -18.55306275689725 -19.037076824197165" fill="#b4ff20" stroke="none" /><path d="M 114.65682725009322 115.03919595460226 l 17.59452375306807 18.053531363591112 a46.20907100218976,46.20907100218976 0 0,0 -0.5728329802130168,0.5487610370378235 l -17.282018286989743 -18.352904530934516" fill="#c4ff1e" stroke="none" /><path d="M 114.39649973595853 115.28858382429668 l 18.222236639724812 19.351383839278363 a47.58055613882473,47.58055613882473 0 0,0 -0.5994475532694038,0.554839706073821 l -17.887359315141442 -19.661341291484565" fill="#b4ff20" stroke="none" /><path d="M 114.13192950727249 115.5334660781643 l 11.113427025061002 12.215603086408093 a37.51451540330564,37.51451540330564 0 0,0 -0.48006963288768173,0.4292812259844228 l -10.902092365349942 -12.404579842275902" fill="#ffd013" stroke="none" /><path d="M 113.59037401385872 116.0094264158162 l 8.539224534861962 10.059185030492712 a34.19490656027837,34.19490656027837 0 0,0 -0.45076322746765923,0.3760427163032547 l -8.365286973232408 -10.204289930707835" fill="#ffa60f" stroke="none" /><path d="M 113.31354834802062 116.24036423190432 l 16.859727785615004 20.566126545058406 a47.59353271140174,47.59353271140174 0 0,0 -0.6362784592761014,0.5125408870039506 l -16.50419855598365 -20.85251572585576" fill="#b4ff20" stroke="none" /><path d="M 113.03279911837588 116.46651593811092 l 16.502087474745405 20.849848443674823 a47.59013108558058,47.59013108558058 0 0,0 -0.6449370495458099,0.5015069505936944 l -16.141740480564366 -21.13005644588931" fill="#b4ff20" stroke="none" /><path d="M 112.7482090630111 116.68781488649013 l 10.714583487911575 14.02573372842688 a38.650028496865346,38.650028496865346 0 0,0 -0.5306961997897538,0.39824432202025084 l -10.472234299211054 -14.207597077711148" fill="#ffdf14" stroke="none" /><path d="M 112.45986205192187 116.90419585922612 l 0.7856324814212369 1.065861346134724 a22.324114347421784,22.324114347421784 0 0,0 -0.31043168171571983,0.2247285977535328 l -0.7672197893315491 -1.0791907152613338" fill="#ff0100" stroke="none" /><path d="M 112.16784306229584 117.11559508785304 l 15.405349975412317 21.66955400524981 a47.58748537660857,47.58748537660857 0 0,0 -0.6698616321915467,0.46761544334576777 l -15.031093252047013 -21.930814264400702" fill="#b4ff20" stroke="none" /><path d="M 111.8722381534696 117.32195027204791 l 15.036791299575448 21.939127886032903 a47.59756426793052,47.59756426793052 0 0,0 -0.6779337214323552,0.4561440630003877 l -14.65796129004609 -22.194021623090414" fill="#b4ff20" stroke="none" /><path d="M 111.5731344415666 117.5232005979908 l 10.491882843291313 15.886047867316105 a40.03801781804002,40.03801781804002 0 0,0 -0.5767655069479504,0.37385243332049906 l -10.217631704086353 -16.0638141423405" fill="#fff016" stroke="none" /><path d="M 111.27062007382361 117.71928675628689 l 12.17566401711862 19.14216615895 a43.68632450430452,43.68632450430452 0 0,0 -0.6362307197499619,0.3970550245445549 l -11.845269168578943 -19.348356980336106" fill="#e2ff1b" stroke="none" /><path d="M 110.96478420261333 117.91015095944535 l 1.3225364393529173 2.1602638812109602 a23.532951375348713,23.532951375348713 0 0,0 -0.34634592436413847,0.2079707762539813 l -1.285257758431342 -2.1826486580008653" fill="#ff1202" stroke="none" /><line stroke="#e1ed5e" stroke-width="0.3" x1="143.1302829299769" x2="145.66735839644613" y1="173.24464959558577" y2="177.55315839532614" /><path d="M 143.63769802327073 174.10635135553383 a86.0,86.0 0 0,1 -40.68552437913181,11.842963189579606" fill="none" id="id138" stroke="none" /><text fill="#e1ed5e" style="font-size:6.75px; font-family:Arial;" text-anchor="middle"><textPath startOffset="21.407464694133747" xlink:href="#id138">June</textPath></text><path d="M 110.65571695917076 118.09573695890943 l 13.489932463774268 22.908854504418915 a47.5855955844857,47.5855955844857 0 0,0 -0.7074562553726379,0.4084500594792787 l -13.094683740541232 -23.137051461174366" fill="#b4ff20" stroke="none" /><path d="M 110.34350942703117 118.27599006163325 l 13.09437346938825 23.136503241776655 a47.584965653778085,47.584965653778085 0 0,0 -0.7143541418450559,0.39624020062334114 l -12.6952751393871 -23.35787635783314" fill="#b4ff20" stroke="none" /><path d="M 110.02825361518725 118.45085714620011 l 9.641586632646483 17.739433449534975 a41.19028706842247,41.19028706842247 0 0,0 -0.624152858387358,0.33232624154171214 l -9.335644958472571 -17.902330158799256" fill="#fffe18" stroke="none" /><path d="M 109.71004243097381 118.62028667847754 l 7.913202530662523 15.174609247409126 a38.11395746467889,38.11395746467889 0 0,0 -0.5827311530797523,0.2975466788863738 l -7.651544155869188 -15.308213877968337" fill="#ffd814" stroke="none" /><path d="M 109.3889696526874 118.78422872680471 l 8.152634680093366 16.31073059365154 a39.23473017968024,39.23473017968024 0 0,0 -0.6050364400789339,0.2959536416052589 l -7.871437990752363 -16.44827798535402" fill="#ffe615" stroke="none" /><path d="M 109.06512990194946 118.94263497670748 l 1.186621887576179 2.479583361170956 a23.74889162192159,23.74889162192159 0 0,0 -0.3692514832190395,0.1728283387469067 l -1.1438816904856333 -2.499587931488396" fill="#ff1502" stroke="none" /><path d="M 108.73861861582097 119.09545874513695 l 26.2158558474629 57.28637623541085 a84.0,84.0 0 0,0 -1.3163463885774922,0.5887849963605989 l -25.228596056029783 -57.7279649826813" fill="#4dd2ff" stroke="none" /><path d="M 108.4095320186766 119.2426549942271 l 6.0599990306466625 13.86646371678068 a36.132825389207184,36.132825389207184 0 0,0 -0.5704941682882103,0.24351003676205393 l -5.821069787188021 -13.968448403202137" fill="#ffbf11" stroke="none" /><path d="M 108.07796709384702 119.3841803445677 l 6.787896097427384 16.288479587016674 a38.64624891261961,38.64624891261961 0 0,0 -0.6145591626710998,0.24993586132106904 l -6.507282473565843 -16.402602704917033" fill="#ffdf14" stroke="none" /><path d="M 107.74402155503746 119.51999308798841 l 7.441108752212709 18.756454947581737 a41.178570357260696,41.178570357260696 0 0,0 -0.6593036926177515,0.2550328317609949 l -7.118032797101428 -18.881427667480775" fill="#fffe18" stroke="none" /><path d="M 107.407793817531 119.65005319985036 l 0.8927039290442751 2.3680032313969104 a23.53068362480127,23.53068362480127 0 0,0 -0.37919231464892095,0.13924467029992496 l -0.8519224627412272 -2.3829787507055573" fill="#ff1202" stroke="none" /><path d="M 107.06938296918513 119.77432235084164 l 8.587507355794484 24.020786451080877 a46.509673935867056,46.509673935867056 0 0,0 -0.7541083580586108,0.26231803246132707 l -8.173893225690852 -24.164662916110796" fill="#c1ff1e" stroke="none" /><path d="M 106.72888874123015 119.89276391827305 l 12.114623712185761 35.814732377513906 a58.80818909919908,58.80818909919908 0 0,0 -0.9590698860280029,0.31526532108588806 l -11.498031088510023 -36.01741862000181" fill="#3dff2e" stroke="none" /><path d="M 106.38641147887787 120.00534299687104 l 5.83453295986443 18.27659139638551 a40.18529561748208,40.18529561748208 0 0,0 -0.6589610936525152,0.20414783126055663 l -5.519931233340291 -18.37405581545271" fill="#fff216" stroke="none" /><path d="M 106.0420521117495 120.11202640906438 l 7.648396649843387 25.45902494113199 a47.58307586165522,47.58307586165522 0 0,0 -0.7843050137904001,0.22829975893063795 l -7.210231623671381 -25.58656839436515" fill="#b4ff20" stroke="none" /><path d="M 105.69591212413111 120.21278271476187 l 0.6870223070801572 2.437999798903846 a23.532951375348713,23.532951375348713 0 0,0 -0.3897713418688442,0.10623391246252337 l -0.6450695642766179 -2.4494342055105114" fill="#ff1202" stroke="none" /><path d="M 105.3480935250658 120.30758222061773 l 9.628557617089857 36.561201586803115 a58.80781114077452,58.80781114077452 0 0,0 -0.9784351395041487,0.2487143863211007 l -8.999517184360311 -36.72110120495949" fill="#3dff2e" stroke="none" /><path d="M 104.9986988182912 120.39639698878246 l 5.100811002808594 20.813049547481825 a42.42898281189069,42.42898281189069 0 0,0 -0.7089031342007511,0.16729920942821805 l -4.742775714867964 -20.89754490055627" fill="#f1ff19" stroke="none" /><path d="M 104.64783097203109 120.47920084513623 l 4.7000575515710175 20.709320791039826 a42.235972043075265,42.235972043075265 0 0,0 -0.7084331773425986,0.15439971371675748 l -4.343861957609283 -20.786951962890303" fill="#f3ff19" stroke="none" /><path d="M 104.29559338865022 120.5559693870025 l 3.3578482272607455 16.068519322184162 a37.41561628220896,37.41561628220896 0 0,0 -0.6298358024659978,0.12598480007361235 l -3.081515939263789 -16.123793518920635" fill="#ffcf13" stroke="none" /><path d="M 103.58742460773223 120.69131181640829 l 5.431983062336372 31.3302348102306 a52.79764225935147,52.79764225935147 0 0,0 -0.8943480541622446,0.14716463197304377 l -4.893357505121055 -31.418865440699317" fill="#7bff26" stroke="none" /><line stroke="#e1ed5e" stroke-width="0.3" x1="101.45913802915013" x2="101.54496967792366" y1="184.9874750549273" y2="189.98673829345242" /><path d="M 101.47630435890484 185.9873277026323 a86.0,86.0 0 0,1 -42.54439059252881,-10.42667462771756" fill="none" id="id139" stroke="none" /><text fill="#e1ed5e" style="font-size:6.75px; font-family:Arial;" text-anchor="middle"><textPath startOffset="22.145653131862474" xlink:href="#id139">July</textPath></text><line stroke="#e1ed5e" stroke-width="0.3" x1="58.13341422392154" x2="55.67067388415222" y1="173.97424548756322" y2="178.32567169271397" /><path d="M 57.64086615596768 174.84453072859336 a86.0,86.0 0 0,1 -31.369924170532247,-30.572349798747897" fill="none" id="id140" stroke="none" /><text fill="#e1ed5e" style="font-size:6.75px; font-family:Arial;" text-anchor="middle"><textPath startOffset="22.145653131862474" xlink:href="#id140">August</textPath></text><line stroke="#e1ed5e" stroke-width="0.3" x1="26.387840678322732" x2="22.057713659400548" y1="142.50000000000003" y2="145.00000000000006" /><path d="M 25.521815274538298 143.00000000000003 a86.0,86.0 0 0,1 -11.493303480769221,-40.785679425670985" fill="none" id="id141" stroke="none" /><text fill="#e1ed5e" style="font-size:6.75px; font-family:Arial;" text-anchor="middle"><textPath startOffset="21.40746469413373" xlink:href="#id141">September</textPath></text><line stroke="#e1ed5e" stroke-width="0.3" x1="15.003131293944662" x2="10.003315487706104" y1="100.72959589197737" y2="100.7725132973878" /><path d="M 14.003168132696942 100.73817937305945 a86.0,86.0 0 0,1 10.791469493833604,-42.45332614584628" fill="none" id="id142" stroke="none" /><text fill="#e1ed5e" style="font-size:6.75px; font-family:Arial;" text-anchor="middle"><textPath startOffset="22.145653131862435" xlink:href="#id142">October</textPath></text><line stroke="#e1ed5e" stroke-width="0.3" x1="26.387840678322718" x2="22.05771365940052" y1="57.49999999999999" y2="54.99999999999999" /><path d="M 25.521815274538284 56.99999999999999 a86.0,86.0 0 0,1 29.574782752854787,-30.34633250058573" fill="none" id="id143" stroke="none" /><text fill="#e1ed5e" style="font-size:6.75px; font-family:Arial;" text-anchor="middle"><textPath startOffset="21.40746469413373" xlink:href="#id143">November</textPath></text><line stroke="#e1ed5e" stroke-width="0.3" x1="56.869717070023135" x2="54.33264160355391" y1="26.7553504044142" y2="22.446841604673864" /><path d="M 56.362301976729285 25.89364864446614 a86.0,86.0 0 0,1 42.16139366436587,-11.88097634709845" fill="none" id="id144" stroke="none" /><text fill="#e1ed5e" style="font-size:6.75px; font-family:Arial;" text-anchor="middle"><textPath startOffset="22.145653131862474" xlink:href="#id144">December</textPath></text></svg>