<?xml version="1.0" encoding="utf-8" ?>
<svg baseProfile="full" height="200mm" version="1.1" viewBox="0,0,200,200" width="200mm" xmlns="http://www.w3.org/2000/svg" xmlns:ev="http://www.w3.org/2001/xml-events" xmlns:xlink="http://www.w3.org/1999/xlink"><defs /><rect fill="#1a1a1a" height="200" width="200" x="0" y="0" /><text alignment-baseline="middle" fill="#e1ed5e" style="dominant-baseline: central; font-size:9.0px; font-family:Arial;" text-anchor="middle" x="100.0" y="100.0">2026</text><line stroke="#e1ed5e" stroke-width="0.3" x1="100.0" x2="100.0" y1="15.0" y2="10.0" /><path d="M 100.0 14.0 a86.0,86.0 0 0,1 42.46469731375804,11.215312516191453" fill="none" id="id157" stroke="none" /><text fill="#e1ed5e" style="font-size:6.75px; font-family:Arial;" text-anchor="middle"><textPath startOffset="22.20632615414155" xlink:href="#id157">January</textPath></text><path d="M 100.0 79.0 l 0.0 -25.531886219094574 a46.531886219094574,46.531886219094574 0 0,0 0.8009699300920508,0.006894201063533984 l -0.43948945081952234 25.528103394639597" fill="#cdff1d" stroke="none" /><path d="M 100.36148047927253 79.00311137660856 l 0.08562426868328829 -4.973555519845687 a25.97429251495879,25.97429251495879 0 0,0 0.4469722611696866,0.011543974809393454 l -0.17122316504784266 4.971344752893934" fill="#ff1e03" stroke="none" /><path d="M 100.72285384407766 79.0124445844662 l 1.0594618229790822 -30.760732480834747 a51.77897207692018,51.77897207692018 0 0,0 0.8904976407160256,0.038346701620778356 l -1.5888002960844392 30.737938052689774" fill="#90ff24" stroke="none" /><path d="M 101.08401301168833 79.027996857942 l 2.5029276273010095 -48.42322508873412 a69.48786832499152,69.48786832499152 0 0,0 1.193993335090132,0.07202493862699957 l -3.336083011230753 48.37296688072682" fill="#3aff96" stroke="none" /><path d="M 101.44485096284872 79.0497635885617 l 0.5104595433558166 -7.401627148238219 a28.419208407029693,28.419208407029693 0 0,0 0.48774102478332065,0.037858090666573356 l -0.6377907575014784 7.3917437953831815" fill="#ff4206" stroke="none" /><path d="M 101.80526077348638 79.07773832637324 l 1.967508695899307 -22.80265122098833 a43.88737628419824,43.88737628419824 0 0,0 0.752093522029451,0.07142034224618839 l -2.3597273450190026 22.765405334226966" fill="#edff1a" stroke="none" /><path d="M 102.16513564639614 79.11191278185805 l 2.533261871188049 -24.43957495219592 a45.57051565498814,45.57051565498814 0 0,0 0.7795450743572886,0.08759097210793595 l -2.9535736490550626 24.392348026617384" fill="#d8ff1c" stroke="none" /><path d="M 102.88285421437855 79.19881850522331 l 1.4489060054094178 -10.45455459976843 a31.554479640988973,31.554479640988973 0 0,0 0.5373743202881005,0.07919500602431082 l -1.6286493061261742 10.42806510958315" fill="#ff6e0a" stroke="none" /><path d="M 103.2404852339499 79.25152402106235 l 5.270811178015971 -33.748433096014246 a55.157549486320704,55.157549486320704 0 0,0 0.936813664891442,0.15458228163631235 l -5.850954049046289 33.65270455143831" fill="#6bff28" stroke="none" /><path d="M 103.59715602781102 79.31037775812273 l 2.5401961713722185 -14.610347396561433 a35.82952621081549,35.82952621081549 0 0,0 0.6067216347208324,0.11087450067814007 l -2.7913129271959516 14.564457414532555" fill="#ffa90f" stroke="none" /><path d="M 103.95276090670814 79.375362276772 l 5.885966375936498 -30.711679006128016 a52.27062243630752,52.27062243630752 0 0,0 0.8822125899756529,0.17696354612397044 l -6.413745375379277 30.605811503926837" fill="#8aff24" stroke="none" /><path d="M 104.307194497241 79.44645832069477 l 3.6514730454315565 -17.424498354604417 a38.80298846573589,38.80298846573589 0 0,0 0.6525503667267316,0.1426222353855446 l -3.9508661363118165 17.359062621123" fill="#ffd113" stroke="none" /><path d="M 104.66035177308747 79.52364482259891 l 5.388307033018338 -23.674798381126582 a45.280237459074996,45.280237459074996 0 0,0 0.7585007136578492,0.1795126127476267 l -5.7950314336387105 23.578539856238088" fill="#dcff1b" stroke="none" /><path d="M 105.01212808612495 79.60689891045804 l 0.9792775564351022 -3.98443652275865 a25.10301339705716,25.10301339705716 0 0,0 0.41873154572427895,0.10674399445190356 l -1.047717990844406 3.9669895321378785" fill="#ff1101" stroke="none" /><path d="M 105.36241919743992 79.69619591428918 l 7.5758448481349925 -28.684529112104677 a50.6680912015956,50.6680912015956 0 0,0 0.8413366833810434,0.2299690972453768 l -8.068479420739747 28.549873474033006" fill="#9cff22" stroke="none" /><path d="M 105.71112130821622 79.79150937346287 l 8.534886944504196 -30.20023100690148 a52.38308856734279,52.38308856734279 0 0,0 0.8655925789870502,0.25269020991768487 l -9.053469741214673 30.04884246806509" fill="#89ff24" stroke="none" /><path d="M 106.0581310904928 79.89281104454417 l 4.280622582616386 -14.207564318100232 a35.838416814059386,35.838416814059386 0 0,0 0.5891402715763543,0.18304875016666744 l -4.524548226903459 14.131775433051045" fill="#ffa90f" stroke="none" /><path d="M 106.40334571778207 80.00007090966166 l 6.33694290461245 -19.79252945687745 a41.78222961276484,41.78222961276484 0 0,0 0.6830741500511293,0.225198807714967 l -6.676699876905997 19.680516924903248" fill="#fff717" stroke="none" /><path d="M 107.08798089147638 80.2323363322302 l 7.709059448921794 -21.499789109813314 a43.84010791028487,43.84010791028487 0 0,0 0.7081590211050527,0.2608209438728136 l -8.078000795799422 21.363904898134177" fill="#eeff19" stroke="none" /><path d="M 107.4271985657038 80.35727306442388 l 5.2432771269145295 -13.86690552843387 a35.825080909193545,35.825080909193545 0 0,0 0.5749359705546314,0.22306622440897805 l -5.481196262468829 13.774596600134345" fill="#ffa90f" stroke="none" /><path d="M 107.76421540070413 80.48803036053334 l 2.3809374269554744 -5.983447958439164 a27.439760282994015,27.439760282994015 0 0,0 0.43735858958790524,0.1784095501130962 l -2.483579886131767 5.941577522142489" fill="#ff3304" stroke="none" /><path d="M 108.09893153111575 80.62456947434976 l 5.085452693669257 -12.166152409007363 a34.18624637790238,34.18624637790238 0 0,0 0.5409830919789983,0.23162072722991822 l -5.294119543438571 12.076812153814656" fill="#ff930d" stroke="none" /><path d="M 108.43124777332544 80.76684994638697 l 12.620457578885926 -28.789469943928996 a52.43420953599518,52.43420953599518 0 0,0 0.8235114242395658,0.3694855712744529 l -13.114151121592272 28.567964042138012" fill="#89ff25" stroke="none" /><path d="M 108.76106565485865 80.91482961587045 l 1.9176061459026699 -4.177327446908275 a25.59644187709329,25.59644187709329 0 0,0 0.3988434997803973,0.18726237105435162 l -1.9892278569826651 4.14370009321392" fill="#ff1802" stroke="none" /><path d="M 109.08828744355905 81.06846463323043 l 7.704057609746178 -16.048088268808534 a38.801506698528584,38.801506698528584 0 0,0 0.5996287527123678,0.2942352247968776 l -7.979157629468977 15.913097883876825" fill="#ffd113" stroke="none" /><path d="M 109.41281617654863 81.2277094730956 l 8.657476023217503 -17.265890684496398 a40.314835547360104,40.314835547360104 0 0,0 0.6176607396165307,0.3163898209048692 l -8.953397250422789 17.11430833827903" fill="#ffe415" stroke="none" /><path d="M 109.73455568895987 81.39251694778311 l 12.603718259064667 -24.091851892782294 a48.18953919391864,48.18953919391864 0 0,0 0.7316892036904312,0.39084303260961223 l -13.01655250928341 23.871330133670927" fill="#b9ff1f" stroke="none" /><path d="M 110.05341064243156 81.56283822128135 l 7.173241666164819 -13.155159157503446 a35.98377817709705,35.98377817709705 0 0,0 0.5412575576343026,0.3012092448163657 l -7.398623312871156 13.0297345151269" fill="#ffab0f" stroke="none" /><path d="M 110.36928655335952 81.73862282372117 l 9.969751187769598 -17.5577544179767 a41.19085632032514,41.19085632032514 0 0,0 0.6135540214070898,0.3554100913707961 l -10.270501941642017 17.383540169215852" fill="#ffef16" stroke="none" /><line stroke="#e1ed5e" stroke-width="0.3" x1="143.23703022742887" x2="145.7803849466894" y1="26.81831364943548" y2="22.513508569990506" /><path d="M 143.74570117128098 25.957352633546492 a86.0,86.0 0 0,1 28.547481713284135,27.462654790039103" fill="none" id="id158" stroke="none" /><text fill="#e1ed5e" style="font-size:6.75px; font-family:Arial;" text-anchor="middle"><textPath startOffset="19.985693538727396" xlink:href="#id158">February</textPath></text><path d="M 110.68208982089419 81.91981866633111 l 2.059421735711239 -3.4857147850720294 a25.048632540548677,25.048632540548677 0 0,0 0.36933365828234005,0.22251939661260156 l -2.119117460211217 3.4497487790008132" fill="#ff1001" stroke="none" /><path d="M 110.99172775467656 82.1063720568725 l 14.554768507690133 -23.693964978722303 a48.80728794264855,48.80728794264855 0 0,0 0.7120770595371276,0.4459025893560743 l -14.960464719599525 23.439918048043285" fill="#b2ff20" stroke="none" /><path d="M 111.60114157652 82.49532879139004 l 16.652711178718334 -25.12685773143106 a51.14418300530614,51.14418300530614 0 0,0 0.7296455779429735,0.492659951294773 l -17.08276145106785 24.836485867837617" fill="#97ff23" stroke="none" /><path d="M 111.90073688211348 82.69761687909136 l 2.662752369876036 -3.8713536914632303 a25.698683814398073,25.698683814398073 0 0,0 0.36231333481566247,0.25382364495825144 l -2.728996844275349 3.824945203741043" fill="#ff1a02" stroke="none" /><path d="M 112.19680574252982 82.90503203632743 l 6.178324927484305 -8.659502244609572 a31.637606781319384,31.637606781319384 0 0,0 0.44059839440733284,0.3201134713078047 l -6.3264686382454265 8.551869538485091" fill="#ff700a" stroke="none" /><path d="M 113.34407831869373 83.78471172551755 l 9.421276835757823 -11.448427996072471 a35.826562676400854,35.826562676400854 0 0,0 0.4728124677345852,0.395966844369068 l -9.616946840451524 11.284559994309584" fill="#ffa90f" stroke="none" /><path d="M 113.6212207817346 84.01681056812373 l 9.618676852875353 -11.286589997106882 a35.829229857374024,35.829229857374024 0 0,0 0.4659611839885409,0.40407694709710895 l -9.811531835510658 11.119348056590102" fill="#ffa90f" stroke="none" /><path d="M 113.89432698308785 84.25364557470407 l 12.83122639441035 -14.541549134659522 a40.393221032627096,40.393221032627096 0 0,0 0.5173967920658689,0.46452394849430034 l -13.07963417407221 14.318526177395924" fill="#ffe515" stroke="none" /><path d="M 114.16331599549186 84.49514656593476 l 16.58851669522419 -18.159767114555812 a45.59585387423324,45.59585387423324 0 0,0 0.5749248875018644,0.5343300253552208 l -16.8986494665209 17.87153250312595" fill="#d8ff1c" stroke="none" /><path d="M 114.42810811169701 84.74124197986012 l 15.465639105109078 -16.356021378877497 a43.51011835321567,43.51011835321567 0 0,0 0.5397673763533113,0.5192557883947536 l -15.744889725074808 16.08738250372044" fill="#f2ff19" stroke="none" /><path d="M 114.68862486808459 84.99185889309783 l 2.0873789055847825 -2.1327848889827776 a23.984279155533812,23.984279155533812 0 0,0 0.2925673180209945,0.29131094097982485 l -2.1237820237730998 2.096538097352834" fill="#ff0000" stroke="none" /><path d="M 114.94478906791727 85.2469230424477 l 14.7686156898446 -14.579163535772553 a41.752446091897795,41.752446091897795 0 0,0 0.5005039409114351,0.5158133066477139 l -15.017383894459144 14.322786033574724" fill="#fff617" stroke="none" /><path d="M 115.19652480421416 85.50635884689758 l 16.508270891207204 -15.744715152836303 a43.812695216949535,43.812695216949535 0 0,0 0.5158061890561106,0.550226078938579 l -16.776844402233777 15.458219657019669" fill="#eeff19" stroke="none" /><path d="M 115.4437574822437 85.77008943001954 l 13.938458979483233 -12.842925368999772 a39.95313617205434,39.95313617205434 0 0,0 0.46166107473726115,0.5097776893877201 l -14.15746369483653 12.601094892342504" fill="#ffdf14" stroke="none" /><path d="M 115.68641384162765 86.03803664274999 l 3.3360119754073034 -2.9692750318992633 a25.466046362849507,25.466046362849507 0 0,0 0.28862505889818707,0.32994833620694536 l -3.3866288978833388 2.9114111394893705" fill="#ff1602" stroke="none" /><path d="M 115.9244219780498 86.31012108654704 l 15.44657845361721 -13.279087237743989 a41.369853798968876,41.369853798968876 0 0,0 0.45957846728043344,0.5439959467494077 l -15.67286753438476 13.011232341365474" fill="#fff216" stroke="none" /><path d="M 116.15771136456269 86.58626213691792 l 4.021110336347933 -3.338227720084092 a26.22619294020246,26.22619294020246 0 0,0 0.28536783971101437,0.3498272292125226 l -4.077976668135356 3.2685163212634687" fill="#ff2203" stroke="none" /><path d="M 116.38621287248628 86.86637796730983 l 49.158638617458855 -39.400866098070516 a84.0,84.0 0 0,0 0.8945836776241438,1.1360304241878465 l -49.829576375676965 38.54884327992963" fill="#4dd2ff" stroke="none" /><path d="M 116.60985879189232 87.15038557335679 l 8.598944461209259 -6.652261297765675 a31.871726000075263,31.871726000075263 0 0,0 0.3319577763238637,0.4368175219890453 l -8.712178177757236 6.503258999895596" fill="#ff730a" stroke="none" /><path d="M 117.04232023915458 87.72973835380427 l 8.47338031083093 -6.100729946544916 a31.44112444962932,31.44112444962932 0 0,0 0.3124459948482489,0.4419327017762243 l -8.57713892548306 5.953970744436898" fill="#ff6d0a" stroke="none" /><path d="M 117.2510076193507 88.02491185347247 l 12.540462656944918 -8.705181113403539 a36.265758476649225,36.265758476649225 0 0,0 0.35156291237202514,0.5158751933210796 l -12.688450034985676 8.488027896812053" fill="#ffaf10" stroke="none" /><path d="M 117.45458315368197 88.32363383020206 l 12.58561131993663 -8.419233215050152 a36.142030914838365,36.142030914838365 0 0,0 0.3414619304048489,0.5200699463630769 l -12.728669885699404 8.201345204709401" fill="#ffad10" stroke="none" /><path d="M 117.65298651832404 88.62581576622439 l 9.087903344397427 -5.8555240401178015 a31.81097354457532,31.81097354457532 0 0,0 0.29261915358866314,0.4628532283355307 l -9.187350094232045 5.6982231640680645" fill="#ff720a" stroke="none" /><line stroke="#e1ed5e" stroke-width="0.3" x1="172.23445277983987" x2="176.4835382374775" y1="55.19839476539836" y2="52.563006222186495" /><path d="M 173.08426987136738 54.67131705675599 a86.0,86.0 0 0,1 12.851231095245387,41.99856678651699" fill="none" id="id159" stroke="none" /><text fill="#e1ed5e" style="font-size:6.75px; font-family:Arial;" text-anchor="middle"><textPath startOffset="22.20632615414155" xlink:href="#id159">March</textPath></text><path d="M 118.03404312379186 89.2402003453031 l 27.320323204084822 -16.300349409151845 a52.813541941067996,52.813541941067996 0 0,0 0.45907624468083685,0.7847101139106777 l -27.596859123235987 15.827659882887271" fill="#84ff25" stroke="none" /><path d="M 118.21658344932153 89.55222093294921 l 21.858074916085926 -12.536288058056027 a46.197895890565604,46.197895890565604 0 0,0 0.3896954402562575,0.6932247048301353 l -22.070627997634617 12.158179843291096" fill="#d1ff1d" stroke="none" /><path d="M 118.3937258080291 89.86733742301442 l 17.6247825138209 -9.709070150830883 a41.122102321905686,41.122102321905686 0 0,0 0.3362062815133699,0.6229391787593644 l -17.789296894552734 9.40424998873906" fill="#ffee16" stroke="none" /><path d="M 118.56541770881063 90.18545643968196 l 12.446141312474822 -6.5796093567659195 a35.07827023670643,35.07827023670643 0 0,0 0.27760369592385054,0.536241981043135 l -12.55755444155879 6.36439465346244" fill="#ff9f0e" stroke="none" /><path d="M 118.73160827565052 90.50648371742162 l 9.487225111199766 -4.808296476429154 a31.636125014112068,31.636125014112068 0 0,0 0.242001272022444,0.48785979727946277 l -9.568586396175618 4.644277090650742" fill="#ff700a" stroke="none" /><path d="M 118.89224826269711 90.83032412892265 l 27.187022704664656 -13.195686539522804 a51.22019766304143,51.22019766304143 0 0,0 0.3781558074981049,0.7964925723455643 l -27.41013670600452 12.7257515515367" fill="#96ff23" stroke="none" /><path d="M 119.04729006885535 91.15688171328212 l 8.113627329362494 -3.7669277859751333 a29.94542863056486,29.94542863056486 0 0,0 0.2130370311878973,0.469398859093939 l -8.177266677513739 3.6267069180391314" fill="#ff5808" stroke="none" /><line stroke="#e1ed5e" stroke-width="0.3" x1="184.98032266829074" x2="189.97916517819016" y1="98.17113171792111" y2="98.06355123074" /><path d="M 185.9800911702706 98.14961562048488 a86.0,86.0 0 0,1 -9.607161424134198,41.387399972396054" fill="none" id="id160" stroke="none" /><text fill="#e1ed5e" style="font-size:6.75px; font-family:Arial;" text-anchor="middle"><textPath startOffset="21.466115282336823" xlink:href="#id160">April</textPath></text><line stroke="#e1ed5e" stroke-width="0.3" x1="174.80103733775053" x2="179.2010983576182" y1="140.37084112569926" y2="142.7455964860345" /><path d="M 175.68104954172406 140.8457921977663 a86.0,86.0 0 0,1 -30.038265399797805,32.042727171017184" fill="none" id="id161" stroke="none" /><text fill="#e1ed5e" style="font-size:6.75px; font-family:Arial;" text-anchor="middle"><textPath startOffset="22.206326154141568" xlink:href="#id161">May</textPath></text><line stroke="#e1ed5e" stroke-width="0.3" x1="143.8653032363475" x2="146.44561519142675" y1="172.8068346515853" y2="177.08958963109032" /><path d="M 144.38136562736335 173.6633856474863 a86.0,86.0 0 0,1 -40.68145358897372,12.25698825130547" fill="none" id="id162" stroke="none" /><text fill="#e1ed5e" style="font-size:6.75px; font-family:Arial;" text-anchor="middle"><textPath startOffset="21.466115282336833" xlink:href="#id162">June</textPath></text><line stroke="#e1ed5e" stroke-width="0.3" x1="102.19456741930631" x2="102.32365962044197" y1="184.97166512339345" y2="189.96999836594603" /><path d="M 102.22038585953345 185.97133177190398 a86.0,86.0 0 0,1 -42.740103519485714,-10.115201625700543" fill="none" id="id163" stroke="none" /><text fill="#e1ed5e" style="font-size:6.75px; font-family:Arial;" text-anchor="middle"><textPath startOffset="22.20632615414155" xlink:href="#id163">July</textPath></text><line stroke="#e1ed5e" stroke-width="0.3" x1="58.666819895761336" x2="56.23545636021788" y1="174.27360380694188" y2="178.64263932499728" /><path d="M 58.180547188652646 175.14741091055294 a86.0,86.0 0 0,1 -31.652253787137756,-30.449443065178592" fill="none" id="id164" stroke="none" /><text fill="#e1ed5e" style="font-size:6.75px; font-family:Arial;" text-anchor="middle"><textPath startOffset="22.20632615414155" xlink:href="#id164">August</textPath></text><line stroke="#e1ed5e" stroke-width="0.3" x1="26.63291911575756" x2="22.317208475507996" y1="142.92168965132927" y2="145.44649492493687" /><path d="M 25.769776987707644 143.4266507060508 a86.0,86.0 0 0,1 -11.730757126820373,-40.83630448921669" fill="none" id="id165" stroke="none" /><text fill="#e1ed5e" style="font-size:6.75px; font-family:Arial;" text-anchor="middle"><textPath startOffset="21.46611528233685" xlink:href="#id165">September</textPath></text><line stroke="#e1ed5e" stroke-width="0.3" x1="15.007084014347285" x2="10.007500721073583" y1="101.09737516637583" y2="101.16192664675087" /><path d="M 14.007167355692545 101.11028546245083 a86.0,86.0 0 0,1 10.666146001902534,-42.60595125391555" fill="none" id="id166" stroke="none" /><text fill="#e1ed5e" style="font-size:6.75px; font-family:Arial;" text-anchor="middle"><textPath startOffset="22.20632615414155" xlink:href="#id166">October</textPath></text><line stroke="#e1ed5e" stroke-width="0.3" x1="26.266209847984243" x2="21.928928074336255" y1="57.711370442889674" y2="55.22380399835377" /><path d="M 25.398753493254645 57.213857153982495 a86.0,86.0 0 0,1 29.58750427330803,-30.492523968695096" fill="none" id="id167" stroke="none" /><text fill="#e1ed5e" style="font-size:6.75px; font-family:Arial;" text-anchor="middle"><textPath startOffset="21.46611528233685" xlink:href="#id167">November</textPath></text><line stroke="#e1ed5e" stroke-width="0.3" x1="56.762969772571076" x2="54.21961505331055" y1="26.818313649435495" y2="22.513508569990535" /><path d="M 56.25429882871897 25.957352633546506 a86.0,86.0 0 0,1 42.265352541879196,-11.944610805530505" fill="none" id="id168" stroke="none" /><text fill="#e1ed5e" style="font-size:6.75px; font-family:Arial;" text-anchor="middle"><textPath startOffset="22.20632615414155" xlink:href="#id168">December</textPath></text></svg>