<?xml version="1.0" encoding="utf-8" ?>
<svg baseProfile="full" height="200mm" version="1.1" viewBox="0,0,200,200" width="200mm" xmlns="http://www.w3.org/2000/svg" xmlns:ev="http://www.w3.org/2001/xml-events" xmlns:xlink="http://www.w3.org/1999/xlink"><defs /><rect fill="#1a1a1a" height="200" width="200" x="0" y="0" /><text alignment-baseline="middle" fill="#e1ed5e" style="dominant-baseline: central; font-size:9.0px; font-family:Arial;" text-anchor="middle" x="100.0" y="100.0">2026</text><line stroke="#e1ed5e" stroke-width="0.3" x1="100.0" x2="100.0" y1="15.0" y2="10.0" /><path d="M 100.0 14.0 a86.0,86.0 0 0,1 42.46469731375804,11.215312516191453" fill="none" id="id157" stroke="none" /><text fill="#e1ed5e" style="font-size:6.75px; font-family:Arial;" text-anchor="middle"><textPath startOffset="22.20632615414155" xlink:href="#id157">January</textPath></text><path d="M 100.0 79.0 l 0.0 -33.17342847538429 a54.17342847538429,54.17342847538429 0 0,0 0.9325065185294262,0.008026378007797506 l -0.5710260392568978 33.16851347398505" fill="#83ff25" stroke="none" /><path d="M 100.36148047927253 79.00311137660856 l 0.1112511049339496 -6.462111216153017 a27.46306878953641,27.46306878953641 0 0,0 0.47259150363569435,0.012205644258162805 l -0.22246924376451177 6.459238779752495" fill="#ff1202" stroke="none" /><path d="M 100.72285384407766 79.0124445844662 l 1.376552468760109 -39.96723743975659 a60.99093603887174,60.99093603887174 0 0,0 1.0489255091235445,0.045168938896279924 l -2.0643188102729852 39.93762077433612" fill="#38ff2e" stroke="none" /><path d="M 101.08401301168833 79.027996857942 l 3.2520390350649873 -62.916009426173986 a84.0,84.0 0 0,0 1.4433518046415523,0.08706692247878367 l -4.334552888546152 62.8507092343149" fill="#4dd2ff" stroke="none" /><path d="M 101.44485096284872 79.0497635885617 l 0.6632370599563177 -9.616890295395127 a30.639733520765212,30.639733520765212 0 0,0 0.5258505026765389,0.040816119612320075 l -0.8286777519951978 9.604048913594342" fill="#ff4206" stroke="none" /><path d="M 101.80526077348638 79.07773832637324 l 2.5563723901174003 -29.627349614415458 a50.73743238700608,50.73743238700608 0 0,0 0.8694822396210067,0.08256781545351878 l -3.0659797568286513 29.57895625444676" fill="#abff21" stroke="none" /><path d="M 102.16513564639614 79.11191278185805 l 3.291452138401982 -31.75419491878873 a52.92432539803808,52.92432539803808 0 0,0 0.9053418989171995,0.1017257110906415 l -3.837560740828907 31.69283325422749" fill="#91ff24" stroke="none" /><path d="M 102.88285421437855 79.19881850522331 l 1.882554987341966 -13.583540843059454 a34.71337285701189,34.71337285701189 0 0,0 0.5911704251244471,0.08712315347340147 l -2.116094392895069 13.549123205425085" fill="#ff7e0b" stroke="none" /><path d="M 103.2404852339499 79.25152402106235 l 6.848333731426503 -43.84913914545178 a65.3807016471595,65.3807016471595 0 0,0 1.1104469885566537,0.18323326778879873 l -7.602109926122032 43.724759614723354" fill="#34ff5d" stroke="none" /><path d="M 103.59715602781102 79.31037775812273 l 3.3004618335421063 -18.98313779879972 a40.26791553341686,40.26791553341686 0 0,0 0.6818793917475867,0.12460910037848637 l -3.6267363463925935 18.923513217070493" fill="#ffcc13" stroke="none" /><path d="M 103.95276090670814 79.375362276772 l 7.6476012349850855 -39.9035025507363 a61.62973443755156,61.62973443755156 0 0,0 1.0401737171566168,0.2086490622153406 l -8.333341361608827 39.76594953244375" fill="#31ff2f" stroke="none" /><path d="M 104.307194497241 79.44645832069477 l 4.744337291140924 -22.63954746334521 a44.13131742199676,44.13131742199676 0 0,0 0.7421569447746823,0.16220676267736642 l -5.133336960069134 22.554527202571975" fill="#feff18" stroke="none" /><path d="M 104.66035177308747 79.52364482259891 l 7.00099539960988 -30.76052525167872 a52.54716865813037,52.54716865813037 0 0,0 0.8802309167197877,0.20832221886726568 l -7.529450003292191 30.635457120670587" fill="#96ff23" stroke="none" /><path d="M 105.01212808612495 79.60689891045804 l 1.272369526371053 -5.176954764258321 a26.331020994407602,26.331020994407602 0 0,0 0.43921536219947505,0.11196577536263032 l -1.3612937772555531 5.154285992726822" fill="#ff0000" stroke="none" /><path d="M 105.36241919743992 79.69619591428918 l 9.84325032054475 -37.269638705300004 a59.547575100082504,59.547575100082504 0 0,0 0.9887792918575413,0.27027073181880606 l -10.483327501626 37.09468143265491" fill="#47ff2c" stroke="none" /><path d="M 105.71112130821622 79.79150937346287 l 11.089328033557315 -39.23898119592424 a61.77586101518809,61.77586101518809 0 0,0 1.0208013371822975,0.29799990253926056 l -11.76311958846304 39.042282964466274" fill="#2fff2f" stroke="none" /><path d="M 106.0581310904928 79.89281104454417 l 5.561787556782214 -18.45980413164453 a40.279467041530424,40.279467041530424 0 0,0 0.6621457715310873,0.2057319143751672 l -5.878718701024019 18.36133208238684" fill="#ffcd13" stroke="none" /><path d="M 106.40334571778207 80.00007090966166 l 8.233552366434209 -25.716316242770134 a48.00222779085047,48.00222779085047 0 0,0 0.7847613986300657,0.258723494805055 l -8.67499658730669 25.570779023705843" fill="#cdff1d" stroke="none" /><path d="M 107.08798089147638 80.2323363322302 l 10.016335261984482 -27.93454859346976 a50.67601686886899,50.67601686886899 0 0,0 0.8185809800651154,0.3014902832470503 l -10.495698567822172 27.757995042416383" fill="#acff21" stroke="none" /><path d="M 107.4271985657038 80.35727306442388 l 6.812558901983304 -18.01718818480326 a40.26213977936008,40.26213977936008 0 0,0 0.6461437580371876,0.25069373967285624 l -7.121685825020158 17.897251741239856" fill="#ffcc13" stroke="none" /><path d="M 107.76421540070413 80.48803036053334 l 3.0935378906084567 -7.77425847750409 a29.367142376921432,29.367142376921432 0 0,0 0.468078869411906,0.19094112359359558 l -3.22690062960875 7.719856467726915" fill="#ff2f04" stroke="none" /><path d="M 108.09893153111575 80.62456947434976 l 6.607498551055745 -15.807409734537924 a38.13281178376066,38.13281178376066 0 0,0 0.603435843660406,0.2583597362237866 l -6.8786181525064665 15.691330470351346" fill="#ffaf10" stroke="none" /><path d="M 108.43124777332544 80.76684994638697 l 16.397685749777747 -37.40598770626289 a61.84228218684106,61.84228218684106 0 0,0 0.9712709761925473,0.43578097514819747 l -17.039138844437076 37.11818640059816" fill="#2fff30" stroke="none" /><path d="M 108.76106565485865 80.91482961587045 l 2.4915343026041192 -5.4275767990315575 a26.97212969471014,26.97212969471014 0 0,0 0.4202794535124896,0.19732683875632787 l -2.584591967416207 5.383884977635226" fill="#ff0a01" stroke="none" /><path d="M 109.08828744355905 81.06846463323043 l 10.00983640198198 -20.851185994782835 a44.12939217064451,44.12939217064451 0 0,0 0.6819645585113825,0.33463704712197545 l -10.367272227503795 20.67579378752603" fill="#feff18" stroke="none" /><path d="M 109.41281617654863 81.2277094730956 l 11.248607297128439 -22.433469457402943 a46.095651376707515,46.095651376707515 0 0,0 0.7062282094390754,0.3617575189271678 l -11.633095994156271 22.236519413163272" fill="#e5ff1a" stroke="none" /><path d="M 109.73455568895987 81.39251694778311 l 16.375936450722755 -31.302400408124143 a56.32720716315742,56.32720716315742 0 0,0 0.8552480485332732,0.4568438884108804 l -16.91232954578434 31.01587779321151" fill="#6aff28" stroke="none" /><path d="M 110.05341064243156 81.56283822128135 l 9.320150391834382 -17.09242034250352 a40.46833419918712,40.46833419918712 0 0,0 0.6087129489955022,0.3387480970764706 l -9.612987429901919 16.92945684786687" fill="#ffcf13" stroke="none" /><line stroke="#e1ed5e" stroke-width="0.3" x1="143.23703022742887" x2="145.7803849466894" y1="26.81831364943548" y2="22.513508569990506" /><path d="M 143.74570117128098 25.957352633546492 a86.0,86.0 0 0,1 28.547481713284135,27.462654790039103" fill="none" id="id158" stroke="none" /><text fill="#e1ed5e" style="font-size:6.75px; font-family:Arial;" text-anchor="middle"><textPath startOffset="19.985693538727396" xlink:href="#id158">February</textPath></text><line stroke="#e1ed5e" stroke-width="0.3" x1="172.23445277983987" x2="176.4835382374775" y1="55.19839476539836" y2="52.563006222186495" /><path d="M 173.08426987136738 54.67131705675599 a86.0,86.0 0 0,1 12.851231095245387,41.99856678651699" fill="none" id="id159" stroke="none" /><text fill="#e1ed5e" style="font-size:6.75px; font-family:Arial;" text-anchor="middle"><textPath startOffset="22.20632615414155" xlink:href="#id159">March</textPath></text><line stroke="#e1ed5e" stroke-width="0.3" x1="184.98032266829074" x2="189.97916517819016" y1="98.17113171792111" y2="98.06355123074" /><path d="M 185.9800911702706 98.14961562048488 a86.0,86.0 0 0,1 -9.607161424134198,41.387399972396054" fill="none" id="id160" stroke="none" /><text fill="#e1ed5e" style="font-size:6.75px; font-family:Arial;" text-anchor="middle"><textPath startOffset="21.466115282336823" xlink:href="#id160">April</textPath></text><line stroke="#e1ed5e" stroke-width="0.3" x1="174.80103733775053" x2="179.2010983576182" y1="140.37084112569926" y2="142.7455964860345" /><path d="M 175.68104954172406 140.8457921977663 a86.0,86.0 0 0,1 -30.038265399797805,32.042727171017184" fill="none" id="id161" stroke="none" /><text fill="#e1ed5e" style="font-size:6.75px; font-family:Arial;" text-anchor="middle"><textPath startOffset="22.206326154141568" xlink:href="#id161">May</textPath></text><line stroke="#e1ed5e" stroke-width="0.3" x1="143.8653032363475" x2="146.44561519142675" y1="172.8068346515853" y2="177.08958963109032" /><path d="M 144.38136562736335 173.6633856474863 a86.0,86.0 0 0,1 -40.68145358897372,12.25698825130547" fill="none" id="id162" stroke="none" /><text fill="#e1ed5e" style="font-size:6.75px; font-family:Arial;" text-anchor="middle"><textPath startOffset="21.466115282336833" xlink:href="#id162">June</textPath></text><line stroke="#e1ed5e" stroke-width="0.3" x1="102.19456741930631" x2="102.32365962044197" y1="184.97166512339345" y2="189.96999836594603" /><path d="M 102.22038585953345 185.97133177190398 a86.0,86.0 0 0,1 -42.740103519485714,-10.115201625700543" fill="none" id="id163" stroke="none" /><text fill="#e1ed5e" style="font-size:6.75px; font-family:Arial;" text-anchor="middle"><textPath startOffset="22.20632615414155" xlink:href="#id163">July</textPath></text><line stroke="#e1ed5e" stroke-width="0.3" x1="58.666819895761336" x2="56.23545636021788" y1="174.27360380694188" y2="178.64263932499728" /><path d="M 58.180547188652646 175.14741091055294 a86.0,86.0 0 0,1 -31.652253787137756,-30.449443065178592" fill="none" id="id164" stroke="none" /><text fill="#e1ed5e" style="font-size:6.75px; font-family:Arial;" text-anchor="middle"><textPath startOffset="22.20632615414155" xlink:href="#id164">August</textPath></text><line stroke="#e1ed5e" stroke-width="0.3" x1="26.63291911575756" x2="22.317208475507996" y1="142.92168965132927" y2="145.44649492493687" /><path d="M 25.769776987707644 143.4266507060508 a86.0,86.0 0 0,1 -11.730757126820373,-40.83630448921669" fill="none" id="id165" stroke="none" /><text fill="#e1ed5e" style="font-size:6.75px; font-family:Arial;" text-anchor="middle"><textPath startOffset="21.46611528233685" xlink:href="#id165">September</textPath></text><line stroke="#e1ed5e" stroke-width="0.3" x1="15.007084014347285" x2="10.007500721073583" y1="101.09737516637583" y2="101.16192664675087" /><path d="M 14.007167355692545 101.11028546245083 a86.0,86.0 0 0,1 10.666146001902534,-42.60595125391555" fill="none" id="id166" stroke="none" /><text fill="#e1ed5e" style="font-size:6.75px; font-family:Arial;" text-anchor="middle"><textPath startOffset="22.20632615414155" xlink:href="#id166">October</textPath></text><line stroke="#e1ed5e" stroke-width="0.3" x1="26.266209847984243" x2="21.928928074336255" y1="57.711370442889674" y2="55.22380399835377" /><path d="M 25.398753493254645 57.213857153982495 a86.0,86.0 0 0,1 29.58750427330803,-30.492523968695096" fill="none" id="id167" stroke="none" /><text fill="#e1ed5e" style="font-size:6.75px; font-family:Arial;" text-anchor="middle"><textPath startOffset="21.46611528233685" xlink:href="#id167">November</textPath></text><line stroke="#e1ed5e" stroke-width="0.3" x1="56.762969772571076" x2="54.21961505331055" y1="26.818313649435495" y2="22.513508569990535" /><path d="M 56.25429882871897 25.957352633546506 a86.0,86.0 0 0,1 42.265352541879196,-11.944610805530505" fill="none" id="id168" stroke="none" /><text fill="#e1ed5e" style="font-size:6.75px; font-family:Arial;" text-anchor="middle"><textPath startOffset="22.20632615414155" xlink:href="#id168">December</textPath></text></svg>