<?xml version="1.0" encoding="utf-8" ?>
<svg baseProfile="full" height="200mm" version="1.1" viewBox="0,0,200,200" width="200mm" xmlns="http://www.w3.org/2000/svg" xmlns:ev="http://www.w3.org/2001/xml-events" xmlns:xlink="http://www.w3.org/1999/xlink"><defs /><rect fill="#1a1a1a" height="200" width="200" x="0" y="0" /><text alignment-baseline="middle" fill="#e1ed5e" style="dominant-baseline: central; font-size:9.0px; font-family:Arial;" text-anchor="middle" x="100.0" y="100.0">2025</text><line stroke="#e1ed5e" stroke-width="0.3" x1="100.0" x2="100.0" y1="15.0" y2="10.0" /><path d="M 100.0 14.0 a86.0,86.0 0 0,1 42.46469731375804,11.215312516191453" fill="none" id="id145" stroke="none" /><text fill="#e1ed5e" style="font-size:6.75px; font-family:Arial;" text-anchor="middle"><textPath startOffset="22.20632615414155" xlink:href="#id145">January</textPath></text><path d="M 100.0 79.0 l 0.0 -24.24798708040143 a45.24798708040143,45.24798708040143 0 0,0 0.7788697169495562,0.006703977551730234 l -0.41738923767702785 24.244394479458258" fill="#fff016" stroke="none" /><path d="M 100.36148047927253 79.00311137660856 l 0.6683156513485348 -38.81965998516626 a59.8254123889722,59.8254123889722 0 0,0 1.0294909798027392,0.02658871471406334 l -1.3364332663461418 38.80240447830984" fill="#54ff2b" stroke="none" /><path d="M 100.72285384407766 79.0124445844662 l 1.5026171066099299 -43.62743596327453 a64.65330487945553,64.65330487945553 0 0,0 1.111911132073473,0.04788123231428121 l -2.2533690710727345 43.59510700443605" fill="#32ff45" stroke="none" /><path d="M 101.08401301168833 79.027996857942 l 1.550504987856801 -29.99705273506314 a51.03709770446419,51.03709770446419 0 0,0 0.8769581794691145,0.05290051225448442 l -2.0666252161655274 29.965918953428353" fill="#c0ff1e" stroke="none" /><path d="M 101.44485096284872 79.0497635885617 l 0.6682581538288074 -9.68969580016863 a30.712711962164033,30.712711962164033 0 0,0 0.5271029858310713,0.04091333641060705 l -0.8349513290222199 9.67675720156956" fill="#ff1302" stroke="none" /><path d="M 101.80526077348638 79.07773832637324 l 5.210350349869175 -60.3859093557479 a81.61027800207637,81.61027800207637 0 0,0 1.398547067815575,0.13280889584218522 l -6.249022544774994 60.28727491539053" fill="#4aebff" stroke="none" /><path d="M 102.16513564639614 79.11191278185805 l 5.298575699422534 -51.117864844028304 a72.39174068520015,72.39174068520015 0 0,0 1.2383582688101709,0.13914398044579135 l -6.177700671742429 51.019084910111914" fill="#3dffa9" stroke="none" /><path d="M 102.52436894288641 79.15227682838746 l 5.034702289620187 -41.57953213664167 a62.883239127927105,62.883239127927105 0 0,0 1.073462621480047,0.13936625685163323 l -5.74967963960808 41.4867075566259" fill="#31ff2f" stroke="none" /><path d="M 102.88285421437855 79.19881850522331 l 7.0177829935923635 -50.63668395459935 a72.12067135771139,72.12067135771139 0 0,0 1.2282185347537222,0.18100748507454334 l -7.8883705087747416 50.50838198536384" fill="#3cffa6" stroke="none" /><path d="M 103.2404852339499 79.25152402106235 l 1.4981964260781195 -9.592789447869663 a30.70907832506633,30.70907832506633 0 0,0 0.5215729211878509,0.08606400100523452 l -1.6630985534048457 9.565579183924804" fill="#ff1302" stroke="none" /><path d="M 103.59715602781102 79.31037775812273 l 7.057878222199028 -40.594523317169106 a62.20350674818319,62.20350674818319 0 0,0 1.0533271659125034,0.19248880687270342 l -7.755600509214432 40.467019028945664" fill="#39ff2e" stroke="none" /><path d="M 103.95276090670814 79.375362276772 l 5.932652290847942 -30.95527585009394 a52.51865267043489,52.51865267043489 0 0,0 0.8863987921871992,0.1778032589058609 l -6.464617492502267 30.84856863511087" fill="#acff20" stroke="none" /><path d="M 104.307194497241 79.44645832069477 l 9.44412885033533 -45.06652673206063 a67.04544930211097,67.04544930211097 0 0,0 1.1275042015922028,0.24642874762955252 l -10.218475776081062 44.89728448633521" fill="#35ff65" stroke="none" /><path d="M 104.66035177308747 79.52364482259891 l 6.720658402497758 -29.52879850620368 a51.2839427846349,51.2839427846349 0 0,0 0.8590703005144648,0.20331418468355522 l -7.227952389974747 29.408738409379257" fill="#bcff1f" stroke="none" /><path d="M 105.01212808612495 79.60689891045804 l 10.796397948581646 -43.9278547924284 a66.23514822932287,66.23514822932287 0 0,0 1.1048373181600764,0.2816476326280691 l -11.550944155426746 43.73550416363146" fill="#34ff5b" stroke="none" /><path d="M 105.36241919743992 79.69619591428918 l 2.1912988818699892 -8.2969461268463 a29.58143961241204,29.58143961241204 0 0,0 0.4911957348880672,0.13426234937129025 l -2.333792505981767 8.257997236648718" fill="#ff0000" stroke="none" /><path d="M 105.71112130821622 79.79150937346287 l 13.992214265221385 -49.51068547895049 a72.4498788787634,72.4498788787634 0 0,0 1.1971817474135125,0.34949018095506007 l -14.842386230358324 49.26249696907673" fill="#3dffaa" stroke="none" /><path d="M 106.0581310904928 79.89281104454417 l 18.174393271478365 -60.321566866367476 a84.0,84.0 0 0,0 1.380858509157127,0.4290394604699177 l -19.21003715334621 59.99978727101504" fill="#4dd2ff" stroke="none" /><path d="M 106.40334571778207 80.00007090966166 l 15.759587406953852 -49.22280390964723 a72.68412735032877,72.68412735032877 0 0,0 1.1882718795089326,0.39175455620243343 l -16.604542108705203 48.94423562918557" fill="#3dffad" stroke="none" /><line stroke="#e1ed5e" stroke-width="0.3" x1="143.23703022742887" x2="145.7803849466894" y1="26.81831364943548" y2="22.513508569990506" /><path d="M 143.74570117128098 25.957352633546492 a86.0,86.0 0 0,1 28.547481713284135,27.462654790039103" fill="none" id="id146" stroke="none" /><text fill="#e1ed5e" style="font-size:6.75px; font-family:Arial;" text-anchor="middle"><textPath startOffset="19.985693538727396" xlink:href="#id146">February</textPath></text><line stroke="#e1ed5e" stroke-width="0.3" x1="172.23445277983987" x2="176.4835382374775" y1="55.19839476539836" y2="52.563006222186495" /><path d="M 173.08426987136738 54.67131705675599 a86.0,86.0 0 0,1 12.851231095245387,41.99856678651699" fill="none" id="id147" stroke="none" /><text fill="#e1ed5e" style="font-size:6.75px; font-family:Arial;" text-anchor="middle"><textPath startOffset="22.20632615414155" xlink:href="#id147">March</textPath></text><line stroke="#e1ed5e" stroke-width="0.3" x1="184.98032266829074" x2="189.97916517819016" y1="98.17113171792111" y2="98.06355123074" /><path d="M 185.9800911702706 98.14961562048488 a86.0,86.0 0 0,1 -9.607161424134198,41.387399972396054" fill="none" id="id148" stroke="none" /><text fill="#e1ed5e" style="font-size:6.75px; font-family:Arial;" text-anchor="middle"><textPath startOffset="21.466115282336823" xlink:href="#id148">April</textPath></text><line stroke="#e1ed5e" stroke-width="0.3" x1="174.80103733775053" x2="179.2010983576182" y1="140.37084112569926" y2="142.7455964860345" /><path d="M 175.68104954172406 140.8457921977663 a86.0,86.0 0 0,1 -30.038265399797805,32.042727171017184" fill="none" id="id149" stroke="none" /><text fill="#e1ed5e" style="font-size:6.75px; font-family:Arial;" text-anchor="middle"><textPath startOffset="22.206326154141568" xlink:href="#id149">May</textPath></text><line stroke="#e1ed5e" stroke-width="0.3" x1="143.8653032363475" x2="146.44561519142675" y1="172.8068346515853" y2="177.08958963109032" /><path d="M 144.38136562736335 173.6633856474863 a86.0,86.0 0 0,1 -40.68145358897372,12.25698825130547" fill="none" id="id150" stroke="none" /><text fill="#e1ed5e" style="font-size:6.75px; font-family:Arial;" text-anchor="middle"><textPath startOffset="21.466115282336833" xlink:href="#id150">June</textPath></text><line stroke="#e1ed5e" stroke-width="0.3" x1="102.19456741930631" x2="102.32365962044197" y1="184.97166512339345" y2="189.96999836594603" /><path d="M 102.22038585953345 185.97133177190398 a86.0,86.0 0 0,1 -42.740103519485714,-10.115201625700543" fill="none" id="id151" stroke="none" /><text fill="#e1ed5e" style="font-size:6.75px; font-family:Arial;" text-anchor="middle"><textPath startOffset="22.20632615414155" xlink:href="#id151">July</textPath></text><line stroke="#e1ed5e" stroke-width="0.3" x1="58.666819895761336" x2="56.23545636021788" y1="174.27360380694188" y2="178.64263932499728" /><path d="M 58.180547188652646 175.14741091055294 a86.0,86.0 0 0,1 -31.652253787137756,-30.449443065178592" fill="none" id="id152" stroke="none" /><text fill="#e1ed5e" style="font-size:6.75px; font-family:Arial;" text-anchor="middle"><textPath startOffset="22.20632615414155" xlink:href="#id152">August</textPath></text><line stroke="#e1ed5e" stroke-width="0.3" x1="26.63291911575756" x2="22.317208475507996" y1="142.92168965132927" y2="145.44649492493687" /><path d="M 25.769776987707644 143.4266507060508 a86.0,86.0 0 0,1 -11.730757126820373,-40.83630448921669" fill="none" id="id153" stroke="none" /><text fill="#e1ed5e" style="font-size:6.75px; font-family:Arial;" text-anchor="middle"><textPath startOffset="21.46611528233685" xlink:href="#id153">September</textPath></text><line stroke="#e1ed5e" stroke-width="0.3" x1="15.007084014347285" x2="10.007500721073583" y1="101.09737516637583" y2="101.16192664675087" /><path d="M 14.007167355692545 101.11028546245083 a86.0,86.0 0 0,1 10.666146001902534,-42.60595125391555" fill="none" id="id154" stroke="none" /><text fill="#e1ed5e" style="font-size:6.75px; font-family:Arial;" text-anchor="middle"><textPath startOffset="22.20632615414155" xlink:href="#id154">October</textPath></text><line stroke="#e1ed5e" stroke-width="0.3" x1="26.266209847984243" x2="21.928928074336255" y1="57.711370442889674" y2="55.22380399835377" /><path d="M 25.398753493254645 57.213857153982495 a86.0,86.0 0 0,1 29.58750427330803,-30.492523968695096" fill="none" id="id155" stroke="none" /><text fill="#e1ed5e" style="font-size:6.75px; font-family:Arial;" text-anchor="middle"><textPath startOffset="21.46611528233685" xlink:href="#id155">November</textPath></text><line stroke="#e1ed5e" stroke-width="0.3" x1="56.762969772571076" x2="54.21961505331055" y1="26.818313649435495" y2="22.513508569990535" /><path d="M 56.25429882871897 25.957352633546506 a86.0,86.0 0 0,1 42.265352541879196,-11.944610805530505" fill="none" id="id156" stroke="none" /><text fill="#e1ed5e" style="font-size:6.75px; font-family:Arial;" text-anchor="middle"><textPath startOffset="22.20632615414155" xlink:href="#id156">December</textPath></text></svg>