<?xml version="1.0" encoding="utf-8" ?>
<svg baseProfile="full" height="200mm" version="1.1" viewBox="0,0,200,200" width="200mm" xmlns="http://www.w3.org/2000/svg" xmlns:ev="http://www.w3.org/2001/xml-events" xmlns:xlink="http://www.w3.org/1999/xlink"><defs /><rect fill="#1a1a1a" height="200" width="200" x="0" y="0" /><text alignment-baseline="middle" fill="#e1ed5e" style="dominant-baseline: central; font-size:9.0px; font-family:Arial;" text-anchor="middle" x="100.0" y="100.0">2025</text><line stroke="#e1ed5e" stroke-width="0.3" x1="100.0" x2="100.0" y1="15.0" y2="10.0" /><path d="M 100.0 14.0 a86.0,86.0 0 0,1 42.46469731375804,11.215312516191453" fill="none" id="id145" stroke="none" /><text fill="#e1ed5e" style="font-size:6.75px; font-family:Arial;" text-anchor="middle"><textPath startOffset="22.20632615414155" xlink:href="#id145">January</textPath></text><path d="M 100.0 79.0 l 0.0 -23.060850295109297 a44.0608502951093,44.0608502951093 0 0,0 0.7584351086586301,0.006528090426734153 l -0.3969546293861017 23.05743358129112" fill="#ffe415" stroke="none" /><path d="M 100.36148047927253 79.00311137660856 l 0.6355961480235116 -36.91912093389914 a57.92459171061004,57.92459171061004 0 0,0 0.9967811719726961,0.025743916881146436 l -1.2710039551910755 36.90271022487563" fill="#67ff28" stroke="none" /><path d="M 100.72285384407766 79.0124445844662 l 1.429051740728172 -41.49151705552153 a62.51611947721405,62.51611947721405 0 0,0 1.0751556986971298,0.04629846603598795 l -2.1430482718146333 41.46077086296134" fill="#33ff2f" stroke="none" /><path d="M 101.08401301168833 79.027996857942 l 1.4745951195134832 -28.52845228447465 a49.566536725932316,49.566536725932316 0 0,0 0.8516898837286452,0.051376259650696816 l -1.9654470520817402 28.49884275544365" fill="#cfff1d" stroke="none" /><path d="M 101.44485096284872 79.0497635885617 l 0.635541465476446 -9.21530614116192 a30.237195474259302,30.237195474259302 0 0,0 0.5189419950043652,0.04027988645469291 l -0.7940736498431523 9.203000992518762" fill="#ff1202" stroke="none" /><path d="M 101.80526077348638 79.07773832637324 l 4.9552611936402515 -57.42952645799118 a78.64291042865814,78.64291042865814 0 0,0 1.3476955902746026,0.12797993531623833 l -5.943081911005098 57.33572097815976" fill="#45fff3" stroke="none" /><path d="M 102.16513564639614 79.11191278185805 l 5.039167192581011 -48.61522833483181 a69.8756957192695,69.8756957192695 0 0,0 1.1953179294183125,0.13430789682317776 l -5.875251825509048 48.521284484538036" fill="#39ff8b" stroke="none" /><path d="M 102.52436894288641 79.15227682838746 l 4.788212538896364 -39.54387482822371 a60.83271288461117,60.83271288461117 0 0,0 1.0384586473354325,0.13482173638687764 l -5.468185914739642 39.45559476867269" fill="#46ff2c" stroke="none" /><path d="M 102.88285421437855 79.19881850522331 l 6.6742052642218015 -48.15760517546625 a69.61789744677426,69.61789744677426 0 0,0 1.1855961735382459,0.17472605697909524 l -7.502170418188704 48.035584634326185" fill="#39ff88" stroke="none" /><path d="M 103.2404852339499 79.25152402106235 l 1.4248474885727842 -9.123144145380506 a30.23373973334113,30.23373973334113 0 0,0 0.5134996167657816,0.08473183660085148 l -1.581676311477441 9.097266045840028" fill="#ff1202" stroke="none" /><path d="M 103.59715602781102 79.31037775812273 l 6.712337504286951 -38.60709022627302 a60.18625895018614,60.18625895018614 0 0,0 1.0191679678690662,0.18624643177036435 l -7.375900593258917 38.48582831315192" fill="#4dff2c" stroke="none" /><path d="M 103.95276090670814 79.375362276772 l 5.642200561990594 -29.439762560736675 a50.97555748963278,50.97555748963278 0 0,0 0.8603547557364531,0.17257907020341542 l -6.148121727194173 29.33827953445605" fill="#bdff1f" stroke="none" /><path d="M 104.307194497241 79.44645832069477 l 8.981761696884748 -42.8601525909171 a64.79114891500706,64.79114891500706 0 0,0 1.0895936023708093,0.23814295900471083 l -9.718198023409085 42.69919613381652" fill="#32ff49" stroke="none" /><path d="M 104.66035177308747 79.52364482259891 l 6.391627345835894 -28.083122920186614 a49.801296725639766,49.801296725639766 0 0,0 0.8342341212681385,0.19743626348071827 l -6.874085154066556 27.968940744565028" fill="#ccff1d" stroke="none" /><path d="M 105.01212808612495 79.60689891045804 l 10.267826190814048 -41.77722793213894 a64.0205186902559,64.0205186902559 0 0,0 1.0678961256652792,0.2722305001311833 l -10.985431205164351 41.59429443583889" fill="#31ff3f" stroke="none" /><path d="M 105.36241919743992 79.69619591428918 l 2.0840169247486933 -7.890742926551492 a29.1613081350701,29.1613081350701 0 0,0 0.48421950950936743,0.13235548344685122 l -2.2195343234817715 7.853700902278347" fill="#ff0000" stroke="none" /><path d="M 105.71112130821622 79.79150937346287 l 13.307181226938418 -47.086733511218014 a69.93098757396017,69.93098757396017 0 0,0 1.1555588939250305,0.3373393286479784 l -14.115730338586877 46.85069585365134" fill="#39ff8c" stroke="none" /><path d="M 106.0581310904928 79.89281104454417 l 17.28460845216954 -57.368334058378935 a80.91563603917237,80.91563603917237 0 0,0 1.3301552922446698,0.4132857241646041 l -18.269549117124928 57.06230819933181" fill="#49f2ff" stroke="none" /><path d="M 106.40334571778207 80.00007090966166 l 19.21003715334621 -59.99978727101504 a84.0,84.0 0 0,0 1.37326871103033,0.45274510296305515 l -20.239988686618958 59.66022844379275" fill="#4dd2ff" stroke="none" /><path d="M 106.74666289553966 80.11325718540242 l 15.613978356321907 -46.02440891038911 a69.60084912491132,69.60084912491132 0 0,0 1.1312391589909137,0.3946671301087786 l -16.403899519376093 45.74882092710813" fill="#39ff88" stroke="none" /><path d="M 107.08798089147638 80.2323363322302 l 4.492707530591507 -12.52970807655364 a34.31082286859408,34.31082286859408 0 0,0 0.5542303587768371,0.2041277184799128 l -4.70772021514092 12.450517090267402" fill="#ff5307" stroke="none" /><path d="M 107.4271985657038 80.35727306442388 l 17.268811105393514 -45.67085934818357 a69.82662419823153,69.82662419823153 0 0,0 1.1206070421926502,0.4347781226957938 l -18.052401312585832 45.366838521597224" fill="#39ff8b" stroke="none" /><path d="M 107.76421540070413 80.48803036053334 l 16.24347296748618 -40.820885952281074 a64.93398620629128,64.93398620629128 0 0,0 1.0349739331033734,0.42219185396069986 l -16.943730770177943 40.535233212136795" fill="#32ff4b" stroke="none" /><path d="M 108.09893153111575 80.62456947434976 l 9.375471792706747 -22.42935400390495 a45.30998544566259,45.30998544566259 0 0,0 0.7170116237084809,0.30698695796228337 l -9.760167174205543 22.264647517979878" fill="#fff517" stroke="none" /><path d="M 108.43124777332544 80.76684994638697 l 6.995742265794993 -15.958511047454243 a38.42453685757959,38.42453685757959 0 0,0 0.6034809212029534,0.2707642982971424 l -7.269405305464726 15.835726418640569" fill="#ff920d" stroke="none" /><path d="M 108.76106565485865 80.91482961587045 l 22.310989297760592 -48.60242451785642 a74.47874262226739,74.47874262226739 0 0,0 1.1605270181435812,0.5448829959868002 l -23.14429452720377 48.21117653922962" fill="#40ffc3" stroke="none" /><path d="M 109.08828744355905 81.06846463323043 l 7.041795931472973 -14.668551093939481 a37.27124092182346,37.27124092182346 0 0,0 0.5759804092051578,0.2826310853415178 l -7.293247607688563 14.54516484846313" fill="#ff810b" stroke="none" /><path d="M 109.41281617654863 81.2277094730956 l 19.27428130849491 -38.43933649971885 a64.0009361583863,64.0009361583863 0 0,0 0.9805538092124948,0.5022777459952151 l -19.93309560529616 38.10186622841113" fill="#31ff3f" stroke="none" /><path d="M 109.73455568895987 81.39251694778311 l 22.540256939408643 -43.08542294008646 a69.62526969406636,69.62526969406636 0 0,0 1.0571601013693008,0.5646983143786766 l -23.278562087306256 42.69104589920603" fill="#39ff88" stroke="none" /><line stroke="#e1ed5e" stroke-width="0.3" x1="143.23703022742887" x2="145.7803849466894" y1="26.81831364943548" y2="22.513508569990506" /><path d="M 143.74570117128098 25.957352633546492 a86.0,86.0 0 0,1 28.547481713284135,27.462654790039103" fill="none" id="id146" stroke="none" /><text fill="#e1ed5e" style="font-size:6.75px; font-family:Arial;" text-anchor="middle"><textPath startOffset="19.985693538727396" xlink:href="#id146">February</textPath></text><line stroke="#e1ed5e" stroke-width="0.3" x1="172.23445277983987" x2="176.4835382374775" y1="55.19839476539836" y2="52.563006222186495" /><path d="M 173.08426987136738 54.67131705675599 a86.0,86.0 0 0,1 12.851231095245387,41.99856678651699" fill="none" id="id147" stroke="none" /><text fill="#e1ed5e" style="font-size:6.75px; font-family:Arial;" text-anchor="middle"><textPath startOffset="22.20632615414155" xlink:href="#id147">March</textPath></text><line stroke="#e1ed5e" stroke-width="0.3" x1="184.98032266829074" x2="189.97916517819016" y1="98.17113171792111" y2="98.06355123074" /><path d="M 185.9800911702706 98.14961562048488 a86.0,86.0 0 0,1 -9.607161424134198,41.387399972396054" fill="none" id="id148" stroke="none" /><text fill="#e1ed5e" style="font-size:6.75px; font-family:Arial;" text-anchor="middle"><textPath startOffset="21.466115282336823" xlink:href="#id148">April</textPath></text><line stroke="#e1ed5e" stroke-width="0.3" x1="174.80103733775053" x2="179.2010983576182" y1="140.37084112569926" y2="142.7455964860345" /><path d="M 175.68104954172406 140.8457921977663 a86.0,86.0 0 0,1 -30.038265399797805,32.042727171017184" fill="none" id="id149" stroke="none" /><text fill="#e1ed5e" style="font-size:6.75px; font-family:Arial;" text-anchor="middle"><textPath startOffset="22.206326154141568" xlink:href="#id149">May</textPath></text><line stroke="#e1ed5e" stroke-width="0.3" x1="143.8653032363475" x2="146.44561519142675" y1="172.8068346515853" y2="177.08958963109032" /><path d="M 144.38136562736335 173.6633856474863 a86.0,86.0 0 0,1 -40.68145358897372,12.25698825130547" fill="none" id="id150" stroke="none" /><text fill="#e1ed5e" style="font-size:6.75px; font-family:Arial;" text-anchor="middle"><textPath startOffset="21.466115282336833" xlink:href="#id150">June</textPath></text><line stroke="#e1ed5e" stroke-width="0.3" x1="102.19456741930631" x2="102.32365962044197" y1="184.97166512339345" y2="189.96999836594603" /><path d="M 102.22038585953345 185.97133177190398 a86.0,86.0 0 0,1 -42.740103519485714,-10.115201625700543" fill="none" id="id151" stroke="none" /><text fill="#e1ed5e" style="font-size:6.75px; font-family:Arial;" text-anchor="middle"><textPath startOffset="22.20632615414155" xlink:href="#id151">July</textPath></text><line stroke="#e1ed5e" stroke-width="0.3" x1="58.666819895761336" x2="56.23545636021788" y1="174.27360380694188" y2="178.64263932499728" /><path d="M 58.180547188652646 175.14741091055294 a86.0,86.0 0 0,1 -31.652253787137756,-30.449443065178592" fill="none" id="id152" stroke="none" /><text fill="#e1ed5e" style="font-size:6.75px; font-family:Arial;" text-anchor="middle"><textPath startOffset="22.20632615414155" xlink:href="#id152">August</textPath></text><line stroke="#e1ed5e" stroke-width="0.3" x1="26.63291911575756" x2="22.317208475507996" y1="142.92168965132927" y2="145.44649492493687" /><path d="M 25.769776987707644 143.4266507060508 a86.0,86.0 0 0,1 -11.730757126820373,-40.83630448921669" fill="none" id="id153" stroke="none" /><text fill="#e1ed5e" style="font-size:6.75px; font-family:Arial;" text-anchor="middle"><textPath startOffset="21.46611528233685" xlink:href="#id153">September</textPath></text><line stroke="#e1ed5e" stroke-width="0.3" x1="15.007084014347285" x2="10.007500721073583" y1="101.09737516637583" y2="101.16192664675087" /><path d="M 14.007167355692545 101.11028546245083 a86.0,86.0 0 0,1 10.666146001902534,-42.60595125391555" fill="none" id="id154" stroke="none" /><text fill="#e1ed5e" style="font-size:6.75px; font-family:Arial;" text-anchor="middle"><textPath startOffset="22.20632615414155" xlink:href="#id154">October</textPath></text><line stroke="#e1ed5e" stroke-width="0.3" x1="26.266209847984243" x2="21.928928074336255" y1="57.711370442889674" y2="55.22380399835377" /><path d="M 25.398753493254645 57.213857153982495 a86.0,86.0 0 0,1 29.58750427330803,-30.492523968695096" fill="none" id="id155" stroke="none" /><text fill="#e1ed5e" style="font-size:6.75px; font-family:Arial;" text-anchor="middle"><textPath startOffset="21.46611528233685" xlink:href="#id155">November</textPath></text><line stroke="#e1ed5e" stroke-width="0.3" x1="56.762969772571076" x2="54.21961505331055" y1="26.818313649435495" y2="22.513508569990535" /><path d="M 56.25429882871897 25.957352633546506 a86.0,86.0 0 0,1 42.265352541879196,-11.944610805530505" fill="none" id="id156" stroke="none" /><text fill="#e1ed5e" style="font-size:6.75px; font-family:Arial;" text-anchor="middle"><textPath startOffset="22.20632615414155" xlink:href="#id156">December</textPath></text></svg>