<?xml version="1.0" encoding="utf-8" ?>
<svg baseProfile="full" height="200mm" version="1.1" viewBox="0,0,200,200" width="200mm" xmlns="http://www.w3.org/2000/svg" xmlns:ev="http://www.w3.org/2001/xml-events" xmlns:xlink="http://www.w3.org/1999/xlink"><defs /><rect fill="#1a1a1a" height="200" width="200" x="0" y="0" /><text alignment-baseline="middle" fill="#e1ed5e" style="dominant-baseline: central; font-size:9.0px; font-family:Arial;" text-anchor="middle" x="100.0" y="100.0">2025</text><line stroke="#e1ed5e" stroke-width="0.3" x1="100.0" x2="100.0" y1="15.0" y2="10.0" /><path d="M 100.0 14.0 a86.0,86.0 0 0,1 42.46469731375804,11.215312516191453" fill="none" id="id145" stroke="none" /><text fill="#e1ed5e" style="font-size:6.75px; font-family:Arial;" text-anchor="middle"><textPath startOffset="22.20632615414155" xlink:href="#id145">January</textPath></text><path d="M 100.0 79.0 l 0.0 -8.880559349959864 a29.880559349959864,29.880559349959864 0 0,0 0.5143447102264153,0.004427127305339054 l -0.15286423095388688 8.879243599263084" fill="#ff700a" stroke="none" /><path d="M 100.36148047927253 79.00311137660856 l 0.24476327814875642 -14.217274749464432 a35.21938150427398,35.21938150427398 0 0,0 0.6060641143121489,0.015652848009377305 l -0.48945402765577317 14.210955109312694" fill="#ffb711" stroke="none" /><path d="M 100.72285384407766 79.0124445844662 l 0.5503170366788871 -15.97806997643859 a36.98754418329555,36.98754418329555 0 0,0 0.6361138413905639,0.02739240011128769 l -0.8252717104587826 15.966229849803106" fill="#ffce13" stroke="none" /><path d="M 101.08401301168833 79.027996857942 l 0.5678554480177974 -10.986091598214177 a32.000757629099716,32.000757629099716 0 0,0 0.5498613246887857,0.033169136711371075 l -0.756878821546195 10.974689192122502" fill="#ff8d0d" stroke="none" /><path d="M 101.44485096284872 79.0497635885617 l 0.24474222031270926 -3.5487448236890855 a24.55717424061061,24.55717424061061 0 0,0 0.42145935799306966,0.032713357655870225 l -0.3057917676681201 3.5440062038447504" fill="#ff2603" stroke="none" /><path d="M 101.80526077348638 79.07773832637324 l 1.9082336757551308 -22.115677072776542 a43.197849628930726,43.197849628930726 0 0,0 0.7402771735802945,0.07029823758018659 l -2.2886359764256694 22.07955329068118" fill="#e4ff1a" stroke="none" /><path d="M 102.16513564639614 79.11191278185805 l 1.9405452424959768 -18.721357409396347 a39.82166143273577,39.82166143273577 0 0,0 0.6812031765810147,0.07654111404518703 l -2.262515122586717 18.685180341880557" fill="#fff116" stroke="none" /><path d="M 102.52436894288641 79.15227682838746 l 1.8439044999528549 -15.228047658498538 a36.33927701342046,36.33927701342046 0 0,0 0.6203378850468867,0.0805376612955967 l -2.105757113507588 15.194051674038805" fill="#ffc512" stroke="none" /><path d="M 102.88285421437855 79.19881850522331 l 2.570186060108386 -18.545130185566535 a39.72238526425483,39.72238526425483 0 0,0 0.6764741496124379,0.09969470503377507 l -2.8890291901494796 18.49814099637179" fill="#fff016" stroke="none" /><path d="M 103.2404852339499 79.25152402106235 l 0.5486980109139946 -3.513253934893839 a24.55584346087226,24.55584346087226 0 0,0 0.4170643895770867,0.06881919782580538 l -0.6090916066299564 3.503288474128409" fill="#ff2603" stroke="none" /><path d="M 103.59715602781102 79.31037775812273 l 2.5848704978768096 -14.867298980575079 a36.09033248369971,36.09033248369971 0 0,0 0.611138014867718,0.11168156592119195 l -2.8404036338474286 14.820601933303148" fill="#ffc212" stroke="none" /><path d="M 103.95276090670814 79.375362276772 l 2.172768840434333 -11.337030305634238 a32.543360887749785,32.543360887749785 0 0,0 0.5492600117834416,0.11017639119384377 l -2.3675952616848996 11.297949958363185" fill="#ff940d" stroke="none" /><path d="M 104.307194497241 79.44645832069477 l 3.458808621349804 -16.50512118855812 a37.86364084437622,37.86364084437622 0 0,0 0.6367533454394818,0.13916961838722472 l -3.7424046909428137 16.443138072075026" fill="#ffd914" stroke="none" /><path d="M 104.66035177308747 79.52364482259891 l 2.461367437069739 -10.814598622056293 a32.09116193265832,32.09116193265832 0 0,0 0.5375671726551983,0.1272247816687213 l -2.647158296687461 10.770627928246704" fill="#ff8e0d" stroke="none" /><path d="M 105.01212808612495 79.60689891045804 l 3.9540623487736095 -16.08809507803981 a37.56687696272408,37.56687696272408 0 0,0 0.6266353847574071,0.15974331219352583 l -4.230406622216042 16.017648769677418" fill="#ffd513" stroke="none" /><path d="M 105.36241919743992 79.69619591428918 l 0.8025391843628852 -3.0386655295784015 a24.14285814873752,24.14285814873752 0 0,0 0.4008888379351098,0.10957806307125133 l -0.8547259115217059 3.024400925680857" fill="#ff2103" stroke="none" /><path d="M 105.71112130821622 79.79150937346287 l 5.124495027469161 -18.132745592247193 a39.842953908549376,39.842953908549376 0 0,0 0.6583759410029165,0.1921979910357679 l -5.435861186195504 18.041849272292723" fill="#fff116" stroke="none" /><path d="M 106.0581310904928 79.89281104454417 l 6.656172224181294 -22.092112341660005 a44.07305910351917,44.07305910351917 0 0,0 0.7245078415199931,0.22510811308372214 l -7.035465438412005 21.974264093693765" fill="#daff1c" stroke="none" /><path d="M 106.40334571778207 80.00007090966166 l 7.397640280913872 -23.10546510759915 a45.26082437932152,45.26082437932152 0 0,0 0.7399437375662025,0.24394781659296044 l -7.794266840722492 22.974703566746953" fill="#ccff1d" stroke="none" /><path d="M 106.74666289553966 80.11325718540242 l 6.012825186750049 -17.7236524085243 a39.71582008421231,39.71582008421231 0 0,0 0.6455106722917586,0.2252059986282909 l -6.317017863105081 17.617525556723802" fill="#fff016" stroke="none" /><path d="M 107.08798089147638 80.2323363322302 l 1.7301077521799333 -4.825095986816417 a26.125897396178058,26.125897396178058 0 0,0 0.4220174358017058,0.15543258315741604 l -1.8129075137542157 4.794600135852676" fill="#ff3d05" stroke="none" /><path d="M 107.4271985657038 80.35727306442388 l 6.65008878520046 -17.58750314125358 a39.80276436045119,39.80276436045119 0 0,0 0.6387715080487292,0.24783342121210986 l -6.951843458248857 17.470427016150925" fill="#fff116" stroke="none" /><path d="M 107.76421540070413 80.48803036053334 l 6.255238809118076 -15.719815001533393 a37.91864640689471,37.91864640689471 0 0,0 0.6043801236077139,0.24654182750074327 l -6.524902802314177 15.60981228784907" fill="#ffd914" stroke="none" /><path d="M 108.09893153111575 80.62456947434976 l 3.610423406922873 -8.637374895720155 a30.361591866048922,30.361591866048922 0 0,0 0.4804595293537861,0.20570769630964433 l -3.758566694066974 8.573947671447721" fill="#ff770b" stroke="none" /><path d="M 108.43124777332544 80.76684994638697 l 2.6940075319595107 -6.145502125043647 a27.71005759671037,27.71005759671037 0 0,0 0.4352034520814532,0.19526310307281347 l -2.799393102507744 6.098218691454303" fill="#ff5307" stroke="none" /><path d="M 108.76106565485865 80.91482961587045 l 8.591793540982406 -18.716426756141985 a41.5942600442185,41.5942600442185 0 0,0 0.6481213414923258,0.3043016601890353 l -8.912693093774331 18.565760113312948" fill="#f8ff18" stroke="none" /><path d="M 109.08828744355905 81.06846463323043 l 2.7117424509283583 -5.648748285542386 a27.26593203869823,27.26593203869823 0 0,0 0.4213608751570672,0.20675995148938353 l -2.8085745930958574 5.60123317391817" fill="#ff4d07" stroke="none" /><path d="M 109.41281617654863 81.2277094730956 l 7.422380220048164 -14.802698286941625 a37.5593358775401,37.5593358775401 0 0,0 0.575443924368091,0.2947647284246181 l -7.6760846320050105 14.672741033204506" fill="#ffd513" stroke="none" /><path d="M 109.73455568895987 81.39251694778311 l 8.68008277891708 -16.591871099336952 a39.72522426102998,39.72522426102998 0 0,0 0.6031706920668152,0.3221928945781924 l -8.964398517512208 16.439999478257008" fill="#fff016" stroke="none" /><path d="M 110.05341064243156 81.56283822128135 l 2.1765518656914313 -3.9916243645866802 a25.546475898100294,25.546475898100294 0 0,0 0.38426268311008244,0.21384176711838124 l -2.244938637873549 3.9535671999081194" fill="#ff3405" stroke="none" /><path d="M 110.36928655335952 81.73862282372117 l 14.070665236904977 -24.77988468059338 a49.49607525594626,49.49607525594626 0 0,0 0.7372635271524762,0.4270706219946049 l -14.495125496522782 24.534009901208726" fill="#9dff22" stroke="none" /><line stroke="#e1ed5e" stroke-width="0.3" x1="143.23703022742887" x2="145.7803849466894" y1="26.81831364943548" y2="22.513508569990506" /><path d="M 143.74570117128098 25.957352633546492 a86.0,86.0 0 0,1 28.547481713284135,27.462654790039103" fill="none" id="id146" stroke="none" /><text fill="#e1ed5e" style="font-size:6.75px; font-family:Arial;" text-anchor="middle"><textPath startOffset="19.985693538727396" xlink:href="#id146">February</textPath></text><path d="M 110.68208982089419 81.91981866633111 l 9.567714281989176 -16.194023086075987 a39.809240821844504,39.809240821844504 0 0,0 0.5869738606438291,0.3536451833425534 l -9.845050208850642 16.02693129327482" fill="#fff116" stroke="none" /><path d="M 110.99172775467656 82.1063720568725 l 5.578211670856013 -9.08086940052185 a31.65732773795609,31.65732773795609 0 0,0 0.461866614570669,0.2892208316724283 l -5.733697437798946 8.983504227526478" fill="#ff880c" stroke="none" /><path d="M 111.2981086023043 82.29822771554956 l 5.732026849575654 -8.980886765316585 a31.654222585233274,31.654222585233274 0 0,0 0.45677491507093576,0.29709911078301166 l -5.88576879043087 8.880888730374044" fill="#ff880c" stroke="none" /><path d="M 111.60114157652 82.49532879139004 l 0.9816966347933237 -1.4812574008609543 a22.777034543943895,22.777034543943895 0 0,0 0.32494726784312494,0.21940584578102587 l -1.0070485970429905 1.4641396427812583" fill="#ff0d01" stroke="none" /><path d="M 111.90073688211348 82.69761687909136 l 10.596484094357207 -15.406140758455502 a39.69851994761375,39.69851994761375 0 0,0 0.5596902648145573,0.39209879795111163 l -10.860105498755415 15.221457117740455" fill="#ffef16" stroke="none" /><path d="M 112.19680574252982 82.90503203632743 l 15.67218515409068 -21.966038386240214 a47.98377716128487,47.98377716128487 0 0,0 0.6682419223739936,0.4855061756007605 l -16.047972392818462 21.69301297582278" fill="#adff20" stroke="none" /><path d="M 112.48926042617603 83.11751280151076 l 8.18153755450542 -11.059478168811626 a34.75680246722339,34.75680246722339 0 0,0 0.47791239978432754,0.3599537113544439 l -8.370696108048131 10.917007867951334" fill="#ffb110" stroke="none" /><path d="M 112.77801427241765 83.33499621200491 l 7.561109367782058 -9.86115006363132 a33.426288884820664,33.426288884820664 0 0,0 0.4535906730480991,0.3540347150500787 l -7.729732595989588 9.729536959358017" fill="#ffa00e" stroke="none" /><path d="M 113.06298171725822 83.55741782278167 l 1.7858560858337829 -2.247885366723964 a23.87093548886792,23.87093548886792 0 0,0 0.3195256590003357,0.25836752805814195 l -1.8242851433986098 2.216811741401693" fill="#ff1d02" stroke="none" /><path d="M 113.34407831869373 83.78471172551755 l 14.094801345875172 -17.127542385205544 a43.18143667882441,43.18143667882441 0 0,0 0.5698766532768242,0.4772553083441535 l -14.387535536111113 16.88238591946757" fill="#e5ff1a" stroke="none" /><path d="M 113.6212207817346 84.01681056812373 l 9.21016343714336 -10.807238886532211 a35.199419808198726,35.199419808198726 0 0,0 0.45777046826928564,0.39697403913802376 l -9.39482770405941 10.647099853974517" fill="#ffb711" stroke="none" /><path d="M 113.89432698308785 84.25364557470407 l 10.72231304318658 -12.151530739308061 a37.20579206038501,37.20579206038501 0 0,0 0.4765690124777104,0.4278683648622087 l -10.92989304326028 11.965163365676554" fill="#ffd013" stroke="none" /><path d="M 114.16331599549186 84.49514656593476 l 9.79091998285758 -10.718307730137985 a35.51703257241836,35.51703257241836 0 0,0 0.4478395341037149,0.41621803963379866 l -9.973967400756143 10.548185104429546" fill="#ffbb11" stroke="none" /><path d="M 114.42810811169701 84.74124197986012 l 1.2285967544438097 -1.2993290898055472 a22.788213093746037,22.788213093746037 0 0,0 0.2827005409072256,0.271957696369406 l -1.2507805389634536 1.2779883066738393" fill="#ff0d01" stroke="none" /><path d="M 114.68862486808459 84.99185889309783 l 13.21206756152859 -13.499464793888707 a39.88899888749631,39.88899888749631 0 0,0 0.4865777848639073,0.48448826522179084 l -13.44248114655982 13.270040678016798" fill="#fff216" stroke="none" /><path d="M 114.94478906791727 85.2469230424477 l 9.473738996666652 -9.352209647015485 a34.31223331596513,34.31223331596513 0 0,0 0.4113150151326283,0.423896278704742 l -9.63331827550239 9.187749172760629" fill="#ffab0f" stroke="none" /><path d="M 115.19652480421416 85.50635884689758 l 10.053190994741216 -9.588201552566392 a34.892453281885906,34.892453281885906 0 0,0 0.410788317519103,0.4382003357422381 l -10.216746634230782 9.413731799946099" fill="#ffb310" stroke="none" /><path d="M 115.4437574822437 85.77008943001954 l 9.790434465458421 -9.020926872550685 a34.31276562786047,34.31276562786047 0 0,0 0.3964862279834214,0.43780999576468743 l -9.944264334057879 8.851064089516449" fill="#ffab0f" stroke="none" /><path d="M 115.68641384162765 86.03803664274999 l 9.562812172819159 -8.511546010270987 a33.80210108293081,33.80210108293081 0 0,0 0.383103575519122,0.43795361296766505 l -9.707907611916129 8.345676841100374" fill="#ffa50f" stroke="none" /><path d="M 115.9244219780498 86.31012108654704 l 2.693052957068625 -2.3151590017272903 a24.55140752841109,24.55140752841109 0 0,0 0.27274203811099024,0.32284054585615707 l -2.7325056086667323 2.2684595062420265" fill="#ff2603" stroke="none" /><path d="M 116.15771136456269 86.58626213691792 l 6.899457204356265 -5.727761082535762 a29.96714875160186,29.96714875160186 0 0,0 0.3260732703767422,0.3997272741444057 l -6.997028966809417 5.608149638783256" fill="#ff720a" stroke="none" /><path d="M 116.38621287248628 86.86637796730983 l 2.435398609457975 -1.9519827482081942 a24.121122079677797,24.121122079677797 0 0,0 0.256885263076894,0.32621819700075233 l -2.468637953128833 1.9097721572544035" fill="#ff2003" stroke="none" /><path d="M 116.60985879189232 87.15038557335679 l 2.1647947940313967 -1.6747149247100164 a23.73697032854065,23.73697032854065 0 0,0 0.2472307865256271,0.3253267350006754 l -2.1933015207811373 1.6372034138283074" fill="#ff1b02" stroke="none" /><path d="M 116.82858285166822 87.43820079747576 l 30.244810371329113 -22.576424773961097 a58.741800566109475,58.741800566109475 0 0,0 0.5978723328212296,0.8154971900657155 l -30.62894531666397 22.052465140223887" fill="#3cff2e" stroke="none" /><path d="M 117.04232023915458 87.72973835380427 l 5.047753290251742 -3.634320487332118 a27.219975778400528,27.219975778400528 0 0,0 0.2704983540093414,0.3826007386378241 l -5.109564264064966 3.5468932483625006" fill="#ff4c07" stroke="none" /><path d="M 117.2510076193507 88.02491185347247 l 10.34994864899882 -7.184597567783079 a33.59920153215699,33.59920153215699 0 0,0 0.3257131145244177,0.47794380467723446 l -10.472086229191971 7.005375739835438" fill="#ffa20f" stroke="none" /><path d="M 117.45458315368197 88.32363383020206 l 0.7396155625104429 -0.4947710327262257 a21.8898480517103,21.8898480517103 0 0,0 0.20681045261729025,0.3149865077857314 l -0.7480226504856581 0.4819664609628203" fill="#ff0000" stroke="none" /><path d="M 117.65298651832404 88.62581576622439 l 15.733832360215274 -10.137633526353554 a39.71697342665221,39.71697342665221 0 0,0 0.3653439631743767,0.5778864121993308 l -15.906003919635607 9.865299466440018" fill="#fff016" stroke="none" /><line stroke="#e1ed5e" stroke-width="0.3" x1="172.23445277983987" x2="176.4835382374775" y1="55.19839476539836" y2="52.563006222186495" /><path d="M 173.08426987136738 54.67131705675599 a86.0,86.0 0 0,1 12.851231095245387,41.99856678651699" fill="none" id="id147" stroke="none" /><text fill="#e1ed5e" style="font-size:6.75px; font-family:Arial;" text-anchor="middle"><textPath startOffset="22.20632615414155" xlink:href="#id147">March</textPath></text><path d="M 117.84615892207809 88.93136811851018 l 15.924098629502943 -9.876522255803174 a39.73826590246581,39.73826590246581 0 0,0 0.35553296983688365,0.5844027213117916 l -16.09174739762605 9.600951761284302" fill="#fff016" stroke="none" /><path d="M 118.03404312379186 89.2402003453031 l 11.53187295158695 -6.88035632114006 a34.428454746447734,34.428454746447734 0 0,0 0.2992657779476274,0.5115422229397116 l -11.648598404004904 6.680834685846453" fill="#ffad10" stroke="none" /><path d="M 118.21658344932153 89.55222093294921 l 13.085433315492557 -7.504904344836629 a36.08483192744786,36.08483192744786 0 0,0 0.30438820196163024,0.5414726467414407 l -13.21267915874662 7.278548188160395" fill="#ffc212" stroke="none" /><path d="M 118.3937258080291 89.86733742301442 l 2.22089260928647 -1.223436494839876 a23.535578994803622,23.535578994803622 0 0,0 0.19242229969580033,0.35652929745372225 l -2.241623008200735 1.185026214053695" fill="#ff1802" stroke="none" /><path d="M 118.56541770881063 90.18545643968196 l 15.039266806524074 -7.950456138556325 a38.01144611398234,38.01144611398234 0 0,0 0.3008163702898294,0.5810814794723497 l -15.17389260997402 7.69040193682363" fill="#ffda14" stroke="none" /><path d="M 118.73160827565052 90.50648371742162 l 11.934564957263268 -6.048652367696044 a34.379836926673335,34.379836926673335 0 0,0 0.26298935993165456,0.5301705017939472 l -12.036914330148331 5.842322277403147" fill="#ffac0f" stroke="none" /><path d="M 118.89224826269711 90.83032412892265 l 7.983797976585001 -3.875072921310218 a29.874526481812676,29.874526481812676 0 0,0 0.22056193066012011,0.46455967627540257 l -8.049318101086879 3.7370708293942756" fill="#ff700a" stroke="none" /><path d="M 119.04729006885535 91.15688171328212 l 2.6884706363822133 -1.24818090982768 a23.96409007055245,23.96409007055245 0 0,0 0.17048473964867614,0.3756405252072536 l -2.7095576929942364 1.2017183757783636" fill="#ff1e03" stroke="none" /><path d="M 119.196687751892 91.48605970444005 l 34.39540596156195 -15.25473751425805 a58.62646632211911,58.62646632211911 0 0,0 0.4011984695039867,0.9260213823291253 l -34.65289514090862 14.660416987342321" fill="#3dff2e" stroke="none" /><path d="M 119.34039704204932 91.81776055985345 l 1.0876879585856873 -0.46016238932234826 a22.181022658461366,22.181022658461366 0 0,0 0.14573809950254915,0.3529163677877819 l -1.0954477449744338 0.4413714510812632" fill="#ff0400" stroke="none" /><path d="M 119.47837535516314 92.15188598940014 l 2.7147551913090853 -1.0938134143006957 a23.926828237878638,23.926828237878638 0 0,0 0.15063242971048685,0.38334310334866256 l -2.7331811709012728 1.0469213060562488" fill="#ff1d03" stroke="none" /><path d="M 119.61058180528143 92.48833698450437 l 15.349558711585955 -5.879515132332626 a37.43708157891031,37.43708157891031 0 0,0 0.2253273967364092,0.6037653975201085 l -15.44849069682399 5.614426597783185" fill="#ffd313" stroke="none" /><path d="M 119.7369772167798 92.82701384747503 l 17.611272723758553 -6.40044389717705 a39.73826590246581,39.73826590246581 0 0,0 0.2281107394525165,0.6448997781547943 l -17.718836544020878 6.096346492595641" fill="#fff016" stroke="none" /><path d="M 119.85752413597 93.16781622104841 l 17.719759356397113 -6.096663995608845 a39.73924180760727,39.73924180760727 0 0,0 0.2169813813865841,0.648746712434374 l -17.822078031555467 5.790744180252156" fill="#fff016" stroke="none" /><path d="M 119.97218684219823 93.5106431181261 l 19.430546287626324 -6.313367197414972 a41.43048541775218,41.43048541775218 0 0,0 0.21453990923818328,0.6801501406020349 l -19.536341680632713 5.977966890386518" fill="#faff18" stroke="none" /><path d="M 120.08093135843002 93.85539295169968 l 2.6188830647423678 -0.8013576188803029 a23.738744701525114,23.738744701525114 0 0,0 0.11620014120417166,0.39176910995595826 l -2.6322891030582416 0.7561591221778148" fill="#ff1b02" stroke="none" /><path d="M 120.18372546131832 94.20196356495316 l 17.990804946480285 -5.168091627852559 a39.71839292503978,39.71839292503978 0 0,0 0.18310789938034366,0.6587365381979061 l -18.077099616426995 4.857643786235701" fill="#fff016" stroke="none" /><path d="M 120.28053869075195 94.5502522615342 l 14.569738228002858 -3.915152312709759 a36.08660630043233,36.08660630043233 0 0,0 0.156037915353881,0.6012777397301261 l -14.634972475227043 3.6637781474307825" fill="#ffc212" stroke="none" /><path d="M 120.37134235888165 94.90015583598534 l 12.782385486095974 -3.1999940345134332 a34.17684865725028,34.17684865725028 0 0,0 0.1379559884088038,0.5719166358809117 l -12.835574274765598 2.9794921669731154" fill="#ffaa0f" stroke="none" /><path d="M 120.45610955862082 95.25157060432595 l 6.388922564601489 -1.4830458169722645 a27.558792299784542,27.558792299784542 0 0,0 0.10328722102086042,0.4630163592477306 l -6.413504172624387 1.37285128817457" fill="#ff5107" stroke="none" /><path d="M 120.53481517161879 95.60439243477599 l 3.481413300067858 -0.7452186207451234 a24.560279393333428,24.560279393333428 0 0,0 0.08493260866991743,0.4141615630765466 l -3.4937252046527725 0.6851814015051649" fill="#ff2703" stroke="none" /><path d="M 120.6074358757038 95.95851677861258 l 9.056261573974467 -1.7760933199295235 a30.228780048161553,30.228780048161553 0 0,0 0.09574502009483593,0.5114737258416232 l -9.085492317979162 1.6199415166253375" fill="#ff750a" stroke="none" /><path d="M 120.67395015179393 96.31383870115 l 37.19712683596819 -6.632240494169065 a58.78376448719213,58.78376448719213 0 0,0 0.16904010048643592,0.9976842418823823 l -37.30577879797485 5.990970463970845" fill="#3cff2e" stroke="none" /><path d="M 120.73433829027371 96.67025291283417 l 3.9325486890913304 -0.6315317305680365 a24.982935038233514,24.982935038233514 0 0,0 0.06453223763871367,0.4251868170340766 l -3.942836820169344 0.5637458011418778" fill="#ff2d04" stroke="none" /><path d="M 120.78858239683441 97.02765380044208 l 5.545300414877098 -0.7928656364792215 a26.601695511962937,26.601695511962937 0 0,0 0.06091028343144669,0.45385236056747896 l -5.558126697366381 0.6972949338470782" fill="#ff4306" stroke="none" /><path d="M 120.83666639777658 97.38593545837742 l 13.126210741596335 -1.6467491205375246 a34.22910394164284,34.22910394164284 0 0,0 0.06831093634274832,0.5852463857988727 l -13.152612030942674 1.420558996413799" fill="#ffaa0f" stroke="none" /><path d="M 120.87857604477298 97.74499172005257 l 8.824977256817412 -0.9531491391843813 a29.876300854797144,29.876300854797144 0 0,0 0.05082225431027821,0.511773165214597 l -8.840076636809918 0.8011004432653491" fill="#ff700a" stroke="none" /><path d="M 120.91429891909075 98.10471618934814 l 1.77879483110702 -0.16119694276679675 a22.78608384616468,22.78608384616468 0 0,0 0.032036708918584976,0.3909289948147624 l -1.7813060238450997 0.13055403074426558" fill="#ff0d01" stroke="none" /><path d="M 120.94382443527127 98.46500227214037 l 22.91294681715076 -1.6793170421951875 a43.974403965582795,43.974403965582795 0 0,0 0.04883129101954656,0.7553984588313988 l -22.938458699174724 1.2846595191107535" fill="#dbff1b" stroke="none" /><path d="M 120.96714384426684 98.82574320788733 l 18.685917649158974 -1.0464976002147588 a39.715199053667746,39.715199053667746 0 0,0 0.0323516073379386,0.682891298882675 l -18.70116286473041 0.7246951947090842" fill="#fff016" stroke="none" /><path d="M 120.98425023603335 99.18683210126433 l 14.418999935813252 -0.5587556261381766 a35.42982214023179,35.42982214023179 0 0,0 0.01837003470690453,0.6096120195565932 l -14.426481664975801 0.31047345915658436" fill="#ffba11" stroke="none" /><line stroke="#e1ed5e" stroke-width="0.3" x1="184.98032266829074" x2="189.97916517819016" y1="98.17113171792111" y2="98.06355123074" /><path d="M 185.9800911702706 98.14961562048488 a86.0,86.0 0 0,1 -9.607161424134198,41.387399972396054" fill="none" id="id148" stroke="none" /><text fill="#e1ed5e" style="font-size:6.75px; font-family:Arial;" text-anchor="middle"><textPath startOffset="21.466115282336823" xlink:href="#id148">April</textPath></text><path d="M 120.99513854157772 99.54816195383933 l 22.3128081130279 -0.4801957177935728 a43.31797467997916,43.31797467997916 0 0,0 0.0096268895003067,0.7456132010032094 l -22.31776800964592 0.09604625872990068" fill="#e3ff1b" stroke="none" /><path d="M 120.99980553446 99.90962569577887 l 10.390898129638606 -0.044718042134140115 a31.390994352987562,31.390994352987562 0 0,0 -0.0023254788095303978,0.5403593775412695 l -10.390128353539573 -0.13415081361081413" fill="#ff850c" stroke="none" /><path d="M 120.99824983174949 100.27111621757518 l 6.214666989465902 0.08023987814097645 a27.215184971342467,27.215184971342467 0 0,0 -0.010079904891572804,0.46837357208566566 l -6.212365021889322 -0.18720326601675696" fill="#ff4c07" stroke="none" /><path d="M 120.9904718944345 100.63252640178507 l 31.03832533454403 0.9353081884023284 a52.05241441466815,52.05241441466815 0 0,0 -0.034696322940506695,0.8953579254492503 l -31.01762687875232 -1.469443360865585" fill="#81ff25" stroke="none" /><path d="M 120.9764740272857 100.99374915477107 l 18.440781626809432 0.873622093547383 a39.46146371688893,39.46146371688893 0 0,0 -0.037983818144651744,0.678226589058509 l -18.42301145777725 -1.1909203989413153" fill="#ffec16" stroke="none" /><path d="M 120.95626037817324 101.35467743843564 l 11.512058147218877 0.7441750178977328 a32.53608595851347,32.53608595851347 0 0,0 -0.04093882660080225,0.5585777629187778 l -11.497542761953737 -0.942225917313281" fill="#ff940d" stroke="none" /><path d="M 120.92983693683757 101.71520430193887 l 19.097345137153017 1.5650312342952024 a40.16136514061202,40.16136514061202 0 0,0 -0.06239432151315524,0.6885161386627134 l -19.067576219362785 -1.8935287615064864" fill="#fff517" stroke="none" /><path d="M 120.89721153311464 102.0752229133903 l 6.187500390826239 0.6144572239844781 a27.217935249468393,27.217935249468393 0 0,0 -0.05031131448941697,0.46582028758859656 l -6.17600677483577 -0.7208738334578662" fill="#ff4c07" stroke="none" /><path d="M 120.8583938346157 102.4346265915055 l 18.0512008076475 2.106966329400215 a39.17374913745758,39.17374913745758 0 0,0 -0.08394093277753219,0.6690918244574052 l -18.012258365623122 -2.4173759081450155" fill="#ffe915" stroke="none" /><path d="M 120.81339534386255 102.79330883721812 l 22.04324715362227 2.95836388335135 a43.24087817380406,43.24087817380406 0 0,0 -0.10535526507801024,0.7368544785732987 l -21.989057837527657 -3.337363833905058" fill="#e4ff1a" stroke="none" /><path d="M 120.76222939487914 103.15116336523771 l 17.603175393106024 2.67170159599002 a38.80476827533762,38.80476827533762 0 0,0 -0.10591529714090876,0.6595346564004851 l -17.55457834160383 -2.97431548208371" fill="#ffe415" stroke="none" /><path d="M 120.70491114924044 103.5080841355445 l 18.85082573279925 3.1939418729441424 a40.11948993817859,40.11948993817859 0 0,0 -0.12122496991021683,0.6798940094830987 l -18.793054320549842 -3.5179546331604596" fill="#fff417" stroke="none" /><path d="M 120.64145759157962 103.86396538481128 l 1.8740993582711298 0.3508209154285075 a22.906652490459223,22.906652490459223 0 0,0 -0.07588654043163898,0.3869438347531087 l -1.8677828848638267 -0.38302847724956113" fill="#ff0f01" stroke="none" /><path d="M 120.5718875245553 104.21870165774334 l 30.418848859237794 6.238029833477061 a52.05188210277281,52.05188210277281 0 0,0 -0.1875502712146791,0.8761724284147157 l -30.30696454929867 -6.760716081307946" fill="#81ff25" stroke="none" /><path d="M 120.49622156327973 104.57218783832717 l 12.992880168861685 2.8983824413442623 a34.31223331596513,34.31223331596513 0 0,0 -0.13355535870980098,0.5753529898533383 l -12.941064244221332 -3.1216040885461656" fill="#ffab0f" stroke="none" /><path d="M 120.41448212921028 104.9243191809786 l 18.256689393360542 4.403822991534867 a39.78031854219769,39.78031854219769 0 0,0 -0.1662981848449217,0.6642785834596332 l -18.17817989422056 -4.717429414391895" fill="#fff016" stroke="none" /><path d="M 120.32669344350535 105.2749913415812 l 11.174800880722781 2.8999786932163856 a32.54495782343581,32.54495782343581 0 0,0 -0.14538595708534477,0.5410352312181341 l -11.12322684729566 -3.091904857610068" fill="#ff940d" stroke="none" /><path d="M 120.23288151984713 105.62410040840565 l 6.041827735705823 1.6794368020475856 a27.270900283054736,27.270900283054736 0 0,0 -0.12961126890446756,0.45119383045749273 l -6.012023829915256 -1.7831881080096603" fill="#ff4d07" stroke="none" /><path d="M 120.13307415673323 105.97154293290107 l 2.7247737559432306 0.808177794378981 a23.84210192787033,23.84210192787033 0 0,0 -0.12008838434040957,0.3924557882918749 l -2.7104585990966883 -0.854960555222913" fill="#ff1c02" stroke="none" /><path d="M 120.02730092923936 106.31721596034902 l 60.08190278771807 18.951647881047055 a84.0,84.0 0 0,0 -0.4468309959350121,1.375204400088819 l -59.746779540766816 -19.98305118111367" fill="#4dd2ff" stroke="none" /><path d="M 119.9155931802556 106.66101706037122 l 3.3680184549110628 1.1264755302417655 a24.55140752841109,24.55140752841109 0 0,0 -0.1374986018376446,0.39963529860903635 l -3.3481290221301876 -1.1842835319401022" fill="#ff2603" stroke="none" /><path d="M 119.79798401119884 107.00284435728193 l 6.69374882940492 2.3676795168914913 a28.10015349734548,28.10015349734548 0 0,0 -0.16522320090244266,0.4546232883423332 l -6.652001367497251 -2.4825506022399555" fill="#ff5808" stroke="none" /><path d="M 119.67450827220406 107.3425965602758 l 16.107352105500308 6.0113211740131725 a38.192520877047215,38.192520877047215 0 0,0 -0.23516721076888683,0.6139473795868708 l -16.001490615137914 -6.287692120433188" fill="#ffdd14" stroke="none" /><path d="M 119.54520255179757 107.68017299344265 l 17.78860874681563 6.989929734734123 a40.11265860218839,40.11265860218839 0 0,0 -0.2580531101114938,0.6404666565151986 l -17.665653022446744 -7.295095759092136" fill="#fff417" stroke="none" /><path d="M 119.41010516605496 108.01547362559984 l 17.302384940520188 7.1450828815320095 a39.71963498612891,39.71963498612891 0 0,0 -0.2664034102474236,0.6296989675297054 l -17.176830549080456 -7.4418563747278785" fill="#fff016" stroke="none" /><path d="M 119.26925614724726 108.34839909993367 l 13.04950681050994 5.653694677103693 a35.22159947050457,35.22159947050457 0 0,0 -0.24581140059174872,0.5542398160198336 l -12.950254325186918 -5.877482829616214" fill="#ffb711" stroke="none" /><path d="M 119.12269723197855 108.67885076344098 l 5.805074702374495 2.634637593293218 a27.374967258593742,27.374967258593742 0 0,0 -0.19843642285411922,0.42741440109485385 l -5.758863662680544 -2.7341720616669023" fill="#ff4e07" stroke="none" /><path d="M 118.97047184881838 109.00673069616215 l 15.465725862536907 7.342760315854581 a38.1203038965794,38.1203038965794 0 0,0 -0.2865317060444036,0.5903401823394079 l -15.337040899877788 -7.607889454159265" fill="#ffdc14" stroke="none" /><path d="M 118.81262510543309 109.33194174019688 l 5.572734510925005 2.764336901314097 a27.220685527594316,27.220685527594316 0 0,0 -0.21183050658329133,0.41796168585420046 l -5.524325334555445 -2.8598527988709916" fill="#ff4c07" stroke="none" /><path d="M 118.64920377521936 109.65438752849418 l 12.917168997537903 6.687006950880657 a35.54542254016983,35.54542254016983 0 0,0 -0.28596714201181156,0.5409420631551026 l -12.800149347301197 -6.908364029121894" fill="#ffbb11" stroke="none" /><line stroke="#e1ed5e" stroke-width="0.3" x1="174.80103733775053" x2="179.2010983576182" y1="140.37084112569926" y2="142.7455964860345" /><path d="M 175.68104954172406 140.8457921977663 a86.0,86.0 0 0,1 -30.038265399797805,32.042727171017184" fill="none" id="id149" stroke="none" /><text fill="#e1ed5e" style="font-size:6.75px; font-family:Arial;" text-anchor="middle"><textPath startOffset="22.206326154141568" xlink:href="#id149">May</textPath></text><path d="M 118.48025628344425 109.97397251340804 l 15.89810559067364 8.580360885941394 a39.06577854135275,39.06577854135275 0 0,0 -0.32447587432166264,0.5890179622826035 l -15.748053306900468 -8.852749366621802" fill="#ffe815" stroke="none" /><path d="M 118.30583269289576 110.29060199501025 l 5.784700875621705 3.2518626915186566 a27.636066243258085,27.636066243258085 0 0,0 -0.23668054038336067,0.4126724720205088 l -5.727868339085965 -3.3509550093974805" fill="#ff5207" stroke="none" /><path d="M 118.12598468904814 110.60418214915192 l 16.931973640337933 9.905653993808558 a40.6166692484263,40.6166692484263 0 0,0 -0.35823732905944106,0.6004263692762917 l -16.758955435580262 -10.195642456970955" fill="#fffb17" stroke="none" /><path d="M 117.94076556474637 110.91462005526583 l 18.308570081077047 11.1383812172894 a42.43052203179789,42.43052203179789 0 0,0 -0.38497689544785957,0.6207053347740429 l -18.114128545961222 -11.451882883428716" fill="#eeff19" stroke="none" /><path d="M 117.75023020441432 111.22182372390056 l 17.051079454787555 10.779815570857362 a41.17284646040754,41.17284646040754 0 0,0 -0.3838782427557726,0.5957875575746816 l -16.862996348654733 -11.071724728353496" fill="#fdff18" stroke="none" /><path d="M 117.55443506779139 111.5257021239791 l 11.131001503956323 7.308273218746487 a34.315782061934065,34.315782061934065 0 0,0 -0.32844598237386813,0.49098217951284423 l -11.003552416171733 -7.498792312465138" fill="#ffab0f" stroke="none" /><path d="M 117.35343817320211 111.8261652097733 l 16.844694632215887 11.479462435080553 a41.38435172015603,41.38435172015603 0 0,0 -0.40623489148933584,0.5852116596202849 l -16.644598833564416 -11.767715356887859" fill="#faff18" stroke="none" /><path d="M 117.14729908036423 112.12312394758627 l 3.0802403440189017 2.1777269588572263 a24.772316964977257,24.772316964977257 0 0,0 -0.2491625682228511,0.34606501488748354 l -3.0422979834204478 -2.230425579195841" fill="#ff2a04" stroke="none" /><path d="M 116.93607887273984 112.41649034213515 l 28.63709654007996 20.994956110473737 a56.50875216515751,56.50875216515751 0 0,0 -0.5818752851826017,0.779517033202202 l -28.271459988202267 -21.484786023185254" fill="#53ff2b" stroke="none" /><path d="M 116.71984013943494 112.70617746262583 l 9.893315725433766 7.518386793941953 a33.42593401022377,33.42593401022377 0 0,0 -0.35207565386572426,0.45510524289720133 l -9.762433254349972 -7.687570030952407" fill="#ffa00e" stroke="none" /><path d="M 116.498646956653 112.99209946851258 l 10.460148211340142 8.236995819970211 a34.3140076889496,34.3140076889496 0 0,0 -0.3694182144801677,0.460906023211171 l -10.316812084805122 -8.415829676759632" fill="#ffab0f" stroke="none" /><path d="M 116.27256486870786 113.27417163493432 l 14.503484011003772 11.83106275008982 a39.71697342665221,39.71697342665221 0 0,0 -0.43670514458742077,0.5260394790540395 l -14.297682866522809 -12.078963486257631" fill="#fff016" stroke="none" /><path d="M 115.80600337817218 113.82643327865902 l 13.662685191847583 11.951547819689798 a39.15236794299474,39.15236794299474 0 0,0 -0.4480916738290895,0.5034357457342019 l -13.454934668370155 -12.184957735164867" fill="#ffe915" stroke="none" /><path d="M 115.56566222782051 114.09645910891815 l 13.890464576137358 12.579379086835871 a39.73995155680106,39.73995155680106 0 0,0 -0.46354494666259144,0.5030864883633954 l -13.671873221479045 -12.816616830000601" fill="#fff016" stroke="none" /><path d="M 115.32070863581623 114.36230785411682 l 13.717439875432433 12.859333020714564 a39.8024094858543,39.8024094858543 0 0,0 -0.4728781145739241,0.49581081258897125 l -13.494055209479544 -13.093550949886042" fill="#fff116" stroke="none" /><path d="M 115.07121518719521 114.62390073753431 l 16.55912918912942 16.067653374598404 a44.07323654081762,44.07323654081762 0 0,0 -0.5329910287469319,0.5399170981506696 l -16.28009753532695 -16.350310966729737" fill="#daff1c" stroke="none" /><path d="M 114.81725581225074 114.88116024355365 l 2.5145787243305078 2.5254236962592427 a24.563828139302363,24.563828139302363 0 0,0 -0.3021936271248367,0.2957600674690587 l -2.470735144829877 -2.5683338666508737" fill="#ff2703" stroke="none" /><path d="M 114.55890576462653 115.13401014063108 l 16.615493951315475 17.27183745922496 a44.9664559011984,44.9664559011984 0 0,0 -0.5624322199852773,0.5318147692452212 l -16.31572589693939 -17.555286865216104" fill="#d0ff1d" stroke="none" /><path d="M 114.29624159901734 115.38237550388516 l 10.274788219394868 11.055398687756586 a36.092816605877964,36.092816605877964 0 0,0 -0.4587232863389849,0.4190328458465211 l -10.08296538358902 -11.23062430018969" fill="#ffc212" stroke="none" /><path d="M 114.0293411484842 115.62618273729858 l 12.968156260074617 14.444212122367766 a40.411551731421895,40.411551731421895 0 0,0 -0.5216123870339491,0.46026228472514813 l -12.71760152013408 -14.665297548865203" fill="#fff817" stroke="none" /><path d="M 113.75828350139079 115.86535959552629 l 6.399807656224951 7.379935861762637 a30.768366872738028,30.768366872738028 0 0,0 -0.4031161883825402,0.3435443611585396 l -6.271825991265363 -7.4890046131441235" fill="#ff7c0b" stroke="none" /><path d="M 113.48314897796784 116.09983520530334 l 3.9911153889832334 4.765674558145008 a27.216160876483926,27.216160876483926 0 0,0 -0.3617544517599983,0.29769928568079296 l -3.908490808678544 -4.833668962682979" fill="#ff4c07" stroke="none" /><path d="M 113.20401910651253 116.32954008644616 l 12.274711721874539 15.180256518491328 a40.522006449704975,40.522006449704975 0 0,0 -0.5461643002689603,0.43390595176210467 l -12.011589928888228 -15.389296384258559" fill="#fff917" stroke="none" /><path d="M 112.92097659922987 116.55440617244103 l 7.7709272649864145 9.956142656333643 a33.62980946613905,33.62980946613905 0 0,0 -0.45940124771775476,0.3522492868758114 l -7.598397288775166 -10.088431285036826" fill="#ffa20f" stroke="none" /><path d="M 112.63410532772338 116.77436683061366 l 8.706574732329797 11.55976419460239 a35.47178606131445,35.47178606131445 0 0,0 -0.49088734073882173,0.36314671921971137 l -8.50630242117241 -11.70792086256187" fill="#ffba11" stroke="none" /><path d="M 112.34349029814194 116.9893568818739 l 12.622462113487277 17.373328644836242 a42.4746152004619,42.4746152004619 0 0,0 -0.5951961196966813,0.424656627966463 l -12.321538665941711 -17.588029534646925" fill="#edff1a" stroke="none" /><path d="M 112.04921762599082 117.19931262002967 l 8.775595992515507 12.526474629919575 a36.294562814211886,36.294562814211886 0 0,0 -0.5147659838016819,0.3540607375456407 l -8.558673124090943 -12.67567615683031" fill="#ffc512" stroke="none" /><path d="M 111.7513745106137 117.40417183066458 l 1.0116862589343325 1.4983405960989837 a22.807908633873627,22.807908633873627 0 0,0 -0.32726666381968306,0.21689449947395084 l -0.9857448963746854 -1.5155331166642532" fill="#ff0d01" stroke="none" /><path d="M 111.45004920935366 117.60387380957326 l 10.205250799301561 15.690058966662932 a39.71697342665221,39.71697342665221 0 0,0 -0.5763087890818767,0.36782753629866954 l -9.933660208172755 -15.86340093178541" fill="#fff016" stroke="none" /><path d="M 111.1453310114006 117.79835938074945 l 10.364023076365855 16.550662080368234 a40.527861880553715,40.527861880553715 0 0,0 -0.5944487829276687,0.36515899440891897 l -10.07759509350588 -16.72660954160553" fill="#fff917" stroke="none" /><line stroke="#e1ed5e" stroke-width="0.3" x1="143.8653032363475" x2="146.44561519142675" y1="172.8068346515853" y2="177.08958963109032" /><path d="M 144.38136562736335 173.6633856474863 a86.0,86.0 0 0,1 -40.68145358897372,12.25698825130547" fill="none" id="id150" stroke="none" /><text fill="#e1ed5e" style="font-size:6.75px; font-family:Arial;" text-anchor="middle"><textPath startOffset="21.466115282336833" xlink:href="#id150">June</textPath></text><path d="M 110.8373102113329 117.98757091392108 l 8.800486204594637 14.606887372901038 a38.053143879117314,38.053143879117314 0 0,0 -0.5639695706457606,0.3332031631049266 l -8.547748762920493 -14.756209108299716" fill="#ffdb14" stroke="none" /><path d="M 110.5260780823613 118.17145234162733 l 9.471113390804131 16.350238356253765 a39.89529791159116,39.89529791159116 0 0,0 -0.5971969567883234,0.3391040179475806 l -9.188267667094609 -16.510845539995973" fill="#fff216" stroke="none" /><path d="M 110.21172684928248 118.3499491758327 l 0.8671433003502763 1.5582120168744458 a22.783244849389533,22.783244849389533 0 0,0 -0.344327723181302,0.18775492878251993 l -0.8401927653003256 -1.5729075974167361" fill="#ff0d01" stroke="none" /><path d="M 109.89434966115114 118.52300852407294 l 9.594708775284083 17.96205698373384 a41.36403514948388,41.36403514948388 0 0,0 -0.6309179412663569,0.3300664478471511 l -9.28409993149123 -18.12455285052571" fill="#faff18" stroke="none" /><path d="M 109.57404056367764 118.69057910512821 l 14.156720449263624 27.63695240962185 a52.05179338412359,52.05179338412359 0 0,0 -0.8009682681039942,0.401622117455831 l -13.678898273476868 -27.876542367986982" fill="#81ff25" stroke="none" /><path d="M 109.2508944713604 118.85261126421891 l 7.45415401496628 15.19099243676813 a37.92130796637141,37.92130796637141 0 0,0 -0.5884797085286809,0.28250602194676055 l -7.191561638437366 -15.317052735214451" fill="#ffd914" stroke="none" /><path d="M 108.92500713936063 119.00905698771935 l 8.36031766059771 17.806344842556985 a40.671319936347885,40.671319936347885 0 0,0 -0.6362776311177563,0.29208385299908535 l -8.052572033712535 -17.947615765890145" fill="#fffb17" stroke="none" /><path d="M 108.59647513512805 119.15986991738527 l 2.597101294397242 5.788433303271909 a27.34435932461168,27.34435932461168 0 0,0 -0.4311024779575426,0.1889826574025935 l -2.497078141781946 -5.832280513968957" fill="#ff4e07" stroke="none" /><path d="M 108.2653958097858 119.30500536409082 l 7.366783830370087 17.206169508907955 a39.716884708002986,39.716884708002986 0 0,0 -0.6307959328556115,0.26367275109271054 l -7.069516438017014 -17.330427303020638" fill="#fff016" stroke="none" /><path d="M 107.93186726928326 119.44442032107085 l 7.072565824400129 17.337902661412507 a39.72495810508231,39.72495810508231 0 0,0 -0.6353702944103328,0.2528269526943314 l -6.773074453947929 -17.45707645851291" fill="#fff016" stroke="none" /><path d="M 107.59598834532513 119.57807347666477 l 9.362541543107254 24.13122794903847 a46.88384334821366,46.88384334821366 0 0,0 -0.7548963619638736,0.2854372101807481 l -8.945774960383105 -24.288813409325847" fill="#baff1f" stroke="none" /><path d="M 107.2578585660854 119.70592522655815 l 4.917919486056123 13.352720059234459 a35.22958414893467,35.22958414893467 0 0,0 -0.5708542082395819,0.20468800905481727 l -4.687345717186806 -13.435395609329236" fill="#ffb711" stroke="none" /><path d="M 106.91757812671514 119.82793768551818 l 0.5873575299209458 1.6835499779057248 a22.783067412091086,22.783067412091086 0 0,0 -0.37139683579477634,0.1259979713589985 l -0.5582909611889425 -1.6934109361628464" fill="#ff0d01" stroke="none" /><path d="M 106.57524785965236 119.94407469862006 l 5.84924923453245 17.741972037314063 a39.68130852966442,39.68130852966442 0 0,0 -0.6505441678868695,0.2082836990496578 l -5.5429837215546405 -17.84002858302343" fill="#ffef16" stroke="none" /><path d="M 106.2309692047433 120.05430185196036 l 3.6899348437806325 11.876012340890952 a33.436047936235234,33.436047936235234 0 0,0 -0.5510977593593612,0.16604123417112177 l -3.4849621099810255 -11.9377689441678" fill="#ffa00e" stroke="none" /><path d="M 105.88484417918355 120.15858648285463 l 2.5440964281133325 8.714825117758577 a30.078579375026404,30.078579375026404 0 0,0 -0.4982571558220635,0.14081244919152286 l -2.393708104186663 -8.75732636028862" fill="#ff730a" stroke="none" /><path d="M 105.53697534728816 120.25689768951611 l 3.9784724610950777 14.555150519937142 a36.08909042261058,36.08909042261058 0 0,0 -0.6006420006163073,0.15863501151295872 l -3.727340017667273 -14.621476880753685" fill="#ffc212" stroke="none" /><path d="M 105.18746579009965 120.34920634021253 l 2.890256565869749 11.337795681908048 a32.70039289687513,32.70039289687513 0 0,0 -0.5466364530502117,0.1343499405609152 l -2.6946668280763264 -11.385866880782993" fill="#ff960d" stroke="none" /><path d="M 104.83641907484287 120.43548508189849 l 0.4116108585826541 1.7391932812163402 a22.787237188604582,22.787237188604582 0 0,0 -0.3824781885708934,0.087050790476663 l -0.38161252061889867 -1.7460208052706876" fill="#ff0d01" stroke="none" /><path d="M 104.48393922423573 120.51570834832081 l 3.9986437783489825 18.29529916508132 a39.7271760713129,39.7271760713129 0 0,0 -0.6693244813013809,0.14026345277673882 l -3.6831278356182238 -18.361418598584603" fill="#fff016" stroke="none" /><path d="M 104.13013068566511 120.58985236759428 l 3.5680197306767387 17.787572619501 a39.14189914238639,39.14189914238639 0 0,0 -0.6617448487007238,0.12682497521950775 l -3.26130726740431 -17.846354793068976" fill="#ffe815" stroke="none" /><path d="M 103.7750983002368 120.6578951692458 l 0.7991389384600939 4.373006238098601 a25.445425356634885,25.445425356634885 0 0,0 -0.4315435434331759,0.07502937658192692 l -0.7237464235548681 -4.386114193201533" fill="#ff3304" stroke="none" /><path d="M 103.41894727170886 120.7198165907248 l 1.084052459349791 6.569673746745199 a27.658512061511598,27.658512061511598 0 0,0 -0.4704108844915811,0.07346850566912419 l -0.970805711249693 -6.587360559761429" fill="#ff5207" stroke="none" /><path d="M 103.06178313531738 120.77559828337769 l 0.25943945731672835 1.7604153220052097 a22.779429947472927,22.779429947472927 0 0,0 -0.388412503488216,0.05383043376067454 l -0.2290983626416819 -1.7646203212584868" fill="#ff0d01" stroke="none" /><path d="M 102.70371172650421 120.8252237178851 l 1.756953823924594 13.53286154235512 a34.64643646758953,34.64643646758953 0 0,0 -0.5920788541528803,0.07169250372618206 l -1.5237475467203334 -13.561099574806653" fill="#ffb010" stroke="none" /><path d="M 102.34483914955558 120.86867818915974 l 0.8916999529992395 7.93598117975676 a28.985920491191504,28.985920491191504 0 0,0 -0.49630438885781825,0.05144397917132766 l -0.7549629675358186 -7.950154527383846" fill="#ff6409" stroke="none" /><path d="M 101.98527174616119 120.90594882070398 l 0.5872949971755576 6.184523190514799 a27.21234597456732,27.21234597456732 0 0,0 -0.46669909668207166,0.04026876182911349 l -0.4807515827519442 -6.193716204622576" fill="#ff4c07" stroke="none" /><path d="M 101.62511606390274 120.93702456842531 l 0.21050002895012515 2.7119566261618075 a23.72011378518821,23.72011378518821 0 0,0 -0.4073503023571387,0.028093261814272203 l -0.1637869658140561 -2.715178232492365" fill="#ff1a02" stroke="none" /><path d="M 101.26447882468166 120.96189622390904 l 2.2674291467637344 37.58830400461135 a58.65663066285505,58.65663066285505 0 0,0 -1.0083687398073535,0.05212114584985852 l -1.6200723385429012 -37.62176495722341" fill="#3dff2e" stroke="none" /><line stroke="#e1ed5e" stroke-width="0.3" x1="102.19456741930631" x2="102.32365962044197" y1="184.97166512339345" y2="189.96999836594603" /><path d="M 102.22038585953345 185.97133177190398 a86.0,86.0 0 0,1 -42.740103519485714,-10.115201625700543" fill="none" id="id151" stroke="none" /><text fill="#e1ed5e" style="font-size:6.75px; font-family:Arial;" text-anchor="middle"><textPath startOffset="22.20632615414155" xlink:href="#id151">July</textPath></text><path d="M 100.54218724476979 120.99299961872073 l 0.1375697725716964 5.326577139178784 a26.328353353705765,26.328353353705765 0 0,0 -0.45314896194184895,0.007801370330749861 l -0.04586112073717951 -5.328155986788694" fill="#ff3f06" stroke="none" /><path d="M 100.18074693466247 120.99922214144158 l 0.07647312675181157 8.884666174343794 a29.88499528242103,29.88499528242103 0 0,0 -0.5144401228285279,0.0 l 0.07647312675180545 -8.884666174343794" fill="#ff710a" stroke="none" /><path d="M 99.81925306533755 120.99922214144158 l -0.08094782941951305 9.40453820156006 a30.40488656686992,30.40488656686992 0 0,0 -0.5233119823575104,-0.009009290356520063 l 0.24281950166969138 -9.40175143392438" fill="#ff780b" stroke="none" /><path d="M 99.45781275523022 120.99299961872073 l -0.1145861215288121 4.4366709633430235 a25.438150427398572,25.438150427398572 0 0,0 -0.4376326685932421,-0.01507295397311757 l 0.19093914179669727 -4.434041210943812" fill="#ff3304" stroke="none" /><path d="M 99.09653310690486 120.98055641714683 l -0.1915307573285012 4.447779869368527 a25.451901818028194,25.451901818028194 0 0,0 -0.43754477323221863,-0.022616066961612905 l 0.2680635989742087 -4.443823995644712" fill="#ff3304" stroke="none" /><path d="M 98.73552117531835 120.96189622390904 l -1.1272667303375763 18.687262891848462 a39.72123192181493,39.72123192181493 0 0,0 -0.6821407342258653,-0.04704441884514844 l 1.4487702253423718 -18.665090128487027" fill="#fff016" stroke="none" /><path d="M 98.37488393609728 120.93702456842531 l -1.4484612722666126 18.661109761618874 a39.71723958259987,39.71723958259987 0 0,0 -0.6811614056806621,-0.05877347225984559 l 1.7694669956888163 -18.633412037080365" fill="#fff016" stroke="none" /><path d="M 98.01472825383883 120.90594882070398 l -0.16836410569815716 1.7729620057180369 a22.780938164509724,22.780938164509724 0 0,0 -0.3900610848905382,-0.0404314263124543 l 0.19885778719428868 -1.7698012109498218" fill="#ff0d01" stroke="none" /><path d="M 97.65516085044442 120.86867818915974 l -1.5878607079598155 14.131696039749725 a35.22062356536311,35.22062356536311 0 0,0 -0.6018912352685154,-0.07288064642839913 l 1.8308793662797203 -14.102269864595977" fill="#ffb711" stroke="none" /><path d="M 97.2962882734958 120.8252237178851 l -2.4098333279318225 18.561637945730123 a39.71741701989832,39.71741701989832 0 0,0 -0.6772224507969108,-0.09385686081542206 l 2.728984369915564 -18.517406519422096" fill="#fff016" stroke="none" /><path d="M 96.93821686468263 120.77559828337769 l -3.11905548099116 21.164217331128192 a42.39281660587796,42.39281660587796 0 0,0 -0.7210092253448055,-0.11260681269521883 l 3.482900569944483 -21.107392211085866" fill="#eeff19" stroke="none" /><path d="M 96.58105272829116 120.7198165907248 l -3.192835795006275 19.349515163410427 a40.61116869217445,40.61116869217445 0 0,0 -0.6887480714019055,-0.11974768063536441 l 3.5254328378802304 -19.29168890425406" fill="#fffa17" stroke="none" /><path d="M 96.22490169976321 120.6578951692458 l -0.5724926923376659 3.132764522377859 a24.18464463252172,24.18464463252172 0 0,0 -0.4088729559342875,-0.07836147513064097 l 0.6263332628436484 -3.12244584889875" fill="#ff2103" stroke="none" /><path d="M 95.86986931433489 120.58985236759428 l -6.109593426884353 30.45802572838335 a52.064746306910195,52.064746306910195 0 0,0 -0.8771881810427442,-0.18382331207844255 l 6.632973069356484 -30.348346435578367" fill="#81ff25" stroke="none" /><path d="M 95.51606077576429 120.51570834832081 l -1.5159555013674804 6.936066565529515 a28.099798622748587,28.099798622748587 0 0,0 -0.471648229554146,-0.10734560149171957 l 1.635123880314489 -6.908944230460109" fill="#ff5808" stroke="none" /><path d="M 95.16358092515715 120.4354850818985 l -3.8370631901619334 16.212872864703915 a37.6607412936024,37.6607412936024 0 0,0 -0.6295561678692788,-0.1547295890368032 l 4.115572642774423 -16.14442201735308" fill="#ffd614" stroke="none" /><path d="M 94.81253420990036 120.34920634021253 l -3.295933908424562 12.929172335794103 a34.342663812648745,34.342663812648745 0 0,0 -0.5715756772301311,-0.15095833132696762 l 3.5180000284661825 -12.870522655163553" fill="#ffac0f" stroke="none" /><path d="M 94.46302465271185 120.25689768951611 l -1.6548001437151638 6.054048484115484 a27.276134683358915,27.276134683358915 0 0,0 -0.45183414813910916,-0.1276928435134297 l 1.758765459958887 -6.024666847263533" fill="#ff4d07" stroke="none" /><path d="M 94.11515582081647 120.15858648285463 l -5.125957758741107 17.559014247574964 a39.29192237822309,39.29192237822309 0 0,0 -0.647615125593064,-0.1951211248733084 l 5.427447858774417 -17.468177753595928" fill="#ffea16" stroke="none" /><path d="M 93.76903079525671 120.05430185196036 l -4.741313827476589 15.259863361017263 a36.979470786216226,36.979470786216226 0 0,0 -0.6062496410251137,-0.19410199032357892 l 5.003284813592644 -15.175988524033977" fill="#ffcd13" stroke="none" /><path d="M 93.42475214034765 119.94407469862007 l -5.001979227207138 15.172028412878655 a36.975301009702726,36.975301009702726 0 0,0 -0.6027506985418094,-0.2044857627528424 l 5.262399658686173 -15.08367966322769" fill="#ffcd13" stroke="none" /><path d="M 93.08242187328487 119.8279376855182 l -2.6320327325972777 7.544227192265168 a28.990178986354227,28.990178986354227 0 0,0 -0.46975194489997535,-0.16843633446746775 l 2.76150423812698 -7.497803316757742" fill="#ff6409" stroke="none" /><path d="M 92.7421414339146 119.70592522655815 l -1.9950091242643273 5.416680453482332 a26.77239019306868,26.77239019306868 0 0,0 -0.43107344693818467,-0.1629950921434211 l 2.087952791962795 -5.381537111232278" fill="#ff4606" stroke="none" /><path d="M 92.06813273071674 119.44442032107085 l -5.088521110427405 12.474155192555735 a34.47210432186563,34.47210432186563 0 0,0 -0.5474966972630031,-0.228853663859233 l 5.3024892671878705 -12.38471648567653" fill="#ffad10" stroke="none" /><path d="M 91.40352486487194 119.15986991738527 l -3.089385111510061 6.885638116878917 a28.546940614834323,28.546940614834323 0 0,0 -0.4465992197571417,-0.20501179748201737 l 3.207452327034622 -6.831439249062826" fill="#ff5e08" stroke="none" /><path d="M 91.07499286063937 119.00905698771935 l -1.1367817954031796 2.42119133284738 a23.674778555435076,23.674778555435076 0 0,0 -0.3673957342436105,-0.17637227903893743 l 1.1782901976470321 -2.4012647773088807" fill="#ff1a02" stroke="none" /><path d="M 90.7491055286396 118.85261126421891 l -4.301703057302511 8.766539902113953 a30.76508428271676,30.76508428271676 0 0,0 -0.473410322179545,-0.2373777633778996 l 4.451967287164816 -8.691194297826753" fill="#ff7c0b" stroke="none" /><path d="M 90.42595943632237 118.69057910512821 l -6.574931336674391 12.835675119773486 a35.42166002450325,35.42166002450325 0 0,0 -0.5402799977839021,-0.2826489596308908 l 6.794902236984789 -12.720596741197879" fill="#ffba11" stroke="none" /><path d="M 90.10565033884886 118.52300852407294 l -10.453252019388724 19.56931813514391 a43.18622748588247,43.18622748588247 0 0,0 -0.6526820688319337,-0.35589430388863363 l 10.788556900089297 -19.38648317949551" fill="#e5ff1a" stroke="none" /><line stroke="#e1ed5e" stroke-width="0.3" x1="58.666819895761336" x2="56.23545636021788" y1="174.27360380694188" y2="178.64263932499728" /><path d="M 58.180547188652646 175.14741091055294 a86.0,86.0 0 0,1 -31.652253787137756,-30.449443065178592" fill="none" id="id152" stroke="none" /><text fill="#e1ed5e" style="font-size:6.75px; font-family:Arial;" text-anchor="middle"><textPath startOffset="22.20632615414155" xlink:href="#id152">August</textPath></text><path d="M 89.7882731507175 118.34994917583269 l -4.867866382836984 8.747306115623278 a31.010568785117798,31.010568785117798 0 0,0 -0.4642005017179286,-0.2635851597643475 l 5.017715651476119 -8.662217790064297" fill="#ff800b" stroke="none" /><path d="M 89.4739219176387 118.17145234162733 l -9.024328358231077 15.578941310684792 a39.00394164284407,39.00394164284407 0 0,0 -0.5780609426565287,-0.3415285940694021 l 9.291157171915987 -15.42129414432164" fill="#ffe715" stroke="none" /><path d="M 89.1626897886671 117.98757091392108 l -0.8216918774392352 1.3638292737412872 a22.59223359761164,22.59223359761164 0 0,0 -0.33137513657392914,-0.20355767413216785 l 0.8450462139454731 -1.349483132780741" fill="#ff0a01" stroke="none" /><path d="M 88.8546689885994 117.79835938074946 l -16.494622179386663 26.340824969496513 a52.07911872808438,52.07911872808438 0 0,0 -0.7556883433241044,-0.48231605486592416 l 16.94559232475769 -26.052994485806785" fill="#81ff25" stroke="none" /><path d="M 88.54995079064634 117.60387380957326 l -4.838799083779376 7.439409814164383 a29.874615200461903,29.874615200461903 0 0,0 -0.42866559168128093,-0.2840961797460772 l 4.966139374200619 -7.355015613326987" fill="#ff700a" stroke="none" /><path d="M 88.24862548938628 117.40417183066458 l -6.768140362547826 10.023838295464815 a33.09483601132219,33.09483601132219 0 0,0 -0.4693842409765124,-0.32284676101766135 l 6.939681488147229 -9.905850745082054" fill="#ff9b0e" stroke="none" /><path d="M 87.95078237400918 117.19931262002967 l -8.656225407678162 12.356082487460087 a36.086517581783106,36.086517581783106 0 0,0 -0.5056798074961637,-0.3607891160168967 l 8.867632543023213 -12.20524910959897" fill="#ffc212" stroke="none" /><path d="M 87.65650970185807 116.9893568818739 l -1.8562428947036114 2.554899160273128 a24.158029037754716,24.158029037754716 0 0,0 -0.3343183963541081,-0.2473207571987186 l 1.8999462614762839 -2.5225684543346425" fill="#ff2103" stroke="none" /><path d="M 87.36589467227662 116.77436683061367 l -13.424255095660062 17.82345275436405 a43.31336131021955,43.31336131021955 0 0,0 -0.5916837634420808,-0.453677879117379 l 13.72906758759563 -17.589735533419304" fill="#e3ff1b" stroke="none" /><path d="M 87.07902340077011 116.55440617244103 l -10.407926620954912 13.334676630133252 a37.91562997282111,37.91562997282111 0 0,0 -0.5110349987003893,-0.4059971100008589 l 10.63591911237266 -13.153545606127262" fill="#ffd914" stroke="none" /><path d="M 86.79598089348748 116.32954008644616 l -13.951827243852678 17.254361753028256 a43.18933263860529,43.18933263860529 0 0,0 -0.5740682317930749,-0.4724190723994531 l 14.246765604190443 -17.01164756177162" fill="#e5ff1a" stroke="none" /><path d="M 86.51685102203217 116.09983520530335 l -5.702203722406965 6.808835264509264 a29.88118038050443,29.88118038050443 0 0,0 -0.3914925868240521,-0.3336384757417502 l 5.8185617858080745 -6.709672398544562" fill="#ff700a" stroke="none" /><path d="M 86.24171649860922 115.8653595955263 l -8.87765880181206 10.237269005461304 a34.550442889129855,34.550442889129855 0 0,0 -0.44596008359823125,-0.3935079228856211 l 9.05256123831688 -10.082937940803394" fill="#ffae10" stroke="none" /><path d="M 85.97065885151581 115.62618273729859 l -2.0956588880375033 2.3341900658717796 a24.136913999239553,24.136913999239553 0 0,0 -0.3067692009941343,-0.2802263916805876 l 2.1355276384984925 -2.2977709076046158" fill="#ff2003" stroke="none" /><path d="M 85.70375840098266 115.38237550388516 l -12.844995206676483 13.820873006810677 a39.86823872357804,39.86823872357804 0 0,0 -0.4986646504112546,-0.4715185520419718 l 13.080995691478554 -13.597719818022775" fill="#fff116" stroke="none" /><path d="M 85.44109423537348 115.13401014063109 l -12.934609093402996 13.445550671828371 a39.65708833842644,39.65708833842644 0 0,0 -0.48787669813665746,-0.4774900335600804 l 13.164135743915448 -13.220910535345721" fill="#ffef16" stroke="none" /><path d="M 85.18274418774928 114.88116024355367 l -10.423075918648228 10.468028961738558 a35.77227612623396,35.77227612623396 0 0,0 -0.4326049945409165,-0.4382265754962958 l 10.601721538244679 -10.287061892261598" fill="#ffbe11" stroke="none" /><path d="M 84.9287848128048 114.62390073753433 l -9.628250629524786 9.342483650681435 a34.41585669825801,34.41585669825801 0 0,0 -0.4088824178521903,-0.42871158042765667 l 9.787639598755932 -9.175364953671279" fill="#ffad10" stroke="none" /><path d="M 84.67929136418377 114.36230785411682 l -1.2980023840644073 1.2168046712754028 a22.779163791525256,22.779163791525256 0 0,0 -0.26570657112322577,-0.288372005269126 l 1.318755363183362 -1.1942814112049327" fill="#ff0d01" stroke="none" /><path d="M 84.43433777217949 114.09645910891817 l -8.484777575052181 7.683921081187177 a32.447012434693214,32.447012434693214 0 0,0 -0.3713501092394685,-0.4172157843860257 l 8.615786533939987 -7.536731127060286" fill="#ff930d" stroke="none" /><path d="M 84.19399662182784 113.82643327865904 l -13.844381556602366 12.110488230124385 a39.393771387531515,39.393771387531515 0 0,0 -0.44206844303467324,-0.5142254708436974 l 14.050792509207819 -11.870385660119158" fill="#ffec16" stroke="none" /><path d="M 83.95833913139862 113.55231037782056 l -2.044927159380286 1.727594654379002 a23.676996521665657,23.676996521665657 0 0,0 -0.26033872415997267,-0.31359476418371124 l 2.074361883433795 -1.6921386330815296" fill="#ff1a02" stroke="none" /><path d="M 83.72743513129214 113.27417163493432 l -14.50410273099286 11.831567464337109 a39.717771894495215,39.717771894495215 0 0,0 -0.4275941332588686,-0.533489426844037 l 14.70561477630659 -11.580150203914814" fill="#fff016" stroke="none" /><path d="M 83.50135304334701 112.99209946851258 l -4.928195636267027 3.8807793193521296 a27.272763374688427,27.272763374688427 0 0,0 -0.28726425400503935,-0.3713277719126443 l 4.994266707490135 -3.7953735533262325" fill="#ff4d07" stroke="none" /><path d="M 83.28015986056508 112.70617746262583 l -4.957535848021153 3.767460079580339 a27.22662967709228,27.22662967709228 0 0,0 -0.28035485302554475,-0.37558114056301345 l 5.021651967741783 -3.6815660595080177" fill="#ff4c07" stroke="none" /><path d="M 83.06392112726016 112.41649034213515 l -10.028135375453344 7.352011464670093 a33.43445100054921,33.43445100054921 0 0,0 -0.3362872229592182,-0.4670735401786527 l 10.153202390788168 -7.178304319040302" fill="#ffa00e" stroke="none" /><path d="M 82.85270091963577 112.12312394758628 l -9.69239785578572 6.852515956263003 a32.87011167283942,32.87011167283942 0 0,0 -0.3226578572246892,-0.46481270829230187 l 9.808916620172543 -6.684661985783689" fill="#ff980e" stroke="none" /><path d="M 82.6465618267979 111.8261652097733 l -3.6072942440223446 2.4583288489741806 a25.365312416386192,25.365312416386192 0 0,0 -0.2427785250466794,-0.36292095432194293 l 3.6490758744797547 -2.3958709804464164" fill="#ff3204" stroke="none" /><path d="M 82.44556493220864 111.52570212397912 l -7.6744506471610885 5.038808243202916 a30.18078325893172,30.18078325893172 0 0,0 -0.2813928848366814,-0.4367280061829385 l 7.760048395374816 -4.905958637098529" fill="#ff750a" stroke="none" /><path d="M 82.24976979558568 111.22182372390057 l -2.635650847028842 1.6662774996434353 a24.118194364253426,24.118194364253426 0 0,0 -0.2188270882738715,-0.3528189423592506 l 2.6639425749706693 -1.6206622259189205" fill="#ff2003" stroke="none" /><path d="M 82.05923443525364 110.91462005526583 l -32.3636393408954 19.689060967701298 a58.88224218783006,58.88224218783006 0 0,0 -0.5193389207121195,-0.8704419034324217 l 32.69775913730576 -19.129056970382766" fill="#3bff2e" stroke="none" /><line stroke="#e1ed5e" stroke-width="0.3" x1="26.63291911575756" x2="22.317208475507996" y1="142.92168965132927" y2="145.44649492493687" /><path d="M 25.769776987707644 143.4266507060508 a86.0,86.0 0 0,1 -11.730757126820373,-40.83630448921669" fill="none" id="id153" stroke="none" /><text fill="#e1ed5e" style="font-size:6.75px; font-family:Arial;" text-anchor="middle"><textPath startOffset="21.46611528233685" xlink:href="#id153">September</textPath></text><path d="M 81.87401531095188 110.60418214915194 l -2.299831145172647 1.3454622628275072 a23.664487192125165,23.664487192125165 0 0,0 -0.20266718017054033,-0.35336731149479667 l 2.3226503214955647 -1.3056751054744036" fill="#ff1a02" stroke="none" /><path d="M 81.51974371655577 109.97397251340807 l -5.1325514979663325 2.7700875344585194 a26.83236399994367,26.83236399994367 0 0,0 -0.21586955219939744,-0.40834384019645564 l 5.179473558390616 -2.681328679175938" fill="#ff4706" stroke="none" /><path d="M 81.35079622478065 109.6543875284942 l -13.021483311369805 6.7410087636465486 a35.662886031741564,35.662886031741564 0 0,0 -0.277527441646094,-0.5475879714029626 l 13.135589422802166 -6.515866580540901" fill="#ffbd11" stroke="none" /><path d="M 81.18737489456691 109.33194174019688 l -16.886934587536253 8.376709197053662 a39.85040627508414,39.85040627508414 0 0,0 -0.2995360406239238,-0.6171329633298895 l 17.028623884774895 -8.084787277758487" fill="#fff116" stroke="none" /><path d="M 80.87730276802145 108.67885076344099 l -5.666120008429878 2.571572899176314 a27.22237118192956,27.22237118192956 0 0,0 -0.1899848186412411,-0.42836561150866287 l 5.709545911802399 -2.4736589511749556" fill="#ff4c07" stroke="none" /><path d="M 80.73074385275274 108.34839909993369 l -6.0516986075264985 2.6218964978241557 a27.59525566461534,27.59525566461534 0 0,0 -0.18508403257659592,-0.43748398007169903 l 6.0959336212954005 -2.517337992086298" fill="#ff5107" stroke="none" /><path d="M 80.58989483394504 108.01547362559985 l -11.77546197847724 4.862719913687195 a33.73999802847446,33.73999802847446 0 0,0 -0.21705645374322807,-0.5387163175204756 l 11.857421046477857 -4.659304228323914" fill="#ffa40f" stroke="none" /><path d="M 80.45479744820244 107.68017299344265 l -7.445238343152666 2.9255628485449456 a28.99940572587346,28.99940572587346 0 0,0 -0.17856138327353263,-0.466167426138022 l 7.494494006019708 -2.7969718555737657" fill="#ff6409" stroke="none" /><path d="M 80.32549172779594 107.34259656027581 l -5.891962625720482 2.1989014368409596 a27.28891016884708,27.28891016884708 0 0,0 -0.16045325473621141,-0.4414984451032366 l 5.928940141461918 -2.097155194731606" fill="#ff4d07" stroke="none" /><path d="M 80.20201598880116 107.00284435728193 l -17.68444445828314 6.255253667055302 a39.758138879891845,39.758138879891845 0 0,0 -0.2226629369956096,-0.6471627211197029 l 17.789498226221976 -5.949918242846303" fill="#fff016" stroke="none" /><path d="M 80.0844068197444 106.66101706037122 l -17.119344166932287 5.725776908887383 a39.05149483882779,39.05149483882779 0 0,0 -0.20773117061409574,-0.639330803957149 l 17.215367588562632 -5.430247204952431" fill="#ffe715" stroke="none" /><path d="M 79.97269907076064 106.31721596034903 l -9.861635773925842 3.11065795267697 a31.3406021602287,31.3406021602287 0 0,0 -0.1578569829566063,-0.5158857538460992 l 9.91371952938858 -2.940445226278823" fill="#ff840c" stroke="none" /><path d="M 79.86692584326677 105.97154293290107 l -9.358132759486248 2.7756561720292985 a30.76109194350171,30.76109194350171 0 0,0 -0.146199213018334,-0.508938640051689 l 9.404524609390684 -2.614160056473014" fill="#ff7c0b" stroke="none" /><path d="M 79.76711848015287 105.62410040840567 l -1.723232561603629 0.479004087677085 a22.78856796834293,22.78856796834293 0 0,0 -0.10180187612030767,-0.3788426522711431 l 1.7312225140657116 -0.44927050223040293" fill="#ff0d01" stroke="none" /><path d="M 79.58551787078972 104.9243191809786 l -18.639789742396403 4.4962332905106885 a40.17440678204785,40.17440678204785 0 0,0 -0.15637301306858373,-0.6736508476374788 l 18.71442332139554 -4.174713785524635" fill="#fff517" stroke="none" /><path d="M 79.50377843672027 104.57218783832718 l -13.858956726335554 3.0915821826193457 a35.19959724549717,35.19959724549717 0 0,0 -0.12682911248062242,-0.5925033899238151 l 13.910119877540618 -2.852564973279367" fill="#ffb711" stroke="none" /><path d="M 79.4281124754447 104.21870165774334 l -17.942657129171387 3.6795222258922022 a39.31605385081185,39.31605385081185 0 0,0 -0.1302485953111089,-0.6641347814015512 l 18.003335657458162 -3.370123717422696" fill="#ffeb16" stroke="none" /><path d="M 79.35854240842038 103.8639653848113 l -8.726234260114344 1.6335022355490503 a29.877809071833944,29.877809071833944 0 0,0 -0.09027872765325361,-0.5063310484685136 l 8.753059430106786 -1.4830524363473232" fill="#ff700a" stroke="none" /><path d="M 79.23777060512086 103.15116336523772 l -6.145164956876418 0.9326753075094969 a27.21553984593936,27.21553984593936 0 0,0 -0.06630994872919287,-0.4637716269698682 l 6.1603089566222105 -0.8267582085592282" fill="#ff4c07" stroke="none" /><path d="M 79.18660465613746 102.79330883721812 l -11.475695651091337 1.5401217122833082 a32.578582191491456,32.578582191491456 0 0,0 -0.06980890616641079,-0.556445667741733 l 11.500506066504595 -1.3423582902541666" fill="#ff950d" stroke="none" /><path d="M 79.1416061653843 102.43462659150553 l -11.294921159309267 1.3183620762676755 a32.37160158285336,32.37160158285336 0 0,0 -0.059837670008155874,-0.5540225083503765 l 11.315941130818475 -1.123743246032517" fill="#ff920d" stroke="none" /><path d="M 79.10278846688536 102.07522291339032 l -8.85006958134829 0.8788668838045322 a29.8936009913957,29.8936009913957 0 0,0 -0.0464424190988717,-0.5124882247716898 l 8.863886596724237 -0.7263972704842762" fill="#ff710a" stroke="none" /><path d="M 79.07016306316243 101.71520430193888 l -1.8617300842339146 0.15256915088080633 a22.86797115939784,22.86797115939784 0 0,0 -0.028773833066477145,-0.39259609127524947 l 1.8640804759647271 -0.1204999231087962" fill="#ff0e01" stroke="none" /><path d="M 79.04373962182676 101.35467743843564 l -8.896767847527686 0.5751145700880043 a29.91533706045542,29.91533706045542 0 0,0 -0.02879514887720318,-0.5141567266893834 l 8.90534934729242 -0.4218861270631833" fill="#ff710a" stroke="none" /><path d="M 79.0095281055655 100.63252640178507 l -15.055995405701422 0.45369702249457283 a36.06282970244047,36.06282970244047 0 0,0 -0.013356877563182533,-0.6206416155184868 l 15.061574345949612 -0.19446559118595716" fill="#ffc212" stroke="none" /><line stroke="#e1ed5e" stroke-width="0.3" x1="15.007084014347285" x2="10.007500721073583" y1="101.09737516637583" y2="101.16192664675087" /><path d="M 14.007167355692545 101.11028546245083 a86.0,86.0 0 0,1 10.666146001902534,-42.60595125391555" fill="none" id="id154" stroke="none" /><text fill="#e1ed5e" style="font-size:6.75px; font-family:Arial;" text-anchor="middle"><textPath startOffset="22.20632615414155" xlink:href="#id154">October</textPath></text><path d="M 79.00175016825051 100.2711162175752 l -13.483578536819365 0.17409150008079993 a34.484702370055345,34.484702370055345 0 0,0 -0.0025546640451322364,-0.5936139549401076 l 13.484577498154001 0.058031933062982995" fill="#ffae10" stroke="none" /><path d="M 79.00019446554 99.90962569577889 l -6.485450637986063 -0.027910643648895235 a27.485510695526045,27.485510695526045 0 0,0 0.006108318227713007,-0.47309597833922684 l 6.484009312640635 0.13954288004859405" fill="#ff5007" stroke="none" /><path d="M 79.00486145842228 99.54816195383935 l -9.790054005125851 -0.2106925307838851 a30.792320908028334,30.792320908028334 0 0,0 0.01596553326030673,-0.5298183225781019 l 9.7849767774099 0.3791810007869814" fill="#ff7d0b" stroke="none" /><path d="M 79.01574976396665 99.18683210126434 l -40.049832379341396 -1.5519848302562165 a61.079891847741905,61.079891847741905 0 0,0 0.049755074238237884,-1.0502509788041625 l 40.01718369686966 2.2411469156833883" fill="#31ff3b" stroke="none" /><path d="M 79.03285615573316 98.82574320788736 l -9.056668775553263 -0.5072152364956407 a30.070860852543973,30.070860852543973 0 0,0 0.033392128717612074,-0.5165614515554375 l 9.046596055831237 0.6630357523040901" fill="#ff730a" stroke="none" /><path d="M 79.05617556472873 98.46500227214037 l -4.976278168441896 -0.3647173277909914 a25.989625550970977,25.989625550970977 0 0,0 0.03654081474906694,-0.4458904944283794 l 4.969262869873331 0.4503217394271492" fill="#ff3b05" stroke="none" /><path d="M 79.08570108090925 98.10471618934814 l -2.6544969755090495 -0.24055432900570473 a23.665374378617397,23.665374378617397 0 0,0 0.04025691402906452,-0.4053816304299579 l 2.649962935797756 0.2862114901400929" fill="#ff1a02" stroke="none" /><path d="M 79.12142395522702 97.74499172005258 l -12.460903168894081 -1.3458503952195542 a33.533372294433256,33.533372294433256 0 0,0 0.06692246645042521,-0.5733508236857076 l 12.435890349440067 1.5601449572301236" fill="#ffa10e" stroke="none" /><path d="M 79.16333360222342 97.38593545837743 l -19.89200199647253 -2.495551643827859 a41.04793060230105,41.04793060230105 0 0,0 0.09398803494071495,-0.7003200300479631 l 19.84609796247398 2.8375900159404814" fill="#feff18" stroke="none" /><path d="M 79.21141760316559 97.0276538004421 l -16.879880410810074 -2.4134809882805333 a38.0515469434313,38.0515469434313 0 0,0 0.09828915081899435,-0.647602697735063 l 16.835835366551777 2.703682798407688" fill="#ffdb14" stroke="none" /><path d="M 79.26566170972629 96.67025291283419 l -22.308765146605623 -3.582585791996144 a43.594599428257595,43.594599428257595 0 0,0 0.12536174796400124,-0.7398921328052233 l 22.2437915371214 3.966063713117195" fill="#e0ff1b" stroke="none" /><path d="M 79.3925641242962 95.95851677861259 l -13.0703455014832 -2.563326284773733 a34.319330807903,34.319330807903 0 0,0 0.118680665095054,-0.5787290715837988 l 13.02428554047315 2.7879310125209344" fill="#ffab0f" stroke="none" /><path d="M 79.46518482838121 95.60439243477599 l -18.31303208948977 -3.9200207901557436 a39.727885820506685,39.727885820506685 0 0,0 0.14889560031504942,-0.6674697807191138 l 18.242842102172684 4.234668740424817" fill="#fff016" stroke="none" /><path d="M 79.54389044137918 95.25157060432595 l -11.712016458209169 -2.718683289870305 a33.023417498697384,33.023417498697384 0 0,0 0.13330012510393266,-0.5526150766723696 l 11.66348353284442 2.9198835982020714" fill="#ff9a0e" stroke="none" /><path d="M 79.62865764111835 94.90015583598534 l -9.171105979874264 -2.2959317302244435 a30.454125417188884,30.454125417188884 0 0,0 0.13168315702678368,-0.5074289209646471 l 9.130226490977172 2.4534570767379544" fill="#ff780b" stroke="none" /><path d="M 79.71946130924805 94.55025226153421 l -1.7292621385226794 -0.4646840289763064 a22.79060849727507,22.79060849727507 0 0,0 0.10506820997042568,-0.37798625370500505 l 1.721007157985893 0.494381586100254" fill="#ff0d01" stroke="none" /><path d="M 79.81627453868168 94.20196356495316 l -10.89709704973528 -3.1303322001527003 a32.33779977749926,32.33779977749926 0 0,0 0.1582921484528228,-0.5336824333407403 l 10.84159900417075 3.31744402023998" fill="#ff910d" stroke="none" /><path d="M 79.91906864156998 93.8553929516997 l -5.9626885716040645 -1.8245358031422754 a27.23559026066384,27.23559026066384 0 0,0 0.14103433748491945,-0.4471173909353441 l 5.930398750350942 1.9269033605040338" fill="#ff4c07" stroke="none" /><path d="M 80.02781315780177 93.51064311812611 l -17.80629963550631 -5.785617468600817 a39.72265142020251,39.72265142020251 0 0,0 0.21689079573337947,-0.6484758728612495 l 17.70407154600116 6.091266444384388" fill="#fff016" stroke="none" /><path d="M 80.14247586403 93.16781622104843 l -14.268608853353081 -4.909260454051147 a36.0895340158567,36.0895340158567 0 0,0 0.2071658162200527,-0.5856856597029296 l 14.18198995632322 5.154143740180688" fill="#ffc212" stroke="none" /><path d="M 80.2630227832202 92.82701384747504 l -13.45114006558062 -4.888531833742749 a35.31191505541395,35.31191505541395 0 0,0 0.21253638258212468,-0.5694918388787602 l 13.364999094496868 5.1193468096508505" fill="#ffb811" stroke="none" /><path d="M 80.52162464483688 92.15188598940014 l -15.79380219331828 -6.363547165198667 a38.02759290814099,38.02759290814099 0 0,0 0.24985633910683847,-0.6050469435742486 l 15.681924167325242 6.634468679226226" fill="#ffdb14" stroke="none" /><path d="M 80.65960295795068 91.81776055985345 l -4.121235948249956 -1.7435494858045284 a25.47487994817704,25.47487994817704 0 0,0 0.17433223400930706,-0.4023828319220959 l 4.0906130043979685 1.8142314623132236" fill="#ff3304" stroke="none" /><path d="M 80.803312248108 91.48605970444005 l -8.190390331433129 -3.6325274016232463 a29.959785103716328,29.959785103716328 0 0,0 0.21313916565576718,-0.4696238988554566 l 8.126648848814009 3.772973309320774" fill="#ff720a" stroke="none" /><path d="M 80.95270993114464 91.15688171328213 l -4.955042094477926 -2.3004859588284625 a26.463028263226825,26.463028263226825 0 0,0 0.19537503325464115,-0.411509646879794 l 4.914708867381533 2.3854380213487887" fill="#ff4106" stroke="none" /><path d="M 81.10775173730289 90.83032412892265 l -12.040984845961642 -5.844297971884668 a34.38436157778372,34.38436157778372 0 0,0 0.2630239713552547,-0.5302402763119036 l 11.938600861652974 6.050697836695533" fill="#ffac0f" stroke="none" /><path d="M 81.26839172434947 90.50648371742162 l -12.074318038679383 -6.119481745208111 a34.536514061201785,34.536514061201785 0 0,0 0.27331632611927703,-0.5279601472231074 l 11.967192279399992 6.326414614691553" fill="#ffae10" stroke="none" /><path d="M 81.43458229118936 90.18545643968196 l -12.39198689844881 -6.550980813967789 a35.0170142653955,35.0170142653955 0 0,0 0.2862922732818877,-0.5304561021304949 l 12.27738652594845 6.763317899430757" fill="#ffb410" stroke="none" /><line stroke="#e1ed5e" stroke-width="0.3" x1="26.266209847984243" x2="21.928928074336255" y1="57.711370442889674" y2="55.22380399835377" /><path d="M 25.398753493254645 57.213857153982495 a86.0,86.0 0 0,1 29.58750427330803,-30.492523968695096" fill="none" id="id155" stroke="none" /><text fill="#e1ed5e" style="font-size:6.75px; font-family:Arial;" text-anchor="middle"><textPath startOffset="21.46611528233685" xlink:href="#id155">November</textPath></text><line stroke="#e1ed5e" stroke-width="0.3" x1="56.762969772571076" x2="54.21961505331055" y1="26.818313649435495" y2="22.513508569990535" /><path d="M 56.25429882871897 25.957352633546506 a86.0,86.0 0 0,1 42.265352541879196,-11.944610805530505" fill="none" id="id156" stroke="none" /><text fill="#e1ed5e" style="font-size:6.75px; font-family:Arial;" text-anchor="middle"><textPath startOffset="22.20632615414155" xlink:href="#id156">December</textPath></text></svg>