<?xml version="1.0" encoding="utf-8" ?>
<svg baseProfile="full" height="200mm" version="1.1" viewBox="0,0,200,200" width="200mm" xmlns="http://www.w3.org/2000/svg" xmlns:ev="http://www.w3.org/2001/xml-events" xmlns:xlink="http://www.w3.org/1999/xlink"><defs /><rect fill="#1a1a1a" height="200" width="200" x="0" y="0" /><text alignment-baseline="middle" fill="#e1ed5e" style="dominant-baseline: central; font-size:9.0px; font-family:Arial;" text-anchor="middle" x="100.0" y="100.0">2025</text><line stroke="#e1ed5e" stroke-width="0.3" x1="100.0" x2="100.0" y1="15.0" y2="10.0" /><path d="M 100.0 14.0 a86.0,86.0 0 0,1 42.46469731375804,11.215312516191453" fill="none" id="id145" stroke="none" /><text fill="#e1ed5e" style="font-size:6.75px; font-family:Arial;" text-anchor="middle"><textPath startOffset="22.20632615414155" xlink:href="#id145">January</textPath></text><path d="M 100.0 79.0 l 0.0 -19.633413865677028 a40.63341386567703,40.63341386567703 0 0,0 0.6994374246973301,0.006020278734645672 l -0.3379569454248017 19.63050496355094" fill="#ffdf14" stroke="none" /><path d="M 100.36148047927253 79.00311137660856 l 0.5411301866966384 -31.431988481619292 a52.43664615997709,52.43664615997709 0 0,0 0.9023432029489064,0.023304862760409772 l -1.0821000248404127 31.418016826716524" fill="#8eff24" stroke="none" /><path d="M 100.72285384407766 79.0124445844662 l 1.216657837943326 -35.324808749077846 a56.34575461711852,56.34575461711852 0 0,0 0.969037420757786,0.04172878976219251 l -1.8245360910904433 35.298632232791455" fill="#63ff29" stroke="none" /><path d="M 101.08401301168833 79.027996857942 l 1.2554322973882557 -24.288389347338914 a45.32081345969439,45.32081345969439 0 0,0 0.7787366416056316,0.046975520859174134 l -1.6733309878334992 24.263180557099435" fill="#e3ff1b" stroke="none" /><path d="M 101.44485096284872 79.0497635885617 l 0.5410836313847557 -7.84567425107989 a28.864310265383132,28.864310265383132 0 0,0 0.4953800284253984,0.03845102437070977 l -0.6760538491724952 7.835197964520716" fill="#ff3b05" stroke="none" /><path d="M 101.80526077348638 79.07773832637324 l 4.218781726704181 -48.89401937181458 a70.07568898740956,70.07568898740956 0 0,0 1.2008799842098852,0.11403802446992592 l -5.059786838004311 48.814155802829475" fill="#3bff9a" stroke="none" /><path d="M 102.16513564639614 79.11191278185805 l 4.290217132681659 -41.389753016807305 a62.61150823796062,62.61150823796062 0 0,0 1.0710542144071709,0.12034542056156679 l -5.002038050598554 41.30977164277514" fill="#31ff41" stroke="none" /><path d="M 102.52436894288641 79.15227682838746 l 4.076560805431954 -33.666636330391405 a54.912545610779716,54.912545610779716 0 0,0 0.9373970867431262,0.12170104533578634 l -4.655472620682926 33.59147696189148" fill="#72ff27" stroke="none" /><path d="M 102.88285421437855 79.19881850522331 l 5.682246426305327 -41.00014444785319 a62.39202542995554,62.39202542995554 0 0,0 1.0625392222683923,0.15659066116798806 l -6.387154629002375 40.89625930252423" fill="#31ff3e" stroke="none" /><path d="M 103.2404852339499 79.25152402106235 l 1.2130784459648831 -7.76720990207681 a28.861368136589498,28.861368136589498 0 0,0 0.4901908135807404,0.08088568435778729 l -1.3465984656844987 7.745177954779399" fill="#ff3b05" stroke="none" /><path d="M 103.59715602781102 79.31037775812273 l 5.714711233163865 -32.86908205300243 a54.36217138445062,54.36217138445062 0 0,0 0.9205453986548052,0.16822378762605616 l -6.279651752921572 32.76584278402564" fill="#79ff26" stroke="none" /><path d="M 103.95276090670814 79.375362276772 l 4.803624208523221 -25.064255440086214 a46.52041743981869,46.52041743981869 0 0,0 0.7851618374420523,0.1574960781718073 l -5.234352455432399 24.9778554058372" fill="#d4ff1c" stroke="none" /><path d="M 104.307194497241 79.44645832069477 l 7.646840527611521 -36.490029786196 a58.28265607292744,58.28265607292744 0 0,0 0.9801401927529474,0.21422068304527314 l -8.273823444517996 36.35299560505486" fill="#4eff2b" stroke="none" /><path d="M 104.66035177308747 79.52364482259891 l 5.441666866142767 -23.909247398810674 a45.52068207574192,45.52068207574192 0 0,0 0.762528462264554,0.1804658507114954 l -5.852419015369845 23.81203563595831" fill="#e0ff1b" stroke="none" /><path d="M 105.01212808612495 79.60689891045804 l 8.741762707155845 -35.56805562916989 a57.626561351947096,57.626561351947096 0 0,0 0.9612415341540064,0.24504186999141864 l -9.352713129994875 35.41231076300961" fill="#55ff2b" stroke="none" /><path d="M 105.36241919743992 79.69619591428918 l 1.77427832291787 -6.717975252521569 a27.948327500965142,27.948327500965142 0 0,0 0.46407813296445505,0.12685008439221981 l -1.889654345106036 6.686438627303056" fill="#ff2e04" stroke="none" /><path d="M 105.71112130821622 79.79150937346287 l 11.329391287426139 -40.088431899870045 a62.658582298658764,62.658582298658764 0 0,0 1.0353876667245858,0.30225805211614654 l -12.017769171874152 39.88747551883519" fill="#31ff41" stroke="none" /><path d="M 106.0581310904928 79.89281104454417 l 14.715670363620278 -48.841921739175426 a72.01062902402272,72.01062902402272 0 0,0 1.1837677361616543,0.3678023979115012 l -15.554223472492652 48.581379206381406" fill="#3dffb0" stroke="none" /><path d="M 106.40334571778207 80.00007090966166 l 16.35493075841464 -51.08227321497537 a74.63657704330066,74.63657704330066 0 0,0 1.2201913803805884,0.4022779137890376 l -17.231804961037643 50.7931815769271" fill="#41ffcd" stroke="none" /><path d="M 106.74666289553966 80.11325718540242 l 13.29333893748078 -39.18399610149936 a62.377510927906954,62.377510927906954 0 0,0 1.013836524830212,0.3537076563112602 l -13.965857466374265 38.94936759201589" fill="#31ff3e" stroke="none" /><path d="M 107.08798089147638 80.2323363322302 l 3.8249754539299743 -10.667470675843424 a32.332491687318644,32.332491687318644 0 0,0 0.5222739348642731,0.1923578978615601 l -4.008031714566824 10.60004951017554" fill="#ff6e0a" stroke="none" /><path d="M 107.4271985657038 80.35727306442388 l 14.702220909534054 -38.88299311210471 a62.56973000909102,62.56973000909102 0 0,0 1.0041453511661529,0.38959279591844065 l -15.369349425699873 38.62415761229572" fill="#31ff40" stroke="none" /><path d="M 107.76421540070413 80.48803036053334 l 13.82927443287848 -34.75385070405259 a58.404264063064296,58.404264063064296 0 0,0 0.9308975841298516,0.379736498012906 l -14.425455886596719 34.510653319856104" fill="#4dff2c" stroke="none" /><path d="M 108.09893153111575 80.62456947434976 l 7.982035160742976 -19.09577419145892 a41.69689535361586,41.69689535361586 0 0,0 0.6598359797963851,0.282507331114218 l -8.309554898329676 18.95554733238191" fill="#ffed16" stroke="none" /><path d="M 108.43124777332544 80.76684994638697 l 5.955994746260128 -13.58666519512928 a35.83480180326032,35.83480180326032 0 0,0 0.5628075436149582,0.2525153393739082 l -6.188984408341867 13.482129525238841" fill="#ff9f0e" stroke="none" /><path d="M 108.76106565485865 80.91482961587045 l 18.995001529866553 -41.37885217687638 a66.53042379108084,66.53042379108084 0 0,0 1.0366763940911072,0.4867334673386032 l -19.704456135257256 41.04575372689777" fill="#36ff71" stroke="none" /><path d="M 109.08828744355905 81.06846463323043 l 5.995203650819861 -12.488426521645668 a34.85291535386493,34.85291535386493 0 0,0 0.5386082124182121,0.2642927106838322 l -6.2092831302485045 12.383378650827003" fill="#ff910d" stroke="none" /><path d="M 109.41281617654863 81.2277094730956 l 16.409626577100592 -32.72626085175443 a57.60988928878317,57.60988928878317 0 0,0 0.88263703284947,0.4521209700338466 l -16.970524097538817 32.438947356408086" fill="#55ff2b" stroke="none" /><path d="M 109.73455568895987 81.39251694778311 l 19.190194093752133 -36.681819158240344 a62.39830197138196,62.39830197138196 0 0,0 0.9474289367522565,0.5060837264711373 l -19.8187680770327 36.34605670526745" fill="#31ff3e" stroke="none" /><path d="M 110.05341064243156 81.56283822128135 l 4.811987837165292 -8.824805967498502 a31.051488810570497,31.051488810570497 0 0,0 0.46706749112897455,0.25992255313003126 l -4.963179417366302 8.740668016808291" fill="#ff5b08" stroke="none" /><path d="M 110.36928655335952 81.73862282372117 l 31.107859660078564 -54.7841315288365 a84.0,84.0 0 0,0 1.2512130701386868,0.7247833704398019 l -32.04626946268258 54.24054400100664" fill="#4dd2ff" stroke="none" /><line stroke="#e1ed5e" stroke-width="0.3" x1="143.23703022742887" x2="145.7803849466894" y1="26.81831364943548" y2="22.513508569990506" /><path d="M 143.74570117128098 25.957352633546492 a86.0,86.0 0 0,1 28.547481713284135,27.462654790039103" fill="none" id="id146" stroke="none" /><text fill="#e1ed5e" style="font-size:6.75px; font-family:Arial;" text-anchor="middle"><textPath startOffset="19.985693538727396" xlink:href="#id146">February</textPath></text><path d="M 110.68208982089419 81.91981866633111 l 21.152597133162722 -35.802244528740765 a62.58404836922004,62.58404836922004 0 0,0 0.922780734513368,0.5559650674801935 l -21.765739933893727 35.432832851801955" fill="#31ff40" stroke="none" /><path d="M 110.99172775467656 82.1063720568725 l 12.33248200348561 -20.07626548899915 a44.5615480890173,44.5615480890173 0 0,0 0.6501335654817749,0.40711357906131956 l -12.676234721339648 19.861007568614887" fill="#ecff1a" stroke="none" /><path d="M 111.2981086023043 82.29822771554956 l 12.6725413334916 -19.855220802621954 a44.554683121832156,44.554683121832156 0 0,0 0.642930387697511,0.41817980843068747 l -13.012438746973391 19.634142070031736" fill="#ecff1a" stroke="none" /><path d="M 111.60114157652 82.49532879139004 l 2.170365127003723 -3.2748094401093826 a24.928722649098994,24.928722649098994 0 0,0 0.35564420381482736,0.24013255397728886 l -2.226414025225092 3.2369649738334236" fill="#ff0000" stroke="none" /><path d="M 111.90073688211348 82.69761687909136 l 23.427033089590154 -34.060370035700444 a62.33926325358971,62.33926325358971 0 0,0 0.8788911728897663,0.6157194328439868 l -24.009855402063568 33.652065760092526" fill="#31ff3d" stroke="none" /><path d="M 112.19680574252982 82.90503203632743 l 34.64854917175598 -48.5631935592381 a80.65656483891456,80.65656483891456 0 0,0 1.1232566739978518,0.8160937435252879 l -35.479351162107626 47.95958058089614" fill="#49f2ff" stroke="none" /><path d="M 112.48926042617603 83.11751280151076 l 18.0879949713877 -24.45063463572032 a51.41396219130998,51.41396219130998 0 0,0 0.706951396821992,0.5324611354468339 l -18.506192521968078 24.135656910767636" fill="#9aff23" stroke="none" /><path d="M 112.77801427241765 83.33499621200491 l 16.71633324560616 -21.80133398823533 a48.472421823434914,48.472421823434914 0 0,0 0.6577648662980246,0.5133959114390352 l -17.089130667063618 21.51035968757307" fill="#bdff1f" stroke="none" /><path d="M 113.06298171725822 83.55741782278167 l 3.948225585347974 -4.969694136179637 a27.34715251746597,27.34715251746597 0 0,0 0.3660567443618193,0.2959924297337106 l -4.033185728274285 4.9009956091817966" fill="#ff2503" stroke="none" /><path d="M 113.34407831869373 83.78471172551755 l 31.16122051245786 -37.86609771964254 a70.03940273228807,70.03940273228807 0 0,0 0.9243282182446971,0.7740983005234393 l -31.808406267661674 37.324098261725275" fill="#3bff9a" stroke="none" /><path d="M 113.6212207817346 84.01681056812373 l 20.362112723539127 -23.892976269055005 a52.392514228072585,52.392514228072585 0 0,0 0.6813676447702031,0.5908753072364542 l -20.770374166956096 23.53893596839888" fill="#8fff24" stroke="none" /><path d="M 113.89432698308785 84.25364557470407 l 23.70521960141852 -26.864978061028307 a56.82826373927446,56.82826373927446 0 0,0 0.7279132638029546,0.6535277153787893 l -24.164143852817467 26.452951336880222" fill="#5eff2a" stroke="none" /><path d="M 114.16331599549186 84.49514656593476 l 21.64606716468137 -23.696364532087216 a53.09470230015318,53.09470230015318 0 0,0 0.6694789800638179,0.6222077495142826 l -22.050754028540034 23.32025219649829" fill="#87ff25" stroke="none" /><path d="M 114.42810811169701 84.74124197986012 l 2.716219508642992 -2.8725967320944776 a24.953436530965515,24.953436530965515 0 0,0 0.3095613497985965,0.29779777324111384 l -2.7652641020540063 2.825415872091062" fill="#ff0000" stroke="none" /><line stroke="#e1ed5e" stroke-width="0.3" x1="172.23445277983987" x2="176.4835382374775" y1="55.19839476539836" y2="52.563006222186495" /><path d="M 173.08426987136738 54.67131705675599 a86.0,86.0 0 0,1 12.851231095245387,41.99856678651699" fill="none" id="id147" stroke="none" /><text fill="#e1ed5e" style="font-size:6.75px; font-family:Arial;" text-anchor="middle"><textPath startOffset="22.20632615414155" xlink:href="#id147">March</textPath></text><line stroke="#e1ed5e" stroke-width="0.3" x1="184.98032266829074" x2="189.97916517819016" y1="98.17113171792111" y2="98.06355123074" /><path d="M 185.9800911702706 98.14961562048488 a86.0,86.0 0 0,1 -9.607161424134198,41.387399972396054" fill="none" id="id148" stroke="none" /><text fill="#e1ed5e" style="font-size:6.75px; font-family:Arial;" text-anchor="middle"><textPath startOffset="21.466115282336823" xlink:href="#id148">April</textPath></text><line stroke="#e1ed5e" stroke-width="0.3" x1="174.80103733775053" x2="179.2010983576182" y1="140.37084112569926" y2="142.7455964860345" /><path d="M 175.68104954172406 140.8457921977663 a86.0,86.0 0 0,1 -30.038265399797805,32.042727171017184" fill="none" id="id149" stroke="none" /><text fill="#e1ed5e" style="font-size:6.75px; font-family:Arial;" text-anchor="middle"><textPath startOffset="22.206326154141568" xlink:href="#id149">May</textPath></text><line stroke="#e1ed5e" stroke-width="0.3" x1="143.8653032363475" x2="146.44561519142675" y1="172.8068346515853" y2="177.08958963109032" /><path d="M 144.38136562736335 173.6633856474863 a86.0,86.0 0 0,1 -40.68145358897372,12.25698825130547" fill="none" id="id150" stroke="none" /><text fill="#e1ed5e" style="font-size:6.75px; font-family:Arial;" text-anchor="middle"><textPath startOffset="21.466115282336833" xlink:href="#id150">June</textPath></text><line stroke="#e1ed5e" stroke-width="0.3" x1="102.19456741930631" x2="102.32365962044197" y1="184.97166512339345" y2="189.96999836594603" /><path d="M 102.22038585953345 185.97133177190398 a86.0,86.0 0 0,1 -42.740103519485714,-10.115201625700543" fill="none" id="id151" stroke="none" /><text fill="#e1ed5e" style="font-size:6.75px; font-family:Arial;" text-anchor="middle"><textPath startOffset="22.20632615414155" xlink:href="#id151">July</textPath></text><line stroke="#e1ed5e" stroke-width="0.3" x1="58.666819895761336" x2="56.23545636021788" y1="174.27360380694188" y2="178.64263932499728" /><path d="M 58.180547188652646 175.14741091055294 a86.0,86.0 0 0,1 -31.652253787137756,-30.449443065178592" fill="none" id="id152" stroke="none" /><text fill="#e1ed5e" style="font-size:6.75px; font-family:Arial;" text-anchor="middle"><textPath startOffset="22.20632615414155" xlink:href="#id152">August</textPath></text><line stroke="#e1ed5e" stroke-width="0.3" x1="26.63291911575756" x2="22.317208475507996" y1="142.92168965132927" y2="145.44649492493687" /><path d="M 25.769776987707644 143.4266507060508 a86.0,86.0 0 0,1 -11.730757126820373,-40.83630448921669" fill="none" id="id153" stroke="none" /><text fill="#e1ed5e" style="font-size:6.75px; font-family:Arial;" text-anchor="middle"><textPath startOffset="21.46611528233685" xlink:href="#id153">September</textPath></text><line stroke="#e1ed5e" stroke-width="0.3" x1="15.007084014347285" x2="10.007500721073583" y1="101.09737516637583" y2="101.16192664675087" /><path d="M 14.007167355692545 101.11028546245083 a86.0,86.0 0 0,1 10.666146001902534,-42.60595125391555" fill="none" id="id154" stroke="none" /><text fill="#e1ed5e" style="font-size:6.75px; font-family:Arial;" text-anchor="middle"><textPath startOffset="22.20632615414155" xlink:href="#id154">October</textPath></text><line stroke="#e1ed5e" stroke-width="0.3" x1="26.266209847984243" x2="21.928928074336255" y1="57.711370442889674" y2="55.22380399835377" /><path d="M 25.398753493254645 57.213857153982495 a86.0,86.0 0 0,1 29.58750427330803,-30.492523968695096" fill="none" id="id155" stroke="none" /><text fill="#e1ed5e" style="font-size:6.75px; font-family:Arial;" text-anchor="middle"><textPath startOffset="21.46611528233685" xlink:href="#id155">November</textPath></text><line stroke="#e1ed5e" stroke-width="0.3" x1="56.762969772571076" x2="54.21961505331055" y1="26.818313649435495" y2="22.513508569990535" /><path d="M 56.25429882871897 25.957352633546506 a86.0,86.0 0 0,1 42.265352541879196,-11.944610805530505" fill="none" id="id156" stroke="none" /><text fill="#e1ed5e" style="font-size:6.75px; font-family:Arial;" text-anchor="middle"><textPath startOffset="22.20632615414155" xlink:href="#id156">December</textPath></text></svg>