<?xml version="1.0" encoding="utf-8" ?>
<svg baseProfile="full" height="200mm" version="1.1" viewBox="0,0,200,200" width="200mm" xmlns="http://www.w3.org/2000/svg" xmlns:ev="http://www.w3.org/2001/xml-events" xmlns:xlink="http://www.w3.org/1999/xlink"><defs /><rect fill="#1a1a1a" height="200" width="200" x="0" y="0" /><text alignment-baseline="middle" fill="#e1ed5e" style="dominant-baseline: central; font-size:9.0px; font-family:Arial;" text-anchor="middle" x="100.0" y="100.0">2025</text><line stroke="#e1ed5e" stroke-width="0.3" x1="100.0" x2="100.0" y1="15.0" y2="10.0" /><path d="M 100.0 14.0 a86.0,86.0 0 0,1 42.46469731375804,11.215312516191453" fill="none" id="id145" stroke="none" /><text fill="#e1ed5e" style="font-size:6.75px; font-family:Arial;" text-anchor="middle"><textPath startOffset="22.20632615414155" xlink:href="#id145">January</textPath></text><path d="M 100.0 79.0 l 0.0 -14.807292143616905 a35.807292143616905,35.807292143616905 0 0,0 0.616363672644099,0.005305236723403972 l -0.2548831933715706 14.80509828350206" fill="#ffb911" stroke="none" /><path d="M 100.36148047927253 79.00311137660856 l 0.4081140863716406 -23.705639746930935 a44.70915251371855,44.70915251371855 0 0,0 0.7693665181651574,0.01987046731187996 l -0.8161072397316659 23.695102487476696" fill="#d7ff1c" stroke="none" /><path d="M 100.72285384407766 79.0124445844662 l 0.9175891757032906 -26.64155946813751 a47.65735659793887,47.65735659793887 0 0,0 0.8196138685445905,0.035294297283100774 l -1.3760438766372127 26.621817444330212" fill="#b5ff20" stroke="none" /><path d="M 101.08401301168833 79.027996857942 l 0.9468324215615983 -18.318020453523314 a39.34247434154451,39.34247434154451 0 0,0 0.6760122778563361,0.040778906709747514 l -1.2620067482575463 18.299008277433263" fill="#ffe615" stroke="none" /><path d="M 101.44485096284872 79.0497635885617 l 0.40807897489746703 -5.9171161721643175 a26.931171237170773,26.931171237170773 0 0,0 0.46220277742090865,0.03587583115797228 l -0.5098719416807169 5.909215078817881" fill="#ff4006" stroke="none" /><path d="M 101.80526077348638 79.07773832637324 l 3.1817560585664983 -36.87530013207701 a58.012313240960545,58.012313240960545 0 0,0 0.9941511359424581,0.09440662935355922 l -3.816032321599201 36.815067958208274" fill="#46ff2c" stroke="none" /><path d="M 102.16513564639614 79.11191278185805 l 3.235631810024861 -31.21566982008307 a52.38291502595783,52.38291502595783 0 0,0 0.8960803449783227,0.10068506759301549 l -3.7724788585129088 31.15534879901945" fill="#81ff25" stroke="none" /><path d="M 102.52436894288641 79.15227682838746 l 3.0744946956359422 -25.390985136237884 a46.576447052359455,46.576447052359455 0 0,0 0.7950938222240481,0.10322599747017197 l -3.511103246367836 25.334300815603573" fill="#c1ff1e" stroke="none" /><path d="M 102.88285421437855 79.19881850522331 l 4.285484095734193 -30.921831573630904 a52.217383647621524,52.217383647621524 0 0,0 0.8892645787260439,0.13105448290059415 l -4.817117654888893 30.843482606569342" fill="#82ff25" stroke="none" /><path d="M 103.2404852339499 79.25152402106235 l 0.9148896399483816 -5.85793927371476 a26.928952317890126,26.928952317890126 0 0,0 0.4573700381462023,0.07546997519183288 l -1.015588884233459 5.841323035583303" fill="#ff4006" stroke="none" /><path d="M 103.59715602781102 79.31037775812273 l 4.309968675075785 -24.789478986238397 a46.161361218926324,46.161361218926324 0 0,0 0.7816764412372164,0.14284637328602917 l -4.736040237415903 24.711617131601628" fill="#c6ff1e" stroke="none" /><path d="M 103.95276090670814 79.375362276772 l 3.622837448972662 -18.903169627183825 a40.247201696240516,40.247201696240516 0 0,0 0.6792838193380633,0.13625794378882722 l -3.94768767777785 18.83800772731779" fill="#fff116" stroke="none" /><path d="M 104.307194497241 79.44645832069477 l 5.767158092966166 -27.520355607542466 a49.11814512436514,49.11814512436514 0 0,0 0.8260204917501175,0.180536085817577 l -6.240021308869811 27.41700602362902" fill="#a4ff21" stroke="none" /><path d="M 104.66035177308747 79.52364482259891 l 4.104041792552397 -18.0320760103324 a39.4932129246765,39.4932129246765 0 0,0 0.6615608015546053,0.1565700675557333 l -4.413826281069526 17.958760030635798" fill="#ffe715" stroke="none" /><path d="M 105.01212808612495 79.60689891045804 l 6.592935652485843 -26.825013432954243 a48.623326124780746,48.623326124780746 0 0,0 0.8110628068609477,0.2067579685355683 l -7.053707348031816 26.70755246824981" fill="#aaff21" stroke="none" /><path d="M 105.36241919743992 79.69619591428918 l 1.3381400530378718 -5.066618717368191 a26.24034770112918,26.24034770112918 0 0,0 0.43571736337559486,0.11909801472930648 l -1.4251553056371775 5.042834161812591" fill="#ff3605" stroke="none" /><path d="M 105.71112130821622 79.79150937346287 l 8.544494999697395 -30.2342285851059 a52.41841773444819,52.41841773444819 0 0,0 0.8661763678720625,0.2528606339017653 l -9.063661585292886 30.082669622285433" fill="#80ff25" stroke="none" /><path d="M 106.0581310904928 79.89281104454417 l 11.098387252164041 -36.83600870411871 a59.471622487866384,59.471622487866384 0 0,0 0.9776416186398886,0.3037580098269621 l -11.730814243514649 36.639510559409224" fill="#38ff2e" stroke="none" /><path d="M 106.40334571778207 80.00007090966166 l 12.334698355838922 -38.52565570252212 a61.4520819098203,61.4520819098203 0 0,0 1.0046454918384427,0.33121582323280585 l -12.996026669919782 38.30762615503008" fill="#31ff3d" stroke="none" /><path d="M 106.74666289553966 80.11325718540242 l 10.025681450922145 -29.55211363641466 a52.206436979170334,52.206436979170334 0 0,0 0.8485236402251153,0.2960332368761201 l -10.532887095210533 29.375159546366334" fill="#82ff25" stroke="none" /><path d="M 107.08798089147638 80.2323363322302 l 2.8847519527675263 -8.04528218125214 a29.546833285198048,29.546833285198048 0 0,0 0.4772765746566812,0.17578499034876 l -3.022810853196784 7.994433923097056" fill="#ff6509" stroke="none" /><path d="M 107.4271985657038 80.35727306442388 l 11.088243830485602 -29.325100686422285 a52.35140637217263,52.35140637217263 0 0,0 0.8401573944459945,0.3259680164167853 l -11.591384389931264 29.129889966114952" fill="#81ff25" stroke="none" /><path d="M 107.76421540070413 80.48803036053334 l 10.429877761598458 -26.210949558303284 a49.20986045463191,49.20986045463191 0 0,0 0.7843492414033251,0.3199557494050079 l -10.87951087259017 26.027532922714695" fill="#a3ff21" stroke="none" /><path d="M 108.09893153111575 80.62456947434976 l 6.019957982567984 -14.401810561116173 a36.60935749959496,36.60935749959496 0 0,0 0.5793278149512541,0.24803793647720543 l -6.2669695553095535 14.296053096676177" fill="#ffc312" stroke="none" /><path d="M 108.43124777332544 80.76684994638697 l 4.491941891363984 -10.246904699212562 a32.188234796880835,32.188234796880835 0 0,0 0.5055359719524336,0.22681925459517685 l -4.667659981783198 10.168065114100854" fill="#ff890c" stroke="none" /><path d="M 108.76106565485865 80.91482961587045 l 14.325808993049773 -31.207448533526776 a55.3385155077803,55.3385155077803 0 0,0 0.8622841918324193,0.404853990034014 l -14.86087139618179 30.95622956085276" fill="#61ff29" stroke="none" /><path d="M 109.08828744355905 81.06846463323043 l 4.521512790669587 -9.418625878578158 a31.44770746895274,31.44770746895274 0 0,0 0.4859849838250387,0.23847072095333463 l -4.682969041505058 9.339399997489991" fill="#ff7f0b" stroke="none" /><path d="M 109.41281617654863 81.2277094730956 l 12.375949305462772 -24.681764899139242 a48.61075224885708,48.61075224885708 0 0,0 0.7447618917376705,0.3814959676568486 l -12.798971684789198 24.465076406169892" fill="#aaff21" stroke="none" /><path d="M 109.73455568895987 81.39251694778311 l 14.473020952084982 -27.665000918914732 a52.222117342086904,52.222117342086904 0 0,0 0.7929181331097236,0.4235494062132892 l -14.947084131723017 27.411772786199688" fill="#82ff25" stroke="none" /><path d="M 110.05341064243156 81.56283822128135 l 3.629145200315914 -6.655565912554968 a28.580715830404124,28.580715830404124 0 0,0 0.42990284037629567,0.2392404652234791 l -3.7431721297642446 6.592110049771309" fill="#ff5708" stroke="none" /><path d="M 110.36928655335952 81.73862282372117 l 23.461185563590455 -41.31755414171537 a68.513866484457,68.513866484457 0 0,0 1.0205410146558276,0.5911632270531825 l -24.168923310711612 40.907586757272135" fill="#3aff8f" stroke="none" /><line stroke="#e1ed5e" stroke-width="0.3" x1="143.23703022742887" x2="145.7803849466894" y1="26.81831364943548" y2="22.513508569990506" /><path d="M 143.74570117128098 25.957352633546492 a86.0,86.0 0 0,1 28.547481713284135,27.462654790039103" fill="none" id="id146" stroke="none" /><text fill="#e1ed5e" style="font-size:6.75px; font-family:Arial;" text-anchor="middle"><textPath startOffset="19.985693538727396" xlink:href="#id146">February</textPath></text><path d="M 110.68208982089419 81.91981866633111 l 15.953042475946054 -27.001635974324913 a52.36220511267179,52.36220511267179 0 0,0 0.7720630952083786,0.4651593761901137 l -16.41546763737207 26.723029988676185" fill="#81ff25" stroke="none" /><path d="M 110.99172775467656 82.1063720568725 l 9.301014338660062 -15.141285681759005 a38.76984523918541,38.76984523918541 0 0,0 0.5656351450846572,0.3542006759605444 l -9.560268636116982 14.978940664475516" fill="#ffde14" stroke="none" /><path d="M 111.2981086023043 82.29822771554956 l 9.557483126004485 -14.974576352939565 a38.7646677608639,38.7646677608639 0 0,0 0.5593796460028008,0.3638360819173683 l -9.813829797791565 14.807841346862668" fill="#ffde14" stroke="none" /><path d="M 111.60114157652 82.49532879139004 l 1.636864108999625 -2.469823150784071 a23.96299687942463,23.96299687942463 0 0,0 0.3418667320488717,0.23082994353960684 l -1.6791355354550384 2.441281294945794" fill="#ff1602" stroke="none" /><path d="M 111.90073688211348 82.69761687909136 l 17.66839559278956 -25.68793451249953 a52.17759102852192,52.17759102852192 0 0,0 0.7356266626230858,0.5153534879704732 l -18.1079533949963 25.379996181765122" fill="#83ff25" stroke="none" /><path d="M 112.19680574252982 82.90503203632743 l 26.131532368681846 -36.62579515607112 a65.99228661392917,65.99228661392917 0 0,0 0.91903587165556,0.6677186455202369 l -26.758113556691196 36.170557275734204" fill="#36ff73" stroke="none" /><path d="M 112.48926042617603 83.11751280151076 l 13.641755207016589 -18.44038396098183 a43.93785617176549,43.93785617176549 0 0,0 0.6041535697718218,0.4550359433351006 l -13.957154930546793 18.202831428140883" fill="#e0ff1b" stroke="none" /><path d="M 112.77801427241765 83.33499621200491 l 12.607263903832076 -16.442312258731235 a41.71938067497411,41.71938067497411 0 0,0 0.5661269195846864,0.44187104049224946 l -12.888423378576192 16.22286282901576" fill="#fbff18" stroke="none" /><path d="M 113.06298171725822 83.55741782278167 l 2.9777057668688998 -3.748085454841716 a25.786948528116877,25.786948528116877 0 0,0 0.34517255203076436,0.2791055319335568 l -3.0417817174641555 3.6962738256440293" fill="#ff3004" stroke="none" /><path d="M 113.34407831869373 83.78471172551755 l 23.501429697168977 -28.55817002124599 a57.98494656983256,57.98494656983256 0 0,0 0.7652424243646369,0.6408685232113981 l -23.98952965849273 28.14940034064077" fill="#46ff2c" stroke="none" /><path d="M 113.6212207817346 84.01681056812373 l 15.356868337900016 -18.019804513717126 a44.675868724508845,44.675868724508845 0 0,0 0.5810122285479259,0.5038480792071883 l -15.664774365094706 17.752791441090267" fill="#d8ff1c" stroke="none" /><path d="M 113.89432698308785 84.25364557470407 l 17.87820062105607 -20.26125366189786 a48.02125935996506,48.02125935996506 0 0,0 0.6151043395063724,0.5522467493132484 l -18.224315948158434 19.950507903815318" fill="#b1ff20" stroke="none" /><path d="M 114.16331599549186 84.49514656593476 l 16.325211828194593 -17.871522230866894 a45.205450792823385,45.205450792823385 0 0,0 0.5700022371161726,0.5297549583115401 l -16.63042194910561 17.58786268648071" fill="#d1ff1c" stroke="none" /><path d="M 114.42810811169701 84.74124197986012 l 2.0485411281927064 -2.1664790094035635 a23.98163580138207,23.98163580138207 0 0,0 0.29750561770687434,0.28620016852062113 l -2.085529989511999 2.1308957541206404" fill="#ff1602" stroke="none" /><path d="M 114.68862486808459 84.99185889309783 l 22.029574545396425 -22.508775754816014 a52.4951923415586,52.4951923415586 0 0,0 0.6403518543446598,0.6376019799789546 l -22.41376219990841 22.126237924186942" fill="#7fff26" stroke="none" /><path d="M 114.94478906791727 85.2469230424477 l 15.796349699149664 -15.593713748710716 a43.19658920407717,43.19658920407717 0 0,0 0.5178154851810808,0.5336543747452861 l -16.062429448033853 15.319495178415314" fill="#e9ff1a" stroke="none" /><path d="M 115.19652480421416 85.50635884689758 l 16.762518009114437 -15.987202599054012 a44.164038010439484,44.164038010439484 0 0,0 0.5199425423771058,0.5546384522625217 l -17.035227873462006 15.696294729913435" fill="#deff1b" stroke="none" /><path d="M 115.4437574822437 85.77008943001954 l 16.32440228482161 -15.041338540084878 a43.19747677178944,43.19747677178944 0 0,0 0.4991496403817043,0.5511734999042561 l -16.580895565819347 14.758112252911074" fill="#e9ff1a" stroke="none" /><path d="M 115.68641384162765 86.03803664274999 l 15.944868783305775 -14.192005638528732 a42.346003479828966,42.346003479828966 0 0,0 0.47993777967428797,0.5486518478017762 l -16.18679842655791 13.915438234524007" fill="#f3ff19" stroke="none" /><path d="M 115.9244219780498 86.31012108654704 l 4.490350249584983 -3.86025635847537 a26.921555920287965,26.921555920287965 0 0,0 0.29907206021982125,0.3540069871165268 l -4.556132923291921 3.7823904217297364" fill="#ff4006" stroke="none" /><path d="M 116.15771136456269 86.58626213691792 l 11.50403644988278 -9.550370459303307 a35.951669824811034,35.951669824811034 0 0,0 0.391190988920971,0.4795538974739203 l -11.666725930880158 9.350932392221285" fill="#ffba11" stroke="none" /><path d="M 116.38621287248628 86.86637796730983 l 4.060741815386391 -3.2547025106193965 a26.204105352878607,26.204105352878607 0 0,0 0.2790686301836745,0.3543888204701631 l -4.116164526164029 3.184321296196195" fill="#ff3605" stroke="none" /><path d="M 116.60985879189232 87.15038557335679 l 3.6095416609482758 -2.792390903571707 a25.563577320531696,25.563577320531696 0 0,0 0.26625568637816527,0.35036127313292176 l -3.6570732875505545 2.7298448545577516" fill="#ff2d04" stroke="none" /><path d="M 116.82858285166822 87.43820079747576 l 50.42967738271901 -37.64354293605877 a83.93003007868359,83.93003007868359 0 0,0 0.8542373981271707,1.165178851034164 l -51.0701773933598 36.76990164135311" fill="#4dd3ff" stroke="none" /><path d="M 117.04232023915458 87.72973835380427 l 8.416537145039047 -6.059803564029111 a31.371080789794377,31.371080789794377 0 0,0 0.3117499363782345,0.44094817643322193 l -8.519599701221164 5.914028887264096" fill="#ff7e0b" stroke="none" /><path d="M 117.2510076193507 88.02491185347247 l 17.257326625248133 -11.979474594802896 a42.00769225350624,42.00769225350624 0 0,0 0.4072256379300449,0.5975533746578962 l -17.460976728846912 11.680643196874595" fill="#f8ff18" stroke="none" /><path d="M 117.45458315368197 88.32363383020206 l 1.2332222866240024 -0.8249727226708268 a22.483717358992962,22.483717358992962 0 0,0 0.21242119874693496,0.3235320590723463 l -1.2472401207288624 0.8036225996208065" fill="#ff0000" stroke="none" /><path d="M 117.65298651832404 88.62581576622439 l 26.234321861432523 -16.903316036091887 a52.20836004254689,52.20836004254689 0 0,0 0.48024830502263727,0.7596374866658976 l -26.521397762701117 16.449230901711783" fill="#82ff25" stroke="none" /><line stroke="#e1ed5e" stroke-width="0.3" x1="172.23445277983987" x2="176.4835382374775" y1="55.19839476539836" y2="52.563006222186495" /><path d="M 173.08426987136738 54.67131705675599 a86.0,86.0 0 0,1 12.851231095245387,41.99856678651699" fill="none" id="id147" stroke="none" /><text fill="#e1ed5e" style="font-size:6.75px; font-family:Arial;" text-anchor="middle"><textPath startOffset="22.20632615414155" xlink:href="#id147">March</textPath></text><path d="M 117.84615892207809 88.93136811851018 l 26.551568571171746 -16.46794358795348 a52.243862751037256,52.243862751037256 0 0,0 0.4674188784487007,0.7683137366507832 l -26.83110324790667 16.00846207809562" fill="#82ff25" stroke="none" /><path d="M 118.03404312379186 89.2402003453031 l 19.22804690877872 -11.472187965250473 a43.39037482125372,43.39037482125372 0 0,0 0.37716634022505563,0.644699535710111 l -19.422672923474103 11.139509017186466" fill="#e7ff1a" stroke="none" /><path d="M 118.21658344932153 89.55222093294921 l 21.818426778397868 -12.5135486138492 a46.15218968589964,46.15218968589964 0 0,0 0.3893098924037766,0.6925388582211572 l -22.030594312094077 12.136126245693248" fill="#c6ff1e" stroke="none" /><path d="M 118.3937258080291 89.86733742301442 l 3.7030781946694615 -2.0399369999524373 a25.227780869393705,25.227780869393705 0 0,0 0.206257411903155,0.3821636591845588 l -3.7376437057910814 1.97589235743542" fill="#ff2803" stroke="none" /><path d="M 118.56541770881063 90.18545643968196 l 25.076215185815844 -13.256454022701613 a49.36459309246905,49.36459309246905 0 0,0 0.3906633194217922,0.7546371874857678 l -25.300687938397754 12.822844112955499" fill="#a2ff22" stroke="none" /><path d="M 118.73160827565052 90.50648371742162 l 19.899488643130198 -10.085419077128313 a43.30931030353407,43.30931030353407 0 0,0 0.33129557362650197,0.667871660501102 l -20.07014422971011 9.74138782812826" fill="#e8ff1a" stroke="none" /><path d="M 118.89224826269711 90.83032412892265 l 13.31204763081122 -6.461230037713642 a35.79723304287797,35.79723304287797 0 0,0 0.2642889364969222,0.5566599023445171 l -13.421294761149898 6.231127719728584" fill="#ffb811" stroke="none" /><path d="M 119.04729006885535 91.15688171328212 l 4.4827097667701485 -2.081195412537558 a25.9422728777622,25.9422728777622 0 0,0 0.1845578790782037,0.40664882247489526 l -4.517869962811699 2.0037245812206" fill="#ff3204" stroke="none" /><path d="M 119.196687751892 91.48605970444005 l 57.35030918671267 -25.435487343354353 a83.73772374102745,83.73772374102745 0 0,0 0.5730423256291788,1.3226606950128355 l -57.779642222184535 24.444527503754912" fill="#4dd4ff" stroke="none" /><path d="M 119.34039704204932 91.81776055985345 l 1.8135922219747709 -0.7672668650349798 a22.969216897598635,22.969216897598635 0 0,0 0.15091684767027191,0.3654571172505425 l -1.8265307565312403 0.7359351773311341" fill="#ff0701" stroke="none" /><path d="M 119.47837535516314 92.15188598940014 l 4.526536182239005 -1.823805701634174 a25.88014313790407,25.88014313790407 0 0,0 0.16292961203884607,0.41463809105654104 l -4.557259344159552 1.7456186056818486" fill="#ff3104" stroke="none" /><path d="M 119.61058180528143 92.48833698450437 l 25.59359057930066 -9.803402555680131 a48.406907530941595,48.406907530941595 0 0,0 0.2913529046065304,0.780680932794783 l -25.758548072408814 9.361398485856014" fill="#acff20" stroke="none" /><path d="M 119.7369772167798 92.82701384747503 l 29.3647336800675 -10.671990231646708 a52.243862751037256,52.243862751037256 0 0,0 0.2998969857729852,0.8478491633426511 l -29.544083746650294 10.164943441877442" fill="#82ff25" stroke="none" /><path d="M 119.85752413597 93.16781622104841 l 29.545622428157852 -10.165472840948794 a52.24548995850972,52.24548995850972 0 0,0 0.2852671079458351,0.8529123432752043 l -29.716226829875456 9.655387394751276" fill="#82ff25" stroke="none" /><path d="M 119.97218684219823 93.5106431181261 l 32.3981591758918 -10.52680003793611 a55.06544050830862,55.06544050830862 0 0,0 0.28514593757936396,0.9039905452807292 l -32.57456059723937 9.967559326228963" fill="#64ff29" stroke="none" /><path d="M 120.08093135843002 93.85539295169968 l 4.366680644928781 -1.3361699310446584 a25.56653587957256,25.56653587957256 0 0,0 0.12514710093819698,0.42193381040715755 l -4.3890336429786805 1.260806733890971" fill="#ff2d04" stroke="none" /><path d="M 120.18372546131832 94.20196356495316 l 29.997559190071254 -8.61718722243992 a52.21072688977958,52.21072688977958 0 0,0 0.2406994800608184,0.8659240959995433 l -30.141445440698433 8.099551823021425" fill="#82ff25" stroke="none" /><path d="M 120.28053869075195 94.5502522615342 l 24.293331297767477 -6.528057726601733 a46.155148244940506,46.155148244940506 0 0,0 0.19957413160526472,0.7690405404870184 l -24.402101761243042 6.108920760565864" fill="#c6ff1e" stroke="none" /><path d="M 120.37134235888165 94.90015583598534 l 21.313130032266173 -5.335615095808789 a42.9708511492593,42.9708511492593 0 0,0 0.17345327249199333,0.7190757953340524 l -21.401816105018984 4.967954068815331" fill="#ecff1a" stroke="none" /><path d="M 120.45610955862082 95.25157060432595 l 10.652779759579891 -2.4728051250934517 a31.936017638647236,31.936017638647236 0 0,0 0.11969256404587957,0.5365582952643885 l -10.69376671062781 2.2890686602790997" fill="#ff850c" stroke="none" /><path d="M 120.53481517161879 95.60439243477599 l 5.804848746043365 -1.2425647296964648 a26.936348715492283,26.936348715492283 0 0,0 0.0931493623427723,0.45422937210605857 l -5.825377404301134 1.1424597014269944" fill="#ff4006" stroke="none" /><path d="M 120.6074358757038 95.95851677861258 l 15.100255014393639 -2.9614274986678346 a36.387909355386334,36.387909355386334 0 0,0 0.11525311662891337,0.61568675758447 l -15.148993854932412 2.7010626636208017" fill="#ffc011" stroke="none" /><path d="M 120.67395015179393 96.31383870115 l 62.02185045538181 -11.058483896549978 a84.0,84.0 0 0,0 0.2415525539191079,1.4256568467366484 l -62.20301487082114 9.98924126149749" fill="#4dd2ff" stroke="none" /><path d="M 120.73433829027371 96.67025291283417 l 6.55706414581151 -1.0530051614966276 a27.641077479025927,27.641077479025927 0 0,0 0.07139835962975478,0.4704259821639569 l -6.574218398880565 0.9399800669405884" fill="#ff4a06" stroke="none" /><path d="M 120.78858239683441 97.02765380044208 l 9.246138675665325 -1.322010545432102 a30.340170892005553,30.340170892005553 0 0,0 0.0694703240836479,0.5176346061537695 l -9.267524998806808 1.1626575972136681" fill="#ff700a" stroke="none" /><path d="M 120.83666639777658 97.38593545837742 l 21.886418358363624 -2.745761201984821 a43.057980713012725,43.057980713012725 0 0,0 0.08593070343145906,0.736201790004521 l -21.93043941479867 2.3686156736554476" fill="#ebff1a" stroke="none" /><path d="M 120.87857604477298 97.74499172005257 l 14.714615516089193 -1.5892645051016854 a35.80019160191884,35.80019160191884 0 0,0 0.06089932119749901,0.6132478535561809 l -14.739791962968921 1.3357411208410697" fill="#ffb811" stroke="none" /><path d="M 120.91429891909075 98.10471618934814 l 2.965931952008897 -0.2687770139407536 a23.978085530533033,23.978085530533033 0 0,0 0.033712635824252,0.41137954803108695 l -2.9701190716526438 0.21768354870189788" fill="#ff1602" stroke="none" /><path d="M 120.94382443527127 98.46500227214037 l 38.20465401137619 -2.800064395228794 a59.30712660519438,59.30712660519438 0 0,0 0.06585748293616371,1.018786111810549 l -38.24719208531677 2.14201921916521" fill="#39ff2e" stroke="none" /><path d="M 120.96714384426684 98.82574320788733 l 31.156578172512813 -1.744912125838557 a52.20540148350603,52.20540148350603 0 0,0 0.042526002385926596,0.8976566976181524 l -31.181997783132235 1.208344321597405" fill="#83ff25" stroke="none" /><path d="M 120.98425023603335 99.18683210126433 l 24.04199285818018 -0.9316595348416834 a45.060037615964944,45.060037615964944 0 0,0 0.023363212257273957,0.7753112737524099 l -24.054467764893097 0.5176781136642743" fill="#d3ff1c" stroke="none" /><line stroke="#e1ed5e" stroke-width="0.3" x1="184.98032266829074" x2="189.97916517819016" y1="98.17113171792111" y2="98.06355123074" /><path d="M 185.9800911702706 98.14961562048488 a86.0,86.0 0 0,1 -9.607161424134198,41.387399972396054" fill="none" id="id148" stroke="none" /><text fill="#e1ed5e" style="font-size:6.75px; font-family:Arial;" text-anchor="middle"><textPath startOffset="21.466115282336823" xlink:href="#id148">April</textPath></text><path d="M 120.99513854157772 99.54816195383933 l 37.20399304302411 -0.8006700928715021 a58.21260768802699,58.21260768802699 0 0,0 0.01293703932091614,1.0019879525225006 l -37.212263089462745 0.1601458822885388" fill="#44ff2d" stroke="none" /><path d="M 120.99980553446 99.90962569577887 l 17.325605085992326 -0.07456209545784695 a38.325765527151816,38.325765527151816 0 0,0 -0.0028392141577362885,0.6597333799358734 l -17.32432157454509 -0.22368076268171122" fill="#ffd914" stroke="none" /><path d="M 120.99824983174949 100.27111621757518 l 10.36222900629899 0.13379059475651484 a31.36309268038405,31.36309268038405 0 0,0 -0.011616198517729935,0.5397591001433 l -10.358390745096253 -0.3121395106899297" fill="#ff7e0b" stroke="none" /><path d="M 120.9904718944345 100.63252640178507 l 51.75277060439854 1.559516810171755 a72.77626249462881,72.77626249462881 0 0,0 -0.048510116856465606,1.2518305662067213 l -51.71825835469087 -2.4501246233924823" fill="#3fffbe" stroke="none" /><path d="M 120.9764740272857 100.99374915477107 l 30.747842578862382 1.4566624750199757 a51.78232754066258,51.78232754066258 0 0,0 -0.04984332376828482,0.8899860287337278 l -30.71821290420657 -1.9857202200891269" fill="#87ff25" stroke="none" /><path d="M 120.95626037817324 101.35467743843564 l 19.19500804427882 1.2408246442317703 a40.23507160417297,40.23507160417297 0 0,0 -0.050626145436620834,0.6907535318228736 l -19.170805340177857 -1.571051312551414" fill="#fff116" stroke="none" /><path d="M 120.92983693683757 101.71520430193887 l 31.842585300055948 2.6095062019037294 a52.94933115433112,52.94933115433112 0 0,0 -0.08226158598899454,0.9077497466411526 l -31.792949117789878 -3.1572373370934526" fill="#7bff26" stroke="none" /><path d="M 120.89721153311464 102.0752229133903 l 10.31693188629182 1.0245354224602008 a31.367678446897386,31.367678446897386 0 0,0 -0.05798195640779123,0.536840905130956 l -10.297767628382978 -1.2019726494759482" fill="#ff7e0b" stroke="none" /><path d="M 120.8583938346157 102.4346265915055 l 30.09826221173084 3.5131194721798864 a51.30259719218658,51.30259719218658 0 0,0 -0.10993044977929921,0.8762538462753653 l -30.033330252704694 -4.030691072742647" fill="#8cff24" stroke="none" /><path d="M 120.81339534386255 102.79330883721812 l 36.75453172880511 4.932725131565775 a58.08405829770148,58.08405829770148 0 0,0 -0.14152028398137845,0.989792536551731 l -36.66417739380713 -5.564663140097915" fill="#45ff2d" stroke="none" /><path d="M 120.76222939487914 103.15116336523771 l 29.351232330002652 4.454749356815071 a50.68736483963905,50.68736483963905 0 0,0 -0.13834813469797255,0.8614939668278824 l -29.27020244094339 -4.9593225533361585" fill="#93ff23" stroke="none" /><path d="M 120.70491114924044 103.5080841355445 l 31.431543079010147 5.3255238255491895 a52.87950916096675,52.87950916096675 0 0,0 -0.15978061826765724,0.8961345609913843 l -31.3352160184033 -5.865777137273793" fill="#7bff26" stroke="none" /><path d="M 120.64145759157962 103.86396538481128 l 3.1248410838232865 0.5849527693167785 a24.179119617359696,24.179119617359696 0 0,0 -0.08010204630329279,0.4084386083733579 l -3.1143091045443296 -0.6386551047580814" fill="#ff1902" stroke="none" /><path d="M 120.5718875245553 104.21870165774334 l 50.71986616848607 10.40118381116503 a72.77537492691656,72.77537492691656 0 0,0 -0.2622199381444859,1.225004253498668 l -50.53331219161714 -11.272701884079867" fill="#3fffbe" stroke="none" /><path d="M 120.49622156327973 104.57218783832717 l 21.66410525123184 4.832713105296463 a43.19658920407717,43.19658920407717 0 0,0 -0.16813641691769807,0.72432728354258 l -21.57770826838359 -5.204909046187608" fill="#e9ff1a" stroke="none" /><path d="M 120.41448212921028 104.9243191809786 l 30.440890350446605 7.342858823946538 a52.31398060030572,52.31398060030572 0 0,0 -0.2186940762330725,0.8735741241348534 l -30.309984959918474 -7.865760787478787" fill="#81ff25" stroke="none" /><path d="M 120.32669344350535 105.2749913415812 l 18.63267107024711 4.8353746682536904 a40.24986439937729,40.24986439937729 0 0,0 -0.17980558125181909,0.6691234571560631 l -18.546677412653516 -5.1553890585853015" fill="#fff116" stroke="none" /><path d="M 120.23288151984713 105.62410040840565 l 10.07403980295542 2.800264080749904 a31.45599143426716,31.45599143426716 0 0,0 -0.14950188377084042,0.5204356702108583 l -10.02434528229848 -2.9732572264653445" fill="#ff7f0b" stroke="none" /><line stroke="#e1ed5e" stroke-width="0.3" x1="174.80103733775053" x2="179.2010983576182" y1="140.37084112569926" y2="142.7455964860345" /><path d="M 175.68104954172406 140.8457921977663 a86.0,86.0 0 0,1 -30.038265399797805,32.042727171017184" fill="none" id="id149" stroke="none" /><text fill="#e1ed5e" style="font-size:6.75px; font-family:Arial;" text-anchor="middle"><textPath startOffset="22.206326154141568" xlink:href="#id149">May</textPath></text><line stroke="#e1ed5e" stroke-width="0.3" x1="143.8653032363475" x2="146.44561519142675" y1="172.8068346515853" y2="177.08958963109032" /><path d="M 144.38136562736335 173.6633856474863 a86.0,86.0 0 0,1 -40.68145358897372,12.25698825130547" fill="none" id="id150" stroke="none" /><text fill="#e1ed5e" style="font-size:6.75px; font-family:Arial;" text-anchor="middle"><textPath startOffset="21.466115282336833" xlink:href="#id150">June</textPath></text><line stroke="#e1ed5e" stroke-width="0.3" x1="102.19456741930631" x2="102.32365962044197" y1="184.97166512339345" y2="189.96999836594603" /><path d="M 102.22038585953345 185.97133177190398 a86.0,86.0 0 0,1 -42.740103519485714,-10.115201625700543" fill="none" id="id151" stroke="none" /><text fill="#e1ed5e" style="font-size:6.75px; font-family:Arial;" text-anchor="middle"><textPath startOffset="22.20632615414155" xlink:href="#id151">July</textPath></text><line stroke="#e1ed5e" stroke-width="0.3" x1="58.666819895761336" x2="56.23545636021788" y1="174.27360380694188" y2="178.64263932499728" /><path d="M 58.180547188652646 175.14741091055294 a86.0,86.0 0 0,1 -31.652253787137756,-30.449443065178592" fill="none" id="id152" stroke="none" /><text fill="#e1ed5e" style="font-size:6.75px; font-family:Arial;" text-anchor="middle"><textPath startOffset="22.20632615414155" xlink:href="#id152">August</textPath></text><line stroke="#e1ed5e" stroke-width="0.3" x1="26.63291911575756" x2="22.317208475507996" y1="142.92168965132927" y2="145.44649492493687" /><path d="M 25.769776987707644 143.4266507060508 a86.0,86.0 0 0,1 -11.730757126820373,-40.83630448921669" fill="none" id="id153" stroke="none" /><text fill="#e1ed5e" style="font-size:6.75px; font-family:Arial;" text-anchor="middle"><textPath startOffset="21.46611528233685" xlink:href="#id153">September</textPath></text><line stroke="#e1ed5e" stroke-width="0.3" x1="15.007084014347285" x2="10.007500721073583" y1="101.09737516637583" y2="101.16192664675087" /><path d="M 14.007167355692545 101.11028546245083 a86.0,86.0 0 0,1 10.666146001902534,-42.60595125391555" fill="none" id="id154" stroke="none" /><text fill="#e1ed5e" style="font-size:6.75px; font-family:Arial;" text-anchor="middle"><textPath startOffset="22.20632615414155" xlink:href="#id154">October</textPath></text><line stroke="#e1ed5e" stroke-width="0.3" x1="26.266209847984243" x2="21.928928074336255" y1="57.711370442889674" y2="55.22380399835377" /><path d="M 25.398753493254645 57.213857153982495 a86.0,86.0 0 0,1 29.58750427330803,-30.492523968695096" fill="none" id="id155" stroke="none" /><text fill="#e1ed5e" style="font-size:6.75px; font-family:Arial;" text-anchor="middle"><textPath startOffset="21.46611528233685" xlink:href="#id155">November</textPath></text><line stroke="#e1ed5e" stroke-width="0.3" x1="56.762969772571076" x2="54.21961505331055" y1="26.818313649435495" y2="22.513508569990535" /><path d="M 56.25429882871897 25.957352633546506 a86.0,86.0 0 0,1 42.265352541879196,-11.944610805530505" fill="none" id="id156" stroke="none" /><text fill="#e1ed5e" style="font-size:6.75px; font-family:Arial;" text-anchor="middle"><textPath startOffset="22.20632615414155" xlink:href="#id156">December</textPath></text></svg>