<?xml version="1.0" encoding="utf-8" ?>
<svg baseProfile="full" height="200mm" version="1.1" viewBox="0,0,200,200" width="200mm" xmlns="http://www.w3.org/2000/svg" xmlns:ev="http://www.w3.org/2001/xml-events" xmlns:xlink="http://www.w3.org/1999/xlink"><defs /><rect fill="#1a1a1a" height="200" width="200" x="0" y="0" /><text alignment-baseline="middle" fill="#e1ed5e" style="dominant-baseline: central; font-size:9.0px; font-family:Arial;" text-anchor="middle" x="100.0" y="100.0">2025</text><line stroke="#e1ed5e" stroke-width="0.3" x1="100.0" x2="100.0" y1="15.0" y2="10.0" /><path d="M 100.0 14.0 a86.0,86.0 0 0,1 42.46469731375804,11.215312516191453" fill="none" id="id145" stroke="none" /><text fill="#e1ed5e" style="font-size:6.75px; font-family:Arial;" text-anchor="middle"><textPath startOffset="22.20632615414155" xlink:href="#id145">January</textPath></text><path d="M 100.0 79.0 l 0.0 -14.823755906067085 a35.823755906067085,35.823755906067085 0 0,0 0.616647069250819,0.005307676007469513 l -0.2551665899782906 14.821559606668174" fill="#ffb911" stroke="none" /><path d="M 100.36148047927253 79.00311137660856 l 0.40856785558922804 -23.73199730223124 a44.73551397475377,44.73551397475377 0 0,0 0.7698201529211326,0.0198821833592739 l -0.8170146437052284 23.721448326729607" fill="#d7ff1c" stroke="none" /><path d="M 100.72285384407766 79.0124445844662 l 0.9186094142498871 -26.671181380242132 a47.68699607437531,47.68699607437531 0 0,0 0.8201236099083143,0.035316247818492165 l -1.377573856547533 26.651417405899444" fill="#b5ff20" stroke="none" /><path d="M 101.08401301168833 79.027996857942 l 0.9478851747535747 -18.33838768437007 a39.36286876190029,39.36286876190029 0 0,0 0.6763627102780639,0.04080004575041557 l -1.2634099338712506 18.31935436923935" fill="#ffe615" stroke="none" /><path d="M 101.44485096284872 79.0497635885617 l 0.4085327050757104 -5.923695227544854 a26.937765919936062,26.937765919936062 0 0,0 0.4623159578193207,0.03588461613517748 l -0.5104388522573723 5.915785349221212" fill="#ff4006" stroke="none" /><path d="M 101.80526077348638 79.07773832637324 l 3.1852937530628713 -36.916300618578205 a58.05346606802849,58.05346606802849 0 0,0 0.9948563677715512,0.09447359961340246 l -3.8202752479246667 36.85600147444963" fill="#46ff2d" stroke="none" /><path d="M 102.16513564639614 79.11191278185805 l 3.2392294072749066 -31.25037754163381 a52.41780870219318,52.41780870219318 0 0,0 0.8966772483278793,0.1007521366392605 l -3.776673359112511 31.18998945152395" fill="#80ff25" stroke="none" /><path d="M 102.52436894288641 79.15227682838746 l 3.0779131295962054 -25.419216574073 a46.604884699466396,46.604884699466396 0 0,0 0.7955792735404162,0.10328902298358263 l -3.5150071316444675 25.362469227925285" fill="#c1ff1e" stroke="none" /><path d="M 102.88285421437855 79.19881850522331 l 4.290248990723222 -30.95621258567653 a52.25209327472321,52.25209327472321 0 0,0 0.8898556853607733,0.1311415966530215 l -4.822473656512651 30.87777650486254" fill="#82ff25" stroke="none" /><path d="M 103.2404852339499 79.25152402106235 l 0.9159068769660715 -5.864452532163002 a26.93554453350885,26.93554453350885 0 0,0 0.4574820024689658,0.0754884502644362 l -1.0167180855739126 5.847817818958941" fill="#ff4006" stroke="none" /><path d="M 103.59715602781102 79.31037775812273 l 4.314760793698551 -24.8170416283025 a46.18933734514938,46.18933734514938 0 0,0 0.7821501768075764,0.14293294543347093 l -4.741306091609029 24.73909320151829" fill="#c6ff1e" stroke="none" /><path d="M 103.95276090670814 79.375362276772 l 3.626865567995167 -18.924187466994027 a40.26860205448861,40.26860205448861 0 0,0 0.6796450100910424,0.13633039525596863 l -3.952076987553335 18.85895311566085" fill="#fff116" stroke="none" /><path d="M 104.307194497241 79.44645832069477 l 5.773570414674572 -27.55095462543666 a49.14940880562281,49.14940880562281 0 0,0 0.8265462534884932,0.18065099696962106 l -6.246959392316594 27.44749013037117" fill="#a4ff21" stroke="none" /><path d="M 104.66035177308747 79.52364482259891 l 4.108604947550814 -18.052125308545616 a39.513774946522176,39.513774946522176 0 0,0 0.6619052411847705,0.15665158528779527 l -4.418733875698108 17.978727811116954" fill="#ffe815" stroke="none" /><path d="M 105.01212808612495 79.60689891045804 l 6.600266130292256 -26.854839321752785 a48.65403963235467,48.65403963235467 0 0,0 0.811575124418112,0.20688856968811573 l -7.061550143395392 26.7372477558958" fill="#aaff21" stroke="none" /><path d="M 105.36241919743992 79.69619591428918 l 1.3396278888787956 -5.072252131376599 a26.246174278930916,26.246174278930916 0 0,0 0.43581411289836,0.11912446002861257 l -1.4267398910008664 5.0484411305216925" fill="#ff3605" stroke="none" /><path d="M 105.71112130821622 79.79150937346287 l 8.553995354966093 -30.267845073013458 a52.453350885028556,52.453350885028556 0 0,0 0.8667536128709733,0.25302914754604744 l -9.073739185560493 30.11611759654871" fill="#80ff26" stroke="none" /><path d="M 106.0581310904928 79.89281104454417 l 11.110727199909213 -36.87696550371685 a59.51439787499118,59.51439787499118 0 0,0 0.9783447943219573,0.3039764899342647 l -11.743857366941889 36.68024887890007" fill="#37ff2e" stroke="none" /><path d="M 106.40334571778207 80.00007090966166 l 12.348412919018708 -38.568491167478975 a61.4970593074916,61.4970593074916 0 0,0 1.0053808019923185,0.33145824342970703 l -13.010476543253443 38.35021919979003" fill="#31ff3e" stroke="none" /><path d="M 106.74666289553966 80.11325718540242 l 10.036828690823151 -29.584971702163063 a52.24113443501564,52.24113443501564 0 0,0 0.8490875862295544,0.2962299865636988 l -10.544598281115979 29.407820862427155" fill="#82ff25" stroke="none" /><path d="M 107.08798089147638 80.2323363322302 l 2.8879594177393386 -8.054227477488082 a29.556336240332854,29.556336240332854 0 0,0 0.477430078006163,0.17584152692784216 l -3.026171821518078 8.003322682753915" fill="#ff6509" stroke="none" /><path d="M 107.4271985657038 80.35727306442388 l 11.10057250007922 -29.35770634361107 a52.38626501492678,52.38626501492678 0 0,0 0.8407168206104425,0.32618506507738426 l -11.604272485689329 29.16227857464314" fill="#81ff25" stroke="none" /><path d="M 107.76421540070413 80.48803036053334 l 10.441474414665466 -26.240092688791698 a49.24122611128088,49.24122611128088 0 0,0 0.7848491743186281,0.32015968459372796 l -10.891607458572482 26.05647211801439" fill="#a3ff21" stroke="none" /><path d="M 108.09893153111575 80.62456947434976 l 6.02665138452317 -14.417823481347032 a36.62671305328977,36.62671305328977 0 0,0 0.5796024593505555,0.24815552487587997 l -6.2739376016640405 14.31194842850836" fill="#ffc312" stroke="none" /><path d="M 108.43124777332544 80.76684994638697 l 4.496936340282946 -10.258297910285945 a32.2006746432853,32.2006746432853 0 0,0 0.5057313473708965,0.2269069138503844 l -4.672849806120622 10.179370665919029" fill="#ff890c" stroke="none" /><path d="M 108.76106565485865 80.91482961587045 l 14.34173740952732 -31.24214711408755 a55.37669542323876,55.37669542323876 0 0,0 0.8628791108909311,0.4051333125089789 l -14.87739473171785 30.99064881893857" fill="#61ff29" stroke="none" /><path d="M 109.08828744355905 81.06846463323043 l 4.526540118541492 -9.429098152479966 a31.45932394631062,31.45932394631062 0 0,0 0.48616450195259847,0.23855880971888954 l -4.6881758875045225 9.349784182626244" fill="#ff7f0b" stroke="none" /><path d="M 109.41281617654863 81.2277094730956 l 12.389709734276112 -24.70920777729747 a48.6414517759338,48.6414517759338 0 0,0 0.7452322370173334,0.3817368967774017 l -12.813202458882202 24.492278355207567" fill="#aaff21" stroke="none" /><path d="M 109.73455568895987 81.39251694778311 l 14.489113048910014 -27.695760763381593 a52.25683223243459,52.25683223243459 0 0,0 0.7934452290500372,0.4238309626101163 l -14.963703324488362 27.442251074269723" fill="#82ff25" stroke="none" /><path d="M 110.05341064243156 81.56283822128135 l 3.6331803327287617 -6.662966026977852 a28.589144589925013,28.589144589925013 0 0,0 0.4300296233330411,0.23931101980164293 l -3.747334045133838 6.599439609616029" fill="#ff5708" stroke="none" /><path d="M 110.36928655335952 81.73862282372117 l 23.487271317972294 -41.3634938307425 a68.5666956583061,68.5666956583061 0 0,0 1.0213279259987398,0.5916190568946098 l -24.19579597643636 40.953070616457836" fill="#3aff90" stroke="none" /><line stroke="#e1ed5e" stroke-width="0.3" x1="143.23703022742887" x2="145.7803849466894" y1="26.81831364943548" y2="22.513508569990506" /><path d="M 143.74570117128098 25.957352633546492 a86.0,86.0 0 0,1 28.547481713284135,27.462654790039103" fill="none" id="id146" stroke="none" /><text fill="#e1ed5e" style="font-size:6.75px; font-family:Arial;" text-anchor="middle"><textPath startOffset="19.985693538727396" xlink:href="#id146">February</textPath></text><path d="M 110.68208982089419 81.91981866633111 l 15.970780162157292 -27.03165824417249 a52.39707576220587,52.39707576220587 0 0,0 0.772577251202254,0.465469149423493 l -16.433719479577185 26.75274248529038" fill="#80ff25" stroke="none" /><path d="M 110.99172775467656 82.1063720568725 l 9.311355843989478 -15.158120801120262 a38.78960297125126,38.78960297125126 0 0,0 0.5659234017845399,0.3543811822795662 l -9.57089839814628 14.995595277517753" fill="#ffdf14" stroke="none" /><path d="M 111.2981086023043 82.29822771554956 l 9.568109790912688 -14.991226113441055 a38.784419736254435,38.784419736254435 0 0,0 0.5596646698051451,0.3640214693268659 l -9.824741486502115 14.82430571995466" fill="#ffdf14" stroke="none" /><path d="M 111.60114157652 82.49532879139004 l 1.6386840867236017 -2.472569269470329 a23.966291342469617,23.966291342469617 0 0,0 0.3419137323185255,0.23086167833148177 l -1.681002513448669 2.4439956788401775" fill="#ff1602" stroke="none" /><path d="M 111.90073688211348 82.69761687909136 l 17.68804052618415 -25.716496119007168 a52.21225641146189,52.21225641146189 0 0,0 0.736115393119416,0.5156958749158609 l -18.128087058887214 25.40821540132737" fill="#82ff25" stroke="none" /><path d="M 112.19680574252982 82.90503203632743 l 26.16058719769478 -36.666518225836356 a66.04231212242308,66.04231212242308 0 0,0 0.9197325475727424,0.6682248102023071 l -26.78786506162131 36.210774180817374" fill="#37ff73" stroke="none" /><path d="M 112.48926042617603 83.11751280151076 l 13.656923045602703 -18.460887243964237 a43.96336005265509,43.96336005265509 0 0,0 0.6045042528052008,0.45530007052542 l -13.972673452166287 18.22307058393297" fill="#e0ff1b" stroke="none" /><path d="M 112.77801427241765 83.33499621200491 l 12.621281524072579 -16.46059394862658 a41.74241790272913,41.74241790272913 0 0,0 0.5664395319622844,0.44211503941154007 l -12.902753611194294 16.24090051999182" fill="#fbff18" stroke="none" /><path d="M 113.06298171725822 83.55741782278167 l 2.981016584263248 -3.7522528331829412 a25.792270985637387,25.792270985637387 0 0,0 0.3452437960650644,0.2791631396546036 l -3.045163778892803 3.700383596264208" fill="#ff3004" stroke="none" /><path d="M 113.34407831869373 83.78471172551755 l 23.527560197737284 -28.58992295234787 a58.02606896875955,58.02606896875955 0 0,0 0.7657851273610549,0.6413230213635955 l -24.016202862057455 28.180698773590453" fill="#46ff2c" stroke="none" /><path d="M 113.6212207817346 84.01681056812373 l 15.373943156836633 -18.039840167639195 a44.702193178345595,44.702193178345595 0 0,0 0.5813545795760237,0.5041449626451717 l -15.682191535059422 17.772530211574352" fill="#d7ff1c" stroke="none" /><path d="M 113.89432698308785 84.25364557470407 l 17.898078830063287 -20.283781512634985 a48.05130344843798,48.05130344843798 0 0,0 0.6154891742533681,0.5525922577488118 l -18.244578991912647 19.972690246116876" fill="#b1ff20" stroke="none" /><path d="M 114.16331599549186 84.49514656593476 l 16.34336331780399 -17.89139301438209 a45.232364072306716,45.232364072306716 0 0,0 0.5703415906508589,0.5300703504379467 l -16.6489127922497 17.6074180778695" fill="#d1ff1c" stroke="none" /><path d="M 114.42810811169701 84.74124197986012 l 2.050818836647223 -2.168887849279092 a23.984950988458195,23.984950988458195 0 0,0 0.29754674445848817,0.286239732423089 l -2.0878488247181295 2.1332650300937015" fill="#ff1602" stroke="none" /><path d="M 114.68862486808459 84.99185889309783 l 22.054068536510815 -22.533802554684442 a52.530210855410076,52.530210855410076 0 0,0 0.6407790205151405,0.6380273117621463 l -22.438683357193277 22.15083939227218" fill="#7fff26" stroke="none" /><path d="M 114.94478906791727 85.2469230424477 l 15.813913163590318 -15.611051908610907 a43.221268893537996,43.221268893537996 0 0,0 0.5181113308857475,0.5339592697495167 l -16.080288758179172 15.336528443311277" fill="#e9ff1a" stroke="none" /><path d="M 115.19652480421416 85.50635884689758 l 16.781155725713276 -16.00497826683181 a44.18979337580217,44.18979337580217 0 0,0 0.5202457598986413,0.5549619035732656 l -17.054168807582382 15.71374694638049" fill="#ddff1b" stroke="none" /><path d="M 115.4437574822437 85.77008943001954 l 16.342552874325197 -15.05806253136261 a43.22215744810889,43.22215744810889 0 0,0 0.4994348271942191,0.5514884103055941 l -16.59933134213545 14.774521333787469" fill="#e9ff1a" stroke="none" /><path d="M 115.68641384162765 86.03803664274999 l 15.962597381445226 -14.207785283264455 a42.36973742977363,42.36973742977363 0 0,0 0.4802067736360149,0.5489593544003382 l -16.20479601865909 13.930910372661168" fill="#f3ff19" stroke="none" /><path d="M 115.9244219780498 86.31012108654704 l 4.495342928807508 -3.864548456116609 a26.928139912084813,26.928139912084813 0 0,0 0.2991452019058733,0.35409356380273704 l -4.561198744200499 3.7865959426847655" fill="#ff4006" stroke="none" /><path d="M 116.15771136456269 86.58626213691792 l 11.51682742621337 -9.560989215861103 a35.96829411626431,35.96829411626431 0 0,0 0.3913718782383631,0.4797756463884494 l -11.679697796528142 9.361329399864553" fill="#ffbb11" stroke="none" /><path d="M 116.38621287248628 86.86637796730983 l 4.065256826501969 -3.2583213119816663 a26.209891633953127,26.209891633953127 0 0,0 0.2791302529527627,0.354467075129015 l -4.120741160048695 3.1878618428996126" fill="#ff3605" stroke="none" /><path d="M 116.60985879189232 87.15038557335679 l 3.613554996802226 -2.7954956751976434 a25.56865141863144,25.56865141863144 0 0,0 0.26630853529893084,0.35043081611776844 l -3.6611394723252704 2.732880083198842" fill="#ff2d04" stroke="none" /><path d="M 116.82858285166822 87.43820079747576 l 50.48574855500462 -37.68539760757273 a84.0,84.0 0 0,0 0.8549495499454944,1.1661502253140252 l -51.126960717463746 36.81078493858721" fill="#4dd2ff" stroke="none" /><path d="M 117.04232023915458 87.72973835380427 l 8.425895227993381 -6.066541269033191 a31.38261206835758,31.38261206835758 0 0,0 0.311864528393171,0.44111025871175286 l -8.529072376190435 5.920604509989645" fill="#ff7e0b" stroke="none" /><path d="M 117.2510076193507 88.02491185347247 l 17.276514503985688 -11.99279419585445 a42.03105004583813,42.03105004583813 0 0,0 0.4074520700755098,0.5978856358911067 l -17.48039103972993 11.693630536692936" fill="#f7ff18" stroke="none" /><path d="M 117.45458315368197 88.32363383020206 l 1.2345934677000792 -0.8258899838960535 a22.48536705766202,22.48536705766202 0 0,0 0.21243678473582003,0.3235557976027115 l -1.248626887793824 0.804516122315668" fill="#ff0000" stroke="none" /><path d="M 117.65298651832404 88.62581576622439 l 26.26349097884974 -16.922110301588873 a52.24305963658588,52.24305963658588 0 0,0 0.4805674956888183,0.7601423696459917 l -26.550886070784514 16.467520284228673" fill="#82ff25" stroke="none" /><line stroke="#e1ed5e" stroke-width="0.3" x1="172.23445277983987" x2="176.4835382374775" y1="55.19839476539836" y2="52.563006222186495" /><path d="M 173.08426987136738 54.67131705675599 a86.0,86.0 0 0,1 12.851231095245387,41.99856678651699" fill="none" id="id147" stroke="none" /><text fill="#e1ed5e" style="font-size:6.75px; font-family:Arial;" text-anchor="middle"><textPath startOffset="22.20632615414155" xlink:href="#id147">March</textPath></text><line stroke="#e1ed5e" stroke-width="0.3" x1="184.98032266829074" x2="189.97916517819016" y1="98.17113171792111" y2="98.06355123074" /><path d="M 185.9800911702706 98.14961562048488 a86.0,86.0 0 0,1 -9.607161424134198,41.387399972396054" fill="none" id="id148" stroke="none" /><text fill="#e1ed5e" style="font-size:6.75px; font-family:Arial;" text-anchor="middle"><textPath startOffset="21.466115282336823" xlink:href="#id148">April</textPath></text><line stroke="#e1ed5e" stroke-width="0.3" x1="174.80103733775053" x2="179.2010983576182" y1="140.37084112569926" y2="142.7455964860345" /><path d="M 175.68104954172406 140.8457921977663 a86.0,86.0 0 0,1 -30.038265399797805,32.042727171017184" fill="none" id="id149" stroke="none" /><text fill="#e1ed5e" style="font-size:6.75px; font-family:Arial;" text-anchor="middle"><textPath startOffset="22.206326154141568" xlink:href="#id149">May</textPath></text><line stroke="#e1ed5e" stroke-width="0.3" x1="143.8653032363475" x2="146.44561519142675" y1="172.8068346515853" y2="177.08958963109032" /><path d="M 144.38136562736335 173.6633856474863 a86.0,86.0 0 0,1 -40.68145358897372,12.25698825130547" fill="none" id="id150" stroke="none" /><text fill="#e1ed5e" style="font-size:6.75px; font-family:Arial;" text-anchor="middle"><textPath startOffset="21.466115282336833" xlink:href="#id150">June</textPath></text><line stroke="#e1ed5e" stroke-width="0.3" x1="102.19456741930631" x2="102.32365962044197" y1="184.97166512339345" y2="189.96999836594603" /><path d="M 102.22038585953345 185.97133177190398 a86.0,86.0 0 0,1 -42.740103519485714,-10.115201625700543" fill="none" id="id151" stroke="none" /><text fill="#e1ed5e" style="font-size:6.75px; font-family:Arial;" text-anchor="middle"><textPath startOffset="22.20632615414155" xlink:href="#id151">July</textPath></text><line stroke="#e1ed5e" stroke-width="0.3" x1="58.666819895761336" x2="56.23545636021788" y1="174.27360380694188" y2="178.64263932499728" /><path d="M 58.180547188652646 175.14741091055294 a86.0,86.0 0 0,1 -31.652253787137756,-30.449443065178592" fill="none" id="id152" stroke="none" /><text fill="#e1ed5e" style="font-size:6.75px; font-family:Arial;" text-anchor="middle"><textPath startOffset="22.20632615414155" xlink:href="#id152">August</textPath></text><line stroke="#e1ed5e" stroke-width="0.3" x1="26.63291911575756" x2="22.317208475507996" y1="142.92168965132927" y2="145.44649492493687" /><path d="M 25.769776987707644 143.4266507060508 a86.0,86.0 0 0,1 -11.730757126820373,-40.83630448921669" fill="none" id="id153" stroke="none" /><text fill="#e1ed5e" style="font-size:6.75px; font-family:Arial;" text-anchor="middle"><textPath startOffset="21.46611528233685" xlink:href="#id153">September</textPath></text><line stroke="#e1ed5e" stroke-width="0.3" x1="15.007084014347285" x2="10.007500721073583" y1="101.09737516637583" y2="101.16192664675087" /><path d="M 14.007167355692545 101.11028546245083 a86.0,86.0 0 0,1 10.666146001902534,-42.60595125391555" fill="none" id="id154" stroke="none" /><text fill="#e1ed5e" style="font-size:6.75px; font-family:Arial;" text-anchor="middle"><textPath startOffset="22.20632615414155" xlink:href="#id154">October</textPath></text><line stroke="#e1ed5e" stroke-width="0.3" x1="26.266209847984243" x2="21.928928074336255" y1="57.711370442889674" y2="55.22380399835377" /><path d="M 25.398753493254645 57.213857153982495 a86.0,86.0 0 0,1 29.58750427330803,-30.492523968695096" fill="none" id="id155" stroke="none" /><text fill="#e1ed5e" style="font-size:6.75px; font-family:Arial;" text-anchor="middle"><textPath startOffset="21.46611528233685" xlink:href="#id155">November</textPath></text><line stroke="#e1ed5e" stroke-width="0.3" x1="56.762969772571076" x2="54.21961505331055" y1="26.818313649435495" y2="22.513508569990535" /><path d="M 56.25429882871897 25.957352633546506 a86.0,86.0 0 0,1 42.265352541879196,-11.944610805530505" fill="none" id="id156" stroke="none" /><text fill="#e1ed5e" style="font-size:6.75px; font-family:Arial;" text-anchor="middle"><textPath startOffset="22.20632615414155" xlink:href="#id156">December</textPath></text></svg>