<?xml version="1.0" encoding="utf-8" ?>
<svg baseProfile="full" height="200mm" version="1.1" viewBox="0,0,200,200" width="200mm" xmlns="http://www.w3.org/2000/svg" xmlns:ev="http://www.w3.org/2001/xml-events" xmlns:xlink="http://www.w3.org/1999/xlink"><defs /><rect fill="#1a1a1a" height="200" width="200" x="0" y="0" /><text alignment-baseline="middle" fill="#e1ed5e" style="dominant-baseline: central; font-size:9.0px; font-family:Arial;" text-anchor="middle" x="100.0" y="100.0">2014</text><line stroke="#e1ed5e" stroke-width="0.3" x1="100.0" x2="100.0" y1="15.0" y2="10.0" /><path d="M 100.0 14.0 a86.0,86.0 0 0,1 42.46469731375804,11.215312516191453" fill="none" id="id13" stroke="none" /><text fill="#e1ed5e" style="font-size:6.75px; font-family:Arial;" text-anchor="middle"><textPath startOffset="22.20632615414155" xlink:href="#id13">January</textPath></text><line stroke="#e1ed5e" stroke-width="0.3" x1="143.23703022742887" x2="145.7803849466894" y1="26.81831364943548" y2="22.513508569990506" /><path d="M 143.74570117128098 25.957352633546492 a86.0,86.0 0 0,1 28.547481713284135,27.462654790039103" fill="none" id="id14" stroke="none" /><text fill="#e1ed5e" style="font-size:6.75px; font-family:Arial;" text-anchor="middle"><textPath startOffset="19.985693538727396" xlink:href="#id14">February</textPath></text><line stroke="#e1ed5e" stroke-width="0.3" x1="172.23445277983987" x2="176.4835382374775" y1="55.19839476539836" y2="52.563006222186495" /><path d="M 173.08426987136738 54.67131705675599 a86.0,86.0 0 0,1 12.851231095245387,41.99856678651699" fill="none" id="id15" stroke="none" /><text fill="#e1ed5e" style="font-size:6.75px; font-family:Arial;" text-anchor="middle"><textPath startOffset="22.20632615414155" xlink:href="#id15">March</textPath></text><line stroke="#e1ed5e" stroke-width="0.3" x1="184.98032266829074" x2="189.97916517819016" y1="98.17113171792111" y2="98.06355123074" /><path d="M 185.9800911702706 98.14961562048488 a86.0,86.0 0 0,1 -9.607161424134198,41.387399972396054" fill="none" id="id16" stroke="none" /><text fill="#e1ed5e" style="font-size:6.75px; font-family:Arial;" text-anchor="middle"><textPath startOffset="21.466115282336823" xlink:href="#id16">April</textPath></text><line stroke="#e1ed5e" stroke-width="0.3" x1="174.80103733775053" x2="179.2010983576182" y1="140.37084112569926" y2="142.7455964860345" /><path d="M 175.68104954172406 140.8457921977663 a86.0,86.0 0 0,1 -30.038265399797805,32.042727171017184" fill="none" id="id17" stroke="none" /><text fill="#e1ed5e" style="font-size:6.75px; font-family:Arial;" text-anchor="middle"><textPath startOffset="22.206326154141568" xlink:href="#id17">May</textPath></text><line stroke="#e1ed5e" stroke-width="0.3" x1="143.8653032363475" x2="146.44561519142675" y1="172.8068346515853" y2="177.08958963109032" /><path d="M 144.38136562736335 173.6633856474863 a86.0,86.0 0 0,1 -40.68145358897372,12.25698825130547" fill="none" id="id18" stroke="none" /><text fill="#e1ed5e" style="font-size:6.75px; font-family:Arial;" text-anchor="middle"><textPath startOffset="21.466115282336833" xlink:href="#id18">June</textPath></text><line stroke="#e1ed5e" stroke-width="0.3" x1="102.19456741930631" x2="102.32365962044197" y1="184.97166512339345" y2="189.96999836594603" /><path d="M 102.22038585953345 185.97133177190398 a86.0,86.0 0 0,1 -42.740103519485714,-10.115201625700543" fill="none" id="id19" stroke="none" /><text fill="#e1ed5e" style="font-size:6.75px; font-family:Arial;" text-anchor="middle"><textPath startOffset="22.20632615414155" xlink:href="#id19">July</textPath></text><path d="M 98.73552117531835 120.96189622390904 l -0.511867110111661 8.48547641380568 a29.500901005638553,29.500901005638553 0 0,0 -0.5066249282479797,-0.03493982125101994 l 0.6578547991385707 -8.475408248038375" fill="#ff3104" stroke="none" /><path d="M 96.22490169976321 120.6578951692458 l -1.555921964087266 8.51423466870403 a29.655234552113004,29.655234552113004 0 0,0 -0.5013604125463129,-0.09608691631233712 l 1.702249991205274 -8.486190554043224" fill="#ff3304" stroke="none" /><line stroke="#e1ed5e" stroke-width="0.3" x1="58.666819895761336" x2="56.23545636021788" y1="174.27360380694188" y2="178.64263932499728" /><path d="M 58.180547188652646 175.14741091055294 a86.0,86.0 0 0,1 -31.652253787137756,-30.449443065178592" fill="none" id="id20" stroke="none" /><text fill="#e1ed5e" style="font-size:6.75px; font-family:Arial;" text-anchor="middle"><textPath startOffset="22.20632615414155" xlink:href="#id20">August</textPath></text><path d="M 89.1626897886671 117.98757091392108 l -2.75385267076994 4.570794711603334 a26.336278556065803,26.336278556065803 0 0,0 -0.3862915043640462,-0.23729179255371993 l 2.8321233750662946 -4.522714452221236" fill="#ff0000" stroke="none" /><path d="M 83.95833913139862 113.55231037782056 l -4.993095329526556 4.218265066570369 a27.53641806661629,27.53641806661629 0 0,0 -0.3027747181040759,-0.3647116526018367 l 5.064966047524168 -4.131692156854771" fill="#ff1302" stroke="none" /><path d="M 83.50135304334701 112.99209946851258 l -4.594839130926262 3.6182728915679703 a26.848456664535256,26.848456664535256 0 0,0 -0.28279502773387216,-0.36555069449939664 l 4.656440975878203 -3.538644202955321" fill="#ff0801" stroke="none" /><path d="M 83.28015986056508 112.70617746262583 l -5.937285058607021 4.5120166802867105 a28.457187699819798,28.457187699819798 0 0,0 -0.2930260105537733,-0.3925562267630446 l 6.01407233585588 -4.409147574014358" fill="#ff2103" stroke="none" /><path d="M 82.85270091963577 112.12312394758628 l -5.260340992242346 3.7190560190642215 a27.442248445038658,27.442248445038658 0 0,0 -0.269377152375791,-0.3880578790947189 l 5.323579051780271 -3.62795687778249" fill="#ff1101" stroke="none" /><line stroke="#e1ed5e" stroke-width="0.3" x1="26.63291911575756" x2="22.317208475507996" y1="142.92168965132927" y2="145.44649492493687" /><path d="M 25.769776987707644 143.4266507060508 a86.0,86.0 0 0,1 -11.730757126820373,-40.83630448921669" fill="none" id="id21" stroke="none" /><text fill="#e1ed5e" style="font-size:6.75px; font-family:Arial;" text-anchor="middle"><textPath startOffset="21.46611528233685" xlink:href="#id21">September</textPath></text><path d="M 81.69416730710424 110.29060199501025 l -9.349396102931946 5.255751858057277 a31.725396733127944,31.725396733127944 0 0,0 -0.26350750522701444,-0.4783426629158912 l 9.438480017610477 -5.094038676743563" fill="#ff5307" stroke="none" /><path d="M 79.97269907076064 106.31721596034903 l -12.293188088344936 3.877643036855027 a33.890251700284836,33.890251700284836 0 0,0 -0.17069910966279667,-0.557854566962408 l 12.358113970513863 -3.665461497340571" fill="#ff720a" stroke="none" /><path d="M 79.76711848015287 105.62410040840567 l -13.393713581818226 3.7230282770984 a34.90152880311573,34.90152880311573 0 0,0 -0.15591331217301133,-0.5802114357715611 l 13.455814970333012 -3.4919259081512997" fill="#ff810b" stroke="none" /><path d="M 79.67330655649465 105.27499134158121 l -13.542407788334181 3.514397657748391 a34.99098994361449,34.99098994361449 0 0,0 -0.14627681041260665,-0.5843031450072107 l 13.600895913041846 -3.2807666733437886" fill="#ff820c" stroke="none" /><path d="M 79.50377843672027 104.57218783832718 l -15.318424034804364 3.417152369183498 a36.694936929605305,36.694936929605305 0 0,0 -0.13221703222498113,-0.6176739572386163 l 15.374975105753785 -3.152964592528718" fill="#ff9b0e" stroke="none" /><path d="M 79.4281124754447 104.21870165774334 l -21.16672822809123 4.340686354534285 a42.60721967098762,42.60721967098762 0 0,0 -0.1411517680110053,-0.7197298240991936 l 21.238309929077904 -3.975692803367137" fill="#ffec16" stroke="none" /><path d="M 79.29508885075956 103.50808413554451 l -25.73598052366785 4.360510621706954 a47.10277277219089,47.10277277219089 0 0,0 -0.12856420476289251,-0.8005694257826615 l 25.807226482792032 -3.9168619662310786" fill="#d8ff1c" stroke="none" /><path d="M 79.23777060512086 103.15116336523772 l -26.257743464122697 3.9852386602741965 a47.55844910771377,47.55844910771377 0 0,0 -0.11587491337023595,-0.8104288742278595 l 26.322452428509532 -3.5326643140659364" fill="#d2ff1c" stroke="none" /><path d="M 79.18660465613746 102.79330883721812 l -26.958671262938392 3.6180495029432906 a48.20037202813462,48.20037202813462 0 0,0 -0.10328304738126172,-0.8232675087254143 l 27.0169558195665 -3.1534642399304675" fill="#caff1d" stroke="none" /><path d="M 79.1416061653843 102.43462659150553 l -26.69685955889462 3.116102069369668 a47.878102656513406,47.878102656513406 0 0,0 -0.0885008454105821,-0.8194079140918525 l 26.746542705806256 -2.656097833393033" fill="#ceff1d" stroke="none" /><path d="M 79.07016306316243 101.71520430193888 l -27.219511819709147 2.230644410213718 a48.310759751206184,48.310759751206184 0 0,0 -0.06078745362701837,-0.8293965088838524 l 27.2538758320005 -1.7617747648331048" fill="#c9ff1d" stroke="none" /><path d="M 79.04373962182676 101.35467743843564 l -27.322267643467114 1.7661958228986014 a48.37929430913212,48.37929430913212 0 0,0 -0.04656771807017307,-0.8314978885665613 l 27.34862171242482 -1.2956262179966025" fill="#c8ff1d" stroke="none" /><path d="M 79.0235259727143 100.99374915477108 l -28.10636049568266 1.3315236845784626 a49.137882927396376,49.137882927396376 0 0,0 -0.03275359796147332,-0.8452248260446689 l 28.125116226495336 -0.8475216115197971" fill="#bfff1e" stroke="none" /><path d="M 79.0095281055655 100.63252640178507 l -27.129985775450045 0.8175343731827052 a48.14230076149509,48.14230076149509 0 0,0 -0.017830847501067938,-0.8285294184047125 l 27.14003868563612 -0.35041513898786375" fill="#cbff1d" stroke="none" /><line stroke="#e1ed5e" stroke-width="0.3" x1="15.007084014347285" x2="10.007500721073583" y1="101.09737516637583" y2="101.16192664675087" /><path d="M 14.007167355692545 101.11028546245083 a86.0,86.0 0 0,1 10.666146001902534,-42.60595125391555" fill="none" id="id22" stroke="none" /><text fill="#e1ed5e" style="font-size:6.75px; font-family:Arial;" text-anchor="middle"><textPath startOffset="22.20632615414155" xlink:href="#id22">October</textPath></text><path d="M 79.00175016825051 100.2711162175752 l -32.71964687786438 0.4224555366757369 a53.72237400453409,53.72237400453409 0 0,0 -0.003979811564437454,-0.9247680481445872 l 32.72207098671832 0.14082198967252574" fill="#88ff25" stroke="none" /><path d="M 79.00486145842228 99.54816195383935 l -43.62287004703493 -0.9388112553264893 a64.63297099343139,64.63297099343139 0 0,0 0.033511596972186225,-1.1120867562162464 l 43.600246755607095 1.6895681589677303" fill="#33ff54" stroke="none" /><path d="M 79.01574976396665 99.18683210126434 l -44.93122476860168 -1.741145345758596 a65.96494797419054,65.96494797419054 0 0,0 0.053734392519208224,-1.1342480983652972 l 44.89459676784897 2.514304550746902" fill="#35ff64" stroke="none" /><path d="M 79.03285615573316 98.82574320788736 l -27.949691486178423 -1.5653116756802399 a48.993489507644014,48.993489507644014 0 0,0 0.05440472475951154,-0.8416170119284643 l 27.9186061704145 2.046187751861716" fill="#c1ff1e" stroke="none" /><path d="M 79.05617556472873 98.46500227214037 l -27.336316335507888 -2.0035110393873627 a48.40963785386269,48.40963785386269 0 0,0 0.06806283551173854,-0.8305389900837257 l 27.297779016176655 2.473763946678867" fill="#c8ff1d" stroke="none" /><path d="M 79.08570108090925 98.10471618934814 l -26.95025232118907 -2.4422705783700644 a48.06068708946114,48.06068708946114 0 0,0 0.08175551831059787,-0.8232669122493737 l 26.904219677196245 2.905813021323868" fill="#ccff1d" stroke="none" /><path d="M 79.12142395522702 97.74499172005258 l -26.219715992417306 -2.8318826213999975 a47.37220252281578,47.37220252281578 0 0,0 0.09454058500827163,-0.8099659973885613 l 26.167085054405447 3.2827923571134203" fill="#d5ff1c" stroke="none" /><path d="M 79.16333360222342 97.38593545837743 l -27.14246549871555 -3.4051587369070315 a48.3552287391734,48.3552287391734 0 0,0 0.11071966020252728,-0.8249900725006512 l 27.07982983945519 3.8718671514723417" fill="#c8ff1d" stroke="none" /><path d="M 79.21141760316559 97.0276538004421 l -26.855062279970728 -3.8397299432459997 a48.12817531825844,48.12817531825844 0 0,0 0.1243176128826455,-0.8190977417949797 l 26.78498877364878 4.301426797433072" fill="#cbff1d" stroke="none" /><path d="M 79.32604984820605 96.31383870115002 l -53.262019258620995 -9.496607694620703 a75.10201709004242,75.10201709004242 0 0,0 0.23787410950730348,-1.2707330047082188 l 53.090659425203825 10.412018776791495" fill="#41ffd0" stroke="none" /><path d="M 79.3925641242962 95.95851677861259 l -26.616946888293718 -5.220054785196561 a48.123990001743884,48.123990001743884 0 0,0 0.16641895415744773,-0.8115179229603111 l 26.523148638221276 5.677448364320274" fill="#cbff1d" stroke="none" /><path d="M 79.46518482838121 95.60439243477599 l -27.118111062829755 -5.804803848787821 a48.73243039004824,48.73243039004824 0 0,0 0.1826436098442514,-0.818755490118858 l 27.014173065983464 6.270737508456638" fill="#c4ff1e" stroke="none" /><path d="M 79.54389044137918 95.25157060432595 l -26.981557716208467 -6.2631665827545655 a48.698947857931756,48.698947857931756 0 0,0 0.19657492572197466,-0.8149299752345811 l 26.869749990225678 6.726681789648543" fill="#c4ff1e" stroke="none" /><path d="M 79.62865764111835 94.90015583598534 l -26.697198946752707 -6.683484664169642 a48.5210719060629,48.5210719060629 0 0,0 0.2098043481264328,-0.8084617379110481 l 26.578198266755965 7.142042827629553" fill="#c6ff1e" stroke="none" /><path d="M 79.91906864156998 93.8553929516997 l -51.42656800185738 -15.73612531081393 a74.78027088298552,74.78027088298552 0 0,0 0.3872354467072825,-1.2276421876903285 l 51.14807707138189 16.619017664930674" fill="#41ffcc" stroke="none" /><path d="M 80.02781315780177 93.51064311812611 l -25.481990108112537 -8.279600485337843 a47.79334999709353,47.79334999709353 0 0,0 0.2609578500180761,-0.7802307562119531 l 25.335694964322688 8.71700434447212" fill="#cfff1d" stroke="none" /><path d="M 80.14247586403 93.16781622104843 l -25.47569577806314 -8.765173052823071 a47.94140556879614,47.94140556879614 0 0,0 0.27519946395075306,-0.7780259433471529 l 25.32104323330258 9.202396622596835" fill="#ceff1d" stroke="none" /><path d="M 80.38941819471856 92.48833698450439 l -24.8970244237869 -9.536588940450724 a47.66098936232053,47.66098936232053 0 0,0 0.3000519148913752,-0.7635993951716751 l 24.729178959013833 9.963737340518161" fill="#d1ff1c" stroke="none" /><path d="M 81.26839172434947 90.50648371742162 l -25.258062037215943 -12.801240538880363 a49.31680520839389,49.31680520839389 0 0,0 0.39028513391977243,-0.7539066534699046 l 25.033967470136055 13.234119914610602" fill="#bdff1f" stroke="none" /><line stroke="#e1ed5e" stroke-width="0.3" x1="26.266209847984243" x2="21.928928074336255" y1="57.711370442889674" y2="55.22380399835377" /><path d="M 25.398753493254645 57.213857153982495 a86.0,86.0 0 0,1 29.58750427330803,-30.492523968695096" fill="none" id="id23" stroke="none" /><text fill="#e1ed5e" style="font-size:6.75px; font-family:Arial;" text-anchor="middle"><textPath startOffset="21.46611528233685" xlink:href="#id23">November</textPath></text><path d="M 82.34701348167596 88.62581576622439 l -9.511599947309334 -6.128520522369821 a32.31500319711678,32.31500319711678 0 0,0 0.3053050172727397,-0.465000487079649 l 9.404698294678672 6.291339073427137" fill="#ff5b08" stroke="none" /><path d="M 82.95767976084542 87.72973835380427 l -13.500003902418966 -9.719837309873336 a37.635063651688654,37.635063651688654 0 0,0 0.3830485801330976,-0.5224778328228971 l 13.330692709772235 9.950777586367733" fill="#ffa80f" stroke="none" /><path d="M 83.17141714833178 87.43820079747576 l -21.297581207548813 -15.897710519466646 a47.57675986746497,47.57675986746497 0 0,0 0.4955324794854585,-0.6520626573385243 l 21.020772787839245 16.261957952686195" fill="#d2ff1c" stroke="none" /><path d="M 83.39014120810768 87.1503855733568 l -20.83828930753537 -16.12078623108906 a47.34604429459978,47.34604429459978 0 0,0 0.5042261717383019,-0.6403160331382023 l 20.557709055203098 16.47709465818031" fill="#d5ff1c" stroke="none" /><path d="M 83.84228863543731 86.58626213691792 l -22.772362088690635 -18.9050595526065 a50.59698889728536,50.59698889728536 0 0,0 0.5620828809164995,-0.6653288409381114 l 22.44356859428701 19.294247343173726" fill="#adff20" stroke="none" /><path d="M 84.07557802195018 86.31012108654704 l -23.55081056389539 -20.246119160733297 a52.057141196302965,52.057141196302965 0 0,0 0.5900011030284351,-0.6744732527648071 l 23.19881759728911 20.648507969701047" fill="#9cff22" stroke="none" /><path d="M 84.5562425177563 85.77008943001954 l -23.152747295130734 -21.33298996943343 a52.482473987095275,52.482473987095275 0 0,0 0.6178753615926404,-0.6591063556332953 l 22.782104611567636 21.728365741944774" fill="#96ff23" stroke="none" /><path d="M 84.80347519578584 85.50635884689758 l -19.035628262861763 -18.155174865326043 a47.30523745858281,47.30523745858281 0 0,0 0.5670675610635795,-0.5844129683218978 l 18.720296438095065 18.480152029198067" fill="#d5ff1c" stroke="none" /><path d="M 85.05521093208273 85.24692304244772 l -11.24759164286414 -11.10330726918863 a36.80480148811254,36.80480148811254 0 0,0 0.448955834438249,-0.44702787540747685 l 11.05480000825858 11.295270995246215" fill="#ff9c0e" stroke="none" /><path d="M 85.57189188830299 84.74124197986013 l -19.007634508631803 -20.101935281961197 a48.66546532581527,48.66546532581527 0 0,0 0.6136300737966989,-0.5703022777726856 l 18.658796551040247 20.42614214580853" fill="#c5ff1e" stroke="none" /><path d="M 85.83668400450813 84.49514656593479 l -18.741715126511483 -20.516914699358292 a48.78840899843051,48.78840899843051 0 0,0 0.6249307596786499,-0.5610690063662289 l 18.385773379236863 20.8364827144938" fill="#c3ff1e" stroke="none" /><path d="M 86.37877921826538 84.01681056812374 l -18.065783010720413 -21.19845472901475 a48.85223507527757,48.85223507527757 0 0,0 0.6447156549435697,-0.539930819985587 l 17.698209818817734 21.506286706394146" fill="#c2ff1e" stroke="none" /><path d="M 86.93701828274178 83.55741782278169 l -35.73252321160645 -44.97709344031117 a78.4434691623554,78.4434691623554 0 0,0 1.0644683319822288,-0.8308344174290295 l 34.9530223244648 45.585506246963426" fill="#46fff4" stroke="none" /><path d="M 87.51073957382395 83.11751280151077 l -17.02122090518398 -23.008611737501404 a49.62024065569959,49.62024065569959 0 0,0 0.6910319896862782,-0.5020641287192446 l 16.62264359914392 23.29819510103732" fill="#b9ff1f" stroke="none" /><path d="M 88.09926311788651 82.69761687909137 l -9.589886361735317 -13.942656623734493 a37.92228099750044,37.92228099750044 0 0,0 0.5410160649641534,-0.3652964621074772 l 9.348465602364623 14.105664998140636" fill="#ffac0f" stroke="none" /><line stroke="#e1ed5e" stroke-width="0.3" x1="56.762969772571076" x2="54.21961505331055" y1="26.818313649435495" y2="22.513508569990535" /><path d="M 56.25429882871897 25.957352633546506 a86.0,86.0 0 0,1 42.265352541879196,-11.944610805530505" fill="none" id="id24" stroke="none" /><text fill="#e1ed5e" style="font-size:6.75px; font-family:Arial;" text-anchor="middle"><textPath startOffset="22.20632615414155" xlink:href="#id24">December</textPath></text><path d="M 89.3179101791058 81.91981866633112 l -14.948414713860602 -25.301233486057612 a50.38719990699296,50.38719990699296 0 0,0 0.750537179658596,-0.43475957828112977 l 14.510680801736685 25.55479722172879" fill="#afff20" stroke="none" /><path d="M 89.63071344664047 81.73862282372117 l -14.814472025528655 -26.0898047260504 a51.002441434633496,51.002441434633496 0 0,0 0.7671639356054525,-0.42692589957366756 l 14.363184000851158 26.34094602318425" fill="#a8ff21" stroke="none" /><path d="M 89.94658935756843 81.56283822128135 l -14.13952627411683 -25.93077540173793 a50.535255478695575,50.535255478695575 0 0,0 0.7673055492542705,-0.40986805093766066 l 13.691075678334254 26.170322179177337" fill="#aeff20" stroke="none" /><path d="M 90.91171255644093 81.06846463323043 l -11.386755269715561 -23.719403841495456 a47.31099226879033,47.31099226879033 0 0,0 0.7371994054944746,-0.34612500564447946 l 10.976777652921479 23.91189382977994" fill="#d5ff1c" stroke="none" /><path d="M 91.90106846888425 80.62456947434976 l -10.825724034064223 -25.898856300489868 a49.07039469859908,49.07039469859908 0 0,0 0.7821263157755206,-0.31904896222708673 l 10.378313848700321 26.081366148900532" fill="#c0ff1e" stroke="none" /><path d="M 92.57280143429618 80.3572730644239 l -10.193532594394386 -26.958856086757876 a49.821659012962854,49.821659012962854 0 0,0 0.8047803474537791,-0.296407393787965 l 9.727969921168038 27.130326748352164" fill="#b6ff1f" stroke="none" /><path d="M 93.25333710446033 80.11325718540243 l -9.77585688525939 -28.815720405712593 a51.428820554554434,51.428820554554434 0 0,0 0.8407808346757714,-0.2771922221100085 l 9.278393228341208 28.979726352081833" fill="#a3ff22" stroke="none" /><path d="M 93.59665428221793 80.00007090966166 l -8.19299207080749 -25.589631994851892 a47.86920885891995,47.86920885891995 0 0,0 0.7869119568983015,-0.24449737549942768 l 7.7512947411984605 25.726869505233847" fill="#ceff1d" stroke="none" /><path d="M 94.28887869178378 79.79150937346287 l -6.2897220502814655 -22.2558377308109 a44.12753589490205,44.12753589490205 0 0,0 0.7327316623765856,-0.20028324242642412 l 5.905692498681157 22.36080751406362" fill="#feff18" stroke="none" /><path d="M 94.63758080256005 79.69619591428918 l -6.27961593396988 -23.776599136020867 a45.591873510434226,45.591873510434226 0 0,0 0.7604965732810925,-0.1938675096919024 l 5.869410472003787 23.88116964188163" fill="#ebff1a" stroke="none" /><path d="M 95.33964822691252 79.52364482259891 l -5.515400411403016 -24.233213128169634 a45.85293262802999,45.85293262802999 0 0,0 0.7711093703089146,-0.16853464150492684 l 5.09744831694058 24.32456126777043" fill="#e8ff1a" stroke="none" /><path d="M 96.75951476605007 79.25152402106235 l -3.774237856959167 -24.166036213798908 a45.4589897110969,45.4589897110969 0 0,0 0.7741688018601499,-0.11409235724974129 l 3.3577000746703685 24.227423055209616" fill="#edff1a" stroke="none" /><path d="M 97.11714578562143 79.19881850522333 l -3.385925094548566 -24.431080166364172 a45.664593384874735,45.664593384874735 0 0,0 0.7795278170073858,-0.10120508324571147 l 2.9648825490333226 24.48574357277402" fill="#eaff1a" stroke="none" /><path d="M 98.19473922651362 79.07773832637324 l -5.415782320459142 -62.766785020880285 a84.0,84.0 0 0,0 1.4416392425506632,-0.11189895124615123 l 4.334552888546145 62.8507092343149" fill="#4dd2ff" stroke="none" /><path d="M 99.27714615592234 79.0124445844662 l -0.8447451268094195 -24.52658349425619 a45.541126547695164,45.541126547695164 0 0,0 0.7836833398836393,-0.02024022857813059 l 0.4224351517309012 24.537490514976678" fill="#ecff1a" stroke="none" /></svg>