<?xml version="1.0" encoding="utf-8" ?>
<svg baseProfile="full" height="200mm" version="1.1" viewBox="0,0,200,200" width="200mm" xmlns="http://www.w3.org/2000/svg" xmlns:ev="http://www.w3.org/2001/xml-events" xmlns:xlink="http://www.w3.org/1999/xlink"><defs /><rect fill="#1a1a1a" height="200" width="200" x="0" y="0" /><text alignment-baseline="middle" fill="#e1ed5e" style="dominant-baseline: central; font-size:9.0px; font-family:Arial;" text-anchor="middle" x="100.0" y="100.0">2016</text><line stroke="#e1ed5e" stroke-width="0.3" x1="100.0" x2="100.0" y1="15.0" y2="10.0" /><path d="M 100.0 14.0 a86.0,86.0 0 0,1 42.35913384403234,11.155469271406648" fill="none" id="id37" stroke="none" /><text fill="#e1ed5e" style="font-size:6.75px; font-family:Arial;" text-anchor="middle"><textPath startOffset="22.145653131862478" xlink:href="#id37">January</textPath></text><path d="M 100.0 79.0 l 0.0 -3.632282849038482 a24.632282849038482,24.632282849038482 0 0,0 0.42284588999781736,0.0036296234082321284 l -0.062352965148962554 3.631747623824685" fill="#ff1502" stroke="none" /><path d="M 100.36049292484886 79.00309439819443 l 1.0435075724027008 -60.77908464277146 a81.78804190025238,81.78804190025238 0 0,0 1.4035867318607287,0.036151415347833185 l -2.0867076183341706 60.75221551007358" fill="#4ae7ff" stroke="none" /><path d="M 101.44090949804482 79.04949213459386 l 0.20001779244853649 -2.9082148043304135 a23.9150849842539,23.9150849842539 0 0,0 0.4093249064726714,0.03168433651261932 l -0.24991169369644137 2.9043527008227406" fill="#ff0b01" stroke="none" /><path d="M 102.15924093988457 79.11130261209362 l 0.8923669751712434 -8.6328409947201 a29.678839925848166,29.678839925848166 0 0,0 0.5063268013127749,0.05673497418373924 l -1.040429678084815 8.61625026002939" fill="#ff5e08" stroke="none" /><path d="M 102.51750503828377 79.15144685158666 l 0.7989070831851188 -6.616096703339096 a27.664156969602217,27.664156969602217 0 0,0 0.4709785550155819,0.06097760326593087 l -0.9123634600914924 6.601407503872768" fill="#ff4106" stroke="none" /><path d="M 103.23170211078529 79.25015418208739 l 2.258892864848686 -14.503712612733178 a35.6785652067094,35.6785652067094 0 0,0 0.6043651572768813,0.0994480566419963 l -2.5075355251786378 14.462798557595514" fill="#ffb010" stroke="none" /><path d="M 103.58742460773223 79.30868818359171 l 2.4238131931343383 -13.979910394707945 a35.18847296361646,35.18847296361646 0 0,0 0.5942918637891703,0.10829977448596623 l -2.663439790474562 13.936242446290612" fill="#ffa90f" stroke="none" /><path d="M 104.29559338865022 79.4440306129975 l 1.4443048907319225 -6.9115217464082335 a28.060817903647287,28.060817903647287 0 0,0 0.4706702231462503,0.10258038447801147 l -1.5627375304973068 6.885709903796503" fill="#ff4706" stroke="none" /><path d="M 104.64783097203109 79.52079915486377 l 0.6915222571680489 -3.0469746595018203 a24.1244611707949,24.1244611707949 0 0,0 0.40307132062774187,0.09512373416184113 l -0.7437257315356758 3.0346547816937517" fill="#ff0e01" stroke="none" /><path d="M 105.69591212413111 79.78721728523813 l 1.614925238115497 -5.730799953939431 a26.953994594956782,26.953994594956782 0 0,0 0.4442788264459353,0.12932309138941897 l -1.7130640769430368 5.702233168247496" fill="#ff3705" stroke="none" /><path d="M 106.38641147887787 79.99465700312896 l 2.34054784523287 -7.331732789115256 a28.696263373014986,28.696263373014986 0 0,0 0.4679913199871207,0.15383804236852114 l -2.466061902867733 7.290473825344714" fill="#ff5007" stroke="none" /><path d="M 108.4095320186766 80.7573450057729 l 3.4953661147290545 -7.998081709525129 a29.72851048623054,29.72851048623054 0 0,0 0.4658692549563943,0.2083773921242976 l -3.6321487725410804 7.936900566490979" fill="#ff5e08" stroke="none" /><path d="M 108.73861861582097 80.90454125486305 l 5.9123128410911 -12.919470560369813 a35.208031626203294,35.208031626203294 0 0,0 0.547419985158303,0.25622019390953443 l -6.133221540120908 12.816074134889746" fill="#ffa90f" stroke="none" /><path d="M 109.71004243097381 81.37971332152246 l 3.2657779006727075 -6.26255973349684 a28.06292855068903,28.06292855068903 0 0,0 0.4252351298386631,0.22641375517514717 l -3.37280184629793 6.205575510599119" fill="#ff4706" stroke="none" /><path d="M 110.34350942703115 81.72400993836675 l 6.048641648324101 -10.687370222940036 a33.280307328077186,33.280307328077186 0 0,0 0.49477917236888147,0.285660888356594 l -6.23121328855338 10.58196243730727" fill="#ff8f0d" stroke="none" /><line stroke="#e1ed5e" stroke-width="0.3" x1="143.13028292997686" x2="145.6673583964461" y1="26.7553504044142" y2="22.446841604673864" /><path d="M 143.63769802327073 25.89364864446614 a86.0,86.0 0 0,1 29.32050498858742,28.57503671076993" fill="none" id="id38" stroke="none" /><text fill="#e1ed5e" style="font-size:6.75px; font-family:Arial;" text-anchor="middle"><textPath startOffset="20.669276256404974" xlink:href="#id38">February</textPath></text><path d="M 110.65571695917076 81.90426304109057 l 5.762483595410487 -9.785956944251812 a32.35654747280727,32.35654747280727 0 0,0 0.47620709213043144,0.2859486762832312 l -5.929623444098352 9.68559426743266" fill="#ff830c" stroke="none" /><path d="M 111.27062007382361 82.28071324371311 l 2.5047192905669107 -3.937834747587391 a25.666922028901347,25.666922028901347 0 0,0 0.36974346140389436,0.23966324456823535 l -2.571948384227812 3.8942576613152613" fill="#ff2403" stroke="none" /><path d="M 112.16784306229584 82.88440491214696 l 3.401441131210656 -4.78455292519082 a26.870412972103722,26.870412972103722 0 0,0 0.3736509927118074,0.2704945035804597 l -3.483073134296431 4.725457650237286" fill="#ff3605" stroke="none" /><path d="M 112.45986205192187 83.09580414077388 l 3.816770241625838 -5.178181864714717 a27.432830053827082,27.432830053827082 0 0,0 0.37667497865428284,0.2826639262832415 l -3.905098209190887 5.111898911167461" fill="#ff3e05" stroke="none" /><path d="M 114.39649973595853 84.71141617570332 l 4.904771350420214 -5.208697204544184 a28.15453063230072,28.15453063230072 0 0,0 0.34901899862551283,0.33435230555408396 l -4.993462834911039 5.12373276868452" fill="#ff4806" stroke="none" /><path d="M 114.91283532996326 85.21462403516908 l 5.028023324113334 -4.985049024016664 a28.080376566234115,28.080376566234115 0 0,0 0.33644730346285473,0.3452245727425899 l -5.112857428727 4.898001759206332" fill="#ff4706" stroke="none" /><path d="M 115.8921839302757 86.27271002978787 l 3.2381039095152495 -2.796997034178058 a25.278844392826034,25.278844392826034 0 0,0 0.28084246786209843,0.33083172097321334 l -3.28564094088446 2.7409985307552924" fill="#ff1f03" stroke="none" /><path d="M 116.57777611688842 87.10902102172516 l 2.425295359275511 -1.8859243406404733 a24.072257833962432,24.072257833962432 0 0,0 0.2508650489323799,0.328390401928742 l -2.4573123855621977 1.8440130254708493" fill="#ff0d01" stroke="none" /><path d="M 117.21940702142032 87.97951657250589 l 5.913356589876717 -4.127982154150458 a28.211658812230585,28.211658812230585 0 0,0 0.27380121939985574,0.39948416175296875 l -5.983347546091898 4.02586325732744" fill="#ff4906" stroke="none" /><path d="M 117.62189284568427 88.57770195909679 l 52.86567853705281 -34.26689412270966 a84.0,84.0 0 0,0 0.7739292334964403,1.2167453012853122 l -53.44612546217514 33.354335146745676" fill="#4dd2ff" stroke="none" /><line stroke="#e1ed5e" stroke-width="0.3" x1="172.87174338648825" x2="177.1583165268699" y1="56.24261187166439" y2="53.66864786411523" /><path d="M 173.72905801456457 55.72781907015455 a86.0,86.0 0 0,1 12.242430191666344,42.057860355516425" fill="none" id="id39" stroke="none" /><text fill="#e1ed5e" style="font-size:6.75px; font-family:Arial;" text-anchor="middle"><textPath startOffset="22.145653131862474" xlink:href="#id39">March</textPath></text><path d="M 118.70294669586156 90.45014215332178 l 5.896610128070759 -3.0108511464035277 a27.620818350345075,27.620818350345075 0 0,0 0.21199647137483174,0.42413495355590464 l -5.947426512657327 2.9091843366838726" fill="#ff4106" stroke="none" /><path d="M 118.8641267826498 90.77261029715802 l 12.731231603391574 -6.227483347370191 a35.172713465704774,35.172713465704774 0 0,0 0.2606477985283987,0.5446536517854085 l -12.836258659879885 6.008017193519678" fill="#ffa90f" stroke="none" /><path d="M 119.0197475246899 91.09779779509293 l 6.370275164289747 -2.9816104309370726 a28.0335202019074,28.0335202019074 0 0,0 0.2002601683374222,0.4376046090234513 l -6.42051979748222 2.871816839698937" fill="#ff4706" stroke="none" /><path d="M 119.16976305983485 91.42560881287824 l 12.899611135548835 -5.769831984501354 a35.13120407388381,35.13120407388381 0 0,0 0.2415121691531525,0.5526271066690013 l -12.996757186718957 5.5475428080565035" fill="#ffa80f" stroke="none" /><path d="M 119.31412917781788 91.75594674310238 l 6.500966866985704 -2.7748761841310237 a28.068416232997563,28.068416232997563 0 0,0 0.18535066268140013,0.4447741158958239 l -6.547643374203587 2.662869558793922" fill="#ff4706" stroke="none" /><path d="M 119.4528033332814 92.08871423366111 l 6.59313303335072 -2.681369807151988 a28.117523954168806,28.117523954168806 0 0,0 0.17799909005423512,0.4486739845483418 l -6.63819079837108 2.567794805390081" fill="#ff4806" stroke="none" /><path d="M 119.58574465831526 92.42381321644754 l 6.61469997827523 -2.558708051536715 a28.092336899470663,28.092336899470663 0 0,0 0.17011825112190673,0.45125887236493145 l -6.657648913211577 2.444780898977626" fill="#ff4706" stroke="none" /><path d="M 119.83427380445688 93.10060997987247 l 7.82801060212708 -2.7229884369969724 a29.288088803519976,29.288088803519976 0 0,0 0.1611048205280832,0.4762777754406727 l -7.8736008442275285 2.588208987082138" fill="#ff5808" stroke="none" /><path d="M 119.94978838288452 93.4421083053983 l 6.74834241655602 -2.218314191434157 a28.103593683693298,28.103593683693298 0 0,0 0.14672121339010452,0.45960211121597244 l -6.785428345723381 2.1021430465267974" fill="#ff4806" stroke="none" /><path d="M 120.05942366710727 93.78553927170692 l 6.75585869521908 -2.0929822932141455 a28.072637527081053,28.072637527081053 0 0,0 0.13865701292919608,0.4615441002918567 l -6.790792028151903 1.9767005893315654" fill="#ff4706" stroke="none" /><path d="M 120.35273937422433 94.82641323984039 l 11.685108033505088 -2.9703087678574778 a33.056719451455116,33.056719451455116 0 0,0 0.1350799457803044,0.5511722749281571 l -11.734375505801683 2.7692806683212257" fill="#ff8c0c" stroke="none" /><path d="M 120.43855184770803 95.1765574152323 l 6.883820028880523 -1.6245627831456473 a28.07291894668662,28.07291894668662 0 0,0 0.10666257220559945,0.46997497370321956 l -6.910693462643788 1.5061534755034014" fill="#ff4706" stroke="none" /><path d="M 120.51834098615036 95.52812308129327 l 3.939147517042728 -0.8585188672288115 a25.03161726933643,25.03161726933643 0 0,0 0.0878994647242467,0.4206307586699521 l -3.9533046925913413 0.790771657273455" fill="#ff1b02" stroke="none" /><path d="M 120.7213421655516 96.59031103205396 l 15.453605166410942 -2.542884849346471 a36.661423179148144,36.661423179148144 0 0,0 0.09685338352698843,0.6218682001726268 l -15.494980042076195 2.2772284672424026" fill="#ffbc11" stroke="none" /><path d="M 120.77682067341334 96.94652285012252 l 14.122186872126484 -2.0754751459889125 a35.273883813905705,35.273883813905705 0 0,0 0.08290283755288473,0.5998436345303563 l -14.155734226234582 1.8327432032584705" fill="#ffaa0f" stroke="none" /><path d="M 120.82617615685814 97.30363454192243 l 7.0418644768288825 -0.9117103395638116 a28.100638777834856,28.100638777834856 0 0,0 0.05783099917851511,0.4789236333846777 l -7.0564775622670615 0.7906930292557209" fill="#ff4706" stroke="none" /><path d="M 120.86939407059847 97.66154086499901 l 12.104229916322831 -1.356304209131531 a33.17998123869296,33.17998123869296 0 0,0 0.058566786762931144,0.5665805344253559 l -12.125729095567428 1.1483191524232434" fill="#ff8e0d" stroke="none" /><path d="M 120.93736805541906 98.37931529534042 l 14.4728919532034 -1.1202933701438411 a35.51618609429791,35.51618609429791 0 0,0 0.041834750404633,0.6082680894177447 l -14.4899906647731 0.8716818565717623" fill="#ffad10" stroke="none" /><path d="M 120.96210409425399 98.7389718711861 l 14.158514782014914 -0.8517410905922597 a35.18411095973019,35.18411095973019 0 0,0 0.031093389323627322,0.6032034462126561 l -14.171049760795114 0.608565851002873" fill="#ffa90f" stroke="none" /><path d="M 120.98066250479742 99.09900007780936 l 7.06007985830812 -0.30319020676972436 a28.066587005561388,28.066587005561388 0 0,0 0.01653965710114367,0.4815340701509449 l -7.064244202406111 0.18194987205465948" fill="#ff4706" stroke="none" /><line stroke="#e1ed5e" stroke-width="0.3" x1="184.99686870605535" x2="189.99668451229388" y1="99.2704041080226" y2="99.22748670261217" /><path d="M 185.99683186730306 99.26182062694052 a86.0,86.0 0 0,1 -10.086455211305974,41.156179273409016" fill="none" id="id40" stroke="none" /><text fill="#e1ed5e" style="font-size:6.75px; font-family:Arial;" text-anchor="middle"><textPath startOffset="21.40746469413373" xlink:href="#id40">April</textPath></text><path d="M 120.99922638620191 99.81974689727618 l 7.111070750221726 -0.06103998989497832 a28.111332722846356,28.111332722846356 0 0,0 0.0,0.48258618523760954 l -7.111070750221726 -0.061039989894977456" fill="#ff4806" stroke="none" /><path d="M 120.99922638620191 100.18025310272382 l 22.538065904954912 0.19346218922767547 a43.53889620976928,43.53889620976928 0 0,0 -0.012830639872030288,0.7473204482911362 l -22.531423833484215 -0.5803295534878827" fill="#ebff1a" stroke="none" /><path d="M 120.96210409425399 101.26102812881392 l 6.760422537676499 0.4066902322565246 a27.77264422754785,27.77264422754785 0 0,0 -0.03271358124578223,0.4756482916694999 l -6.752444995265651 -0.522681948080368" fill="#ff4306" stroke="none" /><path d="M 120.93736805541906 101.62068470465957 l 7.063187654297346 0.5467353951633487 a28.084316440712037,28.084316440712037 0 0,0 -0.04133259429488988,0.4803473983021693 l -7.052761437304715 -0.6679038408411754" fill="#ff4706" stroke="none" /><path d="M 120.86939407059847 102.33845913500097 l 8.635350957736163 0.9676090864327868 a29.689393161056884,29.689393161056884 0 0,0 -0.06110064917321372,0.5060010257451986 l -8.617468222303286 -1.115703789101394" fill="#ff5e08" stroke="none" /><path d="M 120.82617615685814 102.69636545807757 l 5.882802860505225 0.7616466081087455 a26.931903155919862,26.931903155919862 0 0,0 -0.0632970047785088,0.45798559520961957 l -5.868861339171507 -0.8625205115184501" fill="#ff3705" stroke="none" /><path d="M 120.77682067341334 103.0534771498775 l 4.197174858616169 0.6168401665623684 a25.242259844102474,25.242259844102474 0 0,0 -0.0666858529147111,0.4281710129155467 l -4.18596751356319 -0.6887993614093657" fill="#ff1e03" stroke="none" /><path d="M 120.7213421655516 103.40968896794604 l 7.060982582167552 1.1618819968766687 a28.155937730328546,28.155937730328546 0 0,0 -0.08257088399045567,0.4762469164984184 l -7.039996880684861 -1.2829219462956751" fill="#ff4806" stroke="none" /><path d="M 120.65975698304385 103.76489593502545 l 6.955277711049436 1.2674832914440752 a28.069823331025393,28.069823331025393 0 0,0 -0.09045661999024951,0.4733072591182912 l -6.932494798777027 -1.386693115595681" fill="#ff4706" stroke="none" /><path d="M 120.592083275326 104.11899336999214 l 6.942291135269211 1.3886526572565225 a28.079813727022984,28.079813727022984 0 0,0 -0.09860332113600517,0.4718525864398359 l -6.917430103308842 -1.5076216949817673" fill="#ff4706" stroke="none" /><path d="M 120.43855184770803 104.8234425847677 l 2.1374818567375 0.5044398981287006 a23.196198601835928,23.196198601835928 0 0,0 -0.09478681797346573,0.38676256341269494 l -2.128507512247738 -0.5410582861494952" fill="#ff0000" stroke="none" /><path d="M 120.26092885502905 105.52220625578681 l 29.70473093146993 8.096156506443238 a51.78828981752396,51.78828981752396 0 0,0 -0.2411398605350563,0.8557202952997773 l -29.561372578860293 -8.604884725646025" fill="#8bff24" stroke="none" /><path d="M 119.94978838288452 106.5578916946017 l 6.759437266816974 2.2219612890866607 a28.115272597324278,28.115272597324278 0 0,0 -0.1546535172122835,0.4572056435089887 l -6.720298328032325 -2.33766860706981" fill="#ff4806" stroke="none" /><path d="M 119.71291397450082 107.23885506374661 l 6.631892196719308 2.4353226759139663 a28.06489848792799,28.06489848792799 0 0,0 -0.1699520928346163,0.4508181177670999 l -6.589109420070251 -2.548809073875225" fill="#ff4706" stroke="none" /><path d="M 119.58574465831526 107.57618678355244 l 5.276379400970833 2.0410169018348765 a26.65737833069037,26.65737833069037 0 0,0 -0.16875558081958572,0.42537430296988193 l -5.240565145185123 -2.1312922220183226" fill="#ff3304" stroke="none" /><path d="M 119.31412917781788 108.2440532568976 l 7.8454456021275325 3.348754208515648 a29.530250374109396,29.530250374109396 0 0,0 -0.2030079814084391,0.4645219898849708 l -7.786803738702128 -3.482938268176463" fill="#ff5c08" stroke="none" /><path d="M 119.16976305983485 108.57439118712176 l 7.8268790033125075 3.500863424299899 a29.57415183257767,29.57415183257767 0 0,0 -0.21126581969628397,0.46165394344641003 l -7.7656287187611674 -3.634706349960998" fill="#ff5c08" stroke="none" /><path d="M 119.0197475246899 108.90220220490707 l 12.905968989069393 6.040645147461233 a35.24968172782704,35.24968172782704 0 0,0 -0.2612181727219703,0.5458455144796911 l -12.80037155838751 -6.261303164006028" fill="#ffaa0f" stroke="none" /><path d="M 118.8641267826498 109.22738970284198 l 6.370734939131501 3.11624570032815 a28.092055479865095,28.092055479865095 0 0,0 -0.21561333049073744,0.4313710946255796 l -6.316301695429032 -3.2251486511174754" fill="#ff4706" stroke="none" /><path d="M 118.70294669586154 109.54985784667822 l 6.3125421412275555 3.2232289959543174 a28.08783418578161,28.08783418578161 0 0,0 -0.2229531104161605,0.42754198669251753 l -6.256280961836446 -3.331117225751338" fill="#ff4706" stroke="none" /><line stroke="#e1ed5e" stroke-width="0.3" x1="174.33088141563837" x2="178.70328620479359" y1="141.23008692659167" y2="143.65538615756765" /><path d="M 175.20536237346943 141.71514677278685 a86.0,86.0 0 0,1 -30.301960400862466,31.631185727798858" fill="none" id="id41" stroke="none" /><text fill="#e1ed5e" style="font-size:6.75px; font-family:Arial;" text-anchor="middle"><textPath startOffset="22.145653131862474" xlink:href="#id41">May</textPath></text><path d="M 118.18653347947321 110.5 l 5.519813774058235 3.186865968329125 a27.373731936658253,27.373731936658253 0 0,0 -0.23844643919405936,0.40493418312230667 l -5.464293624734411 -3.281151319744981" fill="#ff3d05" stroke="none" /><path d="M 118.00360718960297 110.81064883170644 l 13.345581466860235 8.013638221149025 a36.56672548187524,36.56672548187524 0 0,0 -0.3277632938406571,0.5353767081209051 l -13.206050208564173 -8.241552045394487" fill="#ffbb11" stroke="none" /><path d="M 117.81537515405839 111.11811171558189 l 12.053161905985194 7.522064477335011 a35.20775020659773,35.20775020659773 0 0,0 -0.3243846086967419,0.5099864837226759 l -11.92225960566256 -7.727864635736358" fill="#ffa90f" stroke="none" /><path d="M 117.62189284568427 111.42229804090321 l 5.98934970583165 3.882224118049823 a28.137504746163984,28.137504746163984 0 0,0 -0.266201644895945,0.4030632190941094 l -5.921823622014978 -3.9844672154829937" fill="#ff4806" stroke="none" /><path d="M 117.423217284605 111.72311816256416 l 5.937934251090148 3.995307165719299 a28.156922698948026,28.156922698948026 0 0,0 -0.27326999170206084,0.39870908466595095 l -5.868474522572767 -4.096650985455295" fill="#ff4806" stroke="none" /><path d="M 117.21940702142032 112.02048342749411 l 3.252046141463067 2.2701807733724495 a24.966046501239585,24.966046501239585 0 0,0 -0.24833476969085008,0.34931395338541427 l -3.2125962732422564 -2.325671953467368" fill="#ff1a02" stroke="none" /><path d="M 116.79662413953412 112.60449989151573 l 5.679594647677768 4.26207370753808 a28.100920197440423,28.100920197440423 0 0,0 -0.29284908665401554,0.3833488550120818 l -5.605593583669448 -4.358943475791039" fill="#ff4706" stroke="none" /><path d="M 116.57777611688842 112.89097897827486 l 11.313046462220989 8.79709335537283 a35.33087128403279,35.33087128403279 0 0,0 -0.37641437813905754,0.4755872702911194 l -11.160365653440369 -8.990000569578632" fill="#ffab0f" stroke="none" /><path d="M 116.1254893667686 113.45245675266167 l 5.457195797338005 4.552586826033657 a28.106830009157303,28.106830009157303 0 0,0 -0.31226077351037035,0.3678424060266694 l -5.378240460320519 -4.645596014509883" fill="#ff4806" stroke="none" /><path d="M 115.89218393027572 113.72728997021213 l 5.338947476578499 4.6116556710059315 a28.054908091930404,28.054908091930404 0 0,0 -0.31794084416848506,0.36175831706796924 l -5.258995568451429 -4.702626265885194" fill="#ff4706" stroke="none" /><path d="M 115.16444852881244 114.52719865689866 l 5.135821036487335 4.920000375982909 a28.112176981663055,28.112176981663055 0 0,0 -0.3368283227128995,0.3456155320590995 l -5.050605912623628 -5.0074386001097455" fill="#ff4806" stroke="none" /><path d="M 114.91283532996324 114.78537596483092 l 10.074832164332577 9.988723005137311 a35.18720657539142,35.18720657539142 0 0,0 -0.42896234244553494,0.42529601966894365 l -9.901877901757077 -10.160199035034916" fill="#ffa90f" stroke="none" /><path d="M 114.65682725009322 115.03919595460226 l 4.953590555656545 5.082820297613324 a28.097402452370847,28.097402452370847 0 0,0 -0.3483108063841708,0.3336738734068349 l -4.865607263407062 -5.167106301325739" fill="#ff4706" stroke="none" /><path d="M 114.39649973595853 115.28858382429668 l 4.840912666669706 5.140881495355489 a28.061380742858418,28.061380742858418 0 0,0 -0.35353361525637556,0.3272254363308862 l -4.751949280099364 -5.223224677818755" fill="#ff4706" stroke="none" /><path d="M 113.86319453409587 115.77377054828091 l 7.965864095320343 9.063691066971465 a33.06670984745271,33.06670984745271 0 0,0 -0.4295846182434645,0.37106496169709197 l -7.809099997314022 -9.199100161133275" fill="#ff8d0c" stroke="none" /><path d="M 113.59037401385872 116.0094264158162 l 2.8723639303987625 3.383637487553372 a25.438409309181875,25.438409309181875 0 0,0 -0.3353335521369772,0.2797471757437339 l -2.8138560440998903 -3.4324468472089764" fill="#ff2103" stroke="none" /><path d="M 113.03279911837588 116.46651593811092 l 8.80908121322193 11.129986342926836 a35.19424206553057,35.19424206553057 0 0,0 -0.4769491094262113,0.37087851229072183 l -8.616722159160487 -11.279565906838352" fill="#ffa90f" stroke="none" /><path d="M 112.7482090630111 116.68781488649013 l 4.330313750135224 5.668519703865837 a28.133283452080494,28.133283452080494 0 0,0 -0.3862927712158861,0.2898812971246843 l -4.232367990008571 -5.742020028254536" fill="#ff4806" stroke="none" /><path d="M 112.45986205192187 116.90419585922612 l 8.414142923464325 11.415400858617325 a35.18129676367454,35.18129676367454 0 0,0 -0.4892193683172301,0.35415709513979327 l -8.216942544773127 -11.558158725130195" fill="#ffa90f" stroke="none" /><path d="M 111.5731344415666 117.5232005979908 l 1.7697411892799204 2.6796137228732437 a24.211279119111964,24.211279119111964 0 0,0 -0.34877427595082,0.22607127190006562 l -1.7234812810720908 -2.709598836477204" fill="#ff0f01" stroke="none" /><path d="M 111.27062007382361 117.71928675628689 l 3.8066567756989262 5.984696720283343 a28.092759028879012,28.092759028879012 0 0,0 -0.40913206820465786,0.25532866983663854 l -3.7033605787045536 -6.04916118696153" fill="#ff4706" stroke="none" /><path d="M 110.96478420261333 117.91015095944535 l 7.388133456764111 12.067960761839391 a35.14991847765394,35.14991847765394 0 0,0 -0.517318495767587,0.3106348929407724 l -7.179882204439087 -12.193009655316088" fill="#ffa90f" stroke="none" /><line stroke="#e1ed5e" stroke-width="0.3" x1="143.1302829299769" x2="145.66735839644613" y1="173.24464959558577" y2="177.55315839532614" /><path d="M 143.63769802327073 174.10635135553383 a86.0,86.0 0 0,1 -40.68552437913181,11.842963189579606" fill="none" id="id42" stroke="none" /><text fill="#e1ed5e" style="font-size:6.75px; font-family:Arial;" text-anchor="middle"><textPath startOffset="21.407464694133747" xlink:href="#id42">June</textPath></text><path d="M 110.65571695917076 118.09573695890943 l 3.590119597913811 6.0968079523697964 a28.07531101333393,28.07531101333393 0 0,0 -0.4173963602630838,0.24098390095666236 l -3.4849307697903287 -6.1575387506026305" fill="#ff4706" stroke="none" /><path d="M 110.34350942703117 118.27599006163325 l 7.059821170851421 12.474027549895318 a35.3332633506801,35.3332633506801 0 0,0 -0.5304293629863414,0.2942202262079229 l -6.844647619708986 -12.593380691536384" fill="#ffab0f" stroke="none" /><path d="M 109.71004243097381 118.62028667847754 l 1.5016267346852492 2.879567260665547 a24.24758224822996,24.24758224822996 0 0,0 -0.37072564757941023,0.18929515717886639 l -1.4519738653922567 -2.9049203695172494" fill="#ff1001" stroke="none" /><path d="M 109.06512990194946 118.94263497670748 l 3.052033025595255 6.377575188224739 a28.070245460433743,28.070245460433743 0 0,0 -0.4364405689156541,0.20427622342874321 l -2.9421037428080945 -6.429027643224016" fill="#ff4706" stroke="none" /><path d="M 108.73861861582097 119.09545874513695 l 6.098510821112392 13.326346750101585 a35.655488799053,35.655488799053 0 0,0 -0.558749689447603,0.2499216290807833 l -5.868847728809163 -13.42907213009222" fill="#ffaf10" stroke="none" /><path d="M 108.07796709384702 119.3841803445677 l 7.871511914486939 18.888763071472553 a41.46328590891832,41.46328590891832 0 0,0 -0.6593561596985015,0.2681544100251148 l -7.546101293597997 -19.02110473807696" fill="#fffa17" stroke="none" /><path d="M 107.407793817531 119.65005319985036 l 4.183195546560722 11.096423180780754 a32.85874075893954,32.85874075893954 0 0,0 -0.5295121112290402,0.194444181750282 l -3.992094283677554 -11.166598211539759" fill="#ff8a0c" stroke="none" /><path d="M 106.72888874123015 119.89276391827305 l 4.594920409297931 13.584065726238768 a35.34015813101646,35.34015813101646 0 0,0 -0.5763428860860325,0.18945535428079863 l -4.361054785564164 -13.660942001921587" fill="#ffab0f" stroke="none" /><path d="M 106.38641147887787 120.00534299687104 l 2.2050257773329784 6.907211841639609 a28.250635427601456,28.250635427601456 0 0,0 -0.4632557588963479,0.14351781828795343 l -2.0861293855650063 -6.944046247734207" fill="#ff4a06" stroke="none" /><path d="M 106.0420521117495 120.11202640906438 l 4.1322195318215895 13.75481488986751 a35.3621088602506,35.3621088602506 0 0,0 -0.5828685677641626,0.1696645452586208 l -3.89549095167582 -13.82372312942865" fill="#ffab0f" stroke="none" /><path d="M 105.69591212413111 120.21278271476187 l 1.964824434198185 6.972468762790324 a28.24402206687066,28.24402206687066 0 0,0 -0.4677998184413576,0.12750092072958505 l -1.8448432148221323 -7.005170177664052" fill="#ff4a06" stroke="none" /><path d="M 105.3480935250658 120.30758222061773 l 1.8309035075348123 6.952238838572499 a28.1892859535881,28.1892859535881 0 0,0 -0.46900891904473047,0.11922023317605747 l -1.7112892952646845 -6.982644303583827" fill="#ff4906" stroke="none" /><path d="M 104.9986988182912 120.39639698878246 l 5.040353711398755 20.566363167428403 a42.17499609139437,42.17499609139437 0 0,0 -0.7046595259341217,0.16629772943203977 l -4.686562031724754 -20.649857040506667" fill="#fbff18" stroke="none" /><path d="M 104.29559338865022 120.5559693870025 l 1.4549544086588022 6.962483544857239 a28.11288053067697,28.11288053067697 0 0,0 -0.4732381937829808,0.09466089256519351 l -1.3352197293448627 -6.986433834085294" fill="#ff4806" stroke="none" /><path d="M 103.94208987418118 120.62667999033965 l 1.3289068210300572 6.953402030201093 a28.079250887811853,28.079250887811853 0 0,0 -0.47422547608630977,0.08641967902469806 l -1.2093466113926903 -6.975189883157155" fill="#ff4706" stroke="none" /><path d="M 103.58742460773223 120.69131181640829 l 2.4264092344380415 13.994883671076556 a35.20366962231702,35.20366962231702 0 0,0 -0.5963208218926342,0.09812436431574363 l -2.1858109094923353 -14.03447403388797" fill="#ffa90f" stroke="none" /><path d="M 103.2317021107853 120.74984581791261 l 1.0871130330994045 6.980045514768846 a28.064194938914078,28.064194938914078 0 0,0 -0.47665684600202407,0.07005214178232438 l -0.9671310814896948 -6.997678729850052" fill="#ff4706" stroke="none" /><path d="M 102.875027216393 120.80226474461374 l 0.9733340973497794 7.042560662584729 a28.10950349541018,28.10950349541018 0 0,0 -0.47856051977371006,0.061959240400093485 l -0.852295755685294 -7.058231499185218" fill="#ff4806" stroke="none" /><path d="M 102.15924093988457 120.88869738790638 l 0.6803251069809387 6.581528268855256 a27.616597056261586,27.616597056261586 0 0,0 -0.4719813686339231,0.04469712632681157 l -0.5672441749620004 -6.592237150687251" fill="#ff4106" stroke="none" /><path d="M 101.80034050326958 120.92268563240118 l 0.6073058023581428 7.057813987074389 a28.083894311303688,28.083894311303688 0 0,0 -0.4806772553779962,0.03720745958168469 l -0.48605955220491076 -7.0671992136511275" fill="#ff4706" stroke="none" /><path d="M 101.44090949804482 120.95050786540614 l 0.9749865699867495 14.176090747468598 a35.209579434033905,35.209579434033905 0 0,0 -0.6033507627798906,0.03629608363672588 l -0.7314914550743937 -14.190738808930016" fill="#ffa90f" stroke="none" /><path d="M 101.08105385017728 120.97215588758144 l 0.3663215909889809 7.10654100158646 a28.115976146338195,28.115976146338195 0 0,0 -0.4822214439748847,0.020708663675450285 l -0.24427438641326665 -7.111782233687742" fill="#ff4806" stroke="none" /><path d="M 100.72087961077811 120.9876233191556 l 0.48709004339726797 14.181095151655843 a35.189457932235946,35.189457932235946 0 0,0 -0.6038958154212137,0.015554214039319595 l -0.24358091390531045 -14.187367083045206" fill="#ffa90f" stroke="none" /><line stroke="#e1ed5e" stroke-width="0.3" x1="101.45913802915013" x2="101.54496967792366" y1="184.9874750549273" y2="189.98673829345242" /><path d="M 101.47630435890484 185.9873277026323 a86.0,86.0 0 0,1 -42.54439059252881,-10.42667462771756" fill="none" id="id43" stroke="none" /><text fill="#e1ed5e" style="font-size:6.75px; font-family:Arial;" text-anchor="middle"><textPath startOffset="22.145653131862474" xlink:href="#id43">July</textPath></text><path d="M 100.36049292484886 120.99690560180557 l 0.12219625605953614 7.117319305092854 a28.1183682129855,28.1183682129855 0 0,0 -0.4826891809083875,0.004143306087081825 l -8.717486847184959e-16 -7.1183682129855015" fill="#ff4806" stroke="none" /><path d="M 99.63950707515114 120.99690560180557 l -0.4231180330496481 24.644504194056335 a45.64813615348536,45.64813615348536 0 0,0 -0.7833800241524785,-0.020177090581912843 l 0.8461113712728706 -24.633609386124373" fill="#d1ff1c" stroke="none" /><path d="M 98.91894614982273 120.97215588758144 l -0.3637283945645898 7.056233683731361 a28.065602036941904,28.065602036941904 0 0,0 -0.4809316858950792,-0.028931655964718805 l 0.48480443259211525 -7.04895004994195" fill="#ff4706" stroke="none" /><path d="M 98.55909050195518 120.95050786540614 l -1.170302491270428 17.0159413769808 a38.05613874433252,38.05613874433252 0 0,0 -0.651359819230882,-0.05041936949587552 l 1.4622313052765463 -16.99334424048987" fill="#ffcf13" stroke="none" /><path d="M 97.84075906011543 120.88869738790638 l -1.0240250674564353 9.906513606986074 a30.959299131172806,30.959299131172806 0 0,0 -0.5281716852524182,-0.0591827389932443 l 1.193932654309653 -9.887475107485859" fill="#ff700a" stroke="none" /><path d="M 97.48249496171623 120.84855314841334 l -1.528737827069059 12.660142225322781 a33.75210729680835,33.75210729680835 0 0,0 -0.5746250912633593,-0.07439672245915194 l 1.7458407402232123 -12.632033906663233" fill="#ff960d" stroke="none" /><path d="M 96.76829788921471 120.74984581791261 l -1.098741184218322 7.054706586425105 a28.13975610300851,28.13975610300851 0 0,0 -0.47666401449714196,-0.07843488219357264 l 1.2196827017685274 -7.034805705735864" fill="#ff4806" stroke="none" /><path d="M 96.41257539226777 120.69131181640829 l -2.4233564821642433 13.977276207198654 a35.18579947736359,35.18579947736359 0 0,0 -0.5942467117551539,-0.1082915462812761 l 2.662937927470454 -13.933616486986011" fill="#ffa90f" stroke="none" /><path d="M 96.05791012581884 120.62667999033965 l -2.699151305293043 14.123100182070704 a35.37871261697899,35.37871261697899 0 0,0 -0.5955475832139194,-0.11912619592561044 l 2.94119537403792 -14.074684589482233" fill="#ffac0f" stroke="none" /><path d="M 95.70440661134978 120.55596938700252 l -1.4464347943172966 6.921714106098034 a28.071230429053223,28.071230429053223 0 0,0 -0.4708448747074795,-0.10261844897289525 l 1.5650420856439125 -6.89586419899142" fill="#ff4706" stroke="none" /><path d="M 95.35216902796893 120.47920084513623 l -1.566194363217217 6.900941346588881 a28.076436691756193,28.076436691756193 0 0,0 -0.4691008986997563,-0.11070653479761752 l 1.6844274156568613 -6.8730386681450355" fill="#ff4706" stroke="none" /><path d="M 95.00130118170881 120.39639698878247 l -2.110365723602782 8.611012316368384 a29.86584325374668,29.86584325374668 0 0,0 -0.4969032164866487,-0.12631085450599455 l 2.2578742333148094 -8.573516230027126" fill="#ff6008" stroke="none" /><path d="M 94.30408787586889 120.21278271476187 l -1.9226899760311615 6.82294843502294 a28.088678444598308,28.088678444598308 0 0,0 -0.4629816575728708,-0.13476721295248945 l 2.039531645985639 -6.788937527767935" fill="#ff4706" stroke="none" /><path d="M 93.95794788825049 120.11202640906438 l -2.06382238772988 6.869793506898919 a28.173104326268064,28.173104326268064 0 0,0 -0.461984398849291,-0.14312394769550169 l 2.1814474194508047 -6.833352971396768" fill="#ff4906" stroke="none" /><path d="M 93.27111125876986 119.89276391827306 l -5.456797682502903 16.1320527389141 a38.0299667210149,38.0299667210149 0 0,0 -0.6166182932297849,-0.2144918508476832 l 5.73292174777771 -16.03600245549783" fill="#ffce13" stroke="none" /><path d="M 92.93061703081489 119.77432235084164 l -3.3785344310887897 9.45036210444094 a31.036126683492284,31.036126683492284 0 0,0 -0.500141045730041,-0.1836587196674005 l 3.5402646284729493 -9.390972535764819" fill="#ff710a" stroke="none" /><path d="M 92.25597844496254 119.51999308798841 l -17.135158944810627 43.19179405521013 a67.46659817300605,67.46659817300605 0 0,0 -1.0728652132634535,-0.43632494224469165 l 17.87407861926452 -42.89128185638615" fill="#38ff81" stroke="none" /><path d="M 91.92203290615298 119.3841803445677 l -2.7451159656398225 6.587278993157303 a28.136379067741718,28.136379067741718 0 0,0 -0.4442398290748589,-0.18961956689895054 l 2.8577908698851124 -6.539184776598948" fill="#ff4806" stroke="none" /><path d="M 91.59046798132341 119.24265499422711 l -2.8598757381183635 6.54395536312288 a28.141585330444688,28.141585330444688 0 0,0 -0.4410008835544676,-0.19725408590912896 l 2.971790024528466 -6.493897526303896" fill="#ff4806" stroke="none" /><path d="M 91.26138138417905 119.09545874513695 l -2.9772354371517293 6.505796735626238 a28.154671342103498,28.154671342103498 0 0,0 -0.4377532357350342,-0.20489061778064557 l 3.0884773867582536 -6.453729886275067" fill="#ff4806" stroke="none" /><path d="M 90.93487009805054 118.94263497670748 l -6.152415570333424 12.856182275862917 a35.2524959238827,35.2524959238827 0 0,0 -0.5436266425180993,-0.2659150323340598 l 6.372202462113592 -12.748673493431635" fill="#ffaa0f" stroke="none" /><path d="M 90.28995756902619 118.62028667847754 l -3.3020823945182185 6.332178387372551 a28.141444620641906,28.141444620641906 0 0,0 -0.4264248770576833,-0.22704722855649848 l 3.4102960873624637 -6.2745606910934795" fill="#ff4806" stroke="none" /><path d="M 89.97174638481275 118.45085714620012 l -1.8304312201414854 3.367787279295359 a24.833075737609718,24.833075737609718 0 0,0 -0.37279864058291157,-0.20678512166969668 l 1.8879740488804997 -3.3358692421925142" fill="#ff1802" stroke="none" /><line stroke="#e1ed5e" stroke-width="0.3" x1="58.13341422392154" x2="55.67067388415222" y1="173.97424548756322" y2="178.32567169271397" /><path d="M 57.64086615596768 174.84453072859336 a86.0,86.0 0 0,1 -31.369924170532247,-30.572349798747897" fill="none" id="id44" stroke="none" /><text fill="#e1ed5e" style="font-size:6.75px; font-family:Arial;" text-anchor="middle"><textPath startOffset="22.145653131862474" xlink:href="#id44">August</textPath></text><path d="M 89.65649057296885 118.27599006163327 l -3.486316896620383 6.159987903895239 a28.07812520938959,28.07812520938959 0 0,0 -0.4174381989871534,-0.2410080565552674 l 3.591547563467936 -6.099232950063799" fill="#ff4706" stroke="none" /><path d="M 89.34428304082925 118.09573695890944 l -7.178025849218712 12.189857158313897 a35.14626002278159,35.14626002278159 0 0,0 -0.5172646525027143,-0.3106025616072574 l 7.386223258278854 -12.06484059617072" fill="#ffa80f" stroke="none" /><path d="M 89.03521579738668 117.91015095944536 l -3.717246252308916 6.071842391245374 a28.119353181604986,28.119353181604986 0 0,0 -0.4095193751507585,-0.2555703780161013 l 3.8209297562493867 -6.0071362163877255" fill="#ff4806" stroke="none" /><path d="M 88.72937992617639 117.7192867562869 l -7.618448803659394 11.977466910064562 a35.195086324347265,35.195086324347265 0 0,0 -0.507000918431899,-0.32863186991624044 l 7.822935354348303 -11.844921198444426" fill="#ffa90f" stroke="none" /><path d="M 88.1277618465304 117.32195027204791 l -4.9929267261687995 7.284829308903272 a29.831650771670425,29.831650771670425 0 0,0 -0.4199229717378908,-0.2931388471345293 l 5.1172447890804555 -7.198045645963614" fill="#ff6008" stroke="none" /><path d="M 87.83215693770417 117.11559508785305 l -2.0411092694117623 2.8710758025443974 a24.522669912670583,24.522669912670583 0 0,0 -0.3410040614681478,-0.2468606430195952 l 2.090094341253864 -2.835614388151737" fill="#ff1402" stroke="none" /><path d="M 87.54013794807813 116.9041958592261 l -4.222600023644415 5.728767905889297 a28.116820405154893,28.116820405154893 0 0,0 -0.3860667202456757,-0.2897116642624005 l 4.320319732800857 -5.655437214362882" fill="#ff4806" stroke="none" /><path d="M 87.2517909369889 116.68781488649013 l -8.619370146659339 11.283032207475886 a35.19860406941684,35.19860406941684 0 0,0 -0.4770082228989531,-0.37092447928466743 l 8.811788314193521 -11.133406676570425" fill="#ffa90f" stroke="none" /><path d="M 86.96720088162412 116.46651593811092 l -8.82759429083408 11.153377011715252 a35.224072543720546,35.224072543720546 0 0,0 -0.47091101102856736,-0.37933257644319435 l 9.017756072217908 -11.000196141478646" fill="#ffaa0f" stroke="none" /><path d="M 86.68645165197938 116.24036423190432 l -4.486308667971579 5.472567111339651 a28.076436691756193,28.076436691756193 0 0,0 -0.3701084895979464,-0.30875766538718147 l 4.579591491731417 -5.3947472620406" fill="#ff4706" stroke="none" /><path d="M 86.40962598614128 116.0094264158162 l -4.573763533339841 5.387881941709516 a28.067431264378087,28.067431264378087 0 0,0 -0.3646367237746536,-0.3149645173377997 l 4.665579736877357 -5.308573291906994" fill="#ff4706" stroke="none" /><path d="M 86.13680546590413 115.77377054828092 l -19.708537606327383 22.424697949652547 a50.85453956625645,50.85453956625645 0 0,0 -0.6507806345832262,-0.5819320563568489 l 20.09058326773398 -22.083070363412315" fill="#95ff23" stroke="none" /><path d="M 85.60350026404147 115.28858382429668 l -10.801088637806348 11.470381833182882 a36.755417327407145,36.755417327407145 0 0,0 -0.4556403058965167,-0.43649310604815944 l 10.996401429568179 -11.28327659682914" fill="#ffbe11" stroke="none" /><path d="M 85.34317274990678 115.03919595460226 l -4.943278759297622 5.072239486129396 a28.08262792307864,28.08262792307864 0 0,0 -0.3423514120139077,-0.33942534915181827 l 5.029622091441493 -4.9866341267489185" fill="#ff4706" stroke="none" /><path d="M 85.08716467003676 114.78537596483092 l -5.063595897164951 5.020317559809309 a28.13046925602484,28.13046925602484 0 0,0 -0.3370474930779628,-0.345840420161513 l 5.149030191393723 -4.932654447580059" fill="#ff4806" stroke="none" /><path d="M 84.83555147118756 114.52719865689866 l -5.162137737416213 4.945211180164917 a28.148620820583833,28.148620820583833 0 0,0 -0.3312746392465496,-0.351802186911741 l 5.246268210399015 -4.855867533308686" fill="#ff4806" stroke="none" /><path d="M 84.58840730492382 114.26474011684316 l -5.225718502229003 4.836847030215853 a28.120619569830033,28.120619569830033 0 0,0 -0.3248631886376949,-0.35708155196719965 l 5.307979391708578 -4.746427902690979" fill="#ff4806" stroke="none" /><path d="M 84.3458050057657 113.99807769240083 l -4.850447406595784 4.337299980320894 a27.5068434100909,27.5068434100909 0 0,0 -0.3117297331916731,-0.35469121293427447 l 4.924188203746049 -4.253396489575319" fill="#ff3f05" stroke="none" /><path d="M 83.8745106332314 113.45245675266167 l -11.118494844941742 9.275443842622638 a35.479460835771555,35.479460835771555 0 0,0 -0.3861401726530499,-0.47102822512289094 l 11.276081836833422 -9.08321333580125" fill="#ffad10" stroke="none" /><path d="M 83.64595745247003 113.17365903436017 l -12.21079684094593 9.836153578110853 a36.67971545350993,36.67971545350993 0 0,0 -0.3907849362602689,-0.4937440010281783 l 12.37784820784776 -9.625089633167994" fill="#ffbd11" stroke="none" /><path d="M 83.4222238831116 112.89097897827486 l -5.636140264250225 4.382696759370599 a28.139615393205727,28.139615393205727 0 0,0 -0.29325234222922447,-0.3838767295047012 l 5.710544583833745 -4.285299116625028" fill="#ff4806" stroke="none" /><path d="M 83.20337586046588 112.60449989151573 l -11.370443817594074 8.532593018380501 a35.21591137515914,35.21591137515914 0 0,0 -0.3586958248410168,-0.4866397759246416 l 11.515241662018921 -8.33614693318698" fill="#ffa90f" stroke="none" /><path d="M 82.98947788004972 112.3143062007846 l -5.72775848006965 4.146455427431904 a28.07108971925044,28.07108971925044 0 0,0 -0.2792203242934411,-0.39275835383792834 l 5.7980939028930525 -4.047519846884471" fill="#ff4706" stroke="none" /><path d="M 82.78059297857968 112.02048342749411 l -17.40201203903742 12.147955911611191 a42.222696714537776,42.222696714537776 0 0,0 -0.409781853797936,-0.5978839711702577 l 17.60798362965068 -11.847437205370882" fill="#fbff18" stroke="none" /><path d="M 82.576782715395 111.72311816256416 l -3.7775922870608296 2.5417326793218082 a25.55308779844996,25.55308779844996 0 0,0 -0.24175114550785612,-0.3660420466829701 l 3.8206678714894124 -2.476510754299777" fill="#ff2303" stroke="none" /><path d="M 82.37810715431573 111.42229804090323 l -5.976361465957 3.8738052978825395 a28.12202666785786,28.12202666785786 0 0,0 -0.25910069694549626,-0.407349331080194 l 6.041979854528386 -3.7706422921236737" fill="#ff4806" stroke="none" /><path d="M 82.18462484594161 111.11811171558189 l -12.124307218507143 7.566464414233275 a35.29161324905635,35.29161324905635 0 0,0 -0.3163339142629755,-0.5167076755319836 l 12.252409097225524 -7.357219622576735" fill="#ffaa0f" stroke="none" /><path d="M 81.99639281039703 110.81064883170644 l -6.096287670697358 3.660645585681888 a28.11091059343801,28.11091059343801 0 0,0 -0.24486783713006474,-0.41583912066932094 l 6.158229217957193 -3.5554552967190083" fill="#ff4806" stroke="none" /><line stroke="#e1ed5e" stroke-width="0.3" x1="26.387840678322732" x2="22.057713659400548" y1="142.50000000000003" y2="145.00000000000006" /><path d="M 25.521815274538298 143.00000000000003 a86.0,86.0 0 0,1 -11.493303480769221,-40.785679425670985" fill="none" id="id45" stroke="none" /><text fill="#e1ed5e" style="font-size:6.75px; font-family:Arial;" text-anchor="middle"><textPath startOffset="21.40746469413373" xlink:href="#id45">September</textPath></text><path d="M 81.81346652052679 110.50000000000001 l -6.194055547506018 3.5761396377280987 a28.15227927545619,28.15227927545619 0 0,0 -0.23804311894862598,-0.42059938233110417 l 6.254532031476023 -3.469283485297873" fill="#ff4806" stroke="none" /><path d="M 81.63589988554817 110.18625677009913 l -6.2090042555239044 3.4440299954383367 a28.100216648426507,28.100216648426507 0 0,0 -0.23036109394492185,-0.42383846674790654 l 6.267210699084155 -3.336936695215843" fill="#ff4706" stroke="none" /><path d="M 81.29705330413844 109.54985784667822 l -12.67546230875491 6.472181371094958 a35.23223371228195,35.23223371228195 0 0,0 -0.2704159279757129,-0.5410130004002103 l 12.78469814994236 -6.253636514530995" fill="#ffaa0f" stroke="none" /><path d="M 81.1358732173502 109.22738970284198 l -6.355693522962371 3.1088881899448535 a28.07531101333393,28.07531101333393 0 0,0 -0.208052415852442,-0.4347495305795272 l 6.408125196774725 -2.9993261573002212" fill="#ff4706" stroke="none" /><path d="M 80.9802524753101 108.90220220490708 l -6.489942438711946 3.0376207577215713 a28.16564670672057,28.16564670672057 0 0,0 -0.20120402682914826,-0.43966711016721743 l 6.54113093039615 -2.9257646653396647" fill="#ff4806" stroke="none" /><path d="M 80.5471966667186 107.91128576633889 l -2.6449173736779708 1.0756648701486313 a23.85528331807116,23.85528331807116 0 0,0 -0.1510168082553756,-0.3806610082841833 l 2.6629928568994705 -1.0301028446508826" fill="#ff0a01" stroke="none" /><path d="M 80.41425534168474 107.57618678355246 l -10.84304759552838 4.194323745142644 a32.62600674513658,32.62600674513658 0 0,0 -0.19757271274498184,-0.5240850936063977 l 10.913450992087798 -4.007570371342102" fill="#ff870c" stroke="none" /><path d="M 80.28708602549918 107.23885506374661 l -11.341540828761847 4.164770889030906 a33.082047215956045,33.082047215956045 0 0,0 -0.19118245832031747,-0.5347713619606159 l 11.411363457126107 -3.9694645706893685" fill="#ff8d0d" stroke="none" /><path d="M 80.16572619554312 106.89939002012753 l -6.7451504210444115 2.3463134550837736 a28.141585330444688,28.141585330444688 0 0,0 -0.15479825551102716,-0.45763353657092176 l 6.784434098127806 -2.23017824403869" fill="#ff4806" stroke="none" /><path d="M 80.05021161711548 106.5578916946017 l -13.193648380803733 4.337014281925814 a34.8881982444777,34.8881982444777 0 0,0 -0.18214178716918053,-0.5705565540889176 l 13.266154883750168 -4.109888694145504" fill="#ffa50f" stroke="none" /><path d="M 79.83685265289637 105.86919833188381 l -5.664037183436261 1.648718675535903 a26.89911777187144,26.89911777187144 0 0,0 -0.1252493475046279,-0.44446574861140453 l 5.6915050230154645 -1.5512450030215026" fill="#ff3605" stroke="none" /><path d="M 79.64726062577567 105.17358676015961 l -59.193592083785006 15.046779632956895 a82.07607486654902,82.07607486654902 0 0,0 -0.33538814276821166,-1.3684980739786519 l 59.44316775306951 -14.028425734370144" fill="#4be4ff" stroke="none" /><path d="M 79.407916724674 104.11899336999214 l -6.921180720011409 1.3844299829733033 a28.058285127197195,28.058285127197195 0 0,0 -0.09041943746484984,-0.47311270443354414 l 6.9439264497584166 -1.2654147135064446" fill="#ff4706" stroke="none" /><path d="M 79.34024301695615 103.76489593502545 l -6.9372818090026955 1.264203838616123 a28.051531056663613,28.051531056663613 0 0,0 -0.08226469808318503,-0.4744809175510135 l 6.957961324578116 -1.1449298881445167" fill="#ff4706" stroke="none" /><path d="M 79.2786578344484 103.40968896794605 l -6.994060417533981 1.1508699801530886 a28.088115605387173,28.088115605387173 0 0,0 -0.07420413059212966,-0.47644374885307506 l 7.012786040264379 -1.0306380493685634" fill="#ff4706" stroke="none" /><path d="M 79.17382384314188 102.69636545807758 l -11.628432885849582 1.5055334464100885 a32.725488575704105,32.725488575704105 0 0,0 -0.06734892106548661,-0.5577456803340742 l 11.65256389317473 -1.305694089152615" fill="#ff880c" stroke="none" /><path d="M 79.0935383218832 101.97986365728391 l -7.043515955848776 0.6670282841348073 a28.075029593728363,28.075029593728363 0 0,0 -0.04131892654266008,-0.48018855830345936 l 7.053928505089178 -0.546018678455686" fill="#ff4706" stroke="none" /><path d="M 79.01933749520258 100.90099992219065 l -3.583671287867436 0.15389826468954965 a24.58697429254238,24.58697429254238 0 0,0 -0.014489119174793352,-0.42183489575838334 l 3.5857850940390774 -0.09235710436704644" fill="#ff1502" stroke="none" /><path d="M 79.00696218219943 100.54070618675478 l -5.74763709114745 0.14803874319558627 a26.749543251513188,26.749543251513188 0 0,0 -0.007882922767449091,-0.459140731496531 l 5.7493314455135645 -0.049351095730002896" fill="#ff3404" stroke="none" /><line stroke="#e1ed5e" stroke-width="0.3" x1="15.003131293944662" x2="10.003315487706104" y1="100.72959589197737" y2="100.7725132973878" /><path d="M 14.003168132696942 100.73817937305945 a86.0,86.0 0 0,1 10.791469493833604,-42.45332614584628" fill="none" id="id46" stroke="none" /><text fill="#e1ed5e" style="font-size:6.75px; font-family:Arial;" text-anchor="middle"><textPath startOffset="22.145653131862435" xlink:href="#id46">October</textPath></text><path d="M 79.00077361379809 100.18025310272382 l -7.54655154667469 0.06477806877910418 a28.546829562459518,28.546829562459518 0 0,0 0.0,-0.4900623430058407 l 7.54655154667469 0.0647780687791014" fill="#ff4e07" stroke="none" /><path d="M 79.00696218219943 99.45929381324524 l -10.571117267661418 -0.2722744824804714 a31.574623098742546,31.574623098742546 0 0,0 0.01860694494301973,-0.5417209000583517 l 10.564885635721547 0.4537016471029617" fill="#ff780b" stroke="none" /><path d="M 79.03789590574601 98.7389718711861 l -3.277397562830205 -0.19716009888377226 a24.283322538136822,24.283322538136822 0 0,0 0.028603486159268336,-0.41588841115344743 l 3.2735301155058725 0.25339193419154465" fill="#ff1001" stroke="none" /><path d="M 79.13060592940154 97.66154086499901 l -7.017603520646266 -0.7863371118086223 a28.061521452661204,28.061521452661204 0 0,0 0.057750495883979944,-0.4782569506217183 l 7.003070938502618 0.9066877393537769" fill="#ff4706" stroke="none" /><path d="M 79.17382384314186 97.30363454192245 l -14.097404373643286 -1.825191236036185 a35.21506711634244,35.21506711634244 0 0,0 0.08276460295561347,-0.5988434378459637 l 14.063995254132465 2.0669229820822155" fill="#ffa90f" stroke="none" /><path d="M 79.22317932658666 96.9465228501225 l -6.9788177273683525 -1.0256458771359427 a28.05378241350814,28.05378241350814 0 0,0 0.07411342800853064,-0.4758613732007262 l 6.960182807221555 1.1452954322681188" fill="#ff4706" stroke="none" /><path d="M 79.2786578344484 96.59031103205396 l -14.01588936811094 -2.306309261851228 a35.204373171330936,35.204373171330936 0 0,0 0.1032413212775193,-0.5954685058152437 l 13.974233229341186 2.546570800587064" fill="#ffa90f" stroke="none" /><path d="M 79.34024301695615 96.23510406497455 l -7.068236603896668 -1.2880681645795409 a28.184642530096262,28.184642530096262 0 0,0 0.09082663146255039,-0.47524331549333515 l 7.045083680151959 1.4092140451061905" fill="#ff4906" stroke="none" /><path d="M 79.64726062577567 94.8264132398404 l -5.618016111901452 -1.4280777265642337 a26.79668103544547,26.79668103544547 0 0,0 0.11715319993211483,-0.44484978224096994 l 5.592673431164611 1.5243080131779883" fill="#ff3505" stroke="none" /><path d="M 79.73907114497095 94.47779374421319 l -6.862007749578756 -1.8702707261407563 a28.11231769146584,28.11231769146584 0 0,0 0.13089832453094927,-0.46451197522189447 l 6.828890932973224 1.9877906252656639" fill="#ff4806" stroke="none" /><path d="M 79.83685265289637 94.1308016681162 l -6.803626765591709 -1.9804365943448252 a28.08600495834543,28.08600495834543 0 0,0 0.13872303765123295,-0.46176387511815076 l 6.7686274079368465 2.0969380730536997" fill="#ff4706" stroke="none" /><path d="M 80.05021161711548 93.44210830539832 l -6.767323967604888 -2.2245538042854283 a28.123574475688475,28.123574475688475 0 0,0 0.1546991833065405,-0.45734064720232487 l 6.728139362725982 2.340396125961915" fill="#ff4806" stroke="none" /><path d="M 80.16572619554312 93.10060997987247 l -6.7191022379943135 -2.337252544865928 a28.114006209099234,28.114006209099234 0 0,0 0.16247195299618128,-0.45446296876566267 l 6.67799011495419 2.452250470012512" fill="#ff4806" stroke="none" /><path d="M 80.28708602549916 92.7611449362534 l -5.366907202634967 -1.9708026642182919 a26.7173207066759,26.7173207066759 0 0,0 0.1617915906942088,-0.42917141631369354 l 5.332284928126322 2.06264236072613" fill="#ff3404" stroke="none" /><path d="M 80.41425534168474 92.42381321644754 l -11.036617202463466 -4.269200627453899 a32.833553704241396,32.833553704241396 0 0,0 0.20785410166726356,-0.5239281165502139 l 10.96170442583007 4.458029761217696" fill="#ff890c" stroke="none" /><path d="M 80.5471966667186 92.08871423366112 l -5.295178804734261 -2.153503121909522 a26.71633573805642,26.71633573805642 0 0,0 0.1764221569311843,-0.4233489524037007 l 5.257430803266598 2.2440845837544865" fill="#ff3404" stroke="none" /><path d="M 80.68587082218212 91.75594674310238 l -4.157285098440278 -1.774497801071487 a25.520161704598756,25.520161704598756 0 0,0 0.17544031788532957,-0.4014417807848733 l 4.126210898537971 1.8456016516322271" fill="#ff2203" stroke="none" /><path d="M 80.83023694016515 91.42560881287825 l -7.711791063918599 -3.4493860528684848 a29.448075849284166,29.448075849284166 0 0,0 0.21036518369140655,-0.45968589123682846 l 7.651441415372146 3.5812609263199846" fill="#ff5b08" stroke="none" /><path d="M 80.9802524753101 91.09779779509293 l -2.7130954261706175 -1.2698656516668532 a23.99557099144574,23.99557099144574 0 0,0 0.1778194553983126,-0.37157427105846735 l 2.6908967128123997 1.3162524247904077" fill="#ff0c01" stroke="none" /><path d="M 81.29705330413844 90.45014215332179 l -3.4141764888351367 -1.7433028421698422 a24.833497867018067,24.833497867018067 0 0,0 0.1971211292171406,-0.37800575666900216 l 3.383747290643056 1.801654841943331" fill="#ff1802" stroke="none" /><path d="M 81.46374523516351 90.13048839642627 l -55.12363300258275 -29.350229722898888 a83.45038751032989,83.45038751032989 0 0,0 0.684112966014493,-1.2586908042174745 l 54.6116746869529 30.29217536059098" fill="#4cd7ff" stroke="none" /><line stroke="#e1ed5e" stroke-width="0.3" x1="26.387840678322718" x2="22.05771365940052" y1="57.49999999999999" y2="54.99999999999999" /><path d="M 25.521815274538284 56.99999999999999 a86.0,86.0 0 0,1 29.574782752854787,-30.34633250058573" fill="none" id="id47" stroke="none" /><text fill="#e1ed5e" style="font-size:6.75px; font-family:Arial;" text-anchor="middle"><textPath startOffset="21.40746469413373" xlink:href="#id47">November</textPath></text><path d="M 82.78059297857968 87.97951657250589 l -12.119888843042213 -8.460623690445935 a35.78086123333259,35.78086123333259 0 0,0 0.3559086511065434,-0.5006300894428378 l 11.972865093405698 8.667431006598294" fill="#ffb110" stroke="none" /><path d="M 82.98947788004972 87.6856937992154 l -5.783038022839909 -4.1864735533607895 a28.13933397360016,28.13933397360016 0 0,0 0.28661650986711956,-0.3888503419292901 l 5.710319493388971 4.285130204558944" fill="#ff4806" stroke="none" /><path d="M 83.2033758604659 87.39550010848427 l -13.652073111012704 -10.24477017627052 a38.06852120697742,38.06852120697742 0 0,0 0.3967247900567928,-0.5193254852211867 l 13.474196343601605 10.477616574732592" fill="#ffcf13" stroke="none" /><path d="M 83.64595745247003 86.82634096563983 l -4.548215821886713 -3.663720714806826 a26.84030107430818,26.84030107430818 0 0,0 0.2921160087202835,-0.3563340332401243 l 4.4846529939278 3.741257029745443" fill="#ff3505" stroke="none" /><path d="M 83.8745106332314 86.54754324733833 l -8.203243497445822 -6.843437484034439 a31.6829696468854,31.6829696468854 0 0,0 0.3519909077551162,-0.41464440426697846 l 8.084558026183592 6.9832486707509736" fill="#ff7a0b" stroke="none" /><path d="M 84.34580500576568 86.00192230759919 l -6.046617685877374 -5.406922820006455 a29.111498001027407,29.111498001027407 0 0,0 0.3363103022374607,-0.3696639350524937 l 5.952909682798047 5.509924330616607" fill="#ff5607" stroke="none" /><path d="M 84.58840730492382 85.73525988315684 l -11.252565828493022 -10.415206939799646 a36.33286578965001,36.33286578965001 0 0,0 0.4275931344549995,-0.45408909100874084 l 11.072116860301751 10.606837490752897" fill="#ffb811" stroke="none" /><path d="M 84.83555147118756 85.47280134310135 l -10.225410030802319 -9.7957115013758 a35.16033100305988,35.16033100305988 0 0,0 0.42127635029888144,-0.4322666478275009 l 10.055746879352636 9.96980084127103" fill="#ffa90f" stroke="none" /><path d="M 85.08716467003674 85.21462403516908 l -4.999645204038448 -4.956913450519164 a28.040414982243764,28.040414982243764 0 0,0 0.3418367999220412,-0.33891513542746976 l 4.91381648398643 5.042008596175307" fill="#ff4706" stroke="none" /><path d="M 85.34317274990677 84.96080404539775 l -4.933458000860563 -5.062162522811363 a28.06855694280035,28.06855694280035 0 0,0 0.34795322163178466,-0.333331315302944 l 4.845832293363478 5.146105968419875" fill="#ff4706" stroke="none" /><path d="M 85.86807049272753 84.46653392183569 l -8.165353306263512 -8.975153642947301 a33.13368771357738,33.13368771357738 0 0,0 0.42400860375953936,-0.37915110804857527 l 8.010079675680581 9.114000280879278" fill="#ff8d0d" stroke="none" /><path d="M 86.40962598614128 83.9905735841838 l -4.5679355749482635 -5.381016621378431 a28.05842583699998,28.05842583699998 0 0,0 0.3698710673664864,-0.3085595993174859 l 4.474890173419868 5.4586384046077985" fill="#ff4706" stroke="none" /><path d="M 86.68645165197937 83.75963576809568 l -9.080379378274987 -11.07658639246113 a35.32285082527416,35.32285082527416 0 0,0 0.4722315789548714,-0.3803963324865237 l 8.88889702896487 11.230831018741052" fill="#ffab0f" stroke="none" /><path d="M 86.96720088162412 83.53348406188908 l -8.90348044387633 -11.249256687079102 a35.34634936233891,35.34634936233891 0 0,0 0.4790104534271436,-0.3724814258537732 l 8.70906004581394 11.40043916455368" fill="#ffab0f" stroke="none" /><path d="M 87.25179093698888 83.31218511350988 l -4.286664665879995 -5.6113816514213015 a28.061380742858418,28.061380742858418 0 0,0 0.38530548877336174,-0.28914042197404466 l 4.18970618819588 5.684141100659347" fill="#ff4706" stroke="none" /><path d="M 88.12776184653039 82.6780497279521 l -6.65813719631764 -9.714421150268235 a32.77712907332544,32.77712907332544 0 0,0 0.46684576054074894,-0.3141146623561399 l 6.490395147679902 9.827285486681484" fill="#ff890c" stroke="none" /><path d="M 88.4268655584334 82.4767994020092 l -8.803962248817685 -13.330320953420742 a36.97520603935408,36.97520603935408 0 0,0 0.5326443370076854,-0.3452536240220696 l 8.573832279552972 13.479488419146717" fill="#ffc111" stroke="none" /><path d="M 88.72937992617638 82.28071324371311 l -4.748144863120093 -7.464872370724199 a29.846988140173764,29.846988140173764 0 0,0 0.43467998194540847,-0.2712724575263995 l 4.619300752384985 7.5452806250921345" fill="#ff6008" stroke="none" /><path d="M 89.03521579738668 82.08984904055464 l -3.731205395085789 -6.09464360190109 a28.14608804413374,28.14608804413374 0 0,0 0.41423970692819867,-0.24873904193687893 l 3.626032931600156 6.157796644373893" fill="#ff4806" stroke="none" /><line stroke="#e1ed5e" stroke-width="0.3" x1="56.869717070023135" x2="54.33264160355391" y1="26.7553504044142" y2="22.446841604673864" /><path d="M 56.362301976729285 25.89364864446614 a86.0,86.0 0 0,1 42.16139366436587,-11.88097634709845" fill="none" id="id48" stroke="none" /><text fill="#e1ed5e" style="font-size:6.75px; font-family:Arial;" text-anchor="middle"><textPath startOffset="22.145653131862474" xlink:href="#id48">December</textPath></text><path d="M 89.34428304082924 81.90426304109057 l -7.208869905187908 -12.242237108504295 a35.20704665758382,35.20704665758382 0 0,0 0.5234240548041907,-0.30219901894152335 l 6.997653382523318 12.364183024721992" fill="#ffa90f" stroke="none" /><path d="M 89.65649057296885 81.72400993836675 l -3.484514931741309 -6.156804004614848 a28.074466754517232,28.074466754517232 0 0,0 0.42145899089427796,-0.23377619772054736 l 3.3783117526909283 6.215713117768542" fill="#ff4706" stroke="none" /><path d="M 90.28995756902619 81.37971332152246 l -3.6682503001858366 -7.034353627538306 a28.93335939070422,28.93335939070422 0 0,0 0.44236733736822936,-0.22587591445229027 l 3.546955741104025 7.09628749366343" fill="#ff5307" stroke="none" /><path d="M 90.61103034731259 81.2157712731953 l -3.1886805607136917 -6.379497133854041 a28.13201706385545,28.13201706385545 0 0,0 0.433822161605458,-0.21220415834697726 l 3.0786981498461805 6.433295042298233" fill="#ff4806" stroke="none" /><path d="M 90.93487009805054 81.0573650232925 l -3.039641942799834 -6.35168259088763 a28.041540660666026,28.041540660666026 0 0,0 0.43599426219705045,-0.20406732934908717 l 2.930158966731261 6.40292615180726" fill="#ff4706" stroke="none" /><path d="M 91.26138138417902 80.90454125486306 l -2.9466123102488653 -6.438879676748966 a28.081080115248028,28.081080115248028 0 0,0 0.4400527190126534,-0.19682998396974427 l 2.835646188380593 6.488513411628556" fill="#ff4706" stroke="none" /><path d="M 91.92203290615298 80.6158196554323 l -2.71258614929916 -6.509219276003538 a28.05181247626918,28.05181247626918 0 0,0 0.44608464914154405,-0.18141874334882768 l 2.600447038967175 6.554825275931657" fill="#ff4706" stroke="none" /><path d="M 92.25597844496254 80.48000691201159 l -2.14761558176655 -5.413394192384375 a26.823838027382575,26.823838027382575 0 0,0 0.4294723033898511,-0.16612911306706946 l 2.0543710158831696 5.4494631935894855" fill="#ff3505" stroke="none" /><path d="M 93.27111125876988 80.10723608172694 l -4.5600233068988505 -13.480898643804652 a35.231248743662476,35.231248743662476 0 0,0 0.5745667437609658,-0.1888715010198791 l 4.327933825490123 13.557191066226558" fill="#ffaa0f" stroke="none" /><path d="M 93.61358852112211 79.99465700312896 l -4.315267411818392 -13.517513705805717 a35.189598642038725,35.189598642038725 0 0,0 0.5770413294225852,-0.17876887889749749 l 4.08258544952419 13.589599172509857" fill="#ffa90f" stroke="none" /><path d="M 93.95794788825049 79.88797359093562 l -2.5859518815223437 -8.607792778319439 a29.987838652759475,29.987838652759475 0 0,0 0.4942852428556197,-0.1438792304049582 l 2.4378066262851 8.650915703026918" fill="#ff6209" stroke="none" /><path d="M 94.30408787586887 79.78721728523814 l -1.943680874574522 -6.897437728747632 a28.166068836128918,28.166068836128918 0 0,0 0.4665086954171331,-0.12714901940796033 l 1.8249907782227113 6.929787242299732" fill="#ff4806" stroke="none" /><path d="M 96.41257539226777 79.30868818359171 l -2.7073345558855597 -15.615186272186799 a36.84814508744109,36.84814508744109 0 0,0 0.624176865636533,-0.10270806571333843 l 2.438880187195954 15.659360336395807" fill="#ffbf11" stroke="none" /><path d="M 96.76829788921471 79.25015418208739 l -1.0986978763929285 -7.054428519119125 a28.139474683402945,28.139474683402945 0 0,0 0.4779354362360938,-0.07024005051605654 l 0.9774373345491498 7.072249642934066" fill="#ff4806" stroke="none" /><path d="M 97.84075906011542 79.11130261209362 l -1.575397583609039 -15.240542535937307 a36.32174971523016,36.32174971523016 0 0,0 0.6207567538769663,-0.058786309990512715 l 1.3135412663470574 15.265340601433003" fill="#ffb811" stroke="none" /><path d="M 98.1996594967304 79.07731436759882 l -1.2164934517123183 -14.137497888775814 a35.18973935184151,35.18973935184151 0 0,0 0.6022992089919281,-0.046621767982393536 l 0.9736252479451729 14.15629742375326" fill="#ffa90f" stroke="none" /><path d="M 98.5590905019552 79.04949213459386 l -0.4844665157732819 -7.044036813558715 a28.060677193844505,28.060677193844505 0 0,0 0.48084729386629294,-0.028926579149830815 l 0.3634748697745052 7.051315370533239" fill="#ff4706" stroke="none" /><path d="M 98.9189461498227 79.02784411241856 l -0.36349660047079896 -7.051736940235936 a28.061099323252854,28.061099323252854 0 0,0 0.4812802431170209,-0.02066824446087815 l 0.242390596752958 7.056937753122643" fill="#ff4706" stroke="none" /></svg>