<?xml version="1.0" encoding="utf-8" ?>
<svg baseProfile="full" height="200mm" version="1.1" viewBox="0,0,200,200" width="200mm" xmlns="http://www.w3.org/2000/svg" xmlns:ev="http://www.w3.org/2001/xml-events" xmlns:xlink="http://www.w3.org/1999/xlink"><defs /><rect fill="#1a1a1a" height="200" width="200" x="0" y="0" /><text alignment-baseline="middle" fill="#e1ed5e" style="dominant-baseline: central; font-size:9.0px; font-family:Arial;" text-anchor="middle" x="100.0" y="100.0">2019</text><line stroke="#e1ed5e" stroke-width="0.3" x1="100.0" x2="100.0" y1="15.0" y2="10.0" /><path d="M 100.0 14.0 a86.0,86.0 0 0,1 42.46469731375804,11.215312516191453" fill="none" id="id73" stroke="none" /><text fill="#e1ed5e" style="font-size:6.75px; font-family:Arial;" text-anchor="middle"><textPath startOffset="22.20632615414155" xlink:href="#id73">January</textPath></text><path d="M 100.0 79.0 l 0.0 -4.53236173457519 a25.53236173457519,25.53236173457519 0 0,0 0.43949763603684777,0.0037828949077247996 l -0.07801715676431942 4.531690216276024" fill="#ff3404" stroke="none" /><path d="M 100.36148047927253 79.00311137660856 l 0.07807633263523585 -4.535127495028462 a25.53579952267303,25.53579952267303 0 0,0 0.43942656173798295,0.011349091655054325 l -0.1561295295680866 4.533111611231048" fill="#ff3405" stroke="none" /><path d="M 100.72285384407766 79.0124445844662 l 0.1561170733357976 -4.532749953245031 a25.53543765024168,25.53543765024168 0 0,0 0.4391598764921623,0.018911148079092 l -0.23411778221729146 4.529391078641744" fill="#ff3405" stroke="none" /><path d="M 101.08401301168833 79.027996857942 l 0.3383273509679919 -6.545495479333716 a27.554233476646306,27.554233476646306 0 0,0 0.4734577692146681,0.028560265596112737 l -0.45094716902227194 6.5387019443573" fill="#ff5007" stroke="none" /><path d="M 101.44485096284872 79.0497635885617 l 0.8712328186843997 -12.632814034227184 a33.6628210540827,33.6628210540827 0 0,0 0.5777338553157781,0.04484326633259999 l -1.088556863362519 12.615945505706119" fill="#ffa30f" stroke="none" /><path d="M 101.80526077348638 79.07773832637324 l 0.07777072682449941 -0.9013321072877124 a21.904681078379845,21.904681078379845 0 0,0 0.37537830091479424,0.035646692782014766 l -0.09327415482953785 0.8998598699905194" fill="#ff0000" stroke="none" /><path d="M 102.16513564639614 79.11191278185805 l 1.0278905136369911 -9.91654575328253 a30.969675951853738,30.969675951853738 0 0,0 0.5297780373057145,0.05952673529147805 l -1.1984352544524308 9.897383064520453" fill="#ff7f0b" stroke="none" /><path d="M 102.52436894288641 79.15227682838746 l 1.0904465603687776 -9.00554892662072 a30.07132764102255,30.07132764102255 0 0,0 0.5133394311200705,0.06664619109970643 l -1.2453007199966943 8.985444412356879" fill="#ff730a" stroke="none" /><path d="M 102.88285421437855 79.19881850522331 l 1.2449033007723933 -8.98257684126259 a30.068432661571734,30.068432661571734 0 0,0 0.5120668680795336,0.07546534542377654 l -1.3993391492805827 8.959817011677844" fill="#ff730a" stroke="none" /><path d="M 103.2404852339499 79.25152402106235 l 0.6992856738970155 -4.477450430959671 a25.53172845782032,25.53172845782032 0 0,0 0.43363913608083077,0.0715541730168314 l -0.7762540161167214 4.464749995003215" fill="#ff3404" stroke="none" /><path d="M 103.59715602781102 79.31037775812273 l 0.9322889456120359 -5.362210022546287 a26.44265183564099,26.44265183564099 0 0,0 0.4477683811300605,0.08182680958805429 l -1.0244524478449972 5.345367731607493" fill="#ff4106" stroke="none" /><path d="M 103.95276090670814 79.375362276772 l 0.17028514284087634 -0.8885104522211212 a21.904681078379845,21.904681078379845 0 0,0 0.36970260781369946,0.07415886514586843 l -0.18555416012170117 0.8854476309980446" fill="#ff0000" stroke="none" /><path d="M 104.307194497241 79.44645832069477 l 1.489257689136775 -7.106602686390312 a28.260970335076642,28.260970335076642 0 0,0 0.4752651093482679,0.10387454478956853 l -1.611365522638571 7.079914643504873" fill="#ff5a08" stroke="none" /><path d="M 105.01212808612495 79.60689891045804 l 3.028424324373207 -12.32190445410556 a33.68860446481652,33.68860446481652 0 0,0 0.5619437474586289,0.14325197342667698 l -3.240076960516861 12.267949484510016" fill="#ffa30f" stroke="none" /><path d="M 105.36241919743992 79.69619591428918 l 2.3157465669893527 -8.768144167236372 a30.068794534003082,30.068794534003082 0 0,0 0.49928819630978194,0.1364743247723461 l -2.466332652522845 8.726983301637732" fill="#ff730a" stroke="none" /><path d="M 105.71112130821622 79.79150937346287 l 2.466652498541847 -8.728115059295837 a30.069970619404977,30.069970619404977 0 0,0 0.4968844741763173,0.14505420348148632 l -2.616527190441592 8.684362526895645" fill="#ff730a" stroke="none" /><path d="M 106.40334571778207 80.00007090966166 l 4.772289212886883 -14.905558759895246 a36.65089218786349,36.65089218786349 0 0,0 0.5991848032492725,0.19754180901526297 l -5.028156838378573 14.821203226620748" fill="#ffc912" stroke="none" /><path d="M 107.08798089147638 80.2323363322302 l 3.0634907718185427 -8.54376671633656 a30.07639385506148,30.07639385506148 0 0,0 0.4858306844124728,0.17893554116291988 l -3.210103782003592 8.489767907367316" fill="#ff730a" stroke="none" /><path d="M 107.76421540070413 80.48803036053334 l 5.356006150469797 -13.459985845741185 a35.48647717188079,35.48647717188079 0 0,0 0.5656141105196173,0.23072819740548792 l -5.586904130577802 13.365796762152117" fill="#ffba11" stroke="none" /><path d="M 108.09893153111575 80.62456947434976 l 1.7455586384193116 -4.175976793630537 a25.52611943513437,25.52611943513437 0 0,0 0.4039401947085454,0.1729461105956713 l -1.8171825909181722 4.145311155072075" fill="#ff3404" stroke="none" /><path d="M 108.43124777332544 80.76684994638697 l 1.8199430521796105 -4.151608249770964 a25.532995011330055,25.532995011330055 0 0,0 0.40101134875405464,0.17992210298569894 l -1.8911365194004455 4.119665816268734" fill="#ff3404" stroke="none" /><path d="M 108.76106565485865 80.91482961587045 l 5.308965894142527 -11.565090668742119 a33.725424984706585,33.725424984706585 0 0,0 0.5255092327703293,0.24673363109517502 l -5.507253338212454 11.471992055006941" fill="#ffa30f" stroke="none" /><path d="M 109.08828744355905 81.06846463323043 l 0.39152388976500047 -0.8155715157616792 a21.904681078379845,21.904681078379845 0 0,0 0.3385094474717704,0.1661051157440083 l -0.4055046042472027 0.8087112398828389" fill="#ff0000" stroke="none" /><path d="M 109.41281617654863 81.2277094730956 l 8.560932103946099 -17.073349954158527 a40.09944599053962,40.09944599053962 0 0,0 0.6143607714741547,0.3146994490508862 l -8.85355336300901 16.923457979795142" fill="#fff417" stroke="none" /><path d="M 109.73455568895987 81.39251694778311 l 2.4101754415959515 -4.607020609397526 a26.19938309366465,26.19938309366465 0 0,0 0.3978001465389235,0.21249106158958936 l -2.489120634663186 4.564850821306182" fill="#ff3d05" stroke="none" /><path d="M 110.05341064243156 81.56283822128135 l 4.769616302435145 -8.747099916446022 a30.962981311873726,30.962981311873726 0 0,0 0.4657361869968413,0.2591816838218715 l -4.91947657850402 8.66370283506397" fill="#ff7f0b" stroke="none" /><path d="M 110.36928655335952 81.73862282372117 l 2.685795579703212 -4.7299614922352005 a26.43930451565098,26.43930451565098 0 0,0 0.39382384970665846,0.228128193320688 l -2.7668161618751985 4.683029141524463" fill="#ff4106" stroke="none" /><line stroke="#e1ed5e" stroke-width="0.3" x1="143.23703022742887" x2="145.7803849466894" y1="26.81831364943548" y2="22.513508569990506" /><path d="M 143.74570117128098 25.957352633546492 a86.0,86.0 0 0,1 28.547481713284135,27.462654790039103" fill="none" id="id74" stroke="none" /><text fill="#e1ed5e" style="font-size:6.75px; font-family:Arial;" text-anchor="middle"><textPath startOffset="19.985693538727396" xlink:href="#id74">February</textPath></text><path d="M 110.68208982089419 81.91981866633111 l 0.9203699560492308 -1.5577902805949244 a22.80936215675969,22.80936215675969 0 0,0 0.3363163699577467,0.20262684982999465 l -0.947048392224615 1.541716821306315" fill="#ff0d01" stroke="none" /><path d="M 110.99172775467656 82.1063720568725 l 0.4735241961123075 -0.7708584106531575 a21.904681078379845,21.904681078379845 0 0,0 0.3195797502766316,0.2001208103049241 l -0.48672309876120234 0.7625932590252893" fill="#ff0000" stroke="none" /><path d="M 111.2981086023043 82.29822771554956 l 3.8998688288241374 -6.1102784879401355 a28.248757140518514,28.248757140518514 0 0,0 0.4076335663899466,0.26513621064535303 l -4.004469420998364 6.042243353135254" fill="#ff5a08" stroke="none" /><path d="M 111.60114157652 82.49532879139004 l 4.013165554280781 -6.05536473027654 a28.264498591282322,28.264498591282322 0 0,0 0.4032338615667188,0.27226530332702065 l -4.116804110254042 5.985387514650849" fill="#ff5a08" stroke="none" /><path d="M 111.90073688211348 82.69761687909136 l 4.111984877307631 -5.978380871649352 a28.25599458914555,28.25599458914555 0 0,0 0.3983676246637547,0.27908197907471477 l -4.214283641555036 5.906714049810701" fill="#ff5a08" stroke="none" /><path d="M 112.19680574252982 82.90503203632743 l 2.763021074635891 -3.8726333558917254 a25.75726545066042,25.75726545066042 0 0,0 0.3587063294744943,0.26061540342792144 l -2.829272720464174 3.8244987176471295" fill="#ff3705" stroke="none" /><path d="M 112.48926042617603 83.11751280151076 l 8.622273852719703 -11.655248026962495 a35.497876153468376,35.497876153468376 0 0,0 0.48810229870107485,0.36762853195977885 l -8.82162230517916 11.50510290549687" fill="#ffba11" stroke="none" /><path d="M 112.77801427241765 83.33499621200491 l 8.818264392361908 -11.500723537261223 a35.49235759889026,35.49235759889026 0 0,0 0.4816269741106445,0.375917492733834 l -9.014923921631983 11.347227655304163" fill="#ffba11" stroke="none" /><path d="M 113.34407831869373 83.78471172551755 l 4.613625141281391 -5.606326631901915 a28.26060846264529,28.26060846264529 0 0,0 0.3729626017319775,0.31234545312030504 l -4.709445279972486 5.5260800213877905" fill="#ff5a08" stroke="none" /><path d="M 113.6212207817346 84.01681056812373 l 2.9400585235055505 -3.4498752406249067 a25.53272360700654,25.53272360700654 0 0,0 0.3320545311672212,0.287954417308529 l -2.999006853319536 3.3987558298967064" fill="#ff3404" stroke="none" /><path d="M 113.89432698308785 84.25364557470407 l 6.002323398542528 -6.802395806845533 a30.071960917777414,30.071960917777414 0 0,0 0.3851917651583301,0.3458289699949616 l -6.118526151296848 6.698067828081274" fill="#ff730a" stroke="none" /><path d="M 114.16331599549186 84.49514656593476 l 3.7746714316582723 -4.132205150844851 a26.596719023289076,26.596719023289076 0 0,0 0.3353619768709795,0.3116824084329909 l -3.8452412923240984 4.06661815633722" fill="#ff4306" stroke="none" /><path d="M 114.42810811169701 84.74124197986012 l 3.116582239079639 -3.2960090032475216 a25.536161395104386,25.536161395104386 0 0,0 0.31679037796392284,0.30475209260860625 l -3.17285586065598 3.2418738238766136" fill="#ff3405" stroke="none" /><path d="M 114.68862486808459 84.99185889309783 l 3.1727925819846168 -3.2418091687276527 a25.536070926996544,25.536070926996544 0 0,0 0.3114965321849794,0.3101588670825052 l -3.228124914336919 3.1867144509950287" fill="#ff3405" stroke="none" /><path d="M 114.94478906791727 85.2469230424477 l 9.66473816345606 -9.540758671940946 a34.580620008099054,34.580620008099054 0 0,0 0.4145322780638959,0.42721195096080905 l -9.827534705223064 9.372982525430022" fill="#ffaf10" stroke="none" /><path d="M 115.4437574822437 85.77008943001954 l 7.527605924426814 -6.935951903790614 a31.235833125113086,31.235833125113086 0 0,0 0.3609320737364276,0.39855021062797824 l -7.645881638779277 6.805348905893087" fill="#ff830c" stroke="none" /><path d="M 115.68641384162765 86.03803664274999 l 0.7808539842155011 -0.6950125646977234 a22.04535898606791,22.04535898606791 0 0,0 0.24985594328720767,0.2856285351443159 l -0.7927017910805569 0.6814684733504598" fill="#ff0200" stroke="none" /><path d="M 115.9244219780498 86.31012108654704 l 9.623694734432094 -8.273280863569827 a33.69104710372815,33.69104710372815 0 0,0 0.3742744623716846,0.44302291120565424 l -9.764679810290897 8.106399002735065" fill="#ffa30f" stroke="none" /><path d="M 116.38621287248628 86.86637796730983 l 3.535877138148961 -2.834021152285475 a25.53145705349681,25.53145705349681 0 0,0 0.27190505650023883,0.3452918093644972 l -3.5841362752431634 2.772736948967939" fill="#ff3404" stroke="none" /><path d="M 116.60985879189232 87.15038557335679 l 7.367267998218388 -5.699419503858931 a30.31450591489105,30.31450591489105 0 0,0 0.31573865732405215,0.4154750625690524 l -7.464282595766553 5.5717596654088455" fill="#ff760a" stroke="none" /><path d="M 116.82858285166822 87.43820079747576 l 4.360586928487717 -3.2549869399956424 a26.441475750239096,26.441475750239096 0 0,0 0.2691205689590669,0.3670801536163888 l -4.41597010996041 3.17944434270776" fill="#ff4106" stroke="none" /><path d="M 117.04232023915458 87.72973835380427 l 5.883750824835857 -4.236228463533282 a28.250114162136082,28.250114162136082 0 0,0 0.2807353483208288,0.3970802411078133 l -5.95579879296057 4.134321722093675" fill="#ff5a08" stroke="none" /><path d="M 117.2510076193507 88.02491185347247 l 6.759170204888493 -4.6919960147793836 a29.228074407864696,29.228074407864696 0 0,0 0.2833390888121464,0.4157651506246184 l -6.838933759369373 4.574952840884358" fill="#ff6709" stroke="none" /><path d="M 117.45458315368197 88.32363383020206 l 3.7665643863724174 -2.519669738897619 a25.531637989712486,25.531637989712486 0 0,0 0.24121728009439922,0.3673904665501184 l -3.8093783018247414 2.454461208369827" fill="#ff3404" stroke="none" /><path d="M 117.65298651832404 88.62581576622439 l 5.452344280396174 -3.513058160828785 a27.486110991444303,27.486110991444303 0 0,0 0.2528361014317978,0.39992599374401044 l -5.512007978073927 3.418684519370568" fill="#ff4f07" stroke="none" /><line stroke="#e1ed5e" stroke-width="0.3" x1="172.23445277983987" x2="176.4835382374775" y1="55.19839476539836" y2="52.563006222186495" /><path d="M 173.08426987136738 54.67131705675599 a86.0,86.0 0 0,1 12.851231095245387,41.99856678651699" fill="none" id="id75" stroke="none" /><text fill="#e1ed5e" style="font-size:6.75px; font-family:Arial;" text-anchor="middle"><textPath startOffset="22.20632615414155" xlink:href="#id75">March</textPath></text><path d="M 117.84615892207809 88.93136811851018 l 3.853677381978598 -2.3901466145958534 a25.534713905378975,25.534713905378975 0 0,0 0.2284556827667517,0.37552107409134716 l -3.8942488630315735 2.323457767297425" fill="#ff3405" stroke="none" /><path d="M 118.21658344932153 89.55222093294921 l 0.9417256205330663 -0.5401090304602225 a22.085617294055815,22.085617294055815 0 0,0 0.18629992099912765,0.3314067715536325 l -0.950883182824627 0.5238187489717961" fill="#ff0300" stroke="none" /><path d="M 118.3937258080291 89.86733742301442 l 3.971997535188936 -2.1880782175800197 a25.534804373486814,25.534804373486814 0 0,0 0.20876757614136232,0.38681461229007896 l -4.009073210548763 2.1193826219574823" fill="#ff3405" stroke="none" /><path d="M 118.56541770881063 90.18545643968196 l 4.0102729092711495 -2.120016838518337 a25.536161395104386,25.536161395104386 0 0,0 0.20208900653176914,0.390371636980516 l -4.046171348963035 2.0506724792774764" fill="#ff3405" stroke="none" /><path d="M 118.73160827565052 90.50648371742162 l 11.319289629053936 -5.736819755105216 a33.69005195454193,33.69005195454193 0 0,0 0.257712833789363,0.519533347069077 l -11.416362475796706 5.541126819537189" fill="#ffa30f" stroke="none" /><path d="M 118.89224826269711 90.83032412892265 l 8.151649541607647 -3.956542549715948 a30.061104744836854,30.061104744836854 0 0,0 0.2219394273691266,0.4674610356500292 l -8.218547162818531 3.8156390984253785" fill="#ff730a" stroke="none" /><path d="M 119.04729006885535 91.15688171328212 l 4.112966093463488 -1.9095338781672326 a25.534623437271136,25.534623437271136 0 0,0 0.18165778946389166,0.4002588594312045 l -4.145226199890727 1.8384530098939653" fill="#ff3405" stroke="none" /><path d="M 119.196687751892 91.48605970444005 l 4.972303193448846 -2.2052706731281355 a26.43939498375882,26.43939498375882 0 0,0 0.18093269930023656,0.4176176158440707 l -5.009526602591763 2.1193539126974623" fill="#ff4106" stroke="none" /><path d="M 119.47837535516314 92.15188598940014 l 9.243681760656111 -3.724410635515446 a30.965785823216702,30.965785823216702 0 0,0 0.1949465056576689,0.4961175930669177 l -9.30642181619548 3.5647440375527437" fill="#ff7f0b" stroke="none" /><path d="M 119.61058180528143 92.48833698450437 l 11.853653285358956 -4.5404389255885915 a33.69348974263978,33.69348974263978 0 0,0 0.2027953571827249,0.5433907337415037 l -11.930053231043305 4.335725054817754" fill="#ffa30f" stroke="none" /><path d="M 119.7369772167798 92.82701384747503 l 4.258832336033308 -1.547782369952831 a25.531366585388973,25.531366585388973 0 0,0 0.14655845640876253,0.4143404920415611 l -4.284843873251879 1.4742442514846554" fill="#ff3404" stroke="none" /><path d="M 119.85752413597 93.16781622104841 l 9.2161612561301 -3.1709143097188206 a30.74640066170959,30.74640066170959 0 0,0 0.16787930984043148,0.50193776834101 l -9.2693778597423 3.0118034384554964" fill="#ff7c0b" stroke="none" /><path d="M 119.97218684219823 93.5106431181261 l 4.31689914285178 -1.402645558163494 a25.5390563745552,25.5390563745552 0 0,0 0.1322491585936912,0.4192659730835336 l -4.3404037852136765 1.3281294186535413" fill="#ff3405" stroke="none" /><path d="M 120.08093135843002 93.85539295169968 l 12.235884874024029 -3.7440845296030836 a33.79589964071238,33.79589964071238 0 0,0 0.1654294849938082,0.5577459839968771 l -12.298520256129539 3.5329091588596766" fill="#ffa40f" stroke="none" /><path d="M 120.18372546131832 94.20196356495316 l 5.227529767171526 -1.501675600643687 a26.438942643219633,26.438942643219633 0 0,0 0.1218875914333709,0.4384945177232408 l -5.25260412917126 1.4114697795014943" fill="#ff4106" stroke="none" /><path d="M 120.28053869075195 94.5502522615342 l 7.000501637624358 -1.881161469599746 a28.248847608626352,28.248847608626352 0 0,0 0.12214757063333814,0.47068441678019857 l -7.031845540127998 1.7603806272706972" fill="#ff5a08" stroke="none" /><path d="M 120.37134235888165 94.90015583598534 l 4.393696764676986 -1.0999358024150392 a25.529285818908697,25.529285818908697 0 0,0 0.10304981286714587,0.4272080029501242 l -4.411979377804951 1.024142567805509" fill="#ff3404" stroke="none" /><path d="M 120.45610955862082 95.25157060432595 l 4.416033128956037 -1.0250835556836486 a25.533447351869246,25.533447351869246 0 0,0 0.09569645837047948,0.42898845868505403 l -4.433023974328553 0.9489169274486308" fill="#ff3404" stroke="none" /><path d="M 120.53481517161879 95.60439243477599 l 5.31952261228721 -1.1386775893784005 a26.440028260513685,26.440028260513685 0 0,0 0.09143302230028016,0.4458598885131075 l -5.338334930502487 1.0469420447018811" fill="#ff4106" stroke="none" /><path d="M 120.6074358757038 95.95851677861258 l 0.8877693957464388 -0.1741073047132776 a21.904681078379845,21.904681078379845 0 0,0 0.06937971451970658,0.3706292092066357 l -0.8906348341760046 0.1588000180440791" fill="#ff0000" stroke="none" /><path d="M 120.67395015179393 96.31383870115 l 18.924030829604924 -3.374151023396986 a40.22248261719928,40.22248261719928 0 0,0 0.11566480239465965,0.6826602111423332 l -18.97930749351981 3.047905023938815" fill="#fff617" stroke="none" /><path d="M 120.73433829027371 96.67025291283417 l 0.8932363582827302 -0.14344567550234907 a21.904681078379845,21.904681078379845 0 0,0 0.05658094545684703,0.37279773619911044 l -0.8955731971788771 0.12804882691115646" fill="#ff0000" stroke="none" /><path d="M 120.78858239683441 97.02765380044208 l 4.493359402205585 -0.6424593792613462 a25.5390563745552,25.5390563745552 0 0,0 0.05847714337028985,0.43572264095141144 l -4.503752544633712 0.5650183962452704" fill="#ff3405" stroke="none" /><path d="M 120.83666639777658 97.38593545837742 l 8.989641960565088 -1.1277957732002286 a30.06010959565064,30.06010959565064 0 0,0 0.05999088484891181,0.513965265569502 l -9.007723198417589 0.9728867693058739" fill="#ff730a" stroke="none" /><path d="M 120.91429891909075 98.10471618934814 l 3.742258108115571 -0.3391288053704678 a24.75759285905069,24.75759285905069 0 0,0 0.03480860516906011,0.4247531500262995 l -3.7475411971041255 0.27466173813639955" fill="#ff2904" stroke="none" /><path d="M 120.94382443527127 98.46500227214037 l 9.716268603196076 -0.7121168473921413 a30.74232959685688,30.74232959685688 0 0,0 0.03413775987362703,0.5280960355148457 l -9.727086954074117 0.5447617476242603" fill="#ff7c0b" stroke="none" /><path d="M 120.96714384426684 98.82574320788733 l 3.0980204697908245 -0.17350343975203267 a24.102875162627196,24.102875162627196 0 0,0 0.019633963106239438,0.4144419295084304 l -3.1005480411305606 0.12015040362060248" fill="#ff2003" stroke="none" /><path d="M 120.98425023603335 99.18683210126433 l 5.101738547472246 -0.19769922527053174 a26.10556766583666,26.10556766583666 0 0,0 0.013535495102593442,0.4491771864801653 l -5.104385737030485 0.10985189136536738" fill="#ff3c05" stroke="none" /><line stroke="#e1ed5e" stroke-width="0.3" x1="184.98032266829074" x2="189.97916517819016" y1="98.17113171792111" y2="98.06355123074" /><path d="M 185.9800911702706 98.14961562048488 a86.0,86.0 0 0,1 -9.607161424134198,41.387399972396054" fill="none" id="id76" stroke="none" /><text fill="#e1ed5e" style="font-size:6.75px; font-family:Arial;" text-anchor="middle"><textPath startOffset="21.466115282336823" xlink:href="#id76">April</textPath></text><path d="M 120.99824983174949 100.27111621757518 l 7.244986899463296 0.0935427219079146 a28.245590756744182,28.245590756744182 0 0,0 -0.010461544491947099,0.48610686469104497 l -7.2423032922863415 -0.2182394023890744" fill="#ff5a08" stroke="none" /><path d="M 120.9904718944345 100.63252640178507 l 7.247186353564698 0.21838654844637262 a28.250476034567434,28.250476034567434 0 0,0 -0.01883078144867347,0.485938796493871 l -7.2423534392648214 -0.34310259195424975" fill="#ff5a08" stroke="none" /><path d="M 120.9764740272857 100.99374915477107 l 4.533609873408823 0.214777325011888 a25.538694502123846,25.538694502123846 0 0,0 -0.024582390926500764,0.4389351035088343 l -4.529241131594793 -0.2927841448561456" fill="#ff3405" stroke="none" /><path d="M 120.95626037817324 101.35467743843564 l 9.036273462568245 0.5841326442014261 a30.055133849719553,30.055133849719553 0 0,0 -0.03781714600540684,0.5159849113813877 l -9.0248797578985 -0.7395906920795841" fill="#ff730a" stroke="none" /><path d="M 120.92983693683757 101.71520430193887 l 7.224357999061875 0.5920375756453311 a28.248576204302836,28.248576204302836 0 0,0 -0.043886723964913464,0.48428634193109515 l -7.213096678819887 -0.7163053061249969" fill="#ff5a08" stroke="none" /><path d="M 120.89721153311464 102.0752229133903 l 9.022695125470142 0.8960096726417093 a30.06707563995416,30.06707563995416 0 0,0 -0.05557784175889562,0.5145817892937007 l -9.005934982210196 -1.0511877838202013" fill="#ff730a" stroke="none" /><path d="M 120.8583938346157 102.4346265915055 l 4.501619620088843 0.5254365661522254 a25.532180798359512,25.532180798359512 0 0,0 -0.054709981026799165,0.4360923784140878 l -4.491908129815196 -0.6028466988537081" fill="#ff3404" stroke="none" /><path d="M 120.81339534386255 102.79330883721812 l 9.877320152350684 1.3256081102466344 a30.96587629132454,30.96587629132454 0 0,0 -0.07544754507372121,0.5276799545211893 l -9.853038556260362 -1.495433536748233" fill="#ff7f0b" stroke="none" /><path d="M 120.70491114924044 103.5080841355445 l 5.360196318389388 0.9081912756063999 a26.436590472415844,26.436590472415844 0 0,0 -0.07988074847127109,0.44801365922274516 l -5.343769127578929 -1.0003236855623634" fill="#ff4106" stroke="none" /><path d="M 120.5718875245553 104.21870165774334 l 18.69643073042349 3.8340994827126873 a40.08551390193257,40.08551390193257 0 0,0 -0.14443375917211562,0.6747464383778192 l -18.62766293252693 -4.155359740506675" fill="#fff417" stroke="none" /><path d="M 120.41448212921028 104.9243191809786 l 4.401857868275132 1.0618027435373074 a25.528109733506803,25.528109733506803 0 0,0 -0.10671805723981077,0.42628559030234275 l -4.38292849674026 -1.137416173237046" fill="#ff3404" stroke="none" /><path d="M 120.23288151984713 105.62410040840565 l 6.987363389525624 1.9422657743614726 a28.252285396724194,28.252285396724194 0 0,0 -0.13427552892325728,0.4674307314763279 l -6.952895223716268 -2.0622539813423826" fill="#ff5a08" stroke="none" /><path d="M 120.13307415673323 105.97154293290107 l 6.943267817775542 2.059398457766601 a28.24224343675418,28.24224343675418 0 0,0 -0.14225110666538004,0.4648848471764101 l -6.90678993860403 -2.178610277495068" fill="#ff5a08" stroke="none" /><path d="M 120.02730092923936 106.31721596034902 l 5.189259461197932 1.6368492592434813 a26.441294814023422,26.441294814023422 0 0,0 -0.14065226304239709,0.43288315443203196 l -5.160314947139288 -1.7259313136533085" fill="#ff4106" stroke="none" /><path d="M 119.9155931802556 106.66101706037122 l 0.857964776899425 0.2869569570134849 a21.904681078379845,21.904681078379845 0 0,0 -0.12267577809913281,0.3565532344149301 l -0.8528981678570614 -0.30168289451771535" fill="#ff0000" stroke="none" /><path d="M 119.54520255179757 107.68017299344265 l 4.216609312997764 1.6568919602527123 a25.53046190431059,25.53046190431059 0 0,0 -0.16424279333683786,0.4076371436085861 l -4.187463905403534 -1.729228471704112" fill="#ff3404" stroke="none" /><path d="M 119.41010516605496 108.01547362559984 l 1.2093791777597191 0.499417536368396 a22.30844024366077,22.30844024366077 0 0,0 -0.14962485330712513,0.35366895475089566 l -1.2006033432602852 -0.5201610167854551" fill="#ff0601" stroke="none" /><path d="M 119.26925614724726 108.34839909993367 l 4.989024471405878 2.1614932661830797 a26.43713328106287,26.43713328106287 0 0,0 -0.18450464649939707,0.41600927005198834 l -4.951078740175207 -2.2470508727277556" fill="#ff4106" stroke="none" /><path d="M 119.12269723197855 108.67885076344098 l 8.249683462893271 3.744125148849089 a30.05956678700361,30.05956678700361 0 0,0 -0.21789662246572877,0.46932993979763055 l -8.184012223587711 -3.88557515592555" fill="#ff730a" stroke="none" /><path d="M 118.97047184881838 109.00673069616215 l 4.08174963808119 1.9379180471804924 a25.51842964596814,25.51842964596814 0 0,0 -0.19180957218679048,0.3951845308234269 l -4.0477868092796845 -2.007891533969195" fill="#ff3404" stroke="none" /><path d="M 118.81262510543309 109.33194174019688 l 4.060835035854797 2.0143640644921503 a25.532995011330055,25.532995011330055 0 0,0 -0.1986969528139102,0.3920479382866425 l -4.0255594132546175 -2.083966214481487" fill="#ff3404" stroke="none" /><path d="M 118.64920377521936 109.65438752849418 l 5.93935917342582 3.074709023629364 a27.688035808138686,27.688035808138686 0 0,0 -0.2227535334268751,0.42136573838278923 l -5.885553131774052 -3.1764897770982876" fill="#ff5207" stroke="none" /><line stroke="#e1ed5e" stroke-width="0.3" x1="174.80103733775053" x2="179.2010983576182" y1="140.37084112569926" y2="142.7455964860345" /><path d="M 175.68104954172406 140.8457921977663 a86.0,86.0 0 0,1 -30.038265399797805,32.042727171017184" fill="none" id="id77" stroke="none" /><text fill="#e1ed5e" style="font-size:6.75px; font-family:Arial;" text-anchor="middle"><textPath startOffset="22.206326154141568" xlink:href="#id77">May</textPath></text><path d="M 118.30583269289576 110.29060199501025 l 10.920363001769477 6.13886902483584 a33.527571232864915,33.527571232864915 0 0,0 -0.2871365123852218,0.5006467121522905 l -10.813074493231875 -6.325935582846445" fill="#ffa10e" stroke="none" /><path d="M 118.12598468904814 110.60418214915192 l 3.91933442833937 2.292914668887733 a25.540775268604122,25.540775268604122 0 0,0 -0.22526857282091578,0.3775630854719543 l -3.879284979820227 -2.360039848245791" fill="#ff3405" stroke="none" /><path d="M 117.94076556474637 110.91462005526583 l 9.987891284910107 6.076331477309272 a32.69101263968707,32.69101263968707 0 0,0 -0.2966092320439026,0.4782285244902896 l -9.881817413198242 -6.247356333164835" fill="#ff960d" stroke="none" /><path d="M 117.35343817320211 111.8261652097733 l 3.7485507736345776 2.554593522261412 a25.53625186321222,25.53625186321222 0 0,0 -0.25066760921722747,0.36110538675113674 l -3.7040222572552137 -2.618740171199568" fill="#ff3405" stroke="none" /><path d="M 117.14729908036423 112.12312394758627 l 3.7038006452977386 2.618583491758908 a25.53598045888871,25.53598045888871 0 0,0 -0.25684357592471535,0.3567332627854547 l -3.6581772769974203 -2.681950359995494" fill="#ff3405" stroke="none" /><path d="M 116.93607887273984 112.41649034213515 l 5.113086889885702 3.748600515137602 a27.34000499728596,27.34000499728596 0 0,0 -0.2815222880553795,0.3771451105649861 l -5.047803335135231 -3.836058505211903" fill="#ff4d07" stroke="none" /><path d="M 116.71984013943494 112.70617746262583 l 4.675124475888803 3.5528426560970865 a26.871923007332228,26.871923007332228 0 0,0 -0.28304219892680144,0.3658701965852698 l -4.613275459743933 -3.6327908467956087" fill="#ff4706" stroke="none" /><path d="M 116.498646956653 112.99209946851258 l 4.3127650501701265 3.396149554769418 a26.489423847393226,26.489423847393226 0 0,0 -0.2851802024706002,0.35580615104276986 l -4.253666935644673 -3.469883539390438" fill="#ff4206" stroke="none" /><path d="M 116.27256486870786 113.27417163493432 l 0.7010229301632668 0.5718519956805491 a21.904681078379845,21.904681078379845 0 0,0 -0.24085135628829132,0.29012097421258803 l -0.691075573981432 -0.5838342270069077" fill="#ff0000" stroke="none" /><path d="M 116.0416608686014 113.55231037782055 l 3.462979701220959 2.9255933115316166 a25.533356883761407,25.533356883761407 0 0,0 -0.2865298478790902,0.33329894557717354 l -3.4121073437710896 -2.984769356270318" fill="#ff3404" stroke="none" /><path d="M 115.56566222782051 114.09645910891815 l 4.032268686331143 3.6516731393185875 a26.440028260513685,26.440028260513685 0 0,0 -0.3084085664336881,0.3347165874321338 l -3.968813711901733 -3.7205409815520563" fill="#ff4106" stroke="none" /><path d="M 115.32070863581623 114.36230785411682 l 4.299482186202068 4.030524190452073 a26.89327348078199,26.89327348078199 0 0,0 -0.3195093116870923,0.3350042359225217 l -4.229466323136012 -4.103935542957102" fill="#ff4706" stroke="none" /><path d="M 114.81725581225074 114.88116024355365 l 6.391132848926792 6.418696772723961 a30.057938361062526,30.057938361062526 0 0,0 -0.3697842765269498,0.3619117438549683 l -6.279698620024048 -6.527758619501501" fill="#ff730a" stroke="none" /><path d="M 114.55890576462653 115.13401014063108 l 5.024737325535657 5.223223974938259 a28.247761991332293,28.247761991332293 0 0,0 -0.353317849227636,0.33408407943295226 l -4.934083641917213 -5.3089426911171325" fill="#ff5a08" stroke="none" /><path d="M 114.29624159901734 115.38237550388516 l 3.084094820538812 3.3184039518733495 a25.530280968094914,25.530280968094914 0 0,0 -0.32447826155343246,0.296403198623735 l -3.0265170095185154 -3.3709999170836675" fill="#ff3404" stroke="none" /><path d="M 114.0293411484842 115.62618273729858 l 6.053577965300427 6.742605693246613 a30.061376149160374,30.061376149160374 0 0,0 -0.3880174232086397,0.3423802619694109 l -5.936618189185199 -6.8458090969883125" fill="#ff730a" stroke="none" /><path d="M 113.75828350139079 115.86535959552629 l 0.8470383736349049 0.976761991244696 a22.292879729112638,22.292879729112638 0 0,0 -0.29207337333307665,0.2489112651509616 l -0.8300995237247809 -0.9911976466186044" fill="#ff0600" stroke="none" /><path d="M 113.48314897796784 116.09983520530334 l 4.652123781025918 5.55496541287038 a28.24568122485202,28.24568122485202 0 0,0 -0.37543873187907506,0.30896051659774576 l -4.555814920602152 -5.634221048325304" fill="#ff5a08" stroke="none" /><path d="M 113.20401910651253 116.32954008644616 l 2.853876095710262 3.5294165913214828 a25.538875438339524,25.538875438339524 0 0,0 -0.3442184446308037,0.27346795050143 l -2.7927001583621074 -3.578018455828039" fill="#ff3405" stroke="none" /><path d="M 112.92097659922987 116.55440617244103 l 4.459714655634004 5.713804003557565 a28.248214331871484,28.248214331871484 0 0,0 -0.38588576967487076,0.29588075317333 l -4.360700157465639 -5.789724098558266" fill="#ff5a08" stroke="none" /><path d="M 112.63410532772338 116.77436683061366 l 2.383719518420913 3.1648767036590297 a24.96214125087237,24.96214125087237 0 0,0 -0.3454463532399167,0.2555529536709608 l -2.328888194762432 -3.2054396060697594" fill="#ff2c04" stroke="none" /><path d="M 112.34349029814194 116.9893568818739 l 7.198676576992518 9.908128291891812 a33.24712009856716,33.24712009856716 0 0,0 -0.4658913748921149,0.3324011258023124 l -7.0270578742515175 -10.030573679538342" fill="#ff9d0e" stroke="none" /><path d="M 112.04921762599082 117.19931262002967 l 4.158616743088904 5.936099060655323 a28.247852459440132,28.247852459440132 0 0,0 -0.40063944663013323,0.2755634646177233 l -4.055820411835887 -6.00680331463814" fill="#ff5a08" stroke="none" /><path d="M 111.7513745106137 117.40417183066458 l 4.0591110356487725 6.011676836643401 a28.2537328864496,28.2537328864496 0 0,0 -0.40540783684428616,0.26868220804672766 l -3.9550285000645227 -6.080657065781447" fill="#ff5a08" stroke="none" /><path d="M 111.45004920935366 117.60387380957326 l 2.4721147834588884 3.80075193521787 a25.53399016051627,25.53399016051627 0 0,0 -0.3705081651554251,0.2364758409892977 l -2.4063248162565327 -3.8427422050309765" fill="#ff3405" stroke="none" /><path d="M 111.1453310114006 117.79835938074945 l 2.406468858686224 3.8429722313018067 a25.534261564839788,25.534261564839788 0 0,0 -0.3745277941114119,0.2300655609089787 l -2.3399618646425036 -3.8838262590391635" fill="#ff3405" stroke="none" /><line stroke="#e1ed5e" stroke-width="0.3" x1="143.8653032363475" x2="146.44561519142675" y1="172.8068346515853" y2="177.08958963109032" /><path d="M 144.38136562736335 173.6633856474863 a86.0,86.0 0 0,1 -40.68145358897372,12.25698825130547" fill="none" id="id78" stroke="none" /><text fill="#e1ed5e" style="font-size:6.75px; font-family:Arial;" text-anchor="middle"><textPath startOffset="21.466115282336833" xlink:href="#id78">June</textPath></text><path d="M 110.8373102113329 117.98757091392108 l 6.555114636973873 10.8800603731124 a33.70217468099222,33.70217468099222 0 0,0 -0.4994856941399317,0.2951049522450618 l -6.36686107180556 -10.991283897651211" fill="#ffa30f" stroke="none" /><path d="M 110.21172684928248 118.3499491758327 l 2.848845055296846 5.119228387722935 a26.858533727372205,26.858533727372205 0 0,0 -0.40591837674878345,0.22133906388320265 l -2.760303866679414 -5.1675081033659085" fill="#ff4706" stroke="none" /><path d="M 109.89434966115114 118.52300852407294 l 2.1346128252793215 3.9961647720507307 a25.530552372418427,25.530552372418427 0 0,0 -0.3894127708766373,0.20372235693849977 l -2.0655091518761886 -4.032316547933947" fill="#ff3404" stroke="none" /><path d="M 109.57404056367764 118.69057910512821 l 3.3023646890567075 6.446923641514956 a28.24350999026391,28.24350999026391 0 0,0 -0.4346085660322237,0.21792175733438846 l -3.1909022153417235 -6.5028132397586464" fill="#ff5a08" stroke="none" /><path d="M 109.2508944713604 118.85261126421891 l 1.9965904815517637 4.068897804322237 a25.53236173457519,25.53236173457519 0 0,0 -0.396222535492079,0.19021089544002684 l -1.926255278059452 -4.102662976261824" fill="#ff3404" stroke="none" /><path d="M 108.59647513512805 119.15986991738527 l 2.968840309498614 6.616967215206864 a28.25246633293987,28.25246633293987 0 0,0 -0.44541940441734557,0.19525877722688628 l -2.8545002304235148 -6.667090545728204" fill="#ff5a08" stroke="none" /><path d="M 108.2653958097858 119.30500536409082 l 2.8530403283522205 6.663680737176263 a28.248757140518514,28.248757140518514 0 0,0 -0.44865555905180066,0.1875380600706959 l -2.7379133098029587 -6.711803840266932" fill="#ff5a08" stroke="none" /><path d="M 107.93186726928326 119.44442032107085 l 3.0796527296012663 7.549554232859876 a29.153528687006197,29.153528687006197 0 0,0 -0.4662883735702012,0.18554576693888442 l -2.949243279989199 -7.60144684420483" fill="#ff6609" stroke="none" /><path d="M 107.59598834532513 119.57807347666477 l 3.2786386027192798 8.450437856052307 a30.06418066050335,30.06418066050335 0 0,0 -0.4840759414171054,0.18303610031217804 l -3.1326924405418994 -8.505622206471116" fill="#ff730a" stroke="none" /><path d="M 107.2578585660854 119.70592522655815 l 1.5668152236505424 4.25408450164159 a25.533447351869246,25.533447351869246 0 0,0 -0.4137396515967429,0.14835231891087072 l -1.4933560114240647 -4.280424361592421" fill="#ff3404" stroke="none" /><path d="M 106.91757812671514 119.82793768551818 l 1.4942202393247501 4.282901508456104 a25.536070926996544,25.536070926996544 0 0,0 -0.41627476096060195,0.14122300018185985 l -1.4202757454269213 -4.307987495536087" fill="#ff3405" stroke="none" /><path d="M 106.57524785965236 119.94407469862006 l 1.419765873799126 4.306440950364177 a25.534442501055462,25.534442501055462 0 0,0 -0.4186173103864809,0.13402804328679743 l -1.3454272183217049 -4.3302418403106815" fill="#ff3405" stroke="none" /><path d="M 106.2309692047433 120.05430185196036 l 2.6873916835377165 8.649338850059928 a30.057214616199822,30.057214616199822 0 0,0 -0.49540734177558,0.14926216818858992 l -2.5381093673218906 -8.694316387354244" fill="#ff730a" stroke="none" /><path d="M 105.53697534728816 120.25689768951611 l 1.5500124718563704 5.670685182885358 a26.878708115420075,26.878708115420075 0 0,0 -0.4473507319628324,0.11814939421891593 l -1.4521712970820404 -5.696525926407858" fill="#ff4706" stroke="none" /><path d="M 105.18746579009965 120.34920634021253 l 1.1209347361588466 4.39716292366525 a25.537789821045465,25.537789821045465 0 0,0 -0.426902725314108,0.10492230339050367 l -1.0450787261015275 -4.415806485369783" fill="#ff3405" stroke="none" /><path d="M 104.83641907484287 120.43548508189849 l 1.0437869363725005 4.410348242540126 a25.532180798359512,25.532180798359512 0 0,0 -0.42855139397524744,0.09753690202521549 l -0.9677153930043911 -4.4276618781430255" fill="#ff3404" stroke="none" /><path d="M 104.48393922423573 120.51570834832081 l 1.1266736134374142 5.154955520381864 a26.27664285775829,26.27664285775829 0 0,0 -0.44270955276407775,0.09277409116606784 l -1.0377725992439586 -5.173585592274473" fill="#ff3f05" stroke="none" /><path d="M 104.13013068566511 120.58985236759428 l 0.8927982972407387 4.4508482983429065 a25.53950871509439,25.53950871509439 0 0,0 -0.43177870008508124,0.0827514155132732 l -0.8160519825839531 -4.465556912204647" fill="#ff3405" stroke="none" /><path d="M 103.7750983002368 120.6578951692458 l 2.68136941640852 14.672849263478602 a35.91583881167987,35.91583881167987 0 0,0 -0.6091172825344692,0.1059028472776016 l -2.4284031624020006 -14.71683068927721" fill="#ffc011" stroke="none" /><path d="M 101.98527174616119 120.90594882070398 l 0.42821817055626976 4.509361086236905 a25.52964769134005,25.52964769134005 0 0,0 -0.43784036581393576,0.03777870909860412 l -0.35053348700079234 -4.516064047614172" fill="#ff3404" stroke="none" /><path d="M 101.62511606390274 120.93702456842531 l 0.35080652632638354 4.519581723179031 a25.53317594754573,25.53317594754573 0 0,0 -0.43848638486993863,0.03024058836059198 l -0.27295738067751457 -4.524950656055908" fill="#ff3404" stroke="none" /><path d="M 101.26447882468166 120.96189622390904 l 0.273213407597205 4.5291949420149304 a25.537427948614116,25.537427948614116 0 0,0 -0.43901505673717967,0.022692063824642165 l -0.19521028244654576 -4.533226812601775" fill="#ff3405" stroke="none" /><line stroke="#e1ed5e" stroke-width="0.3" x1="102.19456741930631" x2="102.32365962044197" y1="184.97166512339345" y2="189.96999836594603" /><path d="M 102.22038585953345 185.97133177190398 a86.0,86.0 0 0,1 -42.740103519485714,-10.115201625700543" fill="none" id="id79" stroke="none" /><text fill="#e1ed5e" style="font-size:6.75px; font-family:Arial;" text-anchor="middle"><textPath startOffset="22.20632615414155" xlink:href="#id79">July</textPath></text><path d="M 100.54218724476979 120.99299961872073 l 0.14043435851450992 5.437491315388906 a26.43930451565098,26.43930451565098 0 0,0 -0.4550585915790036,0.007834246336754992 l -0.04681607704283838 -5.439103039004821" fill="#ff4106" stroke="none" /><path d="M 100.18074693466247 120.99922214144158 l 0.039055964212538895 4.537531272543475 a25.53769935293763,25.53769935293763 0 0,0 -0.43960579774998554,0.0 l 0.039055964212535765 -4.537531272543475" fill="#ff3405" stroke="none" /><path d="M 99.81925306533755 120.99922214144158 l -0.046820748995170774 5.439645827545738 a26.43984732429801,26.43984732429801 0 0,0 -0.45506793409927554,-0.007834407176714003 l 0.14044837298711427 -5.438033943089865" fill="#ff4106" stroke="none" /><path d="M 99.45781275523022 120.99299961872073 l -0.323652566155987 12.531534563849117 a33.535713362570334,33.535713362570334 0 0,0 -0.5769414633318755,-0.019871030537866805 l 0.5393143811625054 -12.524106734885157" fill="#ffa10e" stroke="none" /><path d="M 99.09653310690486 120.98055641714683 l -0.1567676155195279 3.640500639178032 a24.64387444749834,24.64387444749834 0 0,0 -0.4236539388603257,-0.021898069491350196 l 0.2194096227933425 -3.6372627629244803" fill="#ff2703" stroke="none" /><path d="M 98.73552117531835 120.96189622390904 l -0.7702923958666119 12.76952128343262 a33.79273325693804,33.79273325693804 0 0,0 -0.5803294298817224,-0.04002291521045885 l 0.9899845865272644 -12.754370023705876" fill="#ffa40f" stroke="none" /><path d="M 98.37488393609728 120.93702456842531 l -0.07001008348494857 0.9019680935537296 a21.904681078379845,21.904681078379845 0 0,0 -0.3756712075446588,-0.03241449252895558 l 0.08552560877114909 -0.9006293487461107" fill="#ff0000" stroke="none" /><path d="M 98.01472825383883 120.90594882070398 l -0.5140687766407462 5.413412826508252 a26.43776655781774,26.43776655781774 0 0,0 -0.4526742415591431,-0.04692153601090646 l 0.6071756148054828 -5.403761922041585" fill="#ff4106" stroke="none" /><path d="M 97.65516085044442 120.86867818915974 l -0.8090657746454744 7.200550744872921 a28.2458621610677,28.2458621610677 0 0,0 -0.4826983496132199,-0.05844804790027997 l 0.9328915473100836 -7.185557168247293" fill="#ff5a08" stroke="none" /><path d="M 97.2962882734958 120.8252237178851 l -1.7260351418074815 13.294711718230424 a34.40628796429525,34.40628796429525 0 0,0 -0.5866622858765134,-0.08130604714355763 l 1.9546260188708258 -13.263031105594262" fill="#ffac10" stroke="none" /><path d="M 96.58105272829116 120.7198165907248 l -2.0364392083653207 12.341414927525536 a33.50830152589542,33.50830152589542 0 0,0 -0.5682864786986824,-0.0988038886585801 l 2.248574658536053 -12.304532460345948" fill="#ffa10e" stroke="none" /><path d="M 96.22490169976321 120.6578951692458 l -0.651566555666694 3.5654683751956444 a24.624514272421013,24.624514272421013 0 0,0 -0.41630952581671304,-0.07978671144779327 l 0.712843696055102 -3.553724465399383" fill="#ff2703" stroke="none" /><path d="M 95.86986931433489 120.58985236759428 l -1.7812374015518255 8.87996480520162 a30.056852743768474,30.056852743768474 0 0,0 -0.5063986258716595,-0.10612075567302301 l 1.9338274888528717 -8.847988068802055" fill="#ff730a" stroke="none" /><path d="M 95.51606077576429 120.51570834832081 l -1.8131165981631219 8.295690344856197 a29.49151753788891,29.49151753788891 0 0,0 -0.49500789028251685,-0.11266218422097075 l 1.9556446378385015 -8.26325142705754" fill="#ff6b09" stroke="none" /><path d="M 95.16358092515715 120.4354850818985 l -2.0858028706971345 8.81321341023314 a30.056671807552796,30.056671807552796 0 0,0 -0.5024426623615599,-0.12348818203922982 l 2.237198817801905 -8.776003969879879" fill="#ff730a" stroke="none" /><path d="M 94.81253420990036 120.34920634021253 l -1.1186329303448457 4.388133481668054 a25.528471605938154,25.528471605938154 0 0,0 -0.42487832412813875,-0.11221422706123711 l 1.1940016972844736 -4.368227905303234" fill="#ff3404" stroke="none" /><path d="M 94.46302465271185 120.25689768951611 l -2.0063503029005854 7.340186702310729 a28.60945348646856,28.60945348646856 0 0,0 -0.4739208174049142,-0.13393475686572243 l 2.1324022884101135 -7.3045631521064855" fill="#ff5f08" stroke="none" /><path d="M 94.11515582081647 120.15858648285463 l -2.030741013246942 6.95632154282425 a28.246676374038238,28.246676374038238 0 0,0 -0.46556578961628997,-0.14027115331698092 l 2.150181777303478 -6.920335020401544" fill="#ff5a08" stroke="none" /><path d="M 93.76903079525671 120.05430185196036 l -1.3450782587063992 4.329118717851003 a25.533266415653568,25.533266415653568 0 0,0 -0.4185980293817084,-0.13402187011794334 l 1.419397633179048 -4.305324001073353" fill="#ff3404" stroke="none" /><path d="M 93.42475214034765 119.94407469862007 l -5.2245129390164795 15.847018780697482 a37.686028277745706,37.686028277745706 0 0,0 -0.6143365773740928,-0.20841632189763137 l 5.496519249327798 -15.754739471901727" fill="#ffd614" stroke="none" /><path d="M 93.08242187328487 119.8279376855182 l -1.492134171978264 4.276922188440313 a25.529738159447888,25.529738159447888 0 0,0 -0.4136795484716648,-0.14833076806858375 l 1.5655332810796554 -4.250603879331772" fill="#ff3404" stroke="none" /><path d="M 92.7421414339146 119.70592522655815 l -2.6784783008525794 7.272378296843542 a28.749950457940948,28.749950457940948 0 0,0 -0.46291497149982735,-0.17503483216168342 l 2.8032634931126896 -7.225195214575225" fill="#ff6108" stroke="none" /><path d="M 92.40401165467489 119.57807347666478 l -3.2793257974120342 8.452209047314854 a30.066080490767945,30.066080490767945 0 0,0 -0.48088394108942956,-0.1913536444729683 l 3.4243308145433216 -8.394508558435819" fill="#ff730a" stroke="none" /><path d="M 92.06813273071674 119.44442032107085 l -4.446268703545221 10.899718136605722 a32.771710191878554,32.771710191878554 0 0,0 -0.5204905080985426,-0.21756507459822166 l 4.633230671141226 -10.821568018987527" fill="#ff970d" stroke="none" /><path d="M 91.7346041902142 119.30500536409082 l -5.347656894517935 12.490211891820032 a34.586862307539874,34.586862307539874 0 0,0 -0.5452854780231348,-0.2390371291022892 l 5.5618630471988135 -12.39631020942329" fill="#ffaf10" stroke="none" /><path d="M 91.40352486487194 119.15986991738527 l -3.7111059373618094 8.271332830235568 a30.065718618336597,30.065718618336597 0 0,0 -0.4703595617321398,-0.2159190051115575 l 3.8529334948613685 -8.206226754789936" fill="#ff730a" stroke="none" /><path d="M 91.07499286063937 119.00905698771935 l -1.9248711149023 4.0997148961175975 a25.52910488269302,25.52910488269302 0 0,0 -0.3961719942172772,-0.19018663255673637 l 1.9951557771198192 -4.065973987061299" fill="#ff3404" stroke="none" /><path d="M 90.7491055286396 118.85261126421891 l -3.3477233803331634 6.822402709808111 a28.59950199460638,28.59950199460638 0 0,0 -0.4400865386560071,-0.22066852652879967 l 3.464663826671931 -6.76376634237001" fill="#ff5f08" stroke="none" /><path d="M 90.10565033884886 118.52300852407294 l -6.40307122747328 11.987057966267079 a34.5900286913142,34.5900286913142 0 0,0 -0.5227660020682071,-0.2850537057585636 l 6.608460041410128 -11.875063608748748" fill="#ffaf10" stroke="none" /><line stroke="#e1ed5e" stroke-width="0.3" x1="58.666819895761336" x2="56.23545636021788" y1="174.27360380694188" y2="178.64263932499728" /><path d="M 58.180547188652646 175.14741091055294 a86.0,86.0 0 0,1 -31.652253787137756,-30.449443065178592" fill="none" id="id80" stroke="none" /><text fill="#e1ed5e" style="font-size:6.75px; font-family:Arial;" text-anchor="middle"><textPath startOffset="22.20632615414155" xlink:href="#id80">August</textPath></text><path d="M 89.7882731507175 118.34994917583269 l -3.523025086681759 6.3306953113749 a28.244957479989317,28.244957479989317 0 0,0 -0.4228017720044149,-0.24007788059253762 l 3.6314756256073815 -6.269114264987729" fill="#ff5a08" stroke="none" /><path d="M 89.4739219176387 118.17145234162733 l -6.185248746086519 10.677761644098323 a33.33984990910109,33.33984990910109 0 0,0 -0.49411583175255874,-0.2919323428951245 l 6.36813244886746 -10.569710728909449" fill="#ff9e0e" stroke="none" /><path d="M 89.1626897886671 117.98757091392108 l -9.869064618539195 16.380494441730075 a40.12378191154804,40.12378191154804 0 0,0 -0.5885218764826946,-0.3615182043870378 l 10.149565694954198 -16.208187770514662" fill="#fff417" stroke="none" /><path d="M 88.8546689885994 117.79835938074946 l -4.325017993869462 6.906768807885155 a29.14918621782997,29.14918621782997 0 0,0 -0.4229660712426573,-0.2699569586140932 l 4.4432658671590435 -6.831297420447258" fill="#ff6609" stroke="none" /><path d="M 88.54995079064634 117.60387380957326 l -8.150377514625358 12.530794815330504 a35.94822639428586,35.94822639428586 0 0,0 -0.5158147689534401,-0.3418539023426755 l 8.36486698231876 -12.388642891896511" fill="#ffc011" stroke="none" /><path d="M 88.24862548938628 117.40417183066458 l -4.815144512904682 7.131387261667502 a29.60478360890206,29.60478360890206 0 0,0 -0.419884808578123,-0.2888006000541271 l 4.937186206105696 -7.047445872248273" fill="#ff6d0a" stroke="none" /><path d="M 87.95078237400918 117.19931262002967 l -5.139627762593828 7.3364153078914836 a29.9576092294702,29.9576092294702 0 0,0 -0.4197955104388116,-0.29951295043599263 l 5.265150600881527 -7.246858095611271" fill="#ff710a" stroke="none" /><path d="M 87.65650970185807 116.9893568818739 l -5.323803529889267 7.327586926680206 a30.0573955524155,30.0573955524155 0 0,0 -0.41595861417172114,-0.3077162385982341 l 5.449147114479553 -7.234860739342205" fill="#ff730a" stroke="none" /><path d="M 87.36589467227662 116.77436683061367 l -4.362877269090828 5.792614660896069 a28.251833056185003,28.251833056185003 0 0,0 -0.38593520339131115,-0.29591865683913376 l 4.461941200975626 -5.716656662229568" fill="#ff5a08" stroke="none" /><path d="M 87.07902340077011 116.55440617244103 l -4.458323064795491 5.712021091887562 a28.245952629175534,28.245952629175534 0 0,0 -0.3807050120356464,-0.3024550863294853 l 4.555985569548496 -5.634432091552945" fill="#ff5a08" stroke="none" /><path d="M 86.79598089348748 116.32954008644616 l -8.54592858406694 10.568833797021501 a34.59165711725529,34.59165711725529 0 0,0 -0.4597888002174128,-0.37837488031677546 l 8.726587512829042 -10.420163797847545" fill="#ffaf10" stroke="none" /><path d="M 86.51685102203217 116.09983520530335 l -4.652820806726337 5.555797710943255 a28.246766842146076,28.246766842146076 0 0,0 -0.37007908254061245,-0.3153894228353484 l 4.747765365844006 -5.474883897884954" fill="#ff5a08" stroke="none" /><path d="M 86.24171649860922 115.8653595955263 l -8.901045049261445 10.264236848167624 a34.58613856267717,34.58613856267717 0 0,0 -0.4464208257545717,-0.3939144742690196 l 9.076408227922604 -10.109499232126314" fill="#ffaf10" stroke="none" /><path d="M 85.97065885151581 115.62618273729859 l -4.840819551828926 5.391809217166238 a28.246043097283373,28.246043097283373 0 0,0 -0.35899436325921774,-0.32793283916309535 l 4.932913464554999 -5.307683611416567" fill="#ff5a08" stroke="none" /><path d="M 85.70375840098266 115.38237550388516 l -8.023721407855989 8.633310704730015 a32.78618508913263,32.78618508913263 0 0,0 -0.41008361666406,-0.3877596556846463 l 8.171140858910865 -8.493916412299438" fill="#ff970d" stroke="none" /><path d="M 85.44109423537348 115.13401014063109 l -5.0254899636252075 5.224006343659078 a28.248847608626352,28.248847608626352 0 0,0 -0.3475281488103595,-0.3401294385903422 l 5.114668064811362 -5.136726802146167" fill="#ff5a08" stroke="none" /><path d="M 85.18274418774928 114.88116024355367 l -8.959254626920082 8.99789444518914 a33.69765127560032,33.69765127560032 0 0,0 -0.4075159264308605,-0.4128114819606078 l 9.112811178406474 -8.842342469247868" fill="#ffa30f" stroke="none" /><path d="M 84.9287848128048 114.62390073753433 l -5.2003827732937555 5.046035142437941 a28.24613356539121,28.24613356539121 0 0,0 -0.335582155878097,-0.3518565487984054 l 5.28647148055081 -4.955771477057036" fill="#ff5a08" stroke="none" /><path d="M 84.67929136418377 114.36230785411682 l -8.596192301362102 8.058449719272655 a32.78274730103479,32.78274730103479 0 0,0 -0.3823929384360378,-0.4150120111497486 l 8.733631647793867 -7.909286453321563" fill="#ff970d" stroke="none" /><path d="M 84.43433777217949 114.09645910891817 l -5.371261920028014 4.864282220106087 a28.246495437822563,28.246495437822563 0 0,0 -0.32327596223472566,-0.36320397059566334 l 5.454196731911078 -4.77110407976956" fill="#ff5a08" stroke="none" /><path d="M 84.19399662182784 113.82643327865904 l -8.865486967557535 7.7551586638930985 a32.778766704289914,32.778766704289914 0 0,0 -0.367836280995137,-0.4278766959470189 l 8.997665758123452 -7.601404868784549" fill="#ff970d" stroke="none" /><path d="M 83.95833913139862 113.55231037782056 l -4.158270836203675 3.5129889273232697 a26.44355651671937,26.44355651671937 0 0,0 -0.29075823698818315,-0.3502370270000731 l 4.218125073085394 -3.4408906432094355" fill="#ff4106" stroke="none" /><path d="M 83.72743513129214 113.27417163493432 l -9.128019573655905 7.44608483575644 a32.779852321583974,32.779852321583974 0 0,0 -0.35290178359033425,-0.4402992361587575 l 9.2548392693011 -7.287857766019423" fill="#ff970d" stroke="none" /><path d="M 83.50135304334701 112.99209946851258 l -5.69157333667018 4.481912190534807 a28.24441467134229,28.24441467134229 0 0,0 -0.29749866556985166,-0.38455712847272683 l 5.767878819458099 -4.3832770679488275" fill="#ff5a08" stroke="none" /><path d="M 83.28015986056508 112.70617746262583 l -5.77155230647425 4.386068720114435 a28.249028544842027,28.249028544842027 0 0,0 -0.2908825785538583,-0.38968474932450714 l 5.846196151723193 -4.286071091280619" fill="#ff5a08" stroke="none" /><path d="M 83.06392112726016 112.41649034213515 l -3.6532889091089715 2.6783665096171516 a25.529919095663562,25.529919095663562 0 0,0 -0.2567826100961905,-0.35664858658185516 l 3.6988513115807695 -2.6150843175841585" fill="#ff3404" stroke="none" /><path d="M 82.85270091963577 112.12312394758628 l -5.915192498299053 4.182035403629803 a28.244233735126613,28.244233735126613 0 0,0 -0.27724955809807883,-0.399398666689438 l 5.9863029635592655 -4.079595474753353" fill="#ff5a08" stroke="none" /><path d="M 82.6465618267979 111.8261652097733 l -9.732162423966395 6.63235489851847 a32.77722874645667,32.77722874645667 0 0,0 -0.3137200567276157,-0.46896891871152596 l 9.844885586104741 -6.4638490656011225" fill="#ff970d" stroke="none" /><path d="M 82.24976979558568 111.22182372390057 l -6.123028799695288 3.871023026476527 a28.24405279891094,28.24405279891094 0 0,0 -0.25626146558465596,-0.413175077949458 l 6.1887549049479 -3.765051617161805" fill="#ff5a08" stroke="none" /><path d="M 82.05923443525364 110.91462005526583 l -6.440794041049142 3.9183846173436945 a28.539069298570602,28.539069298570602 0 0,0 -0.25171340113660584,-0.42188613883273474 l 6.50728831788398 -3.8069363846248487" fill="#ff5e08" stroke="none" /><line stroke="#e1ed5e" stroke-width="0.3" x1="26.63291911575756" x2="22.317208475507996" y1="142.92168965132927" y2="145.44649492493687" /><path d="M 25.769776987707644 143.4266507060508 a86.0,86.0 0 0,1 -11.730757126820373,-40.83630448921669" fill="none" id="id81" stroke="none" /><text fill="#e1ed5e" style="font-size:6.75px; font-family:Arial;" text-anchor="middle"><textPath startOffset="21.46611528233685" xlink:href="#id81">September</textPath></text><path d="M 81.87401531095188 110.60418214915194 l -6.255536361457337 3.659654808029096 a28.24740011890094,28.24740011890094 0 0,0 -0.24191612025092557,-0.42180114682795405 l 6.31760447786064 -3.551433815342835" fill="#ff5a08" stroke="none" /><path d="M 81.51974371655577 109.97397251340807 l -6.374695643192335 3.44048470710346 a28.24387186269526,28.24387186269526 0 0,0 -0.2272253004390514,-0.42982463634042145 l 6.432973451856272 -3.330245055676912" fill="#ff5a08" stroke="none" /><path d="M 81.35079622478065 109.6543875284942 l -7.906665950106569 4.093151539376149 a29.90332836476741,29.90332836476741 0 0,0 -0.23270674758039772,-0.45915248987099466 l 7.975951367473233 -3.956444837802469" fill="#ff710a" stroke="none" /><path d="M 81.18737489456691 109.33194174019688 l -6.492667871959434 3.220666864938235 a28.24758105511662,28.24758105511662 0 0,0 -0.21232327038390092,-0.4374488250661771 l 6.5471443989580544 -3.1084290839067727" fill="#ff5a08" stroke="none" /><path d="M 81.02952815118164 109.00673069616217 l -7.633104739148718 3.62401733119748 a29.449721272067755,29.449721272067755 0 0,0 -0.21347595736194383,-0.45980822044489855 l 7.6943553133504885 -3.492089043473754" fill="#ff6a09" stroke="none" /><path d="M 80.87730276802145 108.67885076344099 l -4.9519025469539395 2.2474247580643194 a26.43803796214125,26.43803796214125 0 0,0 -0.18451096026498406,-0.41602350592661114 l 4.989854591950204 -2.1618529156450124" fill="#ff4106" stroke="none" /><path d="M 80.73074385275274 108.34839909993369 l -4.158239830643313 1.8015560846862406 a25.53172845782032,25.53172845782032 0 0,0 -0.17124375722611693,-0.40476965749441246 l 4.188634569061737 -1.7297119015256694" fill="#ff3404" stroke="none" /><path d="M 80.58989483394504 108.01547362559985 l -5.865275784111184 2.422086998097801 a27.34570448807975,27.34570448807975 0 0,0 -0.17592062798236152,-0.4366205715065226 l 5.906099026350934 -2.320767058748473" fill="#ff4e07" stroke="none" /><path d="M 80.45479744820244 107.68017299344265 l -5.058870245102012 1.987853465872104 a26.43541438701395,26.43541438701395 0 0,0 -0.16277382388366443,-0.42495109038359963 l 5.092338348579186 -1.9004788086553468" fill="#ff4106" stroke="none" /><path d="M 80.32549172779594 107.34259656027581 l -8.497401526885476 3.171260514334678 a30.06988015129714,30.06988015129714 0 0,0 -0.17680479396027377,-0.4864908583412017 l 8.550730581850974 -3.0245218589873595" fill="#ff730a" stroke="none" /><path d="M 80.20201598880116 107.00284435728193 l -4.272934531147096 1.5114011332443047 a25.53236173457519,25.53236173457519 0 0,0 -0.14299237369810944,-0.41560277121314804 l 4.298317735788434 -1.43762565894186" fill="#ff3404" stroke="none" /><path d="M 79.97269907076064 106.31721596034903 l -7.334123462218454 2.3134041853365392 a28.690331974875715,28.690331974875715 0 0,0 -0.1445080481358653,-0.4722606624877178 l 7.37285828286045 -2.186816550296774" fill="#ff6008" stroke="none" /><path d="M 79.86692584326677 105.97154293290107 l -8.682445690959995 2.5752449329160125 a30.056309935121444,30.056309935121444 0 0,0 -0.1428495733123078,-0.4972781048035661 l 8.725487901158406 -2.4254093526078506" fill="#ff730a" stroke="none" /><path d="M 79.76711848015287 105.62410040840567 l -7.088734374282102 1.970443698312159 a28.35749980613977,28.35749980613977 0 0,0 -0.12667960033103415,-0.47142191879982337 l 7.121602050954911 -1.8481308463367967" fill="#ff5b08" stroke="none" /><path d="M 79.67330655649465 105.27499134158121 l -6.138744433928364 1.5930689281634445 a27.34208576376623,27.34208576376623 0 0,0 -0.11430122731584896,-0.4565765852457961 l 6.165256975539272 -1.4871645035202565" fill="#ff4d07" stroke="none" /><path d="M 79.50377843672027 104.57218783832718 l -6.801758266900582 1.5172999731267465 a27.968939282975626,27.968939282975626 0 0,0 -0.10077603222400483,-0.47079207248191773 l 6.826868337849027 -1.3999940812286649" fill="#ff5608" stroke="none" /><path d="M 79.4281124754447 104.21870165774334 l -7.096550552410179 1.4552981365456608 a28.244233735126613,28.244233735126613 0 0,0 -0.09356920161922387,-0.4771073431914453 l 7.120549687005069 -1.3329270662862607" fill="#ff5a08" stroke="none" /><path d="M 79.35854240842038 103.8639653848113 l -4.457201779724533 0.8343632378461756 a25.534623437271136,25.534623437271136 0 0,0 -0.07715536669638035,-0.43272827087681015 l 4.470903588760102 -0.7575162162361517" fill="#ff3405" stroke="none" /><path d="M 79.29508885075956 103.50808413554451 l -4.913855213167228 0.832566601876339 a25.98388806079457,25.98388806079457 0 0,0 -0.07092147040558798,-0.44162806391543363 l 4.927458437934106 -0.7478593082676918" fill="#ff3a05" stroke="none" /><path d="M 79.23777060512086 103.15116336523772 l -7.167220404612412 1.0877965915919112 a28.24929994916554,28.24929994916554 0 0,0 -0.06882867809599029,-0.4813876142948918 l 7.184883133725002 -0.9642635053166189" fill="#ff5a08" stroke="none" /><path d="M 79.18660465613746 102.79330883721812 l -7.184076155798815 0.9641552030172863 a28.248485736195,28.248485736195 0 0,0 -0.060530439247176826,-0.4824871572304061 l 7.19960810429284 -0.8403502914994716" fill="#ff5a08" stroke="none" /><path d="M 79.1416061653843 102.43462659150553 l -7.205718452899862 0.8410635016018398 a28.254637567527983,28.254637567527983 0 0,0 -0.05222761915682638,-0.4835628888372367 l 7.21912837355774 -0.7169042908798211" fill="#ff5a08" stroke="none" /><path d="M 79.10278846688536 102.07522291339032 l -7.209135565857715 0.715911943002434 a28.244595607557965,28.244595607557965 0 0,0 -0.04388053974701539,-0.48421809960191836 l 7.220390701881806 -0.5917124548519496" fill="#ff5a08" stroke="none" /><path d="M 79.07016306316243 101.71520430193888 l -7.230669608211986 0.5925548132711745 a28.254908971851496,28.254908971851496 0 0,0 -0.03555199665058395,-0.4850787481043408 l 7.239798163526906 -0.4680029286700731" fill="#ff5a08" stroke="none" /><path d="M 79.04373962182676 101.35467743843564 l -5.426260005471607 0.3507702171974454 a26.43758562160206,26.43758562160206 0 0,0 -0.025447622815995382,-0.45438440012570214 l 5.431493979175134 -0.2573141007363057" fill="#ff4106" stroke="none" /><path d="M 79.0235259727143 100.99374915477108 l -4.527916767665741 0.21450761719479802 a25.532995011330055,25.532995011330055 0 0,0 -0.017019403432359487,-0.4391951785700252 l 4.530938303949301 -0.13653519161077607" fill="#ff3404" stroke="none" /><path d="M 79.0095281055655 100.63252640178507 l -7.24736720768612 0.21839199830034844 a28.250656970783112,28.250656970783112 0 0,0 -0.010463420906005152,-0.48619405427907647 l 7.250052691277133 -0.09360812823114316" fill="#ff5a08" stroke="none" /><line stroke="#e1ed5e" stroke-width="0.3" x1="15.007084014347285" x2="10.007500721073583" y1="101.09737516637583" y2="101.16192664675087" /><path d="M 14.007167355692545 101.11028546245083 a86.0,86.0 0 0,1 10.666146001902534,-42.60595125391555" fill="none" id="id82" stroke="none" /><text fill="#e1ed5e" style="font-size:6.75px; font-family:Arial;" text-anchor="middle"><textPath startOffset="22.20632615414155" xlink:href="#id82">October</textPath></text><path d="M 79.00175016825051 100.2711162175752 l -5.436046919084129 0.07018682466740803 a26.436500004308005,26.436500004308005 0 0,0 -0.0019584445101312174,-0.45507353242980186 l 5.4364496608837625 0.0233961859660692" fill="#ff4106" stroke="none" /><path d="M 79.00019446554 99.90962569577889 l -7.244528520691444 -0.031177394637925477 a28.244595607557965,28.244595607557965 0 0,0 0.006277015555403601,-0.4861617722798409 l 7.242918498018324 0.15587542497823836" fill="#ff5a08" stroke="none" /><path d="M 79.00486145842228 99.54816195383935 l -7.254676629422842 -0.156128472659243 a28.256356461576903,28.256356461576903 0 0,0 0.014650659177326535,-0.4861840530746852 l 7.250914275789871 0.2809826731589226" fill="#ff5a08" stroke="none" /><path d="M 79.01574976396665 99.18683210126434 l -5.433959494791472 -0.21057323347233897 a26.43803796214125,26.43803796214125 0 0,0 0.02153616356752472,-0.4545943748004029 l 5.429529722990448 0.30407871489575095" fill="#ff4106" stroke="none" /><path d="M 79.03285615573316 98.82574320788736 l -3.6222758434763436 -0.2028641594534921 a24.627952060518858,24.627952060518858 0 0,0 0.027348061277283068,-0.42306240342112095 l 3.6182471911946474 0.2651856271276248" fill="#ff2703" stroke="none" /><path d="M 79.05617556472873 98.46500227214037 l -7.231531946712376 -0.5300075514600766 a28.250928375106625,28.250928375106625 0 0,0 0.039720154421592366,-0.48468649140527564 l 7.221337308471287 0.6544079600731306" fill="#ff5a08" stroke="none" /><path d="M 79.08570108090925 98.10471618934814 l -7.2152105827856765 -0.6538527473906897 a28.244776543773643,28.244776543773643 0 0,0 0.04804688583841721,-0.4838255834562347 l 7.20288657126503 0.7779538615513547" fill="#ff5a08" stroke="none" /><path d="M 79.12142395522702 97.74499172005258 l -7.2090028321364725 -0.7786144534843411 a28.250928375106625,28.250928375106625 0 0,0 0.0563803064534101,-0.4830320348198987 l 7.194532172679474 0.9025902266291015" fill="#ff5a08" stroke="none" /><path d="M 79.21141760316559 97.0276538004421 l -7.186974907360494 -1.0275918359620282 a28.26006565399826,28.26006565399826 0 0,0 0.07299723870227605,-0.4809605975522253 l 7.168221775218916 1.1511515459063457" fill="#ff5a08" stroke="none" /><path d="M 79.26566170972629 96.67025291283419 l -10.110006397587261 -1.6235755336057796 a31.239542317534443,31.239542317534443 0 0,0 0.08983322892933919,-0.5302008023084939 l 10.080561307137698 1.7973621242301014" fill="#ff830c" stroke="none" /><path d="M 79.32604984820605 96.31383870115002 l -5.3548528769998125 -0.954769228488219 a26.43930451565098,26.43930451565098 0 0,0 0.08374243810405961,-0.4473554529073138 l 5.337624714985892 1.0468027588581055" fill="#ff4106" stroke="none" /><path d="M 79.3925641242962 95.95851677861259 l -8.882754243020152 -1.7420654587696347 a30.05196746594522,30.05196746594522 0 0,0 0.10392357316745801,-0.5067682504703156 l 8.8514513739377 1.8947093654033527" fill="#ff730a" stroke="none" /><path d="M 79.46518482838121 95.60439243477599 l -8.857909252449922 -1.8960917153006558 a30.058571637817394,30.058571637817394 0 0,0 0.11265610983798025,-0.5050152507604007 l 8.823958755609903 2.0482851356110157" fill="#ff730a" stroke="none" /><path d="M 79.54389044137918 95.25157060432595 l -16.32859776159196 -3.790319629404069 a37.76274523319232,37.76274523319232 0 0,0 0.15243057942295135,-0.6319231603822617 l 16.260934381908196 4.0708280214457275" fill="#ffd714" stroke="none" /><path d="M 79.62865764111835 94.90015583598534 l -6.1899653231391545 -1.54962093182343 a27.380987050136564,27.380987050136564 0 0,0 0.11839495529352441,-0.45622405908776453 l 6.162374035975323 1.655941416460058" fill="#ff4e07" stroke="none" /><path d="M 79.81627453868168 94.20196356495316 l -8.70654995204012 -2.5010691877586995 a30.058662105925233,30.058662105925233 0 0,0 0.14713586691432923,-0.4960689980775748 l 8.662208188014084 2.6505675725828133" fill="#ff730a" stroke="none" /><path d="M 79.91906864156998 93.8553929516997 l -8.659439907840943 -2.6497205006238524 a30.055767126474414,30.055767126474414 0 0,0 0.15563808838780868,-0.4934152721323094 l 8.61254633568493 2.7983859391825763" fill="#ff730a" stroke="none" /><path d="M 80.14247586403 93.16781622104843 l -12.844522700789607 -4.419289083765893 a34.58351498754987,34.58351498754987 0 0,0 0.19852077078651972,-0.5612449521079936 l 12.766548849193278 4.639731662300497" fill="#ffaf10" stroke="none" /><path d="M 80.2630227832202 92.82701384747504 l -6.834810303859233 -2.4839669786433505 a28.27218838044855,28.27218838044855 0 0,0 0.17016547068125226,-0.4559588604764676 l 6.791040244676354 2.6012489761491593" fill="#ff5a08" stroke="none" /><path d="M 80.52162464483688 92.15188598940014 l -17.73021705417955 -7.143756208445736 a40.11527790941127,40.11527790941127 0 0,0 0.26357325600151726,-0.6382635458508016 l 17.604622111291835 7.447894324749849" fill="#fff417" stroke="none" /><path d="M 80.65960295795068 91.81776055985345 l -8.34176788232657 -3.5291075989248597 a30.057576488631177,30.057576488631177 0 0,0 0.2056929990966912,-0.474767801568223 l 8.279784173387197 3.672174545079682" fill="#ff730a" stroke="none" /><path d="M 80.803312248108 91.48605970444005 l -8.283174849993122 -3.6736783471187366 a30.06128568105253,30.06128568105253 0 0,0 0.21386125856438198,-0.4712149348625471 l 8.218711274465388 3.8157152908233547" fill="#ff730a" stroke="none" /><path d="M 80.95270993114464 91.15688171328213 l -8.215346985704878 -3.814153346664772 a30.057576488631177,30.057576488631177 0 0,0 0.22191337845414674,-0.4674061699917777 l 8.14847541340898 3.9550019322970824" fill="#ff730a" stroke="none" /><path d="M 81.26839172434947 90.50648371742162 l -4.854824608530224 -2.4605125086913158 a26.442742303748826,26.442742303748826 0 0,0 0.20926353963147856,-0.4042305513211405 l 4.811751635738632 2.543715782272792" fill="#ff4106" stroke="none" /><path d="M 81.43458229118936 90.18545643968196 l -5.117674809946607 -2.7054410052905338 a26.788782816229116,26.788782816229116 0 0,0 0.21901985911151983,-0.40581053558184565 l 5.070346851616615 2.7931325242048524" fill="#ff4606" stroke="none" /><line stroke="#e1ed5e" stroke-width="0.3" x1="26.266209847984243" x2="21.928928074336255" y1="57.711370442889674" y2="55.22380399835377" /><path d="M 25.398753493254645 57.213857153982495 a86.0,86.0 0 0,1 29.58750427330803,-30.492523968695096" fill="none" id="id83" stroke="none" /><text fill="#e1ed5e" style="font-size:6.75px; font-family:Arial;" text-anchor="middle"><textPath startOffset="21.46611528233685" xlink:href="#id83">November</textPath></text><path d="M 81.78341655067845 89.55222093294921 l -6.598122083129884 -3.784228912833673 a28.60628710269423,28.60628710269423 0 0,0 0.24865718856767374,-0.42503573867409233 l 6.532005220091886 3.897244063861657" fill="#ff5f08" stroke="none" /><path d="M 82.15384107792192 88.93136811851018 l -32.71185877049703 -20.288708874041237 a59.49282286344486,59.49282286344486 0 0,0 0.5472557904116568,-0.8656272366689084 l 32.35777538383941 20.84878375842436" fill="#35ff2f" stroke="none" /><path d="M 82.54541684631803 88.32363383020206 l -7.527489190205497 -5.035566839388791 a30.05649087133712,30.05649087133712 0 0,0 0.2913698185359563,-0.4275492555543109 l 7.4396949060008 5.164394118213518" fill="#ff730a" stroke="none" /><path d="M 83.17141714833178 87.43820079747576 l -5.8128592792136935 -4.339044570872686 a28.2537328864496,28.2537328864496 0 0,0 0.2942748171784697,-0.38723116490052867 l 5.737308521811115 4.438460511654242" fill="#ff5a08" stroke="none" /><path d="M 83.39014120810768 87.1503855733568 l -8.30278273523708 -6.423146527173568 a31.497285956764863,31.497285956764863 0 0,0 0.33543997507596585,-0.42597470388367037 l 8.190988679567145 6.565113625010286" fill="#ff860c" stroke="none" /><path d="M 83.6137871275137 86.86637796730984 l -5.864138827750057 -4.700133185759479 a28.515276186209217,28.515276186209217 0 0,0 0.31027540987652097,-0.38036096513118445 l 5.782364925797143 4.800378320498745" fill="#ff5e08" stroke="none" /><path d="M 83.84228863543731 86.58626213691792 l -5.5825217831605585 -4.634473417967754 a28.25554224860636,28.25554224860636 0 0,0 0.31389133889362003,-0.371548338825193 l 5.501919830779814 4.729880706422062" fill="#ff5a08" stroke="none" /><path d="M 84.07557802195018 86.31012108654704 l -5.4986955136720015 -4.727108831195108 a28.251290247537977,28.251290247537977 0 0,0 0.32019223539704555,-0.3660350758833613 l 5.416511414697112 4.821059463281412" fill="#ff5a08" stroke="none" /><path d="M 84.5562425177563 85.77008943001954 l -5.326534830343999 -4.907880376315605 a28.242876713509045,28.242876713509045 0 0,0 0.3325029545304328,-0.3546909687950038 l 5.24126455384311 4.998840761988659" fill="#ff5a08" stroke="none" /><path d="M 84.80347519578584 85.50635884689758 l -6.552431759493494 -6.249362655332511 a30.054771977288198,30.054771977288198 0 0,0 0.3602790549017871,-0.37129923549930305 l 6.443888440888588 6.361226086381937" fill="#ff730a" stroke="none" /><path d="M 85.31137513191541 84.99185889309783 l -5.06976059201124 -5.1800412241747535 a28.248123863763645,28.248123863763645 0 0,0 0.3504337906200993,-0.33711702892820344 l 4.979843557778713 5.26654133986527" fill="#ff5a08" stroke="none" /><path d="M 85.57189188830299 84.74124197986013 l -3.740321350169649 -3.955657800590786 a26.44400885725856,26.44400885725856 0 0,0 0.3334364317267172,-0.30989282407489205 l 3.671677034648076 4.019455210740325" fill="#ff4106" stroke="none" /><path d="M 86.10567301691215 84.25364557470407 l -5.993464587407641 -6.792356171238391 a30.058571637817394,30.058571637817394 0 0,0 0.39091344371943526,-0.3389962862684517 l 5.875657345041432 6.894517450926523" fill="#ff730a" stroke="none" /><path d="M 86.37877921826538 84.01681056812374 l -4.7016408015255635 -5.516922218322039 a28.248576204302836,28.248576204302836 0 0,0 0.37280380888851206,-0.312212468680542 l 4.60597945567794 5.597035844396393" fill="#ff5a08" stroke="none" /><path d="M 86.65592168130627 83.78471172551755 l -4.608163937278927 -5.599690355112257 a28.25201399240068,28.25201399240068 0 0,0 0.3781688150939052,-0.30578621526100175 l 4.511091723620521 5.678182667637393" fill="#ff5a08" stroke="none" /><path d="M 86.93701828274178 83.55741782278169 l -6.0265880387500825 -7.585761904915809 a30.688320136477607,30.688320136477607 0 0,0 0.4164367702734081,-0.32503550460898994 l 5.895118713317249 7.68837579874802" fill="#ff7b0b" stroke="none" /><path d="M 87.22198572758235 83.33499621200491 l -4.408664290296586 -5.749751528794496 a28.245409820528508,28.245409820528508 0 0,0 0.3883795583022929,-0.2925194313606369 l 4.309038578235904 5.824787549660987" fill="#ff5a08" stroke="none" /><path d="M 87.51073957382395 83.11751280151077 l -2.92278372147524 -3.9509031822524454 a25.914499022082836,25.914499022082836 0 0,0 0.36089602920730807,-0.26220631340737494 l 2.85434237591415 4.000628730476488" fill="#ff3905" stroke="none" /><path d="M 87.80319425747018 82.90503203632743 l -3.158991918383273 -4.427623656737972 a26.43903311132747,26.43903311132747 0 0,0 0.3727511620847903,-0.2611360099978721 l 3.0823096167148223 4.481344509499786" fill="#ff4106" stroke="none" /><path d="M 88.09926311788651 82.69761687909137 l -2.780953752257318 -4.0432057056402435 a25.9072615734558,25.9072615734558 0 0,0 0.3696044737232955,-0.24955859053679244 l 2.7109445841274833 4.090476208475701" fill="#ff3905" stroke="none" /><path d="M 88.39885842347998 82.49532879139004 l -6.508605961892262 -9.820672098331405 a32.78166168374073,32.78166168374073 0 0,0 0.4730440209408203,-0.3076809897954022 l 6.338594915167155 9.931252012286341" fill="#ff970d" stroke="none" /><path d="M 88.70189139769569 82.29822771554957 l -2.4388721032726384 -3.8212023023239183 a25.53317594754573,25.53317594754573 0 0,0 0.37251790902084464,-0.2332706804539953 l 2.3727350418795514 3.8626173241008437" fill="#ff3404" stroke="none" /><line stroke="#e1ed5e" stroke-width="0.3" x1="56.762969772571076" x2="54.21961505331055" y1="26.818313649435495" y2="22.513508569990535" /><path d="M 56.25429882871897 25.957352633546506 a86.0,86.0 0 0,1 42.265352541879196,-11.944610805530505" fill="none" id="id84" stroke="none" /><text fill="#e1ed5e" style="font-size:6.75px; font-family:Arial;" text-anchor="middle"><textPath startOffset="22.20632615414155" xlink:href="#id84">December</textPath></text><path d="M 89.3179101791058 81.91981866633112 l -5.53018093641522 -9.360216569496695 a31.871823923214116,31.871823923214116 0 0,0 0.47474336502244546,-0.27500199958489685 l 5.368240838927454 9.454022726471639" fill="#ff8b0c" stroke="none" /><path d="M 89.63071344664047 81.73862282372117 l -3.5805991732271814 -6.305802398544883 a28.25147118375365,28.25147118375365 0 0,0 0.42495043786776376,-0.2364844585893351 l 3.471524646287372 6.366502254694403" fill="#ff5a08" stroke="none" /><path d="M 89.94658935756843 81.56283822128135 l -4.336731406425641 -7.953223177182461 a30.058752574033072,30.058752574033072 0 0,0 0.4563991501624047,-0.24379261991324427 l 4.199187209734931 8.026694523597454" fill="#ff730a" stroke="none" /><path d="M 90.26544431104013 81.39251694778311 l -1.3096773914435136 -2.5034321692560675 a23.82531900778026,23.82531900778026 0 0,0 0.3650260247907324,-0.18698050758553492 l 1.2663908790640175 2.5256052021541073" fill="#ff1c02" stroke="none" /><path d="M 90.58718382345135 81.22770947309562 l -13.22346459404089 -26.371992661455398 a50.50155949785893,50.50155949785893 0 0,0 0.7804384341827498,-0.38295775024656753 l 12.767554892847713 26.595705571836795" fill="#92ff23" stroke="none" /><path d="M 90.91171255644093 81.06846463323043 l -8.865314588337895 -18.46706738854328 a41.484784125862674,41.484784125862674 0 0,0 0.6464154888340187,-0.3035007394929738 l 8.54612088820427 18.61693311067626" fill="#f9ff18" stroke="none" /><path d="M 91.23893434514133 80.91482961587045 l -3.0271545231811174 -6.594375859055474 a28.25599458914555,28.25599458914555 0 0,0 0.44377772742887006,-0.1991101304870717 l 2.913194677285473 6.6455063200590745" fill="#ff5a08" stroke="none" /><path d="M 91.56875222667455 80.76684994638697 l -2.9107247908936595 -6.639872077433752 a28.24984275781257,28.24984275781257 0 0,0 0.447041980394807,-0.19140004583612566 l 2.7959990527085443 6.688991651232665" fill="#ff5a08" stroke="none" /><path d="M 91.90106846888425 80.62456947434976 l -8.554877169470018 -20.466209353137025 a43.182237233226786,43.182237233226786 0 0,0 0.6882757785343918,-0.28076497163977776 l 8.201317521347244 20.61043521096038" fill="#e5ff1a" stroke="none" /><path d="M 92.23578459929587 80.48803036053334 l -14.163473398653158 -35.593714069144866 a59.30817745534753,59.30817745534753 0 0,0 0.9518025836018463,-0.36928461529717127 l 13.548687650051637 35.83224138833259" fill="#37ff2e" stroke="none" /><path d="M 92.57280143429618 80.3572730644239 l -20.06894798675536 -53.07638697158753 a77.74385893867986,77.74385893867986 0 0,0 1.2558138578402105,-0.4625268420916617 l 19.152351803142583 53.41397708148551" fill="#45fff1" stroke="none" /><path d="M 92.91201910852362 80.23233633223022 l -19.952645140315948 -55.645914464926314 a80.1149375770056,80.1149375770056 0 0,0 1.302127139922788,-0.45428659118245224 l 18.991835996329876 55.98112190928098" fill="#48f6ff" stroke="none" /><path d="M 93.59665428221793 80.00007090966166 l -2.210217147584225 -6.903295273153758 a28.248485736195,28.248485736195 0 0,0 0.4643709749955644,-0.14428232237319932 l 2.091060799877932 6.940317730409483" fill="#ff5a08" stroke="none" /><path d="M 93.94186890950719 79.89281104454417 l -2.0534007223184116 -6.815322367276 a28.117940256584788,28.117940256584788 0 0,0 0.4646285869763493,-0.13563782549315379 l 1.9357819176186413 6.849658521687853" fill="#ff5808" stroke="none" /><path d="M 94.28887869178378 79.79150937346287 l -9.857039217137281 -34.878594565721635 a57.24469038367094,57.24469038367094 0 0,0 0.9505402079771682,-0.25981854570454044 l 9.255201119936391 35.04309965225247" fill="#4bff2c" stroke="none" /><path d="M 94.63758080256005 79.69619591428918 l -14.582321485993008 -55.21325127058367 a78.10645511489452,78.10645511489452 0 0,0 1.3028569982415052,-0.3321272581729167 l 13.629755599066504 55.456081524925445" fill="#46fff5" stroke="none" /><path d="M 94.98787191387505 79.60689891045804 l -13.575451031130966 -55.23512976062416 a77.87892782368198,77.87892782368198 0 0,0 1.3045696234821795,-0.3087494809241708 l 12.622657720686252 55.4606251536892" fill="#45fff2" stroke="none" /><path d="M 95.33964822691252 79.52364482259891 l -10.568216871370495 -46.433954513828624 a68.62141681672885,68.62141681672885 0 0,0 1.154007267986749,-0.25222129141850774 l 9.767366879230226 46.608989303343" fill="#3aff92" stroke="none" /><path d="M 95.692805502759 79.44645832069477 l -12.921583491723013 -61.66062503791566 a84.0,84.0 0 0,0 1.4177343621314544,-0.28438417569115737 l 11.858282720124423 61.87391316968403" fill="#4dd2ff" stroke="none" /><path d="M 96.40284397218896 79.31037775812273 l -8.3518435973424 -48.036973574762314 a69.75760578306611,69.75760578306611 0 0,0 1.184785744404612,-0.19549979946274895 l 7.523728646798903 48.17361963716469" fill="#3bff9e" stroke="none" /><path d="M 96.75951476605007 79.25152402106235 l -7.285389105346299 -46.64755736758523 a68.2130437779482,68.2130437779482 0 0,0 1.1616714473510872,-0.1712001742508175 l 6.481348677566563 46.76605202599701" fill="#39ff8e" stroke="none" /><path d="M 97.11714578562143 79.19881850522333 l -6.242313433500218 -45.04129762437906 a66.47180410639051,66.47180410639051 0 0,0 1.1347220353167569,-0.1473194869245923 l 5.466076669675603 45.14207543446779" fill="#37ff7a" stroke="none" /><path d="M 97.47563105711357 79.15227682838746 l -5.600524225058907 -46.25242240796772 a67.5902613235915,67.5902613235915 0 0,0 1.1562224945673043,-0.12991506919046927 l 4.803535026981884 46.34197343062879" fill="#39ff87" stroke="none" /><path d="M 97.83486435360386 79.11191278185805 l -0.8178371169608764 -7.89006132606388 a28.932334163342325,28.932334163342325 0 0,0 0.4958104800007444,-0.04708317933033635 l 0.6819015098698956 7.902970049909397" fill="#ff6309" stroke="none" /><path d="M 98.19473922651362 79.07773832637324 l -4.52717399576241 -52.46816436301089 a73.6631139984319,73.6631139984319 0 0,0 1.2642337603407443,-0.09812887145178822 l 3.6233500460593313 52.53831849665114" fill="#40ffc8" stroke="none" /><path d="M 98.55514903715128 79.0497635885617 l -4.31170924744754 -62.5194780597374 a83.6679820442346,83.6679820442346 0 0,0 1.4376468199316585,-0.08672278222143878 l 3.2349003786762585 62.58443411133914" fill="#4dd5ff" stroke="none" /><path d="M 98.91598698831166 79.02799685794201 l -0.7159335136214988 -13.850903757870663 a34.8693942083179,34.8693942083179 0 0,0 0.599685780350696,-0.0258237311744524 l 0.47740690088147875 13.861175215569308" fill="#ffb210" stroke="none" /><path d="M 99.27714615592234 79.0124445844662 l -1.9585587980150814 -56.86538384584771 a77.89910221172984,77.89910221172984 0 0,0 1.3405076515024217,-0.03462135775550697 l 0.9794245113177807 56.89067199574558" fill="#45fff3" stroke="none" /><path d="M 99.63851952072746 79.00311137660856 l -0.9586506661065778 -55.68400624423113 a76.69225765317113,76.69225765317113 0 0,0 1.3201311453790998,-0.011362785548554598 l 1.3640669014449141e-14 55.692257653171126" fill="#44ffe7" stroke="none" /></svg>