<?xml version="1.0" encoding="utf-8" ?>
<svg baseProfile="full" height="200mm" version="1.1" viewBox="0,0,200,200" width="200mm" xmlns="http://www.w3.org/2000/svg" xmlns:ev="http://www.w3.org/2001/xml-events" xmlns:xlink="http://www.w3.org/1999/xlink"><defs /><rect fill="#1a1a1a" height="200" width="200" x="0" y="0" /><text alignment-baseline="middle" fill="#e1ed5e" style="dominant-baseline: central; font-size:9.0px; font-family:Arial;" text-anchor="middle" x="100.0" y="100.0">2017</text><line stroke="#e1ed5e" stroke-width="0.3" x1="100.0" x2="100.0" y1="15.0" y2="10.0" /><path d="M 100.0 14.0 a86.0,86.0 0 0,1 42.46469731375804,11.215312516191453" fill="none" id="id49" stroke="none" /><text fill="#e1ed5e" style="font-size:6.75px; font-family:Arial;" text-anchor="middle"><textPath startOffset="22.20632615414155" xlink:href="#id49">January</textPath></text><path d="M 100.36148047927253 79.00311137660856 l 0.24565718186070443 -14.269197876039845 a35.27131232496086,35.27131232496086 0 0,0 0.6069577531411351,0.015675928063838662 l -0.4912415701967073 14.262855155833646" fill="#ffb110" stroke="none" /><path d="M 102.16513564639614 79.11191278185805 l 0.8313811488397751 -8.020727004975376 a29.063699913996516,29.063699913996516 0 0,0 0.49717374896709915,0.05586326360214525 l -0.9693216013165996 8.00522778790263" fill="#ff5e08" stroke="none" /><path d="M 102.88285421437855 79.19881850522331 l 0.43808296891266596 -3.1609795946921766 a24.191192361126426,24.191192361126426 0 0,0 0.41197718041695985,0.060714727245447415 l -0.4924291297582816 3.1529703832857603" fill="#ff1902" stroke="none" /><path d="M 103.2404852339499 79.25152402106235 l 1.0737184572896619 -6.8749029885445045 a27.9582442057909,27.9582442057909 0 0,0 0.47485186456393497,0.07835462634082761 l -1.1918995279924718 6.855402099264052" fill="#ff4f07" stroke="none" /><path d="M 103.59715602781102 79.31037775812273 l 0.8323663729777913 -4.787489252789432 a25.859309325864995,25.859309325864995 0 0,0 0.43789031243746895,0.08002165567350927 l -0.9146518065181611 4.772452115765184" fill="#ff3104" stroke="none" /><path d="M 103.95276090670814 79.375362276772 l 1.5009630440154798 -7.831695300931759 a28.97422982777251,28.97422982777251 0 0,0 0.48902096718010124,0.09809300554592262 l -1.6355504206627063 7.804698339308628" fill="#ff5d08" stroke="none" /><path d="M 104.307194497241 79.44645832069477 l 0.9222945131466218 -4.401105807665813 a25.4967054049882,25.4967054049882 0 0,0 0.4287784297088406,0.09371435715672141 l -0.9979156670089904 4.3845779524132205" fill="#ff2c04" stroke="none" /><path d="M 104.66035177308747 79.52364482259891 l 1.2353780968697512 -5.427925169933738 a26.566734293338037,26.566734293338037 0 0,0 0.4450260875788925,0.105323296713703 l -1.3286278714111672 5.405855961079167" fill="#ff3b05" stroke="none" /><path d="M 105.01212808612495 79.60689891045804 l 1.3791945814339284 -5.6115993123144285 a26.778600568946125,26.778600568946125 0 0,0 0.4466812263217123,0.1138689903617876 l -1.4755846964406658 5.587027325783773" fill="#ff3e05" stroke="none" /><path d="M 106.0581310904928 79.89281104454417 l 3.925888576769497 -13.030187404668505 a34.60876132930514,34.60876132930514 0 0,0 0.5689262211066562,0.17676814628877652 l -4.149600170586871 12.960679123497208" fill="#ffa90f" stroke="none" /><path d="M 106.40334571778207 80.00007090966166 l 4.229792025243814 -13.21114684419324 a34.8717533684698,34.8717533684698 0 0,0 0.5700986642819773,0.187952566301311 l -4.456573511768208 13.136380553632693" fill="#ffac0f" stroke="none" /><path d="M 106.74666289553966 80.11325718540242 l 2.2380615095003735 -6.597002745180717 a27.966302070699275,27.966302070699275 0 0,0 0.4545429607872475,0.15858111383367604 l -2.351286474350895 6.557500778174833" fill="#ff4f07" stroke="none" /><path d="M 107.4271985657038 80.35727306442388 l 3.679777497423585 -9.731914924065284 a31.404370741173615,31.404370741173615 0 0,0 0.5039905539222568,0.1955405049587946 l -3.846751216345509 9.667131715215943" fill="#ff7e0b" stroke="none" /><path d="M 107.76421540070413 80.48803036053334 l 3.6047176774027934 -9.05888595954633 a30.749738681720952,30.749738681720952 0 0,0 0.490115882986377,0.19993057474708054 l -3.7601174299775577 8.99549449861567" fill="#ff750a" stroke="none" /><path d="M 108.09893153111575 80.62456947434976 l 3.289366030111747 -7.869295195916286 a29.529111076807727,29.529111076807727 0 0,0 0.46728586803986294,0.2000674220403517 l -3.4243356559419253 7.811508245913144" fill="#ff6409" stroke="none" /><path d="M 108.76106565485865 80.91482961587045 l 5.816882367885071 -12.671539681244028 a34.94288486559199,34.94288486559199 0 0,0 0.5444796803843438,0.25564051061588594 l -6.034140259569013 12.569534187988138" fill="#ffad10" stroke="none" /><path d="M 109.73455568895987 81.39251694778311 l 2.6229654794516484 -5.013766140430955 a26.65842723884711,26.65842723884711 0 0,0 0.4047700750890951,0.21621415603717936 l -2.7088806010690547 4.9678732578920215" fill="#ff3c05" stroke="none" /><path d="M 110.05341064243156 81.56283822128135 l 5.031205822594951 -9.226834453743033 a31.509400842393102,31.509400842393102 0 0,0 0.47395527113739555,0.2637555952474764 l -5.189285182804382 9.138863460935378" fill="#ff7f0b" stroke="none" /><path d="M 110.36928655335952 81.73862282372117 l 4.812741989926858 -8.475732277038354 a30.7468211789093,30.7468211789093 0 0,0 0.4579860062412893,0.26529505576618767 l -4.957924728633475 8.391633063882116" fill="#ff750a" stroke="none" /><line stroke="#e1ed5e" stroke-width="0.3" x1="143.23703022742887" x2="145.7803849466894" y1="26.81831364943548" y2="22.513508569990506" /><path d="M 143.74570117128098 25.957352633546492 a86.0,86.0 0 0,1 28.547481713284135,27.462654790039103" fill="none" id="id50" stroke="none" /><text fill="#e1ed5e" style="font-size:6.75px; font-family:Arial;" text-anchor="middle"><textPath startOffset="19.985693538727396" xlink:href="#id50">February</textPath></text><path d="M 110.68208982089419 81.91981866633111 l 11.177785712796805 -18.91918117005143 a42.97449224866033,42.97449224866033 0 0,0 0.6336444278676827,0.38176367789438437 l -11.501792206882124 18.72397088269843" fill="#ecff1a" stroke="none" /><path d="M 110.99172775467656 82.1063720568725 l 3.2407259958646586 -5.275635143979229 a27.191496681147598,27.191496681147598 0 0,0 0.3967120857827044,0.2484210717226928 l -3.3310572340196263 5.219069730933592" fill="#ff4406" stroke="none" /><path d="M 111.2981086023043 82.29822771554956 l 2.065635186450799 -3.2364181457631522 a24.839433700134517,24.839433700134517 0 0,0 0.358436546285045,0.23313710026498044 l -2.1210387585201245 3.200382121338644" fill="#ff2203" stroke="none" /><path d="M 111.90073688211348 82.69761687909136 l 4.730875549712107 -6.878180911762272 a29.348086973779964,29.348086973779964 0 0,0 0.41376450789175867,0.2898684797259174 l -4.848571197187517 6.795727589272419" fill="#ff6209" stroke="none" /><path d="M 112.19680574252982 82.90503203632743 l 4.207490497531092 -5.897192820899347 a28.244298410038148,28.244298410038148 0 0,0 0.3933417788722331,0.2857795303919562 l -4.308377592757114 5.823894055690716" fill="#ff5307" stroke="none" /><path d="M 112.48926042617603 83.11751280151076 l 8.280720902188374 -11.193550286809206 a34.92357377555295,34.92357377555295 0 0,0 0.48020553581875175,0.36168085387387655 l -8.47217259176551 11.049352843429482" fill="#ffad10" stroke="none" /><path d="M 112.77801427241765 83.33499621200491 l 8.498632016648743 -11.083861054682547 a34.967058460317105,34.967058460317105 0 0,0 0.47449872871559,0.37035378413663905 l -8.688163300523764 10.935928881322685" fill="#ffae10" stroke="none" /><path d="M 113.06298171725822 83.55741782278167 l 8.689286762466066 -10.937343000679897 a34.96886453348623,34.96886453348623 0 0,0 0.46807757030579433,0.37848617590752603 l -8.876267731336352 10.786150727508241" fill="#ffae10" stroke="none" /><path d="M 113.34407831869373 83.78471172551755 l 1.3286990723178551 -1.614591729238331 a23.091015943722848,23.091015943722848 0 0,0 0.30473814441712577,0.25520943214947317 l -1.3562947536940981 1.5914811396950383" fill="#ff0901" stroke="none" /><path d="M 113.6212207817346 84.01681056812373 l 5.705881835702386 -6.6953022579463255 a29.79682669195316,29.79682669195316 0 0,0 0.38750943572476343,0.3360443640791258 l -5.820285070073914 6.596092900447529" fill="#ff6809" stroke="none" /><path d="M 113.89432698308785 84.25364557470407 l 3.7425244654536467 -4.241379719226791 a26.65648223697268,26.65648223697268 0 0,0 0.3414428967184912,0.3065508039501199 l -3.8149783497681278 4.176329906507374" fill="#ff3c05" stroke="none" /><path d="M 114.16331599549186 84.49514656593476 l 6.668130523424998 -7.299730266402977 a30.886861313868614,30.886861313868614 0 0,0 0.38945701763020707,0.36195785332817476 l -6.792795424850052 7.183867827000162" fill="#ff770b" stroke="none" /><path d="M 114.94478906791727 85.2469230424477 l 5.0134762876658785 -4.94916329435395 a28.044796789203254,28.044796789203254 0 0,0 0.3361846461441316,0.3464678293162151 l -5.097925197513119 4.86213126948762" fill="#ff5007" stroke="none" /><path d="M 115.19652480421416 85.50635884689758 l 7.390322656566803 -7.048498651495523 a31.21264912783646,31.21264912783646 0 0,0 0.3674660396319668,0.3919871502507135 l -7.510556018169233 6.9202420843667545" fill="#ff7b0b" stroke="none" /><path d="M 115.9244219780498 86.31012108654704 l 10.658620491665822 -9.162984007613138 a35.05583390301453,35.05583390301453 0 0,0 0.38943590404437034,0.46096927598123855 l -10.81476700919731 8.978155782002792" fill="#ffaf10" stroke="none" /><path d="M 116.15771136456269 86.58626213691792 l 6.780380992561203 -5.628906915958004 a29.81238670694864,29.81238670694864 0 0,0 0.3243893008256661,0.3976629265895873 l -6.876268785463278 5.511359819760316" fill="#ff6809" stroke="none" /><path d="M 116.38621287248628 86.86637796730983 l 5.497242517236726 -4.4060641714626225 a28.045074646613887,28.045074646613887 0 0,0 0.298674595435851,0.37928640532348323 l -5.572271193266541 4.310785372186101" fill="#ff5007" stroke="none" /><path d="M 116.60985879189232 87.15038557335679 l 5.524471193876461 -4.273806637480895 a27.984640659801087,27.984640659801087 0 0,0 0.29147210554671604,0.38354312492330433 l -5.59721923964729 4.178078736676557" fill="#ff4f07" stroke="none" /><path d="M 117.04232023915458 87.72973835380427 l 23.981427493520393 -17.266333801116538 a50.55055240699495,50.55055240699495 0 0,0 0.5023458261563,0.7105325459111331 l -24.275085939480572 16.85097475487361" fill="#95ff23" stroke="none" /><line stroke="#e1ed5e" stroke-width="0.3" x1="172.23445277983987" x2="176.4835382374775" y1="55.19839476539836" y2="52.563006222186495" /><path d="M 173.08426987136738 54.67131705675599 a86.0,86.0 0 0,1 12.851231095245387,41.99856678651699" fill="none" id="id51" stroke="none" /><text fill="#e1ed5e" style="font-size:6.75px; font-family:Arial;" text-anchor="middle"><textPath startOffset="22.20632615414155" xlink:href="#id51">March</textPath></text><path d="M 119.04729006885535 91.15688171328212 l 4.08512644767386 -1.8966087176909627 a25.503929697664674,25.503929697664674 0 0,0 0.18143942881718042,0.3997777306909769 l -4.117168193454386 1.826008978157923" fill="#ff2c04" stroke="none" /><path d="M 119.196687751892 91.48605970444005 l 7.133766364253055 -3.163903153122763 a28.803903235054136,28.803903235054136 0 0,0 0.19711373750808295,0.4549656829672465 l -7.187170811603819 3.0406383255689136" fill="#ff5a08" stroke="none" /><path d="M 119.34039704204932 91.81776055985345 l 8.04737428248633 -3.4045600563742933 a29.737920920898844,29.737920920898844 0 0,0 0.19538991257987054,0.4731521715010014 l -8.104785881952399 3.2655333144199887" fill="#ff6709" stroke="none" /><path d="M 119.7369772167798 92.82701384747503 l 6.542359429157953 -2.377681905124464 a27.961022779897238,27.961022779897238 0 0,0 0.16050548350111174,0.453770615758499 l -6.582317993468874 2.2647136629393505" fill="#ff4f07" stroke="none" /><path d="M 119.85752413597 93.16781622104841 l 6.618838987425252 -2.2772790835220698 a27.999644959975303,27.999644959975303 0 0,0 0.15288166974001843,0.4570967333764382 l -6.657057950937041 2.1630092472233176" fill="#ff4f07" stroke="none" /><path d="M 119.97218684219823 93.5106431181261 l 6.655076015179659 -2.1623652772590756 a27.99756102939555,27.99756102939555 0 0,0 0.14498005856246393,0.4596264050166804 l -6.691311557510328 2.0474887058159763" fill="#ff4f07" stroke="none" /><path d="M 120.08093135843002 93.85539295169968 l 1.5401122714067912 -0.4712622412350027 a22.610600480737425,22.610600480737425 0 0,0 0.11067792343729127,0.3731509368875417 l -1.5479960919557847 0.4446819176009311" fill="#ff0200" stroke="none" /><path d="M 120.18372546131832 94.20196356495316 l 6.896881406504636 -1.9812184702842832 a28.175806558316978,28.175806558316978 0 0,0 0.12989480118133873,0.46730071149123653 l -6.9299629782523375 1.8622064553740947" fill="#ff5207" stroke="none" /><path d="M 120.45610955862082 95.25157060432595 l 7.095920227997824 -1.6471595492498288 a28.284587734580015,28.284587734580015 0 0,0 0.10600741981165568,0.4752104770494839 l -7.123222034811517 1.524770902650381" fill="#ff5307" stroke="none" /><path d="M 120.53481517161879 95.60439243477599 l 13.849215148888614 -2.964512432768633 a35.16294793481377,35.16294793481377 0 0,0 0.12159800174907055,0.5929550411798115 l -13.898192446552681 2.7256817354254097" fill="#ffb010" stroke="none" /><path d="M 120.83666639777658 97.38593545837742 l 17.08283160966191 -2.143127097628803 a38.216739806381895,38.216739806381895 0 0,0 0.07626905117329319,0.6534266537281559 l -17.117191013838788 1.848756705575794" fill="#ffd714" stroke="none" /><path d="M 120.87857604477298 97.74499172005257 l 9.097353655392089 -0.9825673826858066 a30.15026131827905,30.15026131827905 0 0,0 0.051288285510516424,0.5164660358019302 l -9.112919066584835 0.8258258161794414" fill="#ff6d0a" stroke="none" /><path d="M 120.91429891909075 98.10471618934814 l 7.0944980510929865 -0.6429136043696895 a28.12356936511787,28.12356936511787 0 0,0 0.03954109058777855,0.4825014590806626 l -7.10451362550026 0.5206982280812581" fill="#ff5107" stroke="none" /><path d="M 120.96714384426684 98.82574320788733 l 7.041403772905715 -0.3943510984498339 a28.05243786799568,28.05243786799568 0 0,0 0.022851237722639667,0.48235351172769597 l -7.047148618861851 0.27308648009913816" fill="#ff5007" stroke="none" /><path d="M 120.98425023603335 99.18683210126433 l 14.225625224514145 -0.5512620961865707 a35.23630229122103,35.23630229122103 0 0,0 0.018269696457146118,0.6062822815321458 l -14.233006615426937 0.3063096672294258" fill="#ffb110" stroke="none" /><line stroke="#e1ed5e" stroke-width="0.3" x1="184.98032266829074" x2="189.97916517819016" y1="98.17113171792111" y2="98.06355123074" /><path d="M 185.9800911702706 98.14961562048488 a86.0,86.0 0 0,1 -9.607161424134198,41.387399972396054" fill="none" id="id52" stroke="none" /><text fill="#e1ed5e" style="font-size:6.75px; font-family:Arial;" text-anchor="middle"><textPath startOffset="21.466115282336823" xlink:href="#id52">April</textPath></text><path d="M 120.99513854157772 99.54816195383933 l 7.11553103190829 -0.15313390918979086 a28.117178644673295,28.117178644673295 0 0,0 0.006248698695457646,0.4839686002707646 l -7.117112737721463 0.030629050858563548" fill="#ff5107" stroke="none" /><path d="M 120.99980553446 99.90962569577887 l 7.044036915432499 -0.03031456334657612 a28.04410214567667,28.04410214567667 0 0,0 -0.002077537415308741,0.4827465294261821 l -7.043515080727687 -0.09094144428329073" fill="#ff5007" stroke="none" /><path d="M 120.9764740272857 100.99374915477107 l 6.954473412155573 0.32946443078173054 a27.962273138245088,27.962273138245088 0 0,0 -0.02691521798112148,0.4805892976736617 l -6.947771843286922 -0.44912544479081556" fill="#ff4f07" stroke="none" /><path d="M 120.95626037817324 101.35467743843564 l 6.985897661559338 0.45159001551591166 a28.0004785322072,28.0004785322072 0 0,0 -0.03523185723172615,0.4807107000860086 l -6.977089245663273 -0.5717738520986905" fill="#ff4f07" stroke="none" /><path d="M 120.92983693683757 101.71520430193887 l 7.212340483599768 0.5910527378617675 a28.236518402540412,28.236518402540412 0 0,0 -0.043867991076793934,0.4840796260716826 l -7.2010978962459 -0.7151137524820207" fill="#ff5207" stroke="none" /><path d="M 120.89721153311464 102.0752229133903 l 1.4886619211099636 0.1478333759546612 a22.49598429885108,22.49598429885108 0 0,0 -0.04158296837856533,0.3850066428490029 l -1.4858966512303464 -0.17343634068845548" fill="#ff0000" stroke="none" /><path d="M 120.70491114924044 103.5080841355445 l 7.013333775678168 1.1882864301321845 a28.113288640924427,28.113288640924427 0 0,0 -0.08494705627675853,0.47642820392999086 l -6.991840277062221 -1.3088333847953937" fill="#ff5107" stroke="none" /><path d="M 120.64145759157962 103.86396538481128 l 7.05411013832158 1.3204899544613515 a28.17664013054888,28.17664013054888 0 0,0 -0.09334527344775607,0.4759655382694611 l -7.030334931898159 -1.4417192197987576" fill="#ff5207" stroke="none" /><path d="M 120.49622156327973 104.57218783832717 l 1.8816640569406984 0.4197515864277643 a22.92791364368095,22.92791364368095 0 0,0 -0.08924355645845891,0.3844589055021681 l -1.8741599345516866 -0.45207914927849724" fill="#ff0601" stroke="none" /><path d="M 120.41448212921028 104.9243191809786 l 30.513273930469968 7.360318970583661 a52.38844024963063,52.38844024963063 0 0,0 -0.21900534836413363,0.8748175015684951 l -30.382057267810772 -7.884464311549552" fill="#81ff25" stroke="none" /><path d="M 120.13307415673323 105.97154293290107 l 6.707088113236543 1.9893466994233355 a27.99589388493175,27.99589388493175 0 0,0 -0.14101028822785974,0.46082978072931946 l -6.671851052502551 -2.104503452704712" fill="#ff4f07" stroke="none" /><path d="M 120.02730092923936 106.31721596034902 l 13.901102958485879 4.384827979869839 a35.57626083313119,35.57626083313119 0 0,0 -0.1892449530918068,0.582436076624161 l -13.823565754377826 -4.623462956471795" fill="#ffb510" stroke="none" /><path d="M 119.9155931802556 106.66101706037122 l 6.63621803406916 2.219565399894884 a27.99756102939555,27.99756102939555 0 0,0 -0.15679856610873308,0.4557300288938393 l -6.597028637017196 -2.333468131878024" fill="#ff4f07" stroke="none" /><path d="M 119.54520255179757 107.68017299344265 l 13.187871877701184 5.1820970986451735 a35.169477583963655,35.169477583963655 0 0,0 -0.22625259426317748,0.5615403841210006 l -13.096716669180614 -5.408336850608988" fill="#ffb010" stroke="none" /><path d="M 119.41010516605496 108.01547362559984 l 6.495388997824937 2.6822945447574247 a28.027430701038657,28.027430701038657 0 0,0 -0.18798267209246913,0.44433550764295365 l -6.448255344540159 -2.7937045780665417" fill="#ff4f07" stroke="none" /><path d="M 119.26925614724726 108.34839909993367 l 6.3953516818870115 2.770784083040592 a27.969775288332194,27.969775288332194 0 0,0 -0.1952009488841912,0.4401266081883376 l -6.346709648271547 -2.880459027721617" fill="#ff4f07" stroke="none" /><path d="M 119.12269723197855 108.67885076344098 l 6.3464566300269185 2.8803441951977886 a27.96949743092156,27.96949743092156 0 0,0 -0.20274606967711367,0.4366969969474039 l -6.295935943509973 -2.989161259424023" fill="#ff4f07" stroke="none" /><path d="M 118.97047184881838 109.00673069616215 l 5.288530971645471 2.5108692403394506 a26.85431671334377,26.85431671334377 0 0,0 -0.20185078281135063,0.41587239881836574 l -5.244526932219407 -2.601530595123092" fill="#ff3f05" stroke="none" /><line stroke="#e1ed5e" stroke-width="0.3" x1="174.80103733775053" x2="179.2010983576182" y1="140.37084112569926" y2="142.7455964860345" /><path d="M 175.68104954172406 140.8457921977663 a86.0,86.0 0 0,1 -30.038265399797805,32.042727171017184" fill="none" id="id53" stroke="none" /><text fill="#e1ed5e" style="font-size:6.75px; font-family:Arial;" text-anchor="middle"><textPath startOffset="22.206326154141568" xlink:href="#id53">May</textPath></text><path d="M 118.48025628344425 109.97397251340804 l 6.142778993353734 3.3153170549121698 a27.980333869936267,27.980333869936267 0 0,0 -0.23240144277808678,0.42187612420448845 l -6.084801141124138 -3.420563697514463" fill="#ff4f07" stroke="none" /><path d="M 118.30583269289576 110.29060199501025 l 6.511938582903155 3.6606785004985722 a28.47033541358855,28.47033541358855 0 0,0 -0.24382538061933898,0.42513010321231276 l -6.447961206131437 -3.7722284495692" fill="#ff5607" stroke="none" /><path d="M 117.55443506779139 111.5257021239791 l 11.531646092297706 7.571324132374549 a34.79506472313494,34.79506472313494 0 0,0 -0.3330333312563377,0.4978396436724665 l -11.399609655630647 -7.768700690252823" fill="#ffab0f" stroke="none" /><path d="M 117.14729908036423 112.12312394758627 l 5.773444589913716 4.081819768816828 a28.070637528392176,28.070637528392176 0 0,0 -0.2823374231855329,0.3921419868758373 l -5.7023273743525795 -4.180595361143797" fill="#ff5007" stroke="none" /><path d="M 116.93607887273984 112.41649034213515 l 11.31793330044507 8.297611895519696 a35.03374423886916,35.03374423886916 0 0,0 -0.3607453560543421,0.48327735659833965 l -11.173426677695636 -8.49120213162735" fill="#ffae10" stroke="none" /><path d="M 116.71984013943494 112.70617746262583 l 11.269880912385391 8.56450215200848 a35.1548900699054,35.1548900699054 0 0,0 -0.3702867630910141,0.4786455564531165 l -11.12078733207631 -8.757225702574848" fill="#ffb010" stroke="none" /><path d="M 116.498646956653 112.99209946851258 l 5.5824418281122306 4.395974997135922 a28.105508633426687,28.105508633426687 0 0,0 -0.3025786702193064,0.37751341469599314 l -5.50594524583807 -4.491416245410165" fill="#ff5107" stroke="none" /><path d="M 115.80600337817218 113.82643327865902 l 5.001545510715286 4.375143648873399 a27.645098904006883,27.645098904006883 0 0,0 -0.31639308915116554,0.3554709897214438 l -4.925493571915783 -4.460588808335709" fill="#ff4a06" stroke="none" /><path d="M 115.56566222782051 114.09645910891815 l 4.777927510395945 4.32695113062993 a27.446014069287937,27.446014069287937 0 0,0 -0.3201428444034301,0.34745182862024326 l -4.702738257996794 -4.408554214051509" fill="#ff4706" stroke="none" /><path d="M 115.32070863581623 114.36230785411682 l 6.33984822702917 5.943253288696105 a29.68999051756456,29.68999051756456 0 0,0 -0.35273610113109644,0.3698423918156064 l -6.236605574519109 -6.051502797094218" fill="#ff6709" stroke="none" /><path d="M 115.07121518719521 114.62390073753431 l 5.091981561801612 4.940851284533999 a28.09508898052793,28.09508898052793 0 0,0 -0.339762439833523,0.34417755774761366 l -5.006178496912553 -5.027769336262278" fill="#ff5007" stroke="none" /><path d="M 114.55890576462653 115.13401014063108 l 6.018828287857048 6.256583414700218 a29.68165479524555,29.68165479524555 0 0,0 -0.37125271860444076,0.3510426178668249 l -5.910239734861799 -6.359260669312964" fill="#ff6609" stroke="none" /><path d="M 114.0293411484842 115.62618273729858 l 4.6703626254772646 5.2019506164081255 a27.990892451540343,27.990892451540343 0 0,0 -0.3612926403790134,0.3187987483594846 l -4.5801276321916635 -5.281572506539899" fill="#ff4f07" stroke="none" /><path d="M 113.48314897796784 116.09983520530334 l 4.47979386489625 5.349191282868178 a27.9772774384193,27.9772774384193 0 0,0 -0.37187113595502347,0.3060246280329452 l -4.387052600396535 -5.425511029758302" fill="#ff4f07" stroke="none" /><path d="M 113.20401910651253 116.32954008644616 l 5.386547958083149 6.661596753196127 a29.56689968465389,29.56689968465389 0 0,0 -0.3985090199675713,0.3165996670043426 l -5.271081445398226 -6.753330334205596" fill="#ff6509" stroke="none" /><path d="M 112.92097659922987 116.55440617244103 l 8.618248936275538 11.041734522978443 a35.00693099874303,35.00693099874303 0 0,0 -0.4782134670071401,0.36667369443272907 l -8.426906740774905 -11.188447559238542" fill="#ffae10" stroke="none" /><path d="M 112.63410532772338 116.77436683061366 l 5.237301518304275 6.953592248260648 a29.705272675149402,29.705272675149402 0 0,0 -0.41108565224824556,0.3041113378633099 l -5.116830895637465 -7.042713534863727" fill="#ff6709" stroke="none" /><path d="M 112.34349029814194 116.9893568818739 l 4.1027739843379765 5.646983935822271 a27.980056012525637,27.980056012525637 0 0,0 -0.3920840880830382,0.2797415863690434 l -4.004962568406054 -5.716769784035533" fill="#ff4f07" stroke="none" /><path d="M 111.45004920935366 117.60387380957326 l 11.021256266770383 16.944626262802423 a41.21357090877015,41.21357090877015 0 0,0 -0.5980250027872138,0.3816878513525056 l -10.727949461936237 -17.131828542978738" fill="#fffd17" stroke="none" /><path d="M 111.1453310114006 117.79835938074945 l 0.8575222153345692 1.369406485091293 a22.615740842834146,22.615740842834146 0 0,0 -0.3317199327873017,0.20376947612784366 l -0.8338230826149587 -1.3839644280475147" fill="#ff0200" stroke="none" /><line stroke="#e1ed5e" stroke-width="0.3" x1="143.8653032363475" x2="146.44561519142675" y1="172.8068346515853" y2="177.08958963109032" /><path d="M 144.38136562736335 173.6633856474863 a86.0,86.0 0 0,1 -40.68145358897372,12.25698825130547" fill="none" id="id54" stroke="none" /><text fill="#e1ed5e" style="font-size:6.75px; font-family:Arial;" text-anchor="middle"><textPath startOffset="21.466115282336833" xlink:href="#id54">June</textPath></text><path d="M 110.8373102113329 117.98757091392108 l 7.220850538741663 11.985036747274757 a34.99220455597945,34.99220455597945 0 0,0 -0.5186046819698967,0.30640078725441255 l -7.013477985743385 -12.107556106822917" fill="#ffae10" stroke="none" /><path d="M 109.2508944713604 118.85261126421891 l 3.09314479994504 6.303591147627547 a28.021595695415353,28.021595695415353 0 0,0 -0.43485157426452725,0.20875518153362232 l -2.98418055768028 -6.35590060566073" fill="#ff4f07" stroke="none" /><path d="M 108.92500713936063 119.00905698771935 l 2.968238475992667 6.321946129818772 a27.984084944979823,27.984084944979823 0 0,0 -0.437793691123286,0.2009696111701205 l -2.8589767891019613 -6.372102811322967" fill="#ff4f07" stroke="none" /><path d="M 108.59647513512805 119.15986991738527 l 3.5425128641395864 7.895571683819847 a29.653869054182195,29.653869054182195 0 0,0 -0.4675134742974264,0.2049441681774516 l -3.4060787151844063 -7.955380405291753" fill="#ff6609" stroke="none" /><path d="M 108.2653958097858 119.30500536409082 l 2.814211705822454 6.572990976701644 a28.150104747833375,28.150104747833375 0 0,0 -0.44708873102564073,0.18688312582868755 l -2.700651515299352 -6.620459145550305" fill="#ff5107" stroke="none" /><path d="M 107.2578585660854 119.70592522655815 l 2.8435722319053727 7.720627409314132 a29.227635786270316,29.227635786270316 0 0,0 -0.47359965462410236,0.1698159862795857 l -2.7102530166515355 -7.768430936633679" fill="#ff6008" stroke="none" /><path d="M 106.57524785965236 119.94407469862006 l 4.381492760249748 13.289965757504392 a34.99359384303261,34.99359384303261 0 0,0 -0.573692734224439,0.1836782968792335 l -4.152078680934369 -13.363416901043331" fill="#ffae10" stroke="none" /><path d="M 106.2309692047433 120.05430185196036 l 2.567713884690016 8.264157247614687 a29.653869054182195,29.653869054182195 0 0,0 -0.48875934211068645,0.14725918042393032 l -2.4250795681390835 -8.307131797144342" fill="#ff6609" stroke="none" /><path d="M 105.88484417918355 120.15858648285463 l 1.9505753174330447 6.681713233272207 a27.960605993781286,27.960605993781286 0 0,0 -0.46317254029257404,0.13089718639213693 l -1.835271609035865 -6.714299213002863" fill="#ff4f07" stroke="none" /><path d="M 104.83641907484287 120.43548508189849 l 3.4825800898550967 14.715063432558892 a36.12155600149955,36.12155600149955 0 0,0 -0.6062914601479014,0.13798996241413766 l -3.2287684803143333 -14.772830128550714" fill="#ffbd11" stroke="none" /><path d="M 104.48393922423573 120.51570834832081 l 2.4175716953498356 11.06129974841632 a32.322411625906895,32.322411625906895 0 0,0 -0.5445688200209619,0.11411969097885287 l -2.2268114138994957 -11.101275420121715" fill="#ff8a0c" stroke="none" /><path d="M 104.13013068566511 120.58985236759428 l 1.97477935812133 9.844825390977407 a31.04093324806492,31.04093324806492 0 0,0 -0.5247874560467134,0.10057676495602487 l -1.805024287502912 -9.8773593542819" fill="#ff790b" stroke="none" /><path d="M 103.7750983002368 120.6578951692458 l 1.8186355202655806 9.95184202921457 a31.116649392462566,31.116649392462566 0 0,0 -0.527725080260436,0.09175176962117865 l -1.6470614685330947 -9.981672377356754" fill="#ff7a0b" stroke="none" /><path d="M 103.41894727170886 120.7198165907248 l 1.1430519283949039 6.927227718893435 a28.02090105188877,28.02090105188877 0 0,0 -0.47657432976709746,0.07443110906350572 l -1.0236417350192892 -6.9458771353040465" fill="#ff4f07" stroke="none" /><path d="M 102.70371172650421 120.8252237178851 l 0.36349590737657506 2.799811650571332 a23.823309149447592,23.823309149447592 0 0,0 -0.40712058790028033,0.04929663348103595 l -0.3152478964249144 -2.805653812777719" fill="#ff1302" stroke="none" /><path d="M 102.34483914955558 120.86867818915974 l 1.1125976590585438 9.901934000592643 a30.964244602730062,30.964244602730062 0 0,0 -0.5301777633272682,0.05495509293495827 l -0.9419872991256729 -9.91961846198336" fill="#ff780b" stroke="none" /><path d="M 101.98527174616119 120.90594882070398 l 0.6633260163177562 6.985169549405615 a28.01659426202395,28.01659426202395 0 0,0 -0.48049217242845926,0.04145888644274774 l -0.5429895261477553 -6.9955526881270265" fill="#ff4f07" stroke="none" /><path d="M 101.62511606390274 120.93702456842531 l 0.5419251570142313 6.981839992035063 a28.00284032019759,28.00284032019759 0 0,0 -0.48089842968688157,0.033165571286163494 l -0.4216639665484193 -6.990133907837511" fill="#ff4f07" stroke="none" /><path d="M 101.26447882468166 120.96189622390904 l 0.6868874728654772 11.386876270809937 a32.40757492226608,32.40757492226608 0 0,0 -0.5571200581296265,0.02879674335323357 l -0.4907793463223712 -11.397012820925372" fill="#ff8c0c" stroke="none" /><path d="M 100.90346689309514 120.98055641714683 l 0.38154924860049083 8.860441480880667 a29.86865283260194,29.86865283260194 0 0,0 -0.5138541138721109,0.01769817466367099 l -0.22897478305372765 -8.865696453970433" fill="#ff6909" stroke="none" /><line stroke="#e1ed5e" stroke-width="0.3" x1="102.19456741930631" x2="102.32365962044197" y1="184.97166512339345" y2="189.96999836594603" /><path d="M 102.22038585953345 185.97133177190398 a86.0,86.0 0 0,1 -42.740103519485714,-10.115201625700543" fill="none" id="id55" stroke="none" /><text fill="#e1ed5e" style="font-size:6.75px; font-family:Arial;" text-anchor="middle"><textPath startOffset="22.20632615414155" xlink:href="#id55">July</textPath></text><path d="M 100.54218724476979 120.99299961872073 l 0.18160588486136708 7.031615569028807 a28.033960350188547,28.033960350188547 0 0,0 -0.48250492011946666,0.008306759773056449 l -0.06054127484923249 -7.033699806081023" fill="#ff5007" stroke="none" /><path d="M 99.81925306533755 120.99922214144158 l -0.0602232029726743 6.9967461393139345 a27.99700531457428,27.99700531457428 0 0,0 -0.4818688706179215,-0.008295809604067915 l 0.18065176348326376 -6.994672852430707" fill="#ff4f07" stroke="none" /><path d="M 99.45781275523022 120.99299961872073 l -0.1799630743682454 6.968007432931331 a27.97033100315346,27.97033100315346 0 0,0 -0.4811957784934815,-0.01657335556005319 l 0.2998792045363699 -6.9638772789451835" fill="#ff4f07" stroke="none" /><path d="M 99.09653310690486 120.98055641714683 l -0.3924274306991929 9.113057614335187 a30.121503076278476,30.121503076278476 0 0,0 -0.5178200956122061,-0.026765384191251736 l 0.5492355947248879 -9.104952423381732" fill="#ff6d0a" stroke="none" /><path d="M 98.37488393609728 120.93702456842531 l -0.6622526251192777 8.532067210835528 a29.557730390102982,29.557730390102982 0 0,0 -0.506923074031386,-0.043739455848482094 l 0.8090200168922054 -8.519403502708384" fill="#ff6509" stroke="none" /><path d="M 98.01472825383883 120.90594882070398 l -0.6599506121757127 6.949624780091741 a27.980889584757538,27.980889584757538 0 0,0 -0.4790959910788984,-0.04966025838064477 l 0.7794791998602044 -6.937235153255335" fill="#ff4f07" stroke="none" /><path d="M 97.2962882734958 120.8252237178851 l -0.8981328856014416 6.917830065863978 a27.97588815136613,27.97588815136613 0 0,0 -0.47701741348377674,-0.06611026691627764 l 1.0170788902720493 -6.901345233455095" fill="#ff4f07" stroke="none" /><path d="M 96.93821686468263 120.77559828337769 l -1.4654791809187544 9.943946194042114 a31.05135290096368,31.05135290096368 0 0,0 -0.528115697269517,-0.08248081066562436 l 1.6364307417967885 -9.917247076029385" fill="#ff790b" stroke="none" /><path d="M 96.58105272829116 120.7198165907248 l -1.617566856481739 9.802926434950606 a30.935486360729485,30.935486360729485 0 0,0 -0.524652632637437,-0.09121758521906644 l 1.7860684605912258 -9.773630271210534" fill="#ff780b" stroke="none" /><path d="M 96.22490169976321 120.6578951692458 l -1.5353970051070038 8.401919063322117 a29.541058945464968,29.541058945464968 0 0,0 -0.4994301250231712,-0.095716972114404 l 1.67979474470187 -8.374244892859245" fill="#ff6509" stroke="none" /><path d="M 94.81253420990036 120.34920634021253 l -3.4711075035206616 13.616337085636028 a35.05180497056035,35.05180497056035 0 0,0 -0.5833781349485041,-0.15407546768125885 l 3.704976081280655 -13.554570268651188" fill="#ffaf10" stroke="none" /><path d="M 94.46302465271185 120.25689768951611 l -2.56920442526361 9.399375637730929 a30.744181533508282,30.744181533508282 0 0,0 -0.5092829770305346,-0.143928456398988 l 2.7306185703987587 -9.35375838799342" fill="#ff750a" stroke="none" /><path d="M 94.11515582081647 120.15858648285463 l -2.411570134680349 8.260855111743654 a29.605660793437274,29.605660793437274 0 0,0 -0.4879647666115185,-0.14701978134403323 l 2.553409875732113 -8.218119961293894" fill="#ff6509" stroke="none" /><path d="M 93.76903079525671 120.05430185196036 l -2.0872310938737186 6.717728978579579 a28.03451606500981,28.03451606500981 0 0,0 -0.45960407056609526,-0.14715070957708362 l 2.2025565095307544 -6.680805422342789" fill="#ff5007" stroke="none" /><path d="M 93.42475214034765 119.94407469862007 l -3.0526683289753875 9.259368845513883 a30.749599753015634,30.749599753015634 0 0,0 -0.501262795024917,-0.17005555568540234 l 3.2116008569375305 -9.205450302930359" fill="#ff750a" stroke="none" /><path d="M 92.40401165467489 119.57807347666478 l -5.5544502687970345 14.31616671080271 a36.355928727368955,36.355928727368955 0 0,0 -0.5814852485927421,-0.23138498090290463 l 5.800056593431634 -14.218434885493739" fill="#ffc011" stroke="none" /><path d="M 92.06813273071674 119.44442032107085 l -3.737442263352134 9.16207947349075 a30.895058107482303,30.895058107482303 0 0,0 -0.4906849352061746,-0.20510634271190828 l 3.894598658055771 -9.096388087758868" fill="#ff770b" stroke="none" /><path d="M 91.7346041902142 119.30500536409082 l -2.743454507918316 6.407727495493625 a27.97033100315346,27.97033100315346 0 0,0 -0.44097134848207875,-0.19330888022117668 l 2.853346531058138 -6.359554061977996" fill="#ff4f07" stroke="none" /><path d="M 91.40352486487194 119.15986991738527 l -3.4895656900102905 7.777562737959576 a29.524526429532273,29.524526429532273 0 0,0 -0.46189294485295396,-0.21203239656365777 l 3.622926630630664 -7.716343271061843" fill="#ff6409" stroke="none" /><path d="M 91.07499286063937 119.00905698771935 l -3.6262331364621687 7.723385680866102 a29.532306437030012,29.532306437030012 0 0,0 -0.45829545488395185,-0.22000966891322815 l 3.7586412593463625 -7.659821735453311" fill="#ff6409" stroke="none" /><path d="M 90.10565033884886 118.52300852407294 l -7.239084731466423 13.552141654536838 a36.36440337839328,36.36440337839328 0 0,0 -0.5495824805861412,-0.2996761879909386 l 7.471290023921204 -13.425524814786133" fill="#ffc011" stroke="none" /><line stroke="#e1ed5e" stroke-width="0.3" x1="58.666819895761336" x2="56.23545636021788" y1="174.27360380694188" y2="178.64263932499728" /><path d="M 58.180547188652646 175.14741091055294 a86.0,86.0 0 0,1 -31.652253787137756,-30.449443065178592" fill="none" id="id56" stroke="none" /><text fill="#e1ed5e" style="font-size:6.75px; font-family:Arial;" text-anchor="middle"><textPath startOffset="22.20632615414155" xlink:href="#id56">August</textPath></text><path d="M 89.7882731507175 118.34994917583269 l -4.878645915414043 8.766676382557334 a31.032736454451232,31.032736454451232 0 0,0 -0.4645323319174261,-0.26377358161185843 l 5.028827014252676 -8.681399635150843" fill="#ff790b" stroke="none" /><path d="M 89.4739219176387 118.17145234162733 l -8.379962407271874 14.466554999581554 a37.71840254041061,37.71840254041061 0 0,0 -0.5590085106695464,-0.33027208142522707 l 8.627738788969802 -14.320164345862576" fill="#ffd113" stroke="none" /><path d="M 89.1626897886671 117.98757091392108 l -4.419405729618971 7.335249467693623 a29.563704324431605,29.563704324431605 0 0,0 -0.4336302789988613,-0.2663711343551529 l 4.545015208550141 -7.258089866510092" fill="#ff6509" stroke="none" /><path d="M 88.8546689885994 117.79835938074946 l -3.7454476330481574 5.981233123231504 a28.057161443976447,28.057161443976447 0 0,0 -0.4071203654708115,-0.25984347947688086 l 3.8478498005658928 -5.915875214930819" fill="#ff5007" stroke="none" /><path d="M 87.95078237400918 117.19931262002967 l -8.886852671843252 12.685284808988525 a36.48846671224116,36.48846671224116 0 0,0 -0.5113123143861023,-0.3648077601305346 l 9.103892314078243 -12.53043278701377" fill="#ffc112" stroke="none" /><path d="M 87.65650970185807 116.9893568818739 l -4.988134350927526 6.865577937497861 a29.486321035570157,29.486321035570157 0 0,0 -0.40805562190475864,-0.30186979385299634 l 5.105574943250849 -6.778698194905098" fill="#ff6409" stroke="none" /><path d="M 87.36589467227662 116.77436683061367 l -5.033860856070752 6.683483031339708 a29.367120206408366,29.367120206408366 0 0,0 -0.40117062448080887,-0.30760052805887717 l 5.148160209045048 -6.595843161453463" fill="#ff6209" stroke="none" /><path d="M 87.07902340077011 116.55440617244103 l -4.289506649123128 5.495732834405344 a27.971581361501315,27.971581361501315 0 0,0 -0.3770069772009403,-0.29951714380227806 l 4.383471119041427 -5.421081776597935" fill="#ff4f07" stroke="none" /><path d="M 86.79598089348748 116.32954008644616 l -4.382859646614941 5.420325562643721 a27.97060886056409,27.97060886056409 0 0,0 -0.3717824978940973,-0.3059516849432458 l 4.475512273053727 -5.3440787588432945" fill="#ff4f07" stroke="none" /><path d="M 85.97065885151581 115.62618273729859 l -10.394712492109527 11.577854953005662 a36.55945928065804,36.55945928065804 0 0,0 -0.4646541025359911,-0.42445050582418886 l 10.592466144112374 -11.397211680594896" fill="#ffc212" stroke="none" /><path d="M 85.70375840098266 115.38237550388516 l -5.775748441807335 6.214551617116407 a29.48409817628509,29.48409817628509 0 0,0 -0.3687817164863409,-0.34870613113198506 l 5.881865992684493 -6.114210849238491" fill="#ff6409" stroke="none" /><path d="M 85.44109423537348 115.13401014063109 l -5.892942408960753 6.125724804954452 a29.50007497739652,29.50007497739652 0 0,0 -0.36292122739657295,-0.35519480580053275 l 5.997513588733121 -6.023379896231351" fill="#ff6409" stroke="none" /><path d="M 84.19399662182784 113.82643327865904 l -6.327455424283258 5.5349944039844114 a29.406714887423647,29.406714887423647 0 0,0 -0.32999583962561313,-0.3838597137652563 l 6.421793773479649 -5.425257591057624" fill="#ff6309" stroke="none" /><path d="M 83.95833913139862 113.55231037782056 l -5.36488438196267 4.532359765053378 a28.023123911173837,28.023123911173837 0 0,0 -0.3081262574556727,-0.37115792649519963 l 5.442106639311879 -4.439340581444418" fill="#ff4f07" stroke="none" /><path d="M 83.72743513129214 113.27417163493432 l -6.5577212757889525 5.349391349871156 a29.462842084371623,29.462842084371623 0 0,0 -0.3171914692967928,-0.39574512836572995 l 6.648830657140606 -5.235718387927166" fill="#ff6309" stroke="none" /><path d="M 83.50135304334701 112.99209946851258 l -5.540746788942439 4.363141632214508 a28.05243786799568,28.05243786799568 0 0,0 -0.2954765722292546,-0.3819433002490797 l 5.615030178389762 -4.267120337852176" fill="#ff5007" stroke="none" /><path d="M 82.6465618267979 111.8261652097733 l -7.014314279927903 4.7801731668251195 a29.488266037444596,29.488266037444596 0 0,0 -0.282240471445171,-0.4219112099204902 l 7.095557856783804 -4.6587250426988085" fill="#ff6409" stroke="none" /><path d="M 82.44556493220864 111.52570212397912 l -9.558412540551094 6.2757596752647435 a32.434527091097536,32.434527091097536 0 0,0 -0.30240584110011215,-0.469340580940341 l 9.665023245028252 -6.110297494402954" fill="#ff8c0c" stroke="none" /><path d="M 82.24976979558568 111.22182372390057 l -7.094846903810426 4.485413450177241 a29.393794517829186,29.393794517829186 0 0,0 -0.26669320142764985,-0.4299943576653672 l 7.171004744906032 -4.36262276114661" fill="#ff6309" stroke="none" /><path d="M 82.05923443525364 110.91462005526583 l -5.970100610228299 3.6320289464344144 a27.98811387743401,27.98811387743401 0 0,0 -0.24685399729697577,-0.4137414984851281 l 6.031735483223507 -3.5287253540631753" fill="#ff4f07" stroke="none" /><line stroke="#e1ed5e" stroke-width="0.3" x1="26.63291911575756" x2="22.317208475507996" y1="142.92168965132927" y2="145.44649492493687" /><path d="M 25.769776987707644 143.4266507060508 a86.0,86.0 0 0,1 -11.730757126820373,-40.83630448921669" fill="none" id="id57" stroke="none" /><text fill="#e1ed5e" style="font-size:6.75px; font-family:Arial;" text-anchor="middle"><textPath startOffset="21.46611528233685" xlink:href="#id57">September</textPath></text><path d="M 81.69416730710424 110.29060199501025 l -10.055229558681551 5.652535292590726 a32.53511147374688,32.53511147374688 0 0,0 -0.2702329029593377,-0.4905512133238824 l 10.151038871092405 -5.478613560869021" fill="#ff8d0d" stroke="none" /><path d="M 81.35079622478065 109.6543875284942 l -6.230521031040051 3.225438751332769 a28.015899618497365,28.015899618497365 0 0,0 -0.21801883727567914,-0.43017184939737285 l 6.2851185381019965 -3.117712690232711" fill="#ff4f07" stroke="none" /><path d="M 81.18737489456691 109.33194174019688 l -6.240313732681862 3.095487411648873 a27.965885284583322,27.965885284583322 0 0,0 -0.2102059008598967,-0.4330864167025915 l 6.292672890156478 -2.987612038980997" fill="#ff4f07" stroke="none" /><path d="M 81.02952815118164 109.00673069616217 l -6.351031344363157 3.0153192507505664 a28.030487132555628,28.030487132555628 0 0,0 -0.2031881735199804,-0.4376492492935258 l 6.4019941347229645 -2.9055499341782136" fill="#ff5007" stroke="none" /><path d="M 80.58989483394504 108.01547362559985 l -7.041262090163343 2.90771482646796 a28.618016627340285,28.618016627340285 0 0,0 -0.1841056776901086,-0.45693519363010976 l 7.09027038211084 -2.786080264995045" fill="#ff5808" stroke="none" /><path d="M 80.32549172779594 107.34259656027581 l -7.934405912840675 2.961148545997661 a29.46895494740556,29.46895494740556 0 0,0 -0.1732714756921262,-0.4767686839670725 l 7.984201649538026 -2.8241320650244712" fill="#ff6409" stroke="none" /><path d="M 80.0844068197444 106.66101706037122 l -6.128172117229685 2.049643144057951 a27.461851941694047,27.461851941694047 0 0,0 -0.1460810315872231,-0.4495911860095766 l 6.162545399833157 -1.9438530580705708" fill="#ff4806" stroke="none" /><path d="M 79.86692584326677 105.97154293290107 l -3.8791253119767477 1.1505626593455642 a25.046159613645887,25.046159613645887 0 0,0 -0.11903767367465479,-0.414385758337141 l 3.8983556225375064 -1.0836194255038272" fill="#ff2503" stroke="none" /><path d="M 79.67330655649465 105.27499134158121 l -57.28378406385035 14.865746157369546 a80.18126667695769,80.18126667695769 0 0,0 -0.3351908580822636,-1.3389208583553647 l 57.53118623622767 -13.877497459616789" fill="#48f6ff" stroke="none" /><path d="M 79.50377843672027 104.57218783832718 l -6.869965370389886 1.532515250152246 a28.03882285487463,28.03882285487463 0 0,0 -0.10102783258805759,-0.47196839995411466 l 6.895327241702385 -1.4140330307819677" fill="#ff5007" stroke="none" /><path d="M 79.35854240842038 103.8639653848113 l -6.91359328034816 1.294185984754623 a28.033682492777913,28.033682492777913 0 0,0 -0.0847065185000171,-0.47507914033705906 l 6.9348462411873655 -1.1749880936843502" fill="#ff5007" stroke="none" /><path d="M 79.29508885075956 103.50808413554451 l -6.948954820685714 1.1773785450877141 a28.047992149425543,28.047992149425543 0 0,0 -0.07655531922349341,-0.47671004588246 l 6.968191894270498 -1.0575892695120404" fill="#ff5007" stroke="none" /><path d="M 79.1416061653843 102.43462659150553 l -6.909529821731608 0.806491869516385 a27.956438132621784,27.956438132621784 0 0,0 -0.051676408882695646,-0.4784593662792764 l 6.922388532115355 -0.6874361813523265" fill="#ff4f07" stroke="none" /><path d="M 79.10278846688536 102.07522291339032 l -6.922388532115355 0.6874361813523265 a27.956438132621784,27.956438132621784 0 0,0 -0.04343286098722628,-0.47927800179211477 l 6.933195989379657 -0.5681767910116455" fill="#ff4f07" stroke="none" /><path d="M 79.04373962182676 101.35467743843564 l -11.558361706805096 0.747168223095548 a32.582486162259904,32.582486162259904 0 0,0 -0.03136242583313228,-0.5599971813366106 l 11.56951048352576 -0.5480993254234998" fill="#ff8e0d" stroke="none" /><path d="M 79.0235259727143 100.99374915477108 l -7.010121411482594 0.33210072476631997 a28.017983549077115,28.017983549077115 0 0,0 -0.018675810071296248,-0.4819396738435326 l 7.01479935440509 -0.21138380390879058" fill="#ff4f07" stroke="none" /><path d="M 79.0095281055655 100.63252640178507 l -7.056042458597078 0.2126266226707605 a28.0592453745562,28.0592453745562 0 0,0 -0.010392526268061553,-0.48289985902896815 l 7.058657047550147 -0.09113694785166349" fill="#ff5007" stroke="none" /><line stroke="#e1ed5e" stroke-width="0.3" x1="15.007084014347285" x2="10.007500721073583" y1="101.09737516637583" y2="101.16192664675087" /><path d="M 14.007167355692545 101.11028546245083 a86.0,86.0 0 0,1 10.666146001902534,-42.60595125391555" fill="none" id="id58" stroke="none" /><text fill="#e1ed5e" style="font-size:6.75px; font-family:Arial;" text-anchor="middle"><textPath startOffset="22.20632615414155" xlink:href="#id58">October</textPath></text><path d="M 79.00175016825051 100.2711162175752 l -16.032703439578402 0.20700420029631167 a37.034039738020155,37.034039738020155 0 0,0 -0.0027435217143376702,-0.6374978261487013 l 16.033891258582244 0.06900310405606498" fill="#ffc812" stroke="none" /><path d="M 79.00486145842228 99.54816195383935 l -11.320346096207023 -0.24362606857025923 a32.32296734072816,32.32296734072816 0 0,0 0.016759159262193048,-0.5561549059053347 l 11.314475242489186 0.43845112190058827" fill="#ff8a0c" stroke="none" /><path d="M 79.08570108090925 98.10471618934814 l -8.716789414312201 -0.7899279780651431 a29.752508434957107,29.752508434957107 0 0,0 0.050611672355257334,-0.509652633665567 l 8.701900616274715 0.9398561424351405" fill="#ff6709" stroke="none" /><path d="M 79.12142395522702 97.74499172005258 l -62.635728134318974 -6.7650248398422725 a84.0,84.0 0 0,0 0.16763858798564435,-1.436225046700553 l 62.50999919332974 7.842193624867687" fill="#4dd2ff" stroke="none" /><path d="M 79.62865764111835 94.90015583598534 l -7.725000621944755 -1.9339078714004445 a28.9633933887578,28.9633933887578 0 0,0 0.12523725529440463,-0.4825902321409886 l 7.690567034780043 2.0665945290902967" fill="#ff5d08" stroke="none" /><path d="M 79.71946130924805 94.55025226153421 l -6.782377079120133 -1.82254745359462 a28.02298498246852,28.02298498246852 0 0,0 0.12919027021538818,-0.4647661387549766 l 6.750000038338384 1.939024895768539" fill="#ff4f07" stroke="none" /><path d="M 79.91906864156998 93.8553929516997 l -7.9981419218533505 -2.4473685183777536 a29.36420270359671,29.36420270359671 0 0,0 0.15205695321595356,-0.482062095004095 l 7.954829484869193 2.584680779808263" fill="#ff6209" stroke="none" /><path d="M 80.14247586403 93.16781622104843 l -12.984264315347438 -4.467368611993538 a34.73129644739454,34.73129644739454 0 0,0 0.19936908505783899,-0.5636432507882415 l 12.90544214947979 4.6902094892083905" fill="#ffaa0f" stroke="none" /><path d="M 80.2630227832202 92.82701384747504 l -22.20302214174844 -8.069217926216517 a44.623853838181134,44.623853838181134 0 0,0 0.26858335088191093,-0.7196698491226842 l 22.0608342023649 8.450210912368544" fill="#d8ff1c" stroke="none" /><path d="M 80.38941819471856 92.48833698450439 l -1.532451048254468 -0.5869920625776852 a22.6410258672018,22.6410258672018 0 0,0 0.14253760271140745,-0.36274265158099084 l 1.5221198956613695 0.6132837190544395" fill="#ff0200" stroke="none" /><path d="M 80.52162464483688 92.15188598940014 l -13.072164627122937 -5.266960744331141 a35.09334465345006,35.09334465345006 0 0,0 0.23057716651448767,-0.5583608979316187 l 12.97956577372225 5.491196212716071" fill="#ffaf10" stroke="none" /><path d="M 80.65960295795068 91.81776055985345 l -6.419730618482695 -2.715961463844879 a27.97060886056409,27.97060886056409 0 0,0 0.1914112545056995,-0.4418035659753693 l 6.372028654134314 2.8260641744068478" fill="#ff4f07" stroke="none" /><path d="M 81.10775173730289 90.83032412892265 l -10.276729802315526 -4.987986606545944 a32.42327386596688,32.42327386596688 0 0,0 0.24802258542080327,-0.4999983976650276 l 10.18934720394131 5.164144592709934" fill="#ff8c0c" stroke="none" /><path d="M 81.43458229118936 90.18545643968196 l -7.398572994531073 -3.9112299048654044 a29.368787350872164,29.368787350872164 0 0,0 0.24011347256760684,-0.4448937977512937 l 7.330151422744994 4.038004685949171" fill="#ff6209" stroke="none" /><path d="M 81.6062741919709 89.86733742301443 l -7.327352633231344 -4.0364628999042 a29.365591990649875,29.365591990649875 0 0,0 0.24770905857465836,-0.44064677508479955 l 7.256785933364255 4.161993184923785" fill="#ff6209" stroke="none" /><line stroke="#e1ed5e" stroke-width="0.3" x1="26.266209847984243" x2="21.928928074336255" y1="57.711370442889674" y2="55.22380399835377" /><path d="M 25.398753493254645 57.213857153982495 a86.0,86.0 0 0,1 29.58750427330803,-30.492523968695096" fill="none" id="id59" stroke="none" /><text fill="#e1ed5e" style="font-size:6.75px; font-family:Arial;" text-anchor="middle"><textPath startOffset="21.46611528233685" xlink:href="#id59">November</textPath></text><path d="M 81.78341655067845 89.55222093294921 l -6.102858750569892 -3.5001799366360635 a28.035349637241715,28.035349637241715 0 0,0 0.24369437376763617,-0.41655267946077457 l 6.041704702331931 3.60471202845073" fill="#ff5007" stroke="none" /><path d="M 81.96595687620814 89.24020034530311 l -5.977636862182795 -3.5664867054002154 a27.960744922486604,27.960744922486604 0 0,0 0.2501610590040052,-0.41119900558097733 l 5.915360004892572 3.668853484188267" fill="#ff4f07" stroke="none" /><path d="M 82.34701348167596 88.62581576622439 l -9.712977059623517 -6.258271959813547 a32.55456149249123,32.55456149249123 0 0,0 0.30756831116941646,-0.4684476389599567 l 9.60381211309618 6.42453766275117" fill="#ff8e0d" stroke="none" /><path d="M 82.95767976084542 87.72973835380427 l -5.67304404353237 -4.084522164101027 a27.990475665424395,27.990475665424395 0 0,0 0.28488624491564424,-0.38858451790334064 l 5.601895186103092 4.181569125675868" fill="#ff4f07" stroke="none" /><path d="M 83.17141714833178 87.43820079747576 l -6.769211819175231 -5.052919808004135 a29.447143140670825,29.447143140670825 0 0,0 0.306704699834729,-0.4035874334616983 l 6.681231179116393 5.168692017346859" fill="#ff6309" stroke="none" /><path d="M 83.39014120810768 87.1503855733568 l -5.556337860136516 -4.298459127284365 a28.024929984342954,28.024929984342954 0 0,0 0.2984600586970461,-0.37901396545174737 l 5.481523720845499 4.39346548668916" fill="#ff4f07" stroke="none" /><path d="M 83.6137871275137 86.86637796730984 l -6.749325953917549 -5.409614579279486 a29.649701193022693,29.649701193022693 0 0,0 0.3226191158138128,-0.3954928890740851 l 6.655208346027344 5.524991637961653" fill="#ff6609" stroke="none" /><path d="M 84.07557802195018 86.31012108654704 l -8.719750916496384 -7.496180041375978 a32.49899001036452,32.49899001036452 0 0,0 0.3683344784747209,-0.4210699819493399 l 8.58942457444382 7.6451655795282605" fill="#ff8d0d" stroke="none" /><path d="M 84.5562425177563 85.77008943001954 l -8.299210376817692 -7.646909866290664 a32.28503980417668,32.28503980417668 0 0,0 0.3800912786227156,-0.4054548749367084 l 8.166351776224522 7.788634158105422" fill="#ff8a0c" stroke="none" /><path d="M 84.80347519578584 85.50635884689758 l -5.038106914549481 -4.805079756800371 a27.962134209539773,27.962134209539773 0 0,0 0.33519373541289127,-0.34544660870415994 l 4.954648915433471 4.8910905610546545" fill="#ff4f07" stroke="none" /><path d="M 85.05521093208273 85.24692304244772 l -9.905343049540392 -9.778277072811875 a34.91871127086687,34.91871127086687 0 0,0 0.4259487491376302,-0.42411958984276654 l 9.735558500235447 9.947332513304751" fill="#ffad10" stroke="none" /><path d="M 85.31137513191541 84.99185889309783 l -5.047941403107526 -5.157747410502882 a28.216929455090742,28.216929455090742 0 0,0 0.35004680651700915,-0.33674475052763786 l 4.958411352978089 5.243875247792833" fill="#ff5207" stroke="none" /><path d="M 85.57189188830299 84.74124197986013 l -16.46268548464468 -17.410469357948017 a44.96131166339559,44.96131166339559 0 0,0 0.566923850605216,-0.5268939335442913 l 16.160553750244606 17.691267877566958" fill="#d4ff1c" stroke="none" /><path d="M 86.10567301691215 84.25364557470407 l -6.554634276865249 -7.428326292978608 a30.906728118728914,30.906728118728914 0 0,0 0.4019437672744289,-0.34856167416072886 l 6.425796710944047 7.5400529605590165" fill="#ff770b" stroke="none" /><path d="M 86.65592168130627 83.78471172551755 l -8.920407624775919 -10.839788084801384 a35.03832888614462,35.03832888614462 0 0,0 0.46900738904164496,-0.3792380246606966 l 8.732496837169773 10.991732206726216" fill="#ffae10" stroke="none" /><path d="M 86.93701828274178 83.55741782278169 l -7.00435310946995 -8.81649030010945 a32.26017156592498,32.26017156592498 0 0,0 0.43776660291715197,-0.34168377731563115 l 6.851553951393372 8.935752466648303" fill="#ff8a0c" stroke="none" /><path d="M 87.22198572758235 83.33499621200491 l -5.105823653426382 -6.658982273079467 a29.391154872428164,29.391154872428164 0 0,0 0.4041337626141176,-0.3043851714293954 l 4.990443737053874 6.745884034014717" fill="#ff6209" stroke="none" /><path d="M 87.80319425747018 82.90503203632743 l -13.891399759779809 -19.470100522790542 a44.91768804992613,44.91768804992613 0 0,0 0.6332727958799176,-0.44364806331217166 l 13.554195824316231 19.706333428866657" fill="#d5ff1c" stroke="none" /><path d="M 88.39885842347998 82.49532879139004 l -3.888187311672753 -5.866788198333226 a28.038267140053367,28.038267140053367 0 0,0 0.4045961658716696,-0.2631606008574703 l 3.7866241200167967 5.932847723350231" fill="#ff5007" stroke="none" /><path d="M 88.70189139769569 82.29822771554957 l -15.188876533284636 -23.79779156964378 a49.231841136128075,49.231841136128075 0 0,0 0.718271105598192,-0.44978130043127196 l 14.776986275314203 24.055717211397983" fill="#a3ff21" stroke="none" /><line stroke="#e1ed5e" stroke-width="0.3" x1="56.762969772571076" x2="54.21961505331055" y1="26.818313649435495" y2="22.513508569990535" /><path d="M 56.25429882871897 25.957352633546506 a86.0,86.0 0 0,1 42.265352541879196,-11.944610805530505" fill="none" id="id60" stroke="none" /><text fill="#e1ed5e" style="font-size:6.75px; font-family:Arial;" text-anchor="middle"><textPath startOffset="22.20632615414155" xlink:href="#id60">December</textPath></text><path d="M 89.3179101791058 81.91981866633112 l -3.540163337669715 -5.991973122214098 a27.95963349284407,27.95963349284407 0 0,0 0.4164697483635095,-0.24124615951434947 l 3.4364968568408853 6.0520234391184955" fill="#ff4f07" stroke="none" /><path d="M 89.94658935756843 81.56283822128135 l -11.44029667581546 -20.98060132133735 a44.89698767283393,44.89698767283393 0 0,0 0.681696519782891,-0.36413867222249197 l 11.077455109504264 21.174418720061592" fill="#d5ff1c" stroke="none" /><path d="M 90.26544431104013 81.39251694778311 l -2.9845095439177953 -5.704853157356965 a27.438372990495512,27.438372990495512 0 0,0 0.42038136891998384,-0.21533566486176808 l 2.8858676874090476 5.755381347531237" fill="#ff4706" stroke="none" /><path d="M 90.58718382345135 81.22770947309562 l -3.2008390695577003 -6.383539189186139 a28.141074381987785,28.141074381987785 0 0,0 0.43488510543580267,-0.21339623255207107 l 3.0904826971114714 6.437690581873039" fill="#ff5107" stroke="none" /><path d="M 90.91171255644093 81.06846463323043 l -3.6132090364567584 -7.526565932912983 a29.348920546011865,29.348920546011865 0 0,0 0.45731458464246066,-0.21471532940874147 l 3.4831162405146894 7.587646244961732" fill="#ff6209" stroke="none" /><path d="M 91.23893434514133 80.91482961587045 l -12.267559162761236 -26.723741841706886 a50.404955123822965,50.404955123822965 0 0,0 0.7916407389388855,-0.35518612378821496 l 11.805736305355577 26.93094829601163" fill="#96ff23" stroke="none" /><path d="M 91.90106846888425 80.62456947434976 l -9.180777471455372 -21.963578206115837 a44.80515579861953,44.80515579861953 0 0,0 0.7141432557811269,-0.2913169651023942 l 8.801350346085865 22.118356057401808" fill="#d6ff1c" stroke="none" /><path d="M 92.57280143429618 80.3572730644239 l -5.5442341290130965 -14.662847115194367 a36.67602046441881,36.67602046441881 0 0,0 0.5924359219932284,-0.21819914984252062 l 5.291015881247299 14.75610953284321" fill="#ffc412" stroke="none" /><path d="M 92.91201910852362 80.23233633223022 l -3.294370724837409 -9.187667614037311 a30.760436192030344,30.760436192030344 0 0,0 0.4999566873906183,-0.17442507132369775 l 3.1357320333835053 9.243013538533217" fill="#ff750a" stroke="none" /><path d="M 93.25333710446033 80.11325718540243 l -9.44834825921079 -27.850342423051476 a50.409400842393104,50.409400842393104 0 0,0 0.8241149156981674,-0.2716977306511387 l 8.967550521270214 28.008853877961847" fill="#96ff23" stroke="none" /><path d="M 93.94186890950719 79.89281104454417 l -2.408997852931292 -7.99556402769036 a29.350587690475663,29.350587690475663 0 0,0 0.4849971925791234,-0.14158398001254535 l 2.2710104426287474 8.035846336621605" fill="#ff6209" stroke="none" /><path d="M 94.28887869178378 79.79150937346287 l -7.172421271325189 -25.37922068344601 a47.373252916400205,47.373252916400205 0 0,0 0.7866263469660569,-0.21501469560823175 l 6.734497035135409 25.49892191988054" fill="#b8ff1f" stroke="none" /><path d="M 94.98787191387505 79.60689891045804 l -1.6604781231539842 -6.756071999874254 a27.957132776148367,27.957132776148367 0 0,0 0.4683170043377318,-0.11083550421118056 l 1.5439374318537185 6.783653416226305" fill="#ff4f07" stroke="none" /><path d="M 95.33964822691252 79.52364482259891 l -1.5444923946864235 -6.786091776381509 a27.95963349284407,27.95963349284407 0 0,0 0.47019752371422796,-0.10276696684924932 l 1.4274521468186747 6.811672241326627" fill="#ff4f07" stroke="none" /><path d="M 95.692805502759 79.44645832069477 l -6.028096649555656 -28.76553074463814 a50.3903676097647,50.3903676097647 0 0,0 0.8504780438190388,-0.17059789470806347 l 5.532052196269481 28.865032595423415" fill="#96ff23" stroke="none" /><path d="M 96.40284397218896 79.31037775812273 l -1.44850834521006 -8.33132904019176 a29.456312435221733,29.456312435221733 0 0,0 0.5002955400234071,-0.08255305080146359 l 1.3048835990477672 8.35502835393285" fill="#ff6309" stroke="none" /><path d="M 96.75951476605007 79.25152402106235 l -3.6802485287594506 -23.564232725235797 a44.849890841731536,44.849890841731536 0 0,0 0.7637958185424885,-0.11256364914941405 l 3.2740837297883134 23.62409085854618" fill="#d6ff1c" stroke="none" /><path d="M 98.19473922651362 79.07773832637324 l -1.2140276191133106 -14.07010216980732 a35.122380752861275,35.122380752861275 0 0,0 0.602783361727749,-0.04678759013706172 l 0.9716540680232272 14.088915022132843" fill="#ffb010" stroke="none" /><path d="M 99.27714615592234 79.0124445844662 l -0.9072647040238823 -26.34179565933573 a47.357415043994095,47.357415043994095 0 0,0 0.8149384963295621,-0.021047457057435305 l 0.4536995724994412 26.353509908535525" fill="#b9ff1f" stroke="none" /></svg>