<?xml version="1.0" encoding="utf-8" ?>
<svg baseProfile="full" height="200mm" version="1.1" viewBox="0,0,200,200" width="200mm" xmlns="http://www.w3.org/2000/svg" xmlns:ev="http://www.w3.org/2001/xml-events" xmlns:xlink="http://www.w3.org/1999/xlink"><defs /><rect fill="#1a1a1a" height="200" width="200" x="0" y="0" /><text alignment-baseline="middle" fill="#e1ed5e" style="dominant-baseline: central; font-size:9.0px; font-family:Arial;" text-anchor="middle" x="100.0" y="100.0">2020</text><line stroke="#e1ed5e" stroke-width="0.3" x1="100.0" x2="100.0" y1="15.0" y2="10.0" /><path d="M 100.0 14.0 a86.0,86.0 0 0,1 42.35913384403234,11.155469271406648" fill="none" id="id85" stroke="none" /><text fill="#e1ed5e" style="font-size:6.75px; font-family:Arial;" text-anchor="middle"><textPath startOffset="22.145653131862478" xlink:href="#id85">January</textPath></text><path d="M 100.0 79.0 l 0.0 -45.99017504208528 a66.99017504208528,66.99017504208528 0 0,0 1.1499754350980036,0.00987115603310035 l -0.789482510249149 45.98339828424662" fill="#37ff7b" stroke="none" /><path d="M 100.72087961077811 79.0123766808444 l 1.6084808409134037 -46.82916467665215 a67.85678045842022,67.85678045842022 0 0,0 1.1638221090327399,0.04997952898019181 l -2.41212871054698 46.794652579246126" fill="#38ff85" stroke="none" /><path d="M 101.08105385017728 79.02784411241856 l 2.135920419809537 -41.436285528577784 a62.49129926196074,62.49129926196074 0 0,0 1.0708498562855742,0.06441966819936908 l -2.8469146282275735 41.39351388255372" fill="#32ff46" stroke="none" /><path d="M 101.44090949804482 79.04949213459386 l 2.6281071362568436 -38.212100970942814 a59.30237078475917,59.30237078475917 0 0,0 1.0150052734941817,0.07856782751044251 l -3.283681404526259 38.161355376437314" fill="#3dff2e" stroke="none" /><path d="M 102.15924093988457 79.11130261209362 l 4.71069715711439 -45.57172179511089 a66.81454458004609,66.81454458004609 0 0,0 1.1398691701868375,0.127724718059002 l -5.492302228902023 45.484141316544914" fill="#37ff79" stroke="none" /><path d="M 102.51750503828377 79.15144685158666 l 6.0992320964484 -50.51039127770737 a71.87730593490032,71.87730593490032 0 0,0 1.2237014749746422,0.15843265529248882 l -6.9654113933138335 50.398247026214484" fill="#3effb2" stroke="none" /><path d="M 102.87502721639298 79.19773525538626 l 6.178586181706244 -44.70517175156271 a66.13011531717476,66.13011531717476 0 0,0 1.1231881855669104,0.16506998416892557 l -6.945099472880837 44.5925206940949" fill="#36ff71" stroke="none" /><path d="M 103.23170211078529 79.25015418208739 l 5.555042830743931 -35.66735989222346 a57.097355339869296,57.097355339869296 0 0,0 0.9671816100268763,0.15914936587415557 l -6.166501943823878 35.566744527853636" fill="#53ff2b" stroke="none" /><path d="M 103.94208987418118 79.37332000966035 l 9.926335588326229 -51.93878226828957 a73.87881656887626,73.87881656887626 0 0,0 1.2436391096148347,0.24876265206758089 l -10.81647118347202 51.76073021955913" fill="#40ffc8" stroke="none" /><path d="M 104.29559338865022 79.4440306129975 l 7.920776654252794 -37.90378364402561 a59.722545336530494,59.722545336530494 0 0,0 1.0017392877473192,0.21832441533468191 l -8.570278358619248 37.76222777055721" fill="#39ff2e" stroke="none" /><path d="M 104.64783097203109 79.52079915486377 l 11.681069652070889 -51.468948189018946 a73.7778364079132,73.7778364079132 0 0,0 1.2326795505797907,0.29090901752442727 l -12.562881356390564 51.26084302784829" fill="#40ffc7" stroke="none" /><path d="M 105.3480935250658 79.69241777938227 l 11.589273728534108 -44.00636002650227 a66.50682353600422,66.50682353600422 0 0,0 1.101538580503647,0.3002292384407592 l -12.342993709972449 43.80093029391737" fill="#37ff76" stroke="none" /><path d="M 105.69591212413111 79.78721728523813 l 11.427718188268875 -40.552940359880814 a63.132335738984864,63.132335738984864 0 0,0 1.0406012338577433,0.30290385329111225 l -12.122179434508222 40.35079281228718" fill="#32ff4e" stroke="none" /><path d="M 106.38641147887787 79.99465700312896 l 16.04533378093427 -50.261779537461244 a73.76077348195294,73.76077348195294 0 0,0 1.2029232271944879,0.3954247578701173 l -16.905779745776503 49.9789338581891" fill="#40ffc6" stroke="none" /><path d="M 106.72888874123014 80.10723608172694 l 15.771373536989394 -46.62526347268357 a70.22043698648368,70.22043698648368 0 0,0 1.1385549275416287,0.3960485058284596 l -16.56943423657604 46.34765653428652" fill="#3bffa0" stroke="none" /><path d="M 107.06938296918511 80.22567764915836 l 13.337062914075664 -37.30613865820709 a60.61849604363328,60.61849604363328 0 0,0 0.9768550795989059,0.3587147160814504 l -13.975507145328695 37.07169309311691" fill="#30ff2f" stroke="none" /><path d="M 107.40779381753099 80.34994680014964 l 13.107372661353013 -34.768863233790114 a58.157463162244895,58.157463162244895 0 0,0 0.9311501075313198,0.3601888649756901 l -13.702295031377858 34.53873448067639" fill="#48ff2c" stroke="none" /><path d="M 107.74402155503746 80.48000691201159 l 8.731856804030375 -22.009983217195842 a44.6787813129674,44.6787813129674 0 0,0 0.7104895094720672,0.28894989822894723 l -9.108400774692882 21.8568460623876" fill="#deff1b" stroke="none" /><path d="M 108.07796709384702 80.6158196554323 l 3.079051039321455 -7.388601605198117 a29.00449804691604,29.00449804691604 0 0,0 0.4579463911735775,0.19547008321633313 l -3.2054325056654625 7.334656872322382" fill="#ff5207" stroke="none" /><path d="M 108.4095320186766 80.7573450057729 l 7.315489988695879 -16.739272726896633 a39.26799510619967,39.26799510619967 0 0,0 0.6153605183895695,0.27524293280585027 l -7.601763909941081 16.61122604318093" fill="#ffdc14" stroke="none" /><path d="M 108.73861861582097 80.90454125486305 l 15.403774780297423 -33.66002783369175 a58.01720885273537,58.01720885273537 0 0,0 0.902060641909149,0.4222099281254486 l -15.979324136078077 33.390641673995766" fill="#4aff2c" stroke="none" /><path d="M 109.06512990194946 81.05736502329252 l 11.44198635972075 -23.909350816257575 a47.506152272838705,47.506152272838705 0 0,0 0.7325895481216368,0.35834625851670254 l -11.850736157104453 23.70941080764365" fill="#bdff1f" stroke="none" /><path d="M 109.3889696526874 81.21577127319529 l 9.237074657570753 -18.48033698614804 a41.660261454084434,41.660261454084434 0 0,0 0.6369512328191234,0.32523183793466115 l -9.552953112103456 18.319047196540545" fill="#fffb17" stroke="none" /><path d="M 110.02825361518725 81.54914285379988 l 19.201699741684987 -35.32896479218549 a61.20996177885907,61.20996177885907 0 0,0 0.9188950568346804,0.5096955982246498 l -19.805338986675768 34.99413627852769" fill="#30ff36" stroke="none" /><path d="M 110.34350942703115 81.72400993836675 l 19.729120578067462 -34.85946565362368 a61.05521869170226,61.05521869170226 0 0,0 0.9077094834276238,0.5240663146029148 l -20.324622529355484 34.51565244174459" fill="#30ff34" stroke="none" /><line stroke="#e1ed5e" stroke-width="0.3" x1="143.13028292997686" x2="145.6673583964461" y1="26.7553504044142" y2="22.446841604673864" /><path d="M 143.63769802327073 25.89364864446614 a86.0,86.0 0 0,1 29.32050498858742,28.57503671076993" fill="none" id="id86" stroke="none" /><text fill="#e1ed5e" style="font-size:6.75px; font-family:Arial;" text-anchor="middle"><textPath startOffset="20.669276256404974" xlink:href="#id86">February</textPath></text><path d="M 110.65571695917076 81.90426304109057 l 19.5018899299611 -33.118472621446585 a59.43379944290995,59.43379944290995 0 0,0 0.8747162171970704,0.5252419557885744 l -20.067538903715604 32.77881666512209" fill="#3bff2e" stroke="none" /><path d="M 111.27062007382361 82.28071324371311 l 17.983764715235896 -28.273465156274437 a54.50827696668434,54.50827696668434 0 0,0 0.785216044920783,0.5089675536065341 l -18.466466392413686 27.96058376096401" fill="#6fff28" stroke="none" /><path d="M 111.5731344415666 82.4767994020092 l 17.180469492264862 -26.013420547447264 a52.174774747429936,52.174774747429936 0 0,0 0.7431270854599595,0.5000090678055562 l -17.624492865821825 25.714661805584587" fill="#88ff25" stroke="none" /><path d="M 111.8722381534696 82.67804972795209 l 20.424037789810697 -29.799281515098034 a57.12670063063715,57.12670063063715 0 0,0 0.8041396729268266,0.5613519443371674 l -20.932572553911285 29.44428475495574" fill="#53ff2b" stroke="none" /><path d="M 112.16784306229584 82.88440491214696 l 14.488030901886374 -20.379229849320723 a46.0043205999575,46.0043205999575 0 0,0 0.6397207247634117,0.46310847087318024 l -14.835732637023753 20.127520607074466" fill="#cfff1d" stroke="none" /><path d="M 112.45986205192187 83.09580414077388 l 3.5002042801375177 -4.748699339702541 a26.899286009474736,26.899286009474736 0 0,0 0.3693489867269752,0.27716636536350564 l -3.581206255775259 4.687913947075021" fill="#ff3404" stroke="none" /><path d="M 112.7482090630111 83.31218511350987 l 16.974018455332033 -22.219535031342097 a48.96113444642386,48.96113444642386 0 0,0 0.6635167601347577,0.5159546459260321 l -17.352945160102017 21.924879333795275" fill="#acff20" stroke="none" /><path d="M 113.31354834802062 83.75963576809568 l 11.317325856181169 -13.805297373097128 a38.8512772678772,38.8512772678772 0 0,0 0.5121443189686204,0.4272490059275221 l -11.552644509311682 13.608986183257736" fill="#ffd714" stroke="none" /><path d="M 113.59037401385872 83.9905735841838 l 15.560246365942328 -18.329931093397104 a45.04386909084117,45.04386909084117 0 0,0 0.5851853237550908,0.5054691451308457 l -15.87261116946028 18.06011781580154" fill="#daff1c" stroke="none" /><path d="M 113.86319453409587 84.22622945171908 l 22.163334649911928 -25.217806364373793 a54.57307195707652,54.57307195707652 0 0,0 0.6983663346929025,0.624483482822908 l -22.592966011428203 24.833627351667495" fill="#6eff28" stroke="none" /><path d="M 114.39649973595853 84.71141617570332 l 27.801203775918264 -29.523914989061076 a61.55327961671457,61.55327961671457 0 0,0 0.7630482033074599,0.7309829179198762 l -28.303924465091036 29.04231994083562" fill="#30ff3b" stroke="none" /><path d="M 114.65682725009322 84.96080404539774 l 19.45812676151304 -19.96575222471997 a48.879202982976764,48.879202982976764 0 0,0 0.5958795667261757,0.5907866095795449 l -19.79799824836918 19.628785604911766" fill="#adff20" stroke="none" /><path d="M 114.91283532996326 85.21462403516908 l 29.445935611330366 -29.194262460269226 a62.465263590452416,62.465263590452416 0 0,0 0.7484326089976886,0.7679577901458047 l -29.942755021478867 28.68448197805568" fill="#32ff46" stroke="none" /><path d="M 115.16444852881244 85.47280134310134 l 22.6883584769219 -21.734934189458897 a52.41924529006741,52.41924529006741 0 0,0 0.6169100320661043,0.6551370756972623 l -23.058124342724263 21.34225565381714" fill="#85ff25" stroke="none" /><path d="M 115.6541949942343 86.00192230759917 l 24.31780911610727 -21.745134862675375 a53.6221815702655,53.6221815702655 0 0,0 0.6076898066727038,0.6914394479143428 l -24.68750998673856 21.324483136949734" fill="#78ff26" stroke="none" /><path d="M 115.8921839302757 86.27271002978787 l 18.358495240851322 -15.857630939434593 a45.258994342710785,45.258994342710785 0 0,0 0.50281759192168,0.5923178589668918 l -18.628007396280115 15.540146298018149" fill="#d7ff1c" stroke="none" /><path d="M 116.1254893667686 86.54754324733833 l 23.63421061307069 -19.716499073252184 a51.77850300142191,51.77850300142191 0 0,0 0.563530550287488,0.6874156425649546 l -23.969187982596804 19.307881148988734" fill="#8cff24" stroke="none" /><path d="M 116.57777611688842 87.10902102172516 l 16.226207134454036 -12.617596811087898 a41.55464782615802,41.55464782615802 0 0,0 0.4330548813568018,0.5668827409445009 l -16.440413993165144 12.337193156902515" fill="#fff917" stroke="none" /><path d="M 116.7966241395341 87.39550010848427 l 42.36008470702411 -31.787797277524387 a73.96074803232338,73.96074803232338 0 0,0 0.7533359349611193,1.0220448781302245 l -42.89952266156906 31.055946090125286" fill="#40ffc8" stroke="none" /><path d="M 117.01052211995028 87.68569379921539 l 17.194052760408397 -12.44716823099688 a42.22657408293777,42.22657408293777 0 0,0 0.42002351270151306,0.5908156716002552 l -17.40519137163987 12.15017533268712" fill="#fcff18" stroke="none" /><path d="M 117.42321728460499 88.27688183743584 l 43.185859855250705 -29.057373834302027 a73.05141175399314,73.05141175399314 0 0,0 0.6911204865646561,1.0464445033971301 l -43.678304780736084 28.311749452565838" fill="#3fffbf" stroke="none" /><path d="M 117.62189284568427 88.57770195909679 l 22.207628627308154 -14.394716571263903 a47.46481880564188,47.46481880564188 0 0,0 0.4373144147178315,0.6875308959300415 l -22.451460733651874 14.01137200065519" fill="#bdff1f" stroke="none" /><path d="M 117.81537515405839 88.88188828441811 l 14.379516852224898 -8.9738820202565 a37.94995762286451,37.94995762286451 0 0,0 0.3401617986753813,0.5556287339846124 l -14.53144661535568 8.725716170147333" fill="#ffcb13" stroke="none" /><line stroke="#e1ed5e" stroke-width="0.3" x1="172.87174338648825" x2="177.1583165268699" y1="56.24261187166439" y2="53.66864786411523" /><path d="M 173.72905801456457 55.72781907015455 a86.0,86.0 0 0,1 12.242430191666344,42.057860355516425" fill="none" id="id87" stroke="none" /><text fill="#e1ed5e" style="font-size:6.75px; font-family:Arial;" text-anchor="middle"><textPath startOffset="22.145653131862474" xlink:href="#id87">March</textPath></text><path d="M 118.18653347947321 89.5 l 24.441993232547116 -14.111591372342094 a49.22318274468418,49.22318274468418 0 0,0 0.4162092820434019,0.7354019209675511 l -24.680635879611895 13.689932681275424" fill="#a9ff21" stroke="none" /><path d="M 118.36410011445183 89.81374322990088 l 19.875686666388653 -11.024708349664406 a43.728552850008285,43.728552850008285 0 0,0 0.3584797013200118,0.6595622740185945 l -20.062011717324005 10.68189124217121" fill="#eaff1a" stroke="none" /><path d="M 118.53625476483649 90.13048839642627 l 16.299597383984537 -8.67861752849804 a39.466057432109025,39.466057432109025 0 0,0 0.3132701582525711,0.6007368346679662 l -16.446175611212052 8.397534450725574" fill="#ffdf14" stroke="none" /><path d="M 118.8641267826498 90.77261029715802 l 39.228122911554586 -19.18844066234866 a64.66969065858504,64.66969065858504 0 0,0 0.47923548799009297,1.0014178522613817 l -39.551737657504596 18.512210308022176" fill="#34ff60" stroke="none" /><path d="M 119.0197475246899 91.09779779509293 l 39.16159252018596 -18.32960268417422 a64.23892532518323,64.23892532518323 0 0,0 0.45889698856160727,1.002772737727772 l -39.47047397360262 17.65464096423176" fill="#34ff5b" stroke="none" /><path d="M 119.16976305983485 91.42560881287824 l 22.375540112392162 -10.00829448689272 a45.511849254139065,45.511849254139065 0 0,0 0.31287471424042385,0.7159185753945644 l -22.54404870864956 9.622713841722305" fill="#d4ff1c" stroke="none" /><path d="M 119.4528033332814 92.08871423366111 l 29.150795441870166 -11.855374729572294 a52.469330861528334,52.469330861528334 0 0,0 0.33215916039868554,0.8372580666277633 l -29.350013277234975 11.353215645730966" fill="#85ff25" stroke="none" /><path d="M 119.58574465831526 92.42381321644754 l 38.79664581092257 -15.00737604654142 a62.598089643401664,62.598089643401664 0 0,0 0.3790741073558922,1.0055391064747128 l -39.0485506020929 14.33916865987255" fill="#32ff47" stroke="none" /><path d="M 119.83427380445688 93.10060997987247 l 20.588912311802318 -7.161892466030692 a42.798991120647585,42.798991120647585 0 0,0 0.23542416268712857,0.6959897048522083 l -20.70882189606181 6.8074010867043215" fill="#f5ff19" stroke="none" /><path d="M 119.94978838288452 93.4421083053983 l 36.97411520714163 -12.154126067832568 a59.92053411534519,59.92053411534519 0 0,0 0.31282879945306796,0.9799317587124385 l -37.177308722371954 11.517625275428742" fill="#37ff2e" stroke="none" /><path d="M 120.05942366710727 93.78553927170692 l 23.129525210668273 -7.165586034331502 a45.2140570678758,45.2140570678758 0 0,0 0.22332230412600387,0.7433673187924088 l -23.249123834797906 6.76748111194837" fill="#d8ff1c" stroke="none" /><path d="M 120.26092885502905 94.47779374421319 l 44.72001023328277 -12.18863765013355 a67.3512912768476,67.3512912768476 0 0,0 0.29445509621901045,1.1180939616559686 l -44.92265481030651 11.419163184104782" fill="#38ff7f" stroke="none" /><path d="M 120.35273937422433 94.82641323984039 l 51.34878146822536 -13.052659451374936 a73.98178250139506,73.98178250139506 0 0,0 0.3023123690084988,1.2335376299035354 l -51.56528136375015 12.169265996863304" fill="#40ffc9" stroke="none" /><path d="M 120.43855184770803 95.1765574152323 l 29.91245724460232 -7.059258462327784 a51.73415410334418,51.73415410334418 0 0,0 0.19656302780708332,0.8660929688306311 l -30.029231133967066 6.544731159558126" fill="#8dff24" stroke="none" /><path d="M 120.592083275326 95.88100663000786 l 49.41853340906311 -9.885090728560261 a71.39748468936277,71.39748468936277 0 0,0 0.23008250050748158,1.2038888662655503 l -49.58094220185274 9.035299297261396" fill="#3dffad" stroke="none" /><path d="M 120.65975698304385 96.23510406497455 l 34.63555581005234 -6.311752039660305 a56.2059645526352,56.2059645526352 0 0,0 0.16483117071424033,0.9507023905006775 l -34.73880179825881 5.7162566162390345" fill="#5dff2a" stroke="none" /><path d="M 120.7213421655516 96.59031103205396 l 40.492606798979445 -6.663043039528023 a62.03714595245823,62.03714595245823 0 0,0 0.1638918233068116,1.0523030736909371 l -40.60102011442452 5.966951783905644" fill="#31ff40" stroke="none" /><path d="M 120.82617615685814 97.30363454192243 l 39.008945982765546 -5.05048904377513 a60.334530711165385,60.334530711165385 0 0,0 0.12416821637327713,1.0282909543516485 l -39.08989628539849 4.380104412500068" fill="#32ff2f" stroke="none" /><path d="M 120.86939407059847 97.66154086499901 l 48.327701067767755 -5.415219706581422 a69.6301480047724,69.6301480047724 0 0,0 0.12290585703259076,1.1890026755848355 l -48.413539317282016 4.5848125087136555" fill="#3bff99" stroke="none" /><path d="M 120.9064616781168 98.02013634271609 l 26.974942714138905 -2.554555120771153 a48.09563223650878,48.09563223650878 0 0,0 0.07078389316629718,0.8226161339292652 l -27.014820230002943 2.091117939466226" fill="#b6ff1f" stroke="none" /><path d="M 120.96210409425399 98.7389718711861 l 27.32350854433129 -1.6437144237697872 a48.37290478336294,48.37290478336294 0 0,0 0.042748772673703285,0.8293147694434442 l -27.347698906461563 1.1744278609496124" fill="#b3ff20" stroke="none" /><path d="M 120.98066250479742 99.09900007780936 l 42.31691617442281 -1.8172704590136108 a63.355918906739944,63.355918906739944 0 0,0 0.03733568224158162,1.086987651661049 l -42.341876543661236 1.0905765427884417" fill="#33ff50" stroke="none" /><path d="M 120.99303781780057 99.45929381324524 l 19.30493185636736 -0.49722656531233433 a40.311334190993634,40.311334190993634 0 0,0 0.011879497570952234,0.6919211776450132 l -19.31062278553698 0.16575847169825478" fill="#ffea16" stroke="none" /><line stroke="#e1ed5e" stroke-width="0.3" x1="184.99686870605535" x2="189.99668451229388" y1="99.2704041080226" y2="99.22748670261217" /><path d="M 185.99683186730306 99.26182062694052 a86.0,86.0 0 0,1 -10.086455211305974,41.156179273409016" fill="none" id="id88" stroke="none" /><text fill="#e1ed5e" style="font-size:6.75px; font-family:Arial;" text-anchor="middle"><textPath startOffset="21.40746469413373" xlink:href="#id88">April</textPath></text><path d="M 120.99922638620191 100.18025310272382 l 51.301474302316734 0.4403614565237196 a72.30336425424414,72.30336425424414 0 0,0 -0.02130734834922795,1.2410462205359014 l -51.28635552236884 -1.3209545930286921" fill="#3effb7" stroke="none" /><path d="M 120.99303781780057 100.54070618675476 l 62.97911345340173 1.6221185602642638 a84.0,84.0 0 0,0 -0.04950125201261679,1.441174941743557 l -62.94198751439227 -2.702999766571932" fill="#4dd2ff" stroke="none" /><path d="M 120.98066250479742 100.90099992219065 l 26.770077578445456 1.149622315772995 a47.794751072269946,47.794751072269946 0 0,0 -0.04223783867714758,0.8194027864073775 l -26.746398150311737 -1.6089968955571032" fill="#b9ff1f" stroke="none" /><path d="M 120.93736805541906 101.62068470465957 l 46.089272547380624 3.567601184098826 a67.22714378106781,67.22714378106781 0 0,0 -0.09894035574528143,1.1498369091052394 l -46.0212385689376 -4.358259140579723" fill="#38ff7e" stroke="none" /><path d="M 120.9064616781168 101.97986365728391 l 42.547119696858346 4.029256471366045 a63.73748123381672,63.73748123381672 0 0,0 -0.1125045685039187,1.0883796443582476 l -42.47168273587276 -4.7590406380072245" fill="#33ff55" stroke="none" /><path d="M 120.86939407059847 102.33845913500097 l 37.35555124480317 4.185767433203786 a58.58933170206655,58.58933170206655 0 0,0 -0.12057660398113647,0.9985472514762577 l -37.278192554562374 -4.826408361603452" fill="#44ff2d" stroke="none" /><path d="M 120.77682067341334 103.0534771498775 l 33.92435196927156 4.985711490263064 a55.28875873517676,55.28875873517676 0 0,0 -0.14606370648356828,0.9378337746576528 l -33.83376677064973 -5.567333446852167" fill="#66ff29" stroke="none" /><path d="M 120.7213421655516 103.40968896794604 l 29.113447763689113 4.7906067505488465 a50.504961510353795,50.504961510353795 0 0,0 -0.14811225105537235,0.8542721047883434 l -29.026920695141506 -5.289671888257778" fill="#9aff22" stroke="none" /><path d="M 120.65975698304385 103.76489593502545 l 21.74687396758228 3.9630048633804655 a43.10502058151236,43.10502058151236 0 0,0 -0.13890840780975133,0.726827486766653 l -21.67563926749037 -4.335734915180433" fill="#f1ff19" stroke="none" /><path d="M 120.51834098615036 104.47187691870673 l 26.082955954843346 5.684658851553277 a47.6952418532,47.6952418532 0 0,0 -0.18121725025074617,0.7984766414314255 l -25.981527843034936 -6.13156982692372" fill="#bbff1f" stroke="none" /><path d="M 120.43855184770803 104.8234425847677 l 21.218185701813784 5.007434051503742 a42.80105043929797,42.80105043929797 0 0,0 -0.17489828599509238,0.7136446910464345 l -21.129099889302395 -5.370934567158275" fill="#f5ff19" stroke="none" /><path d="M 120.35273937422433 105.17358676015961 l 24.795754967706287 6.302983949745396 a46.584312988416926,46.584312988416926 0 0,0 -0.20366333151530977,0.7733428427695895 l -24.683902155386246 -6.727707296887789" fill="#c8ff1d" stroke="none" /><path d="M 120.16314734710363 105.8691983318838 l 29.459115421375536 8.575119157413994 a51.68178857194891,51.68178857194891 0 0,0 -0.2552678714036618,0.8497037225270782 l -29.307571229968246 -9.079560483531795" fill="#8dff24" stroke="none" /><path d="M 120.05942366710727 106.21446072829308 l 22.962042134593553 7.113699349240601 a45.03872079421523,45.03872079421523 0 0,0 -0.23513490263345949,0.7365567335076817 l -22.83654251618284 -7.506825116439667" fill="#daff1c" stroke="none" /><path d="M 119.94978838288452 106.5578916946017 l 32.66997527474366 10.7392697809713 a55.38981244323449,55.38981244323449 0 0,0 -0.3046824206460002,0.9007394381216614 l -32.4808074325253 -11.298510893567123" fill="#65ff29" stroke="none" /><path d="M 119.71291397450082 107.23885506374661 l 32.950575926651226 12.099907893299992 a56.101968960791226,56.101968960791226 0 0,0 -0.33973566806701416,0.90118922257322 l -32.73800957476977 -12.66376539606737" fill="#5eff2a" stroke="none" /><path d="M 119.58574465831526 107.57618678355244 l 31.03372232160024 12.004510474281284 a54.27461784696134,54.27461784696134 0 0,0 -0.3435876005848701,0.8660652015066325 l -30.823076046049245 -12.535476693001481" fill="#71ff27" stroke="none" /><path d="M 119.4528033332814 107.91128576633889 l 23.216604230845533 9.441990825043133 a46.063158275682525,46.063158275682525 0 0,0 -0.30417950342202243,0.7299200755527672 l -23.051098882887025 -9.839143410037178" fill="#ceff1d" stroke="none" /><path d="M 119.16976305983485 108.57439118712176 l 22.94929428919943 10.264927432320109 a46.14038272507162,46.14038272507162 0 0,0 -0.3296082955378164,0.7202536105766435 l -22.769701528806557 -10.65737002511144" fill="#cdff1d" stroke="none" /><path d="M 119.0197475246899 108.90220220490707 l 31.1584547929731 14.58373012572494 a55.40253609061003,55.40253609061003 0 0,0 -0.4105611322534995,0.8579148614549179 l -30.903514402759686 -15.116457489244963" fill="#65ff29" stroke="none" /><path d="M 118.8641267826498 109.22738970284198 l 6.61367792339408 3.235081287959168 a28.362505457661392,28.362505457661392 0 0,0 -0.2176890995808847,0.43552402330846185 l -6.5571689106014635 -3.348137167431376" fill="#ff4906" stroke="none" /><path d="M 118.5362547648365 109.86951160357373 l 37.20386121602914 19.808960581718935 a63.14881028818787,63.14881028818787 0 0,0 -0.517683874160489,0.9524800205053691 l -36.858331992253305 -20.444695435698907" fill="#33ff4e" stroke="none" /><line stroke="#e1ed5e" stroke-width="0.3" x1="174.33088141563837" x2="178.70328620479359" y1="141.23008692659167" y2="143.65538615756765" /><path d="M 175.20536237346943 141.71514677278685 a86.0,86.0 0 0,1 -30.301960400862466,31.631185727798858" fill="none" id="id89" stroke="none" /><text fill="#e1ed5e" style="font-size:6.75px; font-family:Arial;" text-anchor="middle"><textPath startOffset="22.145653131862474" xlink:href="#id89">May</textPath></text><path d="M 118.36410011445183 110.18625677009912 l 19.442264284240437 10.784296260482025 a43.23291897911963,43.23291897911963 0 0,0 -0.3655582830202696,0.6459064589786634 l -19.254272636198788 -11.11645948955981" fill="#f0ff19" stroke="none" /><path d="M 118.18653347947321 110.5 l 6.375543518965218 3.6809217669047403 a28.361843533809484,28.361843533809484 0 0,0 -0.24705365769142254,0.4195511218485269 l -6.31141615114403 -3.789824057046817" fill="#ff4906" stroke="none" /><path d="M 117.81537515405839 111.11811171558189 l 6.245491173779886 3.897648406968701 a28.36191708090414,28.36191708090414 0 0,0 -0.261310913653735,0.41082415885278273 l -6.177662568500261 -4.004286240500155" fill="#ff4906" stroke="none" /><path d="M 117.62189284568427 111.42229804090321 l 25.862088370071998 16.7634932245934 a51.819836468618746,51.819836468618746 0 0,0 -0.4902540516875723,0.7423071195685644 l -25.570509879463696 -17.204980222501028" fill="#8cff24" stroke="none" /><path d="M 117.423217284605 111.72311816256416 l 24.069958849760983 16.195342522252314 a50.01123986392621,50.01123986392621 0 0,0 -0.4853716170885211,0.7081716948386663 l -23.788397495857144 -16.606148952161025" fill="#a0ff22" stroke="none" /><path d="M 117.01052211995028 112.31430620078461 l 19.34214764344183 14.002223269959412 a44.8784616749592,44.8784616749592 0 0,0 -0.4571148722123021,0.6201641156091262 l -19.0989307516457 -14.332193694837416" fill="#dcff1b" stroke="none" /><path d="M 116.79662413953412 112.60449989151573 l 23.555930302970864 17.67680924939622 a50.45083084868678,50.45083084868678 0 0,0 -0.5257649796222649,0.6882432356081316 l -23.249013345994292 -18.07857339824523" fill="#9bff22" stroke="none" /><path d="M 116.57777611688842 112.89097897827486 l 5.812732326497211 4.520015815081393 a28.36331447570261,28.36331447570261 0 0,0 -0.3021821707849909,0.3817973012741476 l -5.734283725070659 -4.619133060270223" fill="#ff4906" stroke="none" /><path d="M 116.1254893667686 113.45245675266167 l 23.732590717800278 19.79857125562728 a51.90662204031315,51.90662204031315 0 0,0 -0.5766712910469757,0.679317330834001 l -23.389224863246188 -20.20305536891084" fill="#8bff24" stroke="none" /><path d="M 115.89218393027572 113.72728997021213 l 29.508463538206446 25.48870799265685 a59.99261026810834,59.99261026810834 0 0,0 -0.6798846422883019,0.7735839182217087 l -29.066567831959556 -25.99150418868985" fill="#36ff2f" stroke="none" /><path d="M 115.6541949942343 113.99807769240083 l 8.786165799367016 7.856643635980868 a32.7865838425205,32.7865838425205 0 0,0 -0.3787666962731403,0.41633094936324677 l -8.650001402251995 -8.006312160901787" fill="#ff870c" stroke="none" /><path d="M 115.16444852881244 114.52719865689866 l 21.341446477284226 20.444622962188074 a50.55401742248954,50.55401742248954 0 0,0 -0.6057170494452581,0.6215190534904311 l -20.98734262668816 -20.807964707746244" fill="#9aff23" stroke="none" /><path d="M 114.91283532996324 114.78537596483092 l 19.618384893501837 19.450707397699063 a48.62627452445382,48.62627452445382 0 0,0 -0.5927961510589823,0.587729547734055 l -19.28159682231289 -19.78461695566178" fill="#b0ff20" stroke="none" /><path d="M 114.65682725009322 115.03919595460226 l 5.137899003902654 5.271937002201916 a28.3614757983362,28.3614757983362 0 0,0 -0.35158440437009414,0.33680990622556717 l -5.0466421136672475 -5.359359038733063" fill="#ff4906" stroke="none" /><path d="M 114.13192950727249 115.5334660781643 l 22.057050982704865 24.24456285660554 a53.77670401613833,53.77670401613833 0 0,0 -0.68817529101448,0.6153705887245742 l -21.637610664867005 -24.6196289752135" fill="#76ff27" stroke="none" /><path d="M 113.86319453409587 115.77377054828091 l 30.194365714400348 34.35564547972298 a66.7384968841715,66.7384968841715 0 0,0 -0.8670300685611767,0.7489199229161986 l -29.600156166076317 -34.8689095351039" fill="#37ff78" stroke="none" /><path d="M 113.59037401385872 116.0094264158162 l 5.568681271989167 6.55989253615335 a29.604789433500585,29.604789433500585 0 0,0 -0.39025550223455685,0.32556501988197933 l -5.455251435592715 -6.654519739947199" fill="#ff5b08" stroke="none" /><path d="M 113.03279911837588 116.46651593811092 l 20.569525196867616 25.9889231328691 a54.14407175394644,54.14407175394644 0 0,0 -0.7337554465776029,0.5705726733388887 l -20.120359805654783 -26.33819685782878" fill="#72ff27" stroke="none" /><path d="M 112.7482090630111 116.68781488649013 l 21.076660771762302 27.590025520136944 a55.71937697438927,55.71937697438927 0 0,0 -0.7650721814437816,0.5741244280934 l -20.599935601407754 -27.94776897549436" fill="#62ff29" stroke="none" /><path d="M 112.45986205192187 116.90419585922612 l 14.898832403752499 20.213127559303096 a46.11066969883049,46.11066969883049 0 0,0 -0.6411995798301036,0.4641790478954093 l -14.549651813548426 -20.465907378571583" fill="#cdff1d" stroke="none" /><path d="M 111.8722381534696 117.32195027204791 l 17.192274397310545 25.084042143021215 a51.410252698477926,51.410252698477926 0 0,0 -0.7322379719993237,0.49268238630354516 l -16.759140137214217 -25.37547420338188" fill="#90ff24" stroke="none" /><path d="M 111.5731344415666 117.5232005979908 l 24.66797243482005 37.350454321910206 a65.76120309037887,65.76120309037887 0 0,0 -0.9473194654716356,0.6140410323296362 l -24.023167337091408 -37.76840919594374" fill="#36ff6d" stroke="none" /><path d="M 111.27062007382361 117.71928675628689 l 10.519051548668312 16.5376962025288 a40.59963880204624,40.59963880204624 0 0,0 -0.5912774239927004,0.36900084326064464 l -10.233609995885896 -16.71583284263099" fill="#ffed16" stroke="none" /><line stroke="#e1ed5e" stroke-width="0.3" x1="143.1302829299769" x2="145.66735839644613" y1="173.24464959558577" y2="177.55315839532614" /><path d="M 143.63769802327073 174.10635135553383 a86.0,86.0 0 0,1 -40.68552437913181,11.842963189579606" fill="none" id="id90" stroke="none" /><text fill="#e1ed5e" style="font-size:6.75px; font-family:Arial;" text-anchor="middle"><textPath startOffset="21.407464694133747" xlink:href="#id90">June</textPath></text><path d="M 110.65571695917076 118.09573695890943 l 23.590773173417766 40.0622902840961 a67.49206041601973,67.49206041601973 0 0,0 -1.0034061724524954,0.5793168237719825 l -22.89957453310487 -40.46135400514426" fill="#38ff81" stroke="none" /><path d="M 110.34350942703117 118.27599006163325 l 12.546803458513105 22.16899949970534 a46.473256875485944,46.473256875485944 0 0,0 -0.6976649678719851,0.3869829971496589 l -12.164394302485025 -22.381115412288143" fill="#c9ff1d" stroke="none" /><path d="M 110.02825361518725 118.45085714620011 l 10.072424600379893 18.53212678387282 a42.09249772937938,42.09249772937938 0 0,0 -0.6378239785222672,0.33960534298464745 l -9.752811806071072 -18.702302594580036" fill="#feff18" stroke="none" /><path d="M 109.3889696526874 118.78422872680471 l 12.633864574703937 25.276192239772232 a49.257749879172636,49.257749879172636 0 0,0 -0.7596008306086951,0.3715588303337467 l -12.198103494833171 -25.4893448202032" fill="#a9ff21" stroke="none" /><path d="M 109.06512990194946 118.94263497670748 l 13.486512361860886 28.18162382037624 a52.242438074513714,52.242438074513714 0 0,0 -0.8122736021998889,0.3801850599281059 l -13.000750045789491 -28.40898511187488" fill="#87ff25" stroke="none" /><path d="M 108.73861861582097 119.09545874513695 l 11.047523504346369 24.14083261755417 a47.54858894645538,47.54858894645538 0 0,0 -0.7451239683526453,0.33328447344988504 l -10.631486133138097 -24.326920841913907" fill="#bcff1f" stroke="none" /><path d="M 108.07796709384702 119.3841803445677 l 10.679739524414869 25.62748703593392 a48.76373404436641,48.76373404436641 0 0,0 -0.775449116181523,0.31536840476205774 l -10.238235947042904 -25.807042697275268" fill="#aeff20" stroke="none" /><path d="M 107.74402155503746 119.51999308798841 l 13.1023687297784 33.02652829977982 a56.530601428448016,56.530601428448016 0 0,0 -0.9051026770555777,0.350113159305133 l -12.533493790229294 -33.24658134722299" fill="#59ff2a" stroke="none" /><path d="M 107.407793817531 119.65005319985036 l 7.677809188132203 20.36630105012591 a42.76545364548433,42.76545364548433 0 0,0 -0.6891568308602123,0.25306793410862843 l -7.327063205617864 -20.49509983324326" fill="#f6ff19" stroke="none" /><path d="M 106.72888874123015 119.89276391827305 l 14.89037468560073 44.02074691178989 a67.47095239985337,67.47095239985337 0 0,0 -1.1003460507715153,0.36170560253827205 l -14.13250589718148 -44.26987343573018" fill="#38ff81" stroke="none" /><path d="M 106.38641147887787 120.00534299687104 l 10.282224324317996 32.20892124772617 a54.81033488443767,54.81033488443767 0 0,0 -0.8987834396618709,0.27844540709201543 l -9.727800251784501 -32.380683242624826" fill="#6bff28" stroke="none" /><path d="M 106.0420521117495 120.11202640906438 l 9.650161524926704 32.12224917154264 a54.54049059414378,54.54049059414378 0 0,0 -0.8989830828075248,0.26168087348543706 l -9.097318429737571 -32.2831737393306" fill="#6eff28" stroke="none" /><path d="M 105.3480935250658 120.30758222061773 l 8.548312464754334 32.45933479134399 a54.566084983084174,54.566084983084174 0 0,0 -0.9078619648810831,0.23077496130617028 l -7.989845206647853 -32.601294984485435" fill="#6eff28" stroke="none" /><path d="M 104.9986988182912 120.39639698878246 l 7.420388701600971 30.27771811638532 a52.17374508810475,52.17374508810475 0 0,0 -0.8717185509708512,0.20572320446256628 l -6.89953799689024 -30.40063746449411" fill="#88ff25" stroke="none" /><path d="M 104.64783097203109 120.47920084513623 l 5.56973681886737 24.541288109341398 a46.16538873725475,46.16538873725475 0 0,0 -0.7743421411737512,0.16876426562138522 l -5.147632261074483 -24.633283833096502" fill="#cdff1d" stroke="none" /><path d="M 103.94208987418118 120.62667999033965 l 4.9051336211962715 25.665731818274978 a47.130253072050465,47.130253072050465 0 0,0 -0.7959744649335659,0.1450530628154086 l -4.463824422711648 -25.74615305502175" fill="#c1ff1e" stroke="none" /><path d="M 103.58742460773223 120.69131181640829 l 4.6988346280865345 27.101629468092305 a48.505951477596156,48.505951477596156 0 0,0 -0.8216503893522392,0.1352022588932637 l -4.232906735681222 -27.178297725481237" fill="#b1ff20" stroke="none" /><path d="M 103.2317021107853 120.74984581791261 l 4.598133886745546 29.523318031594368 a50.8792426750596,50.8792426750596 0 0,0 -0.864159452756563,0.12700168059011063 l -4.090649328381298 -29.597900785483358" fill="#96ff23" stroke="none" /><path d="M 102.51750503828377 120.84855314841334 l 3.3872729721530352 28.051479347290396 a49.25524927795432,49.25524927795432 0 0,0 -0.8403041654282946,0.09415783444300234 l -2.9052329051239414 -28.10549294224037" fill="#a9ff21" stroke="none" /><path d="M 102.15924093988457 120.88869738790638 l 3.472774935087973 33.59594724951677 a54.774958731908,54.774958731908 0 0,0 -0.9361312668785501,0.08865260426540772 l -2.8955441048244075 -33.65061160928736" fill="#6cff28" stroke="none" /><path d="M 101.80034050326958 120.92268563240118 l 2.163040406595701 25.137808295260267 a46.23069855730954,46.23069855730954 0 0,0 -0.7912736406998486,0.061249584154423956 l -1.731197771120617 -25.171235646409745" fill="#ccff1d" stroke="none" /><path d="M 101.08105385017728 120.97215588758144 l 1.5918257143786996 30.880993599288463 a51.921993383096314,51.921993383096314 0 0,0 -0.8905221178497845,0.038242851421309614 l -1.0614778359280854 -30.903769019135606" fill="#8bff24" stroke="none" /><path d="M 100.72087961077811 120.9876233191556 l 1.1201340814675398 32.61148160843908 a53.63071303324562,53.63071303324562 0 0,0 -0.920371187336874,0.023705497004438372 l -0.5601495800599219 -32.625904822793565" fill="#78ff26" stroke="none" /><line stroke="#e1ed5e" stroke-width="0.3" x1="101.45913802915013" x2="101.54496967792366" y1="184.9874750549273" y2="189.98673829345242" /><path d="M 101.47630435890484 185.9873277026323 a86.0,86.0 0 0,1 -42.54439059252881,-10.42667462771756" fill="none" id="id91" stroke="none" /><text fill="#e1ed5e" style="font-size:6.75px; font-family:Arial;" text-anchor="middle"><textPath startOffset="22.145653131862474" xlink:href="#id91">July</textPath></text><path d="M 100.36049292484886 120.99690560180557 l 0.5240310165604951 30.522179573294554 a51.52667774931882,51.52667774931882 0 0,0 -0.8845239414093437,0.007592574218701032 l -3.738439819430603e-15 -30.52667774931882" fill="#8fff24" stroke="none" /><path d="M 99.63950707515114 120.99690560180557 l -0.6129550511995779 35.70155878533189 a56.70682026724446,56.70682026724446 0 0,0 -0.9731610964618191,-0.025065177804791516 l 1.225729461732141 -35.68577589017705" fill="#57ff2a" stroke="none" /><path d="M 99.27912038922189 120.98762331915562 l -0.972603512531191 28.316290063828017 a49.332988557006004,49.332988557006004 0 0,0 -0.8461176967051031,-0.03633593451689864 l 1.4585469698371327 -28.295421560885288" fill="#a8ff21" stroke="none" /><path d="M 98.91894614982273 120.97215588758144 l -1.654190565241934 32.090855045131796 a53.133461126274526,53.133461126274526 0 0,0 -0.9104940989067142,-0.05477306403392715 l 2.2048290162810944 -32.05773000327317" fill="#7dff26" stroke="none" /><path d="M 98.19965949673042 120.92268563240118 l -3.193283333344202 37.11079276248578 a58.247926088672116,58.247926088672116 0 0,0 -0.9954860050067516,-0.09427355967703699 l 3.829868901735969 -37.05050744730356" fill="#47ff2c" stroke="none" /><path d="M 97.84075906011543 120.88869738790638 l -4.195863560845886 40.591173770602204 a61.80745837584667,61.80745837584667 0 0,0 -1.054447302350897,-0.11815301959501995 l 4.892046764797582 -40.513164990500215" fill="#31ff3e" stroke="none" /><path d="M 97.48249496171623 120.84855314841334 l -4.016165770972684 33.259613885835 a54.50121644559733,54.50121644559733 0 0,0 -0.9278758863443445,-0.12013211020968435 l 4.586519479207823 -33.18577017942492" fill="#6fff28" stroke="none" /><path d="M 96.76829788921471 120.74984581791261 l -7.567295145986869 48.58746324849564 a70.17321975171436,70.17321975171436 0 0,0 -1.188675854708853,-0.19559615954812584 l 8.400248503748786 -48.45040109045184" fill="#3bff9f" stroke="none" /><path d="M 96.41257539226777 120.69131181640829 l -2.5157085502495864 14.509938394307852 a35.72640831012124,35.72640831012124 0 0,0 -0.603376958217756,-0.10995538133127421 l 2.7644202420184 -14.464614839045213" fill="#ffae10" stroke="none" /><path d="M 96.05791012581884 120.62667999033965 l -1.3844950396784077 7.244263079514628 a28.37537619922624,28.37537619922624 0 0,0 -0.4776569148003657,-0.0955447605221699 l 1.5086484400097315 -7.219428922329596" fill="#ff4906" stroke="none" /><path d="M 95.35216902796893 120.47920084513623 l -11.952811773474082 52.66629411570781 a75.00563160610511,75.00563160610511 0 0,0 -1.2531935437625474,-0.29575026405885274 l 12.855137470976517 -52.45334770800273" fill="#42ffd3" stroke="none" /><path d="M 95.00130118170881 120.39639698878247 l -11.783467526422754 48.08056862595807 a70.50344620672104,70.50344620672104 0 0,0 -1.1730252816189326,-0.298178439507854 l 12.607098101267065 -47.87120495461496" fill="#3cffa3" stroke="none" /><path d="M 94.6519064749342 120.30758222061772 l -8.633179549144636 32.78158893405904 a54.89932686897177,54.89932686897177 0 0,0 -0.9092860457711434,-0.24782995519036288 l 9.194646995850473 -32.628558484724536" fill="#6aff28" stroke="none" /><path d="M 93.95794788825049 120.11202640906438 l -7.806955936769635 25.9868172386962 a48.134170914108665,48.134170914108665 0 0,0 -0.789307268249099,-0.2445294093435743 l 8.251903837890367 -25.84897124154598" fill="#b6ff1f" stroke="none" /><path d="M 93.61358852112213 120.00534299687104 l -8.629052184797441 27.03038306656428 a49.37432202420284,49.37432202420284 0 0,0 -0.8052182208260814,-0.26469122285164903 l 9.091793143271268 -26.87827092231061" fill="#a7ff21" stroke="none" /><path d="M 93.27111125876986 119.89276391827306 l -13.576723953390136 40.137171942447495 a63.371216702428455,63.371216702428455 0 0,0 -1.0275015955076665,-0.35741839220338795 l 14.263731320942824 -39.89819511767552" fill="#33ff51" stroke="none" /><path d="M 92.59220618246901 119.65005319985036 l -13.99366786909843 37.11986657053992 a60.66997900989267,60.66997900989267 0 0,0 -0.9713776084314927,-0.37574972650901767 l 14.628817740023452 -36.874176955892864" fill="#2fff30" stroke="none" /><path d="M 92.25597844496254 119.51999308798841 l -13.607261497887595 34.29918789578211 a57.8997541425693,57.8997541425693 0 0,0 -0.9207316473372051,-0.37445354540413717 l 14.194047606415241 -34.06054709379868" fill="#4bff2c" stroke="none" /><path d="M 91.92203290615298 119.3841803445677 l -9.722428649525726 23.330289432987325 a46.27504745538727,46.27504745538727 0 0,0 -0.730627744334772,-0.3118615382453045 l 10.12149146903093 -23.159953245082615" fill="#cbff1d" stroke="none" /><path d="M 91.26138138417905 119.09545874513695 l -15.320988897992153 33.479125740381754 a57.81826396169014,57.81826396169014 0 0,0 -0.8989674156118636,-0.42076214203216683 l 15.893445027475508 -33.211187366779065" fill="#4cff2c" stroke="none" /><path d="M 90.93487009805054 118.94263497670748 l -16.037423496056913 33.51204699089283 a58.15180003595636,58.15180003595636 0 0,0 -0.8967554489812425,-0.4386480270853394 l 16.610339194300227 -33.23180521371027" fill="#48ff2c" stroke="none" /><path d="M 90.6110303473126 118.78422872680471 l -14.016440046923783 28.042269334804057 a52.35011102109051,52.35011102109051 0 0,0 -0.8003902661497116,-0.4086849729024766 l 14.495757534787078 -27.797526410228745" fill="#86ff25" stroke="none" /><path d="M 89.97174638481275 118.45085714620012 l -18.387726707369147 33.83134608873788 a59.50543431310516,59.50543431310516 0 0,0 -0.8933063811191274,-0.4955019911531902 l 18.965777276644374 -33.51071118215154" fill="#3bff2e" stroke="none" /><line stroke="#e1ed5e" stroke-width="0.3" x1="58.13341422392154" x2="55.67067388415222" y1="173.97424548756322" y2="178.32567169271397" /><path d="M 57.64086615596768 174.84453072859336 a86.0,86.0 0 0,1 -31.369924170532247,-30.572349798747897" fill="none" id="id92" stroke="none" /><text fill="#e1ed5e" style="font-size:6.75px; font-family:Arial;" text-anchor="middle"><textPath startOffset="22.145653131862474" xlink:href="#id92">August</textPath></text><path d="M 89.65649057296885 118.27599006163327 l -26.707850503525503 47.19021274292199 a75.2238458359503,75.2238458359503 0 0,0 -1.1183548222138948,-0.6456824576547131 l 27.5139977935998 -46.72478338799111" fill="#42ffd6" stroke="none" /><path d="M 89.34428304082925 118.09573695890944 l -12.206715567500165 20.729671676536164 a45.056666285311366,45.056666285311366 0 0,0 -0.6631209355958613,-0.3981850688132897 l 12.560769259653455 -20.517072607186954" fill="#daff1c" stroke="none" /><path d="M 88.72937992617639 117.7192867562869 l -24.789445927041147 38.97312641483553 a67.1889728389412,67.1889728389412 0 0,0 -0.967887125603488,-0.6273727411356831 l 25.454818684901646 -38.54183983199595" fill="#38ff7e" stroke="none" /><path d="M 88.4268655584334 117.5232005979908 l -21.387318466777774 32.38312607865363 a59.80830124889971,59.80830124889971 0 0,0 -0.8518516621980188,-0.5731638152586168 l 21.9400664170728 -32.011212589337894" fill="#38ff2e" stroke="none" /><path d="M 88.1277618465304 117.32195027204791 l -22.639640802133144 33.03191252417473 a61.045731116491595,61.045731116491595 0 0,0 -0.8593056086153014,-0.5998620518501995 l 23.20334150192221 -32.6384056565194" fill="#30ff34" stroke="none" /><path d="M 87.54013794807813 116.9041958592261 l -26.745355413746296 36.2852112129801 a66.07694076773828,66.07694076773828 0 0,0 -0.907289922490365,-0.6808472723210133 l 27.364298325147427 -35.820744913395075" fill="#36ff71" stroke="none" /><path d="M 87.2517909369889 116.68781488649013 l -22.584757976728916 29.564173172008882 a58.20365073768904,58.20365073768904 0 0,0 -0.7887704850414646,-0.6133527000038681 l 23.08893840640561 -29.17211942038422" fill="#48ff2c" stroke="none" /><path d="M 86.96720088162412 116.46651593811092 l -18.95737825843109 23.952028140839932 a51.5463883706867,51.5463883706867 0 0,0 -0.6891242298113704,-0.5551096989913474 l 19.36575325859772 -23.623070148055174" fill="#8fff24" stroke="none" /><path d="M 86.40962598614128 116.0094264158162 l -21.032591741331526 24.776340185588865 a53.499799204757444,53.499799204757444 0 0,0 -0.6950401453154437,-0.6003591235504893 l 21.45481136640983 -24.411636929573653" fill="#79ff26" stroke="none" /><path d="M 86.13680546590413 115.77377054828092 l -25.962986787484006 29.541113004408345 a60.3287940377822,60.3287940377822 0 0,0 -0.7720217546438943,-0.6903466135249438 l 26.466273568951273 -29.09107086100002" fill="#33ff2f" stroke="none" /><path d="M 85.86807049272751 115.53346607816431 l -19.276657690444885 21.188423575196726 a49.64504887963259,49.64504887963259 0 0,0 -0.6254572350101747,-0.5789138791910823 l 19.637544696769027 -20.854391949873268" fill="#a4ff21" stroke="none" /><path d="M 85.34317274990678 115.03919595460226 l -30.953824160156238 31.761350471394213 a65.35000128415562,65.35000128415562 0 0,0 -0.7966727784886269,-0.7898636503572131 l 31.494488858774826 -31.22530681080834" fill="#35ff68" stroke="none" /><path d="M 85.08716467003676 114.78537596483092 l -22.47339635918025 22.281317202606125 a52.64665290674462,52.64665290674462 0 0,0 -0.6307901307890024,-0.6472462437670266 l 22.852573291120063 -21.89224826677136" fill="#83ff25" stroke="none" /><path d="M 84.83555147118756 114.52719865689866 l -31.569288947621505 30.242664685614383 a64.7177169113956,64.7177169113956 0 0,0 -0.7616479137409555,-0.8088436902995556 l 32.083792695098715 -29.696279535370337" fill="#35ff61" stroke="none" /><path d="M 84.3458050057657 113.99807769240083 l -27.78750551346742 24.847758776404525 a58.276756549777375,58.276756549777375 0 0,0 -0.660439204153602,-0.7514585791742672 l 28.209955781579612 -24.367087919418957" fill="#47ff2c" stroke="none" /><path d="M 84.1078160697243 113.72728997021213 l -39.66398528229745 34.26080579819196 a73.41216025328218,73.41216025328218 0 0,0 -0.8155931472275156,-0.9607666766542133 l 40.24627299303208 -33.57487233908819" fill="#40ffc3" stroke="none" /><path d="M 83.8745106332314 113.45245675266167 l -31.937785124201937 26.64363625729917 a62.5921323287345,62.5921323287345 0 0,0 -0.6812205206842311,-0.8309782703274777 l 32.3904524641248 -26.091455705273198" fill="#32ff47" stroke="none" /><path d="M 83.4222238831116 112.89097897827486 l -29.16439468068438 22.678409702964387 a57.94417658774169,57.94417658774169 0 0,0 -0.6038556414314675,-0.7904664186602849 l 29.549402299470145 -22.174422371063233" fill="#4bff2c" stroke="none" /><path d="M 83.20337586046588 112.60449989151573 l -40.15870364942982 30.13583989185402 a71.20846865609613,71.20846865609613 0 0,0 -0.7253022682889084,-0.9840118252678017 l 40.670107937302554 -29.442021757317338" fill="#3dffab" stroke="none" /><path d="M 82.98947788004972 112.3143062007846 l -33.24277662139872 24.065206664061186 a62.0392052711086,62.0392052711086 0 0,0 -0.6170977752540507,-0.8680253021664517 l 33.65098949518273 -23.49100413518523" fill="#31ff40" stroke="none" /><path d="M 82.576782715395 111.72311816256416 l -39.11287461143807 26.3168875907088 a68.14229027987588,68.14229027987588 0 0,0 -0.6446765597419549,-0.9761224786784419 l 39.558875610100756 -25.6415852336913" fill="#39ff89" stroke="none" /><path d="M 82.37810715431573 111.42229804090323 l -31.14091701933673 20.185166178048426 a58.11061366294885,58.11061366294885 0 0,0 -0.5353988415496878,-0.8417359062999891 l 31.482833552512307 -19.647616597069767" fill="#49ff2c" stroke="none" /><path d="M 82.18462484594161 111.11811171558189 l -25.855539810747153 16.135769109362645 a51.47740119589911,51.47740119589911 0 0,0 -0.46141409579285125,-0.7536852488621103 l 26.12872187099541 -15.689546744375978" fill="#90ff24" stroke="none" /><line stroke="#e1ed5e" stroke-width="0.3" x1="26.387840678322732" x2="22.057713659400548" y1="142.50000000000003" y2="145.00000000000006" /><path d="M 25.521815274538298 143.00000000000003 a86.0,86.0 0 0,1 -11.493303480769221,-40.785679425670985" fill="none" id="id93" stroke="none" /><text fill="#e1ed5e" style="font-size:6.75px; font-family:Arial;" text-anchor="middle"><textPath startOffset="21.40746469413373" xlink:href="#id93">September</textPath></text><path d="M 81.81346652052679 110.50000000000001 l -38.406253266728484 22.173860662110663 a65.34772132422128,65.34772132422128 0 0,0 -0.5525511894791758,-0.9763050073773187 l 38.78123782122904 -21.511298884634222" fill="#35ff68" stroke="none" /><path d="M 81.63589988554817 110.18625677009913 l -27.73440173905389 15.383805126218121 a52.71527234605893,52.71527234605893 0 0,0 -0.4321513943175456,-0.7951098913183303 l 27.994398482986767 -14.905440401425203" fill="#82ff25" stroke="none" /><path d="M 81.4637452351635 109.86951160357371 l -35.34368763076603 18.818522922260183 a61.04139183790687,61.04139183790687 0 0,0 -0.48452892751987947,-0.9291481060531936 l 35.66152462726085 -18.209028573102486" fill="#30ff34" stroke="none" /><path d="M 81.1358732173502 109.22738970284198 l -28.78224324254614 14.078837466531114 a53.041085975386245,53.041085975386245 0 0,0 -0.39306157895722443,-0.8213475255278819 l 29.019684079463275 -13.582677438938129" fill="#7eff26" stroke="none" /><path d="M 80.9802524753101 108.90220220490708 l -29.569231182567048 13.839893231450624 a53.64784950630054,53.64784950630054 0 0,0 -0.3832386120506234,-0.8374455308882658 l 29.80245425947273 -13.33025871834767" fill="#78ff26" stroke="none" /><path d="M 80.83023694016515 108.57439118712176 l -23.084844216998853 10.325557190899321 a46.288874309182646,46.288874309182646 0 0,0 -0.3182164328486286,-0.728141472938155 l 23.25869453186445 -9.927753648185316" fill="#cbff1d" stroke="none" /><path d="M 80.5471966667186 107.91128576633889 l -32.1626173659942 13.080256486244586 a55.720700822093086,55.720700822093086 0 0,0 -0.35274208567167686,-0.8891404840776499 l 32.382418126632004 -12.52621498495337" fill="#62ff29" stroke="none" /><path d="M 80.41425534168474 107.57618678355246 l -36.47741308465212 14.11024700522656 a60.11138882597823,60.11138882597823 0 0,0 -0.3640154386649622,-0.965594198694557 l 36.71425920713152 -13.481984526337857" fill="#35ff2f" stroke="none" /><path d="M 80.28708602549918 107.23885506374661 l -24.648103941679775 9.05112517919865 a47.25741599871118,47.25741599871118 0 0,0 -0.27310247475077265,-0.7639162277774967 l 24.79984658647449 -8.626673995040232" fill="#c0ff1e" stroke="none" /><path d="M 80.05021161711548 106.5578916946017 l -43.4162465024826 14.271782581597646 a66.70179688393802,66.70179688393802 0 0,0 -0.3482319266446839,-1.0908315503986359 l 43.65484314490454 -13.524381997507618" fill="#37ff78" stroke="none" /><path d="M 79.94057633289273 106.21446072829308 l -42.334227849580444 13.115252003238036 a65.3192585985893,65.3192585985893 0 0,0 -0.3226263750704875,-1.0739182740679134 l 42.553130544654564 -12.386596125579398" fill="#35ff68" stroke="none" /><path d="M 79.83685265289637 105.86919833188381 l -27.82858658655545 8.100495977179738 a49.983586156335434,49.983586156335434 0 0,0 -0.232736686946994,-0.8259003967219198 l 27.96354176557702 -7.621587656554823" fill="#a0ff22" stroke="none" /><path d="M 79.64726062577567 105.17358676015961 l -30.002633275778738 7.6265520543181715 a51.956781158868736,51.956781158868736 0 0,0 -0.2123114240711506,-0.8663030616614058 l 30.129132226366185 -7.110393168048666" fill="#8aff24" stroke="none" /><path d="M 79.56144815229197 104.8234425847677 l -35.93154078162244 8.479745787949765 a57.918582198801296,57.918582198801296 0 0,0 -0.22006065587827783,-0.9696278537156587 l 36.07181229905838 -7.8616836002950805" fill="#4bff2c" stroke="none" /><path d="M 79.48165901384964 104.47187691870673 l -28.24393612795516 6.155634422358177 a49.9069500837036,49.9069500837036 0 0,0 -0.1752501307117315,-0.8386353167171083 l 28.345443969491257 -5.66988265435566" fill="#a1ff22" stroke="none" /><path d="M 79.34024301695615 103.76489593502545 l -14.486724997316484 2.6399638727111894 a35.7253051037014,35.7253051037014 0 0,0 -0.10476902071224112,-0.6042798701843927 l 14.52990883552096 -2.390890969606204" fill="#ffae10" stroke="none" /><path d="M 79.2786578344484 103.40968896794605 l -47.29920172396637 7.783065644221485 a68.93527505445988,68.93527505445988 0 0,0 -0.18211553328854965,-1.169312364581177 l 47.425838749393186 -6.969965097708858" fill="#3aff92" stroke="none" /><path d="M 79.22317932658666 103.0534771498775 l -10.315814656284527 1.516069509886246 a31.426624515231254,31.426624515231254 0 0,0 -0.07386077361843085,-0.534419764199757 l 10.34031994645817 -1.3387614374864032" fill="#ff740a" stroke="none" /><path d="M 79.13060592940153 102.33845913500099 l -36.98082045028457 4.143778066064337 a58.21225574776382,58.21225574776382 0 0,0 -0.10275185946738037,-0.9940310313741685 l 37.04650470223362 -3.5083425124072374" fill="#48ff2c" stroke="none" /><path d="M 79.0935383218832 101.97986365728391 l -40.53797659599309 3.8389885308159006 a61.71934895644845,61.71934895644845 0 0,0 -0.09083435646179969,-1.0556329102301516 l 40.59790457515263 -3.1425345732100873" fill="#31ff3d" stroke="none" /><path d="M 79.06263194458094 101.62068470465958 l -10.498332878216566 0.8126373608714678 a31.529737541939355,31.529737541939355 0 0,0 -0.0371390862996517,-0.5399941638879123 l 10.510735925681283 -0.632299772829212" fill="#ff750a" stroke="none" /><path d="M 79.01933749520258 100.90099992219065 l -43.011884056419554 1.8471153701293204 a64.05152732799903,64.05152732799903 0 0,0 -0.037745604714948734,-1.098922097208482 l 43.037254348131356 -1.1084870083567182" fill="#34ff59" stroke="none" /><path d="M 79.00696218219943 100.54070618675478 l -47.96489351192878 1.235405513676665 a68.98080070605211,68.98080070605211 0 0,0 -0.020328209692770962,-1.1840163025438406 l 47.979033153220215 -0.4118422951637721" fill="#3aff92" stroke="none" /><line stroke="#e1ed5e" stroke-width="0.3" x1="15.003131293944662" x2="10.003315487706104" y1="100.72959589197737" y2="100.7725132973878" /><path d="M 14.003168132696942 100.73817937305945 a86.0,86.0 0 0,1 10.791469493833604,-42.45332614584628" fill="none" id="id94" stroke="none" /><text fill="#e1ed5e" style="font-size:6.75px; font-family:Arial;" text-anchor="middle"><textPath startOffset="22.145653131862435" xlink:href="#id94">October</textPath></text><path d="M 79.00077361379809 100.18025310272382 l -10.47705958161721 0.08993295573258583 a31.47744555763874,31.47744555763874 0 0,0 0.0,-0.5403721169128028 l 10.47705958161721 0.08993295573258198" fill="#ff750a" stroke="none" /><path d="M 79.00696218219943 99.45929381324524 l -46.07830073727208 -1.186813576006781 a67.09358225717202,67.09358225717202 0 0,0 0.03953828956833637,-1.1511141607242734 l 46.051137760706894 1.9776340012951932" fill="#38ff7c" stroke="none" /><path d="M 79.01933749520258 99.09900007780938 l -39.14143171805028 -1.6809014931882573 a60.17750766407423,60.17750766407423 0 0,0 0.053180899652870206,-1.0316952458740865 l 39.10680922894084 2.3525685324390557" fill="#34ff2f" stroke="none" /><path d="M 79.03789590574601 98.7389718711861 l -10.540468747151571 -0.6340884255357518 a31.55952411527515,31.55952411527515 0 0,0 0.037174172101312054,-0.5405043037437556 l 10.528030613885196 0.8149361534338323" fill="#ff760a" stroke="none" /><path d="M 79.0935383218832 98.0201363427161 l -45.26707771110553 -4.286839323244922 a66.46960870610815,66.46960870610815 0 0,0 0.11732711273406686,-1.1350333851254626 l 45.18681820588979 5.063277230653298" fill="#37ff75" stroke="none" /><path d="M 79.13060592940154 97.66154086499901 l -40.54796233179048 -4.543483754233046 a61.80172170246348,61.80172170246348 0 0,0 0.12718768940671674,-1.0532965225871322 l 40.4639925561241 5.238873953743615" fill="#31ff3e" stroke="none" /><path d="M 79.17382384314186 97.30363454192245 l -29.58859708396747 -3.830836276870337 a50.835555700833766,50.835555700833766 0 0,0 0.11947682989520518,-0.8644748238054513 l 29.51847573751706 4.338199408875855" fill="#97ff23" stroke="none" /><path d="M 79.2786578344484 96.59031103205396 l -39.02275037614289 -6.421178724496226 a60.54752309728996,60.54752309728996 0 0,0 0.17756334573046476,-1.0241381925504156 l 38.90677221292019 7.090109949967235" fill="#30ff2f" stroke="none" /><path d="M 79.34024301695615 96.23510406497455 l -14.55387088374669 -2.6522000899659295 a35.79355680754243,35.79355680754243 0 0,0 0.1153467953131217,-0.6035431739945294 l 14.50619779615141 2.9016458289937734" fill="#ffaf10" stroke="none" /><path d="M 79.407916724674 95.88100663000787 l -13.961054271407402 -2.792601856410132 a35.23761431903562,35.23761431903562 0 0,0 0.12373820690351227,-0.5921321137684463 l 13.911058353679524 3.031850421463987" fill="#ffa80f" stroke="none" /><path d="M 79.48165901384962 95.52812308129327 l -5.122339342237177 -1.1163900185592683 a26.242584001288826,26.242584001288826 0 0,0 0.09970824609350121,-0.43933292969403015 l 5.102420234586014 1.2041572821923068" fill="#ff2a04" stroke="none" /><path d="M 79.56144815229197 95.17655741523228 l -15.813980953479353 -3.732056445783443 a37.24839188693827,37.24839188693827 0 0,0 0.1522084114813535,-0.6210622600916991 l 15.7475850154817 4.00297453048326" fill="#ffc212" stroke="none" /><path d="M 79.64726062577567 94.8264132398404 l -10.03839492013257 -2.5517207338597148 a31.357637340443667,31.357637340443667 0 0,0 0.1370933792839646,-0.5205658911279337 l 9.993112060043881 2.7236671293604333" fill="#ff730a" stroke="none" /><path d="M 79.83685265289637 94.1308016681162 l -29.823353954506853 -8.681143685939263 a52.061144486185995,52.061144486185995 0 0,0 0.25714159480618837,-0.8559407383385795 l 29.669936039697035 9.191822027868566" fill="#89ff24" stroke="none" /><path d="M 80.05021161711548 93.44210830539832 l -5.803109432416899 -1.9075973348349355 a27.108601040866503,27.108601040866503 0 0,0 0.14911612480945913,-0.44083532680018617 l 5.769507886035075 2.0069343361092833" fill="#ff3705" stroke="none" /><path d="M 80.16572619554312 93.10060997987247 l -8.353098755020259 -2.9056413537346795 a29.84403813241746,29.84403813241746 0 0,0 0.17246987585486936,-0.4824289383995493 l 8.301988709121446 3.0486052485151505" fill="#ff5e08" stroke="none" /><path d="M 80.41425534168474 92.42381321644754 l -13.745626134987365 -5.317103478694202 a35.738175845266255,35.738175845266255 0 0,0 0.22624192624586154,-0.5702774463043251 l 13.652325533775372 5.55228194221211" fill="#ffae10" stroke="none" /><path d="M 80.5471966667186 92.08871423366112 l -9.554876972822772 -3.885885283427718 a31.31483293135371,31.31483293135371 0 0,0 0.20678847667794029,-0.4962170653253641 l 9.486762651608352 4.049334858194346" fill="#ff720a" stroke="none" /><path d="M 80.83023694016515 91.42560881287825 l -6.730970337487293 -3.0106774174717477 a28.37361106895449,28.37361106895449 0 0,0 0.20268964040495127,-0.44291344394090654 l 6.678296232227296 3.1257798436273254" fill="#ff4906" stroke="none" /><path d="M 80.9802524753101 91.09779779509293 l -13.341471592647975 -6.244482355751579 a35.730526947422,35.730526947422 0 0,0 0.2647814817638773,-0.5532914599013399 l 13.232310852924194 6.472586317718006" fill="#ffae10" stroke="none" /><path d="M 81.29705330413844 90.45014215332179 l -6.620968108640798 -3.3807134925375397 a28.434140327856603,28.434140327856603 0 0,0 0.22570198848990247,-0.4328133228520757 l 6.561958051175956 3.493873058494102" fill="#ff4a06" stroke="none" /><line stroke="#e1ed5e" stroke-width="0.3" x1="26.387840678322718" x2="22.05771365940052" y1="57.49999999999999" y2="54.99999999999999" /><path d="M 25.521815274538284 56.99999999999999 a86.0,86.0 0 0,1 29.574782752854787,-30.34633250058573" fill="none" id="id95" stroke="none" /><text fill="#e1ed5e" style="font-size:6.75px; font-family:Arial;" text-anchor="middle"><textPath startOffset="21.40746469413373" xlink:href="#id95">November</textPath></text><path d="M 81.81346652052679 89.5 l -27.334640453880482 -15.781662024249535 a52.56332404849906,52.56332404849906 0 0,0 0.45786732625895615,-0.7775588193463134 l 27.059699417491746 16.248572011889422" fill="#84ff25" stroke="none" /><path d="M 82.37810715431573 88.57770195909679 l -15.007514703412738 -9.727689715103423 a38.884447007567175,38.884447007567175 0 0,0 0.36787568221359945,-0.557010670454033 l 14.838314582278409 9.983880263896518" fill="#ffd814" stroke="none" /><path d="M 82.576782715395 88.27688183743585 l -19.813851584064818 -13.331643609859668 a44.881403558745454,44.881403558745454 0 0,0 0.4355852700669544,-0.6355319266511918 l 19.58207657718255 13.669810271580895" fill="#dcff1b" stroke="none" /><path d="M 82.78059297857968 87.97951657250589 l -8.5752885780575 -5.986217417957141 a31.458029124649485,31.458029124649485 0 0,0 0.3129098721020795,-0.44014692188843774 l 8.471263607425447 6.1325415665550995" fill="#ff740a" stroke="none" /><path d="M 83.2033758604659 87.39550010848427 l -24.19507319193356 -18.156433988728928 a51.24992003212724,51.24992003212724 0 0,0 0.5340925552276643,-0.6991442993943582 l 23.87982865935159 18.56909920136417" fill="#92ff23" stroke="none" /><path d="M 83.42222388311158 87.10902102172516 l -28.40555840405486 -22.088334024477074 a56.98291606058413,56.98291606058413 0 0,0 0.6070948191755605,-0.767044471805278 l 28.02219715423774 22.572698440197033" fill="#54ff2b" stroke="none" /><path d="M 83.64595745247003 86.82634096563983 l -8.040609351661749 -6.476945728827022 a31.324835336226965,31.324835336226965 0 0,0 0.3409233691867064,-0.41587107704335724 l 7.928239163236412 6.614019087568872" fill="#ff730a" stroke="none" /><path d="M 84.10781606972428 86.27271002978789 l -14.023048897315546 -12.11277564647303 a39.530116951554646,39.530116951554646 0 0,0 0.4479871654710903,-0.5097271584363997 l 13.813050667885863 12.35171508272073" fill="#ffe015" stroke="none" /><path d="M 84.34580500576568 86.00192230759919 l -11.106241204165585 -9.931269369246625 a35.89894979418488,35.89894979418488 0 0,0 0.41472227416341323,-0.455852427954822 l 10.934121229160306 10.120459372759106" fill="#ffb110" stroke="none" /><path d="M 84.58840730492382 85.73525988315684 l -7.888034400114256 -7.301046879229929 a31.74831950725782,31.74831950725782 0 0,0 0.3736386645188427,-0.3967913136709564 l 7.761539901859141 7.435379652845397" fill="#ff780b" stroke="none" /><path d="M 85.08716467003674 85.21462403516908 l -13.621419312641923 -13.50499762492287 a40.18145002183064,40.18145002183064 0 0,0 0.4898464698324846,-0.48565977302562496 l 13.387580922679462 13.736837408177168" fill="#ffe815" stroke="none" /><path d="M 85.34317274990677 84.96080404539775 l -10.427791363423706 -10.699832577152092 a35.94072454394964,35.94072454394964 0 0,0 0.44554092746316165,-0.426818129966189 l 10.242577950095244 10.87726283742385" fill="#ffb110" stroke="none" /><path d="M 85.60350026404147 84.71141617570332 l -21.02081834889369 -22.323380632561605 a51.66281342152759,51.66281342152759 0 0,0 0.6508782076903866,-0.6024431519907976 l 20.63451036988935 22.68094153068477" fill="#8eff24" stroke="none" /><path d="M 86.13680546590413 84.22622945171909 l -24.55686448134383 -27.941203938332333 a58.198796629441716,58.198796629441716 0 0,0 0.756086951124784,-0.6530899004390933 l 24.073598050456198 28.358637971236135" fill="#48ff2c" stroke="none" /><path d="M 86.40962598614128 83.9905735841838 l -22.04054889661683 -25.963711180042743 a55.05730602829346,55.05730602829346 0 0,0 0.7257750190730418,-0.605467333993775 l 21.591599543381882 26.3382406979484" fill="#69ff28" stroke="none" /><path d="M 86.68645165197937 83.75963576809568 l -6.22725924792217 -7.596243744274708 a30.822508679724585,30.822508679724585 0 0,0 0.4120664555976874,-0.3319315679755946 l 6.095942021969237 7.702023606043701" fill="#ff6c09" stroke="none" /><path d="M 87.25179093698888 83.31218511350988 l -12.667829002971798 -16.582594807664048 a41.86759071392048,41.86759071392048 0 0,0 0.5748759354222338,-0.4313976192757522 l 12.381300078638812 16.797611454203803" fill="#fffd17" stroke="none" /><path d="M 87.54013794807813 83.09580414077388 l -23.499819348428225 -31.882018217126962 a60.60687560267758,60.60687560267758 0 0,0 0.8427789798992631,-0.6101069881854179 l 22.949059358154994 32.28072597668546" fill="#30ff2f" stroke="none" /><path d="M 87.83215693770416 82.88440491214696 l -5.994572629729232 -8.432117124611654 a31.345796258204004,31.345796258204004 0 0,0 0.4412367259520057,-0.30801750288555513 l 5.848940812603461 8.533779443302336" fill="#ff730a" stroke="none" /><path d="M 88.4268655584334 82.4767994020092 l -8.929831475453433 -13.520903005205291 a37.203601706292595,37.203601706292595 0 0,0 0.5359344784733587,-0.34738625396975764 l 8.69641136472305 13.672203100878955" fill="#ffc212" stroke="none" /><path d="M 88.72937992617638 82.28071324371311 l -18.285531563232922 -28.74789276346691 a55.07054450533159,55.07054450533159 0 0,0 0.8020260931816079,-0.5005235997387066 l 17.789341341261615 29.057552160047155" fill="#69ff28" stroke="none" /><path d="M 89.03521579738668 82.08984904055464 l -6.540131255462008 -10.68281289585196 a33.525805690910744,33.525805690910744 0 0,0 0.4934156356705175,-0.2962819122374332 l 6.355782863234055 10.793508808625317" fill="#ff910d" stroke="none" /><line stroke="#e1ed5e" stroke-width="0.3" x1="56.869717070023135" x2="54.33264160355391" y1="26.7553504044142" y2="22.446841604673864" /><path d="M 56.362301976729285 25.89364864446614 a86.0,86.0 0 0,1 42.16139366436587,-11.88097634709845" fill="none" id="id96" stroke="none" /><text fill="#e1ed5e" style="font-size:6.75px; font-family:Arial;" text-anchor="middle"><textPath startOffset="22.145653131862474" xlink:href="#id96">December</textPath></text><path d="M 89.65649057296885 81.72400993836675 l -16.187283008461485 -28.60137804045102 a53.86437215296863,53.86437215296863 0 0,0 0.8086217320259973,-0.4485288438292218 l 15.693917088279385 28.875039799713388" fill="#75ff27" stroke="none" /><path d="M 89.97174638481275 81.54914285379989 l -15.885504200041243 -29.22753850644909 a54.26557155431862,54.26557155431862 0 0,0 0.8222815136342281,-0.437818590819777 l 15.381433870620452 29.49592756499144" fill="#71ff27" stroke="none" /><path d="M 90.28995756902619 81.37971332152246 l -4.8575150566004535 -9.314925608399264 a31.50539345360813,31.50539345360813 0 0,0 0.4816916289122227,-0.24595517791132407 l 4.696896205974649 9.396938737983422" fill="#ff750a" stroke="none" /><path d="M 90.93487009805054 81.0573650232925 l -15.589963179367512 -32.57702702567577 a57.11522728387077,57.11522728387077 0 0,0 0.8880364913322358,-0.41564591753457514 l 15.028437974163753 32.83984917478089" fill="#53ff2b" stroke="none" /><path d="M 91.26138138417902 80.90454125486306 l -6.139437757472566 -13.41577949218458 a35.75384137642804,35.75384137642804 0 0,0 0.5602909520670801,-0.25061101624640814 l 5.908233402549866 13.519194259340834" fill="#ffaf10" stroke="none" /><path d="M 91.5904679813234 80.7573450057729 l -4.161510513649222 -9.522350457927468 a31.391983833648148,31.391983833648148 0 0,0 0.4956419409549804,-0.21156007190206585 l 3.99743349752381 9.592385179488938" fill="#ff740a" stroke="none" /><path d="M 92.25597844496254 80.48000691201159 l -12.272100019522336 -30.933708778270482 a54.279104219735366,54.279104219735366 0 0,0 0.8690543050323593,-0.33616887459932077 l 11.739273451996446 31.139817541007844" fill="#71ff27" stroke="none" /><path d="M 92.592206182469 80.34994680014964 l -9.12236504455938 -24.198157082859048 a46.860555875945906,46.860555875945906 0 0,0 0.7551485937113351,-0.27730102350872127 l 8.70562729919392 24.35118895537649" fill="#c4ff1e" stroke="none" /><path d="M 92.93061703081487 80.22567764915836 l -3.5200921079071215 -9.846324120481563 a31.456631729851015,31.456631729851015 0 0,0 0.5100381683295353,-0.1774177508664911 l 3.350548167532582 9.90530030391664" fill="#ff740a" stroke="none" /><path d="M 93.61358852112211 79.99465700312896 l -9.741015775503495 -30.51359317691798 a53.03071583503971,53.03071583503971 0 0,0 0.8696011306342589,-0.26940465315897033 l 9.21577401199762 30.676314417883592" fill="#7fff26" stroke="none" /><path d="M 93.95794788825049 79.88797359093562 l -4.2499003170871825 -14.146535950415542 a35.77112494367227,35.77112494367227 0 0,0 0.5896103211951471,-0.1716269714270178 l 4.006429983510412 14.21740661614508" fill="#ffaf10" stroke="none" /><path d="M 94.30408787586887 79.78721728523814 l -2.8392053349353774 -10.075338113892624 a31.467737341144115,31.467737341144115 0 0,0 0.5211935389405847,-0.1420536166829745 l 2.6658303950601154 10.122592224719739" fill="#ff750a" stroke="none" /><path d="M 94.6519064749342 79.69241777938228 l -0.6039966608549573 -2.29347370119891 a23.371673161381004,23.371673161381004 0 0,0 0.3888542329072865,-0.09884522540238379 l 0.5645371347222927 2.303504158436557" fill="#ff0000" stroke="none" /><path d="M 95.00130118170881 79.60360301121753 l -7.052643886518103 -28.777193777621463 a50.62881481775497,50.62881481775497 0 0,0 0.8459058673241344,-0.19963148140623316 l 6.557605865454063 28.89402140267393" fill="#99ff23" stroke="none" /><path d="M 95.35216902796891 79.52079915486377 l -3.2830595857009714 -14.465766299745328 a35.83363997413011,35.83363997413011 0 0,0 0.6010454642013403,-0.13099506145597253 l 3.034251704880513 14.519992819335014" fill="#ffb010" stroke="none" /><path d="M 95.70440661134978 79.44403061299748 l -2.7516010842155514 -13.16740727877669 a34.451837159727944,34.451837159727944 0 0,0 0.5799450245656343,-0.11600524722081196 l 2.5251595741189403 13.212701922660369" fill="#ff9d0e" stroke="none" /><path d="M 96.41257539226777 79.30868818359171 l -5.866548260684607 -33.836691393095755 a55.34149200204531,55.34149200204531 0 0,0 0.937438748558855,-0.15425518933807986 l 5.284832009072679 33.9324125809295" fill="#66ff29" stroke="none" /><path d="M 96.76829788921471 79.25015418208739 l -4.573154608726417 -29.362933147786638 a50.716924237153194,50.716924237153194 0 0,0 0.8614025521995077,-0.12659651114730233 l 4.068426950919226 29.437110732232824" fill="#98ff23" stroke="none" /><path d="M 97.12497278360702 79.19773525538626 l -1.4211648390350806 -10.282840822785145 a31.380584033976426,31.380584033976426 0 0,0 0.5342502263888679,-0.06916938786819753 l 1.2444367907554186 10.305721806853738" fill="#ff730a" stroke="none" /><path d="M 97.84075906011542 79.11130261209362 l -1.5597688415503248 -15.089348633771124 a36.169750196709295,36.169750196709295 0 0,0 0.6181590065644708,-0.05854030061915169 l 1.3005102716008385 15.113900689895459" fill="#ffb410" stroke="none" /><path d="M 98.1996594967304 79.07731436759882 l -1.292893554715302 -15.025382894146452 a36.08090530636451,36.08090530636451 0 0,0 0.617552193508895,-0.04780244545062279 l 1.0347723664311899 15.045363106592127" fill="#ffb310" stroke="none" /><path d="M 98.5590905019552 79.04949213459386 l -1.92550492005949 -27.99641894742375 a49.06255588995487,49.06255588995487 0 0,0 0.840735135038854,-0.050576537994425214 l 1.444625432888152 28.02534746324287" fill="#abff21" stroke="none" /><path d="M 99.27912038922189 79.0123766808444 l -1.0140211386696578 -29.52211905825506 a50.53952864484225,50.53952864484225 0 0,0 0.8673225350829241,-0.022339151898900848 l 0.5070852895159897 29.53517592750401" fill="#9aff23" stroke="none" /><path d="M 99.63950707515114 79.00309439819443 l -0.2552754722329307 -14.868516476927946 a35.870707709836864,35.870707709836864 0 0,0 0.6157683970817792,-0.005285631103353411 l 3.6422729195815166e-15 14.870707709836864" fill="#ffb010" stroke="none" /></svg>