<?xml version="1.0" encoding="utf-8" ?>
<svg baseProfile="full" height="200mm" version="1.1" viewBox="0,0,200,200" width="200mm" xmlns="http://www.w3.org/2000/svg" xmlns:ev="http://www.w3.org/2001/xml-events" xmlns:xlink="http://www.w3.org/1999/xlink"><defs /><rect fill="#1a1a1a" height="200" width="200" x="0" y="0" /><text alignment-baseline="middle" fill="#e1ed5e" style="dominant-baseline: central; font-size:9.0px; font-family:Arial;" text-anchor="middle" x="100.0" y="100.0">2025</text><line stroke="#e1ed5e" stroke-width="0.3" x1="100.0" x2="100.0" y1="15.0" y2="10.0" /><path d="M 100.0 14.0 a86.0,86.0 0 0,1 42.46469731375804,11.215312516191453" fill="none" id="id145" stroke="none" /><text fill="#e1ed5e" style="font-size:6.75px; font-family:Arial;" text-anchor="middle"><textPath startOffset="22.20632615414155" xlink:href="#id145">January</textPath></text><path d="M 100.0 79.0 l 0.0 -8.880559349959864 a29.880559349959864,29.880559349959864 0 0,0 0.5143447102264153,0.004427127305339054 l -0.15286423095388688 8.879243599263084" fill="#ff700a" stroke="none" /><path d="M 100.36148047927253 79.00311137660856 l 0.24476327814875642 -14.217274749464432 a35.21938150427398,35.21938150427398 0 0,0 0.6060641143121489,0.015652848009377305 l -0.48945402765577317 14.210955109312694" fill="#ffb711" stroke="none" /><path d="M 100.72285384407766 79.0124445844662 l 0.5503170366788871 -15.97806997643859 a36.98754418329555,36.98754418329555 0 0,0 0.6361138413905639,0.02739240011128769 l -0.8252717104587826 15.966229849803106" fill="#ffce13" stroke="none" /><path d="M 101.08401301168833 79.027996857942 l 0.5678554480177974 -10.986091598214177 a32.000757629099716,32.000757629099716 0 0,0 0.5498613246887857,0.033169136711371075 l -0.756878821546195 10.974689192122502" fill="#ff8d0d" stroke="none" /><path d="M 101.44485096284872 79.0497635885617 l 0.24474222031270926 -3.5487448236890855 a24.55717424061061,24.55717424061061 0 0,0 0.42145935799306966,0.032713357655870225 l -0.3057917676681201 3.5440062038447504" fill="#ff2603" stroke="none" /><path d="M 101.80526077348638 79.07773832637324 l 1.9082336757551308 -22.115677072776542 a43.197849628930726,43.197849628930726 0 0,0 0.7402771735802945,0.07029823758018659 l -2.2886359764256694 22.07955329068118" fill="#e4ff1a" stroke="none" /><path d="M 102.16513564639614 79.11191278185805 l 1.9405452424959768 -18.721357409396347 a39.82166143273577,39.82166143273577 0 0,0 0.6812031765810147,0.07654111404518703 l -2.262515122586717 18.685180341880557" fill="#fff116" stroke="none" /><path d="M 102.52436894288641 79.15227682838746 l 1.8439044999528549 -15.228047658498538 a36.33927701342046,36.33927701342046 0 0,0 0.6203378850468867,0.0805376612955967 l -2.105757113507588 15.194051674038805" fill="#ffc512" stroke="none" /><path d="M 102.88285421437855 79.19881850522331 l 2.570186060108386 -18.545130185566535 a39.72238526425483,39.72238526425483 0 0,0 0.6764741496124379,0.09969470503377507 l -2.8890291901494796 18.49814099637179" fill="#fff016" stroke="none" /><path d="M 103.2404852339499 79.25152402106235 l 0.5486980109139946 -3.513253934893839 a24.55584346087226,24.55584346087226 0 0,0 0.4170643895770867,0.06881919782580538 l -0.6090916066299564 3.503288474128409" fill="#ff2603" stroke="none" /><path d="M 103.59715602781102 79.31037775812273 l 2.5848704978768096 -14.867298980575079 a36.09033248369971,36.09033248369971 0 0,0 0.611138014867718,0.11168156592119195 l -2.8404036338474286 14.820601933303148" fill="#ffc212" stroke="none" /><path d="M 103.95276090670814 79.375362276772 l 2.172768840434333 -11.337030305634238 a32.543360887749785,32.543360887749785 0 0,0 0.5492600117834416,0.11017639119384377 l -2.3675952616848996 11.297949958363185" fill="#ff940d" stroke="none" /><path d="M 104.307194497241 79.44645832069477 l 3.458808621349804 -16.50512118855812 a37.86364084437622,37.86364084437622 0 0,0 0.6367533454394818,0.13916961838722472 l -3.7424046909428137 16.443138072075026" fill="#ffd914" stroke="none" /><path d="M 104.66035177308747 79.52364482259891 l 2.461367437069739 -10.814598622056293 a32.09116193265832,32.09116193265832 0 0,0 0.5375671726551983,0.1272247816687213 l -2.647158296687461 10.770627928246704" fill="#ff8e0d" stroke="none" /><path d="M 105.01212808612495 79.60689891045804 l 3.9540623487736095 -16.08809507803981 a37.56687696272408,37.56687696272408 0 0,0 0.6266353847574071,0.15974331219352583 l -4.230406622216042 16.017648769677418" fill="#ffd513" stroke="none" /><path d="M 105.36241919743992 79.69619591428918 l 0.8025391843628852 -3.0386655295784015 a24.14285814873752,24.14285814873752 0 0,0 0.4008888379351098,0.10957806307125133 l -0.8547259115217059 3.024400925680857" fill="#ff2103" stroke="none" /><path d="M 105.71112130821622 79.79150937346287 l 5.124495027469161 -18.132745592247193 a39.842953908549376,39.842953908549376 0 0,0 0.6583759410029165,0.1921979910357679 l -5.435861186195504 18.041849272292723" fill="#fff116" stroke="none" /><path d="M 106.0581310904928 79.89281104454417 l 6.656172224181294 -22.092112341660005 a44.07305910351917,44.07305910351917 0 0,0 0.7245078415199931,0.22510811308372214 l -7.035465438412005 21.974264093693765" fill="#daff1c" stroke="none" /><path d="M 106.40334571778207 80.00007090966166 l 7.397640280913872 -23.10546510759915 a45.26082437932152,45.26082437932152 0 0,0 0.7399437375662025,0.24394781659296044 l -7.794266840722492 22.974703566746953" fill="#ccff1d" stroke="none" /><path d="M 106.74666289553966 80.11325718540242 l 6.012825186750049 -17.7236524085243 a39.71582008421231,39.71582008421231 0 0,0 0.6455106722917586,0.2252059986282909 l -6.317017863105081 17.617525556723802" fill="#fff016" stroke="none" /><path d="M 107.08798089147638 80.2323363322302 l 1.7301077521799333 -4.825095986816417 a26.125897396178058,26.125897396178058 0 0,0 0.4220174358017058,0.15543258315741604 l -1.8129075137542157 4.794600135852676" fill="#ff3d05" stroke="none" /><path d="M 107.4271985657038 80.35727306442388 l 6.65008878520046 -17.58750314125358 a39.80276436045119,39.80276436045119 0 0,0 0.6387715080487292,0.24783342121210986 l -6.951843458248857 17.470427016150925" fill="#fff116" stroke="none" /><path d="M 107.76421540070413 80.48803036053334 l 6.255238809118076 -15.719815001533393 a37.91864640689471,37.91864640689471 0 0,0 0.6043801236077139,0.24654182750074327 l -6.524902802314177 15.60981228784907" fill="#ffd914" stroke="none" /><path d="M 108.09893153111575 80.62456947434976 l 3.610423406922873 -8.637374895720155 a30.361591866048922,30.361591866048922 0 0,0 0.4804595293537861,0.20570769630964433 l -3.758566694066974 8.573947671447721" fill="#ff770b" stroke="none" /><path d="M 108.43124777332544 80.76684994638697 l 2.6940075319595107 -6.145502125043647 a27.71005759671037,27.71005759671037 0 0,0 0.4352034520814532,0.19526310307281347 l -2.799393102507744 6.098218691454303" fill="#ff5307" stroke="none" /><path d="M 108.76106565485865 80.91482961587045 l 8.591793540982406 -18.716426756141985 a41.5942600442185,41.5942600442185 0 0,0 0.6481213414923258,0.3043016601890353 l -8.912693093774331 18.565760113312948" fill="#f8ff18" stroke="none" /><path d="M 109.08828744355905 81.06846463323043 l 2.7117424509283583 -5.648748285542386 a27.26593203869823,27.26593203869823 0 0,0 0.4213608751570672,0.20675995148938353 l -2.8085745930958574 5.60123317391817" fill="#ff4d07" stroke="none" /><path d="M 109.41281617654863 81.2277094730956 l 7.422380220048164 -14.802698286941625 a37.5593358775401,37.5593358775401 0 0,0 0.575443924368091,0.2947647284246181 l -7.6760846320050105 14.672741033204506" fill="#ffd513" stroke="none" /><path d="M 109.73455568895987 81.39251694778311 l 8.68008277891708 -16.591871099336952 a39.72522426102998,39.72522426102998 0 0,0 0.6031706920668152,0.3221928945781924 l -8.964398517512208 16.439999478257008" fill="#fff016" stroke="none" /><path d="M 110.05341064243156 81.56283822128135 l 2.1765518656914313 -3.9916243645866802 a25.546475898100294,25.546475898100294 0 0,0 0.38426268311008244,0.21384176711838124 l -2.244938637873549 3.9535671999081194" fill="#ff3405" stroke="none" /><path d="M 110.36928655335952 81.73862282372117 l 14.070665236904977 -24.77988468059338 a49.49607525594626,49.49607525594626 0 0,0 0.7372635271524762,0.4270706219946049 l -14.495125496522782 24.534009901208726" fill="#9dff22" stroke="none" /><line stroke="#e1ed5e" stroke-width="0.3" x1="143.23703022742887" x2="145.7803849466894" y1="26.81831364943548" y2="22.513508569990506" /><path d="M 143.74570117128098 25.957352633546492 a86.0,86.0 0 0,1 28.547481713284135,27.462654790039103" fill="none" id="id146" stroke="none" /><text fill="#e1ed5e" style="font-size:6.75px; font-family:Arial;" text-anchor="middle"><textPath startOffset="19.985693538727396" xlink:href="#id146">February</textPath></text><path d="M 110.68208982089419 81.91981866633111 l 9.567714281989176 -16.194023086075987 a39.809240821844504,39.809240821844504 0 0,0 0.5869738606438291,0.3536451833425534 l -9.845050208850642 16.02693129327482" fill="#fff116" stroke="none" /><path d="M 110.99172775467656 82.1063720568725 l 5.578211670856013 -9.08086940052185 a31.65732773795609,31.65732773795609 0 0,0 0.461866614570669,0.2892208316724283 l -5.733697437798946 8.983504227526478" fill="#ff880c" stroke="none" /><path d="M 111.2981086023043 82.29822771554956 l 5.732026849575654 -8.980886765316585 a31.654222585233274,31.654222585233274 0 0,0 0.45677491507093576,0.29709911078301166 l -5.88576879043087 8.880888730374044" fill="#ff880c" stroke="none" /><path d="M 111.60114157652 82.49532879139004 l 0.9816966347933237 -1.4812574008609543 a22.777034543943895,22.777034543943895 0 0,0 0.32494726784312494,0.21940584578102587 l -1.0070485970429905 1.4641396427812583" fill="#ff0d01" stroke="none" /><path d="M 111.90073688211348 82.69761687909136 l 10.596484094357207 -15.406140758455502 a39.69851994761375,39.69851994761375 0 0,0 0.5596902648145573,0.39209879795111163 l -10.860105498755415 15.221457117740455" fill="#ffef16" stroke="none" /><path d="M 112.19680574252982 82.90503203632743 l 15.67218515409068 -21.966038386240214 a47.98377716128487,47.98377716128487 0 0,0 0.6682419223739936,0.4855061756007605 l -16.047972392818462 21.69301297582278" fill="#adff20" stroke="none" /><path d="M 112.48926042617603 83.11751280151076 l 8.18153755450542 -11.059478168811626 a34.75680246722339,34.75680246722339 0 0,0 0.47791239978432754,0.3599537113544439 l -8.370696108048131 10.917007867951334" fill="#ffb110" stroke="none" /><path d="M 112.77801427241765 83.33499621200491 l 7.561109367782058 -9.86115006363132 a33.426288884820664,33.426288884820664 0 0,0 0.4535906730480991,0.3540347150500787 l -7.729732595989588 9.729536959358017" fill="#ffa00e" stroke="none" /><path d="M 113.06298171725822 83.55741782278167 l 1.7858560858337829 -2.247885366723964 a23.87093548886792,23.87093548886792 0 0,0 0.3195256590003357,0.25836752805814195 l -1.8242851433986098 2.216811741401693" fill="#ff1d02" stroke="none" /><path d="M 113.34407831869373 83.78471172551755 l 14.094801345875172 -17.127542385205544 a43.18143667882441,43.18143667882441 0 0,0 0.5698766532768242,0.4772553083441535 l -14.387535536111113 16.88238591946757" fill="#e5ff1a" stroke="none" /><path d="M 113.6212207817346 84.01681056812373 l 9.21016343714336 -10.807238886532211 a35.199419808198726,35.199419808198726 0 0,0 0.45777046826928564,0.39697403913802376 l -9.39482770405941 10.647099853974517" fill="#ffb711" stroke="none" /><path d="M 113.89432698308785 84.25364557470407 l 10.72231304318658 -12.151530739308061 a37.20579206038501,37.20579206038501 0 0,0 0.4765690124777104,0.4278683648622087 l -10.92989304326028 11.965163365676554" fill="#ffd013" stroke="none" /><path d="M 114.16331599549186 84.49514656593476 l 9.79091998285758 -10.718307730137985 a35.51703257241836,35.51703257241836 0 0,0 0.4478395341037149,0.41621803963379866 l -9.973967400756143 10.548185104429546" fill="#ffbb11" stroke="none" /><path d="M 114.42810811169701 84.74124197986012 l 1.2285967544438097 -1.2993290898055472 a22.788213093746037,22.788213093746037 0 0,0 0.2827005409072256,0.271957696369406 l -1.2507805389634536 1.2779883066738393" fill="#ff0d01" stroke="none" /><path d="M 114.68862486808459 84.99185889309783 l 13.21206756152859 -13.499464793888707 a39.88899888749631,39.88899888749631 0 0,0 0.4865777848639073,0.48448826522179084 l -13.44248114655982 13.270040678016798" fill="#fff216" stroke="none" /><path d="M 114.94478906791727 85.2469230424477 l 9.473738996666652 -9.352209647015485 a34.31223331596513,34.31223331596513 0 0,0 0.4113150151326283,0.423896278704742 l -9.63331827550239 9.187749172760629" fill="#ffab0f" stroke="none" /><path d="M 115.19652480421416 85.50635884689758 l 10.053190994741216 -9.588201552566392 a34.892453281885906,34.892453281885906 0 0,0 0.410788317519103,0.4382003357422381 l -10.216746634230782 9.413731799946099" fill="#ffb310" stroke="none" /><path d="M 115.4437574822437 85.77008943001954 l 9.790434465458421 -9.020926872550685 a34.31276562786047,34.31276562786047 0 0,0 0.3964862279834214,0.43780999576468743 l -9.944264334057879 8.851064089516449" fill="#ffab0f" stroke="none" /><path d="M 115.68641384162765 86.03803664274999 l 9.562812172819159 -8.511546010270987 a33.80210108293081,33.80210108293081 0 0,0 0.383103575519122,0.43795361296766505 l -9.707907611916129 8.345676841100374" fill="#ffa50f" stroke="none" /><path d="M 115.9244219780498 86.31012108654704 l 2.693052957068625 -2.3151590017272903 a24.55140752841109,24.55140752841109 0 0,0 0.27274203811099024,0.32284054585615707 l -2.7325056086667323 2.2684595062420265" fill="#ff2603" stroke="none" /><path d="M 116.15771136456269 86.58626213691792 l 6.899457204356265 -5.727761082535762 a29.96714875160186,29.96714875160186 0 0,0 0.3260732703767422,0.3997272741444057 l -6.997028966809417 5.608149638783256" fill="#ff720a" stroke="none" /><path d="M 116.38621287248628 86.86637796730983 l 2.435398609457975 -1.9519827482081942 a24.121122079677797,24.121122079677797 0 0,0 0.256885263076894,0.32621819700075233 l -2.468637953128833 1.9097721572544035" fill="#ff2003" stroke="none" /><path d="M 116.60985879189232 87.15038557335679 l 2.1647947940313967 -1.6747149247100164 a23.73697032854065,23.73697032854065 0 0,0 0.2472307865256271,0.3253267350006754 l -2.1933015207811373 1.6372034138283074" fill="#ff1b02" stroke="none" /><path d="M 116.82858285166822 87.43820079747576 l 30.244810371329113 -22.576424773961097 a58.741800566109475,58.741800566109475 0 0,0 0.5978723328212296,0.8154971900657155 l -30.62894531666397 22.052465140223887" fill="#3cff2e" stroke="none" /><path d="M 117.04232023915458 87.72973835380427 l 5.047753290251742 -3.634320487332118 a27.219975778400528,27.219975778400528 0 0,0 0.2704983540093414,0.3826007386378241 l -5.109564264064966 3.5468932483625006" fill="#ff4c07" stroke="none" /><path d="M 117.2510076193507 88.02491185347247 l 10.34994864899882 -7.184597567783079 a33.59920153215699,33.59920153215699 0 0,0 0.3257131145244177,0.47794380467723446 l -10.472086229191971 7.005375739835438" fill="#ffa20f" stroke="none" /><path d="M 117.45458315368197 88.32363383020206 l 0.7396155625104429 -0.4947710327262257 a21.8898480517103,21.8898480517103 0 0,0 0.20681045261729025,0.3149865077857314 l -0.7480226504856581 0.4819664609628203" fill="#ff0000" stroke="none" /><path d="M 117.65298651832404 88.62581576622439 l 15.733832360215274 -10.137633526353554 a39.71697342665221,39.71697342665221 0 0,0 0.3653439631743767,0.5778864121993308 l -15.906003919635607 9.865299466440018" fill="#fff016" stroke="none" /><line stroke="#e1ed5e" stroke-width="0.3" x1="172.23445277983987" x2="176.4835382374775" y1="55.19839476539836" y2="52.563006222186495" /><path d="M 173.08426987136738 54.67131705675599 a86.0,86.0 0 0,1 12.851231095245387,41.99856678651699" fill="none" id="id147" stroke="none" /><text fill="#e1ed5e" style="font-size:6.75px; font-family:Arial;" text-anchor="middle"><textPath startOffset="22.20632615414155" xlink:href="#id147">March</textPath></text><path d="M 117.84615892207809 88.93136811851018 l 15.924098629502943 -9.876522255803174 a39.73826590246581,39.73826590246581 0 0,0 0.35553296983688365,0.5844027213117916 l -16.09174739762605 9.600951761284302" fill="#fff016" stroke="none" /><path d="M 118.03404312379186 89.2402003453031 l 11.53187295158695 -6.88035632114006 a34.428454746447734,34.428454746447734 0 0,0 0.2992657779476274,0.5115422229397116 l -11.648598404004904 6.680834685846453" fill="#ffad10" stroke="none" /><path d="M 118.21658344932153 89.55222093294921 l 13.085433315492557 -7.504904344836629 a36.08483192744786,36.08483192744786 0 0,0 0.30438820196163024,0.5414726467414407 l -13.21267915874662 7.278548188160395" fill="#ffc212" stroke="none" /><path d="M 118.3937258080291 89.86733742301442 l 2.22089260928647 -1.223436494839876 a23.535578994803622,23.535578994803622 0 0,0 0.19242229969580033,0.35652929745372225 l -2.241623008200735 1.185026214053695" fill="#ff1802" stroke="none" /><path d="M 118.56541770881063 90.18545643968196 l 15.039266806524074 -7.950456138556325 a38.01144611398234,38.01144611398234 0 0,0 0.3008163702898294,0.5810814794723497 l -15.17389260997402 7.69040193682363" fill="#ffda14" stroke="none" /><path d="M 118.73160827565052 90.50648371742162 l 11.934564957263268 -6.048652367696044 a34.379836926673335,34.379836926673335 0 0,0 0.26298935993165456,0.5301705017939472 l -12.036914330148331 5.842322277403147" fill="#ffac0f" stroke="none" /><path d="M 118.89224826269711 90.83032412892265 l 7.983797976585001 -3.875072921310218 a29.874526481812676,29.874526481812676 0 0,0 0.22056193066012011,0.46455967627540257 l -8.049318101086879 3.7370708293942756" fill="#ff700a" stroke="none" /><path d="M 119.04729006885535 91.15688171328212 l 2.6884706363822133 -1.24818090982768 a23.96409007055245,23.96409007055245 0 0,0 0.17048473964867614,0.3756405252072536 l -2.7095576929942364 1.2017183757783636" fill="#ff1e03" stroke="none" /><path d="M 119.196687751892 91.48605970444005 l 34.39540596156195 -15.25473751425805 a58.62646632211911,58.62646632211911 0 0,0 0.4011984695039867,0.9260213823291253 l -34.65289514090862 14.660416987342321" fill="#3dff2e" stroke="none" /><path d="M 119.34039704204932 91.81776055985345 l 1.0876879585856873 -0.46016238932234826 a22.181022658461366,22.181022658461366 0 0,0 0.14573809950254915,0.3529163677877819 l -1.0954477449744338 0.4413714510812632" fill="#ff0400" stroke="none" /><path d="M 119.47837535516314 92.15188598940014 l 2.7147551913090853 -1.0938134143006957 a23.926828237878638,23.926828237878638 0 0,0 0.15063242971048685,0.38334310334866256 l -2.7331811709012728 1.0469213060562488" fill="#ff1d03" stroke="none" /><path d="M 119.61058180528143 92.48833698450437 l 15.349558711585955 -5.879515132332626 a37.43708157891031,37.43708157891031 0 0,0 0.2253273967364092,0.6037653975201085 l -15.44849069682399 5.614426597783185" fill="#ffd313" stroke="none" /><path d="M 119.7369772167798 92.82701384747503 l 17.611272723758553 -6.40044389717705 a39.73826590246581,39.73826590246581 0 0,0 0.2281107394525165,0.6448997781547943 l -17.718836544020878 6.096346492595641" fill="#fff016" stroke="none" /><path d="M 119.85752413597 93.16781622104841 l 17.719759356397113 -6.096663995608845 a39.73924180760727,39.73924180760727 0 0,0 0.2169813813865841,0.648746712434374 l -17.822078031555467 5.790744180252156" fill="#fff016" stroke="none" /><path d="M 119.97218684219823 93.5106431181261 l 19.430546287626324 -6.313367197414972 a41.43048541775218,41.43048541775218 0 0,0 0.21453990923818328,0.6801501406020349 l -19.536341680632713 5.977966890386518" fill="#faff18" stroke="none" /><path d="M 120.08093135843002 93.85539295169968 l 2.6188830647423678 -0.8013576188803029 a23.738744701525114,23.738744701525114 0 0,0 0.11620014120417166,0.39176910995595826 l -2.6322891030582416 0.7561591221778148" fill="#ff1b02" stroke="none" /><path d="M 120.18372546131832 94.20196356495316 l 17.990804946480285 -5.168091627852559 a39.71839292503978,39.71839292503978 0 0,0 0.18310789938034366,0.6587365381979061 l -18.077099616426995 4.857643786235701" fill="#fff016" stroke="none" /><path d="M 120.28053869075195 94.5502522615342 l 14.569738228002858 -3.915152312709759 a36.08660630043233,36.08660630043233 0 0,0 0.156037915353881,0.6012777397301261 l -14.634972475227043 3.6637781474307825" fill="#ffc212" stroke="none" /><path d="M 120.37134235888165 94.90015583598534 l 12.782385486095974 -3.1999940345134332 a34.17684865725028,34.17684865725028 0 0,0 0.1379559884088038,0.5719166358809117 l -12.835574274765598 2.9794921669731154" fill="#ffaa0f" stroke="none" /><path d="M 120.45610955862082 95.25157060432595 l 6.388922564601489 -1.4830458169722645 a27.558792299784542,27.558792299784542 0 0,0 0.10328722102086042,0.4630163592477306 l -6.413504172624387 1.37285128817457" fill="#ff5107" stroke="none" /><path d="M 120.53481517161879 95.60439243477599 l 3.481413300067858 -0.7452186207451234 a24.560279393333428,24.560279393333428 0 0,0 0.08493260866991743,0.4141615630765466 l -3.4937252046527725 0.6851814015051649" fill="#ff2703" stroke="none" /><path d="M 120.6074358757038 95.95851677861258 l 9.056261573974467 -1.7760933199295235 a30.228780048161553,30.228780048161553 0 0,0 0.09574502009483593,0.5114737258416232 l -9.085492317979162 1.6199415166253375" fill="#ff750a" stroke="none" /><path d="M 120.67395015179393 96.31383870115 l 37.19712683596819 -6.632240494169065 a58.78376448719213,58.78376448719213 0 0,0 0.16904010048643592,0.9976842418823823 l -37.30577879797485 5.990970463970845" fill="#3cff2e" stroke="none" /><path d="M 120.73433829027371 96.67025291283417 l 3.9325486890913304 -0.6315317305680365 a24.982935038233514,24.982935038233514 0 0,0 0.06453223763871367,0.4251868170340766 l -3.942836820169344 0.5637458011418778" fill="#ff2d04" stroke="none" /><path d="M 120.78858239683441 97.02765380044208 l 5.545300414877098 -0.7928656364792215 a26.601695511962937,26.601695511962937 0 0,0 0.06091028343144669,0.45385236056747896 l -5.558126697366381 0.6972949338470782" fill="#ff4306" stroke="none" /><path d="M 120.83666639777658 97.38593545837742 l 13.126210741596335 -1.6467491205375246 a34.22910394164284,34.22910394164284 0 0,0 0.06831093634274832,0.5852463857988727 l -13.152612030942674 1.420558996413799" fill="#ffaa0f" stroke="none" /><path d="M 120.87857604477298 97.74499172005257 l 8.824977256817412 -0.9531491391843813 a29.876300854797144,29.876300854797144 0 0,0 0.05082225431027821,0.511773165214597 l -8.840076636809918 0.8011004432653491" fill="#ff700a" stroke="none" /><path d="M 120.91429891909075 98.10471618934814 l 1.77879483110702 -0.16119694276679675 a22.78608384616468,22.78608384616468 0 0,0 0.032036708918584976,0.3909289948147624 l -1.7813060238450997 0.13055403074426558" fill="#ff0d01" stroke="none" /><path d="M 120.94382443527127 98.46500227214037 l 22.91294681715076 -1.6793170421951875 a43.974403965582795,43.974403965582795 0 0,0 0.04883129101954656,0.7553984588313988 l -22.938458699174724 1.2846595191107535" fill="#dbff1b" stroke="none" /><path d="M 120.96714384426684 98.82574320788733 l 18.685917649158974 -1.0464976002147588 a39.715199053667746,39.715199053667746 0 0,0 0.0323516073379386,0.682891298882675 l -18.70116286473041 0.7246951947090842" fill="#fff016" stroke="none" /><path d="M 120.98425023603335 99.18683210126433 l 14.418999935813252 -0.5587556261381766 a35.42982214023179,35.42982214023179 0 0,0 0.01837003470690453,0.6096120195565932 l -14.426481664975801 0.31047345915658436" fill="#ffba11" stroke="none" /><line stroke="#e1ed5e" stroke-width="0.3" x1="184.98032266829074" x2="189.97916517819016" y1="98.17113171792111" y2="98.06355123074" /><path d="M 185.9800911702706 98.14961562048488 a86.0,86.0 0 0,1 -9.607161424134198,41.387399972396054" fill="none" id="id148" stroke="none" /><text fill="#e1ed5e" style="font-size:6.75px; font-family:Arial;" text-anchor="middle"><textPath startOffset="21.466115282336823" xlink:href="#id148">April</textPath></text><path d="M 120.99513854157772 99.54816195383933 l 22.3128081130279 -0.4801957177935728 a43.31797467997916,43.31797467997916 0 0,0 0.0096268895003067,0.7456132010032094 l -22.31776800964592 0.09604625872990068" fill="#e3ff1b" stroke="none" /><path d="M 120.99980553446 99.90962569577887 l 10.390898129638606 -0.044718042134140115 a31.390994352987562,31.390994352987562 0 0,0 -0.0023254788095303978,0.5403593775412695 l -10.390128353539573 -0.13415081361081413" fill="#ff850c" stroke="none" /><path d="M 120.99824983174949 100.27111621757518 l 6.214666989465902 0.08023987814097645 a27.215184971342467,27.215184971342467 0 0,0 -0.010079904891572804,0.46837357208566566 l -6.212365021889322 -0.18720326601675696" fill="#ff4c07" stroke="none" /><path d="M 120.9904718944345 100.63252640178507 l 31.03832533454403 0.9353081884023284 a52.05241441466815,52.05241441466815 0 0,0 -0.034696322940506695,0.8953579254492503 l -31.01762687875232 -1.469443360865585" fill="#81ff25" stroke="none" /><path d="M 120.9764740272857 100.99374915477107 l 18.440781626809432 0.873622093547383 a39.46146371688893,39.46146371688893 0 0,0 -0.037983818144651744,0.678226589058509 l -18.42301145777725 -1.1909203989413153" fill="#ffec16" stroke="none" /><path d="M 120.95626037817324 101.35467743843564 l 11.512058147218877 0.7441750178977328 a32.53608595851347,32.53608595851347 0 0,0 -0.04093882660080225,0.5585777629187778 l -11.497542761953737 -0.942225917313281" fill="#ff940d" stroke="none" /><path d="M 120.92983693683757 101.71520430193887 l 19.097345137153017 1.5650312342952024 a40.16136514061202,40.16136514061202 0 0,0 -0.06239432151315524,0.6885161386627134 l -19.067576219362785 -1.8935287615064864" fill="#fff517" stroke="none" /><path d="M 120.89721153311464 102.0752229133903 l 6.187500390826239 0.6144572239844781 a27.217935249468393,27.217935249468393 0 0,0 -0.05031131448941697,0.46582028758859656 l -6.17600677483577 -0.7208738334578662" fill="#ff4c07" stroke="none" /><path d="M 120.8583938346157 102.4346265915055 l 18.0512008076475 2.106966329400215 a39.17374913745758,39.17374913745758 0 0,0 -0.08394093277753219,0.6690918244574052 l -18.012258365623122 -2.4173759081450155" fill="#ffe915" stroke="none" /><path d="M 120.81339534386255 102.79330883721812 l 22.04324715362227 2.95836388335135 a43.24087817380406,43.24087817380406 0 0,0 -0.10535526507801024,0.7368544785732987 l -21.989057837527657 -3.337363833905058" fill="#e4ff1a" stroke="none" /><path d="M 120.76222939487914 103.15116336523771 l 17.603175393106024 2.67170159599002 a38.80476827533762,38.80476827533762 0 0,0 -0.10591529714090876,0.6595346564004851 l -17.55457834160383 -2.97431548208371" fill="#ffe415" stroke="none" /><path d="M 120.70491114924044 103.5080841355445 l 18.85082573279925 3.1939418729441424 a40.11948993817859,40.11948993817859 0 0,0 -0.12122496991021683,0.6798940094830987 l -18.793054320549842 -3.5179546331604596" fill="#fff417" stroke="none" /><path d="M 120.64145759157962 103.86396538481128 l 1.8740993582711298 0.3508209154285075 a22.906652490459223,22.906652490459223 0 0,0 -0.07588654043163898,0.3869438347531087 l -1.8677828848638267 -0.38302847724956113" fill="#ff0f01" stroke="none" /><path d="M 120.5718875245553 104.21870165774334 l 30.418848859237794 6.238029833477061 a52.05188210277281,52.05188210277281 0 0,0 -0.1875502712146791,0.8761724284147157 l -30.30696454929867 -6.760716081307946" fill="#81ff25" stroke="none" /><path d="M 120.49622156327973 104.57218783832717 l 12.992880168861685 2.8983824413442623 a34.31223331596513,34.31223331596513 0 0,0 -0.13355535870980098,0.5753529898533383 l -12.941064244221332 -3.1216040885461656" fill="#ffab0f" stroke="none" /><path d="M 120.41448212921028 104.9243191809786 l 18.256689393360542 4.403822991534867 a39.78031854219769,39.78031854219769 0 0,0 -0.1662981848449217,0.6642785834596332 l -18.17817989422056 -4.717429414391895" fill="#fff016" stroke="none" /><path d="M 120.32669344350535 105.2749913415812 l 11.174800880722781 2.8999786932163856 a32.54495782343581,32.54495782343581 0 0,0 -0.14538595708534477,0.5410352312181341 l -11.12322684729566 -3.091904857610068" fill="#ff940d" stroke="none" /><path d="M 120.23288151984713 105.62410040840565 l 6.041827735705823 1.6794368020475856 a27.270900283054736,27.270900283054736 0 0,0 -0.12961126890446756,0.45119383045749273 l -6.012023829915256 -1.7831881080096603" fill="#ff4d07" stroke="none" /><path d="M 120.13307415673323 105.97154293290107 l 2.7247737559432306 0.808177794378981 a23.84210192787033,23.84210192787033 0 0,0 -0.12008838434040957,0.3924557882918749 l -2.7104585990966883 -0.854960555222913" fill="#ff1c02" stroke="none" /><path d="M 120.02730092923936 106.31721596034902 l 60.08190278771807 18.951647881047055 a84.0,84.0 0 0,0 -0.4468309959350121,1.375204400088819 l -59.746779540766816 -19.98305118111367" fill="#4dd2ff" stroke="none" /><path d="M 119.9155931802556 106.66101706037122 l 3.3680184549110628 1.1264755302417655 a24.55140752841109,24.55140752841109 0 0,0 -0.1374986018376446,0.39963529860903635 l -3.3481290221301876 -1.1842835319401022" fill="#ff2603" stroke="none" /><path d="M 119.79798401119884 107.00284435728193 l 6.69374882940492 2.3676795168914913 a28.10015349734548,28.10015349734548 0 0,0 -0.16522320090244266,0.4546232883423332 l -6.652001367497251 -2.4825506022399555" fill="#ff5808" stroke="none" /><path d="M 119.67450827220406 107.3425965602758 l 16.107352105500308 6.0113211740131725 a38.192520877047215,38.192520877047215 0 0,0 -0.23516721076888683,0.6139473795868708 l -16.001490615137914 -6.287692120433188" fill="#ffdd14" stroke="none" /><path d="M 119.54520255179757 107.68017299344265 l 17.78860874681563 6.989929734734123 a40.11265860218839,40.11265860218839 0 0,0 -0.2580531101114938,0.6404666565151986 l -17.665653022446744 -7.295095759092136" fill="#fff417" stroke="none" /><path d="M 119.41010516605496 108.01547362559984 l 17.302384940520188 7.1450828815320095 a39.71963498612891,39.71963498612891 0 0,0 -0.2664034102474236,0.6296989675297054 l -17.176830549080456 -7.4418563747278785" fill="#fff016" stroke="none" /><path d="M 119.26925614724726 108.34839909993367 l 13.04950681050994 5.653694677103693 a35.22159947050457,35.22159947050457 0 0,0 -0.24581140059174872,0.5542398160198336 l -12.950254325186918 -5.877482829616214" fill="#ffb711" stroke="none" /><path d="M 119.12269723197855 108.67885076344098 l 5.805074702374495 2.634637593293218 a27.374967258593742,27.374967258593742 0 0,0 -0.19843642285411922,0.42741440109485385 l -5.758863662680544 -2.7341720616669023" fill="#ff4e07" stroke="none" /><path d="M 118.97047184881838 109.00673069616215 l 15.465725862536907 7.342760315854581 a38.1203038965794,38.1203038965794 0 0,0 -0.2865317060444036,0.5903401823394079 l -15.337040899877788 -7.607889454159265" fill="#ffdc14" stroke="none" /><path d="M 118.81262510543309 109.33194174019688 l 5.572734510925005 2.764336901314097 a27.220685527594316,27.220685527594316 0 0,0 -0.21183050658329133,0.41796168585420046 l -5.524325334555445 -2.8598527988709916" fill="#ff4c07" stroke="none" /><path d="M 118.64920377521936 109.65438752849418 l 12.917168997537903 6.687006950880657 a35.54542254016983,35.54542254016983 0 0,0 -0.28596714201181156,0.5409420631551026 l -12.800149347301197 -6.908364029121894" fill="#ffbb11" stroke="none" /><line stroke="#e1ed5e" stroke-width="0.3" x1="174.80103733775053" x2="179.2010983576182" y1="140.37084112569926" y2="142.7455964860345" /><path d="M 175.68104954172406 140.8457921977663 a86.0,86.0 0 0,1 -30.038265399797805,32.042727171017184" fill="none" id="id149" stroke="none" /><text fill="#e1ed5e" style="font-size:6.75px; font-family:Arial;" text-anchor="middle"><textPath startOffset="22.206326154141568" xlink:href="#id149">May</textPath></text><path d="M 118.48025628344425 109.97397251340804 l 15.89810559067364 8.580360885941394 a39.06577854135275,39.06577854135275 0 0,0 -0.32447587432166264,0.5890179622826035 l -15.748053306900468 -8.852749366621802" fill="#ffe815" stroke="none" /><path d="M 118.30583269289576 110.29060199501025 l 5.784700875621705 3.2518626915186566 a27.636066243258085,27.636066243258085 0 0,0 -0.23668054038336067,0.4126724720205088 l -5.727868339085965 -3.3509550093974805" fill="#ff5207" stroke="none" /><path d="M 118.12598468904814 110.60418214915192 l 16.931973640337933 9.905653993808558 a40.6166692484263,40.6166692484263 0 0,0 -0.35823732905944106,0.6004263692762917 l -16.758955435580262 -10.195642456970955" fill="#fffb17" stroke="none" /><path d="M 117.94076556474637 110.91462005526583 l 18.308570081077047 11.1383812172894 a42.43052203179789,42.43052203179789 0 0,0 -0.38497689544785957,0.6207053347740429 l -18.114128545961222 -11.451882883428716" fill="#eeff19" stroke="none" /><path d="M 117.75023020441432 111.22182372390056 l 17.051079454787555 10.779815570857362 a41.17284646040754,41.17284646040754 0 0,0 -0.3838782427557726,0.5957875575746816 l -16.862996348654733 -11.071724728353496" fill="#fdff18" stroke="none" /><path d="M 117.55443506779139 111.5257021239791 l 11.131001503956323 7.308273218746487 a34.315782061934065,34.315782061934065 0 0,0 -0.32844598237386813,0.49098217951284423 l -11.003552416171733 -7.498792312465138" fill="#ffab0f" stroke="none" /><path d="M 117.35343817320211 111.8261652097733 l 16.844694632215887 11.479462435080553 a41.38435172015603,41.38435172015603 0 0,0 -0.40623489148933584,0.5852116596202849 l -16.644598833564416 -11.767715356887859" fill="#faff18" stroke="none" /><path d="M 117.14729908036423 112.12312394758627 l 3.0802403440189017 2.1777269588572263 a24.772316964977257,24.772316964977257 0 0,0 -0.2491625682228511,0.34606501488748354 l -3.0422979834204478 -2.230425579195841" fill="#ff2a04" stroke="none" /><path d="M 116.93607887273984 112.41649034213515 l 28.63709654007996 20.994956110473737 a56.50875216515751,56.50875216515751 0 0,0 -0.5818752851826017,0.779517033202202 l -28.271459988202267 -21.484786023185254" fill="#53ff2b" stroke="none" /><path d="M 116.71984013943494 112.70617746262583 l 9.893315725433766 7.518386793941953 a33.42593401022377,33.42593401022377 0 0,0 -0.35207565386572426,0.45510524289720133 l -9.762433254349972 -7.687570030952407" fill="#ffa00e" stroke="none" /><path d="M 116.498646956653 112.99209946851258 l 10.460148211340142 8.236995819970211 a34.3140076889496,34.3140076889496 0 0,0 -0.3694182144801677,0.460906023211171 l -10.316812084805122 -8.415829676759632" fill="#ffab0f" stroke="none" /><path d="M 116.27256486870786 113.27417163493432 l 14.503484011003772 11.83106275008982 a39.71697342665221,39.71697342665221 0 0,0 -0.43670514458742077,0.5260394790540395 l -14.297682866522809 -12.078963486257631" fill="#fff016" stroke="none" /><path d="M 115.80600337817218 113.82643327865902 l 12.293785714643223 10.754091585250727 a37.33363563391587,37.33363563391587 0 0,0 -0.42727661595548233,0.4800498075542907 l -12.106850249039402 -10.964115562545883" fill="#ffd213" stroke="none" /><line stroke="#e1ed5e" stroke-width="0.3" x1="143.8653032363475" x2="146.44561519142675" y1="172.8068346515853" y2="177.08958963109032" /><path d="M 144.38136562736335 173.6633856474863 a86.0,86.0 0 0,1 -40.68145358897372,12.25698825130547" fill="none" id="id150" stroke="none" /><text fill="#e1ed5e" style="font-size:6.75px; font-family:Arial;" text-anchor="middle"><textPath startOffset="21.466115282336833" xlink:href="#id150">June</textPath></text><line stroke="#e1ed5e" stroke-width="0.3" x1="102.19456741930631" x2="102.32365962044197" y1="184.97166512339345" y2="189.96999836594603" /><path d="M 102.22038585953345 185.97133177190398 a86.0,86.0 0 0,1 -42.740103519485714,-10.115201625700543" fill="none" id="id151" stroke="none" /><text fill="#e1ed5e" style="font-size:6.75px; font-family:Arial;" text-anchor="middle"><textPath startOffset="22.20632615414155" xlink:href="#id151">July</textPath></text><line stroke="#e1ed5e" stroke-width="0.3" x1="58.666819895761336" x2="56.23545636021788" y1="174.27360380694188" y2="178.64263932499728" /><path d="M 58.180547188652646 175.14741091055294 a86.0,86.0 0 0,1 -31.652253787137756,-30.449443065178592" fill="none" id="id152" stroke="none" /><text fill="#e1ed5e" style="font-size:6.75px; font-family:Arial;" text-anchor="middle"><textPath startOffset="22.20632615414155" xlink:href="#id152">August</textPath></text><line stroke="#e1ed5e" stroke-width="0.3" x1="26.63291911575756" x2="22.317208475507996" y1="142.92168965132927" y2="145.44649492493687" /><path d="M 25.769776987707644 143.4266507060508 a86.0,86.0 0 0,1 -11.730757126820373,-40.83630448921669" fill="none" id="id153" stroke="none" /><text fill="#e1ed5e" style="font-size:6.75px; font-family:Arial;" text-anchor="middle"><textPath startOffset="21.46611528233685" xlink:href="#id153">September</textPath></text><line stroke="#e1ed5e" stroke-width="0.3" x1="15.007084014347285" x2="10.007500721073583" y1="101.09737516637583" y2="101.16192664675087" /><path d="M 14.007167355692545 101.11028546245083 a86.0,86.0 0 0,1 10.666146001902534,-42.60595125391555" fill="none" id="id154" stroke="none" /><text fill="#e1ed5e" style="font-size:6.75px; font-family:Arial;" text-anchor="middle"><textPath startOffset="22.20632615414155" xlink:href="#id154">October</textPath></text><line stroke="#e1ed5e" stroke-width="0.3" x1="26.266209847984243" x2="21.928928074336255" y1="57.711370442889674" y2="55.22380399835377" /><path d="M 25.398753493254645 57.213857153982495 a86.0,86.0 0 0,1 29.58750427330803,-30.492523968695096" fill="none" id="id155" stroke="none" /><text fill="#e1ed5e" style="font-size:6.75px; font-family:Arial;" text-anchor="middle"><textPath startOffset="21.46611528233685" xlink:href="#id155">November</textPath></text><line stroke="#e1ed5e" stroke-width="0.3" x1="56.762969772571076" x2="54.21961505331055" y1="26.818313649435495" y2="22.513508569990535" /><path d="M 56.25429882871897 25.957352633546506 a86.0,86.0 0 0,1 42.265352541879196,-11.944610805530505" fill="none" id="id156" stroke="none" /><text fill="#e1ed5e" style="font-size:6.75px; font-family:Arial;" text-anchor="middle"><textPath startOffset="22.20632615414155" xlink:href="#id156">December</textPath></text></svg>