<?xml version="1.0" encoding="utf-8" ?>
<svg baseProfile="full" height="200mm" version="1.1" viewBox="0,0,200,200" width="200mm" xmlns="http://www.w3.org/2000/svg" xmlns:ev="http://www.w3.org/2001/xml-events" xmlns:xlink="http://www.w3.org/1999/xlink"><defs /><rect fill="#1a1a1a" height="200" width="200" x="0" y="0" /><text alignment-baseline="middle" fill="#e1ed5e" style="dominant-baseline: central; font-size:9.0px; font-family:Arial;" text-anchor="middle" x="100.0" y="100.0">2021</text><line stroke="#e1ed5e" stroke-width="0.3" x1="100.0" x2="100.0" y1="15.0" y2="10.0" /><path d="M 100.0 14.0 a86.0,86.0 0 0,1 42.46469731375804,11.215312516191453" fill="none" id="id97" stroke="none" /><text fill="#e1ed5e" style="font-size:6.75px; font-family:Arial;" text-anchor="middle"><textPath startOffset="22.20632615414155" xlink:href="#id97">January</textPath></text><path d="M 100.0 79.0 l 0.0 -15.050170702403427 a36.05017070240343,36.05017070240343 0 0,0 0.6205444277791072,0.0053412218027624895 l -0.2590639485065789 15.047940857209223" fill="#ffc011" stroke="none" /><path d="M 100.72285384407766 79.0124445844662 l 1.776809686926414 -51.58842561708642 a72.61901500719685,72.61901500719685 0 0,0 1.248905857747898,0.05378051337788237 l -2.6645563770636436 51.55019737718434" fill="#3fffbd" stroke="none" /><path d="M 101.08401301168833 79.027996857942 l 1.1083330311637127 -21.44251366116909 a42.4711386334631,42.4711386334631 0 0,0 0.7297713641879824,0.04402180160696912 l -1.477266444191307 21.420258590181817" fill="#efff19" stroke="none" /><path d="M 101.44485096284872 79.0497635885617 l 1.0475022773714084 -15.188708674272318 a36.22478677069119,36.22478677069119 0 0,0 0.6217032638292562,0.04825613867566023 l -1.3087957305630058 15.168427273408193" fill="#ffc212" stroke="none" /><path d="M 102.16513564639614 79.11191278185805 l 2.213015436160365 -21.35000618670463 a42.46439380679105,42.46439380679105 0 0,0 0.726410674794036,0.08162070321238306 l -2.5801928144641266 21.308749530021647" fill="#efff19" stroke="none" /><path d="M 102.52436894288641 79.15227682838746 l 4.893149166933781 -40.41050320996299 a61.70567133032317,61.70567133032317 0 0,0 1.0533606828312627,0.13675644828551886 l -5.58802457827289 40.32028843851333" fill="#31ff42" stroke="none" /><path d="M 102.88285421437855 79.19881850522331 l 2.0726238906217853 -14.954979514469672 a36.09791979281198,36.09791979281198 0 0,0 0.6147493266622835,0.09059807063791067 l -2.329742197712725 14.917086959670792" fill="#ffc011" stroke="none" /><path d="M 103.59715602781102 79.31037775812273 l 9.119027192339612 -52.44955358183999 a74.23638161886036,74.23638161886036 0 0,0 1.257086642634937,0.22972454884592966 l -10.02050895607745 52.284813551643325" fill="#41ffce" stroke="none" /><path d="M 103.95276090670814 79.375362276772 l 7.675779101565598 -40.050528465977024 a61.77943618075251,61.77943618075251 0 0,0 1.042700351744795,0.20915588134438504 l -8.364045862777518 39.91246862855543" fill="#31ff43" stroke="none" /><path d="M 104.307194497241 79.44645832069477 l 3.1274592596641853 -14.923952072517741 a36.24812601219133,36.24812601219133 0 0,0 0.6095852112859587,0.13323171654576813 l -3.383887195103672 14.867906857876102" fill="#ffc212" stroke="none" /><path d="M 105.01212808612495 79.60689891045804 l 5.40294479831298 -21.983236972381047 a43.63745834402525,43.63745834402525 0 0,0 0.7278958942042634,0.18555687071082344 l -5.780549581202268 21.886977105501355" fill="#e1ff1b" stroke="none" /><path d="M 105.36241919743992 79.69619591428918 l 6.931273849792046 -26.24398077229301 a48.1438590468875,48.1438590468875 0 0,0 0.7994221557412293,0.21851227351096122 l -7.381993894756985 26.120781957955757" fill="#adff20" stroke="none" /><path d="M 105.71112130821622 79.79150937346287 l 4.266228027582829 -15.095814718914669 a36.68707504957932,36.68707504957932 0 0,0 0.6062273297770862,0.17697438140987257 l -4.525445575083342 15.020142008586092" fill="#ffc812" stroke="none" /><path d="M 106.40334571778207 80.00007090966166 l 15.441357128788683 -48.22885742007576 a71.64047983604411,71.64047983604411 0 0,0 1.1712098738337935,0.38612948118681506 l -16.269249824864893 47.95591421462971" fill="#3effb2" stroke="none" /><path d="M 106.74666289553966 80.11325718540242 l 9.076937611455742 -26.755557023978046 a49.253329504070855,49.253329504070855 0 0,0 0.8005260818828904,0.2792878312272809 l -9.536145697401906 26.595348339578557" fill="#a1ff22" stroke="none" /><path d="M 107.08798089147638 80.2323363322302 l 5.1119739423052515 -14.256779626961578 a36.1455618224797,36.1455618224797 0 0,0 0.5838673054792912,0.21504325606690858 l -5.356623573557119 14.166673103088344" fill="#ffc111" stroke="none" /><path d="M 107.76421540070413 80.48803036053334 l 7.93674443129395 -19.945546122479968 a42.4666420823484,42.4666420823484 0 0,0 0.6768700052085047,0.27611227031823665 l -8.278898306090841 19.805972965978153" fill="#efff19" stroke="none" /><path d="M 108.09893153111575 80.62456947434976 l 14.256696504472059 -34.10692281894427 a57.966682017704095,57.966682017704095 0 0,0 0.9172985686422443,0.3927393752337973 l -14.841678830904618 33.85646391574768" fill="#45ff2d" stroke="none" /><path d="M 108.43124777332544 80.76684994638697 l 6.168662626686739 -14.071797807264053 a36.36450103746956,36.36450103746956 0 0,0 0.5711267950090849,0.2562479449740953 l -6.409971540162604 13.963529531773426" fill="#ffc412" stroke="none" /><path d="M 109.08828744355905 81.06846463323043 l 20.803177389197636 -43.334466579167334 a69.06920202361793,69.06920202361793 0 0,0 1.0673781248250118,0.5237578102793322 l -21.54602678103308 42.96995360875317" fill="#3aff96" stroke="none" /><path d="M 109.41281617654863 81.2277094730956 l 9.693672571435945 -19.332411721483698 a42.62659082914295,42.62659082914295 0 0,0 0.6530789785296226,0.33453241852801774 l -10.025012037554323 19.16268677764318" fill="#edff1a" stroke="none" /><path d="M 109.73455568895987 81.39251694778311 l 7.2527403513426245 -13.863523665778875 a36.64607078584283,36.64607078584283 0 0,0 0.5564181521590539,0.29721930690245785 l -7.4903035500299895 13.736625632374663" fill="#ffc712" stroke="none" /><path d="M 110.36928655335952 81.73862282372117 l 10.852287082592346 -19.111990648601594 a42.97817830201665,42.97817830201665 0 0,0 0.6401768859789779,0.370831772917838 l -11.179660701036651 18.922354718293708" fill="#e9ff1a" stroke="none" /><line stroke="#e1ed5e" stroke-width="0.3" x1="143.23703022742887" x2="145.7803849466894" y1="26.81831364943548" y2="22.513508569990506" /><path d="M 143.74570117128098 25.957352633546492 a86.0,86.0 0 0,1 28.547481713284135,27.462654790039103" fill="none" id="id98" stroke="none" /><text fill="#e1ed5e" style="font-size:6.75px; font-family:Arial;" text-anchor="middle"><textPath startOffset="19.985693538727396" xlink:href="#id98">February</textPath></text><path d="M 110.68208982089419 81.91981866633111 l 24.26161783559277 -41.0644786994473 a68.69609534183815,68.69609534183815 0 0,0 1.012900810502997,0.6102614049035323 l -24.964880712313406 40.64077068508515" fill="#3aff92" stroke="none" /><path d="M 110.99172775467656 82.1063720568725 l 11.427118606648522 -18.602408408665593 a42.831826269307044,42.831826269307044 0 0,0 0.6248976779921074,0.39131086863043446 l -11.745635437012892 18.40295319871221" fill="#eaff1a" stroke="none" /><path d="M 111.60114157652 82.49532879139004 l 11.942501802600765 -18.01974108184849 a42.61791890913602,42.61791890913602 0 0,0 0.6080061161590393,0.4105284437114035 l -12.250912613166346 17.811500725838417" fill="#edff1a" stroke="none" /><path d="M 111.90073688211348 82.69761687909136 l 17.143827197022553 -24.92526885182749 a51.251939413816956,51.251939413816956 0 0,0 0.7225763474465025,0.5062109081985757 l -17.570334684052707 24.626473100864978" fill="#8bff24" stroke="none" /><path d="M 112.19680574252982 82.90503203632743 l 11.249272346342625 -15.766910979387916 a40.36857274437464,40.36857274437464 0 0,0 0.5621894367240549,0.40845453457540226 l -11.519007099420469 15.570937209995838" fill="#fff617" stroke="none" /><path d="M 112.77801427241765 83.33499621200491 l 14.666451524143064 -19.127891470107592 a45.10354812890113,45.10354812890113 0 0,0 0.6120496601684101,0.477714467932287 l -14.993533739470905 18.872598612952082" fill="#d0ff1d" stroke="none" /><path d="M 113.06298171725822 83.55741782278167 l 34.86641417804687 -43.88690826919368 a77.05111555592563,77.05111555592563 0 0,0 1.031371748551684,0.8339642268980414 l -35.616689325163044 43.28023794503151" fill="#44ffea" stroke="none" /><path d="M 113.34407831869373 83.78471172551755 l 12.372113134004007 -15.03418791774779 a40.47038750890049,40.47038750890049 0 0,0 0.5340982321159834,0.4472919095542587 l -12.629068903079107 14.818994850799713" fill="#fff717" stroke="none" /><path d="M 113.89432698308785 84.25364557470407 l 14.437821035263328 -16.362292857147462 a42.82144137744689,42.82144137744689 0 0,0 0.5484998678969355,0.4924485970752783 l -14.717331890756252 16.111345251302886" fill="#ebff1a" stroke="none" /><path d="M 114.16331599549186 84.49514656593476 l 14.6311174091837 -16.016964606184057 a42.69361085290024,42.69361085290024 0 0,0 0.5383300745799405,0.5003191349910813 l -14.904655367558487 15.762740885118337" fill="#ecff1a" stroke="none" /><path d="M 114.42810811169701 84.74124197986012 l 13.258463622418558 -14.021775174341755 a40.29759147320678,40.29759147320678 0 0,0 0.49991418194436676,0.48091704694899357 l -13.497861047975345 13.79147504063046" fill="#fff517" stroke="none" /><path d="M 114.94478906791727 85.2469230424477 l 44.718405285284305 -44.144756516443394 a83.8370535524623,83.8370535524623 0 0,0 1.0049896383329033,1.0357301633852953 l -45.47165918732031 43.368462157507985" fill="#4dd3ff" stroke="none" /><path d="M 115.19652480421416 85.50635884689758 l 41.53157074171693 -39.6106143088851 a78.39226545625718,78.39226545625718 0 0,0 0.9229109393120396,0.9844970419537632 l -42.20724900299943 38.88984785005328" fill="#46fff7" stroke="none" /><path d="M 115.4437574822437 85.77008943001954 l 14.287911841271901 -13.164911969565974 a40.42831263775574,40.42831263775574 0 0,0 0.4671517695578345,0.5158406517467579 l -14.51240725144577 12.917018530549669" fill="#fff617" stroke="none" /><path d="M 115.9244219780498 86.31012108654704 l 46.852792880044014 -40.27832609365732 a82.78614532051097,82.78614532051097 0 0,0 0.9196728120756364,1.0886025297601583 l -47.53917630560677 39.46586461426805" fill="#4bddff" stroke="none" /><path d="M 116.15771136456269 86.58626213691792 l 18.361191653142015 -15.24301345234009 a44.863839130190954,44.863839130190954 0 0,0 0.4881645186900022,0.5984319786915246 l -18.620854663908425 14.924697304040466" fill="#d2ff1c" stroke="none" /><path d="M 116.38621287248628 86.86637796730983 l 15.521472300132448 -12.440528642411016 a40.89177858479296,40.89177858479296 0 0,0 0.4354894960830511,0.5530274353747362 l -15.733315876809463 12.171508813083241" fill="#fffc17" stroke="none" /><path d="M 116.82858285166822 87.43820079747576 l 46.75112216368341 -34.89766276158276 a79.33964595182945,79.33964595182945 0 0,0 0.8075166023732316,1.1014517381316775 l -47.34490137857027 34.087748579779586" fill="#47feff" stroke="none" /><path d="M 117.04232023915458 87.72973835380427 l 23.27821466240186 -16.760029183570257 a49.68403486441522,49.68403486441522 0 0,0 0.49373481302035027,0.6983528785031734 l -23.563262095226094 16.35684980473529" fill="#9cff22" stroke="none" /><path d="M 117.2510076193507 88.02491185347247 l 17.931343167802936 -12.447354946340026 a42.82818620411894,42.82818620411894 0 0,0 0.41517956623535696,0.609224782982739 l -18.142947199707027 12.13685214008688" fill="#ebff1a" stroke="none" /><path d="M 117.45458315368197 88.32363383020206 l 1.103868142061571 -0.7384403578361319 a22.328088489950733,22.328088489950733 0 0,0 0.2109508515443912,0.32129261940814885 l -1.1164156289638871 0.7193296744503092" fill="#ff0300" stroke="none" /><path d="M 117.65298651832404 88.62581576622439 l 21.655223301646085 -13.952908149609671 a46.7610625183745,46.7610625183745 0 0,0 0.430140326131788,0.680378697517733 l -21.89219122402383 13.578081804377732" fill="#bdff1f" stroke="none" /><line stroke="#e1ed5e" stroke-width="0.3" x1="172.23445277983987" x2="176.4835382374775" y1="55.19839476539836" y2="52.563006222186495" /><path d="M 173.08426987136738 54.67131705675599 a86.0,86.0 0 0,1 12.851231095245387,41.99856678651699" fill="none" id="id99" stroke="none" /><text fill="#e1ed5e" style="font-size:6.75px; font-family:Arial;" text-anchor="middle"><textPath startOffset="22.20632615414155" xlink:href="#id99">March</textPath></text><path d="M 117.84615892207809 88.93136811851018 l 42.197291613449394 -26.17181037692797 a70.65455747377436,70.65455747377436 0 0,0 0.6321369108762003,1.039066872271142 l -42.64154432261182 25.441575731449745" fill="#3cffa8" stroke="none" /><path d="M 118.03404312379186 89.2402003453031 l 20.754514282912805 -12.382936764749882 a45.16789163413776,45.16789163413776 0 0,0 0.39261722106592795,0.6711100995437733 l -20.96459117844906 12.023847252852214" fill="#cfff1d" stroke="none" /><path d="M 118.3937258080291 89.86733742301442 l 49.04453829557923 -27.01746035467302 a76.99383805958354,76.99383805958354 0 0,0 0.6294865907102668,1.166343050141649 l -49.50233298550796 26.169236321198913" fill="#44ffe9" stroke="none" /><path d="M 118.56541770881063 90.18545643968196 l 21.206469694145433 -11.210726515190728 a44.987387225104555,44.987387225104555 0 0,0 0.3560228277897841,0.6877227834997646 l -21.396301955095336 10.84403100943062" fill="#d1ff1c" stroke="none" /><path d="M 118.73160827565052 90.50648371742162 l 56.19482482695156 -28.480548847735175 a84.0,84.0 0 0,0 0.6425599481863675,1.2953616460042006 l -56.676744788091334 27.509027613232025" fill="#4dd2ff" stroke="none" /><path d="M 118.89224826269711 90.83032412892265 l 1.8480950478355835 -0.8970045455657247 a23.054281494975793,23.054281494975793 0 0,0 0.17020844965055354,0.3585024035305851 l -1.8632616913278932 0.8650597263945993" fill="#ff0e01" stroke="none" /><path d="M 119.04729006885535 91.15688171328212 l 27.585653429786134 -12.807239004297022 a51.41370819320555,51.41370819320555 0 0,0 0.3657661371613092,0.8059171990961801 l -27.80202188391079 12.33049979635878" fill="#89ff24" stroke="none" /><path d="M 119.196687751892 91.48605970444005 l 49.307951927672775 -21.86861422315786 a74.93987774683023,74.93987774683023 0 0,0 0.5128360302606314,1.1836962644380475 l -49.67707866777609 21.01661881413321" fill="#42ffd5" stroke="none" /><path d="M 119.34039704204932 91.81776055985345 l 14.001181304667698 -5.92340568968772 a36.20262519734013,36.20262519734013 0 0,0 0.23786557881048745,0.576010366418064 l -14.101068570364383 5.681520752816353" fill="#ffc212" stroke="none" /><path d="M 119.61058180528143 92.48833698450437 l 30.581358147126434 -11.713923596878166 a53.748060586183044,53.748060586183044 0 0,0 0.32350039214429444,0.8668202166707528 l -30.77846312777235 11.18578024317808" fill="#70ff27" stroke="none" /><path d="M 119.7369772167798 92.82701384747503 l 20.181792149287237 -7.334644714333487 a42.47327984827963,42.47327984827963 0 0,0 0.24381062064823378,0.6892854564638257 l -20.30505585074528 6.986161631443047" fill="#efff19" stroke="none" /><path d="M 119.85752413597 93.16781622104841 l 18.308373296715793 -6.299182627215363 a40.36172085696175,40.36172085696175 0 0,0 0.2203801972136965,0.6589087391479961 l -18.41409078770126 5.983100785145052" fill="#fff617" stroke="none" /><path d="M 120.08093135843002 93.85539295169968 l 39.81822326552188 -12.184063127401183 a62.64063277995959,62.64063277995959 0 0,0 0.30662322147482096,1.0337810722445722 l -40.0220523841084 11.496852668410082" fill="#32ff4d" stroke="none" /><path d="M 120.18372546131832 94.20196356495316 l 22.752982951586006 -6.536088910450269 a44.673163950779255,44.673163950779255 0 0,0 0.20595015576634615,0.7409122878365891 l -22.862119877918715 6.143465319194728" fill="#d5ff1c" stroke="none" /><path d="M 120.28053869075195 94.5502522615342 l 20.967963174227616 -5.6344711366611255 a42.71181117884072,42.71181117884072 0 0,0 0.1846851965477023,0.711667400131378 l -21.061844702645622 5.272707310980897" fill="#ecff1a" stroke="none" /><path d="M 120.45610955862082 95.25157060432595 l 48.5530123606473 -11.270498453341645 a70.84394792429615,70.84394792429615 0 0,0 0.26551506421797405,1.1902519706170096 l -48.73982181186731 10.433068313174672" fill="#3dffaa" stroke="none" /><path d="M 120.53481517161879 95.60439243477599 l 23.25502361283626 -4.977885452961107 a44.78183060271799,44.78183060271799 0 0,0 0.15486133659927234,0.7551588751423216 l -23.33726424535053 4.576850921655374" fill="#d3ff1c" stroke="none" /><path d="M 120.6074358757038 95.95851677861258 l 23.284104190121926 -4.566425293132238 a44.72765786785985,44.72765786785985 0 0,0 0.1416679897280088,0.7567960659145091 l -23.359257903759794 4.164951149755167" fill="#d4ff1c" stroke="none" /><path d="M 120.73433829027371 96.67025291283417 l 50.98968390954024 -8.188481787863061 a72.64299661314196,72.64299661314196 0 0,0 0.18764068805580236,1.2363176889540908 l -51.123080491035346 7.309564986516888" fill="#3fffbd" stroke="none" /><path d="M 120.78858239683441 97.02765380044208 l 54.26155229506382 -7.7583028831684775 a75.81338633123232,75.81338633123232 0 0,0 0.1735909971323621,1.293454559449811 l -54.387059291254026 6.823129981654001" fill="#43ffde" stroke="none" /><path d="M 120.83666639777658 97.38593545837742 l 21.299147895507673 -2.672085170320859 a42.466106778644274,42.466106778644274 0 0,0 0.08474950211451816,0.7260819784684592 l -21.341987750625783 2.3050594535275466" fill="#efff19" stroke="none" /><path d="M 120.87857604477298 97.74499172005257 l 1.0895372990833367 -0.11767639830780409 a22.095873743098405,22.095873743098405 0 0,0 0.037587053365049895,0.3784964978979945 l -1.0914014781306152 0.09890436970537465" fill="#ff0000" stroke="none" /><path d="M 120.91429891909075 98.10471618934814 l 49.54745198108915 -4.490061271577706 a70.75048389755477,70.75048389755477 0 0,0 0.09947355033789665,1.2138292713859449 l -49.61740001524654 3.6365180829839927" fill="#3dffa9" stroke="none" /><path d="M 120.94382443527127 98.46500227214037 l 23.629056983679675 -1.7318016054570846 a44.69243488412799,44.69243488412799 0 0,0 0.04962862705102421,0.7677328943290772 l -23.655366201735113 1.3248096468749722" fill="#d4ff1c" stroke="none" /><path d="M 120.96714384426684 98.82574320788733 l 19.32790044133382 -1.0824515985146703 a40.358187852514476,40.358187852514476 0 0,0 0.03287537963767887,0.6939473043031212 l -19.343669429204994 0.7495931875885493" fill="#fff617" stroke="none" /><line stroke="#e1ed5e" stroke-width="0.3" x1="184.98032266829074" x2="189.97916517819016" y1="98.17113171792111" y2="98.06355123074" /><path d="M 185.9800911702706 98.14961562048488 a86.0,86.0 0 0,1 -9.607161424134198,41.387399972396054" fill="none" id="id100" stroke="none" /><text fill="#e1ed5e" style="font-size:6.75px; font-family:Arial;" text-anchor="middle"><textPath startOffset="21.466115282336823" xlink:href="#id100">April</textPath></text><path d="M 120.99513854157772 99.54816195383933 l 52.996820166317555 -1.1405487812931443 a74.00909166608604,74.00909166608604 0 0,0 0.01644761447761718,1.2738858671985562 l -53.00860078791288 0.2281266560341252" fill="#41ffcb" stroke="none" /><path d="M 120.99980553446 99.90962569577887 l 21.434325370754916 -0.09224429429370445 a42.4345238601005,42.4345238601005 0 0,0 -0.003143595418467019,0.730460865350758 l -21.432737478046946 -0.27672604926073835" fill="#efff19" stroke="none" /><path d="M 120.99824983174949 100.27111621757518 l 19.557189622479104 0.25251015295713497 a40.55881968082304,40.55881968082304 0 0,0 -0.015022093192739406,0.6980176424848462 l -19.549945466601358 -0.589117611232096" fill="#fff817" stroke="none" /><path d="M 120.9904718944345 100.63252640178507 l 2.2452222401718918 0.06765747582646245 a23.246241403277416,23.246241403277416 0 0,0 -0.015495133279616052,0.3998605388699457 l -2.2437249740410725 -0.10629526171041437" fill="#ff1101" stroke="none" /><path d="M 120.9764740272857 100.99374915477107 l 49.6093035047321 2.350214023695377 a70.66494236563452,70.66494236563452 0 0,0 -0.0680188737872334,1.214522683965938 l -49.56149828005733 -3.203808423996738" fill="#3cffa8" stroke="none" /><path d="M 120.95626037817324 101.35467743843564 l 23.088919941581068 1.492539143829494 a44.13711082146177,44.13711082146177 0 0,0 -0.05553592183412008,0.7577435299312415 l -23.05980746108261 -1.8897558102575058" fill="#dbff1b" stroke="none" /><path d="M 120.92983693683757 101.71520430193887 l 19.26704789102551 1.578938408745313 a40.33163678878955,40.33163678878955 0 0,0 -0.06265885395431524,0.6914352321077811 l -19.237014440794116 -1.9103550294016647" fill="#fff517" stroke="none" /><path d="M 120.89721153311464 102.0752229133903 l 2.149591234123083 0.21346776226130676 a23.16016456765304,23.16016456765304 0 0,0 -0.04281068025586556,0.3963737300651444 l -2.145598252366166 -0.25043781421124256" fill="#ff1001" stroke="none" /><path d="M 120.8583938346157 102.4346265915055 l 44.85764632915628 5.235859455490307 a66.16218172796034,66.16218172796034 0 0,0 -0.14177134869971322,1.1300571392109668 l -44.76087347120972 -6.0072343489886695" fill="#37ff76" stroke="none" /><path d="M 120.81339534386255 102.79330883721812 l 23.599899083307594 3.1672778793536813 a44.81148642792687,44.81148642792687 0 0,0 -0.1091820108781699,0.7636187297867649 l -23.541883021412822 -3.573042081120856" fill="#d3ff1c" stroke="none" /><path d="M 120.76222939487914 103.15116336523771 l 17.001924186818258 2.580447389203041 a38.1966314952307,38.1966314952307 0 0,0 -0.10425542412452286,0.6491986255429776 l -16.954987008332445 -2.8727252444392235" fill="#ffdb14" stroke="none" /><path d="M 120.70491114924044 103.5080841355445 l 2.1443770339254375 0.3633270869465076 a23.174938949887075,23.174938949887075 0 0,0 -0.0700253488067829,0.3927393440555814 l -2.137805242779466 -0.40018518173530737" fill="#ff1001" stroke="none" /><path d="M 120.64145759157962 103.86396538481128 l 26.514151885551865 4.963300902509618 a47.974703076381886,47.974703076381886 0 0,0 -0.15893349088078573,0.8103984459208432 l -26.424788461695417 -5.418963075498406" fill="#afff20" stroke="none" /><path d="M 120.5718875245553 104.21870165774334 l 50.328725288130414 10.320972081521944 a72.3760941862619,72.3760941862619 0 0,0 -0.26078127333208345,1.2182832904513015 l -50.14360997607389 -11.185769191389415" fill="#3fffba" stroke="none" /><path d="M 120.49622156327973 104.57218783832717 l 18.44855341506748 4.115404944207834 a39.90200203585346,39.90200203585346 0 0,0 -0.1553127173642186,0.6690831214935893 l -18.37498013177271 -4.432356723049989" fill="#fff016" stroke="none" /><path d="M 120.41448212921028 104.9243191809786 l 2.097853770042834 0.506037894732029 a23.158023352836516,23.158023352836516 0 0,0 -0.09681011588903837,0.38670828973451155 l -2.088832339858735 -0.5420740238639364" fill="#ff0f01" stroke="none" /><path d="M 120.32669344350535 105.2749913415812 l 21.884293414878563 5.679204962723118 a43.60919430844709,43.60919430844709 0 0,0 -0.19481249558384006,0.7249697680946741 l -21.783292842952946 -6.05506566399334" fill="#e1ff1b" stroke="none" /><path d="M 120.23288151984713 105.62410040840565 l 25.84677884905809 7.184586107439266 a47.82674513255989,47.82674513255989 0 0,0 -0.22730768180958966,0.7912878603455026 l -25.7192785303624 -7.628431443289351" fill="#b0ff20" stroke="none" /><path d="M 120.13307415673323 105.97154293290107 l 18.944764626098284 5.619086009307572 a40.76052211653986,40.76052211653986 0 0,0 -0.2053034275524562,0.670943480018246 l -18.845234426039696 -5.9443564618778755" fill="#fffb17" stroke="none" /><path d="M 119.9155931802556 106.66101706037122 l 21.532258042809065 7.2017306676891 a43.70469248926418,43.70469248926418 0 0,0 -0.2447653603592373,0.7114027093294539 l -21.405101851506597 -7.571306080107854" fill="#e0ff1b" stroke="none" /><path d="M 119.79798401119884 107.00284435728193 l 10.131322273691977 3.583600884615139 a31.74643598192543,31.74643598192543 0 0,0 -0.18666260206278584,0.5136153124791901 l -10.068135410623965 -3.75746399410046" fill="#ff870c" stroke="none" /><path d="M 119.67450827220406 107.3425965602758 l 2.018802727812431 0.7534243682243933 a23.154811530611724,23.154811530611724 0 0,0 -0.1425737898020155,0.3722151755787952 l -2.005534658416909 -0.7880631106363323" fill="#ff0f01" stroke="none" /><path d="M 119.54520255179757 107.68017299344265 l 21.126220582977 8.30142477904225 a43.698697087777916,43.698697087777916 0 0,0 -0.2811228446150902,0.6977238456179685 l -20.980195124104515 -8.663847992503031" fill="#e0ff1b" stroke="none" /><path d="M 119.41010516605496 108.01547362559984 l 11.890957550988924 4.910414231024525 a33.864953921397024,33.864953921397024 0 0,0 -0.22713550151411624,0.5368812308368868 l -11.804671068282499 -5.114369987527575" fill="#ffa30f" stroke="none" /><path d="M 119.26925614724726 108.34839909993367 l 12.403033748571337 5.373610428538104 a34.51706089377025,34.51706089377025 0 0,0 -0.240894428707408,0.5431533424633131 l -12.308698235132656 -5.586312107494105" fill="#ffac0f" stroke="none" /><path d="M 118.97047184881838 109.00673069616215 l 25.294757668609563 12.009351805344753 a49.00088027720235,49.00088027720235 0 0,0 -0.3683156845127936,0.7588394015985486 l -25.084288727482054 -12.442980162908578" fill="#a3ff21" stroke="none" /><path d="M 118.81262510543309 109.33194174019688 l 25.2733257964112 12.536751388566762 a49.21189699737106,49.21189699737106 0 0,0 -0.3829654128405472,0.7556270914725297 l -25.053781713784385 -12.969932691741985" fill="#a1ff22" stroke="none" /><path d="M 118.64920377521936 109.65438752849418 l 19.071690159858775 9.873101814207617 a42.47574224531864,42.47574224531864 0 0,0 -0.341722386363454,0.6464099735559716 l -18.89891526527043 -10.199926802849724" fill="#efff19" stroke="none" /><line stroke="#e1ed5e" stroke-width="0.3" x1="174.80103733775053" x2="179.2010983576182" y1="140.37084112569926" y2="142.7455964860345" /><path d="M 175.68104954172406 140.8457921977663 a86.0,86.0 0 0,1 -30.038265399797805,32.042727171017184" fill="none" id="id101" stroke="none" /><text fill="#e1ed5e" style="font-size:6.75px; font-family:Arial;" text-anchor="middle"><textPath startOffset="22.206326154141568" xlink:href="#id101">May</textPath></text><path d="M 118.48025628344425 109.97397251340804 l 1.9082257185299036 1.029887820497714 a23.16840824469667,23.16840824469667 0 0,0 -0.1924341406349163,0.3493238615269679 l -1.8902151684434778 -1.062582200422487" fill="#ff1001" stroke="none" /><path d="M 118.30583269289576 110.29060199501025 l 28.02724147039792 15.755480333972537 a53.15216050274364,53.15216050274364 0 0,0 -0.45520523650508465,0.7936886992101869 l -27.751884237740455 -16.23558887904104" fill="#76ff27" stroke="none" /><path d="M 118.12598468904814 110.60418214915192 l 41.539345087959106 24.301619427900416 a69.12573009477424,69.12573009477424 0 0,0 -0.6096860568987993,1.0218689004388586 l -41.11487815536208 -25.01305042222538" fill="#3aff97" stroke="none" /><path d="M 117.94076556474637 110.91462005526583 l 17.60817064767457 10.712279350291418 a41.610691459441824,41.610691459441824 0 0,0 -0.37753848051856986,0.6087122414651528 l -17.421167527488034 -11.013787923121845" fill="#f9ff18" stroke="none" /><path d="M 117.75023020441432 111.22182372390056 l 1.028543327329072 0.6502525194749621 a22.21685238023217,22.21685238023217 0 0,0 -0.2071405546247363,0.3214867407660101 l -1.0171979093272854 -0.6678608601624252" fill="#ff0200" stroke="none" /><path d="M 117.55443506779139 111.5257021239791 l 43.16423751958851 28.340310704288164 a72.63646590795155,72.63646590795155 0 0,0 -0.6952240038780139,1.039265556566087 l -42.670010410299774 -29.07911317506006" fill="#3fffbd" stroke="none" /><path d="M 117.35343817320211 111.8261652097733 l 22.35134963009137 15.232183429509444 a48.04814674458876,48.04814674458876 0 0,0 -0.4716476848795279,0.6794436672155212 l -22.085841038049708 -15.614668358911985" fill="#aeff20" stroke="none" /><path d="M 117.14729908036423 112.12312394758627 l 14.013292742721417 9.907384482980294 a38.161836754462136,38.161836754462136 0 0,0 -0.38383576583837353,0.5331143075247172 l -13.840677184507442 -10.147132395956143" fill="#ffda14" stroke="none" /><path d="M 116.71984013943494 112.70617746262583 l 26.448756060426643 20.099629264807007 a54.21944902804141,54.21944902804141 0 0,0 -0.571093928533104,0.7382158868653264 l -26.098855314675472 -20.551923145785587" fill="#6bff28" stroke="none" /><path d="M 116.498646956653 112.99209946851258 l 21.291924024258282 16.76663519899295 a48.10103475055697,48.10103475055697 0 0,0 -0.5178467794632357,0.6460934799627367 l -21.000159332740193 -17.13065651253394" fill="#adff20" stroke="none" /><path d="M 116.27256486870786 113.27417163493432 l 11.944199939521296 9.743354002175053 a36.41417722121298,36.41417722121298 0 0,0 -0.40038948480778536,0.4822949274068835 l -11.774714454819968 -9.947510186695707" fill="#ffc412" stroke="none" /><path d="M 115.80600337817218 113.82643327865902 l 18.22953272352521 15.946435785976652 a45.219923154179355,45.219923154179355 0 0,0 -0.5175337309375814,0.5814546330457855 l -17.952340142939292 -16.257864588763304" fill="#ceff1d" stroke="none" /><path d="M 115.56566222782051 114.09645910891815 l 19.982022866569455 18.095970741843846 a47.958215722294625,47.958215722294625 0 0,0 -0.5594065336805766,0.6071253081780439 l -19.667569924893158 -18.437247304823224" fill="#afff20" stroke="none" /><path d="M 115.32070863581623 114.36230785411682 l 14.089404290146573 13.20802886513601 a40.31225879469998,40.31225879469998 0 0,0 -0.4789354508758746,0.5021619054846549 l -13.859962287891735 -13.44859788720317" fill="#fff517" stroke="none" /><path d="M 114.81725581225074 114.88116024355365 l 19.00329657902964 19.085254728106033 a47.93273526597797,47.93273526597797 0 0,0 -0.5896868780344693,0.5771327227924825 l -18.671959748619376 -19.40953755382109" fill="#afff20" stroke="none" /><path d="M 114.55890576462653 115.13401014063108 l 18.019018242811313 18.73080362079795 a46.99092192892866,46.99092192892866 0 0,0 -0.5877538714127974,0.5557579711677338 l -17.693928537007707 -19.038196228711605" fill="#baff1f" stroke="none" /><path d="M 114.0293411484842 115.62618273729858 l 7.178876408135127 7.995987367811739 a31.74579361748047,31.74579361748047 0 0,0 -0.40975905347939623,0.3615647228273478 l -7.040175001749143 -8.118375232411376" fill="#ff870c" stroke="none" /><path d="M 113.75828350139079 115.86535959552629 l 1.4275904575086467 1.6462254147639137 a23.179007258038478,23.179007258038478 0 0,0 -0.3036831007313133,0.25880532670739587 l -1.399041880200286 -1.6705551316942564" fill="#ff1001" stroke="none" /><path d="M 113.48314897796784 116.09983520530334 l 29.06478058090731 34.70540734924338 a66.26838598286008,66.26838598286008 0 0,0 -0.8808326695688823,0.7248653202723572 l -28.463077782793736 -35.200567788372915" fill="#37ff77" stroke="none" /><path d="M 112.63410532772338 116.77436683061366 l 3.2601926512218324 4.32857460433413 a26.418986457665973,26.418986457665973 0 0,0 -0.3656073586145784,0.2704675834655693 l -3.18520032218869 -4.384052136539468" fill="#ff3e05" stroke="none" /><path d="M 112.34349029814194 116.9893568818739 l 9.144047107961795 12.585701119335331 a36.556782127993664,36.556782127993664 0 0,0 -0.5122696172405159,0.3654907702991887 l -8.926050162872395 -12.74123615147874" fill="#ffc612" stroke="none" /><path d="M 112.04921762599082 117.19931262002967 l 12.97682868773196 18.5234046180254 a43.61668856030493,43.61668856030493 0 0,0 -0.6186157334873651,0.4254895423320284 l -12.656056069621712 -18.74403494972252" fill="#e1ff1b" stroke="none" /><path d="M 111.7513745106137 117.40417183066458 l 8.544010586047078 12.653960456138565 a36.268360492207506,36.268360492207506 0 0,0 -0.5204083167391433,0.34489825533653734 l -8.32492757056797 -12.799156732566422" fill="#ffc212" stroke="none" /><path d="M 111.1453310114006 117.79835938074945 l 12.546047392115616 20.035211162806625 a44.6392256959373,44.6392256959373 0 0,0 -0.6547528577745166,0.4022026825486836 l -12.199315334408789 -20.248202312183686" fill="#d5ff1c" stroke="none" /><line stroke="#e1ed5e" stroke-width="0.3" x1="143.8653032363475" x2="146.44561519142675" y1="172.8068346515853" y2="177.08958963109032" /><path d="M 144.38136562736335 173.6633856474863 a86.0,86.0 0 0,1 -40.68145358897372,12.25698825130547" fill="none" id="id102" stroke="none" /><text fill="#e1ed5e" style="font-size:6.75px; font-family:Arial;" text-anchor="middle"><textPath startOffset="21.466115282336833" xlink:href="#id102">June</textPath></text><path d="M 110.8373102113329 117.98757091392108 l 13.90339175970915 23.07659745314564 a47.94130012524407,47.94130012524407 0 0,0 -0.710517757316524,0.41978641491065355 l -13.504106131364244 -23.312502440350045" fill="#afff20" stroke="none" /><path d="M 110.5260780823613 118.17145234162733 l 9.710485059041995 16.763472119796624 a40.37285517400769,40.37285517400769 0 0,0 -0.6043455622314841,0.3431631826853489 l -9.42049072988931 -16.9281384682766" fill="#fff617" stroke="none" /><path d="M 110.21172684928248 118.3499491758327 l 1.0701600835779916 1.9230227593720652 a23.200740588426225,23.200740588426225 0 0,0 -0.3506374195485537,0.1911954783296991 l -1.0368998521607893 -1.9411588894615348" fill="#ff1001" stroke="none" /><path d="M 109.89434966115114 118.52300852407294 l 13.706135295270146 25.65897402061781 a50.09022331511035,50.09022331511035 0 0,0 -0.7640168677290134,0.3996975155286636 l -13.262427525014637 -25.89110095509119" fill="#97ff23" stroke="none" /><path d="M 109.57404056367764 118.69057910512821 l 11.849337658437651 23.13244667968389 a46.99070780744701,46.99070780744701 0 0,0 -0.7230887430094142,0.36257170682098827 l -11.449395007745476 -23.33298622741418" fill="#baff1f" stroke="none" /><path d="M 109.2508944713604 118.85261126421891 l 8.514251296076461 17.351389142718947 a40.3277826021198,40.3277826021198 0 0,0 -0.6258244513176883,0.300433767921766 l -8.214314176758538 -17.495377187140274" fill="#fff517" stroke="none" /><path d="M 108.92500713936063 119.00905698771935 l 5.684193842229649 12.10656338857869 a34.3745630477304,34.3745630477304 0 0,0 -0.5377687663185747,0.24686326472449002 l -5.474957080143655 -12.202613723637254" fill="#ffaa0f" stroke="none" /><path d="M 108.2653958097858 119.30500536409082 l 10.832474919156118 25.300783076002205 a48.52221170496779,48.52221170496779 0 0,0 -0.7706448786625293,0.32212962178208754 l -10.395358580996128 -25.483497740804264" fill="#a9ff21" stroke="none" /><path d="M 107.93186726928326 119.44442032107085 l 11.121376949319291 27.263281218669906 a50.444380245763874,50.444380245763874 0 0,0 -0.8068192455562908,0.32105002865840493 l -10.650436627721135 -27.450678091734382" fill="#93ff23" stroke="none" /><path d="M 107.59598834532513 119.57807347666477 l 6.264753149760781 16.146917544267748 a38.31964428644016,38.31964428644016 0 0,0 -0.617000612529467,0.2332968370148961 l -5.985882316471039 -16.252362631389275" fill="#ffdc14" stroke="none" /><path d="M 107.2578585660854 119.70592522655815 l 0.756976896351481 2.055279802149676 a23.19024863582524,23.19024863582524 0 0,0 -0.37577085690020506,0.13473805999770228 l -0.7214864788215412 -2.0680054031873385" fill="#ff1001" stroke="none" /><path d="M 106.91757812671514 119.82793768551818 l 7.447519314600481 21.346914509184316 a43.608766065483785,43.608766065483785 0 0,0 -0.7108857396892885,0.2411710398049418 l -7.078963841973966 -21.471948535887382" fill="#e1ff1b" stroke="none" /><path d="M 106.57524785965236 119.94407469862006 l 8.4296445036211 25.568839875173904 a47.92256449559946,47.92256449559946 0 0,0 -0.7856531449684591,0.25154132691031156 l -7.988270013561701 -25.710154048743924" fill="#afff20" stroke="none" /><path d="M 106.2309692047433 120.05430185196036 l 5.313103310089774 17.100161154717114 a38.906551267650144,38.906551267650144 0 0,0 -0.6412633834265377,0.1932073970626695 l -5.01796495222299 -17.18908392088551" fill="#ffe415" stroke="none" /><path d="M 105.88484417918355 120.15858648285463 l 0.673148225672187 2.30587528060523 a23.402121841920568,23.402121841920568 0 0,0 -0.3876604185248857,0.10955670651039098 l -0.6333566390426955 -2.31712078045414" fill="#ff1302" stroke="none" /><path d="M 105.53697534728816 120.25689768951611 l 7.323022062385083 26.791108753709217 a48.77391150665051,48.77391150665051 0 0,0 -0.8117594387162205,0.21439304573168133 l -6.8607721808573645 -26.913193148744483" fill="#a6ff21" stroke="none" /><path d="M 105.18746579009965 120.34920634021253 l 5.752034244559503 22.56387539786768 a44.28549700824708,44.28549700824708 0 0,0 -0.7402989646790232,0.18194747413377851 l -5.362781995137269 -22.65954413031549" fill="#d9ff1c" stroke="none" /><path d="M 104.83641907484287 120.43548508189849 l 3.6149921224703685 15.27454847206845 a36.69649639477203,36.69649639477203 0 0,0 -0.6159416936683153,0.14018632414492097 l -3.3515302794091912 -15.334511529791055" fill="#ffc812" stroke="none" /><path d="M 104.48393922423573 120.51570834832081 l 0.5139776609320885 2.351641104375617 a23.407153696739407,23.407153696739407 0 0,0 -0.394364325787681,0.08264287880132663 l -0.47342187371502953 -2.360139963903485" fill="#ff1302" stroke="none" /><path d="M 104.13013068566511 120.58985236759428 l 6.02206351841841 30.02166474365273 a51.61969305855543,51.61969305855543 0 0,0 -0.8726982267454937,0.1672546921950592 l -5.5043976771012115 -30.120876634196257" fill="#87ff25" stroke="none" /><path d="M 103.7750983002368 120.6578951692458 l 4.184568586138634 22.898577018656287 a44.27778863490757,44.27778863490757 0 0,0 -0.7509323792031195,0.13055921962951972 l -3.7897872354634647 -22.967214816806813" fill="#d9ff1c" stroke="none" /><path d="M 103.41894727170886 120.7198165907248 l 2.9058823643919856 17.610493768840662 a38.848631406863106,38.848631406863106 0 0,0 -0.6607303755439666,0.10319249605348628 l -2.6023161252395015 -17.657904572241254" fill="#ffe315" stroke="none" /><path d="M 103.06178313531738 120.77559828337769 l 0.35437952788478766 2.404627103161641 a23.430599998980373,23.430599998980373 0 0,0 -0.39951561671298813,0.05536922408182984 l -0.31293531998496904 -2.4103708927360734" fill="#ff1302" stroke="none" /><path d="M 102.70371172650421 120.8252237178851 l 3.5095538310942587 27.032187997718804 a48.25905640401665,48.25905640401665 0 0,0 -0.8247072348961068,0.09986056096428624 l -3.0437191731467714 -27.088594087408442" fill="#acff21" stroke="none" /><path d="M 102.34483914955558 120.86867818915974 l 2.523073718483964 22.454936189779882 a43.596239958807104,43.596239958807104 0 0,0 -0.7464660380832066,0.07737425696281151 l -2.136175083795155 -22.495039815198453" fill="#e1ff1b" stroke="none" /><path d="M 101.98527174616119 120.90594882070398 l 2.140577794689929 22.541402661401488 a43.642811381066565,43.642811381066565 0 0,0 -0.7484860242202495,0.06458252363466199 l -1.7522474527281375 -22.574909437314812" fill="#e1ff1b" stroke="none" /><path d="M 101.62511606390274 120.93702456842531 l 1.764327061163692 22.730535896378168 a43.798905941191364,43.798905941191364 0 0,0 -0.7521674533111695,0.05187387138728298 l -1.3727968470735923 -22.757538112281736" fill="#dfff1b" stroke="none" /><path d="M 101.26447882468166 120.96189622390904 l 0.14525204415181833 2.4079155905102625 a23.41229261229907,23.41229261229907 0 0,0 -0.4024817608969004,0.020803709727874934 l -0.10378221484143833 -2.410059107000339" fill="#ff1302" stroke="none" /><path d="M 100.90346689309514 120.98055641714683 l 1.2589466189499674 29.235604278279286 a50.26269816858158,50.26269816858158 0 0,0 -0.8647090437251548,0.029782327855241302 l -0.7555172235501602 -29.25294340456062" fill="#95ff23" stroke="none" /><line stroke="#e1ed5e" stroke-width="0.3" x1="102.19456741930631" x2="102.32365962044197" y1="184.97166512339345" y2="189.96999836594603" /><path d="M 102.22038585953345 185.97133177190398 a86.0,86.0 0 0,1 -42.740103519485714,-10.115201625700543" fill="none" id="id103" stroke="none" /><text fill="#e1ed5e" style="font-size:6.75px; font-family:Arial;" text-anchor="middle"><textPath startOffset="22.20632615414155" xlink:href="#id103">July</textPath></text><path d="M 100.54218724476979 120.99299961872073 l 0.7257640061911853 28.100925745167185 a49.11029635432687,49.11029635432687 0 0,0 -0.8452590830367087,0.01455190166152388 l -0.2419452332618086 -28.109255124107868" fill="#a2ff22" stroke="none" /><path d="M 100.18074693466247 120.99922214144158 l 0.19542751085689924 22.704814998366285 a43.705656035931625,43.705656035931625 0 0,0 -0.7523488910386937,0.0 l 0.19542751085688362 -22.704814998366285" fill="#e0ff1b" stroke="none" /><path d="M 99.45781275523022 120.99299961872073 l -0.6126249370978758 23.72028334302737 a44.72819317156399,44.72819317156399 0 0,0 -0.7694945666310129,-0.026502948746208867 l 1.0208398554035316 -23.706223595855068" fill="#d4ff1c" stroke="none" /><path d="M 99.09653310690486 120.98055641714683 l -1.190874661150315 27.654818571623956 a48.68044747990912,48.68044747990912 0 0,0 -0.8368677321532236,-0.043256502708456476 l 1.6667304617170273 -27.630222262153296" fill="#a7ff21" stroke="none" /><path d="M 98.73552117531835 120.96189622390904 l -1.2351129681904545 20.475083772581833 a41.512302638622415,41.512302638622415 0 0,0 -0.7128991532048726,-0.049165699503024914 l 1.5873748821742573 -20.450789728562523" fill="#faff18" stroke="none" /><path d="M 98.37488393609728 120.93702456842531 l -1.2200073117758192 15.717845406663773 a36.76512232964172,36.76512232964172 0 0,0 -0.630531795997514,-0.05440493649809641 l 1.490383425514875 -15.694516217887013" fill="#ffc912" stroke="none" /><path d="M 98.01472825383883 120.90594882070398 l -0.20851643644625925 2.1957870286777155 a23.205665382504236,23.205665382504236 0 0,0 -0.3973333736012628,-0.041185228771915404 l 0.24628240665311538 -2.1918724314500393" fill="#ff1001" stroke="none" /><path d="M 97.65516085044442 120.86867818915974 l -3.144553660095557 27.98600423978593 a49.16211375288681,49.16211375288681 0 0,0 -0.8401397357494867,-0.10172922189885547 l 3.6258208188964334 -27.927729489161727" fill="#a2ff22" stroke="none" /><path d="M 97.2962882734958 120.8252237178851 l -2.9910733632602735 23.038614411396846 a44.23196663783391,44.23196663783391 0 0,0 -0.7542001242183941,-0.10452526492948148 l 3.3872020786654984 -22.98371458097476" fill="#daff1c" stroke="none" /><path d="M 96.93821686468263 120.77559828337769 l -2.6680627918232314 18.10402576144606 a39.29957124722364,39.29957124722364 0 0,0 -0.6683998773842944,-0.10439031450967373 l 2.979298532816043 -18.05541713958928" fill="#ffe915" stroke="none" /><path d="M 96.58105272829116 120.7198165907248 l -0.48116175910410197 2.915980448602982 a23.955411750511086,23.955411750511086 0 0,0 -0.4062735492264316,-0.07063586417648753 l 0.5312842798025835 -2.9072660059054884" fill="#ff1b02" stroke="none" /><path d="M 96.22490169976321 120.6578951692458 l -5.263688657449282 28.803681345811547 a50.2806843730404,50.2806843730404 0 0,0 -0.8500605387584871,-0.16291612541419362 l 5.758716810779465 -28.708808022048885" fill="#95ff23" stroke="none" /><path d="M 95.86986931433489 120.58985236759428 l -4.499718674547357 22.432351481322996 a43.87920149681112,43.87920149681112 0 0,0 -0.7392779121539146,-0.15492287435635937 l 4.885188048130659 -22.351572626240095" fill="#deff1b" stroke="none" /><path d="M 95.51606077576429 120.51570834832081 l -3.9438252978556476 18.044483999741786 a39.470440189582476,39.470440189582476 0 0,0 -0.6625016600677134,-0.1507832209111836 l 4.253847107316224 -17.973924045252915" fill="#ffeb16" stroke="none" /><path d="M 95.16358092515715 120.4354850818985 l -0.4994460275197941 2.1103261910623115 a23.168622366178322,23.168622366178322 0 0,0 -0.3872985132700898,-0.09518855163577561 l 0.5356978255330944 -2.101416381112506" fill="#ff1001" stroke="none" /><path d="M 94.81253420990036 120.34920634021253 l -7.2006345799453095 28.246393282713527 a50.14974908700979,50.14974908700979 0 0,0 -0.8346579331674149,-0.22044074623741963 l 7.685782955924214 -28.118261187172525" fill="#97ff23" stroke="none" /><path d="M 94.46302465271185 120.25689768951611 l -5.9864157041967445 21.901164957546477 a43.70458542852336,43.70458542852336 0 0,0 -0.7239744324520254,-0.20460240619608608 l 6.3625213047533835 -21.79487375801187" fill="#e0ff1b" stroke="none" /><path d="M 94.11515582081647 120.15858648285463 l -5.586347228612852 19.136082503185563 a40.93481700260514,40.93481700260514 0 0,0 -0.6746935514909793,-0.20327963246863553 l 5.914915754544078 -19.0370875016112" fill="#fffd17" stroke="none" /><path d="M 93.76903079525671 120.05430185196036 l -6.7069447689320105 21.58622366456238 a43.604162453628255,43.604162453628255 0 0,0 -0.7148563046652979,-0.2288744143357689 l 7.077522418688249 -21.467576403566905" fill="#e1ff1b" stroke="none" /><path d="M 93.42475214034765 119.94407469862007 l -0.6764297786557838 2.0517501882575844 a23.160378689134696,23.160378689134696 0 0,0 -0.37754755342506974,-0.12808462872687942 l 0.7116470650180794 -2.0398025726325817" fill="#ff1001" stroke="none" /><path d="M 93.08242187328487 119.8279376855182 l -9.132527745122236 26.176674513040407 a48.72402120142543,48.72402120142543 0 0,0 -0.7895157782051219,-0.28309226843843555 l 9.581763083957084 -26.015594703562016" fill="#a6ff21" stroke="none" /><path d="M 92.7421414339146 119.70592522655815 l -7.815940011096507 21.221180880217165 a43.61476146697006,43.61476146697006 0 0,0 -0.7022595079247382,-0.26553445593970987 l 8.180069739781528 -21.08349817417082" fill="#e1ff1b" stroke="none" /><path d="M 92.40401165467489 119.57807347666478 l -5.815732832704408 14.98960234574522 a37.07827499655876,37.07827499655876 0 0,0 -0.5930386241937254,-0.23598230748903426 l 6.072892532939991 -14.887273193850119" fill="#ffcd13" stroke="none" /><path d="M 92.06813273071674 119.44442032107085 l -0.8155878617973659 1.9993568544654237 a23.15930808172643,23.15930808172643 0 0,0 -0.3678233439784211,-0.15375018761433704 l 0.8498826652732492 -1.9850216238311134" fill="#ff0f01" stroke="none" /><path d="M 91.7346041902142 119.30500536409082 l -8.899517528040317 20.786086664262367 a43.61112140178197,43.61112140178197 0 0,0 -0.6875590786248204,-0.3014056945703572 l 9.25599728132288 -20.62981641639756" fill="#e1ff1b" stroke="none" /><path d="M 91.40352486487194 119.15986991738527 l -9.353422373091213 20.84695798379916 a43.84911742863892,43.84911742863892 0 0,0 -0.6859923063171678,-0.31490542203229693 l 9.710882675175801 -20.68286549143279" fill="#deff1b" stroke="none" /><path d="M 91.07499286063937 119.00905698771935 l -9.612464333925109 20.473247747910712 a43.61754504623155,43.61754504623155 0 0,0 -0.6768764468331265,-0.3249418281938392 l 9.963453448758477 -20.30475164321731" fill="#e1ff1b" stroke="none" /><path d="M 90.7491055286396 118.85261126421891 l -9.967603728289717 20.313209593622272 a43.62696639142426,43.62696639142426 0 0,0 -0.6713277956687757,-0.3366176932847517 l 10.315785431641254 -20.13862405942822" fill="#e1ff1b" stroke="none" /><path d="M 90.10565033884886 118.52300852407294 l -10.649661626172133 19.93701252085411 a43.603091846219996,43.603091846219996 0 0,0 -0.6589822230469862,-0.35932965029361436 l 10.99126666108776 -19.75074221880073" fill="#e1ff1b" stroke="none" /><line stroke="#e1ed5e" stroke-width="0.3" x1="58.666819895761336" x2="56.23545636021788" y1="174.27360380694188" y2="178.64263932499728" /><path d="M 58.180547188652646 175.14741091055294 a86.0,86.0 0 0,1 -31.652253787137756,-30.449443065178592" fill="none" id="id104" stroke="none" /><text fill="#e1ed5e" style="font-size:6.75px; font-family:Arial;" text-anchor="middle"><textPath startOffset="22.20632615414155" xlink:href="#id104">August</textPath></text><path d="M 89.7882731507175 118.34994917583269 l -11.067483549702185 19.887700056887937 a43.75982877078975,43.75982877078975 0 0,0 -0.6550455301625996,-0.37195194766451917 l 11.408177846785993 -19.694244943428785" fill="#dfff1b" stroke="none" /><path d="M 89.4739219176387 118.17145234162733 l -9.674047664843036 16.70056926396004 a40.30016093098661,40.30016093098661 0 0,0 -0.5972716611642752,-0.3528786251800702 l 9.960087197035692 -16.53157206648622" fill="#fff517" stroke="none" /><path d="M 89.1626897886671 117.98757091392108 l -8.300984289557672 13.777823154644096 a37.08523394471247,37.08523394471247 0 0,0 -0.5439534966832303,-0.3341406653670153 l 8.536916986173212 -13.632894022448703" fill="#ffcd13" stroke="none" /><path d="M 88.8546689885994 117.79835938074946 l -1.2482294957020132 1.993340272391266 a23.351910354473016,23.351910354473016 0 0,0 -0.3388453353322289,-0.21626712492119074 l 1.2823566330811655 -1.9715587186462713" fill="#ff1202" stroke="none" /><path d="M 88.54995079064634 117.60387380957326 l -12.327680515169599 18.95318772748145 a43.609622551410396,43.609622551410396 0 0,0 -0.6257467930066807,-0.41471085347511066 l 12.652102006916241 -18.73817885291502" fill="#e1ff1b" stroke="none" /><path d="M 88.24862548938628 117.40417183066458 l -12.644553341751237 18.726999031737062 a43.59613289806628,43.59613289806628 0 0,0 -0.618324192416884,-0.4252890177253335 l 12.965034418791012 -18.50656922464663" fill="#e1ff1b" stroke="none" /><path d="M 87.95078237400918 117.19931262002967 l -12.970194411452672 18.51393470924984 a43.605126000295684,43.605126000295684 0 0,0 -0.6110379498853804,-0.43595935317942414 l 13.28695968918694 -18.287931094226195" fill="#e1ff1b" stroke="none" /><path d="M 87.65650970185807 116.9893568818739 l -1.2688948019719604 1.7464838644140568 a23.1587727780223,23.1587727780223 0 0,0 -0.3204898779026047,-0.2370907498414814 l 1.2987696502931294 -1.7243831658328088" fill="#ff0f01" stroke="none" /><path d="M 87.36589467227662 116.77436683061367 l -16.31094685538487 21.656128297940445 a48.11152670315795,48.11152670315795 0 0,0 -0.6572292780692612,-0.5039353847293734 l 16.681304861947616 -21.372153571383706" fill="#adff20" stroke="none" /><path d="M 87.07902340077011 116.55440617244103 l -13.908058925611824 17.81905994153296 a43.60426951436908,43.60426951436908 0 0,0 -0.5877077034083377,-0.4669105437315037 l 14.21272412173752 -17.577015483796323" fill="#e1ff1b" stroke="none" /><path d="M 86.79598089348748 116.32954008644616 l -11.654184711317649 14.412844671244496 a39.53510487704159,39.53510487704159 0 0,0 -0.5254966067762318,-0.4324479317499873 l 11.90055144663857 -14.210101620637328" fill="#ffeb16" stroke="none" /><path d="M 86.51685102203217 116.09983520530335 l -1.4866151792409747 1.7751238556061353 a23.315402641851232,23.315402641851232 0 0,0 -0.30547010448951306,-0.26032825007835597 l 1.5169507603075445 -1.7492712153048278" fill="#ff1202" stroke="none" /><path d="M 86.24171649860922 115.8653595955263 l -14.807647475807373 17.075433279429305 a43.601700056589245,43.601700056589245 0 0,0 -0.5627892488862754,-0.496596077758192 l 15.099379077600236 -16.81801405989882" fill="#e1ff1b" stroke="none" /><path d="M 85.97065885151581 115.62618273729859 l -15.103384388684672 16.822475261765874 a43.607695458075526,43.607695458075526 0 0,0 -0.5542339792605978,-0.5062795992937396 l 15.390717917412125 -16.56000289588556" fill="#e1ff1b" stroke="none" /><path d="M 85.70375840098266 115.38237550388516 l -15.421985198694562 16.59364565844947 a43.653624515890016,43.653624515890016 0 0,0 -0.5460115647277537,-0.5162880147736079 l 15.705332597813134 -16.325723006929934" fill="#e1ff1b" stroke="none" /><path d="M 85.44109423537348 115.13401014063109 l -10.505180859900388 10.92015541780482 a36.15284195285589,36.15284195285589 0 0,0 -0.4447661162033668,-0.43529725556362936 l 10.69159692847955 -10.73770805931862" fill="#ffc111" stroke="none" /><path d="M 85.18274418774928 114.88116024355367 l -1.52432779467827 1.530901974274848 a23.160378689134696,23.160378689134696 0 0,0 -0.28008549025570456,-0.2837251228946444 l 1.5504539099895078 -1.5044363573995387" fill="#ff1001" stroke="none" /><path d="M 84.9287848128048 114.62390073753433 l -16.223253896170494 15.741746877782248 a43.605233061036515,43.605233061036515 0 0,0 -0.5180580940153475,-0.5431818404061255 l 16.4918185415648 -15.460157920793621" fill="#e1ff1b" stroke="none" /><path d="M 84.67929136418377 114.36230785411682 l -16.486663481398544 15.455325340077273 a43.598167052141974,43.598167052141974 0 0,0 -0.508548934486878,-0.5519294287511107 l 16.75025882388115 -15.16924465652482" fill="#e1ff1b" stroke="none" /><path d="M 84.43433777217949 114.09645910891817 l -11.47809902758693 10.394710563698759 a36.485372613862495,36.485372613862495 0 0,0 -0.4175684011916536,-0.4691425253510551 l 11.655326278426923 -10.195593868606839" fill="#ffc512" stroke="none" /><path d="M 84.19399662182784 113.82643327865904 l -11.829300804564905 10.347779536310481 a36.716516753306564,36.716516753306564 0 0,0 -0.4120248664469849,-0.4792780038619365 l 12.005668180582669 -10.142624433287015" fill="#ffc812" stroke="none" /><path d="M 83.95833913139862 113.55231037782056 l -1.6628831819876515 1.4048363937467623 a23.17686604322195,23.17686604322195 0 0,0 -0.25483957520531497,-0.3069706850145005 l 1.6868187570865028 -1.3760044516185006" fill="#ff1001" stroke="none" /><path d="M 83.72743513129214 113.27417163493432 l -17.514360358891732 14.287153092079201 a43.602556542515856,43.602556542515856 0 0,0 -0.4694170010894271,-0.5856698850225656 l 17.757695272036017 -13.983555373478376" fill="#e1ff1b" stroke="none" /><path d="M 83.50135304334701 112.99209946851258 l -18.079172312613707 14.236707143984269 a44.01174269395412,44.01174269395412 0 0,0 -0.46357606886929215,-0.5992345596965123 l 18.321555198701066 -13.923394590174505" fill="#dcff1b" stroke="none" /><path d="M 83.28015986056508 112.70617746262583 l -11.971095380153523 9.097387358596581 a36.035610441651045,36.035610441651045 0 0,0 -0.37106165503676136,-0.4970977249507717 l 12.12591830188537 -8.889976754136502" fill="#ffbf11" stroke="none" /><path d="M 83.06392112726016 112.41649034213515 l -12.974318139782874 9.511971282662174 a37.08758928101065,37.08758928101065 0 0,0 -0.37303087182015543,-0.518107254756148 l 13.136128803978638 -9.287230422454886" fill="#ffcd13" stroke="none" /><path d="M 82.85270091963577 112.12312394758628 l -1.7700633278516722 1.2514330693161893 a23.16776588025171,23.16776588025171 0 0,0 -0.2274182019826264,-0.3276128816069687 l 1.7913424369964326 -1.220778925522208" fill="#ff1001" stroke="none" /><path d="M 82.6465618267979 111.8261652097733 l -26.565534025779236 18.10410082077401 a53.14787807311059,53.14787807311059 0 0,0 -0.5086932593668745,-0.7604274023456952 l 26.87323039055684 -17.644136504222494" fill="#76ff27" stroke="none" /><path d="M 82.44556493220864 111.52570212397912 l -18.91257833771755 12.417417221070286 a43.624718115866905,43.624718115866905 0 0,0 -0.4067384592206682,-0.6312671211870212 l 19.123521660315266 -12.090028499961816" fill="#e1ff1b" stroke="none" /><path d="M 82.24976979558568 111.22182372390057 l -14.500053801798911 9.167038730032658 a38.154770745567596,38.154770745567596 0 0,0 -0.34618252344729794,-0.5581564547121742 l 14.655700964914164 -8.91608594395522" fill="#ffda14" stroke="none" /><path d="M 82.05923443525364 110.91462005526583 l -17.115726509756904 10.412691205938444 a41.03427643083281,41.03427643083281 0 0,0 -0.3619206069940732,-0.6065997549564877 l 17.29242799244921 -10.116529357095844" fill="#fffe18" stroke="none" /><line stroke="#e1ed5e" stroke-width="0.3" x1="26.63291911575756" x2="22.317208475507996" y1="142.92168965132927" y2="145.44649492493687" /><path d="M 25.769776987707644 143.4266507060508 a86.0,86.0 0 0,1 -11.730757126820373,-40.83630448921669" fill="none" id="id105" stroke="none" /><text fill="#e1ed5e" style="font-size:6.75px; font-family:Arial;" text-anchor="middle"><textPath startOffset="21.46611528233685" xlink:href="#id105">September</textPath></text><path d="M 81.87401531095188 110.60418214915194 l -1.8963176125316652 1.1093961360389248 a23.196993462497304,23.196993462497304 0 0,0 -0.19866347473792836,-0.3463865135997024 l 1.9151330834219706 -1.0765897765809154" fill="#ff1001" stroke="none" /><path d="M 81.69416730710424 110.29060199501025 l -19.72836255074413 11.090275456399262 a43.63189118550227,43.63189118550227 0 0,0 -0.36240148204743006,-0.6578639565422952 l 19.916340442243076 -10.749040981459144" fill="#e1ff1b" stroke="none" /><path d="M 81.51974371655577 109.97397251340807 l -19.90804954349564 10.74456630345955 a43.622469840309556,43.622469840309556 0 0,0 -0.35094794593123113,-0.6638612555152974 l 20.090049997651757 -10.400290032858127" fill="#e1ff1b" stroke="none" /><path d="M 81.35079622478065 109.6543875284942 l -16.213798425733152 8.39361804383929 a39.25760343681972,39.25760343681972 0 0,0 -0.30550141784039553,-0.6027832803261295 l 16.355878513359812 -8.113280551810476" fill="#ffe815" stroke="none" /><path d="M 81.18737489456691 109.33194174019688 l -14.420430491548444 7.1532078304598095 a37.097117686944195,37.097117686944195 0 0,0 -0.27884091504117386,-0.5744948749357058 l 14.541424663204337 -6.903923999558819" fill="#ffcd13" stroke="none" /><path d="M 81.02952815118164 109.00673069616217 l -1.4778857389406763 0.7016651434089872 a22.635995180567285,22.635995180567285 0 0,0 -0.16408443045589008,-0.3534232655657712 l 1.489744786236393 -0.6761218105643889" fill="#ff0801" stroke="none" /><path d="M 80.87730276802145 108.67885076344099 l -20.636977003133207 9.366107795674472 a43.66293880034191,43.66293880034191 0 0,0 -0.30472347371536296,-0.6870709885805047 l 20.79514156157985 -9.009488470601271" fill="#e1ff1b" stroke="none" /><path d="M 80.73074385275274 108.34839909993369 l -20.975603266339427 9.08767344681804 a43.85960938123989,43.85960938123989 0 0,0 -0.29417061650649257,-0.6953324408260134 l 21.128924864038225 -8.725266480325867" fill="#deff1b" stroke="none" /><path d="M 80.58989483394504 108.01547362559985 l -20.915775256708056 8.637245573625691 a43.62900054549996,43.62900054549996 0 0,0 -0.2806744722028594,-0.6966110220615584 l 21.061352343168306 -8.275935183721328" fill="#e1ff1b" stroke="none" /><path d="M 80.45479744820244 107.68017299344265 l -14.966428188978057 5.880970395710567 a37.08041621137529,37.08041621137529 0 0,0 -0.22831952053259075,-0.5960702211894295 l 15.065441989104157 -5.62247660768798" fill="#ffcd13" stroke="none" /><path d="M 80.32549172779594 107.34259656027581 l -2.1457865929394027 0.8008151989578425 a23.29035042849787,23.29035042849787 0 0,0 -0.1369425347907649,-0.37680704126579406 l 2.159253388735392 -0.7637603606859312" fill="#ff1101" stroke="none" /><path d="M 80.20201598880116 107.00284435728193 l -21.229075211486286 7.509042813196428 a43.51797855726305,43.51797855726305 0 0,0 -0.24371968081667186,-0.708363475107008 l 21.355185723246187 -7.142506635000124" fill="#e2ff1b" stroke="none" /><path d="M 80.0844068197444 106.66101706037122 l -21.438848332947913 7.1704886320962915 a43.60619660770395,43.60619660770395 0 0,0 -0.23195952689473684,-0.7138980172148951 l 21.5591001108589 -6.800391714903593" fill="#e1ff1b" stroke="none" /><path d="M 79.97269907076064 106.31721596034903 l -21.96219799361534 6.927540969190482 a44.028872412486336,44.028872412486336 0 0,0 -0.22176552085640372,-0.724742553425894 l 22.078190286977875 -6.54847144321254" fill="#dcff1b" stroke="none" /><path d="M 79.86692584326677 105.97154293290107 l -15.54765413415215 4.611490696612583 a37.21713277741053,37.21713277741053 0 0,0 -0.17688304215109954,-0.6157530746030553 l 15.624729813189354 -4.343180146504931" fill="#ffce13" stroke="none" /><path d="M 79.76711848015287 105.62410040840567 l -2.136336971935914 0.5938340332083206 a23.217335003254306,23.217335003254306 0 0,0 -0.10371727899393954,-0.38597057891128606 l 2.1462423272716284 -0.5569725211214956" fill="#ff1001" stroke="none" /><path d="M 79.67330655649465 105.27499134158121 l -22.191861722895666 5.759022182687809 a43.926950587219665,43.926950587219665 0 0,0 -0.1836328218608534,-0.7335218414811584 l 22.287705859051577 -5.3761725018092585" fill="#ddff1b" stroke="none" /><path d="M 79.58551787078972 104.9243191809786 l -22.033865240649313 5.314941841232218 a43.665829440344226,43.665829440344226 0 0,0 -0.16996286602984,-0.7321955785150747 l 22.12208867260971 -4.93487760536857" fill="#e1ff1b" stroke="none" /><path d="M 79.50377843672027 104.57218783832718 l -22.065558277390387 4.922267106173895 a43.60790957955717,43.60790957955717 0 0,0 -0.15712544750261248,-0.7340377809772832 l 22.14701776361744 -4.541715505780448" fill="#e1ff1b" stroke="none" /><path d="M 79.4281124754447 104.21870165774334 l -14.704653237849834 3.015500882795105 a36.01066528903851,36.01066528903851 0 0,0 -0.11929830465472624,-0.6082994852588995 l 14.754381475480228 -2.7619376704682503" fill="#ffbf11" stroke="none" /><path d="M 79.35854240842038 103.8639653848113 l -2.1780041895056175 0.4077101996739203 a23.215836152882737,23.215836152882737 0 0,0 -0.07014892371289962,-0.3934324177552824 l 2.184699555557706 -0.3701590311854242" fill="#ff1001" stroke="none" /><path d="M 79.29508885075956 103.50808413554451 l -27.138429290927707 4.598130973510238 a48.525209405710925,48.525209405710925 0 0,0 -0.13244666058982585,-0.8247454819230693 l 27.213557705878824 -4.130306261893955" fill="#a9ff21" stroke="none" /><path d="M 79.23777060512086 103.15116336523772 l -33.411202312799176 5.070946607622312 a54.79382990257472,54.79382990257472 0 0,0 -0.13350372882858522,-0.9337247684843852 l 33.49354009264436 -4.495076367157527" fill="#65ff29" stroke="none" /><path d="M 79.18660465613746 102.79330883721812 l -22.461557376441817 3.0145041537299315 a43.66293880034191,43.66293880034191 0 0,0 -0.09356030227917246,-0.7457676639675275 l 22.510119187967838 -2.6274187354749956" fill="#e1ff1b" stroke="none" /><path d="M 79.1416061653843 102.43462659150553 l -16.184023136361393 1.8890262307702836 a37.293895328583005,37.293895328583005 0 0,0 -0.06893634212934593,-0.6382649120160322 l 16.21414177999179 -1.6101649968694693" fill="#ffcf13" stroke="none" /><path d="M 79.10278846688536 102.07522291339032 l -2.1496977708348908 0.2134783420185696 a23.16027162839387,23.16027162839387 0 0,0 -0.03598158153375942,-0.39705375392820946 l 2.1530539486457254 -0.176443199541794" fill="#ff1001" stroke="none" /><path d="M 79.07016306316243 101.71520430193888 l -22.624779165482025 1.8541051548639251 a43.70062418111279,43.70062418111279 0 0,0 -0.05498670854197914,-0.7502499509119244 l 22.65334243268834 -1.4643820674552401" fill="#e0ff1b" stroke="none" /><path d="M 79.04373962182676 101.35467743843564 l -31.42952944961094 2.0317019199848256 a52.4951287362924,52.4951287362924 0 0,0 -0.050529433923298554,-0.9022369864542983 l 31.45984523442177 -1.49039321719509" fill="#7dff26" stroke="none" /><path d="M 79.0235259727143 100.99374915477108 l -28.537153106279995 1.3519322523914261 a49.569158689508555,49.569158689508555 0 0,0 -0.03304107133397539,-0.8526432364297306 l 28.55619631046517 -0.8605117689476987" fill="#9dff22" stroke="none" /><path d="M 79.0095281055655 100.63252640178507 l -15.057574767282158 0.4537446149404599 a36.06440978093333,36.06440978093333 0 0,0 -0.013357462789443022,-0.6206688086832093 l 15.063154292756609 -0.19448599046712178" fill="#ffc011" stroke="none" /><line stroke="#e1ed5e" stroke-width="0.3" x1="15.007084014347285" x2="10.007500721073583" y1="101.09737516637583" y2="101.16192664675087" /><path d="M 14.007167355692545 101.11028546245083 a86.0,86.0 0 0,1 10.666146001902534,-42.60595125391555" fill="none" id="id106" stroke="none" /><text fill="#e1ed5e" style="font-size:6.75px; font-family:Arial;" text-anchor="middle"><textPath startOffset="22.20632615414155" xlink:href="#id106">October</textPath></text><path d="M 79.00175016825051 100.2711162175752 l -2.177969242096335 0.028120571363975246 a23.178150772111866,23.178150772111866 0 0,0 -0.0017170624752610598,-0.3989848484230763 l 2.178130601861099 0.009373755262776465" fill="#ff1001" stroke="none" /><path d="M 79.00019446554 99.90962569577889 l -32.15839340996968 -0.13839615917042364 a53.15869120793405,53.15869120793405 0 0,0 0.011813868261856434,-0.9149971162203681 l 32.15124653459011 0.6919295334512637" fill="#76ff27" stroke="none" /><path d="M 79.00486145842228 99.54816195383935 l -22.690338341605205 -0.48832057586529803 a43.69559232629395,43.69559232629395 0 0,0 0.022655760009059972,-0.7518343777827303 l 22.678570887140502 0.8788251010730228" fill="#e0ff1b" stroke="none" /><path d="M 79.01574976396665 99.18683210126434 l -18.727782998853904 -0.7257267606828746 a39.74183916757725,39.74183916757725 0 0,0 0.03237330811056467,-0.6833493678946105 l 18.71251608250984 1.0479872352004942" fill="#ffee16" stroke="none" /><path d="M 79.03285615573316 98.82574320788736 l -16.059212182087933 -0.8993899751372774 a37.084377458785866,37.084377458785866 0 0,0 0.041180274538483254,-0.6370406202893776 l 16.041351316545036 1.1756896596796667" fill="#ffcd13" stroke="none" /><path d="M 79.05617556472873 98.46500227214037 l -2.156628330703536 -0.15806184766773537 a23.162412843210394,23.162412843210394 0 0,0 0.03256581881817605,-0.3973854757760246 l 2.153588028065863 0.1951612406515384" fill="#ff1001" stroke="none" /><path d="M 79.08570108090925 98.10471618934814 l -22.69626737390751 -2.056768351758017 a43.78927047451699,43.78927047451699 0 0,0 0.07448945741086024,-0.7500986705850373 l 22.65750079081442 2.4471425530474846" fill="#dfff1b" stroke="none" /><path d="M 79.12142395522702 97.74499172005258 l -22.503373201026154 -2.430495872239581 a43.63424652180045,43.63424652180045 0 0,0 0.0870807556515731,-0.7460547351013844 l 22.458202092370993 2.817494345665827" fill="#e1ff1b" stroke="none" /><path d="M 79.16333360222342 97.38593545837743 l -22.44131183324706 -2.8153753777545587 a43.61722386400906,43.61722386400906 0 0,0 0.09987098254150872,-0.7441548228825747 l 22.389524851647714 3.201248542701793" fill="#e1ff1b" stroke="none" /><path d="M 79.21141760316559 97.0276538004421 l -18.12328894176479 -2.5912632223420493 a39.307600802785615,39.307600802785615 0 0,0 0.10153360412341297,-0.6689795912691854 l 18.075999444202075 2.902841926003327" fill="#ffe915" stroke="none" /><path d="M 79.26566170972629 96.67025291283419 l -2.1699402146792464 -0.3484727608858162 a23.197742887683088,23.197742887683088 0 0,0 0.06670802428188893,-0.3937145354364608 l 2.1636203288771343 0.38577308463810495" fill="#ff1001" stroke="none" /><path d="M 79.32604984820605 96.31383870115002 l -34.24955751800521 -6.106689456956646 a55.78970891374133,55.78970891374133 0 0,0 0.17670533817509737,-0.943966982334953 l 34.13936645592025 6.695334516754172" fill="#5bff2a" stroke="none" /><path d="M 79.3925641242962 95.95851677861259 l -22.198000136854834 -4.353421048720857 a43.62086392919716,43.62086392919716 0 0,0 0.15084656434926255,-0.7355814198339261 l 22.119774276590576 4.734878124718185" fill="#e1ff1b" stroke="none" /><path d="M 79.46518482838121 95.60439243477599 l -15.73132718642831 -3.3673904641347336 a37.08769634175148,37.08769634175148 0 0,0 0.1390004702504685,-0.6231118528796209 l 15.671032329175803 3.6376804865643138" fill="#ffcd13" stroke="none" /><path d="M 79.54389044137918 95.25157060432595 l -15.69397567077721 -3.6430062713809677 a37.111249704733275,37.111249704733275 0 0,0 0.1498007960139002,-0.6210210103723391 l 15.628942074502495 3.9126125134127037" fill="#ffcd13" stroke="none" /><path d="M 79.62865764111835 94.90015583598534 l -2.1265505852167492 -0.5323692666119896 a23.192175729160116,23.192175729160116 0 0,0 0.10028260133886513,-0.3864297708062862 l 2.117071652007577 0.5688954629671397" fill="#ff1001" stroke="none" /><path d="M 79.71946130924805 94.55025226153421 l -21.880508319794078 -5.879688530495261 a43.656729277373984,43.656729277373984 0 0,0 0.20126423561203252,-0.7240545398575559 l 21.776057313615684 6.25545437377176" fill="#e1ff1b" stroke="none" /><path d="M 79.81627453868168 94.20196356495316 l -22.271105685669102 -6.397663427485715 a44.1717985014895,44.1717985014895 0 0,0 0.21621906666300286,-0.7289832045318817 l 22.157680721894394 6.780076018764135" fill="#dbff1b" stroke="none" /><path d="M 79.91906864156998 93.8553929516997 l -20.091032379045323 -6.147697881158601 a42.0105633264282,42.0105633264282 0 0,0 0.2175437326456034,-0.6896730816723189 l 19.982233162631516 6.492621129257335" fill="#f4ff19" stroke="none" /><path d="M 80.02781315780177 93.51064311812611 l -12.247313114975395 -3.9793932569870925 a33.87758708881453,33.87758708881453 0 0,0 0.18497599124218747,-0.5530546696255755 l 12.176999829961435 4.18962102953499" fill="#ffa30f" stroke="none" /><path d="M 80.14247586403 93.16781622104843 l -2.1790090398484403 -0.7497102918925461 a23.30437538554612,23.30437538554612 0 0,0 0.13377479316091864,-0.3781993545733037 l 2.165781165877712 0.787107272892461" fill="#ff1202" stroke="none" /><path d="M 80.2630227832202 92.82701384747504 l -14.468794692725316 -5.258376844373654 a36.39469216638258,36.39469216638258 0 0,0 0.21905343298697702,-0.586954293890155 l 14.376136671236711 5.50665427529315" fill="#ffc412" stroke="none" /><path d="M 80.38941819471856 92.48833698450439 l -15.034087318923046 -5.7586765556783135 a37.09925890176072,37.09925890176072 0 0,0 0.23356006292485026,-0.594384884529862 l 14.932733706116505 6.0166104451039395" fill="#ffcd13" stroke="none" /><path d="M 80.52162464483688 92.15188598940014 l -14.915852145151986 -6.0098086244843705 a37.081058575820244,37.081058575820244 0 0,0 0.24363723384598543,-0.5899868868900888 l 14.8101932244198 6.26567008182777" fill="#ffcd13" stroke="none" /><path d="M 80.65960295795068 91.81776055985345 l -14.385030592125947 -6.085798776659225 a36.61941266137707,36.61941266137707 0 0,0 0.25059760950211657,-0.5784138335483376 l 14.27814227278115 6.3325117547941625" fill="#ffc712" stroke="none" /><path d="M 80.803312248108 91.48605970444005 l -1.987878965027319 -0.8816459923600104 a23.174617767664596,23.174617767664596 0 0,0 0.16486829522614452,-0.3632654344101277 l 1.9724083528378227 0.915733435612209" fill="#ff1001" stroke="none" /><path d="M 80.95270993114464 91.15688171328213 l -29.796553064357408 -13.83369719955197 a53.85126714033964,53.85126714033964 0 0,0 0.39758084387374254,-0.837406652954557 l 29.554014026641912 14.34454626814706" fill="#6fff27" stroke="none" /><path d="M 81.10775173730289 90.83032412892265 l -21.52768753527593 -10.44883140468166 a44.9294673643175,44.9294673643175 0 0,0 0.3436890026387632,-0.6928560571325266 l 21.344638519683755 10.81784705031315" fill="#d2ff1c" stroke="none" /><path d="M 81.26839172434947 90.50648371742162 l -14.457644739623744 -7.327394622156917 a37.20846085740359,37.20846085740359 0 0,0 0.2944616762443625,-0.5688062332350065 l 14.329373630219267 7.575173577652259" fill="#ffce13" stroke="none" /><path d="M 81.43458229118936 90.18545643968196 l -21.858979366239833 -11.555673485991177 a45.72546397236133,45.72546397236133 0 0,0 0.3738424677872383,-0.6926733159787635 l 21.656828799234123 11.930227785302412" fill="#c8ff1d" stroke="none" /><path d="M 81.6062741919709 89.86733742301443 l -14.102238840785041 -7.768585290716911 a37.10043656990982,37.10043656990982 0 0,0 0.3129551830035423,-0.5567123500855782 l 13.966426016489068 8.010181150737273" fill="#ffcd13" stroke="none" /><line stroke="#e1ed5e" stroke-width="0.3" x1="26.266209847984243" x2="21.928928074336255" y1="57.711370442889674" y2="55.22380399835377" /><path d="M 25.398753493254645 57.213857153982495 a86.0,86.0 0 0,1 29.58750427330803,-30.492523968695096" fill="none" id="id107" stroke="none" /><text fill="#e1ed5e" style="font-size:6.75px; font-family:Arial;" text-anchor="middle"><textPath startOffset="21.46611528233685" xlink:href="#id107">November</textPath></text><path d="M 81.78341655067845 89.55222093294921 l -1.997366273034926 -1.145551886538019 a23.302555352952073,23.302555352952073 0 0,0 0.20255504951434014,-0.34623223880400333 l 1.977351549050261 1.1797635376959141" fill="#ff1202" stroke="none" /><path d="M 81.96595687620814 89.24020034530311 l -24.44470627269429 -14.584646399403752 a49.46498858868453,49.46498858868453 0 0,0 0.4425566616079229,-0.7274467892442902 l 24.190033812800152 15.003260961855117" fill="#9eff22" stroke="none" /><path d="M 82.15384107792192 88.93136811851018 l -20.333304824115167 -12.611221664837933 a44.92668378505602,44.92668378505602 0 0,0 0.41326645235508586,-0.6536882814725467 l 20.113210775514116 12.959357594024695" fill="#d2ff1c" stroke="none" /><path d="M 82.34701348167596 88.62581576622439 l -14.38344717747986 -9.267552430497615 a38.11055465960632,38.11055465960632 0 0,0 0.36006010823056117,-0.5483962471392754 l 14.221790433891378 9.513766741614559" fill="#ffda14" stroke="none" /><path d="M 82.54541684631803 88.32363383020206 l -13.382120962831886 -8.952063943021914 a37.100329509168986,37.100329509168986 0 0,0 0.35965330493785125,-0.5277468461094231 l 13.226043192225294 9.181088812401752" fill="#ffcd13" stroke="none" /><path d="M 82.7489923806493 88.02491185347247 l -1.7960717762517857 -1.2467745834150246 a23.186394449155493,23.186394449155493 0 0,0 0.23041466256134094,-0.3259051997259464 l 1.7743444938865667 1.277506283472757" fill="#ff1001" stroke="none" /><path d="M 82.95767976084542 87.72973835380427 l -18.34390007534839 -13.207383171867926 a43.60384127140577,43.60384127140577 0 0,0 0.4437986246533562,-0.6053408252762573 l 18.1138388381814 13.521186440815685" fill="#e1ff1b" stroke="none" /><path d="M 83.17141714833178 87.43820079747576 l -18.907607810671728 -14.113700173760762 a44.59436724553106,44.59436724553106 0 0,0 0.4644695736704561,-0.6111875144388729 l 18.661862296777162 14.43707246408066" fill="#d6ff1c" stroke="none" /><path d="M 83.39014120810768 87.1503855733568 l -14.588368035484478 -11.285761469654592 a39.444210308080024,39.444210308080024 0 0,0 0.42007317521882487,-0.5334502734290631 l 14.391940779671682 11.535204137036702" fill="#ffea16" stroke="none" /><path d="M 83.6137871275137 86.86637796730984 l -11.95794696411477 -9.584347337348403 a36.324888563363814,36.324888563363814 0 0,0 0.39525199104217307,-0.4845322058962158 l 11.791196480996204 9.7887637128527" fill="#ffc312" stroke="none" /><path d="M 83.84228863543731 86.58626213691792 l -1.6713709225762725 -1.3875313725795444 a23.172262431366416,23.172262431366416 0 0,0 0.25742108984423,-0.3047053755841571 l 1.6472392192449183 1.4160956977928174" fill="#ff1001" stroke="none" /><path d="M 84.07557802195018 86.31012108654704 l -17.24762567222099 -14.827408324316732 a43.74494732781489,43.74494732781489 0 0,0 0.4957930186370769,-0.5667771267914317 l 16.98984079000607 15.122101007311107" fill="#e0ff1b" stroke="none" /><path d="M 84.31358615837235 86.03803664274999 l -18.075692256695497 -16.088581844958117 a45.19861806675492,45.19861806675492 0 0,0 0.5222729575840287,-0.5767068442978509 l 17.796075658495422 16.397341476525522" fill="#cfff1d" stroke="none" /><path d="M 84.5562425177563 85.77008943001954 l -16.648838300038527 -15.34027456569428 a43.63863601217433,43.63863601217433 0 0,0 0.5137569927069697,-0.5480401391493932 l 16.3823139853611 15.624584121721723" fill="#e1ff1b" stroke="none" /><path d="M 84.80347519578584 85.50635884689758 l -11.650675042309386 -11.111797297748735 a37.10000832694651,37.10000832694651 0 0,0 0.4447332339430628,-0.4583366907332609 l 11.457677544663204 11.31069818403212" fill="#ffcd13" stroke="none" /><path d="M 85.05521093208273 85.24692304244772 l -1.5504763737275495 -1.530586825850526 a23.178686075816,23.178686075816 0 0,0 0.28274045579925927,-0.2815262784274363 l 1.523900117760977 1.5570489549280715" fill="#ff1001" stroke="none" /><path d="M 85.31137513191541 84.99185889309783 l -15.815462263925438 -16.159490180977823 a43.61101434104114,43.61101434104114 0 0,0 0.541019047566664,-0.5204598951102956 l 15.534959972746346 16.42933316285043" fill="#e1ff1b" stroke="none" /><path d="M 85.57189188830299 84.74124197986013 l -15.531135041077562 -16.425288023576055 a43.60544718251816,43.60544718251816 0 0,0 0.5498275541681245,-0.5110047892277096 l 15.24609960311458 16.69019739887841" fill="#e1ff1b" stroke="none" /><path d="M 85.83668400450813 84.49514656593479 l -15.291156417604768 -16.739521957131476 a43.67225308479381,43.67225308479381 0 0,0 0.5593979155589276,-0.5022329718693632 l 15.000747514449868 17.00025393777012" fill="#e0ff1b" stroke="none" /><path d="M 86.10567301691215 84.25364557470407 l -13.08005398442055 -14.823543896108708 a40.769301097287624,40.769301097287624 0 0,0 0.5302070930717215,-0.4597903663643399 l 12.822953092702056 15.046499255892728" fill="#fffb17" stroke="none" /><path d="M 86.37877921826538 84.01681056812374 l -1.479825243862775 -1.7364322609356582 a23.281464387009283,23.281464387009283 0 0,0 0.30725154206735755,-0.25731433040009666 l 1.4497161648363073 1.7616477487295672" fill="#ff1101" stroke="none" /><path d="M 86.65592168130627 83.78471172551755 l -14.386409047877223 -17.481894543375837 a43.640348984027554,43.640348984027554 0 0,0 0.5841501802318715,-0.4723421541587997 l 14.08335546908085 17.72694279479877" fill="#e1ff1b" stroke="none" /><path d="M 86.93701828274178 83.55741782278169 l -14.061578320151494 -17.699531552204487 a43.605340121777346,43.605340121777346 0 0,0 0.5917191598050985,-0.4618461899216663 l 13.75482660518697 17.938956131349375" fill="#e1ff1b" stroke="none" /><path d="M 87.22198572758235 83.33499621200491 l -11.105681331907787 -14.483957954563502 a39.25160803533345,39.25160803533345 0 0,0 0.5397167995890771,-0.40650350394779666 l 10.854718378560321 14.672978048017153" fill="#ffe815" stroke="none" /><path d="M 87.51073957382395 83.11751280151077 l -12.012527838938079 -16.238058983646425 a41.198400546519586,41.198400546519586 0 0,0 0.573745961836313,-0.4168508415454234 l 11.731236560747984 16.442429060008514" fill="#feff18" stroke="none" /><path d="M 87.80319425747018 82.90503203632743 l -1.2836626554230635 -1.7991736880830678 a23.21016193361894,23.21016193361894 0 0,0 0.32722886636977466,-0.22924473271123463 l 1.2525026494696285 1.821003263558245" fill="#ff1001" stroke="none" /><path d="M 88.09926311788651 82.69761687909137 l -13.449720976413323 -19.554438309865105 a44.73333208712364,44.73333208712364 0 0,0 0.6381855379455028,-0.4309057240196662 l 13.111130744061281 19.783055946183435" fill="#d4ff1c" stroke="none" /><path d="M 88.39885842347998 82.49532879139004 l -14.214937714782348 -21.448562566613802 a46.73140669316562,46.73140669316562 0 0,0 0.6743408171197165,-0.4386100254648214 l 13.843629871878345 21.690071516238156" fill="#bdff1f" stroke="none" /><path d="M 88.70189139769569 82.29822771554957 l -15.062314427470335 -23.599495230333645 a48.99659784756929,48.99659784756929 0 0,0 0.7148390085435548,-0.4476321215705193 l 14.653856266554538 23.855271693227092" fill="#a3ff21" stroke="none" /><path d="M 89.00827224532344 82.1063720568725 l -11.839664934532724 -19.273999869555137 a43.62000744327055,43.62000744327055 0 0,0 0.6431623322050027,-0.38749810876106605 l 11.506140536110072 19.47494458777482" fill="#e1ff1b" stroke="none" /><line stroke="#e1ed5e" stroke-width="0.3" x1="56.762969772571076" x2="54.21961505331055" y1="26.818313649435495" y2="22.513508569990535" /><path d="M 56.25429882871897 25.957352633546506 a86.0,86.0 0 0,1 42.265352541879196,-11.944610805530505" fill="none" id="id108" stroke="none" /><text fill="#e1ed5e" style="font-size:6.75px; font-family:Arial;" text-anchor="middle"><textPath startOffset="22.20632615414155" xlink:href="#id108">December</textPath></text><path d="M 89.3179101791058 81.91981866633112 l -1.1500041163044474 -1.946462097386624 a23.2608016640298,23.2608016640298 0 0,0 0.34647879838022094,-0.2007028836808034 l 1.1163285854589062 1.9659691384574747" fill="#ff1101" stroke="none" /><path d="M 89.63071344664047 81.73862282372117 l -13.415555560677845 -23.626169347542067 a48.16933950320417,48.16933950320417 0 0,0 0.7245492378272627,-0.4032108663980591 l 13.006882233778537 23.85359561150031" fill="#adff20" stroke="none" /><path d="M 89.94658935756843 81.56283822128135 l -13.006369697782722 -23.852655660929468 a48.168268895795904,48.168268895795904 0 0,0 0.7313662446467182,-0.39067051907324424 l 12.593858406607698 24.073004906504462" fill="#adff20" stroke="none" /><path d="M 90.26544431104013 81.39251694778311 l -10.47846339712391 -20.029453454808 a43.604804818073205,43.604804818073205 0 0,0 0.6680661257597142,-0.34220941744322625 l 10.132136783775433 20.20685539756373" fill="#e1ff1b" stroke="none" /><path d="M 90.58718382345135 81.22770947309562 l -8.428619100308334 -16.809473756197274 a39.804255579479005,39.804255579479005 0 0,0 0.6151249824191193,-0.3018391574145927 l 8.138022850878787 16.952068073746695" fill="#ffef16" stroke="none" /><path d="M 90.91171255644093 81.06846463323043 l -0.9938024272721009 -2.0701596330799346 a23.296345829984144,23.296345829984144 0 0,0 0.36300342631763427,-0.1704349760006667 l 0.9580207896548582 2.0869595917206087" fill="#ff1101" stroke="none" /><path d="M 91.23893434514133 80.91482961587045 l -11.310666167498194 -24.639239045651784 a48.1113125816763,48.1113125816763 0 0,0 0.7556176758795857,-0.33902362544059156 l 10.884866373151835 24.830283001608905" fill="#adff20" stroke="none" /><path d="M 91.56875222667455 80.76684994638697 l -10.868575588161628 -24.79312087322275 a48.070736560903114,48.070736560903114 0 0,0 0.7606993587700649,-0.3256917661458023 l 10.440192471601256 24.97653216733134" fill="#aeff20" stroke="none" /><path d="M 91.90106846888425 80.62456947434976 l -8.735104996982521 -20.897376320945224 a43.64955620773862,43.64955620773862 0 0,0 0.6957243118113693,-0.28380341538498943 l 8.37409681558277 21.04464062251379" fill="#e1ff1b" stroke="none" /><path d="M 92.23578459929587 80.48803036053334 l -5.564971645141199 -13.985129492239546 a36.051669552774996,36.051669552774996 0 0,0 0.5785723604358934,-0.22447708718819953 l 5.323416119705629 14.078849283318297" fill="#ffc011" stroke="none" /><path d="M 92.57280143429618 80.3572730644239 l -0.8429089283787393 -2.2292429326121947 a23.38327915153513,23.38327915153513 0 0,0 0.37771531283783394,-0.13911573738882618 l 0.804411289768336 2.2434219378073434" fill="#ff1302" stroke="none" /><path d="M 92.91201910852362 80.23233633223022 l -7.6585837637478535 -21.35901751587199 a43.69056047147511,43.69056047147511 0 0,0 0.7101130734036062,-0.24774450787482052 l 7.2897886862809615 21.48768287691902" fill="#e0ff1b" stroke="none" /><path d="M 93.25333710446033 80.11325718540243 l -7.278128656533771 -21.453313290594167 a43.65426688033498,43.65426688033498 0 0,0 0.7136790334492032,-0.2352887565894566 l 6.907766800842158 21.57541577144286" fill="#e1ff1b" stroke="none" /><path d="M 93.59665428221793 80.00007090966166 l -6.901792748968575 -21.556756679911707 a43.63467476476376,43.63467476476376 0 0,0 0.717301332657452,-0.22286901570064002 l 6.5297060436003935 21.672365830494872" fill="#e1ff1b" stroke="none" /><path d="M 93.94186890950719 79.89281104454417 l -5.303967374169696 -17.604088226708793 a39.385755143588845,39.385755143588845 0 0,0 0.6508210627226383,-0.18999251489735727 l 5.0001560937236365 17.692779070524846" fill="#ffea16" stroke="none" /><path d="M 94.28887869178378 79.79150937346287 l -0.6272177728728168 -2.2193758107821853 a23.306302478880994,23.306302478880994 0 0,0 0.38699794613219957,-0.10578115761003909 l 0.5889219375168946 2.22984350921852" fill="#ff1202" stroke="none" /><path d="M 94.63758080256005 79.69619591428918 l -5.788204308827616 -21.9159603095948 a43.66743535145662,43.66743535145662 0 0,0 0.7283959265494134,-0.1856843400892829 l 5.410099493593203 22.012347645852948" fill="#e1ff1b" stroke="none" /><path d="M 94.98787191387505 79.60689891045804 l -6.142024820760444 -24.990369542028706 a46.734083211686276,46.734083211686276 0 0,0 0.7828544516853874,-0.18527635570102743 l 5.710946682112523 25.092391809870605" fill="#bdff1f" stroke="none" /><path d="M 95.33964822691252 79.52364482259891 l -6.001591527172753 -26.36940851755815 a48.04375725421488,48.04375725421488 0 0,0 0.8079524968251449,-0.1765871219421001 l 5.5467963061940875 26.468809137596118" fill="#aeff20" stroke="none" /><path d="M 95.692805502759 79.44645832069477 l -3.1469146144408233 -15.016791261819135 a36.34298182856347,36.34298182856347 0 0,0 0.6133892161984936,-0.12304010630327063 l 2.887958988775193 15.068735324199617" fill="#ffc312" stroke="none" /><path d="M 96.04723909329186 79.375362276772 l -0.40839416978820914 -2.1309110262312685 a23.169692973586585,23.169692973586585 0 0,0 0.3923455173312096,-0.07169863548284543 l 0.3716535313541062 2.13762514306485" fill="#ff1001" stroke="none" /><path d="M 96.40284397218896 79.31037775812273 l -4.608533130824382 -26.506720539435356 a47.90436416965898,47.90436416965898 0 0,0 0.8136232189430567,-0.1342548025183554 l 4.15158070574244 26.582121604893338" fill="#b0ff20" stroke="none" /><path d="M 96.75951476605007 79.25152402106235 l -3.5526495202828827 -22.747230094094277 a44.022984071740886,44.022984071740886 0 0,0 0.7497135561023832,-0.11048828972735956 l 3.160566983751851 22.805012867982605" fill="#dcff1b" stroke="none" /><path d="M 97.11714578562143 79.19881850522333 l -2.2113504503328936 -15.955958451352421 a37.10846612547179,37.10846612547179 0 0,0 0.6334685025546056,-0.08224239229934707 l 1.9363672192704304 15.991659166815904" fill="#ffcd13" stroke="none" /><path d="M 97.47563105711357 79.15227682838746 l -1.9473964341959897 -16.082744909340278 a37.20021718035996,37.20021718035996 0 0,0 0.6363598403740539,-0.07150244272247099 l 1.670269890312218 16.11388330553335" fill="#ffce13" stroke="none" /><path d="M 98.19473922651362 79.07773832637324 l -1.9554212780650755 -22.66256280683752 a43.74676736040893,43.74676736040893 0 0,0 0.7507982923988097,-0.05827639747665618 l 1.5650327963039317 22.69286446650264" fill="#e0ff1b" stroke="none" /><path d="M 98.55514903715128 79.0497635885617 l -1.5575268027829274 -22.58402809319413 a43.637672465506895,43.637672465506895 0 0,0 0.7498156345648146,-0.04523092673462422 l 1.16854911937849 22.607492289309064" fill="#e1ff1b" stroke="none" /><path d="M 98.91598698831166 79.02799685794201 l -0.9471102024660879 -18.323394579053897 a39.347855641336324,39.347855641336324 0 0,0 0.6767066090804793,-0.029140410077174286 l 0.6315627609962846 18.336982715655264" fill="#ffe915" stroke="none" /><path d="M 99.27714615592234 79.0124445844662 l -0.5172256452482261 -15.017284587914707 a36.026189096458324,36.026189096458324 0 0,0 0.6199478654710813,-0.01601142434075725 l 0.2586511445822659 15.023962804397824" fill="#ffbf11" stroke="none" /><path d="M 99.63851952072746 79.00311137660856 l -0.25859954409172564 -15.0209655477964 a36.02319139571519,36.02319139571519 0 0,0 0.6200800233642577,-0.005337224527346064 l 3.679620651148132e-15 15.023191395715187" fill="#ffbf11" stroke="none" /></svg>