<?xml version="1.0" encoding="utf-8" ?>
<svg baseProfile="full" height="200mm" version="1.1" viewBox="0,0,200,200" width="200mm" xmlns="http://www.w3.org/2000/svg" xmlns:ev="http://www.w3.org/2001/xml-events" xmlns:xlink="http://www.w3.org/1999/xlink"><defs /><rect fill="#1a1a1a" height="200" width="200" x="0" y="0" /><text alignment-baseline="middle" fill="#e1ed5e" style="dominant-baseline: central; font-size:9.0px; font-family:Arial;" text-anchor="middle" x="100.0" y="100.0">2021</text><line stroke="#e1ed5e" stroke-width="0.3" x1="100.0" x2="100.0" y1="15.0" y2="10.0" /><path d="M 100.0 14.0 a86.0,86.0 0 0,1 42.46469731375804,11.215312516191453" fill="none" id="id97" stroke="none" /><text fill="#e1ed5e" style="font-size:6.75px; font-family:Arial;" text-anchor="middle"><textPath startOffset="22.20632615414155" xlink:href="#id97">January</textPath></text><path d="M 100.0 79.0 l 0.0 -15.050170702403427 a36.05017070240343,36.05017070240343 0 0,0 0.6205444277791072,0.0053412218027624895 l -0.2590639485065789 15.047940857209223" fill="#ffbd11" stroke="none" /><path d="M 100.72285384407766 79.0124445844662 l 1.776809686926414 -51.58842561708642 a72.61901500719685,72.61901500719685 0 0,0 1.248905857747898,0.05378051337788237 l -2.6645563770636436 51.55019737718434" fill="#3fffbc" stroke="none" /><path d="M 101.08401301168833 79.027996857942 l 1.1083330311637127 -21.44251366116909 a42.4711386334631,42.4711386334631 0 0,0 0.7297713641879824,0.04402180160696912 l -1.477266444191307 21.420258590181817" fill="#f1ff19" stroke="none" /><path d="M 101.44485096284872 79.0497635885617 l 1.0475022773714084 -15.188708674272318 a36.22478677069119,36.22478677069119 0 0,0 0.6217032638292562,0.04825613867566023 l -1.3087957305630058 15.168427273408193" fill="#ffc011" stroke="none" /><path d="M 102.16513564639614 79.11191278185805 l 2.213015436160365 -21.35000618670463 a42.46439380679105,42.46439380679105 0 0,0 0.726410674794036,0.08162070321238306 l -2.5801928144641266 21.308749530021647" fill="#f1ff19" stroke="none" /><path d="M 102.52436894288641 79.15227682838746 l 4.893149166933781 -40.41050320996299 a61.70567133032317,61.70567133032317 0 0,0 1.0533606828312627,0.13675644828551886 l -5.58802457827289 40.32028843851333" fill="#31ff41" stroke="none" /><path d="M 102.88285421437855 79.19881850522331 l 2.0726238906217853 -14.954979514469672 a36.09791979281198,36.09791979281198 0 0,0 0.6147493266622835,0.09059807063791067 l -2.329742197712725 14.917086959670792" fill="#ffbe11" stroke="none" /><path d="M 103.59715602781102 79.31037775812273 l 9.119027192339612 -52.44955358183999 a74.23638161886036,74.23638161886036 0 0,0 1.257086642634937,0.22972454884592966 l -10.02050895607745 52.284813551643325" fill="#41ffcd" stroke="none" /><path d="M 103.95276090670814 79.375362276772 l 7.675779101565598 -40.050528465977024 a61.77943618075251,61.77943618075251 0 0,0 1.042700351744795,0.20915588134438504 l -8.364045862777518 39.91246862855543" fill="#31ff42" stroke="none" /><path d="M 104.307194497241 79.44645832069477 l 3.1274592596641853 -14.923952072517741 a36.24812601219133,36.24812601219133 0 0,0 0.6095852112859587,0.13323171654576813 l -3.383887195103672 14.867906857876102" fill="#ffc011" stroke="none" /><path d="M 105.01212808612495 79.60689891045804 l 5.40294479831298 -21.983236972381047 a43.63745834402525,43.63745834402525 0 0,0 0.7278958942042634,0.18555687071082344 l -5.780549581202268 21.886977105501355" fill="#e3ff1b" stroke="none" /><path d="M 105.36241919743992 79.69619591428918 l 6.931273849792046 -26.24398077229301 a48.1438590468875,48.1438590468875 0 0,0 0.7994221557412293,0.21851227351096122 l -7.381993894756985 26.120781957955757" fill="#aeff20" stroke="none" /><path d="M 105.71112130821622 79.79150937346287 l 4.266228027582829 -15.095814718914669 a36.68707504957932,36.68707504957932 0 0,0 0.6062273297770862,0.17697438140987257 l -4.525445575083342 15.020142008586092" fill="#ffc512" stroke="none" /><path d="M 106.40334571778207 80.00007090966166 l 15.441357128788683 -48.22885742007576 a71.64047983604411,71.64047983604411 0 0,0 1.1712098738337935,0.38612948118681506 l -16.269249824864893 47.95591421462971" fill="#3effb2" stroke="none" /><path d="M 106.74666289553966 80.11325718540242 l 9.076937611455742 -26.755557023978046 a49.253329504070855,49.253329504070855 0 0,0 0.8005260818828904,0.2792878312272809 l -9.536145697401906 26.595348339578557" fill="#a2ff22" stroke="none" /><path d="M 107.08798089147638 80.2323363322302 l 5.1119739423052515 -14.256779626961578 a36.1455618224797,36.1455618224797 0 0,0 0.5838673054792912,0.21504325606690858 l -5.356623573557119 14.166673103088344" fill="#ffbf11" stroke="none" /><path d="M 107.76421540070413 80.48803036053334 l 7.93674443129395 -19.945546122479968 a42.4666420823484,42.4666420823484 0 0,0 0.6768700052085047,0.27611227031823665 l -8.278898306090841 19.805972965978153" fill="#f1ff19" stroke="none" /><path d="M 108.09893153111575 80.62456947434976 l 14.256696504472059 -34.10692281894427 a57.966682017704095,57.966682017704095 0 0,0 0.9172985686422443,0.3927393752337973 l -14.841678830904618 33.85646391574768" fill="#46ff2c" stroke="none" /><path d="M 108.43124777332544 80.76684994638697 l 6.168662626686739 -14.071797807264053 a36.36450103746956,36.36450103746956 0 0,0 0.5711267950090849,0.2562479449740953 l -6.409971540162604 13.963529531773426" fill="#ffc112" stroke="none" /><path d="M 109.08828744355905 81.06846463323043 l 20.803177389197636 -43.334466579167334 a69.06920202361793,69.06920202361793 0 0,0 1.0673781248250118,0.5237578102793322 l -21.54602678103308 42.96995360875317" fill="#3aff96" stroke="none" /><path d="M 109.41281617654863 81.2277094730956 l 9.693672571435945 -19.332411721483698 a42.62659082914295,42.62659082914295 0 0,0 0.6530789785296226,0.33453241852801774 l -10.025012037554323 19.16268677764318" fill="#efff19" stroke="none" /><path d="M 109.73455568895987 81.39251694778311 l 7.2527403513426245 -13.863523665778875 a36.64607078584283,36.64607078584283 0 0,0 0.5564181521590539,0.29721930690245785 l -7.4903035500299895 13.736625632374663" fill="#ffc512" stroke="none" /><path d="M 110.36928655335952 81.73862282372117 l 10.852287082592346 -19.111990648601594 a42.97817830201665,42.97817830201665 0 0,0 0.6401768859789779,0.370831772917838 l -11.179660701036651 18.922354718293708" fill="#ebff1a" stroke="none" /><line stroke="#e1ed5e" stroke-width="0.3" x1="143.23703022742887" x2="145.7803849466894" y1="26.81831364943548" y2="22.513508569990506" /><path d="M 143.74570117128098 25.957352633546492 a86.0,86.0 0 0,1 28.547481713284135,27.462654790039103" fill="none" id="id98" stroke="none" /><text fill="#e1ed5e" style="font-size:6.75px; font-family:Arial;" text-anchor="middle"><textPath startOffset="19.985693538727396" xlink:href="#id98">February</textPath></text><path d="M 110.68208982089419 81.91981866633111 l 24.26161783559277 -41.0644786994473 a68.69609534183815,68.69609534183815 0 0,0 1.012900810502997,0.6102614049035323 l -24.964880712313406 40.64077068508515" fill="#3aff92" stroke="none" /><path d="M 110.99172775467656 82.1063720568725 l 11.427118606648522 -18.602408408665593 a42.831826269307044,42.831826269307044 0 0,0 0.6248976779921074,0.39131086863043446 l -11.745635437012892 18.40295319871221" fill="#ecff1a" stroke="none" /><path d="M 111.60114157652 82.49532879139004 l 11.942501802600765 -18.01974108184849 a42.61791890913602,42.61791890913602 0 0,0 0.6080061161590393,0.4105284437114035 l -12.250912613166346 17.811500725838417" fill="#efff19" stroke="none" /><path d="M 111.90073688211348 82.69761687909136 l 17.143827197022553 -24.92526885182749 a51.251939413816956,51.251939413816956 0 0,0 0.7225763474465025,0.5062109081985757 l -17.570334684052707 24.626473100864978" fill="#8cff24" stroke="none" /><path d="M 112.19680574252982 82.90503203632743 l 11.249272346342625 -15.766910979387916 a40.36857274437464,40.36857274437464 0 0,0 0.5621894367240549,0.40845453457540226 l -11.519007099420469 15.570937209995838" fill="#fff417" stroke="none" /><path d="M 112.77801427241765 83.33499621200491 l 14.666451524143064 -19.127891470107592 a45.10354812890113,45.10354812890113 0 0,0 0.6120496601684101,0.477714467932287 l -14.993533739470905 18.872598612952082" fill="#d1ff1c" stroke="none" /><path d="M 113.06298171725822 83.55741782278167 l 34.86641417804687 -43.88690826919368 a77.05111555592563,77.05111555592563 0 0,0 1.031371748551684,0.8339642268980414 l -35.616689325163044 43.28023794503151" fill="#44ffea" stroke="none" /><path d="M 113.34407831869373 83.78471172551755 l 12.372113134004007 -15.03418791774779 a40.47038750890049,40.47038750890049 0 0,0 0.5340982321159834,0.4472919095542587 l -12.629068903079107 14.818994850799713" fill="#fff517" stroke="none" /><path d="M 113.89432698308785 84.25364557470407 l 14.437821035263328 -16.362292857147462 a42.82144137744689,42.82144137744689 0 0,0 0.5484998678969355,0.4924485970752783 l -14.717331890756252 16.111345251302886" fill="#ecff1a" stroke="none" /><path d="M 114.16331599549186 84.49514656593476 l 14.6311174091837 -16.016964606184057 a42.69361085290024,42.69361085290024 0 0,0 0.5383300745799405,0.5003191349910813 l -14.904655367558487 15.762740885118337" fill="#eeff19" stroke="none" /><path d="M 114.42810811169701 84.74124197986012 l 13.258463622418558 -14.021775174341755 a40.29759147320678,40.29759147320678 0 0,0 0.49991418194436676,0.48091704694899357 l -13.497861047975345 13.79147504063046" fill="#fff316" stroke="none" /><path d="M 114.94478906791727 85.2469230424477 l 44.718405285284305 -44.144756516443394 a83.8370535524623,83.8370535524623 0 0,0 1.0049896383329033,1.0357301633852953 l -45.47165918732031 43.368462157507985" fill="#4dd3ff" stroke="none" /><path d="M 115.19652480421416 85.50635884689758 l 41.53157074171693 -39.6106143088851 a78.39226545625718,78.39226545625718 0 0,0 0.9229109393120396,0.9844970419537632 l -42.20724900299943 38.88984785005328" fill="#46fff7" stroke="none" /><path d="M 115.4437574822437 85.77008943001954 l 14.287911841271901 -13.164911969565974 a40.42831263775574,40.42831263775574 0 0,0 0.4671517695578345,0.5158406517467579 l -14.51240725144577 12.917018530549669" fill="#fff417" stroke="none" /><path d="M 115.9244219780498 86.31012108654704 l 46.852792880044014 -40.27832609365732 a82.78614532051097,82.78614532051097 0 0,0 0.9196728120756364,1.0886025297601583 l -47.53917630560677 39.46586461426805" fill="#4bddff" stroke="none" /><path d="M 116.15771136456269 86.58626213691792 l 18.361191653142015 -15.24301345234009 a44.863839130190954,44.863839130190954 0 0,0 0.4881645186900022,0.5984319786915246 l -18.620854663908425 14.924697304040466" fill="#d4ff1c" stroke="none" /><path d="M 116.38621287248628 86.86637796730983 l 15.521472300132448 -12.440528642411016 a40.89177858479296,40.89177858479296 0 0,0 0.4354894960830511,0.5530274353747362 l -15.733315876809463 12.171508813083241" fill="#fffa17" stroke="none" /><path d="M 116.82858285166822 87.43820079747576 l 46.75112216368341 -34.89766276158276 a79.33964595182945,79.33964595182945 0 0,0 0.8075166023732316,1.1014517381316775 l -47.34490137857027 34.087748579779586" fill="#47feff" stroke="none" /><path d="M 117.04232023915458 87.72973835380427 l 23.27821466240186 -16.760029183570257 a49.68403486441522,49.68403486441522 0 0,0 0.49373481302035027,0.6983528785031734 l -23.563262095226094 16.35684980473529" fill="#9dff22" stroke="none" /><path d="M 117.2510076193507 88.02491185347247 l 17.931343167802936 -12.447354946340026 a42.82818620411894,42.82818620411894 0 0,0 0.41517956623535696,0.609224782982739 l -18.142947199707027 12.13685214008688" fill="#ecff1a" stroke="none" /><path d="M 117.45458315368197 88.32363383020206 l 1.103868142061571 -0.7384403578361319 a22.328088489950733,22.328088489950733 0 0,0 0.2109508515443912,0.32129261940814885 l -1.1164156289638871 0.7193296744503092" fill="#ff0000" stroke="none" /><path d="M 117.65298651832404 88.62581576622439 l 21.655223301646085 -13.952908149609671 a46.7610625183745,46.7610625183745 0 0,0 0.430140326131788,0.680378697517733 l -21.89219122402383 13.578081804377732" fill="#beff1f" stroke="none" /><line stroke="#e1ed5e" stroke-width="0.3" x1="172.23445277983987" x2="176.4835382374775" y1="55.19839476539836" y2="52.563006222186495" /><path d="M 173.08426987136738 54.67131705675599 a86.0,86.0 0 0,1 12.851231095245387,41.99856678651699" fill="none" id="id99" stroke="none" /><text fill="#e1ed5e" style="font-size:6.75px; font-family:Arial;" text-anchor="middle"><textPath startOffset="22.20632615414155" xlink:href="#id99">March</textPath></text><path d="M 117.84615892207809 88.93136811851018 l 42.197291613449394 -26.17181037692797 a70.65455747377436,70.65455747377436 0 0,0 0.6321369108762003,1.039066872271142 l -42.64154432261182 25.441575731449745" fill="#3cffa7" stroke="none" /><path d="M 118.03404312379186 89.2402003453031 l 20.754514282912805 -12.382936764749882 a45.16789163413776,45.16789163413776 0 0,0 0.39261722106592795,0.6711100995437733 l -20.96459117844906 12.023847252852214" fill="#d1ff1d" stroke="none" /><path d="M 118.3937258080291 89.86733742301442 l 49.04453829557923 -27.01746035467302 a76.99383805958354,76.99383805958354 0 0,0 0.6294865907102668,1.166343050141649 l -49.50233298550796 26.169236321198913" fill="#44ffe9" stroke="none" /><path d="M 118.56541770881063 90.18545643968196 l 21.206469694145433 -11.210726515190728 a44.987387225104555,44.987387225104555 0 0,0 0.3560228277897841,0.6877227834997646 l -21.396301955095336 10.84403100943062" fill="#d3ff1c" stroke="none" /><path d="M 118.73160827565052 90.50648371742162 l 56.19482482695156 -28.480548847735175 a84.0,84.0 0 0,0 0.6425599481863675,1.2953616460042006 l -56.676744788091334 27.509027613232025" fill="#4dd2ff" stroke="none" /><path d="M 118.89224826269711 90.83032412892265 l 1.8480950478355835 -0.8970045455657247 a23.054281494975793,23.054281494975793 0 0,0 0.17020844965055354,0.3585024035305851 l -1.8632616913278932 0.8650597263945993" fill="#ff0b01" stroke="none" /><path d="M 119.04729006885535 91.15688171328212 l 27.585653429786134 -12.807239004297022 a51.41370819320555,51.41370819320555 0 0,0 0.3657661371613092,0.8059171990961801 l -27.80202188391079 12.33049979635878" fill="#8aff24" stroke="none" /><path d="M 119.196687751892 91.48605970444005 l 49.307951927672775 -21.86861422315786 a74.93987774683023,74.93987774683023 0 0,0 0.5128360302606314,1.1836962644380475 l -49.67707866777609 21.01661881413321" fill="#42ffd4" stroke="none" /><path d="M 119.34039704204932 91.81776055985345 l 14.001181304667698 -5.92340568968772 a36.20262519734013,36.20262519734013 0 0,0 0.23786557881048745,0.576010366418064 l -14.101068570364383 5.681520752816353" fill="#ffbf11" stroke="none" /><path d="M 119.61058180528143 92.48833698450437 l 30.581358147126434 -11.713923596878166 a53.748060586183044,53.748060586183044 0 0,0 0.32350039214429444,0.8668202166707528 l -30.77846312777235 11.18578024317808" fill="#71ff27" stroke="none" /><path d="M 119.7369772167798 92.82701384747503 l 20.181792149287237 -7.334644714333487 a42.47327984827963,42.47327984827963 0 0,0 0.24381062064823378,0.6892854564638257 l -20.30505585074528 6.986161631443047" fill="#f1ff19" stroke="none" /><line stroke="#e1ed5e" stroke-width="0.3" x1="184.98032266829074" x2="189.97916517819016" y1="98.17113171792111" y2="98.06355123074" /><path d="M 185.9800911702706 98.14961562048488 a86.0,86.0 0 0,1 -9.607161424134198,41.387399972396054" fill="none" id="id100" stroke="none" /><text fill="#e1ed5e" style="font-size:6.75px; font-family:Arial;" text-anchor="middle"><textPath startOffset="21.466115282336823" xlink:href="#id100">April</textPath></text><line stroke="#e1ed5e" stroke-width="0.3" x1="174.80103733775053" x2="179.2010983576182" y1="140.37084112569926" y2="142.7455964860345" /><path d="M 175.68104954172406 140.8457921977663 a86.0,86.0 0 0,1 -30.038265399797805,32.042727171017184" fill="none" id="id101" stroke="none" /><text fill="#e1ed5e" style="font-size:6.75px; font-family:Arial;" text-anchor="middle"><textPath startOffset="22.206326154141568" xlink:href="#id101">May</textPath></text><line stroke="#e1ed5e" stroke-width="0.3" x1="143.8653032363475" x2="146.44561519142675" y1="172.8068346515853" y2="177.08958963109032" /><path d="M 144.38136562736335 173.6633856474863 a86.0,86.0 0 0,1 -40.68145358897372,12.25698825130547" fill="none" id="id102" stroke="none" /><text fill="#e1ed5e" style="font-size:6.75px; font-family:Arial;" text-anchor="middle"><textPath startOffset="21.466115282336833" xlink:href="#id102">June</textPath></text><line stroke="#e1ed5e" stroke-width="0.3" x1="102.19456741930631" x2="102.32365962044197" y1="184.97166512339345" y2="189.96999836594603" /><path d="M 102.22038585953345 185.97133177190398 a86.0,86.0 0 0,1 -42.740103519485714,-10.115201625700543" fill="none" id="id103" stroke="none" /><text fill="#e1ed5e" style="font-size:6.75px; font-family:Arial;" text-anchor="middle"><textPath startOffset="22.20632615414155" xlink:href="#id103">July</textPath></text><line stroke="#e1ed5e" stroke-width="0.3" x1="58.666819895761336" x2="56.23545636021788" y1="174.27360380694188" y2="178.64263932499728" /><path d="M 58.180547188652646 175.14741091055294 a86.0,86.0 0 0,1 -31.652253787137756,-30.449443065178592" fill="none" id="id104" stroke="none" /><text fill="#e1ed5e" style="font-size:6.75px; font-family:Arial;" text-anchor="middle"><textPath startOffset="22.20632615414155" xlink:href="#id104">August</textPath></text><line stroke="#e1ed5e" stroke-width="0.3" x1="26.63291911575756" x2="22.317208475507996" y1="142.92168965132927" y2="145.44649492493687" /><path d="M 25.769776987707644 143.4266507060508 a86.0,86.0 0 0,1 -11.730757126820373,-40.83630448921669" fill="none" id="id105" stroke="none" /><text fill="#e1ed5e" style="font-size:6.75px; font-family:Arial;" text-anchor="middle"><textPath startOffset="21.46611528233685" xlink:href="#id105">September</textPath></text><line stroke="#e1ed5e" stroke-width="0.3" x1="15.007084014347285" x2="10.007500721073583" y1="101.09737516637583" y2="101.16192664675087" /><path d="M 14.007167355692545 101.11028546245083 a86.0,86.0 0 0,1 10.666146001902534,-42.60595125391555" fill="none" id="id106" stroke="none" /><text fill="#e1ed5e" style="font-size:6.75px; font-family:Arial;" text-anchor="middle"><textPath startOffset="22.20632615414155" xlink:href="#id106">October</textPath></text><line stroke="#e1ed5e" stroke-width="0.3" x1="26.266209847984243" x2="21.928928074336255" y1="57.711370442889674" y2="55.22380399835377" /><path d="M 25.398753493254645 57.213857153982495 a86.0,86.0 0 0,1 29.58750427330803,-30.492523968695096" fill="none" id="id107" stroke="none" /><text fill="#e1ed5e" style="font-size:6.75px; font-family:Arial;" text-anchor="middle"><textPath startOffset="21.46611528233685" xlink:href="#id107">November</textPath></text><line stroke="#e1ed5e" stroke-width="0.3" x1="56.762969772571076" x2="54.21961505331055" y1="26.818313649435495" y2="22.513508569990535" /><path d="M 56.25429882871897 25.957352633546506 a86.0,86.0 0 0,1 42.265352541879196,-11.944610805530505" fill="none" id="id108" stroke="none" /><text fill="#e1ed5e" style="font-size:6.75px; font-family:Arial;" text-anchor="middle"><textPath startOffset="22.20632615414155" xlink:href="#id108">December</textPath></text></svg>